<?xml version="1.0" encoding="UTF-8"?>
<svg id="Layer_1" xmlns="http://www.w3.org/2000/svg" version="1.1" viewBox="0 0 1920 1080">
  <!-- Generator: Adobe Illustrator 30.3.0, SVG Export Plug-In . SVG Version: 2.1.3 Build 182)  -->
  <defs>
    <style>
      .st0 {
        fill: #dbb57f;
      }

      .st1 {
        fill: #ff7f00;
      }
    </style>
  </defs>
  <g>
    <path class="st0" d="M1285.1,923.1c4.3,2.4,12.2,2.9,13.4.8.5-.8-.6-1.4-2.4-1.4s-5.3-1.3-7.7-2.7c-5.4-3.4-7.2-3.5-7.2-.6s1.8,2.9,3.8,4.2v-.2Z"/>
    <path class="st0" d="M1309.7,961.4c-24.5.3-29.4.8-27.2,3.2,1,1,9.6,1.9,22.9,2.2,11.7.3,21.8,1.1,22.2,1.8,1.3,1.3,5.3,1.4,6.4.2.5-.5,0-2.4-1.3-4.2-2.2-3.4-2.4-3.4-23-3.2Z"/>
    <path class="st0" d="M1345.7,956.2c-5.8-1-15.4-4.3-24.5-8.5-6.4-2.9-16-4-17.3-1.9-1.4,2.2-1,2.6,10.4,5.6,5.6,1.6,13.3,3.7,17.1,4.6,3.8,1,8.8,2.1,11,2.6,7.7,1.1,10.6,1,9.8-.3-.5-.6-3.4-1.8-6.7-2.2l.2.2Z"/>
    <path class="st0" d="M1383.5,964.4c0,1.1,5.4,1.6,17.9,1.9,17.3.2,21.9-.8,14.9-3.5-9.9-3.7-32.8-2.6-32.8,1.8v-.2Z"/>
    <path class="st0" d="M1373.9,943.4c-4.6-3.2-11.5-5.3-24.3-7.8-13.4-2.7-24.8-9.6-27.8-17.1-4-10.1-33-22.2-38.9-16.3-2.7,2.7-2.1,3.2,5,3.4,6.7.2,20.8,5.6,25.4,9.8,1.6,1.4,2.2,3.4,1.6,5.4-.8,3.4,2.6,8.8,5.6,8.8s4.2,2.4,7.5,5.4c3.8,3.5,7.8,5.8,11.2,6.2,2.9.5,10.2,2.6,16.2,4.8,13,4.6,17.4,5,20,1.9,1.6-1.9,1.4-2.6-1.4-4.5h0Z"/>
    <path class="st0" d="M1408,933.5c-4.6,0-11.2-.6-14.6-1.4s-12-1.4-19.4-1.6c-12.3-.2-13.3,0-13.3,2.4s1.4,2.7,15.2,3.7c8.3.5,17.6,1.6,20.6,2.2,3,.8,10.4,1.4,16.2,1.4,8.8,0,10.7-.3,10.7-1.9,0-3-5.8-4.8-15.7-4.8h.2Z"/>
    <path class="st0" d="M1457.7,955.3c-3.2-.5-9-1.1-12.8-1.6-4.6-.6-8.3-.3-11,1-3.8,1.8-3.4,1.9,9,2.6,7.2.5,14.9,1,17,1.1,6.1.5,4.3-2.1-2.1-2.9v-.2Z"/>
    <path class="st0" d="M1444.6,935.9c-.3,1.1,2.2,1.8,8.2,2.2,14.6,1,18.4.5,18.4-1.8,0-4.6-25-5.1-26.6-.5h0Z"/>
    <path class="st0" d="M868.3,760.2c-1.9,0-3,3.5-3.2,11,0,2.2-1.1,4.8-2.2,5.8-1.8,1.3-1.9,1.9-.3,3.7,2.1,2.6,1,5.1-2.2,5.1s-1.9.3-.2,2.4c1.1,1.3,1.8,3.5,1.4,5-.5,1.9-1.4,2.2-4.6,1.6-5-1.1-5.6,1.9-1,4.6,2.6,1.6,2.7,2.1.8,3-1.3.8-1.9,2.4-1.4,4.5.3,1.9,0,3.7-.8,4.3-.8.5-1.4,1.8-1.4,2.9,0,3.2,3.5,2.2,5.3-1.4.8-1.9,2.1-3.5,2.9-3.5,2.7,0,8.6-26.4,9-40,0-6.9-.3-9-1.8-9h-.2Z"/>
    <path class="st0" d="M902.9,725.7c-1.8-1.1-2.4.3-3.5,6.9l-1,5.4,2.9-3.5c3-3.7,3.7-7.7,1.6-9v.2Z"/>
    <path class="st0" d="M609.6,713.8c-1.1,2.6-5.3,19.8-5.3,21.8s2.2.3,4-1c1.3-.8,2.1-4.8,2.4-12.8.3-9.1.2-10.9-1-8.2l-.2.2Z"/>
    <path class="st0" d="M946.2,270.8c4,1,5.4.5,5.9-2.1.3-1.6-1-2.6-4.6-3.2-8.3-1.6-9.4,3.4-1.4,5.3h.2Z"/>
    <path class="st0" d="M698.7,908.6c-1.4-.5-3.4-1.1-4.2-1.1-2.2,0-15.8,12.3-14.9,13.9,1.3,1.9,2.9,1.4,7.2-2.2,2.2-1.9,4.6-3.5,5.4-3.5s3-1.3,5.1-3c3.5-2.7,3.7-3,1.3-4h0Z"/>
    <path class="st0" d="M655.7,425c-.3,1.1,4.5-1,10.9-4.3,6.4-3.5,11.8-7,12.2-8,.3-1-4.6,1-10.9,4.3-6.2,3.4-11.8,6.9-12.2,8Z"/>
    <path class="st0" d="M678.2,231.8c2.4-4.8,2.6-5.6.8-5.6s-1.8,1.6-2.2,3.5c-.5,1.9-1.4,3.5-2.1,3.5s-1.3.6-1.3,1.4c0,2.9,2.7,1.3,4.8-2.7v-.2Z"/>
    <path class="st0" d="M683.7,192.2c1.8-.6,1.9-1.3.6-2.7-2.9-3.5-9.8-1.4-7.5,2.2,1,1.6,3.5,1.8,6.9.5h0Z"/>
    <path class="st0" d="M681.6,205.5c1.6-1,1.6-1.8.5-2.9-2.1-2.1-5.9-.6-5.9,2.1s2.4,2.7,5.6.8h-.2Z"/>
    <path class="st0" d="M671.5,908.1c-3.7.6-4.8.3-5.6-1.4-.6-1.8-1.9-2.1-5-1.6-3.2.6-4.5,0-6.1-2.1-1.9-2.7-2.2-2.7-6.1-.6-2.2,1.1-4.5,2.7-5,3.4-.5.6-2.4,1-4.3.5l-3.7-.6,4-3.2c2.1-1.8,3.5-3.5,2.9-4.2-.6-.6-1.8-.5-2.7.3-2.7,2.1-14.2,4.8-12.3,2.7,4.2-4.2-.8-6.9-6.9-3.7-1.9,1-3.7,1-6.4-.5-3.7-1.8-14.2-1.6-14.1.3.3,4.3,23.8,14.1,33.6,14.1s9.4-1.1,13.6-2.6q7.7-2.6,6.9,0c-.6,2.6-.3,2.7,5,1.8,3.8-.6,5.8-.5,5.8.5,0,1.9,1.3,1.9,6.7,0,5.8-2.1,5.6-4.3-.3-3.2v.2Z"/>
    <path class="st0" d="M490.4,919.8c-1.8-1.4-2.1-1.3-2.1.3s.5,2.4,1,2.9c1.3,1.3,3.2,1.1,3.2-.3s-1-1.9-2.1-2.9Z"/>
    <path class="st0" d="M613.6,697c-.8.8-1,2.1-.3,3,.6,1.1,1.4,1.1,2.4.2.8-.8,1-2.1.3-3-.6-1.1-1.4-1.1-2.4-.3v.2Z"/>
    <path class="st0" d="M681.7,358.3c2.4-1.9,5.1-3.5,6.1-3.5,2.4,0,5.4-3.7,3.8-4.6-1.8-1.1-14.1,7.7-14.1,9.9s1.6.5,4.3-1.8h-.2Z"/>
    <path class="st0" d="M622.9,727c.5,5.1-.3,15.4-1.9,26.9-1.4,10.2-2.7,19.4-2.7,20.3,0,2.6,2.4,2.1,4-.6,1.8-3.4,2.9-13.1,3.7-32.8.6-13.9.3-17.1-1.4-19.4-2.1-2.6-2.1-2.1-1.4,5.6h-.2Z"/>
    <path class="st0" d="M783.7,772.9c-.8,1-1,3.5-.5,5.9.8,3.8,4,6.2,3.4,2.4-.2-1,0-3.5.6-5.9,2.4-10.1,4.8-30.6,3.7-31.5-2.1-2.1-4,4-5,15.8-.5,6.4-1.4,12.3-2.2,13.3Z"/>
    <path class="st0" d="M665.1,459c-.8.5-1.4,1.4-1.4,2.2s.6,1,1.4.5c.8-.5,1.4-1.4,1.4-2.2s-.6-1-1.4-.5Z"/>
    <path class="st0" d="M1262.4,892.1c-3.4-1.4-9.3-4.6-13.4-7.4-4.2-2.6-14.1-8-22.1-11.8-8.2-4-14.7-7.5-14.7-8.2s-3.7-5.1-8.2-10.2c-4.6-5.3-8.6-11-9.1-13.6-1-4.3-4.5-11.4-8.5-17.1-1.1-1.4-1.9-4.8-1.9-7.2,0-8.5-5.3-17-10.6-17s-4.3-1.3-5.4-20c-.5-8.3-1.6-16.6-2.2-18.6-.6-1.9-4.2-6.4-7.5-10.1-4.6-5-6.1-7.5-5.6-9.8,1.1-4.3-2.6-21.9-4.8-23.7-4.3-3.2-9.4-11.7-9.4-15.4,0-6.1-6.2-15.5-12.5-18.7-4-2.1-5.4-3.7-5.4-6.1s-1.9-7.2-4.2-12-4.2-9.4-4.2-10.2-1.3-2.7-2.9-4.2c-3.5-3.2-6.7-9.3-6.7-12.6s-1.9-5.3-4.2-8.6c-3.2-4.6-4.2-7.8-4.2-12.6,0-8.5-2.1-13-9.1-20-7.5-7.4-10.1-12.8-10.7-21.6-.3-4.2-1.4-7.8-2.6-8.6s-2.7-2.9-3.5-4.5c-1-1.6-4.2-5.9-7.2-9.4s-6.9-9.1-8.5-12.5l-2.9-6.1,5.4-6.2c5.4-6.2,8.6-14.4,8.6-22.4s-8.5-13.9-20.2-19.2c-7.8-3.5-10.9-5.9-13.8-10.4-3.2-5-3.5-5.9-1.8-7.4,1.1-.8,3-3.8,4.3-6.7,2.1-4.6,2.1-5.3.3-7.2-1.1-1.1-3-2.1-4.2-2.1s-1.9-1-1.9-2.1-1.9-3.2-4.2-4.5c-2.4-1.3-4.5-4-5-6.1s-1.8-4-2.9-4.5-1.9-2.2-1.9-4.2c0-3.8-4.6-7.7-9.1-7.7s-3.4-1.4-5.6-10.1c-2.2-8.6-2.6-15.5-2.4-48.6,0-25.6.6-41.8,1.9-47.7,1-5,1.9-18.2,2.2-29.8.5-23-1.6-38.9-6.9-52.5-1.8-4.6-4-10.7-5-13.8-5.4-16.6-24.5-34.9-53.3-51.2-10.4-5.9-19.2-11.7-19.5-13-3-9.4-3.7-10.1-17-16.8-7.4-3.7-16.3-9-20.2-11.8-8.8-6.7-20.5-12-27.5-12.3-35.4-1.9-36-2.1-43.7-7.8-7.2-5.4-7.4-5.4-14.2-4.2-3.8.8-9,1.1-11.2.6-2.9-.5-6.6.6-12,3.5-4.3,2.2-10.6,4.5-13.8,5-9.1,1.4-13.4,3.4-22.7,10.7-4.6,3.7-9.6,6.6-11.2,6.6s-4.8,1.6-7.4,3.5-5.3,3.5-6.1,3.5c-2.2,0-15.4,5.3-35.7,14.4-4.3,1.9-8.8,3.5-9.8,3.5s-3.8,1.8-6.6,3.8c-2.7,2.1-8.3,6.2-12.8,9.1-5.8,3.8-8,6.1-8,8.3s-1.1,6.6-2.7,10.7c-4.5,13-5,32.3-1.4,50.1,2.9,14.2,2.9,16.3,1.4,35.8-1,11.5-1.9,27-2.4,34.6-.8,14.6,1.4,37,4.6,47.7,1,3.4,1.9,11.8,1.9,18.6s1,15.4,1.9,18.9c1.1,3.5,1.6,7.7,1.3,9.3-.5,1.6,0,2.9.6,2.9,2.4,0,2.9,5,.8,9.6-2.6,6.2-2.4,17.4.5,22.2,1.9,3.2,2.1,4.8.8,8.8-1,3-1.3,12.3-.8,24.6.6,19.4.6,20-2.9,27-7.4,14.7-11.7,36.8-7.8,40.6,2.6,2.6,1.6,7.7-2.4,12.3-2.1,2.6-5,6.4-6.4,8.8-2.4,4.2-2.4,4.3,1.3,10.2l3.7,5.9-4.2,4.3c-4.6,4.8-6.9,8.5-16.2,26.4-18.4,35.5-18.9,36.8-24.2,57.3-4,15.7-5.3,46.7-2.6,63.4,3,18.7,2.1,73.9-1.6,85.8-.8,2.7-2.6,13.4-4,24-3,21.9-3.5,22.9-15.5,26.2l-7.8,2.2-13.6-5c-10.9-4-14.9-6.1-20-11.2-5.1-5-7.8-6.6-13.1-7.5-12.2-2.1-17-1.4-23.4,2.6-10.4,6.7-15.7,20.5-13.3,35.4,1.3,8.2,0,21.1-2.9,27.2-.8,1.9-3.7,6.2-6.4,9.4-8.5,10.6-10.6,21-5.8,27.8,1.4,2.1,3.4,5.4,4.2,7.4.8,1.9,3,4.6,5.3,6.1,2.1,1.4,4.5,3.2,5.3,4.2.8.8,3.5,2.9,6.2,4.5,3.5,2.1,7.2,2.9,13.1,2.9s8.8-.5,12.2-3.7c2.1-2.1,3.8-5.1,3.8-7,0-5-4.2-11-8.6-12.6-2.1-.8-3.8-1.9-3.8-2.6s3-4,6.7-7.4,9.6-10.7,13.1-16.2c4.8-7.5,7.2-9.9,9-9.4,1.3.3,4.6,1.1,7.2,1.6,16.5,3.2,47,13.4,59.4,20,10.2,5.3,23,9.4,31.7,10.4,11.2,1.1,24.5,3.4,28.3,4.8,1.9.8,7.7,2.1,12.8,2.9,5.1.8,15.8,3.7,23.7,6.4,20.5,6.9,25.3,6.6,39.5-2.7,14.6-9.6,21.8-13.3,25.8-13.3h4.2l-.8-13.4c-.5-7.7,0-18.7,1-25.9l1.8-12.5,6.6-2.2c6.4-2.1,18.9-10.4,18.9-12.5s1.3-1.4,2.9-1.9c3.2-1,15.4-12.6,21-20,5.6-7.4,16.5-25.9,21.1-35.5,2.2-4.8,4.5-8.6,5.1-8.6,1.4,0,2.4,4.2,3.2,13.4.3,4,1,7.8,1.4,8.6.6,1.1.8,35,0,45-.5,5.8-3.4,15.7-6.4,21.4-11.8,22.2-14.6,34.9-9.9,45.1,4.2,9.3,10.2,13.8,20.6,15,3.7.5,7.2,1.1,7.7,1.4s2.4,0,4-1c2.1-1.1,2.7-1.1,2.1,0-.5.8,1.3.5,4-.8,4.6-2.2,5.6-2.2,18.4,0,7.4,1.4,15.4,3.7,17.8,5.1s9.1,3.5,15,4.8c9.1,1.9,13.8,2.1,29.9.8,20.3-1.4,23.8-2.7,28.2-9.4,1.9-2.9,2.1-4.5,1-9-.8-3-1.1-5.6-.6-5.9s4-1,7.8-1.4c6.7-1,7-1.1,6.4-4.6-.5-3.2-1.3-3.8-5.3-3.8s-5.1.5-5.4,1.1c-.5.6-2.6,1.3-4.8,1.3s-4,.6-4,2.6-1.3,2.9-3,3.5c-4.6,1.3-11.8,1-12.6-.3-.5-.6-3.5-1.9-6.9-2.9-13.4-3.7-33-19.5-42.9-34.6-8.2-12.5-8.5-13.8-5.6-28.3.5-2.2,1.8-9.4,2.9-15.8,1.9-10.6,3.2-14.6,9.6-30.4,1.8-4.5,3-8.5,10.4-33.1,1.4-5,3.8-16.6,5.4-26.1,1.4-9.4,3-17.6,3.5-18.2s1.3-3.8,1.9-7.2c.6-3.2,3.5-11.8,6.2-19,9.6-25.1,11.5-36.6,7.2-45.1-1.1-2.1-3-7-4.3-10.9-2.4-7.5-6.9-11.2-16.8-14.6-3-1-8.3-4.2-11.7-6.9-10.2-8.3-12.8-9.8-18.1-9.8s-8-1.3-11.7-2.9c-4.6-2.1-8.2-2.7-12-2.2-3.2.5-7.4,0-9.9-1.1-2.7-1.1-10.6-1.9-19.8-2.1-15.5-.3-26.4-1.6-31.4-4-1.6-.6-5.8-1.6-9.4-1.9-8.2-.8-11.2-3.2-7.2-5.4,5-2.7,21.6-22.6,25-29.9,1.3-2.7,3.8-7,5.6-9.4s3.4-5,3.4-5.4,1.9-3.8,4.2-7.4c2.2-3.4,4.5-8,5-10.2,1.3-5.6,6.2-16.6,8.3-18.2,1-.8,2.4-4,3.2-7.2s2.4-7.5,3.5-9.6,2.1-4.6,2.1-5.6.6-3.2,1.4-5c1.4-3.2,1.8-3,12.5,7.4,7.5,7.4,14.6,12.5,21.9,16.3,11.8,6.1,17.1,6.9,30.6,4.2,4.2-.8,13.9-1.6,21.9-1.8,8-.2,15.5-.6,16.6-1,2.4-.6,2.4,1.4.2,12.3-1.3,6.4-1.1,8,1,11.5,3,5.1,13.8,10.7,20.6,10.7s5.9.8,10.6,6.4c6.2,7.4,9,14.1,9,21.9s1.4,7.7,5,13.1c4.2,6.2,5.1,9.1,5.8,17.3.6,7.7,1.6,10.7,4.5,14.6,6.1,7.8,7.8,12.5,8.8,23.5.6,7.7,2.1,12.3,5.1,17.9,11.7,21.4,11.8,21.8,9.1,28.8-5.9,15.5-5.6,25,2.1,50.4l3.2,10.9-3.8,14.7c-5.4,20.8-5.9,27-3,37.6,4.5,16.3,1.9,30.7-8,44.6-5.8,8.3-9.3,16.5-7.8,19,.6,1.3,1.3,3.4,1.3,4.3s-6.6,8.5-14.6,16.6c-14.4,14.6-17.6,20.3-11.8,20.3s25.8-16.5,27.8-19.8c.5-.8.6-2.1.3-3-.3-1,1.6-2.1,5.3-2.9,5.8-1.3,5.9-1.4,11-13.6,2.9-6.7,5.8-12.6,6.4-13.1,3-2.2,4.6-10.4,5.1-26.2.5-12.6,1.1-17.4,2.2-17.4,2.9,0,3.8,9.1,2.4,20-.8,5.6-1.9,11.5-2.6,13.1-.8,2.1-.3,3.7,1.6,5.8,2.6,2.7,2.6,3.2.2,12-2.1,7.5-3,9.4-6.2,10.7-3.7,1.4-11.8,10.7-11.2,12.5.2.5-.6,1.8-1.8,2.6-1.8,1.4-2.4,1.3-3.8-.8-2.1-2.7-5.6-1.6-4.5,1.4.5,1.1-2.2,3.8-6.7,6.7-4,2.7-7.8,6.2-8.3,7.8-1.3,4.2-.3,4.5,3.2,1.3,3.8-3.5,4.3-3.5,4,.6-.3,4.8,2.2,4.3,3.5-.5.6-2.4,3.5-5.9,7.2-8.6,3.4-2.6,6.2-5.1,6.2-5.6,0-2.1,13.8-15,15.8-15s5.1-5.4,7.7-16.3c1-4,3.2-9.1,5.1-11.4,1.9-2.2,3.7-6.4,3.8-9.3,1.3-12.6,2.4-19.8,3.5-20.5.6-.5,1.1-1.6,1.1-2.7,0-1.6-.5-1.8-2.7-.3-3.2,1.9-5.4,9-5.4,16.6s-.5,5.1-1,5.1c-1.6,0-1.8-11.2-.3-17.3,1.1-4.3,1-8.3-.8-17.9-2.4-12.6-2.9-23.4-1.3-29.4.6-2.6.3-3.2-1.4-2.9-2.2.5-6.2,9.4-8.2,18.2-1,4.6-3.7,4.2-5.4-.8-1-2.7-.8-4.3.8-6.1,1.1-1.3,3.5-6.1,5.3-10.4,2.7-7,2.9-8.5,1.3-11.5-1-1.9-1.8-6.2-1.6-9.6,0-3.4-.3-6.4-1.1-6.9s-1.3-3.4-1.3-6.4-.6-6.6-1.3-7.8c-1.9-3.7-.2-9.9,2.7-9.9s4.5-5.1,3.4-28.2c-.6-11.5-1.1-24.2-1.1-28.2s-.6-7.2-1.8-7.2c-2.6,0-4.8,3-5.8,8-1.3,6.2-4.2,5.4-5.9-1.8-2.1-8-2.1-7.7,1.8-7.7s5.4-1.4,3-3.4c-1.1-.8-2.9-4.6-4-8.6-1.9-6.4-1.9-7.4,0-9.3s1.8-2.6.5-4.2c-2.1-2.6-.8-6.1,2.7-6.9,2.2-.6,2.4-1.3,1.3-3.2-1.6-2.9-7.2-15.4-10.4-23-1.3-2.9-2.2-7.8-2.2-10.9,0-5.9-2.4-9.9-12-19.2-3.7-3.5-6.4-7.8-7.5-11.7-1.4-5.1-2.4-6.2-6.1-7.4-2.6-.6-4.6-.6-5.1.2-1.1,1.8-9.4-4-9.4-6.6s-1-2.6-2.1-3.5c-1.6-1.3-1.8-2.2-.3-4.5,1.3-2.2,1.3-3,0-3.5-1.9-.6-2.4-10.1-.5-10.1s2.9,3.4,2.9,7,8.2,15,9.9,15,1.1-1,1.1-2.1c0-3-4.5-11.8-5.9-11.8s-1-1.8-.5-4c.6-2.9,0-5.1-1.9-7.5-3.2-4-2.6-4.6,5-5.1,6.1-.5,11.7,1.9,11.7,4.8s1,2.2,2.1,2.7c2.7,1,2.6.2,0-4-2.1-3.2-2.1-3.8,0-8.2,1.9-3.8,3-4.8,6.4-4.8s4,.6,4,2.2,1.3,3.8,2.7,5.8c1.6,1.9,2.7,4.6,2.7,5.9,0,2.9,4.3,11,5.9,11s1-.6,1-1.6c0-2.6-3.2-12.8-4.5-14.6-1.1-1.6-.2-10.1,1.3-10.1,4.2,0,12.8,11.8,13.1,17.9,0,3.5,4.6,10.4,7.8,11.8,1.6.8,3,2.1,3,3.2s1.1,1.8,2.7,1.8,3,.6,3.5,1.4,1.8,1.1,2.9.8c1.1-.5,1.9,0,1.9,1.1s1,2.6,2.1,3.5c1.1,1,2.1,4,2.1,6.9s1,6.4,2.1,7.8c2.6,3.5,2.7,12.5,0,13.4-1.6.6-1.6,1.9-.5,6.7,1.6,6.4,7.5,16.3,9.6,16.3s1.1.8.8,1.8,1.1,4.5,3.4,7.8c2.1,3.4,3.8,6.6,3.8,7.2s2.4,5.4,5.4,10.7c3,5.4,5.6,10.7,5.6,12s1.1,2.1,3.8,1.8c5.8-.6,9,5.3,11.4,21.6,1,6.1,2.4,11.7,3.4,12.5,2.6,2.1,13.3,18.7,12,18.7s-4.5-3.4-8.6-7.4c-6.4-6.1-8.2-9-10.2-15.8-1.9-6.4-3.2-8.5-5.1-8.5s-2.9,1-3.4,2.1c-1,2.4,4.6,21.1,6.9,22.9.8.6,5.8,5,10.7,9.6,8.8,8,9.1,8.6,10.9,17.9,1.4,8.2,2.4,10.1,6.1,13,2.4,1.8,5.4,3.7,6.9,4.2,3.4,1.3,5.1,6.7,5.1,15.7s-.6,7.8-2.1,8.3c-3.4,1.3-2.6,6.7,1.3,8.5,7.7,3.5,13.1,15.5,13.3,29,0,3.2,1.1,7.5,2.2,9.4,1.3,1.9,2.7,8.2,3.4,13.8l1,10.4,9.1,9.4c9,9.3,13.3,16.5,13.3,21.9s4.5,8.3,14.6,12c5.3,1.9,11.4,4.6,13.4,6.2,2.1,1.4,4.6,2.7,5.6,2.7s4.2,1.6,7,3.5c2.7,1.9,6.1,3.5,7.5,3.5s4.3,1.1,6.6,2.6c2.4,1.4,5.8,3,7.7,3.7,1.9.6,7,3.2,11.5,5.8,7.4,4.3,8.3,4.5,10.2,2.7,2.7-2.7.6-5.4-6.7-9.1s-5.4-3.5-5.9-4.8c-1-2.7-.5-2.7,4.8,0,2.9,1.6,4.6,1.8,5.9.8,1.3-1,2.6-.8,4.6.6,1.6,1.1,3.2,1.4,3.7.8,1.1-1.8-8.3-9.6-15.2-12.6l.5.3ZM949.4,951c11-.6,12.8,1.1,4.3,4.3-5.8,2.1-11,2.2-13.6.6-4-2.6-.6-4.5,9.3-5h0ZM1026.5,877.7c-.5,2.2-1.1,5.8-1.4,7.8-.3,2.1-1.3,5-2.1,6.6-2.1,4-3.7,3.5-5.4-1.6-.8-2.4-1.4-4.5-1.4-4.8s2.6-3,5.8-6.4c3.8-4.1,5.4-4.7,4.8-1.9l-.2.3ZM1040.9,822.5c.6.5,1.3,1.8,1.3,2.7,0,2.2-2.2,2.7-3.5.6-1.1-1.9.5-4.5,2.2-3.4h0ZM1040.9,723.6c.8,0,1.4,3,1.4,6.9s-.6,6.9-1.4,6.9-1.4-3-1.4-6.9.6-6.9,1.4-6.9ZM1025.9,637.7l.5-5.9,2.4,3.5c1.3,1.9,2.6,5.4,3,7.8.8,5.3-.6,6.6-3.8,3s-2.2-4.5-1.9-8.6l-.2.2ZM1023.5,655c1.3,3.4,2.1,7.5,1.9,9.4-.3,2.4-1.3.8-3-5.4-3-10.1-2.2-13,1.3-4h-.2ZM1010.1,635.6c-.5-.5-.8-2.2-.8-3.8,0-2.6.2-2.6,1.4.5,1.3,3.4,1.1,5-.6,3.4h0ZM1018.5,640.6q1.3-3,1.4,1.8c0,5.3-.8,6.7-2.1,3.4-.3-1,0-3.4.6-5.1h0ZM998.4,586.6c1-2.9,16.3,15.2,16.3,19.2s.6,4.6,1.4,6.9c.8,2.2,1.3,6.6,1,9.3-.5,5-.5,5.1-2.9,2.4-1.3-1.4-2.4-3.7-2.4-5,0-5.4-3.4-14.6-5.6-15.2s-8.8-15.2-7.8-17.8v.2ZM1025.7,457.8c3.5,1,3.5,2.4,0,7.5-2.7,3.8-5.4,5-7.4,3-3-3,3-11.7,7.4-10.6ZM1023.5,483.3c-1.1,1.8-4.3,1.6-5.4,0-1.1-1.8,2.7-3.4,4.8-2.1.8.5,1.1,1.4.6,2.2v-.2ZM1017.6,449.2c2.9,1.8,3.4,3.7.8,3.7s-3.7,1.9-6.2,4.5c-3.5,3.4-4.6,3.8-4.6,2.1,0-2.9,2.7-7.8,5.4-10.1,1.4-1.1,2.6-1.1,4.5,0l.2-.2ZM1010.7,440.1c1.3,1.3,1.3,2.2.2,4-1.8,2.9-15,10.9-13.4,8.2.6-1,3.5-4.6,6.4-7.8,4-4.8,5.6-5.6,6.9-4.3h0ZM995.3,255.3c.8,0,1.4.6,1.4,1.4s-.6,1.4-1.4,1.4-1.4-.6-1.4-1.4.6-1.4,1.4-1.4ZM1006.1,428.2c4.5.8,2.9,4.6-4.5,10.4-7,5.4-11.8,7.4-11.8,4.6s14.2-15.5,16.3-15ZM922.1,171c1.4.8,2.7,2.1,2.7,2.9,0,1.8-1.9,1.6-3.8-.3-2.6-2.6-1.9-4.2,1.1-2.6h0ZM912.8,182.8c2.7-1.9,5.3-2.4,9.3-1.9,3,.5,5.9.2,6.2-.5.5-.6,1.8-1.3,3-1.3s1.9.3.6,1.6c-2.9,2.9-1.8,3.8,4.5,3.8s9.1,1.9,5,4.2c-1.6.8-2.9,1.9-2.9,2.6s4.5,2.2,9.9,3.5c9,2.2,9.8,2.7,7.4,4.5-1.4,1-5.1,1.9-8.2,1.9h-5.6l3.2,2.7c1.8,1.4,6.1,3,9.8,3.5,15.8,2.2,21.6,9,7.8,9s-9.1,1.9-1.6,3.5c2.4.5,5.9,2.2,7.5,3.7,1.8,1.6,4.5,3.5,6.1,4.3,4.8,2.4,3,4.3-3.8,3.8-8.8-.6-7.4,2.2,3,6.4,9,3.5,13,6.6,13,9.4s-5,1.3-11-1.6c-5.1-2.6-11-3.7-11-2.2s1.4,1.8,3,2.2,4.6,2.6,6.6,4.3c1.9,1.9,5.6,4.3,8,5.3,4.3,1.9,7.4,4.8,5,4.8s-5.8-1.6-11.5-3.4c-5.8-1.9-11.5-3.4-12.8-3.5-3.5,0-2.1,3.4,1.6,3.8,2.1.3,3,1.4,3,3.7,0,4.3-2.4,5.6-5.4,2.9-2.2-2.1-2.6-2.1-4.3,0-1,1.3-1.8,4.3-1.4,6.7.3,4,0,4.6-4.2,5.6-2.6.6-5.1,1.1-5.9,1.3-.8,0-1.3,1.1-1,2.4.3,1.8-2.7,2.6-16.2,4.6-12.8,1.9-16.6,2.9-16.6,4.5s1,1.9,3.8,1.3c2.4-.5,5.3.2,8,1.8,3,1.9,6.1,2.4,11,2.1,9.3-.6,14.7,1.1,6.2,2.1-5.9.6-6.2,1-5.8,4.8.6,6.1,3.8,10.4,7.8,10.4s3.4-.6,3.4-3.5,3.2-4,3.8,0c.5,2.4-3.2,15.5-5.3,18.9-1.9,3-4.8-.5-7.5-9-1.3-4.2-2.9-8-3.7-8.3-.6-.5-1.3-2.1-1.3-3.8s-1.3-3.5-5.1-4.6c-5.4-1.8-8.6-.5-8.6,3s-1.6,1.8-4.5,1.6c-5.6-.3-6.4,3.7-.8,4.3,3.5.5,3.7.8,3.5,7.5-.3,9.9,3.2,9.9,5.9,0,1.1-4,2.4-7.2,2.9-7.2.8,0,9.6,17,9.6,18.7s1.3,1.9,2.7,3.4c4.8,4.8,3.5,7.7-4,10.2-3.7,1.3-8.2,2.2-9.8,2.2-3.5,0-13.9,5.1-13.9,6.9s-10.9,7-11.7,5.8c-1.9-3.2-1.6-20.3.5-24.6,2.6-5.3,3-5.4,6.6-1.6,4,4.3,7,5.8,8,3.4.5-1.1-1.9-4.8-5.6-8.6-3.5-3.7-7.2-8.3-8.5-10.4-3.4-5.8-10.2-5.1-23.7,1.9-6.1,3.2-11.2,6.6-11.7,7.5-1,2.6-5,2.4-5,0s2.2-4.2,5.1-6.7c3.8-3.5,5.6-4.3,6.9-3.2s2.6.8,4.8-1.3c5-4.5,10.1-7.2,15.8-8.6,2.9-.6,9-2.6,13.4-4.2,4.5-1.6,10.2-2.9,12.8-2.9s4.6-.6,4.6-1.9c0-2.6-6.2-4-9.6-2.2-1.4.8-4,1.4-5.6,1.4s-4.3.8-5.9,1.9c-4.3,2.7-9.3,4-9.3,2.4s3.2-2.6,7-4,7-3.2,7.2-3.8c0-.6-3-1.6-7-1.9l-7.2-.6,5-3.8c4.6-3.7,9.4-5.4,26.7-9.9,9.3-2.4,10.4-3.5,3.8-3.5s-6.2-1.1-3.4-3.8c2.7-2.7.3-3.4-7.4-1.8-4,.8-9.3,1.8-11.5,2.1-3.8.6-3.8.5.6-1.1,2.7-1,6.4-2.4,8.3-3.4,11-5,17.4-7.2,21-7.2s5.4-2.2,1.9-3.7c-4.2-1.6-22.4,2.4-31.8,7-5.3,2.6-11.4,5-13.4,5.4-4.6,1-7.8,6.1-5,7.8,1.4,1,1.1,1.8-1.6,4-1.9,1.6-5.1,3.2-7.4,3.7-2.1.5-4.2,1.4-4.6,2.1-1.4,2.4-3,1.1-2.4-1.8.6-2.7,2.6-3.8,9.1-6.1,1.9-.6,2.2-1.3,1-2.7-1.9-2.2.8-9.6,5.3-14.4,2.4-2.6,2.7-3.7,1.4-6.1s-1-3.5,2.4-7c4.3-4.5,10.7-8.3,12-7.2,1,1,18.6-4.8,19.7-6.7,2.9-4.5-9.4-3.2-19.8,2.1-5.8,3-6.9,2.9-7.7-.5-.6-2.2-.2-2.7,1.8-1.9,1.4.5,2.9,0,3.4-.6.5-.8,2.4-1.4,4.2-1.4s4.6-1.3,6.4-2.7l3.2-2.7h-5c-2.9,0-5.8.8-6.7,1.9-1.9,2.2-5.6,2.9-5.6.8s1.6-2.6,3.5-4c3.2-2.6,2.6-5.8-.6-3.7-1.8,1.1-3.2-3.8-2.1-7.7.6-2.7,1.1-5.4,1.9-12.3,0-.5,2.4-1.6,5.1-2.6,3-1.1,4.5-2.2,3.7-3s-2.7-.8-5.1,0c-5.6,2.1-7.7,1.8-7.7-1.3s1-2.7,3.4-2.7,7-1.6,13.6-6.1h-.2ZM961.3,390.2c.8,5.9.8,6.1-3,6.1-6.4,0-8.8-2.7-9.3-11.4-.5-6.7,0-8.2,2.4-10.6s3.8-2.9,4.8-2.9c2.6,0,7.8,10.6,5.8,11.8-1,.6-1.3,3.2-.6,7v-.2ZM927,466c-1.4,1.1-4.3,1.6-7.2,1.1-3-.5-5.9,0-8.2,1.4-5.9,4-6.9,3.4-8.2-6.2-.3-2.7-3.7-9.9-7.4-15.8-3.7-5.9-7.4-12.5-8.2-14.4-2.4-5.6-4.6-11.2-4.6-11.8,0-1.9,9,4.5,14.1,10.1,3.2,3.5,9,9.6,12.6,13.4,20.3,21.1,19.7,20.3,17,22.2h0ZM928.3,477.7c-.5.8-1.1,1.4-1.4,1.4s-1-.6-1.4-1.4c-.5-.8,0-1.4,1.4-1.4s1.9.6,1.4,1.4ZM921.6,484.9c-.5,1.8-.8,3.8-.8,4.8,0,2.1-2.2,2.2-3.4.5-1-1.6,2.1-8.3,3.7-8.3s1,1.4.5,3h0ZM842.2,347.1l-3-3c-2.9-2.7-3.4-2.9-6.4-1-2.6,1.8-3.7,1.8-5.3.5-1.4-1.3-1.8-2.2-.6-3.5,1.9-2.4-1.1-4.3-3.2-2.2-2.6,2.6-3.4,1.8-2.6-2.9.5-3.5.2-4.2-1.6-3.5-3,1.1-12-1.6-12-3.5s-1.3-3.2-2.6-5.1c-2.2-2.9-2.9-3.2-4.8-1.4-1.8,1.4-2.6,1.6-3.8.2-1.3-1.3-1.1-2.1,1-3.7,2.7-1.9,2.2-6.2-.6-6.2s-1.3-1.3-.8-3.4c.5-1.9.3-5-.5-6.7-1-2.6-.6-4.5,1-7.7,4-7.2,13.3-20.8,14.4-20.8s.6,2.4.2,5.6c-.8,5-.5,5.8,2.1,6.4q2.9.8-.6,5.4c-3.5,4.5-3.7,10.2-.3,10.2s1,1.3.5,2.7c-1.1,3.5,3.5,3.8,6.6.3,4-4.5,5.4-10.1,3.2-12.6-1.1-1.3-1.8-3.5-1.3-5.3.5-1.9.2-3-.8-3s-1.3-1.1-.6-2.9c.5-1.8,0-3.8-1.1-5.1-2.2-2.6-3.5-17.3-1.6-21.4.6-1.8.5-3-.8-3.7-1.6-1-1.4-2.4.8-7.8,1.4-3.7,3.4-6.7,4.2-6.7,7-.3,16.3-3,22.7-6.4,6.4-3.4,8.8-4,14.9-3.5,11.5,1,22.6,11.2,22.6,21.1s-.8,4.5-5.9,6.6c-3.2,1.3-6.6,2.4-7.4,2.4-2.7,0-3.4,4.5-3,22.7.2,12.6,0,18.1-1.3,18.4-1,.3-1.6,0-1.6-.8s-1.8-1.6-3.8-1.9c-3.4-.3-3.7-1-3.5-5,.2-3.5-.3-4.5-2.2-4.5-3.5,0-6.9,3.7-6.9,7.5s-1.4,3.8-4.5,5.6c-2.4,1.3-7.2,4-10.7,5.8-6.2,3.4-10.9,9.3-8.3,10.9.6.5,2.4.2,3.8-.5,1.4-.8,3.5-1.8,5-2.1,1.4-.5,3.2-2.7,4-5,1.1-3,1.9-3.8,3-2.7.8.8,2.7,1.4,4.3,1.4s2.4.3,1.1,1.6c-1.8,1.8-2.2,9.4-.6,9.4s9,10.1,9.3,13.6c.2,2.1.8,4.6,1.3,5.9.5,1.3.8,4.6.5,7.4-.3,4-.8,4.8-2.1,3.4-1-1-1.8-2.6-1.8-3.5,0-2.7-2.2-2.1-4.5,1.3l-2.1,3.2-1-.3ZM842.7,352.4s-1.3,1.6-2.9,3.4c-2.9,3-3,3-3.7.5-.5-2.1,0-2.9,2.9-3.4,2.1-.5,3.7-.6,3.7-.5ZM818.4,371.3c2.7,0,4.2-.6,4.2-1.9s.6-2.4,1.3-2.7c1.9-1.3.6,11.4-1.4,13.9-2.7,3.4-8,5.1-15.8,5.4-3.8,0-7.8.6-9,1.1-3.4,1.6-23.5-18.4-23.5-23.4s11.8,1,15.7,3.7c4.6,3.4,8.2,2.6,7.7-1.8-.3-2.1-3-4.3-8.8-7.2-4.6-2.4-10.1-5.8-12.3-7.5s-5.4-3.5-7.2-4c-3-.8-11.5-12.2-11.5-15.4s13.9-3.5,15-2.2c.3.3-.8,1.9-2.4,3.7-1.6,1.8-3,3.7-3,4.2,0,1.6,8.2,1,13-1,4.5-1.9,4.6-1.8,6.1,1.4.8,1.8,2.2,3.4,3,3.4s1.1.5.8,1.1c-1.3,2.1,4,14.7,6.2,15.2,4,.8,7-3.8,6.1-9-.8-4.5-.8-4.6,4-4.6s4.8.3,4,3.5c-1,3.8.6,4.3,5.1,1.9,1.6-.8,4.6-1.1,6.9-.6l4.2,1-4.3,7.8c-2.4,4.3-5.3,8.8-6.2,10.1-2.7,3.2-2.2,4,2.2,4l.2-.2ZM798.1,414.8c-3.7,8.3-8.5,17.6-10.4,20.5l-3.5,5.3.6-6.1c.8-6.9,16.6-40.2,19.7-41,2.9-1,1.4,3.7-6.4,21.3h0ZM729.4,258c-1.3-1.4-2.9-6.4-3.5-11.2-.8-5.1-2.2-9.8-3.8-11.5-2.2-2.6-10.7-25.6-9.6-26.2.2,0,2.6-1.9,5-4,5.6-4.5,12-5,16.2-.8,4.6,4.3,13.3,5.1,17.8,1.6,2.9-2.2,4.5-2.6,8-1.6,2.4.6,6.1,1.3,8.2,1.3,4.5,0,4.6,1.3,1.6,7.2-2.1,4-2.1,4.6,0,9,3.2,6.7,2.7,9.4-2.6,15.4-5.6,6.2-7.7,11-7.7,17.9s-1.4,7.2-4.2,11.2c-5.4,8-5.8,16.6-.6,21.8,1.9,1.9,3.2,4,2.7,4.8-.5.6,0,3,1.3,5.1,2.9,5.3,5.9,17,5.3,20.8-.3,2.2-1.4,3-3.7,3s-4.2,1-5.3,2.1q-2.7,2.7-5.3-1.8c-1.3-2.1-2.1-5.9-1.9-8.6.5-5.8-5.3-18.7-9.1-20.8-2.1-1.1-2.7-2.9-2.7-8.5s-1-8.2-2.9-11c-2.1-3-2.6-5.1-1.9-8.3.6-3,.3-5-1.3-6.7h.2ZM779.2,303.4c-1.9,2.7-4,6.2-4.8,7.7-1.1,2.1-1.3,1.4-.6-3.5,1-7.2,6.4-15.2,7.8-11.5.5,1.3-.6,4.3-2.4,7.2v.2ZM781.9,317.7c3.7-3.5,4.3-2.4,1.8,3.2-1.6,3.7-5.3,4.8-5.3,1.8s1.6-3.2,3.5-5ZM802.9,334.5c.5.5.2,1.4-.6,2.2-1,1-1.8,1-2.4,0-1-1.6,1.6-3.7,3-2.4v.2ZM806.1,247.8c0-1.1.6-2.1,1.4-2.1s1.4.6,1.4,1.3-.6,1.6-1.4,2.1-1.4,0-1.4-1.3ZM822.5,227.6c0-.8,1.1-1.3,2.6-1.3s4.6-.3,7.2-.8c3.4-.5,3.8-.5,1.9.5-4.8,2.1-11.7,3-11.7,1.6ZM845.6,173.7c1.4,0,3.4-.6,4.2-1.4s2.7-1.3,4-1c1.8.3-1,2.2-8,5.6-11.5,5.6-12.2,5.8-12.2,3.8s8.8-7,12-7ZM832.3,171.6c-6.1,4.2-11.7,7.7-12.3,7.7s-1.9,1-2.9,2.1c-2.9,3.5-5.6,2.6-4.2-1.4.8-1.9,1.9-7.4,2.7-11.8.8-4.6,2.4-9.9,3.5-11.7l2.1-3.2,5.4,2.9c3,1.6,7.2,3,9.3,3.2,7.5.6,14.1,2.4,13.4,3.7-.5.6-1.9,1.3-3.4,1.3s-7.7,3.4-13.8,7.5v-.2ZM852.9,200.7c.8.5,1.4,1.1,1.4,1.4s-.6.6-1.4.6-1.4-.6-1.4-1.4.6-1.1,1.4-.6ZM876.6,186.3c2.6,3.7,2.7,4,.3,3.8-4.8-.2-8.8-3-8.8-6.4s-3.4-4.3-7.4-1.3c-2.6,1.9-6.4,1.4-6.4-.6s1.8-1.9,3.8-3c2.7-1.3,3.8-2.9,3.7-5.6,0-5.4,3.7-4.8,9.8,1.3,3.2,3.4,4.5,5.6,3.5,6.4s-.3,2.7,1.4,5.3v.2ZM870.2,204.6c1.1,1.6,2.1,3.4,2.1,4s-1.3,1.1-2.7,1.1-2.7-.6-2.7-1.4-1.6-2.1-3.5-2.7c-2.7-1-3.5-2.2-3.4-5.9v-4.5l2.6,3.2c1.8,2.1,3.4,2.9,5.1,2.2,1.4-.5,2.1-.5,1.6.2s0,2.4,1,4v-.2ZM870.9,212.4c1.9,0,2.7,1,2.7,2.7,0,3.2-1.4,3.5-3.8,1.1s-2.1-3.8,1.1-3.8h0ZM857.1,209.7c1.6,0,3.2,1,3.5,2.1,1.1,3,0,4.3-3.4,3.7-4-.6-4.3-5.8-.3-5.8h.2ZM875.5,266.2c-.5,1.6-1.3,2.9-1.9,2.9-1.9,0-1.4-2.2.8-4,1.6-1.3,1.9-1.1,1.3,1.3l-.2-.2ZM857.1,303.6c0,.8-2.4,1.4-5.1,1.4s-4.6-.3-3.2-1.4c2.7-1.8,8.3-1.8,8.3,0ZM844.9,359c2.4,0,3.8-1,3.8-2.2s.6-2.1,1.4-2.1,1.4,1.1,1.4,2.6,1.3,2.9,5.1,3.4c5.9,1,8.8-.8,8.8-5.4s-.6-3.4-4-3.4-4.3-.5-4.8-1.1c-1.1-1.9,3.2-7.2,5.9-7.2s6.2,6.2,5,8.5c-.5.8-.2,2.1.5,3,.6,1,1,4.5.5,7.7-.5,3.4-1.4,6.2-2.2,6.6s-4-1-7-2.9c-3.2-1.8-8.5-4.2-11.7-5.4-5.1-1.9-5.4-2.1-2.2-2.2l-.5.3ZM862.7,332.4c0-1,10.4-6.7,12.2-6.7s-.3,1.1-1.6,2.4c-2.6,2.7-1.8,8.6,1.1,8.6s8.5-2.6,9.4-5c.5-1.3,0-3.8-1.4-5.9-2.1-3.4-2.1-3.5,1-5.9,5.1-3.8,8.2-3.4,8.2,1.4s.6,4.5,1.3,5c.6.5,1,1.6.6,2.6-.3,1-.8,5.8-1,10.6-.3,8.2-2.2,11.8-4.3,8.5-.5-.8-3.8-2.4-7.4-3.8-6.9-2.6-18.2-9.9-18.2-11.8l.2.2ZM875.5,349.7c1.4-1.4,7,.5,10.1,3.4,1.6,1.4,4.2,3.4,5.9,4.3,4,2.1,3.8,5.4-.5,6.4-1.9.5-5.3,3-7.5,5.6s-4.8,4.6-5.4,4.6c-3.2,0-5.4-21.4-2.6-24.3ZM904.3,378.8c-2.2,1.1-4.5,2.2-5,2.2-1.6,0-.6-3.5,1.8-6.6q2.4-3.2,5-.5t-1.8,5v-.2ZM907.8,418.3c1.3,0,1.9,1.1,1.6,3-.5,3-2.7,4.6-4.2,3.2-1.4-1.4.6-6.2,2.6-6.2ZM901.3,394c3.7,1.1,2.9,3.8-1.4,4.8-1.9.5-3.7,2.1-4,4.2-.5,1.8-1.6,3.5-2.7,4-1.4.5-1.6,0-.8-1.9.6-1.4,1.4-4,1.8-5.6,1-4.2,3.8-6.2,7.4-5.3l-.2-.2ZM891.8,413.4c-.8.5-1.8.2-2.4-.6-1.3-2.1.5-3.5,2.2-1.8,1,1,1,1.8,0,2.4h.2ZM927.5,446c0-.6,1-2.1,2.2-3,2.1-1.8,2.1-1.6.6,1.3-1.8,3.2-2.9,4-2.9,1.9v-.2ZM930.4,410v-3.7c0-3,.3-3.4,2.1-1.9s2.1,1.3,2.1-.3c0-2.7-4.5-6.6-9.1-7.8-3.5-1-4.2-1.9-5.4-8.5-1.6-8.3-3.5-9.9-5.9-5-1.6,3.7-3.7,4.5-5.1,2.1-1.1-1.8,5.1-6.9,11.7-9.6,2.7-1.1,5.9-3.2,7-4.5,2.9-3.4,15.5-4.2,16.3-1,.5,1.9-.5,2.1-5.6,1.6-8.6-1-9.1,1.3-2.4,8.6,6.4,6.9,8.3,11.2,8.3,17.8s-.6,5-6.9,8.2l-6.9,3.5-.2.5ZM920.3,364.2c1-1,2.1-1.4,2.4-1,.5.5-.3,1.1-1.8,1.8-1.9.8-2.1.6-.8-.8h.2ZM933.3,419.4c.3-1.9,2.9-4.3,6.7-6.4,5.3-2.9,7.2-3.4,12.8-2.4,7.7,1.1,8.5,2.9,2.1,4.8-2.4.6-7.8,2.6-11.8,4.2-9.1,3.7-10.2,3.7-9.8,0v-.2ZM958.5,357.4c2.2,2.4,2.1,2.6-2.4,2.6s-6.7.5-9.1,1c-3.7.8-4.3.6-4.3-2.1s-.6-2.9-3.8-2.6c-2.9.3-3.8,1.1-3.7,3.5,0,3.8-.8,3.8-4,.2-1.9-2.2-3.5-2.7-6.9-2.1-7.4,1.4-14.7,5.4-14.7,8s-1.1,2.4-3.4,2.4-5,1.9-7.5,4.8c-2.2,2.7-4.8,4.8-5.6,4.8-2.4,0-1.6-3.4,2.1-7.2,1.9-2.1,3.5-4.3,3.5-5.1,0-2.6,9-8.2,18.7-11.8,9.3-3.5,10.6-3.7,27.7-2.9,21.4,1,24.2,1.4,24.2,4.2s-.5,1.8-4.3,0c-2.4-1.3-5.3-1.8-6.4-1.4-1.9.6-1.9,1.1.2,3.4l-.2.5ZM957.4,329.2c-2.6-2.2-3-3.4-2.1-5.9,1.9-4.8,3.8-3.7,5.6,3.2.8,3.5,2.1,6.6,2.7,7s1.3,2.2,1.3,4.2c0,2.7-.6,3.4-3.8,3.4s-5-.6-6.6-1.1c-2.6-1-2.6-1.1.6-2.9,5.3-2.7,5.8-4.6,2.2-7.5v-.3ZM965.6,298c-.6-.6-4.5-1.3-8.3-1.4-3.8,0-5.4-.5-3.5-.8s4-1.1,4.8-1.9c2.1-1.9,7.4-1.4,8.2.6.5,1.1,2.4,2.2,4.5,2.4,2.1.3,4,1.3,4.3,2.2s-.3,1.6-1.3,1.6c-3.5-.3-7.4-1.4-8.6-2.7h0ZM970.4,382.5c1.8-3.4,6.2-3.8,7.5-.8,1,2.4-.3,6.2-1.9,6.2s-2.1.3-3.4.8c-2.9,1.1-4.2-2.6-2.2-6.2ZM978.1,343.6c-1.1,0-2.1-1.3-2.1-2.7,0-3.4,2.1-3.7,3.4-.6.5,1.3.8,2.4.8,2.7s-1,.6-2.1.6ZM812.1,125.5c2.7-2.7,4.2-1.1,2.1,2.2-1,1.6-1.3,3.8-.6,5.3,1,2.6,1.1,2.6,2.9,0,1-1.4,3.8-4.8,6.4-7.5l4.5-5,2.1,3c2.6,3.8,5.8,3.8,10.6,0,4.2-3.4,9.3-2.7,6.4.8-1.4,1.8-1,2.1,3.2,2.1s5.3.6,5.8,1.3c.5.8,3.5,1.3,6.7,1.1,4.6-.2,7,.6,11,3.7,2.9,2.2,5.9,5,6.9,6.1,1,1.3,3.5,2.9,5.8,3.5,2.2.8,5,3,5.9,5.1,1,2.1,2.9,4,4.2,4.5s4.6,3,7.4,5.9c4.3,4.6,4.8,5.9,4.3,11-.6,6.2-3,8.2-3,2.4,0-8.6-12.3-22.2-21-23.2-4.2-.5-4.5,4.6-.3,5.8,5.9,1.6,12.2,8,12.6,12.8.2,2.6.8,7.4,1.3,10.7,1.4,9-1.6,6.1-3.7-3.4-1.4-6.6-2.6-8.3-8.6-13.1-7.2-5.8-10.6-6.9-10.6-3.4s6.1,9,10.6,11.4c2.1,1.1,3.2,3.4,3.7,8.8,1,8.3-1,12-3.2,5.9-3.7-10.2-5-12.2-12.8-19.2-5.9-5.4-9.4-7.5-12.3-7.5s-5.1-1.3-6.7-2.9-3.4-2.6-4.5-1.4c-2.2,2.2-5.6,1.9-4.6-.5.5-1.1-.2-2.7-1.3-3.7-1.8-1.4-2.2-1.1-2.9,1.3-1.1,4-3.8,3.8-5.8-.5-1.6-3.4-5.8-5-5.8-2.1s-1,1-2.9,0c-2.4-1.3-2.7-2.4-2.1-6.9,1-5.8-.6-8-3.4-4.8-1,1.1-2.4,2.1-3.2,2.1s-2.6,1-4,2.2c-2.2,2.1-2.6,2.1-3.4,0-1.3-3.4.5-12,2.9-14.4l-.5.3ZM811,200.6c2.4-1,5-2.7,5.6-3.8.6-1.1,3.5-3,6.6-4.2l5.4-2.2,4.6,4.5c3.4,3.2,5,4,6.1,3,.8-.8,2.7-1.1,4.2-.8,1.9.5,2.6,1.9,2.6,5.3s.5,4.5,2.1,3.8c2.4-1,2.7,1.3.6,5-2.1,4-6.7,1.9-7.2-3.2-.5-5.9-4.6-6.7-5.9-1.1-1.4,6.4-7.5,6.9-7.7.5,0-1-1.3-1.8-2.7-1.8s-2.7,1-2.7,2.6-1.3,2.9-5.9,3.7c-3.2.5-6.9,1.8-8,2.7-2.7,2.4-12.5,4.2-12.5,2.4s.8-1.9,1.8-2.7c3.7-2.9,15-8.6,17.1-8.6s1.9-.8,1.6-1.8-2.6-1.6-5.3-1.6h-4.6c0,.2,4.5-1.8,4.5-1.8l-.2.2ZM803,133.7c.5,0,.8,1.8.6,3.8,0,2.1.5,5.3,1.3,7,1.1,2.4,1,3.7-.6,5.3s-2.2,1.6-2.9-2.9c-.8-5.3,0-13.1,1.8-13.1l-.2-.2ZM798.4,126.3c2.9-1.1,2.7,0-1.4,6.9-3.8,6.4-4.8,7.2-4.8,3.8s3.8-9.9,6.2-10.7h0ZM786.4,141.7c1.4-1.4,2.1,0,3.7,8.2.6,3.5.5,4.5-1.1,4.5-2.6,0-4.6-10.6-2.6-12.6ZM789.9,213.4c.5.5,0,1.6-.8,2.7-1.9,2.4-4,2.4-4,0s3.4-4,4.6-2.6l.2-.2ZM788,234.5c1.4,0,3-.6,3.5-1.3s4.3-2.1,8.6-2.9c4.3-1,8.6-1.9,9.4-2.2,1.8-.6,1.9,6.9.2,8.6-.5.6-1,2.1-1,3.5s-.5,2.4-1,2.4-2.7-.5-4.8-.8-4.5-1.8-5.1-3.2c-1.1-2.1-2.4-2.4-6.9-1.8-3.7.5-5.6.2-5.6-.8s1.3-1.6,2.7-1.6h-.2ZM795.7,254.8c-1,1-2.2,1.9-2.7,1.9-1.3,0-.8-3.2.6-5.4,1.1-1.8,1.6-1.8,2.6,0,.8,1.3.6,2.6-.6,3.8l.2-.3ZM785.7,249.8c-1.8,5-1.8,6.1,0,8.8,3.4,5,8.2,9.8,11.2,10.9,2.1.8,2.2,1.3.8,2.2-1.1.6-1.6,2.4-1.1,4.5.5,1.8,0,4.2-1,5.3-3.4,4.2-8.8,8.3-9.6,7.4-1.9-1.9-.8-5.9,2.6-9.3,6.4-6.4,2.6-9.8-6.2-5.4-4.2,2.1-5.3,3.2-4.6,5.4.8,3.5-4,8.2-7,7-1.9-.8-1.8-1.4.6-6.2,1.6-3,3.4-5.9,4.2-6.4s1.1-1.4.6-2.1.6-1.3,2.4-1.3c4.6,0,8.6-3.2,7.5-6.1-1.1-3-5.9-2.9-9.3.5-1.4,1.4-4.5,3-6.6,3.5-3.8.8-3.7.8,1.3-3.8,3.4-3,5.1-5.9,5.1-8.2s1.4-5.3,3-7.5c6.1-7.8,8.6-7.5,5.8,1l.3-.2ZM774.2,218c0-.6.6-1.8,1.4-2.1.8-.5,1.4,0,1.4,1.3s-.6,2.1-1.4,2.1-1.4-.6-1.4-1.3ZM780,158.2c0,3-2.9,1.3-4.8-2.9-2.6-5.3-2.9-8.6-1-9.8,1-.6,5.9,9.8,5.9,12.6h-.2ZM734.7,152.4c1-9.3,9.1-27.7,13.4-29.9,2.2-1.3,2.4-.8,1.6,3.2-.5,2.6-2.1,6.7-3.5,9.6-1.9,3.8-2.6,7.4-2.2,14.4.5,9.6,2.1,12,5.4,8.3,4.3-4.8,5-6.1,5.8-12.6,1.3-11,8.2-24.3,14.7-29,3-2.1,6.1-3.5,6.6-3,.5.5-.6,3.2-2.6,6.1-1.9,2.9-5.6,10.6-8.2,17-4.3,10.7-4.8,13-4.6,25.6,0,9.9.8,15.4,2.4,19.2,2.9,6.7,1.6,8.5-2.4,3-1.6-2.2-4.3-5.4-6.1-7-1.9-1.9-2.7-3.8-2.2-5.3.5-1.3.2-2.2-.6-2.2-1.9,0-2.6,5.1-1.4,11.7.5,3,.8,5.8.5,6.1-1.1,1.1-9.1-13.3-10.7-19-1-3.8-2.6-6.4-4.2-6.7-2.2-.6-2.4-1.6-1.8-9.1l.2-.2ZM644,368.1l6.6,1c6.2,1,6.7.8,11.2-4.2,4.6-5.1,5.6-8.2,1.3-4.6-1.6,1.4-3.5,1.4-8.6,0-8.5-2.1-9.6-3.2-13.6-12.3-3.5-7.8-3.4-9.9.6-9.9s3.2-.8,4.2-1.9c1.3-1.6.8-2.4-2.4-4.3-4-2.4-4.2-2.9-5-15-.6-9-.3-16.2,1.3-25,3.4-19.4,4-31,2.4-40-1.4-7.8-1.4-8.3,1.8-11,5.3-4.6,7-9,4.6-11.4-2.2-2.2-5.1-1.3-5.1,1.8s-1,1.9-1.9,1.9c-4.5,0-4.3-21.8.3-42.6,2.6-11.4,16.2-24.8,32.8-32.6,4.5-2.1,9.9-4.6,12-5.8,3.7-1.9,3.8-1.8,3.8,1.4s.5,3.4,1,3.4c2.1,0,7.4-5.4,6.6-6.7-.5-.8,1-2.4,3.4-3.5,5.3-2.7,5.4-2.7,5.9,1,.6,4.8,4.8,3.8,7.8-1.8,1.4-2.9,3.8-5,5.6-5.3,3.2-.5,3.2-.8,1,9.8-.8,3.7,1.6,5.6,2.6,2.1.3-1,1.3-4.5,2.4-8l1.9-6.2.6,11c.5,8.6,1.1,11,2.7,11s3.4,3.5,5.6,9.8c1.9,5.4,4.6,11.5,5.9,13.6,3.2,5,2.2,5.8-2.2,2.2-4.5-3.5-8-3.5-9,0-.5,1.4-1,2.7-1.3,2.7s-6.4-1.9-13.4-4.3c-10.4-3.5-13.3-5-15-8.3-1.6-2.7-3.4-4-5.8-4-4.6,0-4.6,3.8,0,5,1.9.5,3.5,1.9,3.5,3s3.2,5.1,7.2,8.8c5.8,5.3,6.9,6.9,5.3,8-2.4,1.6-7.7-1-12.3-5.9-5-5.3-8.2-4.6-9.1,1.6-1.3,7.7-3.4,14.1-7,21.4-4.2,8.3-4.5,12.6-.5,7.7,1.4-1.9,2.7-4,2.7-4.5s.8-1.8,1.8-2.9c1-1.1,2.6-2.9,3.5-4,5.4-6.6,5.1,7-.8,26.9-1.9,6.4-3.8,13.6-4.2,15.8l-.8,4.2,5-4.2c2.7-2.2,5-5.4,5-6.9s1.4-7.8,2.9-13.8c2.7-10.6,5.8-16,7.7-13.9,2.1,2.1.6,17.6-2.9,29.3-9.8,32.6-11.5,37.3-19.8,50.2-2.6,4-4.5,7.7-4,8,1.4,1.4,5.3-1.4,6.1-4.5.5-1.9,1.9-3.8,3.2-4.6,1.3-.6,4.2-5.8,6.2-11.4,2.1-5.6,6.1-13.8,9-18.4,2.7-4.6,6.4-11.5,8.3-15.5s3.8-6.7,4.5-6.1c1.4,1.4-2.1,19.2-5.9,29.3-4.2,10.9-4.5,12.5-3,12.5,2.1,0,4-3,5.9-9.3,3.2-10.7,8.2-11,8.2-.5s-4.8,23.7-9.8,39c-3.8,11.7-3.5,13.6,1.6,8.2,2.2-2.6,4.5-6.1,5-8s2.9-7.4,5.1-12l4.3-8.5.5,10.7c.2,5.9-.2,11.8-1,13.3-1.6,3-.6,4.3,2.9,4.3s2.6.5,2.6,1c0,5.1-11,31-16.6,39-1.3,1.9-6.1,10.2-10.4,18.6-8.8,16.8-14.1,25-21.3,32.8-4.3,4.8-7,6.6-19.2,12.6-1.9,1-2.9,2.4-2.6,4,.8,3.5-.8,4-5.3,1.6-2.1-1.1-5.1-1.9-6.7-1.9-2.6,0-2.7-.6-1.9-7.2,2.6-20.3,2.2-19.5,9.4-20.8,5.9-1.1,6.6-1.6,6.6-5s-.5-3.8-7.8-4.6c-4.3-.5-8.6-1.8-9.8-2.7-1.1-1.1-2.2-6.2-2.7-12.6l-.8-10.7v-.3ZM700.9,201.5c0,.6-1,1.3-2.1,1.3-2.2,0-4.3-3.7-2.9-5.1,1-1,5,2.1,5,3.8h0ZM591.2,670.8c2.1-8.5,3.4-2.9,2.6,11.7-.5,8.5-1,15.7-1.3,16-1.9,2.2-3-21-1.3-27.7ZM580.3,860.7c.5-2.4,1.3-4.5,1.9-4.5s1.4-5.4,1.8-12c.5-6.7,1.9-15.8,3.2-20.3,1.6-5.4,2.6-14.6,2.7-26.7.5-22.1,3.4-43.5,5.6-41.1,1.9,1.9,1.9,12.3,0,22.4-1.6,7.8-2.4,21.3-2.9,49-.5,34.1-.8,38.2-3,39.8-5.3,3.8-10.6.3-9.3-6.2v-.3ZM732.8,926.6c-1.9-5.9-7.5-12.2-8.8-9.9-.5.6,0,4.3,1.3,8,2.7,9.3,2.6,14.7-.6,17.8-2.6,2.4-2.7,2.2-3.2-3.5-.5-7.2-4.3-9.3-5.9-3-.5,2.1-2.2,6.6-3.7,9.8-2.1,4.5-3.5,5.9-6.1,5.9s-3.2-.3-1.9-4.8c.8-2.7,1-5.4.5-6.2-1.1-1.8-4.8-1.8-4.8,0,0,2.6-8.6,11.2-9.9,9.9s-.6-2.4.5-4.2c3-5-.2-6.2-6.7-2.7-6.1,3.4-8.8,2.6-6.1-1.8,1.4-2.2,1.3-2.9-.5-3.5-1.3-.5-3.7-.2-5.6.6-4.6,2.1-5.3,1.9-2.7-.6,3.5-3.5,1.1-4.2-2.4-.8-4.2,3.8-9.9,4.2-8.8.3,1.1-4.6-2.1-5.9-8.6-3.5-7.2,2.6-9.4,2.7-7.2.5s1.6-2.1,1.6-2.6c0-1-9.8-.5-15.4.8-2.9.6-3.7.2-4.5-2.2-.6-2.2-1.4-2.9-3.4-2.1-5.1,1.9-10.1,2.6-10.1,1s.6-1.9,1.4-2.4c2.4-1.4,1.4-3.5-1.8-3.5s-3.8-.6-4.6-1.4-2.7-.8-5.8.6c-5.6,2.9-5.8,2.9-5.8-2.1s-.3-4.3-4.2-3.7c-2.9.5-4.2,0-4.2-1.3,0-2.1-3.5-2.4-4.8-.5-1.6,2.6-5.1,1.6-4.5-1.3.5-1.4,0-3.7-1-5-1.6-2.1-1.9-2.1-5.1,0-4.2,2.7-6.9,1.9-8.8-2.2-.8-1.8-2.2-2.9-3.5-2.6-4.8,1.3-7.7.6-8.8-2.1-1.1-2.4-2.4-2.9-9.1-2.7-5.8,0-8.6-.6-10.6-2.2-3.5-3.2-6.7-3-7.7.5-.6,2.4-1.4,2.7-4.8,2.1-3.4-.8-4.5-.3-6.4,2.6-1.3,1.9-3.5,3.5-5,3.5s-2.7,1-2.7,2.1-.6,2.1-1.6,2.1-1.3,1.4-1,3.4c.5,2.2-.3,4.3-1.9,5.8-1.4,1.3-2.6,3.2-2.6,4.3,0,3.4-4.3,5.6-9.1,4.8-5.1-.8-7.4,1.6-3.4,3.7,2.9,1.6,2.9,1.4-1.8,10.6-3.2,6.2-3,6.9,4.2,9,6.2,1.9,9.8,5.4,8.2,8.2-2.2,3.7-13.9-1-16-6.4-.6-1.9-3.2-4.5-5.4-5.8s-4.5-3.2-5-4.3,1.8-5.4,4.8-9.6c19.4-26.9,22.4-33,11.2-22.1-4.3,4.3-6.2,5.3-7,3.8-.6-1.1.3-3.7,3-7,3.7-4.6,4-5.8,2.7-9.3-1.9-5.3-.8-9,3.2-11.2,3.8-2.1,5.4-5.4,3.4-7.4-1-1-2.2-1-4.3.3-1.6,1-3.2,1.4-3.5,1.1-1.4-1.4,3-8.2,7.4-10.6,2.9-1.8,4.6-3.8,4.6-5.6,0-3.5-3.7-3.7-7.2-.5-1.4,1.3-3,1.8-3.5,1.1-.5-.6-.3-1.4.6-1.8,1-.3,3.8-3.7,6.6-7.4,4.6-6.4,5.3-6.9,11.2-6.9,10.1,0,14.6,3.7,9.3,7.7-2.1,1.4-2.1,2.1-.5,4,1.4,1.8,3.2,2.1,6.6,1.4,4-.8,4.8-.5,5.9,2.9,1.1,3,2.1,3.5,5.1,3,2.1-.3,4.8-1.1,6.1-1.6,2.2-1,5,2.4,7.5,9.3,1.3,3.4,3.8,3,5.4-.6.8-1.8,2.7-3.4,4.5-3.5,3.5-.5,3.5-.3,1.9,4.3-.8,1.9-.8,4.2,0,5.3,1,1.6,2.1,1.4,6.7-1.1,6.9-4,7-4,5.6,1-1.9,6.7,2.7,8,7.8,2.1,3.4-4,7.4-3.7,7.4.5s4.2,9.1,5.9,7.5c.8-.8,2.4-1,3.5-.6,1.6.6,1.9,0,1.3-2.7-1.3-5,.2-8,3.7-8s3.8-1.3,4.8-2.9c1.4-2.2,2.2-2.6,3.7-1.3,1.4,1.3,2.7,1.1,5.1-.6,2.9-1.9,5.4-1.9,19-.8,17.4,1.6,24.8,3.5,39.4,10.4,7.7,3.7,12,4.8,21,5.3,6.6.3,11.7,0,12.2-.6,3-5,20.8,3.7,28.8,14.1,6.2,8,9,14.9,9.1,22.2,0,6.7-1.8,6.6-4-.3h0ZM603.2,786.3c3.8-3.7,5.3,11.2,4.5,44.3-.5,16-1,29.8-1.3,30.7-1.1,3.7-3.4,1.4-4-4.2-1.1-8.2-.3-69.6,1-70.9h-.2ZM620.3,806c1.9.5,4.6,12.8,4.6,20.8s-2.4,25.6-4.3,30.4c-1.9,5.1-4,3.5-4.2-3.5-1.1-34.6,0-48.6,3.8-47.7h0ZM632,869.7c1.6-.5,2.4,0,1.9.5-.5.6-1.6,1.3-2.7,1.3-2.9,0-2.4-1,.8-1.8ZM633.3,833.4c1.9,1.3,5.4,13,6.4,21.8,1,7.8,1,8-2.6,8s-4.8-1.8-5.1-11c-.5-12.6,0-19.5,1.3-18.7h0ZM657.9,839.1c1.3-4,1.4-3.5,1.6,5,0,5.1,0,9.3-.5,9.3-1.6,0-2.4-10.2-1.1-14.2h0ZM929.7,947.3c5.6-5.3,7.5-.3,2.2,5.9-2.7,3.2-4,3-4.8-.3-.5-1.6.5-3.8,2.6-5.6ZM925.4,941.8c.5.6-1,3.2-3,5.4-4.3,4.6-12.8,7.2-12.8,4s1.3-3,2.7-4.5c1.4-1.4,2.7-3.4,2.7-4.3,0-2.1,9-2.6,10.4-.5v-.2ZM912.3,934.3c2.2,1.4,1.6,4.6-1.6,7.2s-5,4.2-7.4,6.2c-2.4,2.1-5.6,3.8-7,3.7-2.1,0-1.9-.5,1.3-3.2,3.4-2.7,4.3-4.6,5-9.1.2-1.6,8.5-5.6,9.8-4.8h0ZM924.8,670c0,.6-1.4,1.8-3.4,2.6-4.2,1.9-6.1,9-3,11.2,1.1,1,2.2,2.9,2.6,4.3.3,1.4,1.6,2.9,2.9,3.2,1.8.3,2.4-.5,2.4-3,0-4.2,2.6-6.2,4.3-3.5,1.8,2.7,1.6,14.7-.2,15.8-.8.5-3.4,5.1-5.8,10.4-4.2,9.4-4.3,9.6-9,9-5.6-.6-7.8,2.1-9.4,11.4-1.1,6.6-1.6,6.2,7.4,3.7,1.8-.5,3.8-2.6,4.5-4.5.6-1.9,1.6-3.2,2.1-2.7,1.3,1.3-4,15-6.2,16-4.6,1.9-11.2,6.4-11.2,7.5s1.3,2.7,2.7,4.6c3.7,4.6,3.5,6.1-1.4,10.7-4.6,4.5-5.1,6.2-2.1,6.2s4.2,3.7,2.1,6.2c-1,1.1-1.1,2.1-.5,2.1s0,.6-1.3,1.4-3.7,3.8-5.3,6.9l-2.9,5.6,3.5-2.2c3.4-2.1,3.5-2.1,4.5,0,.6,1.6,0,3.2-1.9,4.6-3,2.4-7.7,11.2-6.6,12.3s1.9-.3,3.4-1.8c1.9-1.8,2.9-1.9,3.7-.6.6,1.1-.6,3.2-3.7,5.4-4.2,3.4-4.5,4-2.7,6.1s1.4,2.7-2.7,6.2c-4.5,3.5-4.5,4-2.4,6.2,2.9,2.9,2.9,2.4-.3,6.2-1.4,1.8-2.2,4-1.9,5.1.5,1.1-.6,3.5-2.2,5.3-2.1,2.4-2.7,4.2-2.1,6.7.6,2.6.2,3.8-1.4,4.8-1.9,1.1-2.1,1.8-.5,4.2s1.4,3.7-.8,7.7c-2.2,4.2-2.4,5.1-.6,7.2,1.6,2.1,1.6,2.6-.6,4.3q-2.6,1.9,0,4c2.2,1.8,2.4,2.2.6,3.5s-1.8,1.6.3,3.4c3,2.4,3.2,7.8.3,7.8s-1.9.8-1.6,1.8,2.2,1.6,4.3,1.3c2.9-.3,3.7.2,3.7,2.2s-1,3.4-2.1,4.3c-3,2.6-2.6,4.2,1.3,4.2s4.6,1.8,6.9,4.8c2.4,3.2,5.6,5.3,9.1,6.2,3,.8,5.4,2.2,5.4,3.2,0,1.4-17,16.2-18.6,16.2s-.8-1.3-1.3-3c-1-4,1.3-7.8,5.4-9.4,2.9-1.1,4.8-4.2,2.7-4.2s-10.9,5.9-11.8,6.9c-.3.5-2.4,2.2-4.6,4.2-3.2,2.9-4,3-5.1,1.4-1.9-3-1.8-3.5,3-9,2.9-3.3,3.2-5,1-5-1.9,0-5.6,2.1-8.5,5-5,4.6-9.9,5.9-9.9,2.4s-1.9-3.7-4.2-1.9c-1.1,1-3,1.4-4,1-1.1-.5-4.6,1.8-8.3,5.4-7,6.9-8,5.8-2.9-3.4,5.6-9.8,4-13.4-2.6-5.8-4.2,5-8.3,5.9-9,2.2-.6-3.2,2.2-13.1,4.8-16.2,1-1.3,1.8-2.9,1.8-3.7,0-1.6,5.3-5.8,7.2-5.8s1.6,1.4,2.4,3.2c1.3,3.2,1.6,3.4,15.5,2.4,2.7-.2,4.5-4.2,2.7-6.1-1-1-2.1-.8-3.4.3-2.7,2.2-12-2.1-12-5.6s-.5-2.2-3.5-1c-1.9.8-3.8,1.3-4.3.8s.8-4.2,2.7-8.3c4.3-9,6.2-19,6.2-31s-.5-8.8-1.8-8.3c-1,.3-1.9,3-2.1,6.1-.6,11.5-3.7,25.4-6.2,28.5l-2.6,3.2.8-4.2c1.6-7.8,3.4-25,3.4-33.4s.6-8.6,2.2-9.3c1.3-.5,2.4,0,2.7,1.3,1.9,6.4,2.7,6.6,3,.8.3-4-.2-6.7-1.8-8.3-1.1-1.3-2.1-4-2.1-5.8s-.6-4-1.4-4.8-1.8-7.2-2.1-14.4-1-17.3-1.3-22.4c-.6-9.4,1.6-26.7,5.3-41.6,2.7-10.7,10.9-22.2,21.1-29.3,9.9-6.9,10.9-8.5,9-13.4l-1.4-3.8-7.8,7.7c-8.2,7.8-11,9.4-9.8,5.3,8.3-27.7,21-45.9,37.9-55.2,3.2-1.8,7.4-3.2,9.1-3.2,7,0,21.4,8.5,21.6,12.8h.5ZM835,897.2c0-1.1.6-2.4,1.4-2.9s1.4,0,1.4,1.3-.6,2.4-1.4,2.9-1.4,0-1.4-1.3ZM849.7,692.1c2.1-3.2,4.6-4.2,4.6-1.6s-1.6,4.2-3.5,7.7c-1.9,3.4-3.8,6.1-4.2,6.1-1.1,0,1.3-9.1,3-12.2h0ZM789.7,640.2c5.4-2.7,10.4-4.6,11.2-4.2.8.5-1.3,3.2-4.6,6.1-8.3,7.4-4.3,6.7,5.6-1l8.3-6.2,17.9.3c9.8,0,18.7.8,19.5,1.3,1.1.6-1,3.7-6.6,9.1-8.5,8.5-12.8,15.5-14.4,24.3-1.4,7.4.6,7.5,4,.3,1.6-3.4,3.7-6.6,4.8-7.2,1-.6,3.5-3.5,5.4-6.6,7.7-11.5,20.8-19.2,28.5-16.8,4.2,1.3,3.5,2.7-3,7-10.6,7-19.2,15-22.9,21.4-1.9,3.4-5.1,8.3-6.9,10.7-3.7,5-3.7,5.3.6,6.1,2.2.3,4-1,6.6-4.8,1.9-2.9,3.5-5.9,3.5-6.7,0-4.3,30.4-27.2,37.8-28.3,4.8-.8,10.6,1.3,10.6,4s-4.3,5.1-7.7,5.3c-1.6,0-5,1.6-7.7,3.4-2.6,1.9-6.9,4.5-9.4,5.8-5.8,2.9-17.4,14.4-22.6,21.9-2.1,3-5.1,7.7-7,10.4-1.8,2.7-4,7-4.8,9.6s-3.4,10.1-5.6,16.6c-2.2,6.6-4.6,15-5.1,18.7-.8,6.4-.8,6.7,2.4,6.7s4-.5,4.8-1.1c1.1-.6,1.3.6.5,5.1-2.6,13.9-9.9,39-14.4,49.8-1.3,3-3.8,9.4-5.6,14.2-4.5,12.2-14.9,28.3-24.6,38.2-8.3,8.5-19.4,17.3-21.8,17.3s4.8-5.9,12-13.3c7.4-7.4,13.6-14.9,14.1-17s4.5-11,8.8-20.2c9.4-19.4,12.5-29.8,9.6-33.1-2.2-2.7-5.6-.5-5.6,4s-18.9,41.4-25,48.8c-3,3.5-7.7,9.1-10.4,12.3-2.7,3.2-6.1,6.6-7.7,7.4q-2.6,1.3-1.3-1.4c.8-1.6,2.1-2.9,2.9-2.9s1.3-.8,1.3-1.9,3.4-7.4,7.5-14.1c4.2-6.7,7.7-12.8,7.7-13.8s1.1-3.2,2.6-5c1.4-1.8,3.4-5.8,4.3-8.8,1-3,2.9-7.5,4.3-9.8,2.7-4.5,3.5-11,1.3-9.6-.8.5-3.5,5.3-6.1,10.7s-5.9,10.7-7.4,11.5c-1.4,1-6.2,8-10.7,15.8-10.9,19.4-14.6,23.4-14.6,15.5s1.9-8.3,5.6-12.3c2.6-2.9,7.2-11,13.3-23.5,5.9-12,7.2-15,7.8-18.9.3-2.1,1-4.3,1.4-5.1,1.4-2.2-5.3,0-8.5,3-1.8,1.6-4.2,5.6-5.4,9.1-3.4,9.3-14.4,24.5-15.8,22.1-.6-1-1.1-2.7-1.1-4,0-2.1,5.8-14.2,9.9-20.8,1.1-1.9,4.8-9.6,8-17.3,3.2-7.5,6.4-14.9,7-16,5-9.4,9.1-51.8,6.2-64.2-1.9-8.3-1-16.8,2.7-22.4,2.4-3.8,2.7-9.1.3-8.3-1,.3-3.5,3.7-5.9,7.7l-4.2,7,.5,20.5c.5,19.4-1.9,45.9-5,56.5-1.8,5.8-6.1,14.4-7.2,14.4s-3.4,4.2-6.2,9.3c-8,14.4-11.5,17.8-11.5,10.4s1.6-6.2,3.4-9.3c15.5-25.8,21.1-38.6,18.6-41.8-1.4-1.6-2.4,0-6.1,10.2-2.4,6.7-5.9,14.9-7.7,18.2-3.5,6.2-6.7,8.8-6.7,5.1s6.6-17.4,10.7-25.1c1.4-2.9,2.4-8.5,2.6-17.6.2-7.8,1.6-18.2,3.2-25,3.2-13,4.5-23.5,2.7-22.4-.6.5-3.2,4.5-5.4,9.1-3.4,6.7-4.6,8-6.1,6.7-1.6-1.3-2.1,0-3.4,6.4-.8,4.5-2.1,10.1-2.7,12.5-.8,2.9-.6,4.8,0,5.3,1.8,1.1,1.9,1,4.3-8.5l2.1-8.3-.6,15.2c-.6,13.8-1.3,16.6-6.7,30.4-3.2,8.3-6.6,17-7.2,19.2s-2.1,4.3-3,4.6c-1.4.5-1.6-1-.8-7.5.6-4.5,1-10.1,1-12.5-.2-4,.2-4.3,3.5-4.2,3.4.3,3.7,0,3.4-3.8-.2-2.2-1-14.1-1.8-26.1-1-17.4-1.8-22.6-3.7-24.6-3-3.4-4.2-1.6-5.3,8.6-1.1,9.3-1.1,8.6,0,17.9.8,7.4.8,7.5-1.6,4.8-1.4-1.6-3.5-3.2-4.8-3.7s-2.7-3.2-3.2-5.9c-.8-4.5-4.8-8.6-6.6-6.7-.6.6,1.1,6.1,5.1,15,1,2.2,2.2,6.1,2.7,8.3s1.4,5.8,2.1,7.5c2.4,7.2,2.7,13.8.6,13.8s-1.9-.6-1.9-1.3-1.8-3-3.8-5.1c-2.1-2.1-5.3-7.5-7.2-12-2.9-7.2-5.9-10.7-7.7-9-.3.3.8,2.9,2.6,5.4,1.8,2.7,3.7,7,4.2,9.8.5,2.7,2.4,6.4,4.2,8.2,4.2,4.2,10.6,15.4,10.6,18.2s.8,2.7,1.8,3.4c3.4,2.2,9.1,18.4,6.4,18.4s-6.7-5.1-6.7-6.9-2.4-3.8-5.1-6.7c-2.9-2.9-6.2-7.2-7.5-9.6s-3.4-4.3-4.5-4.3c-3,0-2.7,2.2,1.3,7.5,1.9,2.6,3.5,5.3,3.5,6.1s2.1,4,4.6,6.7c2.6,2.9,5.8,7.4,7,10.1,1.3,2.7,3.2,5.8,4.2,6.9,2.2,2.6,6.1,13.4,5.1,14.4s-2.2-.6-4-2.2c-5.3-5-5.3-1.8,0,4.6,6.4,7.8,11.8,28.3,8.2,30.7-.6.5-4.2-2.4-7.7-6.1-3.5-3.8-7-6.9-7.7-6.9-3.5,0-2.4,3.5,2.6,8.2,3,2.9,5.6,5.9,5.6,6.7s1.9,3.7,4.2,6.2c4.6,5.3,6.6,14.7,4.2,20.8-1.4,3.8-4.2,3.7-4.2-.3s-8.5-9.8-12.6-10.2c-2.9-.3-3.2.2-2.9,4.6.3,4.8,4.2,12.2,9.1,17.1s2.2,3.5,2.2,5c0,4.2-2.9,3.2-10.1-3.5-9.6-8.8-25.8-13.9-36-11.5-3.2.8-7.2,1.3-9,1.3s-3,.5-3,1.3-.6,1.3-1.4,1.3-1.4-1-1.4-2.1-1.9-3.7-4.2-5.6c-2.6-2.2-4.2-4.8-4.2-7q0-3.4,3-1.3c9.4,6.9,11.5,7.7,19,7.5,11.7-.2,21.1-1.8,21.8-3.7.8-2.6-6.2-3.7-12.3-1.9-7.2,2.1-15.4.8-19.4-3.4-6.7-6.9-10.4-17.1-12-33.8-.8-8.6-2.1-16.5-2.9-17.3s-1.4-4-1.4-7.2c0-6.6-1.1-10.2-3-10.2s-1.3,4.3-1.1,10.1c0,5.4-.2,11.4-.6,13-.5,1.6-.3,3.4.6,3.8,1.9,1.1,1.9,5,0,5s-1.4-1.1-1.4-2.4c0-3.8-2.2-.3-4.8,7.5-2.6,8-2.1,12.2,2.4,22.9,1.6,3.7,2.4,7,1.9,7.5-1.6,1.6-6.4-5.8-8.6-13.4-2.1-7-2.1-8.8.2-26.9,2.4-19.2,3.4-52.8,1.4-55.8-.5-.8-1.6-1.1-2.4-.6-1,.6-1.1,5.3-.6,14.2.6,11.2.3,15.4-2.4,26.9-1.8,7.4-3.7,13.9-4.2,14.4s-1.8,0-2.7-1.4c-1-1.3-2.7-2.4-4-2.4-3.5,0-4.2-5.8-2.9-29.4,1.4-25.9,1.4-41.9,0-43.4-2.2-2.2-3.8,2.6-4.3,12.8-.5,12.2-4.3,26.9-6.7,26.9-7.4,0-9.4-12.2-6.2-36,.8-6.7,1.1-13.8.6-15.7-1-3.7-5-5-5-1.4s-4.5,13.3-5.6,12.2c-4.8-5,3-90.2,9.9-106.9,3.5-8.3,3.5-9,2.1-9.4-1.8-.6-9,13.4-9,17.4s-3.7,12.8-5.6,12.8-1.1-4.6,2.7-15.8c1.6-4.5,2.9-10.1,2.9-12.5,0-4.2,1.4-8.6,8.3-26.2,1.8-4.6,5.8-10.9,9.1-14.4,3.2-3.5,5.9-7,5.9-8,0-2.6,1.1-2.2,6.1,1.8,20.3,16.8,33.1,22.9,37.9,17.9,1.8-1.8,1.8-2.4.3-4.2-1-1.1-3-2.1-4.5-2.1-4.2,0-19.8-9.3-23.8-14.1-4.8-5.8-3.2-6.6,2.7-1.4,6.4,5.6,21.1,12.2,44.3,19.5,14.9,4.8,21.4,8.2,22.7,11.7,1.3,3.4,5,5,11.8,5s8.2,1.9,7.2,4.6c-.6,1.8-1.6,1.9-5.4.6-7-2.2-11.4-2.1-11.8.5-.3,1.9,1.6,2.4,11,3.5,6.2.6,13.9,1,17,.8,5.1-.3,5.3-.3,3.2,2.1-1.3,1.3-2.2,3-2.2,3.8s-1.9,1.8-4.3,2.2c-2.4.5-5,1.6-5.8,2.4-2.2,2.2,2.9,3.7,6.1,1.8,1.4-1,4.2-1.6,5.9-1.6s5-.6,6.9-1.6c4.6-2.1,5.8-.6,3,3.5-4.2,6.4-8.2,18.9-6.6,20.5s8.5-4.8,8.5-8.2,9.6-15.5,14.4-17.9l4.3-2.2-3.7,4c-5.1,5.4-9,13.9-10.2,21.4-1,6.1-.8,6.4,2.6,7,2.4.5,3.5,0,3.5-1.3s.6-3,1.3-4.3c.6-1.3,2.6-5.9,4.2-10.1,2.7-7.4,3.5-8,12.8-12.8l-.2,1.1ZM738.2,802.3c0,.8-.3,1.4-.6,1.4s-1-.6-1.4-1.4c-.5-.8-.2-1.4.6-1.4s1.4.6,1.4,1.4ZM732.6,614.6c1.8-1.1,7-.6,7,.6s-2.1.5-4.5.5-3.8-.5-2.6-1.3v.2ZM756.6,629.4c.3-1,2.7-1.9,5.3-2.1l4.8-.3-4.6,2.1c-5.6,2.4-6.1,2.4-5.4.3h0ZM792.5,599c-5.6,6.2-11,9.1-14.2,7.2-1.6-1-1.4-1.6.8-3.4,1.4-1.1,3.2-2.1,3.7-2.1s3.8-1.9,7.4-4.3c3.5-2.4,6.6-4,6.9-3.7s-1.8,3.2-4.6,6.4l.2-.2ZM835.2,517c-3,6.4-17.3,23.2-20.2,23.7-1.1,0-4.2,2.4-7,5.1-2.7,2.7-7.7,6.1-11,7.7-6.1,2.9-8,5.6-4,5.6s2.1-.5,2.1-1.1,2.2-2.2,5-3.7c2.7-1.4,6.6-4.3,8.6-6.4,2.1-2.1,5.4-4,7.5-4.3l3.7-.6-2.7,3.7c-5,6.9-15.4,13.9-37.9,25.4-12,6.2-15.8,9.3-16,12.8,0,3,4,1.9,11.2-3.2,3.8-2.7,7.7-4.8,8.6-4.8,2.9,0,14.1-6.4,21.4-12.2,6.6-5.1,11.2-7.2,11.2-5s-1,2.7-2.2,5c-1.8,3.4-2.9,4-5.3,3.4-2.2-.6-4.2.3-7,3.2-2.1,2.2-7.2,5.8-11.4,7.8-4,2.1-7.4,4.6-7.4,5.8,0,1.8.3,1.8,2.4,0,3.2-2.7,13.9-7.4,14.9-6.4,2.2,2.2-28.2,21.8-33.8,21.8s-8.3,2.4-7.5,5.4c1,3.8-4.6,5-13.1,2.7-5.8-1.4-8-1.4-15,.5-9.8,2.7-9.3,2.7-11.2.5-2.1-2.6-.6-3.7,4.5-3.7s7-1.3,10.2-2.7c3.4-1.4,7.2-2.7,8.6-2.7s2.6-.6,2.6-1.6-3.5-1.3-12-.6c-15.2,1.1-17,1.8-17,5s-2.9,3.4-11.5-.6c-4-1.9-9.6-4-12.6-4.8-6.4-1.8-10.1-6.1-7.5-9.3,1-1.1,2.7-1.9,4.2-1.9s2.6-1,2.6-2.1c0-2.7-1.1-2.6-9,.8-6.7,3-9.9,2.7-11.2-.6-.8-2.1,7.8-11.8,10.4-11.8s1.4-.6,1.4-1.4c0-1.9-.3-1.9-9.3,2.2-6.4,2.9-9.3,3.4-14.7,2.9-7.2-.8-9.8-2.1-6.4-3.4,1.9-.6,21.1-19.7,24.2-24,.8-1.1,3.5-4.6,6.2-8.2,6.4-8,7.4-9.6,5.6-9.6s-2.2,1.8-3.4,3.8c-2.4,4.6-20.8,23.8-22.9,23.8s-1.4-.8-1.4-1.8-1.4.2-3,2.6c-2.7,3.8-15.5,10.1-17.3,8.3s17.4-17.4,21.3-17.4,7.5-6.7,6.6-8.2-2.1,0-4,2.1c-1.6,1.9-6.2,5.4-10.1,7.8-4,2.4-9.9,6.6-13.4,9-10.1,7.2-12.2,3.2-4.5-8.6,2.6-3.8,5-8.6,5.4-10.6.5-1.9,4-6.9,7.8-10.9s7.8-9,9-11c1.1-1.9,5.8-7.7,10.2-12.6,8-8.6,10.4-13.8,6.4-13.8s-2.9,1.4-4.2,3c-3.2,4.5-25.1,27.4-26.4,27.4s-5-3.7-5-5.4.6-1.4,1.3-1.4c1.6,0,25-23.4,25-25,0-2.7-3.5-1-5.8,2.7-2.9,5.1-16.8,16.2-17.4,14.1-.3-.8,1.3-4.3,3.4-7.5,8.2-12.5,15-22.1,18.4-25.6,1.9-2.1,4.8-6.1,6.2-9.1,1.4-3,4.2-7.8,5.9-10.7,5.3-8.8,2.6-8.8-3.2,0-3,4.5-6.1,9.1-6.9,10.1-2.7,3.7-13.6,13.9-14.7,13.9-3.2,0-.6-6.1,4.6-11,6.9-6.4,6.6-8.8-.3-2.9-2.6,2.2-5.1,4.2-5.6,4.2-1.4,0-.5-27.5,1-28.8.6-.6,3.7-1.4,6.7-1.8,4.3-.3,5.9-1.3,7.7-4.6,1.4-2.7,4.6-5.1,9.1-6.9,8-3.4,18.4-12.5,24.8-22.1,2.6-3.8,8.8-15,13.9-24.8,5.1-9.9,9.8-18.6,10.4-19.4,2.1-2.7,12.3-24,12.3-25.8,0-3.7,2.9-12.2,4.2-12.2,3,0,2.7,6.9-.6,16.6-1.9,5.6-4.8,14.4-6.2,19.2-1.4,5-5.4,14.4-9,21-7.5,14.4-8,17.8-2.4,13.8,2.2-1.6,4.8-5.6,6.4-10.1,1.4-4,2.9-6.6,3.2-5.8.6,1.9-10.6,32-15.8,42.6-1.9,3.8-4.5,8.2-5.9,9.8-1.3,1.6-3.8,5.3-5.4,8.3l-3.2,5.6,5.8-6.2c10.2-11.2,14.7-17.1,17-22.7,10.1-25.4,12.6-31,13.6-29.6.6,1,.5,2.9-.2,4.2-.6,1.3-1.3,4.2-1.3,6.2s-.8,5.9-1.6,8.3c-1,2.6-1.3,5-.6,5.6,1.9,1.9,4.2-2.4,5.3-10.6.6-4.6,2.4-11,3.8-14.2s3-8.2,3.7-11c1.3-6.4,3-7.8,4.2-3.2,1.1,4.3,0,12.5-4.5,30.4-4.8,19.7-5.8,22.2-12.5,32.8-3.4,5.1-6.1,9.8-6.1,10.1s-2.4,5.8-5.6,11.8c-3,6.2-5.4,11.4-5.4,11.7s1,0,2.1-.3c2.9-1.1,9.8-12,18.6-29.9,4-8.2,7.8-15.2,8.3-15.5.6-.3,1.4-2.9,1.9-5.8,2.7-14.2,9.9-30.4,12.5-27.8.5.5-1.9,13.3-4.2,22.4-.8,3.4-.6,3.8,1.4,3.5,2.7-.5,5.3-9,6.7-22.6,2.1-19,6.9-25.3,5.6-7.4-.8,13.1-2.6,18.6-10.6,35.7-3.8,8-8.2,17.6-9.6,21.3s-3.5,8-4.6,9.6-2.1,4-2.1,5.1c0,2.9-3.7,11.2-8.2,18.2-1.8,2.9-3,5.6-2.6,5.9,1.3,1.3,9.3-9.1,10.1-13,.5-2.1,1.4-4.8,2.1-5.9.6-1.1,2.9-5.1,5-9,1.9-3.8,5-8.8,6.7-11,1.8-2.2,4.8-7.2,6.9-11s5.4-9.8,7.5-13.1c3.7-6.1,3.7-6.2,4.2-2.2.3,2.1-1,7.8-2.7,12.8-2.2,6.2-2.7,9.3-1.6,10.4,3,3,5.4-2.7,8.6-19.7,1.8-9.4,3.7-17.6,4.5-18.4.6-.6,1.1-3,1.1-5.1,0-4.6,1.8-5.9,5.4-4,2.1,1.1,2.6,2.4,2.1,5.3-.8,3.5-4.8,15.2-7.5,21.8-.6,1.6-2.2,6.2-3.5,10.4s-3.8,10.1-5.6,13.3c-4.2,7.2-4,8,.2,6.9,1.9-.5,3.4-.6,3.4-.3s-2.7,6.4-6.1,13.4c-3.4,7.2-9.3,21.1-13.1,31.2-4,9.9-8.5,19.5-9.9,21.1-3.8,4-2.7,4.6,3.5,1.8,4.2-1.9,5.9-4,9.3-11,2.2-4.8,4.2-9.4,4.2-10.4s4.2-10.1,9.1-20.3c5-10.2,9.8-20,10.6-21.8s2.6-3.5,4-3.8c1.3-.5,2.9-2.7,3.4-5.1s2.7-6.9,4.8-9.9c2.1-3,5-9,6.2-13.1,1.3-4.2,3.2-8.6,4.3-9.8,1-1.3,1.9-2.9,1.9-3.8,0-2.6,6.7-12.6,9.1-13.6,1.1-.5,2.7-2.4,3.4-4.3.6-1.9,1.8-3,2.1-2.6,1.1,1.1-4.5,14.2-9.4,21.4-2.2,3.4-4,6.6-4,7.2s-.6,1.3-1.3,1.3-1.9,1.9-2.7,4.5c-.8,2.4-2.6,5.4-3.8,6.9-2.1,2.2-2.1,2.6,0,3.4,2.9,1.1,11.2-7.7,16-17,1.9-3.7,4.2-7,5.1-7.7,1-.6,1.8-1.9,1.8-3s.8-2.4,1.9-3c1-.6,3.2-3.5,4.8-6.6,2.2-4.3,2.9-5,2.9-2.6s-.5,3.4-1.3,3.8c-.6.5-4.2,6.6-7.7,13.6s-7.5,14.4-8.6,16.3c-1.3,1.9-3.7,5.6-5.3,8s-4.3,5.4-5.8,6.6c-2.2,1.6-9.9,14.2-9.9,16.5s1.3.6,2.7.6,3-1.3,3.5-3.4c1-3.8,4.3-7.2,5.8-5.8.5.5-.5,2.7-2.1,5s-3,4.8-3,5.9c0,2.1,10.9-9.9,10.9-12.2,0-4.5,14.6-29.3,16.2-27.7s-1.3,4.8-3.5,9.8c-2.4,5-4.2,9.4-4.2,10.1s-.8,1.9-1.9,3.2c-1,1.3-5,8.2-8.5,15.4-3.7,7.2-10.6,19.7-15.4,27.8-8.5,14.2-10.6,20.5-6.9,20.5s9.8-8,15.8-18.4c3.2-5.6,5.9-8.8,6.6-7.8.5.8.2,2.4-.8,3.5-2.4,3-.3,4.2,2.6,1.4,6.7-6.1,6.1.2-.8,9.6-1.8,2.4-3.2,4.8-3.2,5.3s-2.2,3.8-4.8,7.4c-2.7,3.5-4.8,7-4.8,8s-1.3,2.7-2.7,4.2c-3.5,3.2-3.5,4.8,0,4.8s3.7-1.8,5.1-4.2c1.3-2.2,2.9-4.2,3.4-4.2s2.6-2.6,4.8-5.6c2.1-3,4.5-5.6,5.3-5.6s4-3.5,7-7.7c3-4.2,5.8-7,5.9-6.2.8,2.6-9.4,21.9-15.2,28.6-11.8,13.6-29.6,30.6-37.3,35.7-4.3,2.9-8,5.8-8,6.4s1.4,1.4,3.2,1.8c2.4.5,5.6-1.1,11.4-5.4,4.5-3.4,9.9-7,12.2-8.5,5.6-3.4,24.6-23,34.2-35.5,5.8-7.4,7-5.4,2.6,4.2l.8-.5ZM737.7,365.4c-.5.5-.8-.3-.6-1.8,0-1.6.3-1.9.8-.8.3,1,.3,2.2,0,2.6h-.2ZM832.3,444.7c0-2.2,3.2-8.5,4.3-8.5s.5,1.9-.3,4.2c-1.4,4.2-4,6.9-4,4.3h0ZM832.9,463.8c-.5.8-1.1,1.4-1.4,1.4s-.6-.6-.6-1.4.6-1.4,1.4-1.4,1.1.6.6,1.4ZM823.7,463.1c-.8,1.9-2.1,3.5-2.6,3.5s-.3-1.6.6-3.5c.8-1.9,2.1-3.5,2.6-3.5s.3,1.6-.6,3.5ZM851.7,375.4c-1.4,0-3.5,1-4.8,2.1-2.9,2.9-4.5,2.6-7.7-1-6.1-6.4-2.2-13.6,4.8-9.3,2.2,1.4,5.6,3.4,7.2,4.2,3.8,1.9,4,4,.5,4ZM860.8,375.8c2.9.3,7,1.4,9.3,2.2l3.8,1.6-4.2,5.1c-2.2,2.9-4.3,6.4-4.6,7.7-.5,2.4-.6,2.4-2.9,0-1.4-1.6-2.1-3.8-1.6-5.8.6-2.1-.2-4.6-2.2-7.4l-3-4.2,5.3.6h.2ZM857.1,474l.8-4.8c1.6-9.1,5.4-15.5,14.9-25,6.7-6.7,9.9-9,10.7-7.8,1.6,2.6,1.4,3.8-.6,3.8s-3.2,2.2-5.1,5-5.4,7.2-8,10.1-5,6.7-5.4,8.8c-.5,2.1-2.2,5.1-4,6.9l-3.4,3h.2ZM863.5,481c.5-2.2,2.4-6.2,4.2-9s3.2-5.4,3.2-6.1c0-1.6,9.3-13.1,13.1-16.3,3.8-3.4,5.4-3,7.4,1.1,1.8,3.8.8,6.6-1.1,3.4-1.9-3-5.3-.6-10.2,7-2.6,4-6.1,8-7.5,9-1.6,1-4.5,4.6-6.4,8.3-2.7,5.3-3.4,5.8-2.6,2.4v.2ZM873.7,498.8c-1.4,3.2-3,8.2-3.5,11-.5,2.9-1.4,5.1-1.9,5.1-1.3,0-4.2-6.2-4.2-8.8s7-19.2,11.8-26.7c2.6-4,4.8-7.7,4.8-8,0-2.1,12.3-11.7,14.9-11.7s1.3,2.1-9.3,13.8c-11.8,13.1-14.1,16.8-11.2,18.6.8.5.2,3.4-1.3,6.7h-.2ZM886.1,486.5c0,1.1-.6,2.4-1.4,2.9s-1.4-.5-1.4-2.1.6-2.9,1.4-2.9,1.4,1,1.4,1.9v.2ZM879.7,498.3c.5-1.9.8-3.8.8-4.5s.6-1,1.4-1,1.1,1.3.5,3c-1.4,4.6-4,6.7-2.9,2.4h.2ZM945.6,503.9c-.8,0-1.4,1.8-1.4,3.8,0,5.4-3.8,17.6-6.1,19.5-1.4,1.1-2.2,1.1-3.4-.2-1-1.3-.6-3.4,1.3-7.2,2.6-5.1,2.9-8,2.7-18.9,0-2.1-.8-4.2-1.6-4.6-2.7-1.8-5,2.7-6.6,12.8-2.2,13.8-3.5,16.6-8.8,18.9-6.2,2.6-7,1.6-3.7-4.8,2.9-5.6,3.2-12.3.6-13.1-1.9-.6-7.5,8.3-8.5,13.4-.5,2.2-2.1,5-3.7,6.1-3.8,2.7-14.4,2.6-19-.3-4.3-2.7-5.8-9.1-4-18.1,1.3-6.4,3.2-9.6,7-10.7,1.4-.5,2.9-2.2,3.4-3.8,1.1-3.7,11.4-15.7,12.6-14.6.5.5-1.3,4.2-4,8.2-5.1,7.7-8.6,18.9-7.4,22.6,1.6,4,4.5,2.1,5.8-3.7,1.1-4.6,2.1-6.1,5.4-7.2,2.2-.8,5-2.4,5.9-3.7,1-1.3,3.8-2.7,6.4-3.4,2.6-.5,5.6-1.9,6.6-3,2.2-2.7,11.7-8.8,13.6-8.8s8.3,14.4,8.3,18.1-.6,2.6-1.4,2.6l-.2.2ZM949.7,528.7c-2.4,0-2.7-2.4-.8-5s1.9-2.4,2.1,1.1c0,2.1-.5,3.8-1.3,3.8h0ZM946.4,473.5c-1.6-1.6.5-5.8,6.7-13,3.7-4.3,4.5-5.9,3.4-8-1.8-3.2-4.2-1.9-10.9,5-2.6,2.7-5.3,5-5.9,5-2.6,0-.8-4.5,3.7-8.8,4.8-4.8,7.8-11.8,5.1-11.8s-4,2.7-6.9,5.9c-3,3.2-5.9,5.4-6.6,4.8-1.6-1.6,2.4-12.2,5.3-13.9,1.3-.8,2.4-2.1,2.4-2.6,0-1.8-3.2-1.1-5.8,1.3-1.4,1.3-3,1.9-3.5,1.3-1-1.1,9.9-12.2,14.2-14.4,5.1-2.7,14.2-3.4,21.3-1.6,7,1.8,8.5,3.2,4.8,4.5-1.1.5-2.1,1.4-2.1,2.2,0,1.9,7.8,1.9,9,0,.5-.8,2.1-1.4,3.5-1.4s2.7.6,2.7,1.4-1.1,1.4-2.4,1.4c-2.6,0-5.8,2.4-5.8,4.5s1,1.1,2.1,1.1c2.9,0,2.6,1.9-1.3,6.6-5.3,6.4-5.3,12,0,13.8,3.4,1.1,3.7,1.9,3.8,8.8,0,7.4.3,7.5,4.3,7.8,5.6.5,14.6,3.4,14.6,4.5s-1.4,1.4-3,1.8c-2.2.6-2.7,1.3-1.6,2.4s3,1.1,6.7,0c3.7-1,5.8-1,7,0,2.9,2.4,2.2,3.8-2.7,5-5,1.3-7,5.8-2.9,5.9,1.9,0,1.9.3.5.8-1.1.3-3.4,1.3-4.8,1.9s-7,3-12.3,5.4c-11.5,5.1-11.8,5.1-7.8.8,1.8-1.9,2.7-4,2.2-4.8-1.6-2.6-8.2,0-13.1,5.3-7,7.5-9.6,9.3-9.6,7s3.4-5.1,7.5-9c8.6-8.2,9.8-11.4,3.5-10.4-4.6.6-5.1-.5-2.1-4.5,2.9-3.8,2.6-5-1.4-5s-3.5.5-3.5,1.3c0,1.4-4.2,3.4-5.3,2.2s1.3-2.9,3.7-5.6,4.3-5.6,4.3-6.2c0-1.9-4.6-1.6-6.6.3-1.3,1.3-1.6,1.1-1.6-.6s.6-2.7,1.4-3.2c1.4-.8,1.9-6.2.6-6.2s-3.7,2.7-7.2,6.1c-4.2,3.8-7,5.8-7.8,5h0ZM1024.3,515c-2.7,1.8-4.5,1.8-3.5,0,.5-.8,1.9-1.4,3.2-1.4,2.1,0,2.1.2.3,1.4ZM1047.2,523.8c-.6-2.7,0-4.5,1.9-6.7,4-4.3,3.5-9.3-1.4-13.9-3.8-3.7-5.1-4-12.8-3.8-9.6,0-17.6,1.9-23.7,5.1-2.2,1.3-5,2.2-5.9,2.2-2.4,0-17,8.2-21.1,11.8-1.9,1.8-5.4,4.2-7.8,5.3-2.4,1.3-5.4,4.3-6.7,6.7s-3.5,5.9-4.8,7.7c-2.6,3.2-3.5,12.8-1.8,17.3.5,1.3,3.4,2.6,6.9,3,3.8.6,6.1,1.6,6.1,2.9,0,3-10.9,2.4-16.3-1-4.3-2.6-4.6-3.2-3.8-8,1.3-7.7,5.8-17,10.4-21.6s4.2-4.8,4.2-5.4,1.9-2.9,4.3-4.8,6.2-5,8.6-6.9c14.2-11.7,26.1-17.8,35.7-18.7,3.2-.3,8.8-1,12.3-1.4,9.3-1.3,15.2.2,21.1,5.4,4.6,4,5.3,5.3,5.1,9.9-.3,6.1-2.4,12.5-5.6,16.2-2.9,3.4-4,3-5-1.3h.2ZM1076.9,609.4c-2.1-3.2-2.7-5.4-1.9-6.2s2.1-.2,3.7,2.1c1.3,1.9,2.1,4.8,1.9,6.2-.5,2.4-1,2.1-3.7-2.1ZM1150.1,770.8c0-2.7,2.2-1.8,4.8,1.9,1.3,1.9,2.1,4.2,1.9,5-.6,1.8-6.6-4.5-6.6-6.9h-.2ZM1172,804.4c.6-.5,1.6-.2,2.1.5.5.8.2,1.6-.5,2.1s-1.6.2-2.1-.5c-.5-.6-.2-1.8.5-2.1ZM1243,894.3c-1.4.5-2.9,1.1-3.4,1.3-.5.2-2.6-1.4-4.8-3.7s-7-4.8-12.2-6.2c-4.5-1.1-8.8-2.6-9.6-3-.8-.6-4.3-1.9-7.7-3-3.4-1.1-6.6-3-7.2-4.2-.6-1.1-3.2-6.4-5.6-11.5-2.7-5.6-6.4-11-9.1-13.1-14.6-11.5-14.4-11.2-15-23.5-.3-6.9,0-11.4.6-11.4,1.6,0,5.9,4.5,5.9,6.2,0,3,6.4,17,9.9,21.6,2.1,2.9,3.8,5.6,3.8,6.1,0,1,6.1,8.2,15.4,18.1,2.2,2.4,7,5.8,10.6,7.4s8,3.8,9.9,5c1.9,1.1,6.6,3.5,10.4,5.3s7.7,4.2,8.8,5.4c1.6,1.9,1.6,2.4-.6,3.2l-.2.2Z"/>
    <path class="st0" d="M641.3,770.5c-1.6,0-2.2,3.5-2.9,16.2-.5,9-1.3,17.8-1.8,19.5-.6,2.4-.3,3.2,1.1,2.6,1.1-.3,1.9-2.4,1.8-4.6,0-2.2.3-6.6,1-9.6.6-3,1.4-9.8,1.9-14.9.8-7.5.5-9.3-1-9.3l-.2.2Z"/>
    <path class="st0" d="M642.7,749.8c-1.4,0,0,4.3,2.7,7.2,2.4,2.7,4.5,3.2,4.5.8s-5.4-8-7-8h-.2Z"/>
    <path class="st0" d="M640.1,744.7c0-2.1-4.2-6.4-5-5.4-.5.5.2,2.2,1.6,3.7,2.7,3,3.5,3.4,3.4,1.8h0Z"/>
    <path class="st0" d="M824.3,729c2.1-8.6,7-24,8.2-25.4,1.6-1.8,1.4-6.2-.3-6.2s-1.4.6-1.4,1.6-1.6,4.8-3.4,8.8c-3.4,7-7.7,21.3-7.7,25.1s3.5.6,4.5-4l.2.2Z"/>
    <path class="st0" d="M795.5,787.1c3.2,0,6.4-21,3.5-22.9-2.6-1.6-3.7,1.1-4.5,12.2-.6,8.6-.5,10.7,1.1,10.7h-.2Z"/>
    <path class="st0" d="M795.7,729.4c1-4.5-.3-11.2-2.1-11.2s-3.2,9-2.1,12.3c1.3,4,3.2,3.5,4.2-1.1Z"/>
    <path class="st0" d="M824.8,653.7c1.3-2.7,3.2-5.3,4.2-5.8,1-.3,1.9-1.8,1.9-2.9s-.8-1.4-3.5,1.1c-3.2,3-7.5,9.6-7.5,11.5s3,0,5-4.2v.2Z"/>
    <path class="st0" d="M721.1,654.2c-1-1-2.7-3.7-4-5.9-2.6-5-5.9-8-7-6.4-.3.6.5,3.8,1.9,7.2s2.7,6.9,2.7,8.2,1.4,5.9,3.2,10.6c1.8,4.6,3.7,9.4,4.2,10.9,1,2.6,3.7,3.4,3.7,1s1-1.4,2.2-1.4,1.9-.8,1.3-3.5c-1.8-6.7-6.6-18.6-8.3-20.3l.2-.2Z"/>
    <path class="st0" d="M882.4,362.8c2.2-.3,3.2-1.4,3.2-3.8s-.8-3.5-3.2-3.8c-3.4-.5-5.3,2.4-4,6.1.5,1.3,2.1,2.1,4,1.8v-.2Z"/>
    <path class="st0" d="M939.7,393c-.3-3.2-1.3-6.1-2.2-6.4-1.3-.5-1.4.8-.6,4.8.5,2.9,1.3,5.8,1.6,6.4,1.4,2.4,1.9.6,1.4-4.8h-.2Z"/>
    <path class="st0" d="M830.5,240.1c.6,0,4,.3,7.7.6,5,.3,8.3,1.8,13.1,5.3,7.8,5.8,9.9,6.1,9.9,1.6s-3.2-5.9-12.8-7.8c-14.9-2.7-18.9-3-18.9-1.4s.5,1.6,1,1.6v.2Z"/>
    <path class="st0" d="M904,253.2c-2.9,1.4-7.4,4-10.1,5.4s-5,3.2-5,3.8c0,1.4,6.1,1.4,7.7,0,2.2-2.1,31.2-13.9,33.9-13.9,4,0,4.5-2.6.8-3.5-4.2-1-17.1,1.6-19.8,4-1.1,1-4.3,2.9-7.2,4.5l-.3-.3Z"/>
    <path class="st0" d="M897.3,251.6c1.6-1.9,1.4-2.1-.8-1.8-1.4.3-2.9,1.3-3.2,2.2-.8,2.4,1.8,2.1,4-.5Z"/>
    <path class="st0" d="M900,248.6c0,1.6,1.6,1.4,8.5-1,8.5-2.9,19-8.2,19-9.3,0-1.9-8.2-1-15.4,1.6-7,2.7-12.3,6.4-12.3,8.6h.2Z"/>
    <path class="st0" d="M825.9,251.4c1,.5,2.2,2.9,2.9,5.8,1.3,6.6,5.3,9,17,10.4,5.1.6,9.8,1.1,10.2,1.3,1.3.3,2.6-3.5,2.6-7.4s-7-11.8-10.2-11.8-1.9.6-.8,3.5c.8,1.9,1.3,3.8,1.3,4.2s-3.4.5-7.5.3c-6.4-.3-7.5-.8-7.5-3,0-3.5-3.8-7.7-7.2-7.7s-3.5,3.5-.6,4.6v-.2Z"/>
    <path class="st0" d="M806.5,378.2c-1.1,0-1.9,1-1.9,2.1s1.3,2.1,3.7,2.1,3.4-.3,1.9-2.1c-1-1.1-2.6-2.1-3.7-2.1Z"/>
    <path class="st0" d="M710.7,351.8c0-3.2-3.2,0-12,11.5-10.4,13.9-14.2,19.7-14.2,21.4,0,2.6,26.2-30.2,26.2-33Z"/>
    <path class="st0" d="M728.6,178c0-3.4-2.9-8.3-4.8-8.3s-2.7,3.2-.6,7c1.4,2.7,5.4,3.7,5.4,1.4v-.2Z"/>
    <path class="st0" d="M683.3,263.1c2.1-.6,3.2-3.8,1.4-3.8s-1.8,1-2.2,2.2c-.5,1.3-.2,1.9.8,1.6Z"/>
    <path class="st0" d="M527.2,878.3c-1.4,0-5.3-2.4-8.3-5.3-5.4-5-6.1-5.3-10.2-3.8-2.4.8-5.3,2.1-6.2,2.7-2.4,1.4-2.1,7,.3,12,2.7,5.4,5.1,5.1,8.5-.8,1.9-3.5,6.9-4.3,9.9-1.8,4.8,4.2,17.1,6.7,18.9,3.8,1-1.6-9-7-12.8-7v.2Z"/>
    <path class="st0" d="M1061.3,775.4c.2-5.4-.2-10.2-1-11-1.8-1.8-1.9,6.6-.5,15,1,5.1,1.1,4.8,1.4-4h0Z"/>
    <path class="st0" d="M1052.8,576.9l-4.8-3.7,2.1,4.2c1.1,2.2,2.9,4.5,3.8,5,1,.3,2.2,2.9,2.7,5.6s1.6,6.4,2.4,8.2,2.1,3,2.7,2.6c3.7-2.2-2.2-16.2-9-21.6v-.2Z"/>
    <path class="st0" d="M1059.3,627.9c-1.1-7-8.3-22.2-10.2-21.1-1.3.8,3.2,9.6,5.6,11,.6.5,1.6,3.7,2.1,7.2s1.3,7,1.6,7.5c1.4,2.4,1.8.6,1-4.8v.2Z"/>
    <path class="st0" d="M997.7,550c-3.4-2.1-2.6,1.4,2.1,9,2.7,4.5,5.1,8.8,5.1,9.8s.3,1.4.8,1.4c2.2,0-5.1-18.4-8-20.2Z"/>
    <path class="st0" d="M1038.1,557.7c0,.8,1.9,4.2,4.5,7.5,2.4,3.5,4.6,6.2,5,6.2,1.3,0-1.4-7.7-4-11.4-2.7-3.8-5.3-5.1-5.3-2.6l-.2.2Z"/>
    <path class="st0" d="M1060.1,761c1.3-2.1,0-11.2-1.4-11.2s-1.6,2.2-.3,8.2c.5,2.4,1.3,3.8,1.8,3h0Z"/>
    <path class="st0" d="M1083.7,865.2c-.6,1.4-1.3,3.7-1.3,4.8q0,1.9,1.3,0c.8-1.1,1.3-3.4,1.3-4.8v-2.7l-1.3,2.7Z"/>
    <path class="st0" d="M1086.1,855.1c-1,.3-1.8,1.9-2.1,3.7-.5,3.8,1.9,2.7,3-1.3.5-1.8,0-2.7-.8-2.4h-.2Z"/>
    <path class="st0" d="M1063,798.3c0,2.7.5,5.4,1,6.1,1.6,1.6,2.1-5.8.5-8.5-1.1-2.1-1.4-1.6-1.4,2.6v-.2Z"/>
    <path class="st0" d="M1072.6,628.7c0-1.1-1-1.9-2.1-1.9s-2.1.5-2.1,1.3,1,1.9,2.1,2.9c1.1,1,2.1,2.6,2.1,3.5s1.6,3.7,3.5,5.9,3.5,5.8,3.5,7.7.6,3.5,1.4,3.5c2.9,0,1.1-6.9-3.5-13.8-2.7-4-4.8-8-4.8-9.1h-.2Z"/>
    <path class="st0" d="M1079.5,656.4c0,1.3,1,2.2,2.2,2.2s1.9-.8,1.6-1.6c-.8-2.6-3.8-3-3.8-.5v-.2Z"/>
    <path class="st0" d="M1090.2,851.8c2.1-1.8,1.9-11.7-.3-11.2-.8.2-1.4,3.2-1.4,6.6,0,5.1.2,5.9,1.8,4.6Z"/>
    <path class="st0" d="M1097.4,915.4c-1,3.4-3.2,6.9-4.8,8-3.2,2.1-6.1,7.5-6.1,11s3.4,1.4,3.8-1.9c.2-1.6,1.9-4.3,3.5-6.1,4.3-4.5,6.7-9.1,7.4-14.9.6-6.1-1.3-4.2-3.8,4v-.2Z"/>
    <path class="st0" d="M1102.9,718.6c-.6-.5-1.3-1.9-1.3-3.4,0-2.7-3.7-6.6-5-5.3-.5.5.3,3.8,1.8,7.8,1.4,3.8,2.9,7,3.4,7,1.4,0,2.4-5.4,1.1-6.2h0Z"/>
    <path class="st0" d="M1044,957.5c-10.9.5-16.5,2.4-14.7,5.3.5.8,2.4,1,4.5.5s6.9-1.4,10.9-1.9,8-1.8,9-2.6c1.1-1.1-1.1-1.4-9.6-1.1v-.2Z"/>
    <path class="st0" d="M1080.9,755.3c-1.6-4-2.6-8-2.1-9.1,1-2.4-2.9-20.3-5.6-26.2-1.1-2.4-1.9-5.1-1.9-6.1,0-3.7-3.2-12.3-5-13-1.4-.5-1.3.6,0,6.1,1,3.7,2.1,7.4,2.6,8,.6,1.1,3.8,12.2,5.9,20.3.3,1.6,1,7,1.4,12.3s1.3,10.7,2.1,12c.6,1.3,2.6,9,4.2,17,2.7,14.1,2.6,23.4-.2,25.1-.6.5-1.3,2.1-1.3,3.7,0,4.2,1.9,1.4,4-5.6,3.4-12,1.8-29.6-4-44.6l-.2.2Z"/>
    <path class="st0" d="M1044.8,921.2c-1.3,0-4,2.1-6.2,4.8s-5.6,5.1-8,5.8c-2.2.5-5,2.1-5.9,3.4-3.2,4.5-10.4,7.2-19.7,7.5-9.9.3-15.2,2.4-15.2,6.1s1.4,2.4,12.2,2.1c6.7,0,12.8-.3,13.6-.3,2.9-.3,10.2-8,10.2-10.7s2.4-6.1,5.4-6.1,16.6-12.3,13.6-12.3v-.2Z"/>
    <path class="st0" d="M938.5,974.2q4.8-.8,1.4-2.1c-3.2-1.3-32.8-.5-34.2,1-.3.3-.2,1.1.3,1.9.8,1.3,23,.8,32.6-.6l-.2-.2Z"/>
    <path class="st0" d="M981.7,971.9c2.4-.8,7.5-1.6,11.4-1.8,9.3-.3,10.2-.6,6.2-1.9-6.2-1.9-20.2-1.6-22.1.6-1,1.1-1.3,2.6-.8,3.4s2.4.8,5.3-.2v-.2Z"/>
    <path class="st0" d="M1068.1,827.1c1,3.8,1.8,3.5,1.8-.8s-.6-3.2-1.3-2.7-1,2.1-.5,3.5h0Z"/>
    <path class="st0" d="M1074.1,905.2c-.8.5-1.4,2.6-1.4,4.8,0,9.6-5.1,17.1-12.6,18.7-1.9.5-5.9,3.2-9,6.2-3.4,3.5-4.6,5.4-3.2,5.4s3.7-1.6,5.4-3.5c1.9-1.9,6.2-5,9.6-6.7,3.7-1.9,7-4.8,8.2-7,1-2.2,2.4-5,3-6.4,1.8-3.4,1.6-12.5,0-11.4v-.2Z"/>
    <path class="st0" d="M1067.2,819.4c0,1.4.3,2.2.6,1.8.5-.5.5-1.6,0-2.7s-.8-.8-.8.8l.2.2Z"/>
    <path class="st0" d="M1101.7,728.2c0,1.4.3,2.2.6,1.8.5-.5.5-1.6,0-2.7s-.8-.8-.8.8l.2.2Z"/>
    <path class="st0" d="M1247,923.1c-1.1,1.1,1.4,3.7,5.8,5.4,4.8,2.1,7.8,2.2,8.3,0,.3-1.3-13-6.7-13.9-5.6l-.2.2Z"/>
    <path class="st0" d="M1125.1,819c0,.8.3,1.4.6,1.4s1-.6,1.4-1.4.2-1.4-.6-1.4-1.4.6-1.4,1.4Z"/>
    <path class="st0" d="M907.7,339.6c-2.2-1.9-4.8-.8-4.8,2.1s1.3,1.9,3.4,1.9c3.8,0,4.5-1.6,1.4-4.2v.2Z"/>
    <path class="st0" d="M1142.9,860.9c-1.6-1.6-1.9-1.3-1.9,2.9s1.6,6.4,2.9,1.9c.6-1.8.2-3.7-1-4.8h0Z"/>
    <path class="st0" d="M1145.9,939.1q-3.4,0,1.3,4.2c5.3,4.6,7,5.1,7,1.9s-4-5.9-8.3-5.9v-.2Z"/>
    <path class="st0" d="M1147.8,824.7c.8,5,1.6,6.6,3.4,6.6s2.4-1,1.8-7.2c-.6-7.8-3.5-14.9-6.1-14.9s-1.3-1.9-.8-5.6c.6-4.8.5-5.4-1.3-3.8-1.1,1-1.9,3.4-1.8,5.3.3,5.4.2,5.6-3.4,4.3-2.4-1-3.8-.8-5,.6-2.4,2.9-.2,5.1,4.2,4.3,5.1-1,7.7,2.1,9,10.6v-.2Z"/>
    <path class="st0" d="M1128.3,799.6c-1-5-3.4-9.9-6.4-13.4-1.6-1.8-2.6-4.6-2.4-6.9,1.3-15.7-2.2-24.2-11-26.9-5.3-1.6-5.3-1.8-5.8-9.3l-.5-7.7-.3,9.3-.3,9.3,4.8,2.4c8,3.8,10.6,8.6,9.8,18.6-.6,8-.5,9,4.8,17.6,5.1,8.5,6.2,12.2,5.8,19v2.7c-.2,0,1.9-2.7,1.9-2.7,1.3-1.6,1.8-3.8,1.3-5.4-.5-1.6-1.1-4.3-1.6-6.2v-.3Z"/>
    <path class="st0" d="M1181.1,903.1c-1.8-1.4-2.1-1.3-2.1.3s.5,2.4,1,2.9c1.3,1.3,3.2,1.1,3.2-.3s-1-1.9-2.1-2.9h0Z"/>
    <path class="st0" d="M1216.3,907.8c0-3-11.8-11.8-32-23.8-3.2-1.9-5.6-4.6-6.6-7.7-1.8-5.1-8.6-16.3-13.3-21.4-1.8-1.9-3.8-5.3-4.6-7.4-1.8-4.6-5.4-4.5-7.2,0-1,2.6,0,4.3,4.6,9.6,3.2,3.7,6.9,9.1,8.2,12.3,1.4,3.2,4.8,8.2,7.7,11.4,5.1,5.4,26.9,21,29.6,21s13.6,11.2,13.6,13.1.8,2.1,1.8,2.4c3.5,1.3,4.3-1.8,1.3-5-1.6-1.8-3-3.8-3-4.6v.2Z"/>
    <path class="st0" d="M1172.9,915.1c-1-.3-2.6-3.5-3.5-6.9-1.4-6.1-5-10.6-6.7-8.8-.5.5,0,1.9,1.1,3.4,1.1,1.3,3.5,5.4,5.1,9,1.8,3.7,3.7,6.6,4.3,6.6,1.9,0,1.4-2.4-.6-3.2h.3Z"/>
    <path class="st0" d="M1224.9,930.2c-5.3-1.6-3.4,1.6,2.7,4.6,6.7,3.4,7.5,3.4,8.6,1.4.8-1.3-3.8-3.8-11.4-6.1h0Z"/>
    <path class="st0" d="M1105.1,879c-.8-2.1-1.3-2.2-1.8-.8-.5,1.1,1.9,7,5.1,13.4,3.2,6.4,6.4,11.5,7,11.5,1.4,0-2.4-10.1-6.4-16.6-1.6-2.7-3.5-6.1-4-7.7v.2Z"/>
    <path class="st0" d="M934.9,335.1c1-3.8,0-5.3-3.2-5.3s-5,4.5-3.5,6.9c1.6,2.6,5.9,1.4,6.7-1.6Z"/>
  </g>
  <path class="st1" d="M718.7,590.5c-1.6-.6-6.4-8-5.8-8.8.3-.5,2.6-1.8,5-2.9,6.1-2.9,9.6-5.9,9.3-8-.3-1.4-.8-1.6-4-1.3-9.1,1-9.4,0-2.9-5.8,5.4-4.8,8-5.1,6.9-.8-1.3,5,1.8,5,6.7,0,4.3-4.3,4.5-4.3,8.3-2.9,2.1.8,6.1,3.4,9,5.6,2.7,2.2,5.3,4,5.8,3.8,1.4-.6.8-5-1.1-7-2.1-2.2-5.6-8.8-5.3-9.6,0-.2,3.4-2.1,7.4-4,5.9-2.9,7.2-4,6.9-5.8-.2-1.4-1-2.2-2.6-2.2s-5.3-.5-9-1l-6.7-.6-2.4-5.8c-1.8-4.3-2.2-7.2-1.6-11.4.5-3,1-9.3,1.3-13.6s1-13,1.6-19c.6-6.1,1.3-14.1,1.6-17.6.5-8.6,1-9.6,4.2-9.6s11.7,5.3,14.6,8.6c.8.8,4,3.8,7,6.7,3.2,2.9,9.3,9,13.8,13.4,4.5,4.5,8.3,8.3,8.5,8.5.5.2,6.6,6.2,16.3,16.2,3.7,3.7,9.6,9.1,13,12,3.5,2.9,6.6,5.6,7,6.2.5.6,3.2,4,6.4,7.2,3,3.4,5.3,6.4,4.8,7-.5.5-2.4,1-4.5.8-3.7,0-6.4,2.1-4.3,3.5.6.5,4,3.2,7.4,6.1l6.2,5.3-1.9,6.9c-1.1,3.8-1.8,7.2-1.6,7.7.5,1,7.2-1.9,11.4-5,1.8-1.3,4-2.4,5-2.2,1,0,4.3,2.1,7.5,4.5,3.2,2.4,6.2,4.3,6.7,4.2,1.9-.3,1.1-4.3-1.8-8.8-1.6-2.6-2.7-5.4-2.4-6.4,1-2.7,13.6-7.2,24.5-8.6,15.2-2.1,21.1-2.9,41-5.9,33-5.1,36-5.4,36.3-3.7.2,1-1,4.3-2.6,7.7-2.2,4.6-2.7,6.6-1.9,7.8.8,1.4,1.6,1.1,4.6-1.8,1.9-1.9,5.6-4.3,8.2-5.6l4.6-2.2,6.6,4.8c3.5,2.7,7.2,5.4,7.8,6.1.8.8,1.8.8,2.6-.2s.6-2.9-.6-6.1c-3.4-8.2-4.6-12.8-4-14.7.5-1.1,3.4-2.7,7.5-4,4.6-1.4,7-2.7,7.5-4.2,1-2.6,0-3-5.9-3.2-2.4,0-6.9-.5-9.9-.8-5.4-.8-5.6-.8-6.6-3.7-.5-1.6-.8-4.5-.8-6.4s-.5-3.7-1.6-4.2c-1.4-.5-2.2.3-4.5,5.6-2.6,5.6-3.2,6.4-6.9,7.7-2.2.8-5.1,1.3-6.4.8s-4.3-1-6.9-1-5.8-.5-7-1l-2.6-1,2.4,2.2c1.3,1.3,2.7,3.2,3.2,4.3.5,1.3,2.1,2.6,4.5,3.5,2.1.8,3.5,1.8,3.4,2.2-.2.5-9.3,2.2-20.3,4-11,1.8-23.2,3.8-27,4.6-22.2,4.6-50.6,5.3-54.9,1.3-.8-.6-1.4-2.6-1.8-4.5-.6-4.8-4.6-5.9-5.4-1.4-.5,2.4-3.5,5.9-4.8,5.4-.8-.3-3.7-2.9-6.6-5.8s-5.6-5.3-6.1-5.6c-.5-.2-4.8-4.5-9.8-9.6s-9.3-9.4-9.4-9.6c-.3,0-3.4-3.2-7-6.9-3.5-3.7-7.5-7.4-8.6-8.3-1.1-1-3.8-3.4-6.1-5.6-2.2-2.2-5.8-5.6-8-7.7-6.7-6.1-19.7-19.8-20.3-21.4s-1.8-2.7-3.2-4.3c-1.6-1.6-3.8-4.6-5-6.9l-2.2-4.2,9.3-3.8c5.1-2.1,9.4-4.3,9.8-4.8.6-1.6-3.5-3-8-2.7-2.2,0-4.3,0-4.5-.5-.3-.8,3.7-6.1,8.3-10.9,6.9-7,8.2-8.6,10.9-11.7,1.6-1.8,9.1-10.2,17-18.7,7.8-8.5,19.4-21,25.6-28,8.5-9.4,12-12.6,13.9-12.8,1.3,0,2.9-.6,3.4-1.3,2.2-2.4,12-9,13.9-9.1,1.3-.2,4.5,1,8.6,3.4,3.7,1.9,7.4,4,8.3,4.5,1.1.6,2.1.3,2.7-1,.8-1.4-.3-3.5-4.5-9.1l-5.4-7.4,8.3-3.8c8.5-4,11.2-6.7,7.5-7.7-1.1-.3-5.4-.8-9.8-1-4.2-.2-7.8-.8-8.2-1.3-.3-.8,4-9.4,12.3-24,2.6-4.5,9.8-17.1,16.2-28.3,6.2-11,16-28,21.8-37.6,5.6-9.6,10.7-18.9,11.5-20.6,1-2.7,2.7-4,10.1-7.5,9.9-4.6,8.8-5,20.8,3.2,3,2.1,5.8,3.5,6.1,3.4,1.8-.8,0-4.8-4.3-9-2.7-2.7-5.3-6.1-5.9-7.5-1.3-3.4,0-4.2,9.3-5.9,3.8-.6,6.9-1.4,7-1.6,1.4-4-4.5-6.9-11.5-5.4-2.6.5-5.9.5-7.4,0-2.4-1-2.6-1.3-1.3-4.3,2.1-5.8,6.6-11.5,9.9-12.8l3-1.3,5.6,4.8c3,2.7,6.1,5,6.6,5.1,1.8.6,1.6-4.3-.5-9-2.4-5.6-1.6-6.6,7.8-10.2,5.4-2.1,6.2-2.7,5.8-4.5-.5-1.8-1.3-1.9-8.5-1.3-4.3.5-8.3.5-9,.3-.6-.2-2.4-3.4-4-7-3.8-8.5-5.9-9-7.7-1.8l-1.1,5-5.4.3c-10.1.6-11,.8-11.5,2.1-.3.8.5,2.1,1.6,3s3.8,2.9,5.9,4.5l3.8,2.9-1.6,6.4c-2.1,8.2-3.2,9.6-4.8,6.4-.6-1.3-2.1-2.4-3-2.6-1.6-.3-2.2.6-4.2,5.9-2.4,6.9-3.7,7.8-9.6,6.7-5.3-1-9.8,0-10.6,1.9-.5,1.4.6,2.6,5.6,5.6,8,5,9,6.2,6.2,9.4-1.1,1.4-4.3,7.2-7.2,13.1-5.9,12.3-10.1,20.2-14.7,27.7-1.8,2.9-6.4,11-10.2,17.9-3.8,6.9-8.2,14.6-9.8,17.1-1.4,2.4-4.2,7.4-6.1,10.9-1.8,3.5-6.7,12.2-10.9,19-4.2,7-7.7,13.1-8,13.6-.8,1.9-2.9,0-4-3.7-1.8-6.2-4-5.4-7.7,2.7-3.7,8-4,8.2-16.6,6.6-4-.5-7.4-.6-7.5-.2,0,.5,0,1,.6,1.1.5.2.8,1,.5,1.8-.3,1,.5,1.8,2.2,2.4,1.6.6,5.3,2.9,8.3,5.3,7.4,5.8,7.2,7-2.6,17.3-4,4.3-8,8.6-8.6,9.6s-5.1,6.1-9.8,11.5c-4.6,5.4-10.9,12.5-13.6,15.7s-9,10.1-13.9,15.5c-5,5.3-9.8,10.7-10.6,11.8-3.8,5-22.2,23.8-24,24.6-1.6.8-2.1.5-3.2-1.6-.8-1.4-1.6-4.3-2.1-6.4-.8-3.8-3.5-6.1-5.1-4.2-.5.6-1.6,3.7-2.6,7-1.9,6.6-2.2,6.7-11.4,6.1-6.9-.5-10.4.3-11.2,2.2-.5,1.4,0,2.2,1.9,3,1.4.6,4.8,2.4,7.4,4.2,5.8,3.7,5.9,5.8,1.1,12.6-6.1,8.5-5.1,10.1,3.4,5.6,3-1.6,5.8-2.4,5.9-1.9.3.6.3,2.9,0,5.3-.3,2.2-.6,8.3-1,13.3-.3,5-1.1,14.9-1.9,22.1-1.3,11.5-1.9,14.1-5.3,21.9l-3.8,8.8h-4.3q-8-.5-9.1,2.4c-1,2.6-.8,2.9,2.7,4.2,2.1.8,4.6,2.2,5.9,3.4l2.1,1.9-6.6,5.9c-3.7,3.4-7.8,6.9-9.4,8-2.6,1.9-2.9,1.9-3.5-.3-.5-1.3-1-3.4-1.1-4.6-.2-1.3-1.1-2.6-2.1-2.9-1.4-.3-2.4.8-5,6.7-1.8,3.8-3.5,7.2-3.8,7.4-.3,0-2.6.3-5.1.5-7.8.3-12.8.6-13,1.3,0,.3,2.1,1.9,4.8,3.5,2.9,1.8,6.4,4.5,8.2,6.1l3,2.9-2.6,5.9c-2.9,6.7-2.9,9.3,0,8.3,1-.3,1.9-1.1,2.2-1.8.2-.6,1.6-1.8,3-2.7l2.6-1.6,3.7,17.3c9.4,43.7,12.3,57.3,12.6,61,.2,2.2,1,6.2,1.8,9.1s2.6,10.7,3.8,17.4c1.3,6.9,4.2,20.5,6.4,30.6,2.2,9.9,4.2,20.2,4.3,22.6.2,2.4,1.1,7.5,2.1,11.2s2.6,9.8,3.4,13.6,2.1,8.8,2.7,11,1.8,7.7,2.6,12,2.1,9.4,2.9,11.2c1.8,3.8,2.4,7.7,1.8,9.8-.3.6-2.9,1.3-5.9,1.3-5.9,0-9.1,1.1-8.2,3,.3.6,2.9,2.7,5.9,4.3,9.8,5.8,9.4,5.3,8,9.3-1.6,4.6-1.9,8.5-.8,9.4.5.5,3.7-1.1,7.2-3.5s7-3.8,8-3.5,4.3,2.6,7.7,5c3.4,2.6,6.4,4,6.9,3.7,1-.8-.6-4.3-4.6-10.7-1.4-2.2-2.4-4.3-2.2-4.6,0-.5,3-2.2,6.6-4.2,8.6-4.8,8-6.4-3.4-7.4-9.6-.8-9.8-1-4.2-7.8,1.6-1.9,5.1-6.9,8-10.9s6.7-9.4,8.8-12,7.2-9.1,11.5-14.6c7.2-9.4,7.8-9.9,8.8-7.8,1,1.9,1.3,2.1,3.2,1,1.1-.6,3.4-2.6,5.1-4.3l3-3,7.2,3.4c4,1.8,7.8,3.8,8.6,4.6,1.1,1,1.6.8,2.2-1s0-3-3.2-6.1c-2.2-2.1-3.8-4.2-3.7-4.6.2-.5,4.3-.2,9.3.6s14.6,1.6,21.3,1.9c20.2.8,45.1,4.6,53.3,8.2,3.7,1.6,7.2,3.7,7.5,4.5.5,1-.2,3.8-1.4,6.7-1.9,4.5-1.9,5.3-.3,5.9,1,.3,3.8-.6,6.4-2.4,4-2.6,5.4-2.9,8.8-1.9,8.2,2.1,15.4,8.8,11.7,10.9-.8.5-2.4.5-3.5,0-1.9-.8-6.4.5-6.9,1.9-.2.5.3,1.1,1.1,1.3.8.3,2.9,1.9,4.6,3.5,3,2.9,3.2,3.2,1.8,7-1.9,5-1.9,9.9-.2,9.9s3-1.9,5.3-4.3l4-4.5,4,1.8c2.2,1,5.1,2.9,6.2,4.3,1.3,1.4,3.5,2.7,5.1,3,2.6.5,10.9,8.5,20.3,19.7.8,1,4.5,5,8.2,8.8,21,22.6,20.6,22.1,12.3,22.1s-5,.5-5.3,1.3,2.2,3.4,6.2,6.4c3.7,2.9,6.9,5.4,7,5.6,0,.3-1,3.2-2.2,6.7-3.4,8.2-1.4,9.3,4.8,2.9,3.4-3.4,4.6-4.2,5.8-3.4,2.4,1.9,17,9,17.9,8.8,1.3-.3,2.1-2.9,1-3.4-.5-.2-2.6-2.9-4.3-6.1-1.9-3-3.8-5.8-4.3-5.9-2.4-1,1.3-4.2,7.5-6.9,3.8-1.6,7.4-3.7,7.7-4.3.8-2.1-3.7-3.2-10.6-2.7-3.4.3-6.6.3-7,0-.5-.2-1.3-2.2-1.8-4.5-.5-2.2-1.4-4.6-2.1-5.3-1.8-1.6-4.6.8-6.2,5-.8,1.9-1.8,3.7-2.2,3.7-.8,0-20.3-20.3-36.2-38.1-4.5-5-9.3-10.2-10.9-11.5-1.6-1.4-3.7-3.7-4.8-5.3-1.1-1.4-2.6-2.9-3.4-3.2s-1.8-1.4-2.1-2.6c-.6-1.8,0-2.2,4.8-4.3,8-3.4,8.8-7.4,1.3-6.6-1.8.2-5.1,0-7.5-.5-4-.8-4.5-1.3-5.9-5.3-2.2-6.2-3.2-7-5.3-4.5-1.6,1.8-2.1,1.9-3.4.3-.8-1-1.4-2.1-1.3-2.4,0-.3-1.3-2.4-3.2-4.6-1.9-2.1-3.4-4.2-3.2-4.6,0-.3,3-2.2,6.4-4,5.9-3,7.4-5.1,4.3-6.1-.8-.3-2.2-.3-3.4-.2-1.1.2-4.2.3-6.9.2h-4.8c0-.2-2.4-6.1-2.4-6.1-3.2-8.2-5.4-8.2-7.4,0l-1.4,5.8-3.7.3c-6.6.5-21.4-.6-49-3.8-38.9-4.5-39-4.5-39.4-5.6,0-.5,1.8-1.6,4.3-2.7,6.6-2.6,7-6.6.5-5.9-1.6.2-5.1,0-8-.3l-5.1-.6-2.6-5.6c-3.4-7.2-5.3-7.4-8-.2l-1.9,5.3-6.9.8c-9,1-9.6,2.9-2.1,7.8,4.8,3.2,5.3,4,4.3,5.4-.6,1-4.2,6.2-7.7,11.8s-9,13.3-12,17.3-8.3,10.9-11.7,15.2c-5.8,7.7-11.4,14.1-12.8,14.7-.3.2-1.3-1.6-2.1-4-1.8-5-4.5-5.8-6.1-1.6l-1,2.7-1.6-4.5c-1.4-4-4.8-17.9-12-49.6-2.6-11.2-14.1-67.2-20.6-99.8-1.6-8.2-3.5-17.4-4.2-20.6-.6-3.2-2.6-12.8-4.2-21.1s-3.5-17.6-4.5-20.6c-2.7-9.3-.3-11.2,8-6.1,4.6,2.7,4.8,2.9,5.6.6.5-1.3.5-2.4,0-2.6l.5.8ZM851.3,570.6c-1.3,1-1.4.8-.8-.6.3-1,1.1-1.6,1.6-1.3q1.1.5-.6,1.9h-.2ZM979.2,543c.8-2.1-1.6-4.6-5.8-6.1-1.9-.6-3.2-1.8-3-2.2.2-.5,1.4-.6,2.6,0,4.2,1.6,9,1.1,10.4-1.1,1.3-1.8,1.6-1.8,2.7-.2,1.1,1.4,1.9,1.8,3.7,1.3,1.3-.3,3-.2,4,0,1.4.5,1.4.6-.6,1.8-2.1,1.1-2.2,1.6-2.1,5.1.2,5.9,0,6.2-4.6,3.7-2.7-1.4-4.6-1.9-5.9-1.6-1.6.5-1.8.3-1.3-.8v.2ZM861.7,559.1c.3,2.7,1.1,5.4,1.4,6.1,1.3,1.6-6.7-.5-8.3-2.2-1-1.1-1-2.1,0-3.4.8-1,2.1-2.9,2.9-4.3,1.9-3.4,3-2.2,3.8,3.8h.2ZM961.4,159c.2-1.3,1.1-2.9,1.9-3.4.8-.5,1.6-1.9,1.6-3s.5-2.1,1-1.9c.5.2,1.6,2.2,2.7,4.5,1.4,3.4,1.4,4.5.3,5.6s-2.2,1-3.2.6-2.4-.3-3.2,0-1.6.5-1.4.3c0-.3.3-1.6.5-2.9l-.2.2ZM940,197.5c.3-.8-.2-2.9-1.1-4.6l-1.6-3,3.4-1.3c1.8-.8,3.5-2.1,3.8-3,1-2.4,2.6,1,3.2,6.4.6,5.8.6,5.6-2.7,4.8-.6-.2-2.2.3-3.4,1-1.8,1.1-2.1,1.1-1.6,0v-.2ZM936.5,204.1c.2-.5.8-1.1,1.6-1.1s1,.2.8.6-.8,1.1-1.6,1.3c-.6,0-1-.2-.8-.8h0ZM853.6,335.8c-.2-2.4-.6-2.9-3.5-3.5l-3.4-.6h3.4c4.3.3,5.9-.6,7.8-4.5l1.6-3.2.8,4.3.8,4.3h4.3c2.4,0,4.8,0,5.4.6,1.4,1.1-3,3-5.3,2.2-1.9-.8-4.2.3-5.6,2.7-.6,1.1-2.1,1.4-3.7,1.1-1.9-.5-2.7-1.3-2.7-3.4v-.2ZM862.2,343.1c.8,0,1.8.3,2.4,1,.5.5,0,.5-1.4,0-1.3-.5-1.8-1-1-1ZM741.4,451.9c-5.3-3.2-5-4.3.8-3.2,3.7.8,4,.6,6.1-3l2.2-3.8,1.3,3.5c.8,1.9,1,3.8.5,4.2s-.8,1.8-.5,3c.3,2.1,0,2.2-2.1,1.4-1.3-.5-2.6-.5-3,0-.3.5-2.6-.5-5.3-2.1h0ZM739.5,549.5c-.8-1.6-1.9-2.6-3.5-2.7q-2.2-.3,0-1.9c1.6-1.1,2.6-2.7,2.9-4.8l.5-3.2,2.2,4.6c2.1,4.2,2.6,7.5,1,5.3-1.1-1.4-1.4.6-.5,2.6.5,1,.8,2.1.6,2.6-.5,1.4-2.2.3-3.4-2.4h.2ZM699.8,582.5c.3-1,0-2.7-1-3.7l-1.6-1.9,3-1.3c2.4-1,3.8-1,6.1.3,3.4,1.9,3.4,2.1-.6,5-1.6,1.1-3.4,2.6-4,3.2-1.6,1.4-2.9.5-2.1-1.6h.2ZM757.7,823.4c.3,3.7,3,5.4,7.7,4.5,4.3-.8,4.6.5.6,2.1-1.4.5-2.7,1.4-2.9,2.1-.2.6.5,2.2,1.6,3.8l1.9,2.7-4.3-2.2c-3.4-1.8-4.6-1.9-5.8-1-1.3,1-1.8.6-4.2-2.7-1.4-2.1-3.4-4-4.2-4.3-1.1-.5-1.1-.8.3-1.4,1-.5,2.4-.8,3-.5,1.4.5,1.9-.3,3-4,.8-2.9,2.7-2.1,2.9,1.3l.2-.3ZM1025.9,870.2c.6,1,2.1,1.8,3.7,2.1,2.6.3,2.6.5,1.3,2.2-4,5.1-4.3,5.9-2.4,7.2,3.4,2.4,1.3,3.2-2.6,1-10.9-6.4-15.2-11-8.2-9.3,2.4.6,3.5.3,4.3-1,2.1-3.8,2.7-4.2,3.8-2.4v.2ZM952.5,802.6c-2.6,0-4-.3-5.1-1.4q-1.4-1.6.8-2.2c1.3-.3,3.7,0,5.4.6,4,1.6,3.5,2.9-1,3h-.2ZM927.2,774.2c-.3-1.1-1.4-2.7-2.6-3.5l-1.9-1.4,3.2-1.3c2.9-1.1,3.5-1.1,5.3.6,2.2,2.2,1.9,4.3-1.3,6.4-1.9,1.1-2.2,1.1-2.7-.6v-.2ZM814.1,756.7c0-1-1.8-2.4-3.7-3.2-4.2-1.8-5.8-4.2-2.6-4,6.2.3,7.2,0,7.7-2.6.6-3.7,1.9-3.4,3.7,1,1,2.1,2.1,3.7,2.6,3.5,1.9-.3.3,1.4-3.5,4.2-3,2.1-4,2.4-4.2,1.1Z"/>
</svg>