<?xml version="1.0" encoding="UTF-8"?>
<svg id="Layer_1" xmlns="http://www.w3.org/2000/svg" version="1.1" viewBox="0 0 1920 1080">
  <!-- Generator: Adobe Illustrator 30.3.0, SVG Export Plug-In . SVG Version: 2.1.3 Build 182)  -->
  <defs>
    <style>
      .st0 {
        fill: #564a3c;
      }

      .st1 {
        fill: #dbb57f;
      }
    </style>
  </defs>
  <g>
    <path class="st1" d="M1163.6,779.3c2.7,1.5,7.6,1.8,8.4.5.3-.5-.4-.9-1.5-.9s-3.3-.8-4.8-1.7c-3.4-2.1-4.5-2.2-4.5-.4s1.1,1.8,2.4,2.6Z"/>
    <path class="st1" d="M1179,803.2c-15.3.2-18.4.5-17,2,.6.6,6,1.2,14.3,1.4,7.3.2,13.6.7,13.9,1.1.8.8,3.3.9,4,.1.3-.3,0-1.5-.8-2.6-1.4-2.1-1.5-2.1-14.4-2Z"/>
    <path class="st1" d="M1201.5,800c-3.6-.6-9.6-2.7-15.3-5.3-4-1.8-10-2.5-10.8-1.2-.9,1.4-.6,1.6,6.5,3.5,3.5,1,8.3,2.3,10.7,2.9,2.4.6,5.5,1.3,6.9,1.6,4.8.7,6.6.6,6.1-.2-.3-.4-2.1-1.1-4.2-1.4Z"/>
    <path class="st1" d="M1225.1,805.1c0,.7,3.4,1,11.2,1.2,10.8.1,13.7-.5,9.3-2.2-6.2-2.3-20.5-1.6-20.5,1.1Z"/>
    <path class="st1" d="M1219.1,792c-2.9-2-7.2-3.3-15.2-4.9-8.4-1.7-15.5-6-17.4-10.7-2.5-6.3-20.6-13.9-24.3-10.2-1.7,1.7-1.3,2,3.1,2.1,4.2.1,13,3.5,15.9,6.1,1,.9,1.4,2.1,1,3.4-.5,2.1,1.6,5.5,3.5,5.5s2.6,1.5,4.7,3.4c2.4,2.2,4.9,3.6,7,3.9,1.8.3,6.4,1.6,10.1,3,8.1,2.9,10.9,3.1,12.5,1.2,1-1.2.9-1.6-.9-2.8Z"/>
    <path class="st1" d="M1240.4,785.8c-2.9,0-7-.4-9.1-.9-2.1-.5-7.5-.9-12.1-1-7.7-.1-8.3,0-8.3,1.5s.9,1.7,9.5,2.3c5.2.3,11,1,12.9,1.4,1.9.5,6.5.9,10.1.9,5.5,0,6.7-.2,6.7-1.2,0-1.9-3.6-3-9.8-3Z"/>
    <path class="st1" d="M1271.5,799.4c-2-.3-5.6-.7-8-1-2.9-.4-5.2-.2-6.9.6-2.4,1.1-2.1,1.2,5.6,1.6,4.5.3,9.3.6,10.6.7,3.8.3,2.7-1.3-1.3-1.8Z"/>
    <path class="st1" d="M1263.3,787.3c-.2.7,1.4,1.1,5.1,1.4,9.1.6,11.5.3,11.5-1.1,0-2.9-15.6-3.2-16.6-.3Z"/>
    <path class="st1" d="M903.1,677.5c-1.2,0-1.9,2.2-2,6.9,0,1.4-.7,3-1.4,3.6-1.1.8-1.2,1.2-.2,2.3,1.3,1.6.6,3.2-1.4,3.2s-1.2.2-.1,1.5c.7.8,1.1,2.2.9,3.1-.3,1.2-.9,1.4-2.9,1-3.1-.7-3.5,1.2-.6,2.9,1.6,1,1.7,1.3.5,1.9-.8.5-1.2,1.5-.9,2.8.2,1.2,0,2.3-.5,2.7-.5.3-.9,1.1-.9,1.8,0,2,2.2,1.4,3.3-.9.5-1.2,1.3-2.2,1.8-2.2,1.7,0,5.4-16.5,5.6-25,0-4.3-.2-5.6-1.1-5.6Z"/>
    <path class="st1" d="M924.7,655.9c-1.1-.7-1.5.2-2.2,4.3l-.6,3.4,1.8-2.2c1.9-2.3,2.3-4.8,1-5.6Z"/>
    <path class="st1" d="M741.4,648.5c-.7,1.6-3.3,12.4-3.3,13.6s1.4.2,2.5-.6c.8-.5,1.3-3,1.5-8,.2-5.7.1-6.8-.6-5.1Z"/>
    <path class="st1" d="M951.8,371.6c2.5.6,3.4.3,3.7-1.3.2-1-.6-1.6-2.9-2-5.2-1-5.9,2.1-.9,3.3Z"/>
    <path class="st1" d="M797.1,770.2c-.9-.3-2.1-.7-2.6-.7-1.4,0-9.9,7.7-9.3,8.7.8,1.2,1.8.9,4.5-1.4,1.4-1.2,2.9-2.2,3.4-2.2s1.9-.8,3.2-1.9c2.2-1.7,2.3-1.9.8-2.5Z"/>
    <path class="st1" d="M770.2,468c-.2.7,2.8-.6,6.8-2.7,4-2.2,7.4-4.4,7.6-5,.2-.6-2.9.6-6.8,2.7-3.9,2.1-7.4,4.3-7.6,5Z"/>
    <path class="st1" d="M784.3,347.2c1.5-3,1.6-3.5.5-3.5s-1.1,1-1.4,2.2c-.3,1.2-.9,2.2-1.3,2.2s-.8.4-.8.9c0,1.8,1.7.8,3-1.7Z"/>
    <path class="st1" d="M787.7,322.5c1.1-.4,1.2-.8.4-1.7-1.8-2.2-6.1-.9-4.7,1.4.6,1,2.2,1.1,4.3.3Z"/>
    <path class="st1" d="M786.4,330.8c1-.6,1-1.1.3-1.8-1.3-1.3-3.7-.4-3.7,1.3s1.5,1.7,3.5.5Z"/>
    <path class="st1" d="M780.1,769.9c-2.3.4-3,.2-3.5-.9-.4-1.1-1.2-1.3-3.1-1-2,.4-2.8,0-3.8-1.3-1.2-1.7-1.4-1.7-3.8-.4-1.4.7-2.8,1.7-3.1,2.1-.3.4-1.5.6-2.7.3l-2.3-.4,2.5-2c1.3-1.1,2.2-2.2,1.8-2.6-.4-.4-1.1-.3-1.7.2-1.7,1.3-8.9,3-7.7,1.7,2.6-2.6-.5-4.3-4.3-2.3-1.2.6-2.3.6-4-.3-2.3-1.1-8.9-1-8.8.2.2,2.7,14.9,8.8,21,8.8s5.9-.7,8.5-1.6c4.8-1.6,4.8-1.6,4.3,0-.4,1.6-.2,1.7,3.1,1.1,2.4-.4,3.6-.3,3.6.3,0,1.2.8,1.2,4.2,0,3.6-1.3,3.5-2.7-.2-2Z"/>
    <path class="st1" d="M666.9,777.2c-1.1-.9-1.3-.8-1.3.2s.3,1.5.6,1.8c.8.8,2,.7,2-.2s-.6-1.2-1.3-1.8Z"/>
    <path class="st1" d="M743.9,638c-.5.5-.6,1.3-.2,1.9.4.7.9.7,1.5.1.5-.5.6-1.3.2-1.9-.4-.7-.9-.7-1.5-.2Z"/>
    <path class="st1" d="M786.5,426.3c1.5-1.2,3.2-2.2,3.8-2.2,1.5,0,3.4-2.3,2.4-2.9-1.1-.7-8.8,4.8-8.8,6.2,0,.7,1,.3,2.7-1.1Z"/>
    <path class="st1" d="M749.7,656.7c.3,3.2-.2,9.6-1.2,16.8-.9,6.4-1.7,12.1-1.7,12.7,0,1.6,1.5,1.3,2.5-.4,1.1-2.1,1.8-8.2,2.3-20.5.4-8.7.2-10.7-.9-12.1-1.3-1.6-1.3-1.3-.9,3.5Z"/>
    <path class="st1" d="M850.2,685.4c-.5.6-.6,2.2-.3,3.7.5,2.4,2.5,3.9,2.1,1.5-.1-.6,0-2.2.4-3.7,1.5-6.3,3-19.1,2.3-19.7-1.3-1.3-2.5,2.5-3.1,9.9-.3,4-.9,7.7-1.4,8.3Z"/>
    <path class="st1" d="M776.1,489.2c-.5.3-.9.9-.9,1.4s.4.6.9.3c.5-.3.9-.9.9-1.4s-.4-.6-.9-.3Z"/>
    <path class="st1" d="M1149.4,759.9c-2.1-.9-5.8-2.9-8.4-4.6-2.6-1.6-8.8-5-13.8-7.4-5.1-2.5-9.2-4.7-9.2-5.1s-2.3-3.2-5.1-6.4c-2.9-3.3-5.4-6.9-5.7-8.5-.6-2.7-2.8-7.1-5.3-10.7-.7-.9-1.2-3-1.2-4.5,0-5.3-3.3-10.6-6.6-10.6s-2.7-.8-3.4-12.5c-.3-5.2-1-10.4-1.4-11.6-.4-1.2-2.6-4-4.7-6.3-2.9-3.1-3.8-4.7-3.5-6.1.7-2.7-1.6-13.7-3-14.8-2.7-2-5.9-7.3-5.9-9.6,0-3.8-3.9-9.7-7.8-11.7-2.5-1.3-3.4-2.3-3.4-3.8s-1.2-4.5-2.6-7.5c-1.4-3-2.6-5.9-2.6-6.4s-.8-1.7-1.8-2.6c-2.2-2-4.2-5.8-4.2-7.9s-1.2-3.3-2.6-5.4c-2-2.9-2.6-4.9-2.6-7.9,0-5.3-1.3-8.1-5.7-12.5-4.7-4.6-6.3-8-6.7-13.5-.2-2.6-.9-4.9-1.6-5.4-.7-.5-1.7-1.8-2.2-2.8-.6-1-2.6-3.7-4.5-5.9-1.9-2.2-4.3-5.7-5.3-7.8l-1.8-3.8,3.4-3.9c3.4-3.9,5.4-9,5.4-14,0-3.6-5.3-8.7-12.6-12-4.9-2.2-6.8-3.7-8.6-6.5-2-3.1-2.2-3.7-1.1-4.6.7-.5,1.9-2.4,2.7-4.2,1.3-2.9,1.3-3.3.2-4.5-.7-.7-1.9-1.3-2.6-1.3s-1.2-.6-1.2-1.3-1.2-2-2.6-2.8c-1.5-.8-2.8-2.5-3.1-3.8-.3-1.3-1.1-2.5-1.8-2.8-.7-.3-1.2-1.4-1.2-2.6,0-2.4-2.9-4.8-5.7-4.8s-2.1-.9-3.5-6.3c-1.4-5.4-1.6-9.7-1.5-30.4,0-16,.4-26.1,1.2-29.8.6-3.1,1.2-11.4,1.4-18.6.3-14.4-1-24.3-4.3-32.8-1.1-2.9-2.5-6.7-3.1-8.6-3.4-10.4-15.3-21.8-33.3-32-6.5-3.7-12-7.3-12.2-8.1-1.9-5.9-2.3-6.3-10.6-10.5-4.6-2.3-10.2-5.6-12.6-7.4-5.5-4.2-12.8-7.5-17.2-7.7-22.1-1.2-22.5-1.3-27.3-4.9-4.5-3.4-4.6-3.4-8.9-2.6-2.4.5-5.6.7-7,.4-1.8-.3-4.1.4-7.5,2.2-2.7,1.4-6.6,2.8-8.6,3.1-5.7.9-8.4,2.1-14.2,6.7-2.9,2.3-6,4.1-7,4.1s-3,1-4.6,2.2c-1.6,1.2-3.3,2.2-3.8,2.2-1.4,0-9.6,3.3-22.3,9-2.7,1.2-5.5,2.2-6.1,2.2s-2.4,1.1-4.1,2.4c-1.7,1.3-5.2,3.9-8,5.7-3.6,2.4-5,3.8-5,5.2s-.7,4.1-1.7,6.7c-2.8,8.1-3.1,20.2-.9,31.3,1.8,8.9,1.8,10.2.9,22.4-.6,7.2-1.2,16.9-1.5,21.6-.5,9.1.9,23.1,2.9,29.8.6,2.1,1.2,7.4,1.2,11.6,0,4.3.6,9.6,1.2,11.8.7,2.2,1,4.8.8,5.8-.3,1,0,1.8.4,1.8,1.5,0,1.8,3.1.5,6-1.6,3.9-1.5,10.9.3,13.9,1.2,2,1.3,3,.5,5.5-.6,1.9-.8,7.7-.5,15.4.4,12.1.4,12.5-1.8,16.9-4.6,9.2-7.3,23-4.9,25.4,1.6,1.6,1,4.8-1.5,7.7-1.3,1.6-3.1,4-4,5.5-1.5,2.6-1.5,2.7.8,6.4l2.3,3.7-2.6,2.7c-2.9,3-4.3,5.3-10.1,16.5-11.5,22.2-11.8,23-15.1,35.8-2.5,9.8-3.3,29.2-1.6,39.6,1.9,11.7,1.3,46.2-1,53.6-.5,1.7-1.6,8.4-2.5,15-1.9,13.7-2.2,14.3-9.7,16.4l-4.9,1.4-8.5-3.1c-6.8-2.5-9.3-3.8-12.5-7-3.2-3.1-4.9-4.1-8.2-4.7-7.6-1.3-10.6-.9-14.6,1.6-6.5,4.2-9.8,12.8-8.3,22.1.8,5.1,0,13.2-1.8,17-.5,1.2-2.3,3.9-4,5.9-5.3,6.6-6.6,13.1-3.6,17.4.9,1.3,2.1,3.4,2.6,4.6.5,1.2,1.9,2.9,3.3,3.8,1.3.9,2.8,2,3.3,2.6.5.5,2.2,1.8,3.9,2.8,2.2,1.3,4.5,1.8,8.2,1.8s5.5-.3,7.6-2.3c1.3-1.3,2.4-3.2,2.4-4.4,0-3.1-2.6-6.9-5.4-7.9-1.3-.5-2.4-1.2-2.4-1.6s1.9-2.5,4.2-4.6c2.3-2.1,6-6.7,8.2-10.1,3-4.7,4.5-6.2,5.6-5.9.8.2,2.9.7,4.5,1,10.3,2,29.4,8.4,37.1,12.5,6.4,3.3,14.4,5.9,19.8,6.5,7,.7,15.3,2.1,17.7,3,1.2.5,4.8,1.3,8,1.8,3.2.5,9.9,2.3,14.8,4,12.8,4.3,15.8,4.1,24.7-1.7,9.1-6,13.6-8.3,16.1-8.3h2.6l-.5-8.4c-.3-4.8,0-11.7.6-16.2l1.1-7.8,4.1-1.4c4-1.3,11.8-6.5,11.8-7.8s.8-.9,1.8-1.2c2-.6,9.6-7.9,13.1-12.5,3.5-4.6,10.3-16.2,13.2-22.2,1.4-3,2.8-5.4,3.2-5.4.9,0,1.5,2.6,2,8.4.2,2.5.6,4.9.9,5.4.4.7.5,21.9,0,28.1-.3,3.6-2.1,9.8-4,13.4-7.4,13.9-9.1,21.8-6.2,28.2,2.6,5.8,6.4,8.6,12.9,9.4,2.3.3,4.5.7,4.8.9.3.2,1.5,0,2.5-.6,1.3-.7,1.7-.7,1.3,0-.3.5.8.3,2.5-.5,2.9-1.4,3.5-1.4,11.5,0,4.6.9,9.6,2.3,11.1,3.2,1.5.9,5.7,2.2,9.4,3,5.7,1.2,8.6,1.3,18.7.5,12.7-.9,14.9-1.7,17.6-5.9,1.2-1.8,1.3-2.8.6-5.6-.5-1.9-.7-3.5-.4-3.7.3-.2,2.5-.6,4.9-.9,4.2-.6,4.4-.7,4-2.9-.3-2-.8-2.4-3.3-2.4-1.6,0-3.2.3-3.4.7-.3.4-1.6.8-3,.8s-2.5.4-2.5,1.6-.8,1.8-1.9,2.2c-2.9.8-7.4.6-7.9-.2-.3-.4-2.2-1.2-4.3-1.8-8.4-2.3-20.6-12.2-26.8-21.6-5.1-7.8-5.3-8.6-3.5-17.7.3-1.4,1.1-5.9,1.8-9.9,1.2-6.6,2-9.1,6-19,1.1-2.8,1.9-5.3,6.5-20.7.9-3.1,2.4-10.4,3.4-16.3.9-5.9,1.9-11,2.2-11.4.3-.4.8-2.4,1.2-4.5.4-2,2.2-7.4,3.9-11.9,6-15.7,7.2-22.9,4.5-28.2-.7-1.3-1.9-4.4-2.7-6.8-1.5-4.7-4.3-7-10.5-9.1-1.9-.6-5.2-2.6-7.3-4.3-6.4-5.2-8-6.1-11.3-6.1s-5-.8-7.3-1.8c-2.9-1.3-5.1-1.7-7.5-1.4-2,.3-4.6,0-6.2-.7-1.7-.7-6.6-1.2-12.4-1.3-9.7-.2-16.5-1-19.6-2.5-1-.4-3.6-1-5.9-1.2-5.1-.5-7-2-4.5-3.4,3.1-1.7,13.5-14.1,15.6-18.7.8-1.7,2.4-4.4,3.5-5.9,1.1-1.5,2.1-3.1,2.1-3.4s1.2-2.4,2.6-4.6c1.4-2.1,2.8-5,3.1-6.4.8-3.5,3.9-10.4,5.2-11.4.6-.5,1.5-2.5,2-4.5.5-2,1.5-4.7,2.2-6,.7-1.3,1.3-2.9,1.3-3.5,0-.6.4-2,.9-3.1.9-2,1.1-1.9,7.8,4.6,4.7,4.6,9.1,7.8,13.7,10.2,7.4,3.8,10.7,4.3,19.1,2.6,2.6-.5,8.7-1,13.7-1.1,5-.1,9.7-.4,10.4-.6,1.5-.4,1.5.9.1,7.7-.8,4-.7,5,.6,7.2,1.9,3.2,8.6,6.7,12.9,6.7s3.7.5,6.6,4c3.9,4.6,5.6,8.8,5.6,13.7,0,2.5.9,4.8,3.1,8.2,2.6,3.9,3.2,5.7,3.6,10.8.4,4.8,1,6.7,2.8,9.1,3.8,4.9,4.9,7.8,5.5,14.7.4,4.8,1.3,7.7,3.2,11.2,7.3,13.4,7.4,13.6,5.7,18-3.7,9.7-3.5,15.6,1.3,31.5l2,6.8-2.4,9.2c-3.4,13-3.7,16.9-1.9,23.5,2.8,10.2,1.2,19.2-5,27.9-3.6,5.2-5.8,10.3-4.9,11.9.4.8.8,2.1.8,2.7s-4.1,5.3-9.1,10.4c-9,9.1-11,12.7-7.4,12.7s16.1-10.3,17.4-12.4c.3-.5.4-1.3.2-1.9-.2-.6,1-1.3,3.3-1.8,3.6-.8,3.7-.9,6.9-8.5,1.8-4.2,3.6-7.9,4-8.2,1.9-1.4,2.9-6.5,3.2-16.4.3-7.9.7-10.9,1.4-10.9,1.8,0,2.4,5.7,1.5,12.5-.5,3.5-1.2,7.2-1.6,8.2-.5,1.3-.2,2.3,1,3.6,1.6,1.7,1.6,2,.1,7.5-1.3,4.7-1.9,5.9-3.9,6.7-2.3.9-7.4,6.7-7,7.8.1.3-.4,1.1-1.1,1.6-1.1.9-1.5.8-2.4-.5-1.3-1.7-3.5-1-2.8.9.3.7-1.4,2.4-4.2,4.2-2.5,1.7-4.9,3.9-5.2,4.9-.8,2.6-.2,2.8,2,.8,2.4-2.2,2.7-2.2,2.5.4-.2,3,1.4,2.7,2.2-.3.4-1.5,2.2-3.7,4.5-5.4,2.1-1.6,3.9-3.2,3.9-3.5,0-1.3,8.6-9.4,9.9-9.4s3.2-3.4,4.8-10.2c.6-2.5,2-5.7,3.2-7.1,1.2-1.4,2.3-4,2.4-5.8.8-7.9,1.5-12.4,2.2-12.8.4-.3.7-1,.7-1.7,0-1-.3-1.1-1.7-.2-2,1.2-3.4,5.6-3.4,10.4,0,1.8-.3,3.2-.6,3.2-1,0-1.1-7-.2-10.8.7-2.7.6-5.2-.5-11.2-1.5-7.9-1.8-14.6-.8-18.4.4-1.6.2-2-.9-1.8-1.4.3-3.9,5.9-5.1,11.4-.6,2.9-2.3,2.6-3.4-.5-.6-1.7-.5-2.7.5-3.8.7-.8,2.2-3.8,3.3-6.5,1.7-4.4,1.8-5.3.8-7.2-.6-1.2-1.1-3.9-1-6,0-2.1-.2-4-.7-4.3-.5-.3-.8-2.1-.8-4s-.4-4.1-.8-4.9c-1.2-2.3-.1-6.2,1.7-6.2s2.8-3.2,2.1-17.6c-.4-7.2-.7-15.1-.7-17.6s-.4-4.5-1.1-4.5c-1.6,0-3,1.9-3.6,5-.8,3.9-2.6,3.4-3.7-1.1-1.3-5-1.3-4.8,1.1-4.8s3.4-.9,1.9-2.1c-.7-.5-1.8-2.9-2.5-5.4-1.2-4-1.2-4.6,0-5.8,1.1-1.1,1.1-1.6.3-2.6-1.3-1.6-.5-3.8,1.7-4.3,1.4-.4,1.5-.8.8-2-1-1.8-4.5-9.6-6.5-14.4-.8-1.8-1.4-4.9-1.4-6.8,0-3.7-1.5-6.2-7.5-12-2.3-2.2-4-4.9-4.7-7.3-.9-3.2-1.5-3.9-3.8-4.6-1.6-.4-2.9-.4-3.2.1-.7,1.1-5.9-2.5-5.9-4.1s-.6-1.6-1.3-2.2c-1-.8-1.1-1.4-.2-2.8.8-1.4.8-1.9,0-2.2-1.2-.4-1.5-6.3-.3-6.3s1.8,2.1,1.8,4.4,5.1,9.4,6.2,9.4.7-.6.7-1.3c0-1.9-2.8-7.4-3.7-7.4s-.6-1.1-.3-2.5c.4-1.8,0-3.2-1.2-4.7-2-2.5-1.6-2.9,3.1-3.2,3.8-.3,7.3,1.2,7.3,3s.6,1.4,1.3,1.7c1.7.6,1.6.1,0-2.5-1.3-2-1.3-2.4,0-5.1,1.2-2.4,1.9-3,4-3s2.5.4,2.5,1.4.8,2.4,1.7,3.6c1,1.2,1.7,2.9,1.7,3.7,0,1.8,2.7,6.9,3.7,6.9s.6-.4.6-1c0-1.6-2-8-2.8-9.1-.7-1-.1-6.3.8-6.3,2.6,0,8,7.4,8.2,11.2,0,2.2,2.9,6.5,4.9,7.4,1,.5,1.9,1.3,1.9,2s.7,1.1,1.7,1.1,1.9.4,2.2.9c.3.5,1.1.7,1.8.5.7-.3,1.2,0,1.2.7s.6,1.6,1.3,2.2c.7.6,1.3,2.5,1.3,4.3s.6,4,1.3,4.9c1.6,2.2,1.7,7.8,0,8.4-1,.4-1,1.2-.3,4.2,1,4,4.7,10.2,6,10.2s.7.5.5,1.1c-.2.6.7,2.8,2.1,4.9,1.3,2.1,2.4,4.1,2.4,4.5s1.5,3.4,3.4,6.7c1.9,3.4,3.5,6.7,3.5,7.5s.7,1.3,2.4,1.1c3.6-.4,5.6,3.3,7.1,13.5.6,3.8,1.5,7.3,2.1,7.8,1.6,1.3,8.3,11.7,7.5,11.7s-2.8-2.1-5.4-4.6c-4-3.8-5.1-5.6-6.4-9.9-1.2-4-2-5.3-3.2-5.3s-1.8.6-2.1,1.3c-.6,1.5,2.9,13.2,4.3,14.3.5.4,3.6,3.1,6.7,6,5.5,5,5.7,5.4,6.8,11.2.9,5.1,1.5,6.3,3.8,8.1,1.5,1.1,3.4,2.3,4.3,2.6,2.1.8,3.2,4.2,3.2,9.8s-.4,4.9-1.3,5.2c-2.1.8-1.6,4.2.8,5.3,4.8,2.2,8.2,9.7,8.3,18.1,0,2,.7,4.7,1.4,5.9.8,1.2,1.7,5.1,2.1,8.6l.6,6.5,5.7,5.9c5.6,5.8,8.3,10.3,8.3,13.7s2.8,5.2,9.1,7.5c3.3,1.2,7.1,2.9,8.4,3.9,1.3.9,2.9,1.7,3.5,1.7s2.6,1,4.4,2.2c1.7,1.2,3.8,2.2,4.7,2.2s2.7.7,4.1,1.6c1.5.9,3.6,1.9,4.8,2.3,1.2.4,4.4,2,7.2,3.6,4.6,2.7,5.2,2.8,6.4,1.7,1.7-1.7.4-3.4-4.2-5.7-1.8-.9-3.4-2.2-3.7-3-.6-1.7-.3-1.7,3,0,1.8,1,2.9,1.1,3.7.5.8-.6,1.6-.5,2.9.4,1,.7,2,.9,2.3.5.7-1.1-5.2-6-9.5-7.9ZM953.8,796.7c6.9-.4,8,.7,2.7,2.7-3.6,1.3-6.9,1.4-8.5.4-2.5-1.6-.4-2.8,5.8-3.1ZM1002,750.9c-.3,1.4-.7,3.6-.9,4.9-.2,1.3-.8,3.1-1.3,4.1-1.3,2.5-2.3,2.2-3.4-1-.5-1.5-.9-2.8-.9-3s1.6-1.9,3.6-4q3.6-3.8,3-1.2ZM1011,716.4c.4.3.8,1.1.8,1.7,0,1.4-1.4,1.7-2.2.4-.7-1.2.3-2.8,1.4-2.1ZM1011,654.6c.5,0,.9,1.9.9,4.3s-.4,4.3-.9,4.3-.9-1.9-.9-4.3.4-4.3.9-4.3ZM1001.6,600.9l.3-3.7,1.5,2.2c.8,1.2,1.6,3.4,1.9,4.9.5,3.3-.4,4.1-2.4,1.9-1-1.1-1.4-2.8-1.2-5.4ZM1000.1,611.7c.8,2.1,1.3,4.7,1.2,5.9-.2,1.5-.8.5-1.9-3.4-1.9-6.3-1.4-8.1.8-2.5ZM991.7,599.6c-.3-.3-.5-1.4-.5-2.4,0-1.6.1-1.6.9.3.8,2.1.7,3.1-.4,2.1ZM997,602.7c.8-1.9.8-1.9.9,1.1,0,3.3-.5,4.2-1.3,2.1-.2-.6,0-2.1.4-3.2ZM984.4,569c.6-1.8,10.2,9.5,10.2,12s.4,2.9.9,4.3c.5,1.4.8,4.1.6,5.8-.3,3.1-.3,3.2-1.8,1.5-.8-.9-1.5-2.3-1.5-3.1,0-3.4-2.1-9.1-3.5-9.5-1.4-.4-5.5-9.5-4.9-11.1ZM1001.5,488.5c2.2.6,2.2,1.5,0,4.7-1.7,2.4-3.4,3.1-4.6,1.9-1.9-1.9,1.9-7.3,4.6-6.6ZM1000.1,504.4c-.7,1.1-2.7,1-3.4,0-.7-1.1,1.7-2.1,3-1.3.5.3.7.9.4,1.4ZM996.4,483.1c1.8,1.1,2.1,2.3.5,2.3s-2.3,1.2-3.9,2.8c-2.2,2.1-2.9,2.4-2.9,1.3,0-1.8,1.7-4.9,3.4-6.3.9-.7,1.6-.7,2.8,0ZM992.1,477.4c.8.8.8,1.4.1,2.5-1.1,1.8-9.4,6.8-8.4,5.1.4-.6,2.2-2.9,4-4.9,2.5-3,3.5-3.5,4.3-2.7ZM982.5,361.9c.5,0,.9.4.9.9s-.4.9-.9.9-.9-.4-.9-.9.4-.9.9-.9ZM989.2,470c2.8.5,1.8,2.9-2.8,6.5-4.4,3.4-7.4,4.6-7.4,2.9s8.9-9.7,10.2-9.4ZM936.7,309.2c.9.5,1.7,1.3,1.7,1.8,0,1.1-1.2,1-2.4-.2-1.6-1.6-1.2-2.6.7-1.6ZM930.9,316.6c1.7-1.2,3.3-1.5,5.8-1.2,1.9.3,3.7.1,3.9-.3.3-.4,1.1-.8,1.9-.8,1.1,0,1.2.2.4,1-1.8,1.8-1.1,2.4,2.8,2.4s5.7,1.2,3.1,2.6c-1,.5-1.8,1.2-1.8,1.6s2.8,1.4,6.2,2.2c5.6,1.4,6.1,1.7,4.6,2.8-.9.6-3.2,1.2-5.1,1.2h-3.5s2,1.7,2,1.7c1.1.9,3.8,1.9,6.1,2.2,9.9,1.4,13.5,5.6,4.9,5.6s-5.7,1.2-1,2.2c1.5.3,3.7,1.4,4.7,2.3,1.1,1,2.8,2.2,3.8,2.7,3,1.5,1.9,2.7-2.4,2.4-5.5-.4-4.6,1.4,1.9,4,5.6,2.2,8.1,4.1,8.1,5.9s-3.1.8-6.9-1c-3.2-1.6-6.9-2.3-6.9-1.4s.9,1.1,1.9,1.4c1,.3,2.9,1.6,4.1,2.7,1.2,1.2,3.5,2.7,5,3.3,2.7,1.2,4.6,3,3.1,3s-3.6-1-7.2-2.1c-3.6-1.2-7.2-2.1-8-2.2-2.2,0-1.3,2.1,1,2.4,1.3.2,1.9.9,1.9,2.3,0,2.7-1.5,3.5-3.4,1.8-1.4-1.3-1.6-1.3-2.7,0-.6.8-1.1,2.7-.9,4.2.2,2.5,0,2.9-2.6,3.5-1.6.4-3.2.7-3.7.8-.5,0-.8.7-.6,1.5.2,1.1-1.7,1.6-10.1,2.9-8,1.2-10.4,1.8-10.4,2.8s.6,1.2,2.4.8c1.5-.3,3.3.1,5,1.1,1.9,1.2,3.8,1.5,6.9,1.3,5.8-.4,9.2.7,3.9,1.3-3.7.4-3.9.6-3.6,3,.4,3.8,2.4,6.5,4.9,6.5s2.1-.4,2.1-2.2,2-2.5,2.4,0c.3,1.5-2,9.7-3.3,11.8-1.2,1.9-3-.3-4.7-5.6-.8-2.6-1.8-5-2.3-5.2-.4-.3-.8-1.3-.8-2.4s-.8-2.2-3.2-2.9c-3.4-1.1-5.4-.3-5.4,1.9s-1,1.1-2.8,1c-3.5-.2-4,2.3-.5,2.7,2.2.3,2.3.5,2.2,4.7-.2,6.2,2,6.2,3.7,0,.7-2.5,1.5-4.5,1.8-4.5.5,0,6,10.6,6,11.7s.8,1.2,1.7,2.1c3,3,2.2,4.8-2.5,6.4-2.3.8-5.1,1.4-6.1,1.4-2.2,0-8.7,3.2-8.7,4.3s-6.8,4.4-7.3,3.6c-1.2-2-1-12.7.3-15.4,1.6-3.3,1.9-3.4,4.1-1,2.5,2.7,4.4,3.6,5,2.1.3-.7-1.2-3-3.5-5.4-2.2-2.3-4.5-5.2-5.3-6.5-2.1-3.6-6.4-3.2-14.8,1.2-3.8,2-7,4.1-7.3,4.7-.6,1.6-3.1,1.5-3.1,0s1.4-2.6,3.2-4.2c2.4-2.2,3.5-2.7,4.3-2,.8.7,1.6.5,3-.8,3.1-2.8,6.3-4.5,9.9-5.4,1.8-.4,5.6-1.6,8.4-2.6,2.8-1,6.4-1.8,8-1.8s2.9-.4,2.9-1.2c0-1.6-3.9-2.5-6-1.4-.9.5-2.5.9-3.5.9s-2.7.5-3.7,1.2c-2.7,1.7-5.8,2.5-5.8,1.5s2-1.6,4.4-2.5c2.4-.9,4.4-2,4.5-2.4,0-.4-1.9-1-4.4-1.2l-4.5-.4,3.1-2.4c2.9-2.3,5.9-3.4,16.7-6.2,5.8-1.5,6.5-2.2,2.4-2.2s-3.9-.7-2.1-2.4c1.7-1.7.2-2.1-4.6-1.1-2.5.5-5.8,1.1-7.2,1.3-2.4.4-2.4.3.4-.7,1.7-.6,4-1.5,5.2-2.1,6.9-3.1,10.9-4.5,13.1-4.5s3.4-1.4,1.2-2.3c-2.6-1-14,1.5-19.9,4.4-3.3,1.6-7.1,3.1-8.4,3.4-2.9.6-4.9,3.8-3.1,4.9.9.6.7,1.1-1,2.5-1.2,1-3.2,2-4.6,2.3-1.3.3-2.6.9-2.9,1.3-.9,1.5-1.9.7-1.5-1.1.4-1.7,1.6-2.4,5.7-3.8,1.2-.4,1.4-.8.6-1.7-1.2-1.4.5-6,3.3-9,1.5-1.6,1.7-2.3.9-3.8-.8-1.5-.6-2.2,1.5-4.4,2.7-2.8,6.7-5.2,7.5-4.5.6.6,11.6-3,12.3-4.2,1.8-2.8-5.9-2-12.4,1.3-3.6,1.9-4.3,1.8-4.8-.3-.4-1.4-.1-1.7,1.1-1.2.9.3,1.8,0,2.1-.4.3-.5,1.5-.9,2.6-.9s2.9-.8,4-1.7l2-1.7h-3.1c-1.8,0-3.6.5-4.2,1.2-1.2,1.4-3.5,1.8-3.5.5s1-1.6,2.2-2.5c2-1.6,1.6-3.6-.4-2.3-1.1.7-2-2.4-1.3-4.8.4-1.7.7-3.4,1.2-7.7,0-.3,1.5-1,3.2-1.6,1.9-.7,2.8-1.4,2.3-1.9-.5-.5-1.7-.5-3.2,0-3.5,1.3-4.8,1.1-4.8-.8s.6-1.7,2.1-1.7c2.1,0,4.4-1,8.5-3.8ZM961.2,446.2c.5,3.7.5,3.8-1.9,3.8-4,0-5.5-1.7-5.8-7.1-.3-4.2,0-5.1,1.5-6.6,1-1,2.4-1.8,3-1.8,1.6,0,4.9,6.6,3.6,7.4-.6.4-.8,2-.4,4.4ZM939.8,493.6c-.9.7-2.7,1-4.5.7-1.9-.3-3.7,0-5.1.9-3.7,2.5-4.3,2.1-5.1-3.9-.2-1.7-2.3-6.2-4.6-9.9-2.3-3.7-4.6-7.8-5.1-9-1.5-3.5-2.9-7-2.9-7.4,0-1.2,5.6,2.8,8.8,6.3,2,2.2,5.6,6,7.9,8.4,12.7,13.2,12.3,12.7,10.6,13.9ZM940.6,500.9c-.3.5-.7.9-.9.9s-.6-.4-.9-.9c-.3-.5,0-.9.9-.9s1.2.4.9.9ZM936.4,505.4c-.3,1.1-.5,2.4-.5,3,0,1.3-1.4,1.4-2.1.3-.6-1,1.3-5.2,2.3-5.2s.6.9.3,1.9ZM886.8,419.3l-1.9-1.9c-1.8-1.7-2.1-1.8-4-.6-1.6,1.1-2.3,1.1-3.3.3-.9-.8-1.1-1.4-.4-2.2,1.2-1.5-.7-2.7-2-1.4-1.6,1.6-2.1,1.1-1.6-1.8.3-2.2.1-2.6-1-2.2-1.9.7-7.5-1-7.5-2.2,0-.6-.8-2-1.6-3.2-1.4-1.8-1.8-2-3-.9-1.1.9-1.6,1-2.4.1-.8-.8-.7-1.3.6-2.3,1.7-1.2,1.4-3.9-.4-3.9s-.8-.8-.5-2.1c.3-1.2.2-3.1-.3-4.2-.6-1.6-.4-2.8.6-4.8,2.5-4.5,8.3-13,9-13,.4,0,.4,1.5.1,3.5-.5,3.1-.3,3.6,1.3,4,1.8.5,1.8.5-.4,3.4-2.2,2.8-2.3,6.4-.2,6.4s.6.8.3,1.7c-.7,2.2,2.2,2.4,4.1.2,2.5-2.8,3.4-6.3,2-7.9-.7-.8-1.1-2.2-.8-3.3.3-1.2.1-1.9-.5-1.9s-.8-.7-.4-1.8c.3-1.1,0-2.4-.7-3.2-1.4-1.6-2.2-10.8-1-13.4.4-1.1.3-1.9-.5-2.3-1-.6-.9-1.5.5-4.9.9-2.3,2.1-4.2,2.6-4.2,4.4-.2,10.2-1.9,14.2-4,4-2.1,5.5-2.5,9.3-2.2,7.2.6,14.1,7,14.1,13.2s-.5,2.8-3.7,4.1c-2,.8-4.1,1.5-4.6,1.5-1.7,0-2.1,2.8-1.9,14.2.1,7.9,0,11.3-.8,11.5-.6.2-1,0-1-.5s-1.1-1-2.4-1.2c-2.1-.2-2.3-.6-2.2-3.1.1-2.2-.2-2.8-1.4-2.8-2.2,0-4.3,2.3-4.3,4.7s-.9,2.4-2.8,3.5c-1.5.8-4.5,2.5-6.7,3.6-3.9,2.1-6.8,5.8-5.2,6.8.4.3,1.5.1,2.4-.3.9-.5,2.2-1.1,3.1-1.3.9-.3,2-1.7,2.5-3.1.7-1.9,1.2-2.4,1.9-1.7.5.5,1.7.9,2.7.9,1.3,0,1.5.2.7,1-1.1,1.1-1.4,5.9-.4,5.9s5.6,6.3,5.8,8.5c.1,1.3.5,2.9.8,3.7.3.8.5,2.9.3,4.6-.2,2.5-.5,3-1.3,2.1-.6-.6-1.1-1.6-1.1-2.2,0-1.7-1.4-1.3-2.8.8l-1.3,2ZM887.1,422.6c0,0-.8,1-1.8,2.1-1.8,1.9-1.9,1.9-2.3.3-.3-1.3,0-1.8,1.8-2.1,1.3-.3,2.3-.4,2.3-.3ZM871.9,434.4c1.7,0,2.6-.4,2.6-1.2s.4-1.5.8-1.7c1.2-.8.4,7.1-.9,8.7-1.7,2.1-5,3.2-9.9,3.4-2.4,0-4.9.4-5.6.7-2.1,1-14.7-11.5-14.7-14.6s7.4.6,9.8,2.3c2.9,2.1,5.1,1.6,4.8-1.1-.2-1.3-1.9-2.7-5.5-4.5-2.9-1.5-6.3-3.6-7.7-4.7-1.4-1.1-3.4-2.2-4.5-2.5-1.9-.5-7.2-7.6-7.2-9.6s8.7-2.2,9.4-1.4c.2.2-.5,1.2-1.5,2.3-1,1.1-1.9,2.3-1.9,2.6,0,1,5.1.6,8.1-.6,2.8-1.2,2.9-1.1,3.8.9.5,1.1,1.4,2.1,1.9,2.1s.7.3.5.7c-.8,1.3,2.5,9.2,3.9,9.5,2.5.5,4.4-2.4,3.8-5.6-.5-2.8-.5-2.9,2.5-2.9s3,.2,2.5,2.2c-.6,2.4.4,2.7,3.2,1.2,1-.5,2.9-.7,4.3-.4l2.6.6-2.7,4.9c-1.5,2.7-3.3,5.5-3.9,6.3-1.7,2-1.4,2.5,1.4,2.5ZM859.2,461.6c-2.3,5.2-5.3,11-6.5,12.8l-2.2,3.3.4-3.8c.5-4.3,10.4-25.1,12.3-25.6,1.8-.6.9,2.3-4,13.3ZM816.3,363.6c-.8-.9-1.8-4-2.2-7-.5-3.2-1.4-6.1-2.4-7.2-1.4-1.6-6.7-16-6-16.4.1,0,1.6-1.2,3.1-2.5,3.5-2.8,7.5-3.1,10.1-.5,2.9,2.7,8.3,3.2,11.1,1,1.8-1.4,2.8-1.6,5-1,1.5.4,3.8.8,5.1.8,2.8,0,2.9.8,1,4.5-1.3,2.5-1.3,2.9,0,5.6,2,4.2,1.7,5.9-1.6,9.6-3.5,3.9-4.8,6.9-4.8,11.2,0,2.1-.9,4.5-2.6,7-3.4,5-3.6,10.4-.4,13.6,1.2,1.2,2,2.5,1.7,3-.3.4,0,1.9.8,3.2,1.8,3.3,3.7,10.6,3.3,13-.2,1.4-.9,1.9-2.3,1.9s-2.6.6-3.3,1.3c-1.7,1.7-1.7,1.7-3.3-1.1-.8-1.3-1.3-3.7-1.2-5.4.3-3.6-3.3-11.7-5.7-13-1.3-.7-1.7-1.8-1.7-5.3s-.6-5.1-1.8-6.9c-1.3-1.9-1.6-3.2-1.2-5.2.4-1.9.2-3.1-.8-4.2ZM847.4,392c-1.2,1.7-2.5,3.9-3,4.8-.7,1.3-.8.9-.4-2.2.6-4.5,4-9.5,4.9-7.2.3.8-.4,2.7-1.5,4.5ZM849.1,400.9c2.3-2.2,2.7-1.5,1.1,2-1,2.3-3.3,3-3.3,1.1,0-.6,1-2,2.2-3.1ZM862.2,411.4c.3.3.1.9-.4,1.4-.6.6-1.1.6-1.5,0-.6-1,1-2.3,1.9-1.5ZM864.2,357.2c0-.7.4-1.3.9-1.3s.9.4.9.8-.4,1-.9,1.3c-.5.3-.9,0-.9-.8ZM874.5,344.6c0-.5.7-.8,1.6-.8s2.9-.2,4.5-.5c2.1-.3,2.4-.3,1.2.3-3,1.3-7.3,1.9-7.3,1ZM888.9,310.9c.9,0,2.1-.4,2.6-.9.5-.5,1.7-.8,2.5-.6,1.1.2-.6,1.4-5,3.5-7.2,3.5-7.6,3.6-7.6,2.4s5.5-4.4,7.5-4.4ZM880.6,309.6c-3.8,2.6-7.3,4.8-7.7,4.8s-1.2.6-1.8,1.3c-1.8,2.2-3.5,1.6-2.6-.9.5-1.2,1.2-4.6,1.7-7.4.5-2.9,1.5-6.2,2.2-7.3l1.3-2,3.4,1.8c1.9,1,4.5,1.9,5.8,2,4.7.4,8.8,1.5,8.4,2.3-.3.4-1.2.8-2.1.8s-4.8,2.1-8.6,4.7ZM893.5,327.8c.5.3.9.7.9.9s-.4.4-.9.4-.9-.4-.9-.9.4-.7.9-.4ZM908.3,318.8c1.6,2.3,1.7,2.5.2,2.4-3-.1-5.5-1.9-5.5-4s-2.1-2.7-4.6-.8c-1.6,1.2-4,.9-4-.4s1.1-1.2,2.4-1.9c1.7-.8,2.4-1.8,2.3-3.5,0-3.4,2.3-3,6.1.8,2,2.1,2.8,3.5,2.2,4-.6.5-.2,1.7.9,3.3ZM904.3,330.2c.7,1,1.3,2.1,1.3,2.5s-.8.7-1.7.7-1.7-.4-1.7-.9-1-1.3-2.2-1.7c-1.7-.6-2.2-1.4-2.1-3.7v-2.8s1.6,2,1.6,2c1.1,1.3,2.1,1.8,3.2,1.4.9-.3,1.3-.3,1,.1-.3.4,0,1.5.6,2.5ZM904.7,335.1c1.2,0,1.7.6,1.7,1.7,0,2-.9,2.2-2.4.7-1.5-1.5-1.3-2.4.7-2.4ZM896.1,333.4c1,0,2,.6,2.2,1.3.7,1.9,0,2.7-2.1,2.3-2.5-.4-2.7-3.6-.2-3.6ZM907.6,368.7c-.3,1-.8,1.8-1.2,1.8-1.2,0-.9-1.4.5-2.5,1-.8,1.2-.7.8.8ZM896.1,392.1c0,.5-1.5.9-3.2.9-2.4,0-2.9-.2-2-.9,1.7-1.1,5.2-1.1,5.2,0ZM888.5,426.7c1.5,0,2.4-.6,2.4-1.4s.4-1.3.9-1.3.9.7.9,1.6.8,1.8,3.2,2.1c3.7.6,5.5-.5,5.5-3.4s-.4-2.1-2.5-2.1-2.7-.3-3-.7c-.7-1.2,2-4.5,3.7-4.5s3.9,3.9,3.1,5.3c-.3.5-.1,1.3.3,1.9.4.6.6,2.8.3,4.8-.3,2.1-.9,3.9-1.4,4.1-.5.2-2.5-.6-4.4-1.8-2-1.1-5.3-2.6-7.3-3.4-3.2-1.2-3.4-1.3-1.4-1.4ZM899.6,410.1c0-.6,6.5-4.2,7.6-4.2s-.2.7-1,1.5c-1.6,1.7-1.1,5.4.7,5.4s5.3-1.6,5.9-3.1c.3-.8,0-2.4-.9-3.7-1.3-2.1-1.3-2.2.6-3.7,3.2-2.4,5.1-2.1,5.1.9s.4,2.8.8,3.1c.4.3.6,1,.4,1.6-.2.6-.5,3.6-.6,6.6-.2,5.1-1.4,7.4-2.7,5.3-.3-.5-2.4-1.5-4.6-2.4-4.3-1.6-11.4-6.2-11.4-7.4ZM907.6,420.9c.9-.9,4.4.3,6.3,2.1,1,.9,2.6,2.1,3.7,2.7,2.5,1.3,2.4,3.4-.3,4-1.2.3-3.3,1.9-4.7,3.5-1.4,1.6-3,2.9-3.4,2.9-2,0-3.4-13.4-1.6-15.2ZM925.6,439.1c-1.4.7-2.8,1.4-3.1,1.4-1,0-.4-2.2,1.1-4.1,1.5-2,1.5-2,3.1-.3,1.5,1.7,1.5,1.7-1.1,3.1ZM927.8,463.8c.8,0,1.2.7,1,1.9-.3,1.9-1.7,2.9-2.6,2-.9-.9.4-3.9,1.6-3.9ZM923.7,448.6c2.3.7,1.8,2.4-.9,3-1.2.3-2.3,1.3-2.5,2.6-.3,1.1-1,2.2-1.7,2.5-.9.3-1,0-.5-1.2.4-.9.9-2.5,1.1-3.5.6-2.6,2.4-3.9,4.6-3.3ZM917.8,460.7c-.5.3-1.1.1-1.5-.4-.8-1.3.3-2.2,1.4-1.1.6.6.6,1.1,0,1.5ZM940.1,481.1c0-.4.6-1.3,1.4-1.9,1.3-1.1,1.3-1,.4.8-1.1,2-1.8,2.5-1.8,1.2ZM941.9,458.6v-2.3c0-1.9.2-2.1,1.3-1.2,1.1.9,1.3.8,1.3-.2,0-1.7-2.8-4.1-5.7-4.9-2.2-.6-2.6-1.2-3.4-5.3-1-5.2-2.2-6.2-3.7-3.1-1,2.3-2.3,2.8-3.2,1.3-.7-1.1,3.2-4.3,7.3-6,1.7-.7,3.7-2,4.4-2.8,1.8-2.1,9.7-2.6,10.2-.6.3,1.2-.3,1.3-3.5,1-5.4-.6-5.7.8-1.5,5.4,4,4.3,5.2,7,5.2,11.1s-.4,3.1-4.3,5.1l-4.3,2.2ZM935.6,430c.6-.6,1.3-.9,1.5-.6.3.3-.2.7-1.1,1.1-1.2.5-1.3.4-.5-.5ZM943.7,464.5c.2-1.2,1.8-2.7,4.2-4,3.3-1.8,4.5-2.1,8-1.5,4.8.7,5.3,1.8,1.3,3-1.5.4-4.9,1.6-7.4,2.6-5.7,2.3-6.4,2.3-6.1,0ZM959.5,425.7c1.4,1.5,1.3,1.6-1.5,1.6s-4.2.3-5.7.6c-2.3.5-2.7.4-2.7-1.3s-.4-1.8-2.4-1.6c-1.8.2-2.4.7-2.3,2.2,0,2.4-.5,2.4-2.5.1-1.2-1.4-2.2-1.7-4.3-1.3-4.6.9-9.2,3.4-9.2,5,0,1-.7,1.5-2.1,1.5s-3.1,1.2-4.7,3c-1.4,1.7-3,3-3.5,3-1.5,0-1-2.1,1.3-4.5,1.2-1.3,2.2-2.7,2.2-3.2,0-1.6,5.6-5.1,11.7-7.4,5.8-2.2,6.6-2.3,17.3-1.8,13.4.6,15.1.9,15.1,2.6s-.3,1.1-2.7,0c-1.5-.8-3.3-1.1-4-.9-1.2.4-1.2.7.1,2.1ZM958.8,408.1c-1.6-1.4-1.9-2.1-1.3-3.7,1.2-3,2.4-2.3,3.5,2,.5,2.2,1.3,4.1,1.7,4.4.4.3.8,1.4.8,2.6,0,1.7-.4,2.1-2.4,2.1-1.3,0-3.1-.4-4.1-.7-1.6-.6-1.6-.7.4-1.8,3.3-1.7,3.6-2.9,1.4-4.7ZM963.9,388.6c-.4-.4-2.8-.8-5.2-.9-2.4,0-3.4-.3-2.2-.5,1.2-.2,2.5-.7,3-1.2,1.3-1.2,4.6-.9,5.1.4.3.7,1.5,1.4,2.8,1.5,1.3.2,2.5.8,2.7,1.4.2.6-.2,1-.8,1-2.2-.2-4.6-.9-5.4-1.7ZM966.9,441.4c1.1-2.1,3.9-2.4,4.7-.5.6,1.5-.2,3.9-1.2,3.9s-1.3.2-2.1.5c-1.8.7-2.6-1.6-1.4-3.9ZM971.7,417.1c-.7,0-1.3-.8-1.3-1.7,0-2.1,1.3-2.3,2.1-.4.3.8.5,1.5.5,1.7s-.6.4-1.3.4ZM868,280.8c1.7-1.7,2.6-.7,1.3,1.4-.6,1-.8,2.4-.4,3.3.6,1.6.7,1.6,1.8,0,.6-.9,2.4-3,4-4.7l2.8-3.1,1.3,1.9c1.6,2.4,3.6,2.4,6.6,0,2.6-2.1,5.8-1.7,4,.5-.9,1.1-.6,1.3,2,1.3s3.3.4,3.6.8c.3.5,2.2.8,4.2.7,2.9-.1,4.4.4,6.9,2.3,1.8,1.4,3.7,3.1,4.3,3.8.6.8,2.2,1.8,3.6,2.2,1.4.5,3.1,1.9,3.7,3.2.6,1.3,1.8,2.5,2.6,2.8.8.3,2.9,1.9,4.6,3.7,2.7,2.9,3,3.7,2.7,6.9-.4,3.9-1.9,5.1-1.9,1.5,0-5.4-7.7-13.9-13.1-14.5-2.6-.3-2.8,2.9-.2,3.6,3.7,1,7.6,5,7.9,8,.1,1.6.5,4.6.8,6.7.9,5.6-1,3.8-2.3-2.1-.9-4.1-1.6-5.2-5.4-8.2-4.5-3.6-6.6-4.3-6.6-2.1s3.8,5.6,6.6,7.1c1.3.7,2,2.1,2.3,5.5.6,5.2-.6,7.5-2,3.7-2.3-6.4-3.1-7.6-8-12-3.7-3.4-5.9-4.7-7.7-4.7s-3.2-.8-4.2-1.8c-1.3-1.3-2.1-1.6-2.8-.9-1.4,1.4-3.5,1.2-2.9-.3.3-.7-.1-1.7-.8-2.3-1.1-.9-1.4-.7-1.8.8-.7,2.5-2.4,2.4-3.6-.3-1-2.1-3.6-3.1-3.6-1.3s-.6.6-1.8,0c-1.5-.8-1.7-1.5-1.3-4.3.6-3.6-.4-5-2.1-3-.6.7-1.5,1.3-2,1.3s-1.6.6-2.5,1.4c-1.4,1.3-1.6,1.3-2.1,0-.8-2.1.3-7.5,1.8-9ZM867.3,327.7c1.5-.6,3.1-1.7,3.5-2.4.4-.7,2.2-1.9,4.1-2.6l3.4-1.4,2.9,2.8c2.1,2,3.1,2.5,3.8,1.9.5-.5,1.7-.7,2.6-.5,1.2.3,1.6,1.2,1.6,3.3s.3,2.8,1.3,2.4c1.5-.6,1.7.8.4,3.1-1.3,2.5-4.2,1.2-4.5-2-.3-3.7-2.9-4.2-3.7-.7-.9,4-4.7,4.3-4.8.3,0-.6-.8-1.1-1.7-1.1s-1.7.6-1.7,1.6-.8,1.8-3.7,2.3c-2,.3-4.3,1.1-5,1.7-1.7,1.5-7.8,2.6-7.8,1.5s.5-1.2,1.1-1.7c2.3-1.8,9.4-5.4,10.7-5.4s1.2-.5,1-1.1c-.2-.6-1.6-1-3.3-1h-2.9c0,.1,2.8-1.1,2.8-1.1ZM862.3,285.9c.3,0,.5,1.1.4,2.4,0,1.3.3,3.3.8,4.4.7,1.5.6,2.3-.4,3.3-1.2,1.2-1.4,1-1.8-1.8-.5-3.3,0-8.2,1.1-8.2ZM859.4,281.3c1.8-.7,1.7,0-.9,4.3-2.4,4-3,4.5-3,2.4s2.4-6.2,3.9-6.7ZM851.9,290.9c.9-.9,1.3,0,2.3,5.1.4,2.2.3,2.8-.7,2.8-1.6,0-2.9-6.6-1.6-7.9ZM854.1,335.7c.3.3,0,1-.5,1.7-1.2,1.5-2.5,1.5-2.5,0s2.1-2.5,2.9-1.6ZM852.9,348.9c.9,0,1.9-.4,2.2-.8.3-.4,2.7-1.3,5.4-1.8,2.7-.6,5.4-1.2,5.9-1.4,1.1-.4,1.2,4.3.1,5.4-.3.4-.6,1.3-.6,2.2s-.3,1.5-.6,1.5c-.4,0-1.7-.3-3-.5-1.3-.2-2.8-1.1-3.2-2-.7-1.3-1.5-1.5-4.3-1.1-2.3.3-3.5.1-3.5-.5s.8-1,1.7-1ZM857.7,361.6c-.6.6-1.4,1.2-1.7,1.2-.8,0-.5-2,.4-3.4.7-1.1,1-1.1,1.6,0,.5.8.4,1.6-.4,2.4ZM851.5,358.5c-1.1,3.1-1.1,3.8,0,5.5,2.1,3.1,5.1,6.1,7,6.8,1.3.5,1.4.8.5,1.4-.7.4-1,1.5-.7,2.8.3,1.1,0,2.6-.6,3.3-2.1,2.6-5.5,5.2-6,4.6-1.2-1.2-.5-3.7,1.6-5.8,4-4,1.6-6.1-3.9-3.4-2.6,1.3-3.3,2-2.9,3.4.5,2.2-2.5,5.1-4.4,4.4-1.2-.5-1.1-.9.4-3.9,1-1.9,2.1-3.7,2.6-4,.5-.3.7-.9.4-1.3-.3-.4.4-.8,1.5-.8,2.9,0,5.4-2,4.7-3.8-.7-1.9-3.7-1.8-5.8.3-.9.9-2.8,1.9-4.1,2.2-2.4.5-2.3.5.8-2.4,2.1-1.9,3.2-3.7,3.2-5.1s.9-3.3,1.9-4.7c3.8-4.9,5.4-4.7,3.6.6ZM844.3,338.6c0-.4.4-1.1.9-1.3.5-.3.9,0,.9.8s-.4,1.3-.9,1.3-.9-.4-.9-.8ZM847.9,301.2c0,1.9-1.8.8-3-1.8-1.6-3.3-1.8-5.4-.6-6.1.6-.4,3.7,6.1,3.7,7.9ZM819.6,297.6c.6-5.8,5.7-17.3,8.4-18.7,1.4-.8,1.5-.5,1,2-.3,1.6-1.3,4.2-2.2,6-1.2,2.4-1.6,4.6-1.4,9,.3,6,1.3,7.5,3.4,5.2,2.7-3,3.1-3.8,3.6-7.9.8-6.9,5.1-15.2,9.2-18.1,1.9-1.3,3.8-2.2,4.1-1.9.3.3-.4,2-1.6,3.8-1.2,1.8-3.5,6.6-5.1,10.6-2.7,6.7-3,8.1-2.9,16,0,6.2.5,9.6,1.5,12,1.8,4.2,1,5.3-1.5,1.9-1-1.4-2.7-3.4-3.8-4.4-1.2-1.2-1.7-2.4-1.4-3.3.3-.8.1-1.4-.4-1.4-1.2,0-1.6,3.2-.9,7.3.3,1.9.5,3.6.3,3.8-.7.7-5.7-8.3-6.7-11.9-.6-2.4-1.6-4-2.6-4.2-1.4-.4-1.5-1-1.1-5.7ZM762.9,432.4l4.1.6c3.9.6,4.2.5,7-2.6,2.9-3.2,3.5-5.1.8-2.9-1,.9-2.2.9-5.4,0-5.3-1.3-6-2-8.5-7.7-2.2-4.9-2.1-6.2.4-6.2s2-.5,2.6-1.2c.8-1,.5-1.5-1.5-2.7-2.5-1.5-2.6-1.8-3.1-9.4-.4-5.6-.2-10.1.8-15.6,2.1-12.1,2.5-19.4,1.5-25-.9-4.9-.9-5.2,1.1-6.9,3.3-2.9,4.4-5.6,2.9-7.1-1.4-1.4-3.2-.8-3.2,1.1s-.6,1.2-1.2,1.2c-2.8,0-2.7-13.6.2-26.6,1.6-7.1,10.1-15.5,20.5-20.4,2.8-1.3,6.2-2.9,7.5-3.6,2.3-1.2,2.4-1.1,2.4.9s.3,2.1.6,2.1c1.3,0,4.6-3.4,4.1-4.2-.3-.5.6-1.5,2.1-2.2,3.3-1.7,3.4-1.7,3.7.6.4,3,3,2.4,4.9-1.1.9-1.8,2.4-3.1,3.5-3.3,2-.3,2-.5.6,6.1-.5,2.3,1,3.5,1.6,1.3.2-.6.8-2.8,1.5-5l1.2-3.9.4,6.9c.3,5.4.7,6.9,1.7,6.9s2.1,2.2,3.5,6.1c1.2,3.4,2.9,7.2,3.7,8.5,2,3.1,1.4,3.6-1.4,1.4-2.8-2.2-5-2.2-5.6,0-.3.9-.6,1.7-.8,1.7s-4-1.2-8.4-2.7c-6.5-2.2-8.3-3.1-9.4-5.2-1-1.7-2.1-2.5-3.6-2.5-2.9,0-2.9,2.4,0,3.1,1.2.3,2.2,1.2,2.2,1.9s2,3.2,4.5,5.5c3.6,3.3,4.3,4.3,3.3,5-1.5,1-4.8-.6-7.7-3.7-3.1-3.3-5.1-2.9-5.7,1-.8,4.8-2.1,8.8-4.4,13.4-2.6,5.2-2.8,7.9-.3,4.8.9-1.2,1.7-2.5,1.7-2.8s.5-1.1,1.1-1.8c.6-.7,1.6-1.8,2.2-2.5,3.4-4.1,3.2,4.4-.5,16.8-1.2,4-2.4,8.5-2.6,9.9l-.5,2.6,3.1-2.6c1.7-1.4,3.1-3.4,3.1-4.3,0-1,.9-4.9,1.8-8.6,1.7-6.6,3.6-10,4.8-8.7,1.3,1.3.4,11-1.8,18.3-6.1,20.4-7.2,23.3-12.4,31.4-1.6,2.5-2.8,4.8-2.5,5,.9.9,3.3-.9,3.8-2.8.3-1.2,1.2-2.4,2-2.9.8-.4,2.6-3.6,3.9-7.1,1.3-3.5,3.8-8.6,5.6-11.5,1.7-2.9,4-7.2,5.2-9.7,1.2-2.5,2.4-4.2,2.8-3.8.9.9-1.3,12-3.7,18.3-2.6,6.8-2.8,7.8-1.9,7.8,1.3,0,2.5-1.9,3.7-5.8,2-6.7,5.1-6.9,5.1-.3,0,3-3,14.8-6.1,24.4-2.4,7.3-2.2,8.5,1,5.1,1.4-1.6,2.8-3.8,3.1-5,.3-1.2,1.8-4.6,3.2-7.5l2.7-5.3.3,6.7c.1,3.7-.1,7.4-.6,8.3-1,1.9-.4,2.7,1.8,2.7s1.6.3,1.6.6c0,3.2-6.9,19.4-10.4,24.4-.8,1.2-3.8,6.4-6.5,11.6-5.5,10.5-8.8,15.6-13.3,20.5-2.7,3-4.4,4.1-12,7.9-1.2.6-1.8,1.5-1.6,2.5.5,2.2-.5,2.5-3.3,1-1.3-.7-3.2-1.2-4.2-1.2-1.6,0-1.7-.4-1.2-4.5,1.6-12.7,1.4-12.2,5.9-13,3.7-.7,4.1-1,4.1-3.1s-.3-2.4-4.9-2.9c-2.7-.3-5.4-1.1-6.1-1.7-.7-.7-1.4-3.9-1.7-7.9l-.5-6.7ZM798.5,328.3c0,.4-.6.8-1.3.8-1.4,0-2.7-2.3-1.8-3.2.6-.6,3.1,1.3,3.1,2.4ZM729.9,621.6c1.3-5.3,2.1-1.8,1.6,7.3-.3,5.3-.6,9.8-.8,10-1.2,1.4-1.9-13.1-.8-17.3ZM723.1,740.3c.3-1.5.8-2.8,1.2-2.8s.9-3.4,1.1-7.5c.3-4.2,1.2-9.9,2-12.7,1-3.4,1.6-9.1,1.7-16.7.3-13.8,2.1-27.2,3.5-25.7,1.2,1.2,1.2,7.7,0,14-1,4.9-1.5,13.3-1.8,30.6-.3,21.3-.5,23.9-1.9,24.9-3.3,2.4-6.6.2-5.8-3.9ZM818.4,781.5c-1.2-3.7-4.7-7.6-5.5-6.2-.3.4,0,2.7.8,5,1.7,5.8,1.6,9.2-.4,11.1-1.6,1.5-1.7,1.4-2-2.2-.3-4.5-2.7-5.8-3.7-1.9-.3,1.3-1.4,4.1-2.3,6.1-1.3,2.8-2.2,3.7-3.8,3.7s-2-.2-1.2-3c.5-1.7.6-3.4.3-3.9-.7-1.1-3-1.1-3,0,0,1.6-5.4,7-6.2,6.2-.5-.5-.4-1.5.3-2.6,1.9-3.1-.1-3.9-4.2-1.7-3.8,2.1-5.5,1.6-3.8-1.1.9-1.4.8-1.8-.3-2.2-.8-.3-2.3-.1-3.5.4-2.9,1.3-3.3,1.2-1.7-.4,2.2-2.2.7-2.6-1.5-.5-2.6,2.4-6.2,2.6-5.5.2.7-2.9-1.3-3.7-5.4-2.2-4.5,1.6-5.9,1.7-4.5.3.6-.6,1-1.3,1-1.6,0-.6-6.1-.3-9.6.5-1.8.4-2.3.1-2.8-1.4-.4-1.4-.9-1.8-2.1-1.3-3.2,1.2-6.3,1.6-6.3.6s.4-1.2.9-1.5c1.5-.9.9-2.2-1.1-2.2s-2.4-.4-2.9-.9c-.7-.7-1.7-.5-3.6.4-3.5,1.8-3.6,1.8-3.6-1.3s-.2-2.7-2.6-2.3c-1.8.3-2.6,0-2.6-.8,0-1.3-2.2-1.5-3-.3-1,1.6-3.2,1-2.8-.8.3-.9,0-2.3-.6-3.1-1-1.3-1.2-1.3-3.2,0-2.6,1.7-4.3,1.2-5.5-1.4-.5-1.1-1.4-1.8-2.2-1.6-3,.8-4.8.4-5.5-1.3-.7-1.5-1.5-1.8-5.7-1.7-3.6,0-5.4-.4-6.6-1.4-2.2-2-4.2-1.9-4.8.3-.4,1.5-.9,1.7-3,1.3-2.1-.5-2.8-.2-4,1.6-.8,1.2-2.2,2.2-3.1,2.2s-1.7.6-1.7,1.3-.4,1.3-1,1.3-.8.9-.6,2.1c.3,1.4-.2,2.7-1.2,3.6-.9.8-1.6,2-1.6,2.7,0,2.1-2.7,3.5-5.7,3-3.2-.5-4.6,1-2.1,2.3,1.8,1,1.8.9-1.1,6.6-2,3.9-1.9,4.3,2.6,5.6,3.9,1.2,6.1,3.4,5.1,5.1-1.4,2.3-8.7-.6-10-4-.4-1.2-2-2.8-3.4-3.6-1.4-.8-2.8-2-3.1-2.7-.3-.7,1.1-3.4,3-6,12.1-16.8,14-20.6,7-13.8-2.7,2.7-3.9,3.3-4.4,2.4-.4-.7.2-2.3,1.9-4.4,2.3-2.9,2.5-3.6,1.7-5.8-1.2-3.3-.5-5.6,2-7,2.4-1.3,3.4-3.4,2.1-4.6-.6-.6-1.4-.6-2.7.2-1,.6-2,.9-2.2.7-.9-.9,1.9-5.1,4.6-6.6,1.8-1.1,2.9-2.4,2.9-3.5,0-2.2-2.3-2.3-4.5-.3-.9.8-1.9,1.1-2.2.7-.3-.4-.2-.9.4-1.1.6-.2,2.4-2.3,4.1-4.6,2.9-4,3.3-4.3,7-4.3,6.3,0,9.1,2.3,5.8,4.8-1.3.9-1.3,1.3-.3,2.5.9,1.1,2,1.3,4.1.9,2.5-.5,3-.3,3.7,1.8.7,1.9,1.3,2.2,3.2,1.9,1.3-.2,3-.7,3.8-1,1.4-.6,3.1,1.5,4.7,5.8.8,2.1,2.4,1.9,3.4-.4.5-1.1,1.7-2.1,2.8-2.2,2.2-.3,2.2-.2,1.2,2.7-.5,1.2-.5,2.6,0,3.3.6,1,1.3.9,4.2-.7,4.3-2.5,4.4-2.5,3.5.6-1.2,4.2,1.7,5,4.9,1.3,2.1-2.5,4.6-2.3,4.6.3s2.6,5.7,3.7,4.7c.5-.5,1.5-.6,2.2-.4,1,.4,1.2,0,.8-1.7-.8-3.1.1-5,2.3-5s2.4-.8,3-1.8c.9-1.4,1.4-1.6,2.3-.8.9.8,1.7.7,3.2-.4,1.8-1.2,3.4-1.2,11.9-.5,10.9,1,15.5,2.2,24.6,6.5,4.8,2.3,7.5,3,13.1,3.3,4.1.2,7.3,0,7.6-.4,1.9-3.1,13,2.3,18,8.8,3.9,5,5.6,9.3,5.7,13.9,0,4.2-1.1,4.1-2.5-.2ZM737.4,693.8c2.4-2.3,3.3,7,2.8,27.7-.3,10-.6,18.6-.8,19.2-.7,2.3-2.1.9-2.5-2.6-.7-5.1-.2-43.5.6-44.3ZM748.1,706.1c1.2.3,2.9,8,2.9,13,0,5.1-1.5,16-2.7,19-1.2,3.2-2.5,2.2-2.6-2.2-.7-21.6,0-30.4,2.4-29.8ZM755.4,745.9c1-.3,1.5,0,1.2.3-.3.4-1,.8-1.7.8-1.8,0-1.5-.6.5-1.1ZM756.2,723.2c1.2.8,3.4,8.1,4,13.6.6,4.9.6,5-1.6,5s-3-1.1-3.2-6.9c-.3-7.9,0-12.2.8-11.7ZM771.6,726.8c.8-2.5.9-2.2,1,3.1,0,3.2,0,5.8-.3,5.8-1,0-1.5-6.4-.7-8.9ZM941.5,794.4c3.5-3.3,4.7-.2,1.4,3.7-1.7,2-2.5,1.9-3-.2-.3-1,.3-2.4,1.6-3.5ZM938.8,791c.3.4-.6,2-1.9,3.4-2.7,2.9-8,4.5-8,2.5s.8-1.9,1.7-2.8c.9-.9,1.7-2.1,1.7-2.7,0-1.3,5.6-1.6,6.5-.3ZM930.6,786.3c1.4.9,1,2.9-1,4.5-1,.8-3.1,2.6-4.6,3.9-1.5,1.3-3.5,2.4-4.4,2.3-1.3,0-1.2-.3.8-2,2.1-1.7,2.7-2.9,3.1-5.7.1-1,5.3-3.5,6.1-3ZM938.4,621.1c0,.4-.9,1.1-2.1,1.6-2.6,1.2-3.8,5.6-1.9,7,.7.6,1.4,1.8,1.6,2.7.2.9,1,1.8,1.8,2,1.1.2,1.5-.3,1.5-1.9,0-2.6,1.6-3.9,2.7-2.2,1.1,1.7,1,9.2-.1,9.9-.5.3-2.1,3.2-3.6,6.5-2.6,5.9-2.7,6-5.6,5.6-3.5-.4-4.9,1.3-5.9,7.1-.7,4.1-1,3.9,4.6,2.3,1.1-.3,2.4-1.6,2.8-2.8.4-1.2,1-2,1.3-1.7.8.8-2.5,9.4-3.9,10-2.9,1.2-7,4-7,4.7s.8,1.7,1.7,2.9c2.3,2.9,2.2,3.8-.9,6.7-2.9,2.8-3.2,3.9-1.3,3.9s2.6,2.3,1.3,3.9c-.6.7-.7,1.3-.3,1.3.4,0,0,.4-.8.9-.8.5-2.3,2.4-3.3,4.3l-1.8,3.5,2.2-1.4c2.1-1.3,2.2-1.3,2.8,0,.4,1,0,2-1.2,2.9-1.9,1.5-4.8,7-4.1,7.7.2.2,1.2-.2,2.1-1.1,1.2-1.1,1.8-1.2,2.3-.4.4.7-.4,2-2.3,3.4-2.6,2.1-2.8,2.5-1.7,3.8,1.1,1.3.9,1.7-1.7,3.9-2.8,2.2-2.8,2.5-1.5,3.9,1.8,1.8,1.8,1.5-.2,3.9-.9,1.1-1.4,2.5-1.2,3.2.3.7-.4,2.2-1.4,3.3-1.3,1.5-1.7,2.6-1.3,4.2.4,1.6.1,2.4-.9,3-1.2.7-1.3,1.1-.3,2.6,1,1.5.9,2.3-.5,4.8-1.4,2.6-1.5,3.2-.4,4.5,1,1.3,1,1.6-.4,2.7-1.6,1.2-1.6,1.2,0,2.5,1.4,1.1,1.5,1.4.4,2.2-1.1.8-1.1,1,.2,2.1,1.9,1.5,2,4.9.2,4.9s-1.2.5-1,1.1c.2.6,1.4,1,2.7.8,1.8-.2,2.3.1,2.3,1.4s-.6,2.1-1.3,2.7c-1.9,1.6-1.6,2.6.8,2.6s2.9,1.1,4.3,3c1.5,2,3.5,3.3,5.7,3.9,1.9.5,3.4,1.4,3.4,2,0,.9-10.6,10.1-11.6,10.1s-.5-.8-.8-1.9c-.6-2.5.8-4.9,3.4-5.9,1.8-.7,3-2.6,1.7-2.6s-6.8,3.7-7.4,4.3c-.2.3-1.5,1.4-2.9,2.6-2,1.8-2.5,1.9-3.2.9-1.2-1.9-1.1-2.2,1.9-5.6q2.7-3.1.6-3.1c-1.2,0-3.5,1.3-5.3,3.1-3.1,2.9-6.2,3.7-6.2,1.5s-1.2-2.3-2.6-1.2c-.7.6-1.9.9-2.5.6-.7-.3-2.9,1.1-5.2,3.4-4.4,4.3-5,3.6-1.8-2.1,3.5-6.1,2.5-8.4-1.6-3.6-2.6,3.1-5.2,3.7-5.6,1.4-.4-2,1.4-8.2,3-10.1.6-.8,1.1-1.8,1.1-2.3,0-1,3.3-3.6,4.5-3.6s1,.9,1.5,2c.8,2,1,2.1,9.7,1.5,1.7-.1,2.8-2.6,1.7-3.8-.6-.6-1.3-.5-2.1.2-1.7,1.4-7.5-1.3-7.5-3.5s-.3-1.4-2.2-.6c-1.2.5-2.4.8-2.7.5-.3-.3.5-2.6,1.7-5.2,2.7-5.6,3.9-11.9,3.9-19.4s-.3-5.5-1.1-5.2c-.6.2-1.2,1.9-1.3,3.8-.4,7.2-2.3,15.9-3.9,17.8l-1.6,2,.5-2.6c1-4.9,2.1-15.6,2.1-20.9,0-3.9.4-5.4,1.4-5.8.8-.3,1.5,0,1.7.8,1.2,4,1.7,4.1,1.9.5.2-2.5-.1-4.2-1.1-5.2-.7-.8-1.3-2.5-1.3-3.6s-.4-2.5-.9-3c-.5-.5-1.1-4.5-1.3-9-.2-4.5-.6-10.8-.8-14-.4-5.9,1-16.7,3.3-26,1.7-6.7,6.8-13.9,13.2-18.3,6.2-4.3,6.8-5.3,5.6-8.4l-.9-2.4-4.9,4.8c-5.1,4.9-6.9,5.9-6.1,3.3,5.2-17.3,13.1-28.7,23.7-34.5,2-1.1,4.6-2,5.7-2,4.4,0,13.4,5.3,13.5,8ZM882.3,763.1c0-.7.4-1.5.9-1.8.5-.3.9,0,.9.8s-.4,1.5-.9,1.8c-.5.3-.9,0-.9-.8ZM891.5,634.9c1.3-2,2.9-2.6,2.9-1s-1,2.6-2.2,4.8c-1.2,2.1-2.4,3.8-2.6,3.8-.7,0,.8-5.7,1.9-7.6ZM854,602.5c3.4-1.7,6.5-2.9,7-2.6.5.3-.8,2-2.9,3.8-5.2,4.6-2.7,4.2,3.5-.6l5.2-3.9,11.2.2c6.1,0,11.7.5,12.2.8.7.4-.6,2.3-4.1,5.7-5.3,5.3-8,9.7-9,15.2-.9,4.6.4,4.7,2.5.2,1-2.1,2.3-4.1,3-4.5.6-.4,2.2-2.2,3.4-4.1,4.8-7.2,13-12,17.8-10.5,2.6.8,2.2,1.7-1.9,4.4-6.6,4.4-12,9.4-14.3,13.4-1.2,2.1-3.2,5.2-4.3,6.7-2.3,3.1-2.3,3.3.4,3.8,1.4.2,2.5-.6,4.1-3,1.2-1.8,2.2-3.7,2.2-4.2,0-2.7,19-17,23.6-17.7,3-.5,6.6.8,6.6,2.5s-2.7,3.2-4.8,3.3c-1,0-3.1,1-4.8,2.1-1.6,1.2-4.3,2.8-5.9,3.6-3.6,1.8-10.9,9-14.1,13.7-1.3,1.9-3.2,4.8-4.4,6.5-1.1,1.7-2.5,4.4-3,6-.5,1.6-2.1,6.3-3.5,10.4-1.4,4.1-2.9,9.4-3.2,11.7-.5,4-.5,4.2,1.5,4.2,1.1,0,2.5-.3,3-.7.7-.4.8.4.3,3.2-1.6,8.7-6.2,24.4-9,31.1-.8,1.9-2.4,5.9-3.5,8.9-2.8,7.6-9.3,17.7-15.4,23.9-5.2,5.3-12.1,10.8-13.6,10.8s3-3.7,7.5-8.3c4.6-4.6,8.5-9.3,8.8-10.6.3-1.3,2.8-6.9,5.5-12.6,5.9-12.1,7.8-18.6,6-20.7-1.4-1.7-3.5-.3-3.5,2.5s-11.8,25.9-15.6,30.5c-1.9,2.2-4.8,5.7-6.5,7.7-1.7,2-3.8,4.1-4.8,4.6-1.6.8-1.6.8-.8-.9.5-1,1.3-1.8,1.8-1.8s.8-.5.8-1.2,2.1-4.6,4.7-8.8c2.6-4.2,4.8-8,4.8-8.6s.7-2,1.6-3.1c.9-1.1,2.1-3.6,2.7-5.5.6-1.9,1.8-4.7,2.7-6.1,1.7-2.8,2.2-6.9.8-6-.5.3-2.2,3.3-3.8,6.7-1.6,3.4-3.7,6.7-4.6,7.2-.9.6-3.9,5-6.7,9.9-6.8,12.1-9.1,14.6-9.1,9.7s1.2-5.2,3.5-7.7c1.6-1.8,4.5-6.9,8.3-14.7,3.7-7.5,4.5-9.4,4.9-11.8.2-1.3.6-2.7.9-3.2.9-1.4-3.3,0-5.3,1.9-1.1,1-2.6,3.5-3.4,5.7-2.1,5.8-9,15.3-9.9,13.8-.4-.6-.7-1.7-.7-2.5,0-1.3,3.6-8.9,6.2-13,.7-1.2,3-6,5-10.8,2-4.7,4-9.3,4.4-10,3.1-5.9,5.7-32.4,3.9-40.1-1.2-5.2-.6-10.5,1.7-14,1.5-2.4,1.7-5.7.2-5.2-.6.2-2.2,2.3-3.7,4.8l-2.6,4.4.3,12.8c.3,12.1-1.2,28.7-3.1,35.3-1.1,3.6-3.8,9-4.5,9s-2.1,2.6-3.9,5.8c-5,9-7.2,11.1-7.2,6.5,0-1.3,1-3.9,2.1-5.8,9.7-16.1,13.2-24.1,11.6-26.1-.9-1-1.5,0-3.8,6.4-1.5,4.2-3.7,9.3-4.8,11.4-2.2,3.9-4.2,5.5-4.2,3.2s4.1-10.9,6.7-15.7c.9-1.8,1.5-5.3,1.6-11,.1-4.9,1-11.4,2-15.6,2-8.1,2.8-14.7,1.7-14-.4.3-2,2.8-3.4,5.7-2.1,4.2-2.9,5-3.8,4.2-1-.8-1.3,0-2.1,4-.5,2.8-1.3,6.3-1.7,7.8-.5,1.8-.4,3,0,3.3,1.1.7,1.2.6,2.7-5.3l1.3-5.2-.4,9.5c-.4,8.6-.8,10.4-4.2,19-2,5.2-4.1,10.6-4.5,12-.4,1.4-1.3,2.7-1.9,2.9-.9.3-1-.6-.5-4.7.4-2.8.6-6.3.6-7.8-.1-2.5.1-2.7,2.2-2.6,2.1.2,2.3,0,2.1-2.4-.1-1.4-.6-8.8-1.1-16.3-.6-10.9-1.1-14.1-2.3-15.4-1.9-2.1-2.6-1-3.3,5.4-.7,5.8-.7,5.4,0,11.2.5,4.6.5,4.7-1,3-.9-1-2.2-2-3-2.3-.8-.3-1.7-2-2-3.7-.5-2.8-3-5.4-4.1-4.2-.4.4.7,3.8,3.2,9.4.6,1.4,1.4,3.8,1.7,5.2.3,1.4.9,3.6,1.3,4.7,1.5,4.5,1.7,8.6.4,8.6s-1.2-.4-1.2-.8-1.1-1.9-2.4-3.2c-1.3-1.3-3.3-4.7-4.5-7.5-1.8-4.5-3.7-6.7-4.8-5.6-.2.2.5,1.8,1.6,3.4,1.1,1.7,2.3,4.4,2.6,6.1.3,1.7,1.5,4,2.6,5.1,2.6,2.6,6.6,9.6,6.6,11.4s.5,1.7,1.1,2.1c2.1,1.4,5.7,11.5,4,11.5s-4.2-3.2-4.2-4.3-1.5-2.4-3.2-4.2c-1.8-1.8-3.9-4.5-4.7-6-.8-1.5-2.1-2.7-2.8-2.7-1.9,0-1.7,1.4.8,4.7,1.2,1.6,2.2,3.3,2.2,3.8s1.3,2.5,2.9,4.2c1.6,1.8,3.6,4.6,4.4,6.3.8,1.7,2,3.6,2.6,4.3,1.4,1.6,3.8,8.4,3.2,9-.3.3-1.4-.4-2.5-1.4-3.3-3.1-3.3-1.1,0,2.9,4,4.9,7.4,17.7,5.1,19.2-.4.3-2.6-1.5-4.8-3.8-2.2-2.4-4.4-4.3-4.8-4.3-2.2,0-1.5,2.2,1.6,5.1,1.9,1.8,3.5,3.7,3.5,4.2s1.2,2.3,2.6,3.9c2.9,3.3,4.1,9.2,2.6,13-.9,2.4-2.6,2.3-2.6-.2s-5.3-6.1-7.9-6.4c-1.8-.2-2,.1-1.8,2.9.2,3,2.6,7.6,5.7,10.7.8.8,1.4,2.2,1.4,3.1,0,2.6-1.8,2-6.3-2.2-6-5.5-16.1-8.7-22.5-7.2-2,.5-4.5.8-5.6.8-1.1,0-1.9.3-1.9.8s-.4.8-.9.8-.9-.6-.9-1.3-1.2-2.3-2.6-3.5c-1.6-1.4-2.6-3-2.6-4.4,0-2.1,0-2.1,1.9-.8,5.9,4.3,7.2,4.8,11.9,4.7,7.3-.1,13.2-1.1,13.6-2.3.5-1.6-3.9-2.3-7.7-1.2-4.5,1.3-9.6.5-12.1-2.1-4.2-4.3-6.5-10.7-7.5-21.1-.5-5.4-1.3-10.3-1.8-10.8-.5-.5-.9-2.5-.9-4.5,0-4.1-.7-6.4-1.9-6.4s-.8,2.7-.7,6.3c0,3.4-.1,7.1-.4,8.1-.3,1-.2,2.1.4,2.4,1.2.7,1.2,3.1,0,3.1s-.9-.7-.9-1.5c0-2.4-1.4-.2-3,4.7-1.6,5-1.3,7.6,1.5,14.3,1,2.3,1.5,4.4,1.2,4.7-1,1-4-3.6-5.4-8.4-1.3-4.4-1.3-5.5.1-16.8,1.5-12,2.1-33,.9-34.9-.3-.5-1-.7-1.5-.4-.6.4-.7,3.3-.4,8.9.4,7,.2,9.6-1.5,16.8-1.1,4.6-2.3,8.7-2.6,9-.3.3-1.1,0-1.7-.9-.6-.8-1.7-1.5-2.5-1.5-2.2,0-2.6-3.6-1.8-18.4.9-16.2.9-26.2,0-27.1-1.4-1.4-2.4,1.6-2.7,8-.3,7.6-2.7,16.8-4.2,16.8-4.6,0-5.9-7.6-3.9-22.5.5-4.2.7-8.6.4-9.8-.6-2.3-3.1-3.1-3.1-.9s-2.8,8.3-3.5,7.6c-3-3.1,1.9-56.4,6.2-66.8,2.2-5.2,2.2-5.6,1.3-5.9-1.1-.4-5.6,8.4-5.6,10.9,0,2.8-2.3,8-3.5,8s-.7-2.9,1.7-9.9c1-2.8,1.8-6.3,1.8-7.8,0-2.6.9-5.4,5.2-16.4,1.1-2.9,3.6-6.8,5.7-9,2-2.2,3.7-4.4,3.7-5,0-1.6.7-1.4,3.8,1.1,12.7,10.5,20.7,14.3,23.7,11.2,1.1-1.1,1.1-1.5.2-2.6-.6-.7-1.9-1.3-2.8-1.3-2.6,0-12.4-5.8-14.9-8.8-3-3.6-2-4.1,1.7-.9,4,3.5,13.2,7.6,27.7,12.2,9.3,3,13.4,5.1,14.2,7.3.8,2.1,3.1,3.1,7.4,3.1,3.3,0,5.1,1.2,4.5,2.9-.4,1.1-1,1.2-3.4.4-4.4-1.4-7.1-1.3-7.4.3-.2,1.2,1,1.5,6.9,2.2,3.9.4,8.7.6,10.6.5,3.2-.2,3.3-.2,2,1.3-.8.8-1.4,1.9-1.4,2.4,0,.5-1.2,1.1-2.7,1.4-1.5.3-3.1,1-3.6,1.5-1.4,1.4,1.8,2.3,3.8,1.1.9-.6,2.6-1,3.7-1s3.1-.4,4.3-1c2.9-1.3,3.6-.4,1.9,2.2-2.6,4-5.1,11.8-4.1,12.8,1.1,1.1,5.3-3,5.3-5.1s6-9.7,9-11.2l2.7-1.4-2.3,2.5c-3.2,3.4-5.6,8.7-6.4,13.4-.6,3.8-.5,4,1.6,4.4,1.5.3,2.2,0,2.2-.8s.4-1.9.8-2.7c.4-.8,1.6-3.7,2.6-6.3,1.7-4.6,2.2-5,8-8ZM821.8,703.8c0,.5-.2.9-.4.9s-.6-.4-.9-.9c-.3-.5-.1-.9.4-.9s.9.4.9.9ZM818.3,586.5c1.1-.7,4.4-.4,4.4.4s-1.3.3-2.8.3c-1.9,0-2.4-.3-1.6-.8ZM833.3,595.7c.2-.6,1.7-1.2,3.3-1.3l3-.2-2.9,1.3c-3.5,1.5-3.8,1.5-3.4.2ZM855.7,576.7c-3.5,3.9-6.9,5.7-8.9,4.5-1-.6-.9-1,.5-2.1.9-.7,2-1.3,2.3-1.3.3,0,2.4-1.2,4.6-2.7,2.2-1.5,4.1-2.5,4.3-2.3.2.2-1.1,2-2.9,4ZM882.4,525.5c-1.9,4-10.8,14.5-12.6,14.8-.7,0-2.6,1.5-4.4,3.2-1.7,1.7-4.8,3.8-6.9,4.8-3.8,1.8-5,3.5-2.5,3.5s1.3-.3,1.3-.7,1.4-1.4,3.1-2.3c1.7-.9,4.1-2.7,5.4-4,1.3-1.3,3.4-2.5,4.7-2.7l2.3-.4-1.7,2.3c-3.1,4.3-9.6,8.7-23.7,15.9-7.5,3.9-9.9,5.8-10,8,0,1.9,2.5,1.2,7-2,2.4-1.7,4.8-3,5.4-3,1.8,0,8.8-4,13.4-7.6,4.1-3.2,7-4.5,7-3.1s-.6,1.7-1.4,3.1c-1.1,2.1-1.8,2.5-3.3,2.1-1.4-.4-2.6.2-4.4,2-1.3,1.4-4.5,3.6-7.1,4.9-2.5,1.3-4.6,2.9-4.6,3.6,0,1.1.2,1.1,1.5,0,2-1.7,8.7-4.6,9.3-4,1.4,1.4-17.6,13.6-21.1,13.6s-5.2,1.5-4.7,3.4c.6,2.4-2.9,3.1-8.2,1.7-3.6-.9-5-.9-9.4.3-6.1,1.7-5.8,1.7-7,.3-1.3-1.6-.4-2.3,2.8-2.3,1.5,0,4.4-.8,6.4-1.7,2.1-.9,4.5-1.7,5.4-1.7s1.6-.4,1.6-1-2.2-.8-7.5-.4c-9.5.7-10.6,1.1-10.6,3.1s-1.8,2.1-7.2-.4c-2.5-1.2-6-2.5-7.9-3-4-1.1-6.3-3.8-4.7-5.8.6-.7,1.7-1.2,2.6-1.2s1.6-.6,1.6-1.3c0-1.7-.7-1.6-5.6.5-4.2,1.9-6.2,1.7-7-.4-.5-1.3,4.9-7.4,6.5-7.4s.9-.4.9-.9c0-1.2-.2-1.2-5.8,1.4-4,1.8-5.8,2.1-9.2,1.8-4.5-.5-6.1-1.3-4-2.1,1.2-.4,13.2-12.3,15.1-15,.5-.7,2.2-2.9,3.9-5.1,4-5,4.6-6,3.5-6s-1.4,1.1-2.1,2.4c-1.5,2.9-13,14.9-14.3,14.9s-.9-.5-.9-1.1-.9.1-1.9,1.6c-1.7,2.4-9.7,6.3-10.8,5.2-1.1-1.1,10.9-10.9,13.3-10.9s4.7-4.2,4.1-5.1c-.4-.6-1.3,0-2.5,1.3-1,1.2-3.9,3.4-6.3,4.9-2.5,1.5-6.2,4.1-8.4,5.6-6.3,4.5-7.6,2-2.8-5.4,1.6-2.4,3.1-5.4,3.4-6.6.3-1.2,2.5-4.3,4.9-6.8,2.4-2.5,4.9-5.6,5.6-6.9.7-1.2,3.6-4.8,6.4-7.9,5-5.4,6.5-8.6,4-8.6s-1.8.9-2.6,1.9c-2,2.8-15.7,17.1-16.5,17.1s-3.1-2.3-3.1-3.4.4-.9.8-.9c1,0,15.6-14.6,15.6-15.6,0-1.7-2.2-.6-3.6,1.7-1.8,3.2-10.5,10.1-10.9,8.8-.2-.5.8-2.7,2.1-4.7,5.1-7.8,9.4-13.8,11.5-16,1.2-1.3,3-3.8,3.9-5.7.9-1.9,2.6-4.9,3.7-6.7,3.3-5.5,1.6-5.5-2,0-1.9,2.8-3.8,5.7-4.3,6.3-1.7,2.3-8.5,8.7-9.2,8.7-2,0-.4-3.8,2.9-6.9,4.3-4,4.1-5.5-.2-1.8-1.6,1.4-3.2,2.6-3.5,2.6-.9,0-.3-17.2.6-18,.4-.4,2.3-.9,4.2-1.1,2.7-.2,3.7-.8,4.8-2.9.9-1.7,2.9-3.2,5.7-4.3,5-2.1,11.5-7.8,15.5-13.8,1.6-2.4,5.5-9.4,8.7-15.5,3.2-6.2,6.1-11.6,6.5-12.1,1.3-1.7,7.7-15,7.7-16.1,0-2.3,1.8-7.6,2.6-7.6,1.9,0,1.7,4.3-.4,10.4-1.2,3.5-3,9-3.9,12-.9,3.1-3.4,9-5.6,13.1-4.7,9-5,11.1-1.5,8.6,1.4-1,3-3.5,4-6.3.9-2.5,1.8-4.1,2-3.6.4,1.2-6.6,20-9.9,26.6-1.2,2.4-2.8,5.1-3.7,6.1-.8,1-2.4,3.3-3.4,5.2l-2,3.5,3.6-3.9c6.4-7,9.2-10.7,10.6-14.2,6.3-15.9,7.9-19.4,8.5-18.5.4.6.3,1.8-.1,2.6-.4.8-.8,2.6-.8,3.9s-.5,3.7-1,5.2c-.6,1.6-.8,3.1-.4,3.5,1.2,1.2,2.6-1.5,3.3-6.6.4-2.9,1.5-6.9,2.4-8.9.9-2,1.9-5.1,2.3-6.9.8-4,1.9-4.9,2.6-2,.7,2.7,0,7.8-2.8,19-3,12.3-3.6,13.9-7.8,20.5-2.1,3.2-3.8,6.1-3.8,6.3s-1.5,3.6-3.5,7.4c-1.9,3.9-3.4,7.1-3.4,7.3s.6,0,1.3-.2c1.8-.7,6.1-7.5,11.6-18.7,2.5-5.1,4.9-9.5,5.2-9.7.4-.2.9-1.8,1.2-3.6,1.7-8.9,6.2-19,7.8-17.4.3.3-1.2,8.3-2.6,14-.5,2.1-.4,2.4.9,2.2,1.7-.3,3.3-5.6,4.2-14.1,1.3-11.9,4.3-15.8,3.5-4.6-.5,8.2-1.6,11.6-6.6,22.3-2.4,5-5.1,11-6,13.3-.9,2.3-2.2,5-2.9,6-.7,1-1.3,2.5-1.3,3.2,0,1.8-2.3,7-5.1,11.4-1.1,1.8-1.9,3.5-1.6,3.7.8.8,5.8-5.7,6.3-8.1.3-1.3.9-3,1.3-3.7.4-.7,1.8-3.2,3.1-5.6,1.2-2.4,3.1-5.5,4.2-6.9,1.1-1.4,3-4.5,4.3-6.9,1.3-2.4,3.4-6.1,4.7-8.2,2.3-3.8,2.3-3.9,2.6-1.4.2,1.3-.6,4.9-1.7,8-1.4,3.9-1.7,5.8-1,6.5,1.9,1.9,3.4-1.7,5.4-12.3,1.1-5.9,2.3-11,2.8-11.5.4-.4.7-1.9.7-3.2,0-2.9,1.1-3.7,3.4-2.5,1.3.7,1.6,1.5,1.3,3.3-.5,2.2-3,9.5-4.7,13.6-.4,1-1.4,3.9-2.2,6.5-.8,2.6-2.4,6.3-3.5,8.3-2.6,4.5-2.5,5,.1,4.3,1.2-.3,2.1-.4,2.1-.2s-1.7,4-3.8,8.4c-2.1,4.5-5.8,13.2-8.2,19.5-2.5,6.2-5.3,12.2-6.2,13.2-2.4,2.5-1.7,2.9,2.2,1.1,2.6-1.2,3.7-2.5,5.8-6.9,1.4-3,2.6-5.9,2.6-6.5s2.6-6.3,5.7-12.7c3.1-6.4,6.1-12.5,6.6-13.6.5-1.1,1.6-2.2,2.5-2.4.8-.3,1.8-1.7,2.1-3.2.3-1.5,1.7-4.3,3-6.2,1.3-1.9,3.1-5.6,3.9-8.2.8-2.6,2-5.4,2.7-6.1.6-.8,1.2-1.8,1.2-2.4,0-1.6,4.2-7.9,5.7-8.5.7-.3,1.7-1.5,2.1-2.7.4-1.2,1.1-1.9,1.3-1.6.7.7-2.8,8.9-5.9,13.4-1.4,2.1-2.5,4.1-2.5,4.5s-.4.8-.8.8-1.2,1.2-1.7,2.8c-.5,1.5-1.6,3.4-2.4,4.3-1.3,1.4-1.3,1.6,0,2.1,1.8.7,7-4.8,10-10.6,1.2-2.3,2.6-4.4,3.2-4.8.6-.4,1.1-1.2,1.1-1.9s.5-1.5,1.2-1.9c.6-.4,2-2.2,3-4.1,1.4-2.7,1.8-3.1,1.8-1.6,0,1-.3,2.1-.8,2.4-.4.3-2.6,4.1-4.8,8.5-2.2,4.4-4.7,9-5.4,10.2-.8,1.2-2.3,3.5-3.3,5-1,1.5-2.7,3.4-3.6,4.1-1.4,1-6.2,8.9-6.2,10.3s.8.4,1.7.4,1.9-.8,2.2-2.1c.6-2.4,2.7-4.5,3.6-3.6.3.3-.3,1.7-1.3,3.1-1,1.4-1.9,3-1.9,3.7,0,1.3,6.8-6.2,6.8-7.6,0-2.8,9.1-18.3,10.1-17.3.2.2-.8,3-2.2,6.1-1.5,3.1-2.6,5.9-2.6,6.3s-.5,1.2-1.2,2c-.6.8-3.1,5.1-5.3,9.6-2.3,4.5-6.6,12.3-9.6,17.4-5.3,8.9-6.6,12.8-4.3,12.8s6.1-5,9.9-11.5c2-3.5,3.7-5.5,4.1-4.9.3.5.1,1.5-.5,2.2-1.5,1.9-.2,2.6,1.6.9,4.2-3.8,3.8.1-.5,6-1.1,1.5-2,3-2,3.3s-1.4,2.4-3,4.6c-1.7,2.2-3,4.4-3,5s-.8,1.7-1.7,2.6c-2.2,2-2.2,3,0,3s2.3-1.1,3.2-2.6c.8-1.4,1.8-2.6,2.1-2.6s1.6-1.6,3-3.5c1.3-1.9,2.8-3.5,3.3-3.5.5,0,2.5-2.2,4.4-4.8,1.9-2.6,3.6-4.4,3.7-3.9.5,1.6-5.9,13.7-9.5,17.9-7.4,8.5-18.5,19.1-23.3,22.3-2.7,1.8-5,3.6-5,4s.9.9,2,1.1c1.5.3,3.5-.7,7.1-3.4,2.8-2.1,6.2-4.4,7.6-5.3,3.5-2.1,15.4-14.4,21.4-22.2,3.6-4.6,4.4-3.4,1.6,2.6ZM821.5,430.7c-.3.3-.5-.2-.4-1.1,0-1,.2-1.2.5-.5.2.6.2,1.4,0,1.6ZM880.6,480.3c0-1.4,2-5.3,2.7-5.3s.3,1.2-.2,2.6c-.9,2.6-2.5,4.3-2.5,2.7ZM881,492.2c-.3.5-.7.9-.9.9s-.4-.4-.4-.9.4-.9.9-.9.7.4.4.9ZM875.2,491.8c-.5,1.2-1.3,2.2-1.6,2.2s-.2-1,.4-2.2c.5-1.2,1.3-2.2,1.6-2.2s.2,1-.4,2.2ZM892.7,437c-.9,0-2.2.6-3,1.3-1.8,1.8-2.8,1.6-4.8-.6-3.8-4-1.4-8.5,3-5.8,1.4.9,3.5,2.1,4.5,2.6,2.4,1.2,2.5,2.5.3,2.5ZM898.4,437.2c1.8.2,4.4.9,5.8,1.4l2.4,1-2.6,3.2c-1.4,1.8-2.7,4-2.9,4.8-.3,1.5-.4,1.5-1.8,0-.9-1-1.3-2.4-1-3.6.4-1.3-.1-2.9-1.4-4.6l-1.9-2.6,3.3.4ZM896.1,498.6l.5-3c1-5.7,3.4-9.7,9.3-15.6,4.2-4.2,6.2-5.6,6.7-4.9,1,1.6.9,2.4-.4,2.4s-2,1.4-3.2,3.1c-1.2,1.7-3.4,4.5-5,6.3-1.6,1.8-3.1,4.2-3.4,5.5-.3,1.3-1.4,3.2-2.5,4.3l-2.1,1.9ZM900.1,503c.3-1.4,1.5-3.9,2.6-5.6,1.1-1.7,2-3.4,2-3.8,0-1,5.8-8.2,8.2-10.2,2.4-2.1,3.4-1.9,4.6.7,1.1,2.4.5,4.1-.7,2.1-1.2-1.9-3.3-.4-6.4,4.4-1.6,2.5-3.8,5-4.7,5.6-1,.6-2.8,2.9-4,5.2-1.7,3.3-2.1,3.6-1.6,1.5ZM906.5,514.1c-.9,2-1.9,5.1-2.2,6.9-.3,1.8-.9,3.2-1.2,3.2-.8,0-2.6-3.9-2.6-5.5s4.4-12,7.4-16.7c1.6-2.5,3-4.8,3-5,0-1.3,7.7-7.3,9.3-7.3,1.7,0,.8,1.3-5.8,8.6-7.4,8.2-8.8,10.5-7,11.6.5.3.1,2.1-.8,4.2ZM914.2,506.4c0,.7-.4,1.5-.9,1.8-.5.3-.9-.3-.9-1.3s.4-1.8.9-1.8.9.6.9,1.2ZM910.2,513.8c.3-1.2.5-2.4.5-2.8,0-.4.4-.6.9-.6s.7.8.3,1.9c-.9,2.9-2.5,4.2-1.8,1.5ZM951.4,517.3c-.5,0-.9,1.1-.9,2.4,0,3.4-2.4,11-3.8,12.2-.9.7-1.4.7-2.1-.1-.6-.8-.4-2.1.8-4.5,1.6-3.2,1.8-5,1.7-11.8,0-1.3-.5-2.6-1-2.9-1.7-1.1-3.1,1.7-4.1,8-1.4,8.6-2.2,10.4-5.5,11.8-3.9,1.6-4.4,1-2.3-3,1.8-3.5,2-7.7.4-8.2-1.2-.4-4.7,5.2-5.3,8.4-.3,1.4-1.3,3.1-2.3,3.8-2.4,1.7-9,1.6-11.9-.2-2.7-1.7-3.6-5.7-2.5-11.3.8-4,2-6,4.4-6.7.9-.3,1.8-1.4,2.1-2.4.7-2.3,7.1-9.8,7.9-9.1.3.3-.8,2.6-2.5,5.1-3.2,4.8-5.4,11.8-4.6,14.1,1,2.5,2.8,1.3,3.6-2.3.7-2.9,1.3-3.8,3.4-4.5,1.4-.5,3.1-1.5,3.7-2.3.6-.8,2.4-1.7,4-2.1,1.6-.3,3.5-1.2,4.1-1.9,1.4-1.7,7.3-5.5,8.5-5.5s5.2,9,5.2,11.3-.4,1.6-.9,1.6ZM954,532.8c-1.5,0-1.7-1.5-.5-3.1,1.2-1.6,1.2-1.5,1.3.7,0,1.3-.3,2.4-.8,2.4ZM951.9,498.3c-1-1,.3-3.6,4.2-8.1,2.3-2.7,2.8-3.7,2.1-5-1.1-2-2.6-1.2-6.8,3.1-1.6,1.7-3.3,3.1-3.7,3.1-1.6,0-.5-2.8,2.3-5.5,3-3,4.9-7.4,3.2-7.4s-2.5,1.7-4.3,3.7c-1.9,2-3.7,3.4-4.1,3-1-1,1.5-7.6,3.3-8.7.8-.5,1.5-1.3,1.5-1.6,0-1.1-2-.7-3.6.8-.9.8-1.9,1.2-2.2.8-.6-.7,6.2-7.6,8.9-9,3.2-1.7,8.9-2.1,13.3-1,4.4,1.1,5.3,2,3,2.8-.7.3-1.3.9-1.3,1.4,0,1.2,4.9,1.2,5.6,0,.3-.5,1.3-.9,2.2-.9s1.7.4,1.7.9-.7.9-1.5.9c-1.6,0-3.6,1.5-3.6,2.8s.6.7,1.3.7c1.8,0,1.6,1.2-.8,4.1-3.3,4-3.3,7.5,0,8.6,2.1.7,2.3,1.2,2.4,5.5,0,4.6.2,4.7,2.7,4.9,3.5.3,9.1,2.1,9.1,2.8s-.9.9-1.9,1.1c-1.4.4-1.7.8-1,1.5.7.7,1.9.7,4.2,0,2.3-.6,3.6-.6,4.4,0,1.8,1.5,1.4,2.4-1.7,3.1-3.1.8-4.4,3.6-1.8,3.7,1.2,0,1.2.2.3.5-.7.2-2.1.8-3,1.2-.9.4-4.4,1.9-7.7,3.4-7.2,3.2-7.4,3.2-4.9.5,1.1-1.2,1.7-2.5,1.4-3-1-1.6-5.1,0-8.2,3.3-4.4,4.7-6,5.8-6,4.4s2.1-3.2,4.7-5.6c5.4-5.1,6.1-7.1,2.2-6.5-2.9.4-3.2-.3-1.3-2.8,1.8-2.4,1.6-3.1-.9-3.1s-2.2.3-2.2.8c0,.9-2.6,2.1-3.3,1.4-.2-.2.8-1.8,2.3-3.5,1.5-1.7,2.7-3.5,2.7-3.9,0-1.2-2.9-1-4.1.2-.8.8-1,.7-1-.4s.4-1.7.9-2c.9-.5,1.2-3.9.4-3.9s-2.3,1.7-4.5,3.8c-2.6,2.4-4.4,3.6-4.9,3.1ZM1000.6,524.2c-1.7,1.1-2.8,1.1-2.2,0,.3-.5,1.2-.9,2-.9,1.3,0,1.3.1.2.9ZM1014.9,529.7c-.4-1.7,0-2.8,1.2-4.2,2.5-2.7,2.2-5.8-.9-8.7-2.4-2.3-3.2-2.5-8-2.4-6,0-11,1.2-14.8,3.2-1.4.8-3.1,1.4-3.7,1.4-1.5,0-10.6,5.1-13.2,7.4-1.2,1.1-3.4,2.6-4.9,3.3-1.5.8-3.4,2.7-4.2,4.2-.8,1.5-2.2,3.7-3,4.8-1.6,2-2.2,8-1.1,10.8.3.8,2.1,1.6,4.3,1.9,2.4.4,3.8,1,3.8,1.8,0,1.9-6.8,1.5-10.2-.6-2.7-1.6-2.9-2-2.4-5,.8-4.8,3.6-10.6,6.5-13.5,1.4-1.4,2.6-3,2.6-3.4,0-.5,1.2-1.8,2.7-3,1.5-1.2,3.9-3.1,5.4-4.3,8.9-7.3,16.3-11.1,22.3-11.7,2-.2,5.5-.6,7.7-.9,5.8-.8,9.5.1,13.2,3.4,2.9,2.5,3.3,3.3,3.2,6.2-.2,3.8-1.5,7.8-3.5,10.1-1.8,2.1-2.5,1.9-3.1-.8ZM1033.5,583.2c-1.3-2-1.7-3.4-1.2-3.9.6-.6,1.3-.1,2.3,1.3.8,1.2,1.3,3,1.2,3.9-.3,1.5-.6,1.3-2.3-1.3ZM1079.2,684.1c0-1.7,1.4-1.1,3,1.2.8,1.2,1.3,2.6,1.2,3.1-.4,1.1-4.1-2.8-4.1-4.3ZM1092.9,705.1c.4-.3,1-.1,1.3.3.3.5.1,1-.3,1.3-.4.3-1,.1-1.3-.3-.3-.4-.1-1.1.3-1.3ZM1137.3,761.3c-.9.3-1.8.7-2.1.8-.3.1-1.6-.9-3-2.3s-4.4-3-7.6-3.9c-2.8-.7-5.5-1.6-6-1.9-.5-.4-2.7-1.2-4.8-1.9-2.1-.7-4.1-1.9-4.5-2.6-.4-.7-2-4-3.5-7.2-1.7-3.5-4-6.9-5.7-8.2-9.1-7.2-9-7-9.4-14.7-.2-4.3,0-7.1.4-7.1,1,0,3.7,2.8,3.7,3.9,0,1.9,4,10.6,6.2,13.5,1.3,1.8,2.4,3.5,2.4,3.8,0,.6,3.8,5.1,9.6,11.3,1.4,1.5,4.4,3.6,6.6,4.6,2.2,1,5,2.4,6.2,3.1,1.2.7,4.1,2.2,6.5,3.3,2.4,1.1,4.8,2.6,5.5,3.4,1,1.2,1,1.5-.4,2Z"/>
    <path class="st1" d="M761.2,683.9c-1,0-1.4,2.2-1.8,10.1-.3,5.6-.8,11.1-1.1,12.2-.4,1.5-.2,2,.7,1.6.7-.2,1.2-1.5,1.1-2.9,0-1.4.2-4.1.6-6,.4-1.9.9-6.1,1.2-9.3.5-4.7.3-5.8-.6-5.8Z"/>
    <path class="st1" d="M762.1,671c-.9,0,0,2.7,1.7,4.5,1.5,1.7,2.8,2,2.8.5s-3.4-5-4.4-5Z"/>
    <path class="st1" d="M760.5,667.8c0-1.3-2.6-4-3.1-3.4-.3.3.1,1.4,1,2.3,1.7,1.9,2.2,2.1,2.1,1.1Z"/>
    <path class="st1" d="M875.6,658c1.3-5.4,4.4-15,5.1-15.9,1-1.1.9-3.9-.2-3.9s-.9.4-.9,1-1,3-2.1,5.5c-2.1,4.4-4.8,13.3-4.8,15.7s2.2.4,2.8-2.5Z"/>
    <path class="st1" d="M857.6,694.3c2,0,4-13.1,2.2-14.3-1.6-1-2.3.7-2.8,7.6-.4,5.4-.3,6.7.7,6.7Z"/>
    <path class="st1" d="M857.7,658.2c.6-2.8-.2-7-1.3-7s-2,5.6-1.3,7.7c.8,2.5,2,2.2,2.6-.7Z"/>
    <path class="st1" d="M875.9,610.9c.8-1.7,2-3.3,2.6-3.6.6-.2,1.2-1.1,1.2-1.8s-.5-.9-2.2.7c-2,1.9-4.7,6-4.7,7.2s1.9,0,3.1-2.6Z"/>
    <path class="st1" d="M811.1,611.2c-.6-.6-1.7-2.3-2.5-3.7-1.6-3.1-3.7-5-4.4-4-.2.4.3,2.4,1.2,4.5.9,2.1,1.7,4.3,1.7,5.1s.9,3.7,2,6.6c1.1,2.9,2.3,5.9,2.6,6.8.6,1.6,2.3,2.1,2.3.6s.6-.9,1.4-.9,1.2-.5.8-2.2c-1.1-4.2-4.1-11.6-5.2-12.7Z"/>
    <path class="st1" d="M911.9,429.1c1.4-.2,2-.9,2-2.4s-.5-2.2-2-2.4c-2.1-.3-3.3,1.5-2.5,3.8.3.8,1.3,1.3,2.5,1.1Z"/>
    <path class="st1" d="M947.7,448c-.2-2-.8-3.8-1.4-4-.8-.3-.9.5-.4,3,.3,1.8.8,3.6,1,4,.9,1.5,1.2.4.9-3Z"/>
    <path class="st1" d="M879.5,352.4c.4,0,2.5.2,4.8.4,3.1.2,5.2,1.1,8.2,3.3,4.9,3.6,6.2,3.8,6.2,1s-2-3.7-8-4.9c-9.3-1.7-11.8-1.9-11.8-.9s.3,1,.6,1Z"/>
    <path class="st1" d="M925.4,360.6c-1.8.9-4.6,2.5-6.3,3.4-1.7.9-3.1,2-3.1,2.4,0,.9,3.8.9,4.8,0,1.4-1.3,19.5-8.7,21.2-8.7,2.5,0,2.8-1.6.5-2.2-2.6-.6-10.7,1-12.4,2.5-.7.6-2.7,1.8-4.5,2.8Z"/>
    <path class="st1" d="M921.2,359.6c1-1.2.9-1.3-.5-1.1-.9.2-1.8.8-2,1.4-.5,1.5,1.1,1.3,2.5-.3Z"/>
    <path class="st1" d="M922.9,357.7c0,1,1,.9,5.3-.6,5.3-1.8,11.9-5.1,11.9-5.8,0-1.2-5.1-.6-9.6,1-4.4,1.7-7.7,4-7.7,5.4Z"/>
    <path class="st1" d="M876.6,359.5c.6.3,1.4,1.8,1.8,3.6.8,4.1,3.3,5.6,10.6,6.5,3.2.4,6.1.7,6.4.8.8.2,1.6-2.2,1.6-4.6s-4.4-7.4-6.4-7.4-1.2.4-.5,2.2c.5,1.2.8,2.4.8,2.6s-2.1.3-4.7.2c-4-.2-4.7-.5-4.7-1.9,0-2.2-2.4-4.8-4.5-4.8s-2.2,2.2-.4,2.9Z"/>
    <path class="st1" d="M864.5,438.7c-.7,0-1.2.6-1.2,1.3s.8,1.3,2.3,1.3,2.1-.2,1.2-1.3c-.6-.7-1.6-1.3-2.3-1.3Z"/>
    <path class="st1" d="M804.6,422.2c0-2-2,0-7.5,7.2-6.5,8.7-8.9,12.3-8.9,13.4,0,1.6,16.4-18.9,16.4-20.6Z"/>
    <path class="st1" d="M815.8,313.6c0-2.1-1.8-5.2-3-5.2s-1.7,2-.4,4.4c.9,1.7,3.4,2.3,3.4.9Z"/>
    <path class="st1" d="M787.5,366.8c1.3-.4,2-2.4.9-2.4s-1.1.6-1.4,1.4c-.3.8-.1,1.2.5,1Z"/>
    <path class="st1" d="M689.9,751.3c-.9,0-3.3-1.5-5.2-3.3-3.4-3.1-3.8-3.3-6.4-2.4-1.5.5-3.3,1.3-3.9,1.7-1.5.9-1.3,4.4.2,7.5,1.7,3.4,3.2,3.2,5.3-.5,1.2-2.2,4.3-2.7,6.2-1.1,3,2.6,10.7,4.2,11.8,2.4.6-1-5.6-4.4-8-4.4Z"/>
    <path class="st1" d="M1023.7,687c.1-3.4-.1-6.4-.6-6.9-1.1-1.1-1.2,4.1-.3,9.4.6,3.2.7,3,.9-2.5Z"/>
    <path class="st1" d="M1018.4,562.9l-3-2.3,1.3,2.6c.7,1.4,1.8,2.8,2.4,3.1.6.2,1.4,1.8,1.7,3.5.3,1.7,1,4,1.5,5.1.5,1.1,1.3,1.9,1.7,1.6,2.3-1.4-1.4-10.1-5.6-13.5Z"/>
    <path class="st1" d="M1022.5,594.8c-.7-4.4-5.2-13.9-6.4-13.2-.8.5,2,6,3.5,6.9.4.3,1,2.3,1.3,4.5.3,2.2.8,4.4,1,4.7.9,1.5,1.1.4.6-3Z"/>
    <path class="st1" d="M984,546.1c-2.1-1.3-1.6.9,1.3,5.6,1.7,2.8,3.2,5.5,3.2,6.1s.2.9.5.9c1.4,0-3.2-11.5-5-12.6Z"/>
    <path class="st1" d="M1009.2,550.9c0,.5,1.2,2.6,2.8,4.7,1.5,2.2,2.9,3.9,3.1,3.9.8,0-.9-4.8-2.5-7.1-1.7-2.4-3.3-3.2-3.3-1.6Z"/>
    <path class="st1" d="M1023,678c.8-1.3,0-7-.9-7s-1,1.4-.2,5.1c.3,1.5.8,2.4,1.1,1.9Z"/>
    <path class="st1" d="M1037.7,743.1c-.4.9-.8,2.3-.8,3,0,1.2,0,1.2.8,0,.5-.7.8-2.1.8-3v-1.7s-.8,1.7-.8,1.7Z"/>
    <path class="st1" d="M1039.2,736.8c-.6.2-1.1,1.2-1.3,2.3-.3,2.4,1.2,1.7,1.9-.8.3-1.1,0-1.7-.5-1.5Z"/>
    <path class="st1" d="M1024.8,701.3c0,1.7.3,3.4.6,3.8,1,1,1.3-3.6.3-5.3-.7-1.3-.9-1-.9,1.6Z"/>
    <path class="st1" d="M1030.8,595.3c0-.7-.6-1.2-1.3-1.2s-1.3.3-1.3.8.6,1.2,1.3,1.8c.7.6,1.3,1.6,1.3,2.2s1,2.3,2.2,3.7c1.2,1.4,2.2,3.6,2.2,4.8s.4,2.2.9,2.2c1.8,0,.7-4.3-2.2-8.6-1.7-2.5-3-5-3-5.7Z"/>
    <path class="st1" d="M1035.1,612.6c0,.8.6,1.4,1.4,1.4s1.2-.5,1-1c-.5-1.6-2.4-1.9-2.4-.3Z"/>
    <path class="st1" d="M1041.8,734.7c1.3-1.1,1.2-7.3-.2-7-.5.1-.9,2-.9,4.1,0,3.2.1,3.7,1.1,2.9Z"/>
    <path class="st1" d="M1046.3,774.5c-.6,2.1-2,4.3-3,5-2,1.3-3.8,4.7-3.8,6.9s2.1.9,2.4-1.2c.1-1,1.2-2.7,2.2-3.8,2.7-2.8,4.2-5.7,4.6-9.3.4-3.8-.8-2.6-2.4,2.5Z"/>
    <path class="st1" d="M1049.7,651.5c-.4-.3-.8-1.2-.8-2.1,0-1.7-2.3-4.1-3.1-3.3-.3.3.2,2.4,1.1,4.9.9,2.4,1.8,4.4,2.1,4.4.9,0,1.5-3.4.7-3.9Z"/>
    <path class="st1" d="M1012.9,800.8c-6.8.3-10.3,1.5-9.2,3.3.3.5,1.5.6,2.8.3,1.3-.3,4.3-.9,6.8-1.2,2.5-.3,5-1.1,5.6-1.6.7-.7-.7-.9-6-.7Z"/>
    <path class="st1" d="M1036,674.4c-1-2.5-1.6-5-1.3-5.7.6-1.5-1.8-12.7-3.5-16.4-.7-1.5-1.2-3.2-1.2-3.8,0-2.3-2-7.7-3.1-8.1-.9-.3-.8.4,0,3.8.6,2.3,1.3,4.6,1.6,5,.4.7,2.4,7.6,3.7,12.7.2,1,.6,4.4.9,7.7.3,3.3.8,6.7,1.3,7.5.4.8,1.6,5.6,2.6,10.6,1.7,8.8,1.6,14.6-.1,15.7-.4.3-.8,1.3-.8,2.3,0,2.6,1.2.9,2.5-3.5,2.1-7.5,1.1-18.5-2.5-27.9Z"/>
    <path class="st1" d="M1013.4,778.1c-.8,0-2.5,1.3-3.9,3-1.4,1.7-3.5,3.2-5,3.6-1.4.3-3.1,1.3-3.7,2.1-2,2.8-6.5,4.5-12.3,4.7-6.2.2-9.5,1.5-9.5,3.8s.9,1.5,7.6,1.3c4.2,0,8-.2,8.5-.2,1.8-.2,6.4-5,6.4-6.7s1.5-3.8,3.4-3.8c1.9,0,10.4-7.7,8.5-7.7Z"/>
    <path class="st1" d="M947,811.2c3-.5,3-.5.9-1.3-2-.8-20.5-.3-21.4.6-.2.2-.1.7.2,1.2.5.8,14.4.5,20.4-.4Z"/>
    <path class="st1" d="M974,809.8c1.5-.5,4.7-1,7.1-1.1,5.8-.2,6.4-.4,3.9-1.2-3.9-1.2-12.6-1-13.8.4-.6.7-.8,1.6-.5,2.1.3.5,1.5.5,3.3-.1Z"/>
    <path class="st1" d="M1028,719.3c.6,2.4,1.1,2.2,1.1-.5s-.4-2-.8-1.7c-.4.3-.6,1.3-.3,2.2Z"/>
    <path class="st1" d="M1031.7,768.1c-.5.3-.9,1.6-.9,3,0,6-3.2,10.7-7.9,11.7-1.2.3-3.7,2-5.6,3.9-2.1,2.2-2.9,3.4-2,3.4s2.3-1,3.4-2.2c1.2-1.2,3.9-3.1,6-4.2,2.3-1.2,4.4-3,5.1-4.4.6-1.4,1.5-3.1,1.9-4,1.1-2.1,1-7.8,0-7.1Z"/>
    <path class="st1" d="M1027.4,714.5c0,.9.2,1.4.4,1.1.3-.3.3-1,0-1.7-.3-.7-.5-.5-.5.5Z"/>
    <path class="st1" d="M1049,657.5c0,.9.2,1.4.4,1.1.3-.3.3-1,0-1.7-.3-.7-.5-.5-.5.5Z"/>
    <path class="st1" d="M1139.8,779.3c-.7.7.9,2.3,3.6,3.4,3,1.3,4.9,1.4,5.2,0,.2-.8-8.1-4.2-8.7-3.5Z"/>
    <path class="st1" d="M1063.6,714.2c0,.5.2.9.4.9s.6-.4.9-.9c.3-.5.1-.9-.4-.9s-.9.4-.9.9Z"/>
    <path class="st1" d="M927.7,414.6c-1.4-1.2-3-.5-3,1.3s.8,1.2,2.1,1.2c2.4,0,2.8-1,.9-2.6Z"/>
    <path class="st1" d="M1074.7,740.4c-1-1-1.2-.8-1.2,1.8s1,4,1.8,1.2c.4-1.1.1-2.3-.6-3Z"/>
    <path class="st1" d="M1076.6,789.3c-2.1,0-2.1,0,.8,2.6,3.3,2.9,4.4,3.2,4.4,1.2s-2.5-3.7-5.2-3.7Z"/>
    <path class="st1" d="M1077.8,717.8c.5,3.1,1,4.1,2.1,4.1s1.5-.6,1.1-4.5c-.4-4.9-2.2-9.3-3.8-9.3s-.8-1.2-.5-3.5c.4-3,.3-3.4-.8-2.4-.7.6-1.2,2.1-1.1,3.3.2,3.4.1,3.5-2.1,2.7-1.5-.6-2.4-.5-3.1.4-1.5,1.8-.1,3.2,2.6,2.7,3.2-.6,4.8,1.3,5.6,6.6Z"/>
    <path class="st1" d="M1065.6,702.1c-.6-3.1-2.1-6.2-4-8.4-1-1.1-1.6-2.9-1.5-4.3.8-9.8-1.4-15.1-6.9-16.8-3.3-1-3.3-1.1-3.6-5.8l-.3-4.8-.2,5.8-.2,5.8,3,1.5c5,2.4,6.6,5.4,6.1,11.6-.4,5-.3,5.6,3,11,3.2,5.3,3.9,7.6,3.6,11.9v1.7c-.1,0,1.2-1.7,1.2-1.7.8-1,1.1-2.4.8-3.4-.3-1-.7-2.7-1-3.9Z"/>
    <path class="st1" d="M1098.6,766.8c-1.1-.9-1.3-.8-1.3.2s.3,1.5.6,1.8c.8.8,2,.7,2-.2s-.6-1.2-1.3-1.8Z"/>
    <path class="st1" d="M1120.6,769.7c0-1.9-7.4-7.4-20-14.9-2-1.2-3.5-2.9-4.1-4.8-1.1-3.2-5.4-10.2-8.3-13.4-1.1-1.2-2.4-3.3-2.9-4.6-1.1-2.9-3.4-2.8-4.5,0-.6,1.6,0,2.7,2.9,6,2,2.3,4.3,5.7,5.1,7.7.9,2,3,5.1,4.8,7.1,3.2,3.4,16.8,13.1,18.5,13.1s8.5,7,8.5,8.2.5,1.3,1.1,1.5c2.2.8,2.7-1.1.8-3.1-1-1.1-1.9-2.4-1.9-2.9Z"/>
    <path class="st1" d="M1093.5,774.3c-.6-.2-1.6-2.2-2.2-4.3-.9-3.8-3.1-6.6-4.2-5.5-.3.3,0,1.2.7,2.1.7.8,2.2,3.4,3.2,5.6,1.1,2.3,2.3,4.1,2.7,4.1,1.2,0,.9-1.5-.4-2Z"/>
    <path class="st1" d="M1126,783.7c-3.3-1-2.1,1,1.7,2.9,4.2,2.1,4.7,2.1,5.4.9.5-.8-2.4-2.4-7.1-3.8Z"/>
    <path class="st1" d="M1051.1,751.7c-.5-1.3-.8-1.4-1.1-.5-.3.7,1.2,4.4,3.2,8.4,2,4,4,7.2,4.4,7.2.9,0-1.5-6.3-4-10.4-1-1.7-2.2-3.8-2.5-4.8Z"/>
    <path class="st1" d="M944.7,411.8c.6-2.4,0-3.3-2-3.3s-3.1,2.8-2.2,4.3c1,1.6,3.7.9,4.2-1Z"/>
  </g>
  <path class="st0" d="M809.6,571.4c-1-.4-4-5-3.6-5.5.2-.3,1.6-1.1,3.1-1.8,3.8-1.8,6-3.7,5.8-5-.2-.9-.5-1-2.5-.8-5.7.6-5.9,0-1.8-3.6,3.4-3,5-3.2,4.3-.5-.8,3.1,1.1,3.1,4.2,0,2.7-2.7,2.8-2.7,5.2-1.8,1.3.5,3.8,2.1,5.6,3.5,1.7,1.4,3.3,2.5,3.6,2.4.9-.4.5-3.1-.7-4.4-1.3-1.4-3.5-5.5-3.3-6,0-.1,2.1-1.3,4.6-2.5,3.7-1.8,4.5-2.5,4.3-3.6-.1-.9-.6-1.4-1.6-1.4-.8,0-3.3-.3-5.6-.6l-4.2-.4-1.5-3.6c-1.1-2.7-1.4-4.5-1-7.1.3-1.9.6-5.8.8-8.5.2-2.7.6-8.1,1-11.9.4-3.8.8-8.8,1-11,.3-5.4.6-6,2.6-6,1.6,0,7.3,3.3,9.1,5.4.5.5,2.5,2.4,4.4,4.2,2,1.8,5.8,5.6,8.6,8.4,2.8,2.8,5.2,5.2,5.3,5.3.3.1,4.1,3.9,10.2,10.1,2.3,2.3,6,5.7,8.1,7.5,2.2,1.8,4.1,3.5,4.4,3.9.3.4,2,2.5,4,4.5,1.9,2.1,3.3,4,3,4.4-.3.3-1.5.6-2.8.5-2.3,0-4,1.3-2.7,2.2.4.3,2.5,2,4.6,3.8l3.9,3.3-1.2,4.3c-.7,2.4-1.1,4.5-1,4.8.3.6,4.5-1.2,7.1-3.1,1.1-.8,2.5-1.5,3.1-1.4.6,0,2.7,1.3,4.7,2.8,2,1.5,3.9,2.7,4.2,2.6,1.2-.2.7-2.7-1.1-5.5-1-1.6-1.7-3.4-1.5-4,.6-1.7,8.5-4.5,15.3-5.4,9.5-1.3,13.2-1.8,25.6-3.7,20.6-3.2,22.5-3.4,22.7-2.3.1.6-.6,2.7-1.6,4.8-1.4,2.9-1.7,4.1-1.2,4.9.5.9,1,.7,2.9-1.1,1.2-1.2,3.5-2.7,5.1-3.5l2.9-1.4,4.1,3c2.2,1.7,4.5,3.4,4.9,3.8.5.5,1.1.5,1.6-.1.5-.6.4-1.8-.4-3.8-2.1-5.1-2.9-8-2.5-9.2.3-.7,2.1-1.7,4.7-2.5,2.9-.9,4.4-1.7,4.7-2.6.6-1.6,0-1.9-3.7-2-1.5,0-4.3-.3-6.2-.5-3.4-.5-3.5-.5-4.1-2.3-.3-1-.5-2.8-.5-4,0-1.4-.3-2.3-1-2.6-.9-.3-1.4.2-2.8,3.5-1.6,3.5-2,4-4.3,4.8-1.4.5-3.2.8-4,.5-.8-.3-2.7-.6-4.3-.6-1.6,0-3.6-.3-4.4-.6l-1.6-.6,1.5,1.4c.8.8,1.7,2,2,2.7.3.8,1.3,1.6,2.8,2.2,1.3.5,2.2,1.1,2.1,1.4-.1.3-5.8,1.4-12.7,2.5-6.9,1.1-14.5,2.4-16.9,2.9-13.9,2.9-31.6,3.3-34.3.8-.5-.4-.9-1.6-1.1-2.8-.4-3-2.9-3.7-3.4-.9-.3,1.5-2.2,3.7-3,3.4-.5-.2-2.3-1.8-4.1-3.6-1.8-1.8-3.5-3.3-3.8-3.5-.3-.1-3-2.8-6.1-6-3.1-3.2-5.8-5.9-5.9-6-.2,0-2.1-2-4.4-4.3-2.2-2.3-4.7-4.6-5.4-5.2-.7-.6-2.4-2.1-3.8-3.5-1.4-1.4-3.6-3.5-5-4.8-4.2-3.8-12.3-12.4-12.7-13.4-.2-.5-1.1-1.7-2-2.7-1-1-2.4-2.9-3.1-4.3l-1.4-2.6,5.8-2.4c3.2-1.3,5.9-2.7,6.1-3,.4-1-2.2-1.9-5-1.7-1.4,0-2.7,0-2.8-.3-.2-.5,2.3-3.8,5.2-6.8,4.3-4.4,5.1-5.4,6.8-7.3,1-1.1,5.7-6.4,10.6-11.7,4.9-5.3,12.1-13.1,16-17.5,5.3-5.9,7.5-7.9,8.7-8,.8,0,1.8-.4,2.1-.8,1.4-1.5,7.5-5.6,8.7-5.7.8-.1,2.8.6,5.4,2.1,2.3,1.2,4.6,2.5,5.2,2.8.7.4,1.3.2,1.7-.6.5-.9-.2-2.2-2.8-5.7l-3.4-4.6,5.2-2.4c5.3-2.5,7-4.2,4.7-4.8-.7-.2-3.4-.5-6.1-.6-2.6-.1-4.9-.5-5.1-.8-.2-.5,2.5-5.9,7.7-15,1.6-2.8,6.1-10.7,10.1-17.7,3.9-6.9,10-17.5,13.6-23.5,3.5-6,6.7-11.8,7.2-12.9.6-1.7,1.7-2.5,6.3-4.7,6.2-2.9,5.5-3.1,13,2,1.9,1.3,3.6,2.2,3.8,2.1,1.1-.5,0-3-2.7-5.6-1.7-1.7-3.3-3.8-3.7-4.7-.8-2.1,0-2.6,5.8-3.7,2.4-.4,4.3-.9,4.4-1,.9-2.5-2.8-4.3-7.2-3.4-1.6.3-3.7.3-4.6,0-1.5-.6-1.6-.8-.8-2.7,1.3-3.6,4.1-7.2,6.2-8l1.9-.8,3.5,3c1.9,1.7,3.8,3.1,4.1,3.2,1.1.4,1-2.7-.3-5.6-1.5-3.5-1-4.1,4.9-6.4,3.4-1.3,3.9-1.7,3.6-2.8-.3-1.1-.8-1.2-5.3-.8-2.7.3-5.2.3-5.6.2-.4-.1-1.5-2.1-2.5-4.4-2.4-5.3-3.7-5.6-4.8-1.1l-.7,3.1-3.4.2c-6.3.4-6.9.5-7.2,1.3-.2.5.3,1.3,1,1.9.7.6,2.4,1.8,3.7,2.8l2.4,1.8-1,4c-1.3,5.1-2,6-3,4-.4-.8-1.3-1.5-1.9-1.6-1-.2-1.4.4-2.6,3.7-1.5,4.3-2.3,4.9-6,4.2-3.3-.6-6.1,0-6.6,1.2-.3.9.4,1.6,3.5,3.5,5,3.1,5.6,3.9,3.9,5.9-.7.9-2.7,4.5-4.5,8.2-3.7,7.7-6.3,12.6-9.2,17.3-1.1,1.8-4,6.9-6.4,11.2-2.4,4.3-5.1,9.1-6.1,10.7-.9,1.5-2.6,4.6-3.8,6.8-1.1,2.2-4.2,7.6-6.8,11.9-2.6,4.4-4.8,8.2-5,8.5-.5,1.2-1.8,0-2.5-2.3-1.1-3.9-2.5-3.4-4.8,1.7-2.3,5-2.5,5.1-10.4,4.1-2.5-.3-4.6-.4-4.7-.1,0,.3,0,.6.4.7.3.1.5.6.3,1.1-.2.6.3,1.1,1.4,1.5,1,.4,3.3,1.8,5.2,3.3,4.6,3.6,4.5,4.4-1.6,10.8-2.5,2.7-5,5.4-5.4,6-.4.6-3.2,3.8-6.1,7.2-2.9,3.4-6.8,7.8-8.5,9.8-1.7,2-5.6,6.3-8.7,9.7-3.1,3.3-6.1,6.7-6.6,7.4-2.4,3.1-13.9,14.9-15,15.4-1,.5-1.3.3-2-1-.5-.9-1-2.7-1.3-4-.5-2.4-2.2-3.8-3.2-2.6-.3.4-1,2.3-1.6,4.4-1.2,4.1-1.4,4.2-7.1,3.8-4.3-.3-6.5.2-7,1.4-.3.9,0,1.4,1.2,1.9.9.4,3,1.5,4.6,2.6,3.6,2.3,3.7,3.6.7,7.9-3.8,5.3-3.2,6.3,2.1,3.5,1.9-1,3.6-1.5,3.7-1.2.2.4.2,1.8,0,3.3-.2,1.4-.4,5.2-.6,8.3-.2,3.1-.7,9.3-1.2,13.8-.8,7.2-1.2,8.8-3.3,13.7l-2.4,5.5h-2.7c-5-.3-5-.3-5.7,1.5-.6,1.6-.5,1.8,1.7,2.6,1.3.5,2.9,1.4,3.7,2.1l1.3,1.2-4.1,3.7c-2.3,2.1-4.9,4.3-5.9,5-1.6,1.2-1.8,1.2-2.2-.2-.3-.8-.6-2.1-.7-2.9-.1-.8-.7-1.6-1.3-1.8-.9-.2-1.5.5-3.1,4.2-1.1,2.4-2.2,4.5-2.4,4.6-.2,0-1.6.2-3.2.3-4.9.2-8,.4-8.1.8,0,.2,1.3,1.2,3,2.2,1.8,1.1,4,2.8,5.1,3.8l1.9,1.8-1.6,3.7c-1.8,4.2-1.8,5.8,0,5.2.6-.2,1.2-.7,1.4-1.1.1-.4,1-1.1,1.9-1.7l1.6-1,2.3,10.8c5.9,27.3,7.7,35.8,7.9,38.1.1,1.4.6,3.9,1.1,5.7.5,1.8,1.6,6.7,2.4,10.9.8,4.3,2.6,12.8,4,19.1,1.4,6.2,2.6,12.6,2.7,14.1.1,1.5.7,4.7,1.3,7,.6,2.3,1.6,6.1,2.1,8.5.5,2.4,1.3,5.5,1.7,6.9.4,1.4,1.1,4.8,1.6,7.5.5,2.7,1.3,5.9,1.8,7,1.1,2.4,1.5,4.8,1.1,6.1-.2.4-1.8.8-3.7.8-3.7,0-5.7.7-5.1,1.9.2.4,1.8,1.7,3.7,2.7,6.1,3.6,5.9,3.3,5,5.8-1,2.9-1.2,5.3-.5,5.9.3.3,2.3-.7,4.5-2.2,2.2-1.5,4.4-2.4,5-2.2.6.2,2.7,1.6,4.8,3.1,2.1,1.6,4,2.5,4.3,2.3.6-.5-.4-2.7-2.9-6.7-.9-1.4-1.5-2.7-1.4-2.9,0-.3,1.9-1.4,4.1-2.6,5.4-3,5-4-2.1-4.6-6-.5-6.1-.6-2.6-4.9,1-1.2,3.2-4.3,5-6.8,1.8-2.5,4.2-5.9,5.5-7.5,1.3-1.6,4.5-5.7,7.2-9.1,4.5-5.9,4.9-6.2,5.5-4.9.6,1.2.8,1.3,2,.6.7-.4,2.1-1.6,3.2-2.7l1.9-1.9,4.5,2.1c2.5,1.1,4.9,2.4,5.4,2.9.7.6,1,.5,1.4-.6.4-1.1,0-1.9-2-3.8-1.4-1.3-2.4-2.6-2.3-2.9.1-.3,2.7-.1,5.8.4,3.1.5,9.1,1,13.3,1.2,12.6.5,28.2,2.9,33.3,5.1,2.3,1,4.5,2.3,4.7,2.8.3.6-.1,2.4-.9,4.2-1.2,2.8-1.2,3.3-.2,3.7.6.2,2.4-.4,4-1.5,2.5-1.6,3.4-1.8,5.5-1.2,5.1,1.3,9.6,5.5,7.3,6.8-.5.3-1.5.3-2.2,0-1.2-.5-4,.3-4.3,1.2-.1.3.2.7.7.8.5.2,1.8,1.2,2.9,2.2,1.9,1.8,2,2,1.1,4.4-1.2,3.1-1.2,6.2-.1,6.2.5,0,1.9-1.2,3.3-2.7l2.5-2.8,2.5,1.1c1.4.6,3.2,1.8,3.9,2.7.8.9,2.2,1.7,3.2,1.9,1.6.3,6.8,5.3,12.7,12.3.5.6,2.8,3.1,5.1,5.5,13.1,14.1,12.9,13.8,7.7,13.8-1.6,0-3.1.3-3.3.8-.2.5,1.4,2.1,3.9,4,2.3,1.8,4.3,3.4,4.4,3.5,0,.2-.6,2-1.4,4.2-2.1,5.1-.9,5.8,3,1.8,2.1-2.1,2.9-2.6,3.6-2.1,1.5,1.2,10.6,5.6,11.2,5.5.8-.2,1.3-1.8.6-2.1-.3-.1-1.6-1.8-2.7-3.8-1.2-1.9-2.4-3.6-2.7-3.7-1.5-.6.8-2.6,4.7-4.3,2.4-1,4.6-2.3,4.8-2.7.5-1.3-2.3-2-6.6-1.7-2.1.2-4.1.2-4.4,0-.3-.1-.8-1.4-1.1-2.8-.3-1.4-.9-2.9-1.3-3.3-1.1-1-2.9.5-3.9,3.1-.5,1.2-1.1,2.3-1.4,2.3-.5,0-12.7-12.7-22.6-23.8-2.8-3.1-5.8-6.4-6.8-7.2-1-.9-2.3-2.3-3-3.3-.7-.9-1.6-1.8-2.1-2-.5-.2-1.1-.9-1.3-1.6-.4-1.1,0-1.4,3-2.7,5-2.1,5.5-4.6.8-4.1-1.1.1-3.2,0-4.7-.3-2.5-.5-2.8-.8-3.7-3.3-1.4-3.9-2-4.4-3.3-2.8-1,1.1-1.3,1.2-2.1.2-.5-.6-.9-1.3-.8-1.5,0-.2-.8-1.5-2-2.9-1.2-1.3-2.1-2.6-2-2.9,0-.2,1.9-1.4,4-2.5,3.7-1.9,4.6-3.2,2.7-3.8-.5-.2-1.4-.2-2.1-.1-.7.1-2.6.2-4.3.1h-3c0-.1-1.5-3.8-1.5-3.8-2-5.1-3.4-5.1-4.6,0l-.9,3.6-2.3.2c-4.1.3-13.4-.4-30.6-2.4-24.3-2.8-24.4-2.8-24.6-3.5,0-.3,1.1-1,2.7-1.7,4.1-1.6,4.4-4.1.3-3.7-1,.1-3.2,0-5-.2l-3.2-.4-1.6-3.5c-2.1-4.5-3.3-4.6-5-.1l-1.2,3.3-4.3.5c-5.6.6-6,1.8-1.3,4.9,3,2,3.3,2.5,2.7,3.4-.4.6-2.6,3.9-4.8,7.4-2.2,3.5-5.6,8.3-7.5,10.8-1.9,2.5-5.2,6.8-7.3,9.5-3.6,4.8-7.1,8.8-8,9.2-.2.1-.8-1-1.3-2.5-1.1-3.1-2.8-3.6-3.8-1l-.6,1.7-1-2.8c-.9-2.5-3-11.2-7.5-31-1.6-7-8.8-42-12.9-62.4-1-5.1-2.2-10.9-2.6-12.9-.4-2-1.6-8-2.6-13.2-1-5.2-2.2-11-2.8-12.9-1.7-5.8-.2-7,5-3.8,2.9,1.7,3,1.8,3.5.4.3-.8.3-1.5,0-1.6ZM892.5,559c-.8.6-.9.5-.5-.4.2-.6.7-1,1-.8.7.3.7.3-.4,1.2ZM972.4,541.7c.5-1.3-1-2.9-3.6-3.8-1.2-.4-2-1.1-1.9-1.4.1-.3.9-.4,1.6,0,2.6,1,5.6.7,6.5-.7.8-1.1,1-1.1,1.7-.1.7.9,1.2,1.1,2.3.8.8-.2,1.9-.1,2.5,0,.9.3.9.4-.4,1.1-1.3.7-1.4,1-1.3,3.2.1,3.7,0,3.9-2.9,2.3-1.7-.9-2.9-1.2-3.7-1-1,.3-1.1.2-.8-.5ZM899,551.8c.2,1.7.7,3.4.9,3.8.8,1-4.2-.3-5.2-1.4-.6-.7-.6-1.3,0-2.1.5-.6,1.3-1.8,1.8-2.7,1.2-2.1,1.9-1.4,2.4,2.4ZM961.3,301.7c.1-.8.7-1.8,1.2-2.1.5-.3,1-1.2,1-1.9,0-.8.3-1.3.6-1.2.3.1,1,1.4,1.7,2.8.9,2.1.9,2.8.2,3.5-.5.5-1.4.6-2,.4-.6-.2-1.5-.2-2,0-.5.2-1,.3-.9.2,0-.2.2-1,.3-1.8ZM947.9,325.8c.2-.5-.1-1.8-.7-2.9l-1-1.9,2.1-.8c1.1-.5,2.2-1.3,2.4-1.9.6-1.5,1.6.6,2,4,.4,3.6.4,3.5-1.7,3-.4-.1-1.4.2-2.1.6-1.1.7-1.3.7-1,0ZM945.7,329.9c.1-.3.5-.7,1-.7.4,0,.6.1.5.4-.1.3-.5.7-1,.8-.4,0-.6-.1-.5-.5ZM893.9,412.2c-.1-1.5-.4-1.8-2.2-2.2l-2.1-.4h2.1c2.7.2,3.7-.4,4.9-2.8l1-2,.5,2.7.5,2.7h2.7c1.5,0,3,0,3.4.4.9.7-1.9,1.9-3.3,1.4-1.2-.5-2.6.2-3.5,1.7-.4.7-1.3.9-2.3.7-1.2-.3-1.7-.8-1.7-2.1ZM899.3,416.8c.5,0,1.1.2,1.5.6.3.3,0,.3-.9,0-.8-.3-1.1-.6-.6-.6ZM823.8,484.8c-3.3-2-3.1-2.7.5-2,2.3.5,2.5.4,3.8-1.9l1.4-2.4.8,2.2c.5,1.2.6,2.4.3,2.6-.3.2-.5,1.1-.3,1.9.2,1.3,0,1.4-1.3.9-.8-.3-1.6-.3-1.9,0-.2.3-1.6-.3-3.3-1.3ZM822.6,545.8c-.5-1-1.2-1.6-2.2-1.7-1.4-.2-1.4-.2,0-1.2,1-.7,1.6-1.7,1.8-3l.3-2,1.4,2.9c1.3,2.6,1.6,4.7.6,3.3-.7-.9-.9.4-.3,1.6.3.6.5,1.3.4,1.6-.3.9-1.4.2-2.1-1.5ZM797.8,566.4c.2-.6,0-1.7-.6-2.3l-1-1.2,1.9-.8c1.5-.6,2.4-.6,3.8.2,2.1,1.2,2.1,1.3-.4,3.1-1,.7-2.1,1.6-2.5,2-1,.9-1.8.3-1.3-1ZM834,717c.2,2.3,1.9,3.4,4.8,2.8,2.7-.5,2.9.3.4,1.3-.9.3-1.7.9-1.8,1.3-.1.4.3,1.4,1,2.4l1.2,1.7-2.7-1.4c-2.1-1.1-2.9-1.2-3.6-.6-.8.6-1.1.4-2.6-1.7-.9-1.3-2.1-2.5-2.6-2.7-.7-.3-.7-.5.2-.9.6-.3,1.5-.5,1.9-.3.9.3,1.2-.2,1.9-2.5.5-1.8,1.7-1.3,1.8.8ZM1001.6,746.2c.4.6,1.3,1.1,2.3,1.3,1.6.2,1.6.3.8,1.4-2.5,3.2-2.7,3.7-1.5,4.5,2.1,1.5.8,2-1.6.6-6.8-4-9.5-6.9-5.1-5.8,1.5.4,2.2.2,2.7-.6,1.3-2.4,1.7-2.6,2.4-1.5ZM955.7,704c-1.6,0-2.5-.2-3.2-.9-.9-1-.9-1,.5-1.4.8-.2,2.3,0,3.4.4,2.5,1,2.2,1.8-.6,1.9ZM939.9,686.2c-.2-.7-.9-1.7-1.6-2.2l-1.2-.9,2-.8c1.8-.7,2.2-.7,3.3.4,1.4,1.4,1.2,2.7-.8,4-1.2.7-1.4.7-1.7-.4ZM869.2,675.3c0-.6-1.1-1.5-2.3-2-2.6-1.1-3.6-2.6-1.6-2.5,3.9.2,4.5,0,4.8-1.6.4-2.3,1.2-2.1,2.3.6.6,1.3,1.3,2.3,1.6,2.2,1.2-.2.2.9-2.2,2.6-1.9,1.3-2.5,1.5-2.6.7Z"/>
</svg>