<?xml version="1.0" encoding="UTF-8"?>
<svg id="Layer_1" xmlns="http://www.w3.org/2000/svg" version="1.1" viewBox="0 0 1920 1080">
  <!-- Generator: Adobe Illustrator 30.3.0, SVG Export Plug-In . SVG Version: 2.1.3 Build 182)  -->
  <defs>
    <style>
      .st0 {
        fill: #dbb57f;
      }

      .st1 {
        fill: #ff7f00;
      }
    </style>
  </defs>
  <g>
    <path class="st0" d="M933.1,424.6c4.3,1,5.9-1.4,4-6.1-2.4-5.8-5.4-5.4-5.9.6-.3,3.8,0,5,1.9,5.4Z"/>
    <path class="st0" d="M910.7,667.8c-1.4,0-1.8,7-.3,8.5s3.2,1,4-1c.8-2.2-1.6-7.4-3.5-7.4l-.2-.2Z"/>
    <path class="st0" d="M908.5,471.9c3.2-.5,3.7-2.9.6-3.5-1-.2-2.2.6-2.7,1.8-.6,1.6,0,2.1,2.2,1.8h-.2Z"/>
    <path class="st0" d="M936.2,494.8c0,1.4.5,2.6,1.3,2.6,1.4,0,3.4-5.1,2.2-6.2-1.3-1.3-3.5,1-3.5,3.7h0Z"/>
    <path class="st0" d="M908.2,461.5c0-.8-1-1.3-1.9-1.3s-1.9.6-1.9,1.3,1,1.3,1.9,1.3,1.9-.6,1.9-1.3Z"/>
    <path class="st0" d="M933.3,575.5c.2-1.3-.5-2.2-1.6-2.2-2.4,0-4,2.2-2.7,4,1.1,1.9,3.8.8,4.3-1.9v.2Z"/>
    <path class="st0" d="M919.4,480.6c1.3-3.5-.6-5-3.4-2.4-1.4,1.3-2.6,2.7-2.6,3.4,0,2.1,5,1.1,5.9-1h0Z"/>
    <path class="st0" d="M916.8,594.8c2.2.5,7,1.9,10.6,3,8.2,2.4,8.6,2.4,8.6.8s-.6-1.3-1.3-1.3-5.6-2.1-10.7-4.5c-8-3.8-9-4.6-6.1-5.1,1.8-.3,4,0,5.1.5,1,.6,4.8,1.1,8.6,1.1,6.7,0,9.9,1.6,7,3.4-2.4,1.4-1.4,3.4,2.2,4.8,2.7,1,4,1,5.4-.6,1.6-1.6,1.6-2.1-.8-2.7-1.6-.5-3-2.6-3.5-4.8s-1.4-4-2.1-4-1.3-1-1.3-1.9c0-2.2-4.6-2.7-6.1-.6-1.1,1.9-7.7,1.6-10.2-.3-1.3-1-2.4-4.3-2.7-8-.6-7-3.2-11.2-5.3-9.1s-.8,1.9,0,3c1.6,2.1,1.3,13.8-.6,16-.8,1-1.3,3.4-1.1,5.6,0,3.2,1,4.2,4.2,5v-.2Z"/>
    <path class="st0" d="M925.5,426.3c1.1-1.3,1.1-2.1,0-2.7-1.8-1.1-5.6,1.8-4.6,3.5,1.1,1.8,2.7,1.4,4.5-.6l.2-.2Z"/>
    <path class="st0" d="M907.4,454.8c1.8,0,.5-5.8-1.4-6.4-2.4-.8-3.7,3.7-1.4,5.1,1,.6,2.4,1.1,2.9,1.3h0Z"/>
    <path class="st0" d="M486.3,784.6c0,1.8.8,1.4,3.5-1.4,1.9-1.9,3.2-3.8,2.9-4.3-1.3-1.3-6.6,3.4-6.6,5.6l.2.2Z"/>
    <path class="st0" d="M921.5,490.5c-1.1,2.7-2.1,5.4-2.4,6.1-.3.6.6,1,1.9.6,2.6-.5,7.4-9,6.2-10.7-1.4-2.4-4-.6-5.8,4h0Z"/>
    <path class="st0" d="M920.7,556.7c-1-.3-2.4.2-3.2,1.3-1.3,1.4-.8,2.6,2.1,5.3,3.4,3,7.2,4.5,7.2,2.6s-4.6-8.5-6.1-9.1h0Z"/>
    <path class="st0" d="M525.1,823c-6.1,1.1-7.2,1.8-6.2,3.4,1.6,2.7,11.2.2,11.2-2.9s-1.9-1-5-.5Z"/>
    <path class="st0" d="M831.7,562.2c5.4-1.1,8.2-2.4,8.5-3.8.3-1.9,0-1.9-5.9-.3-3.5,1.1-8,1.9-10.1,1.9-3.7,0-4.8,1.3-2.9,3.2s.8,1.1,10.4-1Z"/>
    <path class="st0" d="M846.9,548.6c1.4-1.4-3.2-3.2-8-3.2s-13.1,2.4-13.1,4.2,19.8.5,21.1-1Z"/>
    <path class="st0" d="M837.1,539.8c6.6-1.6,8-3.8,2.2-3.7-5.4.2-10.1,1.8-10.7,3.5-.6,2.1.8,2.1,8.5,0v.2Z"/>
    <path class="st0" d="M800.5,599.9c-1.1,0-1.1.8,0,2.7,1.4,2.7,6.7,3.8,6.7,1.4s-4.3-4-6.6-4l-.2-.2Z"/>
    <path class="st0" d="M809.5,582.2c-3.2.5-5,1.6-5,2.7s1.3,1.8,7.5,1.1c8.6-1.1,11-1.9,11-3.5s-6.4-1.4-13.6-.3h0Z"/>
    <path class="st0" d="M805.6,590.8c-7.2,0-9.4,1.4-5.6,3.7,3,1.8,5.9,1.8,10.4,0,5.1-1.9,2.9-3.8-4.6-3.8l-.2.2Z"/>
    <path class="st0" d="M842.6,621.2c-2.2,0-5.1,3.2-4,4.5,1.4,1.6,2.9,1,4.5-1.8,1.1-2.1,1-2.7-.5-2.7Z"/>
    <path class="st0" d="M947.1,615c2.9,1.1,4.8,1,5.8-.6,1.1-1.8-1.8-3.8-5.1-3.8s-3.2,3.4-.6,4.5h0Z"/>
    <path class="st0" d="M886.4,650.2c-1.3,1.3-1,5.1.8,6.7,2.1,2.1,3.8.8,3.8-2.9s-2.9-5.4-4.5-3.7l-.2-.2Z"/>
    <path class="st0" d="M949.5,604.6c0-1.1-.5-2.1-1.3-2.1s-2.1-.3-3.2-.8-2.9.2-4,1.4c-1.9,1.9-3,1.9-13.1-1.3-8.3-2.6-11.4-3-12.8-1.9-2.9,2.4,0,3.8,11.8,6.4,13.9,2.9,14.4,2.9,14.4,1.3s1.8-1.3,4-1.3,4-.6,4-1.9l.2.2Z"/>
    <path class="st0" d="M830.3,622.5c-1.1,0-1.8.6-1.3,1.3.5.8,1.4,1.3,2.1,1.3s1.3-.6,1.3-1.3-1-1.3-2.1-1.3Z"/>
    <path class="st0" d="M942.7,511.1c1.4.3,2.7,1.6,2.7,2.9s1.1,2.1,2.4,2.1c2.2,0,2.4-1.3,2.6-12.6,0-7-.5-12.6-1.1-12.6s-1.3,2.2-1.3,5c0,6.4-2.7,11.8-5.8,11.2-3.2-.5-2.9,3.2.5,4.2h0Z"/>
    <path class="st0" d="M950.1,420.3c.8-1.3-1.8-6.7-3.8-8.3-3.2-2.4-4.8,5-1.8,8,1.9,1.9,4.6,2.1,5.6.3Z"/>
    <path class="st0" d="M946.3,460.1c-2.4,0-3.5,10.7-1.8,16.6,2.1,6.9,3.7,4.2,3.7-6.7s-.5-9.9-1.9-9.9h0Z"/>
    <path class="st0" d="M881.9,637.4c-2.6.5-6.4,12-5.1,15.4.3,1,1.3,1.6,1.9,1.6,1.9,0,3.7-4,4.6-11,.8-5.8.6-6.4-1.4-5.9h0Z"/>
    <path class="st0" d="M954.3,477.4c.3,0,.6-4.6.6-10.2s-.3-9.9-1.4-8.8c-1,1-1.1,4.3-.6,10.2.5,4.8,1.1,8.8,1.4,8.8Z"/>
    <path class="st0" d="M823.5,571.9c-10.7,2.1-12.5,2.7-12.5,4.2s.8,1.3,1.8,1.3c4,0,17.6-3,18.9-4,2.4-2.4-.5-2.7-8.2-1.3v-.2Z"/>
    <path class="st0" d="M850.4,622.5c-2.6,0-4.8,4-4.8,8.5s4.3,3.2,5.9-4.2c.8-3.4.5-4.3-1.1-4.3Z"/>
    <path class="st0" d="M859.7,623.9c-2.4,0-3,1-4.2,7-.8,4.5-.6,5,1.8,5s3-1.1,3.5-3c1.4-5.1,1-9-1.1-9Z"/>
    <path class="st0" d="M870.4,626.8c-1.3-.3-2.6,1.6-3.8,6.1-1.1,3.5-1.6,6.9-1.4,7.4.3.5,1.6,1,3,1s2.7-1.4,3.4-5.9c1.1-7.8,1.1-8-1.1-8.5h0Z"/>
    <path class="st0" d="M1200.7,840.7c2.7,1.4,5.1,2.7,5.3,2.7,1.4.2-4-7.8-5.8-8.5-6.6-2.6-6.2,2.2.3,5.8h.2Z"/>
    <path class="st0" d="M1002.3,486.5c-.5-1.1-.8-.8-.8.8s.3,2.2.6,1.8c.5-.5.5-1.6,0-2.6h.2Z"/>
    <path class="st0" d="M1000.7,618.5c1,1.8,2.9,1.6,8.6-.2,2.6-.8,7.4-1.9,10.6-2.2,4.2-.6,6.1-1.6,6.4-3.2.3-1.9-.5-2.4-5.4-2.4s-7,1-8.5,1.9c-1.4,1.1-4.5,1.9-6.9,1.9-4.3,0-6.6,1.8-5.1,4l.3.2Z"/>
    <path class="st0" d="M1006.6,510.7c5.4,0,4.6-13.4-1.1-17.1q-3.2-2.1-2.2,1.9c.5,2.2,1,6.6.8,9.6,0,4.8.2,5.6,2.4,5.6h.2Z"/>
    <path class="st0" d="M1020.3,593.5c.2,1-1.1,1.9-3,2.1-5.3.6-6.9,1.4-6.1,3,1,1.8,8.6,1.8,8.6,0s1.9-1.4,4.3-1.6c2.9-.3,4.5-1.3,4.8-2.7.3-1.9-.5-2.2-4.3-2.2s-4.6.6-4.5,1.6l.2-.2Z"/>
    <path class="st0" d="M1029.1,587.9c.8,0,1.3-2.1,1-5-.2-2.7-.8-4.8-1.3-4.6s-1.4.3-2.1.3c-2.1,0-1.6,4,.6,4.8,1.1.3,1.6,1.6,1.1,2.6-.3,1,0,1.9.6,1.9h0Z"/>
    <path class="st0" d="M1007.5,423.8c1-2.2-2.9-11.5-4.6-11.5s-3,6.2-.6,9.9c2.6,3.8,4.3,4.3,5.4,1.6h-.2Z"/>
    <path class="st0" d="M989.3,417.9c0,2.4,1.1,2.9,4.5,1.6,1.8-.6,1.8-1.3-.2-5.3-2.6-5.1-6.4-6.4-5.1-1.6.5,1.6.8,4,.8,5.3Z"/>
    <path class="st0" d="M985.3,418.5c-.2-2.9-4-12.3-5.1-12.6-1.6-.6-2.2,7.2-.8,10.9.6,1.6,5.9,3.2,5.8,1.8h.2Z"/>
    <path class="st0" d="M1020,585.2c-1.4,0-2.7,1-2.7,1.9s1.1,1.9,2.7,1.9,2.7-1,2.7-1.9-1.1-1.9-2.7-1.9Z"/>
    <path class="st0" d="M1028,601.7c0-1.6-.8-1.9-3-1.3-1.6.5-6.4,1.4-10.7,2.4-5,1-7.7,2.2-7.7,3.5s1.6,1.8,8.3,1c9.6-1.1,13-2.6,13-5.4l.2-.2Z"/>
    <path class="st0" d="M1007.4,473.1c2.2,2.2,5.4,13.6,6.6,23.4.8,6.2,1.4,7.7,3.5,7.7s2.6-1,2.6-6.7-.5-6.9-2.7-7.5c-2.7-.6-3-1.8-4.6-11.7-1.1-6.9-4.2-12.6-6.7-12.6s-1.4,4.6,1.6,7.7l-.2-.2Z"/>
    <path class="st0" d="M1204.2,882.3c-3.7-.3-6.9.5-9.3,1.9-5.6,3.5-9.8,7.4-9.8,9.4s1.9,2.2,4.3,0c2.1-2.1,9.4-4.5,14.9-4.6,4.5-.2,4.3,0,5-3.5.3-2.2-.3-2.7-5.1-3v-.2Z"/>
    <path class="st0" d="M1196.3,847.5c-.5.6,1,1.6,2.9,2.1,2.1.5,4.3,1,5.1,1.3,3.2,1.1,3.5.5,1.3-2.1-2.6-2.7-8-3.5-9.3-1.4v.2Z"/>
    <path class="st0" d="M1068.8,642.8c-.3,1.6,0,3.8.6,5.3,1.4,2.7,3.4,3.2,4.5,1.1,1-1.8-3.7-14.7-8.2-22.4-2.4-4.2-3.8-5.4-4.8-4.3-1,1,0,3.8,3.5,9.6,3.4,5.3,4.8,9.1,4.3,10.9v-.2Z"/>
    <path class="st0" d="M971.5,418.3c1.1-2.7-2.1-11.7-4-11-1.4.5-1.8,7.5-.3,11,1,2.4,3.4,2.4,4.3,0Z"/>
    <path class="st0" d="M1192.2,877.2c.6,1.6,1.4,1.6,5.8-.6,2.7-1.4,7.4-2.9,10.1-3.4,5.8-1,6.2-2.1,1.8-4.2-6.9-3-19.7,2.9-17.6,8.2Z"/>
    <path class="st0" d="M1032.3,481.7c2.1,1.3,5-.2,5-2.7s-2.1-5.8-4.8-5.3c-1.8.3-2.4,1.4-2.1,3.8.3,1.8,1.1,3.7,1.9,4.2Z"/>
    <path class="st0" d="M1040.7,573.4c1,1.4,2.2,1.6,5.1.5,2.4-1,2.9-4.5.6-4.5s-6.7,2.7-5.9,4h.2Z"/>
    <path class="st0" d="M1023.1,429.2c4.5-.6,4.8-5.1.5-5.1s-3.5.6-3.5,2.7.8,2.7,3,2.2v.2Z"/>
    <path class="st0" d="M1014.6,422.8c3.4,0,5.1-2.6,2.7-4.2s-4.3-.8-5,1.9c-.3,1.4.5,2.2,2.2,2.2h0Z"/>
    <path class="st0" d="M1043.7,469.7c-.5-2.7-6.4-3.8-6.4-1.1s.6,2.6,1.4,3.4c2.1,2.1,5.4.6,4.8-2.1l.2-.2Z"/>
    <path class="st0" d="M1043.4,658.5c-2.2-.8-3.8-3.2-5.4-8.3-1.3-3.8-2.4-7.8-2.7-8.8s-1.1-1.4-1.8-1c-1.6,1,.8,9.9,3.4,12.8,2.7,3,2.2,5.3-1,5.3s-2.7.5-1.9,6.4c.5,3.5,1.3,6.7,1.6,7.4,1,1.8,4.2,1.1,5-1,.5-1.1.2-3.5-.5-5.4-1.9-5-1.6-6.6.6-4.5,1.1,1,1.9,2.4,1.9,3.5s1,1.9,1.9,1.9c3.5,0,2.4-6.6-1.1-8v-.3Z"/>
    <path class="st0" d="M1058.3,636.7c-2.2-4.8-5.6-7.5-7.2-5.9s.8,2.6,2.7,5c1.9,2.2,4.2,6.6,5,9.8.8,3,2.1,6.6,2.7,8,.6,1.3,2.4,2.2,3.8,2.2,3.8,0,3.4-4.3-1.1-9.6-2.1-2.4-4.8-6.7-5.9-9.4h0Z"/>
    <path class="st0" d="M1052.7,654c-1.4,0-3-1.4-4.2-4.3-1.1-2.6-2.7-6.6-3.8-9.1-1.9-4.6-5.6-6.7-4.3-2.2,3,9.8,8.8,20.8,11.5,22.2,4.3,2.2,5.3,1.4,4-3-.6-2.2-1.9-3.5-3.4-3.5h.2Z"/>
    <path class="st0" d="M1030.7,629.2c-.6,0-1.6.6-2.1,1.3-.5.8-2.1,1.9-3.5,2.7q-2.7,1.4-.3-2.6c3-5.1,1.8-6.6-3-3.2-2.1,1.4-6.6,3.8-9.9,5.4-6.7,3.2-11.4,7.5-9.4,8.6.6.5,3.4-.5,6.1-1.9s5.9-2.6,7.2-2.6,3.2-.8,4.2-1.6c1-1,.3.6-1.4,3.2-1.8,2.7-3.5,5-4.2,5-1.8,0-10.2,6.9-10.2,8.2s3.8,1.4,7.2-.8c1.8-1.1,4-1.8,5-1.3,1.4.6.6,2.2-3.5,6.6-3,3.2-6.4,6.1-7.7,6.6-5.1,1.8-1.9,5.3,3.8,4.2,2.9-.6,5.3-3,9.6-9.6,5.1-7.7,6.1-8.5,6.9-6.2.6,1.4,1.1,4.8,1.1,7.7,0,4.2-.5,5.3-3.8,7-2.1,1.1-4.6,2.1-5.8,2.1s-3,.8-4.3,1.9q-2.6,1.9,0,3.8c2.4,1.8,2.4,2.1.5,2.9-1.3.5-2.6,1.8-3,2.7-.5,1.3,0,1.9,1.8,1.9s8.2-5.6,14.9-14.2c2.9-3.7,3.4-17.4.5-18.6-2.9-1.1-2.4-4,1.3-9.6,3.4-5,4.3-9.6,2.1-9.6h.3Z"/>
    <path class="st0" d="M1030.6,487c-1.1-4.2-2.4-6.1-4.8-6.9-1.8-.6-3.2-2.2-3.2-3.4,0-3.5-5.3-12.6-7.4-12.6s-2.4,2.9,1.1,8.2c2.7,4,4.6,8.3,10.4,23.5,1,2.6,1.6,2.9,3.8,1.6,1.4-.8,2.4-2.1,2.1-3s-1.3-4.2-2.1-7.4h0Z"/>
    <path class="st0" d="M1077.6,635c-.5,2.6-.3,6.2,0,8.2.6,2.2,1.8,3.4,3.5,3.4s2.6-.6,1.8-7c-.5-3.8-1.3-7.5-1.9-8.3-.5-.6-2.1-4.5-3.5-8.5-2.2-6.4-5-9.6-6.6-8-.3.3,1.1,3.8,3.4,8,3,5.8,3.7,8.5,3,12.2l.3.2Z"/>
    <path class="st0" d="M1149.8,751.1c-3.2,1.3-10.2,12.3-9.4,14.7.6,1.6,1.1,1.8,2.7.5,1.1-1,1.9-2.7,1.9-4s1.4-3.7,3.4-5.4c3.7-3.5,4.5-7,1.3-5.8h.2Z"/>
    <path class="st0" d="M1021.9,624.1c2.7-.6,4.2-1.9,4.5-4,.3-2.6,0-2.9-2.7-2.1-9,2.7-23.7,9.4-23.7,10.9,0,2.4,1.4,2.2,10.4-1.1,4.2-1.6,9.4-3.2,11.7-3.7h-.2Z"/>
    <path class="st0" d="M1192.7,913.4c-.8,1.4.2,4,3,8,3.4,5,4.5,5.8,6.1,4.5s1.4-2.2-1-6.4c-4-6.7-6.7-8.8-8.2-6.2v.2Z"/>
    <path class="st0" d="M1187.5,919.3c-1.9,0-1.1,4.5,1.6,9,3,5.1,7.4,6.1,5.9,1.3-1.1-3.7-6.1-10.4-7.5-10.4v.2Z"/>
    <path class="st0" d="M1162.6,747.6c-1.6,0-6.6,6.9-10.1,13.8-2.2,4.3-2.2,5.3-.6,6.2,2.6,1.6,3.5.8,4.6-3.4.5-1.9,2.4-5.8,4.2-8.6,3.5-5.4,4-7.8,2.1-7.8l-.2-.2Z"/>
    <path class="st0" d="M1000.8,475.6c-.8-4.3-2.2-8.2-3.2-8.5-1.9-.6-2.2,3.2-.5,4.3.6.5,1.6,3,2.1,5.8s1.3,5.4,1.6,6.1c1.4,2.4,1.4,0,0-7.7h0Z"/>
    <path class="st0" d="M994.9,500.9c-2.2-2.4-3.2-5.9-4.3-17.3-.8-7.8-2.1-14.2-2.7-14.2-1.6,0-1.4,9.4.2,14.1.6,2.1,1.9,8.3,2.6,13.9.6,5.4,1.8,12.2,2.1,15,.6,3.8,1.4,5,3.5,5s2.6-.6,2.1-6.7c-.5-4.3-1.6-7.7-3.5-9.8h.2Z"/>
    <path class="st0" d="M972,490.5c0-5.8-.6-10.4-1.3-10.4-1,0-1,9.8.5,35.5,0,2.2,1,3,3.2,3s3-.8,3-2.2c0-3-2.9-12.8-4.2-14.4-.6-.6-1.1-5.9-1.1-11.7l-.2.2Z"/>
    <path class="st0" d="M984.8,502.3c-1.4-1.9-2.1-6.2-2.1-13.8s-.5-11.5-2.7-14.2c-1.4-1.9-2.7-5-2.7-6.9s-.6-3.5-1.3-3.5-1.3,1.8-1.3,4,.5,4,1.1,4c2.2,0,6.1,30.6,5.6,45,0,3.8.2,4.3,3.4,4.3h3.5l-.8-8.2c-.5-4.5-1.8-9.4-2.9-11l.2.3Z"/>
    <path class="st0" d="M947.9,621.7c-12.2-4-15.5-5.6-19.4-8.5-3.8-3-8.3-3.5-8.3-1s6.6,6.1,19.4,11.2c10.4,4.2,16.8,5.1,16.6,2.4,0-.8-3.8-2.6-8.3-4.2h0Z"/>
    <path class="st0" d="M960.7,419c1-1.6-2.4-11.2-4.3-11.8-1.6-.5-2.2,7.2-.8,10.9,1,2.2,4,2.9,5.1,1Z"/>
    <path class="st0" d="M933.5,650.2c-2.1.5-4.3-.6-8.3-4.6-7.4-7-11.5-9.8-15.2-9.8s-3.7,3.2,1.6,5.1c2.6,1,7.8,4.3,11.7,7.4,3.8,3,9.4,7.2,12.3,9.1,5.9,3.8,8,4.3,9.3,2.2,1.4-2.2-8.2-10.4-11.4-9.6v.2Z"/>
    <path class="st0" d="M936.2,666.5c-1.4-.8-3.5-2.2-4.6-3.5-1.6-1.4-2.6-1.8-3.5-.8-1,1-.3,2.7,2.2,6.1,3.7,4.6,6.4,5.1,7.7,1.4.3-1-.5-2.4-1.8-3.2Z"/>
    <path class="st0" d="M1098.7,611.6c.5-3.7-1-6.4-3.7-6.4s-1.9.8-1.8,1.6c0,1-.2,2.7-.8,4-.6,1.4.2,3.8,2.6,6.9,2.7,3.7,3.2,5.1,2.2,7.2-1,1.8-1,3,.2,4,2.4,2.4,5.1,1.8,5.9-1.1.3-1.4,1.3-2.7,1.9-2.7,2.2,0,1.1-2.6-2.9-6.6-2.6-2.7-4-5.1-3.7-7v.2Z"/>
    <path class="st0" d="M921,669.5c-2.1.8-1.9,1.4,1.4,5.6,3.7,4.6,5.8,5.3,6.7,2.4.8-2.6-5.6-9-8.2-8h0Z"/>
    <path class="st0" d="M545.5,804.1c-3-1.1-8.6.6-8.6,2.9s8.8,2.7,9.8,0c.5-1.1,0-2.4-1.1-2.7v-.2Z"/>
    <path class="st0" d="M960.5,494c0,4.8-.5,9.4-1.3,10.4-1.8,2.2-3.4,12.3-2.1,13.6s1.9.8,3,.5c1.8-.3,2.1-3.2,2.4-16,.2-8.5-.2-15.8-1-16.3-.6-.5-1.1,2.9-1.1,7.8h0Z"/>
    <path class="st0" d="M964,464.7c0-1.8-.5-1.3-1.1,1.3-.5,2.2-.6,4.8-.3,5.6,1,3,3.2,1.8,2.4-1.3-.5-1.6-1-4.2-1-5.6Z"/>
    <path class="st0" d="M947.9,633.1c-4.3-1.1-6.2-1.1-8.6.2-2.6,1.4-3.5,1.3-5.4-.3-4.5-4-16.3-11.7-17.8-11.7-3.5,0,0,5,6.7,9.6,4,2.7,9.1,6.7,11.4,9,2.2,2.1,6.1,5.1,8.6,6.7,10.1,6.1,12.6,2.1,3.2-5-6.7-5.1-6.9-6.1-.8-4,4.3,1.6,8.2,1,8.2-1.4s-2.6-1.9-5.6-2.9l.2-.2Z"/>
    <path class="st0" d="M1453.6,740.9c1-7.2-2.2-12.2-17.6-27.8-11.7-11.8-14.4-15.4-17.8-23.7-2.2-5.3-5.3-11.5-6.7-13.6-2.6-3.7-12.3-8.5-16.2-8-6.2,1-8-.2-13.6-9.1-6.7-10.4-17.1-19.8-26.7-24.2-12.2-5.4-47.5-5-55.8.8-4.2,2.9-8.5,2.4-10.9-1.3-2.9-4.3-14.7-7.8-23.8-7-16.3,1.4-61.3,11.4-76,16.8-3.7,1.4-11.5,4.8-17.3,7.8-5.9,2.9-14.9,6.6-20,8-8.6,2.4-9.6,2.4-12,.5-2.7-2.1-2.7-2.2,2.7-9.8,5.8-8.2,7.8-9.1,11.7-5.6,2.2,1.9,3.5,1.9,17.9-.8,9.9-1.9,22.6-5.6,34.2-10.1,10.2-3.8,22.2-8,26.7-9.3,8.2-2.2,29-4.8,41.9-5.3,4.8-.2,9-1.3,12-3.2,5.8-3.5,23.8-8.2,31.8-8.3,12.5,0,38.9-10.4,48.8-19s10.1-11.7,11.7-16.5c.5-1.6,2.7-4.8,5-7.2s5-6.1,6.1-8.3c1.1-2.2,9.4-15.2,18.4-28.6,9-13.6,17.3-26.7,18.6-29.3,1.3-2.6,3.2-5.6,4.3-6.9,1.3-1.4,1.9-5.1,1.9-9.9s.5-10.1,1.1-13c1.8-7.7-.6-27.5-4-33.1-2.6-4.3-14.7-14.7-21.4-18.4-8.6-4.6-26.6-6.7-32-3.8-2.1,1.1-2.6,1-2.6-1.4,0-3.5-4.3-12-7.5-14.9-1.4-1.3-4-2.4-5.8-2.7-2.7-.3-3.4-1.1-3-4.5,1.4-20.8-.3-39.2-4.5-47.5-1-1.9-1.8-4.6-1.8-5.8,0-2.9-3-9.4-11.7-25-5.9-10.7-9.6-15.2-20.3-25.4-16.3-15.5-29.6-32.3-37.1-47.2-4-7.8-8-24.5-8-32.8s-1.6-10.1-6.1-10.1-5.9,2.4-5.9,5.6c0,4.6-3.7,2.4-5.3-3.2-2.4-8-6.1-10.7-13-9.9-3.2.3-6.6,0-7.7-1-1.1-.8-4.6-8.5-7.8-17-3.2-8.5-7.7-18.1-9.9-21.4-4-5.9-14.9-17.1-16.5-17.1s-3.4-2.1-6.2-4.5c-5.8-4.8-25.6-12.6-32.5-13-16.2-.5-38.1,3.8-49.3,9.8-6.4,3.5-21.4,16.8-27.8,24.8-4.3,5.4-5,10.9-1.1,10.9s6.9-1.8,12.3-4c9.1-3.8,10.6-4,21.8-3.4,9.3.6,13.1,1.4,17.3,4,3,1.8,8.2,4.6,11.5,6.6,9.3,5,19.2,17.1,22.6,27.4,1.6,4.8,4.3,12,6.2,16,3.5,7.7,7.2,21.3,6.2,22.9-.3.5,0,3.5,1,6.7,2.2,8.6.3,12.2-7.8,14.9-9.3,3-10.6,2.9-18.1-2.4-3.7-2.6-7.4-4.6-8.3-4.6s-1.8-1.6-1.8-4.3-1.4-5.9-3.7-8.8c-3-3.5-5-4.6-10.1-5.1-5.1-.6-6.7-1.4-8.2-4.3-3.2-6.1-7.8-8.2-16.8-7.7-8,.5-8.2.3-10.6-4.2-1.4-2.6-4.2-6.4-6.4-8.6-2.1-2.2-5.6-7-7.7-10.7-2.1-3.7-3.8-6.7-3.8-6.9,0,0-1.6-.6-3.4-1.1l-3.2-1,.8,17.8c1.1,23.2,3.7,37,9.8,51.8l5.1,12.2,15.4,12.3c18.2,14.6,25.1,18.7,33.4,19.8,3.4.5,8.3,1.8,10.9,3,4.5,2.1,5.4,3.8,16.3,29.6,19.8,47.2,22.4,51.7,36.2,63.5,9.4,8.2,12,9.6,29,15,17.3,5.6,24.5,9,25.6,11.7.5,1.3,1.8,2.9,3,3.8,3.2,2.2,8.3,13.3,7.8,16.8-.5,3.5-10.2,8.8-16.2,9-8.2.2-14.2-5.8-14.2-13.9s-4-6.4-6.9-5.3c-1,.3-3.4,3.8-5.3,7.7-5.6,11.5-14.6,20.3-23.2,23q-7.5,2.4-12.6-.6c-2.9-1.6-5.6-2.6-6.4-2.2-.6.3-2.9,4.5-5.1,9.1-7.4,16-25.8,24.3-36.3,16.8-4.8-3.5-5-6.6-.3-17.9,3.7-9.4,3-13.1-2.2-11.7-5.8,1.4-15-11.4-17.1-23.7-1.6-9.9-3.2-12.5-7-10.4-6.4,3.4-14.2-1.1-16.3-9.4-.5-1.9-1.9-4.8-3.4-6.7-2.2-2.9-2.9-3.2-5.3-1.6-1.8,1.1-4.8,1.4-8.3,1l-5.6-.8v-6.4c0-4.3-.8-7.4-2.2-9-2.7-3-3-6.6-.5-8,3.7-2.2,5.1-6.9,3.5-11.7-2.6-7.8-15.5-17.6-18.9-14.2-2.4,2.4-1.3,17.6,1.9,25.9,1.3,3.2,1,4-1.8,6.2-2.1,1.6-3.7,2.1-4.6,1.3-1-.8-5.4-.6-11.7.3-14.1,2.1-14.6,1.6-13.9-14.1.5-10.4,1.1-13,4.8-19.5,2.2-4.2,3.8-7.8,3.5-8.2-1.6-1.6,4.5-11,23.2-35.7,7.4-9.8,10.6-15.8,8.2-15.8s-11.7,9.4-14.9,14.7c-1.6,2.6-5.4,7.8-8.6,11.8s-7.5,10.2-9.8,14.2c-2.2,3.8-5,7.4-6.1,7.8-1.4.6-1.8,1.8-1.3,4s0,3.4-1.3,4c-1.1.5-1.9,1.6-1.8,2.4.5,3.8-.3,5-3.4,5s-4.3,3-.6,5.4c3,1.9,2.4,6.4-.8,6.4s-2.1,1.1-2.6,2.6c-1.1,3.8-5.6,4.8-8.8,1.9-3.4-3-6.2-1.4-9.6,5.3-3.4,6.9-7.7,8.6-13.4,5.6-2.4-1.3-6.6-4.5-9.3-6.9-2.7-2.6-5.4-4.5-6.1-4.5s-4,1.4-7.4,3.2c-5,2.7-6.2,2.9-6.7,1.3-.3-1.1-1-3-1.4-4.3-.5-1.3-1.3-4.8-1.9-7.7-4.3-22.4-10.9-34.9-27.2-53.1-9.1-10.1-24.6-21.4-27.8-20.3-3.4,1.3-1,5,5.1,7.7,8.8,4.2,13,7.7,22.1,18.9,11,13.6,12.6,16.3,10.6,19-1.3,1.6-.8,2.7,3.2,6.2,5.3,4.8,5.9,6.4,2.9,9-2.9,2.4-2.4,5.1,1,5.6,2.6.3,3,1.3,3,6.2s-.3,6.1-1,6.4c-2.4,1.4-.8,4.8,2.9,6.1,2.2.8,4,1.9,4,2.7,0,2.6-8.5-.2-13.8-4.5-5.1-4.2-6.1-4.2-11-.5-2.6,1.9-3,1.8-6.4-1.4-3.8-3.8-4.2-5.6-2.4-11.8,2.6-9-3.2-16.8-10.9-14.7-6.4,1.6-10.1,6.2-11.4,14.1-1.1,7,.3,17.3,2.6,17.3s5.3,4,6.1,8.5l1,5.1-4.5-.6c-2.4-.3-6.4-1.4-9-2.4-6.6-2.7-11.2.3-12.5,8-1.3,7.5-1.9,8-13,13.4-8.5,4-9.9,4.5-14.6,3.2-2.7-.8-5.8-1.1-6.7-.8-2.9,1-5.3,9-4.6,15.2.6,5.3.2,6.6-3.5,10.7-4,4.6-12.3,8.3-14.9,6.7-.6-.3-2.2-3-3.7-5.8-3.2-6.2-10.4-12.2-20.5-16.5-6.7-3-8-4.2-10.4-9.8-1.4-3.5-3-8.2-3.5-10.4-.8-5.1-6.2-12-8.3-10.7-.8.5-1.3,1.8-.8,2.9.5,1,0,3.4-.5,5.1-1,2.7-2.2,3.4-6.1,3.4s-6.1-1.3-13.4-8.3c-4.8-4.5-11.5-12.3-15.2-17.1-5.4-7.4-8-9.4-14.6-12.3-4.3-1.9-8-4-8-4.6,0-2.4,17.6-12.2,23-12.8,3.2-.3,11.7-2.7,18.9-5.4,7.2-2.6,18.2-6.6,24.3-8.6,24.6-8.8,37.9-18.1,55.8-39.5,4.2-5,6.4-6.7,8.2-6.2,1.8.5,3.2-.6,5.1-4,3-5.1,6.2-6.9,26.6-14.7,9.4-3.7,12.8-4.5,14.2-3.4,1.4,1.1,1.9.6,2.7-2.4.5-2.6,2.9-5.4,7-8.3,14.4-10.4,21.4-19.2,21.6-27,0-3-15,.5-24.8,5.8-11.2,6.1-13.1,6.4-16.6,3.2-3.4-3-7.7-2.7-16.2,1.3-4.9,2.2-8.2,2.5-9.8.6-4-4.3-6.2-5-12.3-3.5-3.8,1-6.7,2.9-9.1,5.9-3,3.8-9.1,8.5-11.7,8.5s4.2-19.8,11-29.3c9.9-13.6,21.3-22.6,28.5-22.6s5.6-1,7-1.9c3.7-2.9,13.8-2.6,19.8.6,2.9,1.4,5.9,2.7,6.7,2.7s4.5,2.6,8,5.8c5.3,4.8,7,5.6,9.4,4.6,3.8-1.4,3.8-1.8-.8-7.7-2.1-2.7-4.8-8.2-5.9-12.3-1.8-5.9-3.7-8.8-9.4-14.4-4-3.8-10.7-8.5-15-10.2-4.2-1.9-9.6-4.3-12-5.4-7-3.2-34.7-1.1-49.1,3.7-13.3,4.5-15.8,5.8-30.2,15-6.6,4.3-14.7,11.2-20.3,17.3-5.1,5.6-9.8,10.1-10.4,10.1s-.6-2.7-.3-5.9c.8-5.9.8-6.1-3.2-6.1s-5.9,1.8-11.7,7.2c-12.3,11.7-28.6,24.2-44.6,33.9-14.1,8.8-33.6,25-48,39.7-7.2,7.5-13.9,17.4-18.9,28.3-1.9,4-4.5,9.4-5.8,12s-3.8,8.5-5.6,13c-1.8,4.6-3.8,8.5-4.6,8.8-1.3.5-5.9-.3-15.4-2.6-3.4-.8-3.5-.6-4,5.3-.3,3.4,0,11.4.3,17.6,1.3,19.7.3,21.9-11.4,25.4-3.2,1-3.8,1.8-3.5,4.3.2,1.8,1.6,4.3,3,5.9,1.4,1.4,2.6,3.2,2.6,4s1.3,2.9,2.7,5c1.4,2.1,3.4,7.2,4,11.2,1.6,8.8,8,24.3,13.4,32.6,8.8,13.4,23.2,19.8,34.7,15.4,3-1.1,6.1-2.1,6.6-2.1,2.7,0,0,4.3-7.2,12-11.4,12-15,17-14.1,19,.5,1.1,4.2,2.6,8.5,3.4,18.2,3.4,22.9,4.5,33,7.7,10.7,3.4,16.6,7.2,16.6,10.6s-1.4,4.8-3.2,8.3c-2.9,5.6-3,6.7-1.4,9,1.6,2.2,3.4,2.4,17.6,2.1,38.1-1.1,35.5-1.3,43.7,3,7.2,4,9.1,6.1,5.6,6.1s-2.9,1.1-4.2,2.7c-2.2,2.6-2.2,2.9,1.4,8.2,9.3,13.3,10.6,18.6,5.9,26.2-1.4,2.4-2.9,4.3-3.2,4.3s-3.5-1.4-7.2-3.4c-3.5-1.9-9.9-3.7-14.1-4.2-7.5-.8-9.4-2.1-5.6-3.5,2.2-.8,2.7-4.8.6-4.8s-2.9,1-4.6,2.1c-1.8,1.3-3.2,1.6-3.2.8s.6-1.8,1.3-2.2c1.8-1.1,1.8-4.6,0-4.6s-3.4,1.4-5.8,3.4c-5,3.8-8.5,4.2-12.2,1.4-2.4-1.8-2.4-1.9-.3-2.7,2.4-1,3.2-4,1.1-5.1-.6-.5-2.7.5-4.5,1.9-3,2.4-4.2,2.6-10.2,1.1-7.5-1.6-9.9-.6-12.2,5-2.1,5.6-8.3,5.4-20.5-.6-11.5-5.8-26.9-15.2-33.6-20.6-2.2-1.9-7.4-4.6-11.5-6.1-7.4-2.7-12.6-7.8-21-20-1.8-2.6-3.5-5-4-5.3s-2.9-3.5-5.4-7.2c-2.6-3.5-6.2-8.8-8.2-11.7-2.1-2.9-3.7-5.6-3.7-6.2s-1.1-2.1-2.6-3.5c-1.4-1.3-3-3.7-3.5-5.1-.5-1.6-2.2-4.5-4-6.6-1.8-2.1-3.2-4.6-3.2-5.6,0-2.2-4.2-6.2-9-8.6-14.7-7.5-18.2-16.8-9.1-24.2q2.7-2.2-1.8-1.4c-4.5.8-4.6.8-2.7-1.8,1.1-1.4,5.6-6.1,9.9-10.2,9-8.5,8.6-9.8-1-3.7-7.2,4.5-7.5,4.6-7.5,2.2s5.8-8.2,13.6-13.1c3.8-2.6,6.4-5.1,6.4-6.6,0-2.4-.2-2.4-5.3.2s-5.3,2.1-5.3,1.4c0-1.8,5.3-11.8,6.6-12.6.6-.3.6-2.2.3-4-.5-2.6-1.3-3.2-2.9-2.6-1.1.5-3.7,1.3-5.4,1.6-8.2,1.8-17.8,10.4-29.6,27-9.3,13-11.4,20-9.1,30.7,1.3,6.6,1.3,8.3-.3,10.6-1.9,2.9-1.6,7.2,1.1,10.6.8,1.1,2.4,3.8,3.5,5.9,7.2,14.7,56.2,72.6,61.3,72.6s1.3,5-.8,5.8c-4.3,1.6-1.8,6.4,10.2,18.6,7.8,8,13.8,12.8,16.3,13.4,2.2.5,5,1.8,6.1,2.6,2.6,2.1,19,8.5,28.3,10.9,3.8,1,12.8,2.2,20,2.7,12.5.8,13,1,13,4s4.5,7.2,8.8,7.2,3.2.5,3.5,1.1,6.1,1,12.8,1,12.5.3,13,1.1c.5.6,3,.8,5.9.3,6.9-1.1,16,1.1,30.9,7.7,6.7,2.9,17.3,6.6,23.5,8.2,11,2.9,23.2,9.3,28.3,15.2,1.3,1.4,4,3,5.9,3.5,4,1,17.6,9.8,17.6,11.4,0,2.7-21.1-4.5-40.6-13.9-34.1-16.5-59.4-22.9-81.9-20.6-5.4.5-12.6,1.9-16,3.2s-10.2,3.4-15.4,4.6c-5.1,1.3-10.2,2.9-11.4,3.5-1.1.6-13.9,1.3-28.5,1.4-61,.5-79.8,6.1-81.6,24.6-.6,6.4-1.6,8-9.3,17.1-4.8,5.6-12.2,13.6-16.3,18.1-11.5,12-17.9,20.5-21.8,29.1-3.8,8.6-4.2,12-1.4,16.6,1.6,2.9,1.4,4.2-.8,9.9-1.4,3.7-4.6,10.2-7,14.7-4.5,8.2-8.6,21.6-13.9,44.2-3.5,15.2-3.5,17.9-.2,18.7,1.8.5,2.7,2.1,3,4.8.3,3.2,1.1,4.3,3.4,4.6,2.4.3,3.5-1,6.6-7.4,1.9-4.3,6.4-10.7,9.8-14.4,3.4-3.7,8.5-9.8,11.5-13.6,2.9-3.8,6.9-7.7,8.6-8.5,2.7-1.4,2.9-1.8,1-2.2-2.7-.6-2.7-.2-.8-5.4.8-2.2,2.2-4.2,3.2-4.2,3,0,3.7-2.7.8-3.5-1.6-.3-2.7-1.3-2.7-1.8,0-1.3,3-4.5,7-7.2,3.5-2.4,1.9-4.6-1.8-2.2-3.4,2.1-4.8-.8-2.4-5.3,1.1-2.2,1.3-3.2,0-3.5-.8-.3-1.4-1.9-1.4-3.8,0-4,8.5-12.3,17.9-17.3,11.8-6.4,15.4-9.4,15.4-14.1s1.6-6.1,5.6-10.7,5.4-7.7,5.3-10.2c-.2-2.1.8-4.5,2.2-5.9,1.4-1.3,2.2-3.2,1.9-4.2-.6-1.8,1.9-11.2,3-11.2s2.2,1.1,4.2,2.6c1.9,1.4,6.1,2.9,9,3.5,2.9.5,6.1,1.4,6.9,2.2.8.6,5.9,1.6,11.4,2.1,5.4.5,10.9,1.3,12.2,1.9,3.5,1.9,5.6,0,3-2.9-2.7-3-1-4.2,5.8-4.3,2.7,0,5.8-.8,6.9-1.8s4.6-2.4,7.8-3.2c5.1-1.4,6.1-1.3,8.6,1.1,3.2,2.9,21.8,5.1,39.7,4.5,11.5-.3,14.1,1.1,6.7,3.7-2.7,1-7.7,3.5-11,5.6-3.4,2.1-6.7,3.8-7.5,3.8s-4,1.4-7.2,3.2c-4.5,2.6-6.9,3-11.2,2.6-3-.5-10.6,0-16.6.8-6.2.8-15.8,2.1-21.4,2.7-15.7,2.1-37,11.7-42.4,19.2-1,1.4-5.1,5.9-9,10.1-4,4.2-9.3,11.4-11.7,16.2-6.1,11.5-7.7,13.4-11.4,13-2.6-.3-3.5,1-7.2,10.2-2.2,5.9-6.1,14.2-8.5,18.6-2.2,4.3-6.9,13.8-10.2,20.6-3.4,6.9-8.5,17.1-11.2,22.6-6.4,12.3-6.7,16-1.3,19,4.2,2.4,5,4.2,2.7,5.6-3.8,2.4-7,12.3-7.2,21.9,0,9.9,0,10.1,6.4,19.4,9.1,13.1,19,23,26.7,26.7,9,4.3,24.6,4.5,35.4.5,4-1.4,10.6-4,14.6-5.3,15.7-5.4,41.3-18.7,41.3-21.3s.8-2.7,1.6-3.7c2.4-2.4-1.3-4.3-7-3.4-6.6,1.1-22.4,1-28.6,0-10.7-1.8-11.5-2.1-10.7-4.2,1-2.6-5.3-5-10.2-4-3,.6-3.7.3-3.2-1.6,2.6-9.6,2.6-9.9-1.4-9-3.5.8-4,.5-5.3-4.2-.8-2.7-1.3-5.4-.8-6.1.3-.6-3.2-1.1-8-1.1-10.2,0-11.7-2.2-4-5.9,5.9-2.9,5.3-5.4-1.3-5-2.7.2-4.8,0-4.8-.3s1.1-3,2.7-5.9c1.9-4,4.8-6.4,11.7-10.2,17.9-9.9,24.5-16.3,15.7-15.4l-4,.5,2.7-2.9c1.4-1.6,5.3-4.5,8.6-6.4,5.6-3.2,10.6-7.8,10.6-9.9s-2.7-2.6-5.9-4.5c-4.8-2.9-5.9-4.2-5.9-7.2s1.1-4.3,8.8-8.5c6.1-3.4,11.2-5.1,17.3-5.8,4.8-.5,8.8-1.6,9-2.2,0-.6-1.8-1.9-4.2-2.7l-4.5-1.4,3.4-2.2c1.8-1.3,7-3.7,11.5-5.6,4.6-1.9,9.6-5.1,11.7-7.4,1.9-2.2,4.5-4,5.9-4,4.2,0,6.9-1.6,8-4.6.6-1.8,5.1-5,10.9-7.8,5.3-2.7,10.6-5.6,11.5-6.4,1.3-1.1,1.8-.6,1.8,1.8s.5,4,1.1,5c1.4,2.1,10.9,4,21.6,4s34.1-4.8,36.6-6.7c2.2-1.8,27.4-2.9,29.6-1.3,1.4,1.1,1,2.4-3,7-2.7,3-4.8,6.1-4.8,6.6,0,1.1-16.6,13.4-23.7,17.3-4.8,2.7-6.9,5.1-10.4,12.3-6.2,12.5-7.8,23-5,33.9,2.7,10.2,7.7,15.7,20,21.9,4.8,2.4,9,5,9.3,5.4,1,1.6-5.1,3.4-15.2,4.3l-9.3,1-4.3,8.6c-2.4,4.8-5.1,13.4-6.4,19.7-1.9,10.2-1.9,11.5.3,17.1,3.2,8.5,6.2,10.7,15,11.5l7.5.6v8c.2,13,.3,13.4,7.8,21,13.3,13.4,24.2,18.9,43.5,21.6,6.4.8,19.8-1.4,31.7-5.6,7.7-2.6,29.3-13.4,37.9-18.9,5.3-3.4,8-4.2,13.6-4.2,9.1,0,10.4-3,4.6-10.2-2.6-3.2-5.3-9.4-7.5-17.6-3.8-13.8-4.8-16-9.9-22.4-5.1-6.6-9.4-8.2-26.1-9.8-12.8-1.1-16.3-1.1-22.4.6-9.8,2.9-10.2,2.7-10.2-1.8s-1.8-9.6-7.4-16.8c-2.7-3.5-4.5-7-4.2-8.2.3-1,0-1.8-.8-1.8s-1.1-1.9-.6-5.3c.6-4.3,0-7.4-3.5-15.7-2.4-5.6-6.1-13-8-16.3l-3.8-5.9,11-1c10.1-1,20.6-3.4,37-8.5,3.2-1,10.1-1.9,15.2-1.9,10.2,0,19.5-1.4,36.5-5.4,10.9-2.6,11-2.6,13.6,0,8.2,8.3,18.7,9.3,29.6,3,4-2.2,7.7-4.2,8-4.2s2.9,1.8,5.8,4c3.5,2.7,5.9,3.7,7.7,3.2,4.8-1.4,23.5-.8,32,1.3,28.6,6.9,34.9,7.4,54.2,3.7,30.6-5.8,36.6-7.2,40.2-9.8,2.7-1.8,4.3-2.2,6.1-1.3,1.3.6,7.4,1.6,13.3,2.2l10.9,1,7.8-8.3,9.1,3.2c14.7,5.1,35.2,7.2,42.4,4.2,3.8-1.6,5.4-1.8,7.7-.5,1.6,1,11,1.8,21.3,2.2l18.4.6,2.4,5.4c1.4,3,4.5,6.9,7.2,8.6,2.6,1.8,4.6,3.8,4.6,4.8s-3,2.7-6.9,4.2c-6.2,2.2-7.7,3.5-14.4,13.6-9.4,13.8-10.4,19.2-6.6,36.3,1.4,6.4,2.6,13.8,2.6,16.2v4.3h-11c-16.2,0-23,4-45.3,26.4-6.1,6.1-13.1,12.2-15.7,13.4-6.2,3.2-9.3,5.9-9.3,8.6s4,4.8,9,8,11,7.5,13.6,9.4c8,6.2,22.9,13.4,33.9,16.6,13,3.7,27.2,4,40.8,1.1,12.8-2.7,16.3-4.5,25.1-11.8,6.6-5.6,8.8-8.2,16.6-18.9,2.9-3.8,6.2-18.7,5.6-23.7-.5-3.8.3-5.4,7.4-14.1,3.5-4.3,9.1-16.8,10.2-23,2.9-15.2-5.1-29.1-19.2-33.6-6.7-2.1-12.5-6.1-12.5-8.5s3.2-2.9,6.9-5c11.4-6.1,24.3-26.2,25.8-40.2,1.3-12.6-5.4-26.1-15-30.1-6.4-2.7-8.8-2.4-17.6,1.4-9.3,4.2-16.5,4-17.1-.3-.5-3.2.6-3.7,15.7-5.8,4.8-.6,11.4-1.9,14.6-2.7,7.5-1.9,23.7-11.8,24.6-15.2.6-2.2,1.4-2.4,7-1.6,7,1,13.3,4.2,15.5,7.7,1.1,1.8.8,2.9-1,5-2.2,2.6-2.2,2.7.3,4,1.4.8,3.7,1.4,5,1.4,2.6,0,5.8,3.7,5.9,6.7,0,1.1,2.7,4.5,6.1,7.4,3.4,2.9,5.9,6.1,5.8,7.2-.5,3.2,1.4,5.3,5.3,5.3,13,0,18.1,6.4,8.3,10.2-2.9,1.1-5.3,2.6-5.3,3.2,0,1.6,5,1.4,6.1-.2,1.1-1.8,17.8-1.8,22.9,0,4.5,1.6,8.5,8.3,8.5,14.6s.6,4.3,1.4,4.6c.8.5,3.5,5,5.9,9.9,2.6,5,5.3,9.4,5.9,9.9.8.5,1.4,2.2,1.4,4s1.3,3.7,4.3,5.3c2.4,1.1,7.5,5,11.4,8.5l7,6.4-1.6,5.1c-1,3.2-4.6,8-9.3,12.6-7.8,7.7-8.8,10.2-3,8.8,5.3-1.3,4,2.7-2.7,9.4-6.1,5.9-6.1,8.3,0,6.7,1.8-.5,3.2-.5,3.2,0,0,1.8-3.4,6.9-7.5,11.5-2.4,2.7-4.5,5.6-4.5,6.2,0,2.4,3,3,4.3,1,.6-1.1,2.1-2.2,3.2-2.2,3,0-2.1,8.8-8.6,15.2-5.8,5.6-7.4,11.4-3,11.4s38.4-25.9,45-35.8c1.8-2.7,5.1-7.5,7.4-10.7,11.5-16.2,16-34.6,11.4-45.8-1.4-3.2-2.1-9-2.1-15.7,0-12.8-4.2-23.7-14.9-39.2-7-10.2-10.1-12.5-21.6-16.5-5.6-1.9-6.9-2.9-7.5-6.1-1.1-5.9-6.4-14.6-25.3-41.8-9.6-13.8-19.8-20.8-35.7-24-2.6-.5-9-2.6-14.1-4.3-7.4-2.7-12-3.4-21.9-3.5-6.9,0-14.6.5-17,1.1-3.8,1.1-4.8,1-7.8-1.9-4-3.7-4.6-3.8-11.8-1.4-12.3,4.2-18.6,3.7-9.6-.8,2.4-1.1,7.4-3.7,10.9-5.6,11-5.8,24.2-7.8,43.7-7,17.3.8,23.5-.2,23.5-3.7s3.2-3.5,9-1.9c6.6,1.8,6.9,2.1,3.4,4.5-4.3,3-2.2,5,4.2,4,4.3-.6,5.6-.3,7.2,1.8,1.4,2.1,3.7,2.7,9.4,3,6.7.3,7.5.8,7.2,2.9-.3,2.2.2,2.4,4.6,1.8,2.7-.5,10.1-.5,16.2,0l11,.8,4.5,9.1c2.4,5,6.9,11.7,9.9,14.7,5.3,5.4,11.5,15.4,10.2,16.5-.3.3-2.2,0-4.2-1-1.9-.8-3.8-1.3-4.3-.8-1.3,1.3.6,5,3.2,5.9,2.4,1,11.8,11.2,16.5,18.1,1.6,2.4,4,3.5,8.3,4.3,3.4.5,6.1,1.1,6.1,1.4,0,1.9-4,9.4-5.8,10.9-2.9,2.4-2.9,5,0,6.1,1.4.6,3,0,4.5-2.1,4.3-5.8,4.3.2-.2,9-4,7.8-4.2,8.8-2.1,9.9,1.3.6,2.2,2.4,2.2,3.7s.8,2.7,1.6,3c1.3.5,1.3,1.8,0,6.7-2.6,9.6-2.2,11.5,1.8,11.5,5.8,0,13.3-6.6,19.7-17.3,12.3-20.5,13.8-27.8,8.3-44.3-1.9-5.9-2.9-11.4-2.6-14.4l-1.9-1ZM1099.9,148.4c-1,.3-1.4-.2-1.1-1.1.6-1.8,2.4-2.1,2.6-.5,0,.5-.6,1.3-1.4,1.4v.2ZM1133.6,146.7c-.5,1.1-1.9,1.9-3.4,1.9s-2.4-.6-1.9-2.1c.5-1.3-.6-3.2-2.9-5.3-2.1-1.8-3.4-3.5-2.9-3.8,1.4-1.4,7.8,2.6,7.8,4.8s1,2.2,1.9,2.2,1.6.8,1.1,1.9l.2.3ZM1083.9,209.9c-.8,0-1.3-1-1.3-2.1s.6-1.8,1.3-1.3c.6.5,1.3,1.4,1.3,2.1s-.6,1.3-1.3,1.3ZM903.2,241.2c3.4-2.4,5-.5,2.2,2.7-1.8,2.2-5.3,2.6-5.3.6s1.3-2.2,3-3.4h0ZM889.9,247.6c.5-.5,1.8-.3,2.6.6,2.1,2.1,1,3.2-1.6,1.6-1.1-.6-1.4-1.6-1-2.2ZM882.3,248.6c1.3,0,2.1,1.3,2.1,3.4,0,4-.8,4.2-2.6.8-1.9-3.5-1.8-4.2.6-4.2h-.2ZM876.2,185.4c.8-.5,1.3-3.8,1.3-7.4s.6-6.6,1.4-6.6,1.3,2.2.8,7.5c-.8,7.5-2.6,11.2-4.2,8.6-.5-.8-.2-1.8.5-2.2h.2ZM505.3,429.2c1.1-3,5-9.9,8.6-15.4,6.6-9.6,18.4-21.3,19.8-19.8.5.5-.3,3.8-1.8,7.7-1.6,4.6-4.2,8.2-7.5,10.9-5.6,4.3-6.2,6.4-2.6,7.4,4.2,1.1,2.1,7.7-3.2,10.2-5.4,2.6-6.1,6.2-1.3,6.2s4.2,3.2-1.1,6.6c-6.2,3.8-8,3.5-10.7-2.6-2.1-4.8-2.2-5.9-.5-11l.2-.2ZM557,520.6c-1.6-2.2-3.8-5.3-5.3-6.7-1.3-1.4-5.9-7-10.2-12.6-4.3-5.4-10.2-12.6-13.3-16-8.3-9.4-20-26.2-20-28.8s6.4-3.7,15.8-.3c9.6,3.5,11.2,4.5,11.7,8.3.3,2.1,1.9,3.2,6.2,4.3,5.9,1.4,9,4.6,4.5,4.6s-4,.8-5.8,1.9l-3.4,1.9,3.7,1c2.1.5,5.4.6,7.7,0,3-.6,4.2-.2,5.3,1.8,1.9,3.5,1.8,5.8-.5,5-1-.3-3.2.3-4.8,1.4l-3,2.1,3,1.1c1.8.6,4,.5,5.4-.2,2.4-1.3,6.7-.5,6.7,1.3s-2.1,1.6-4.6,2.6c-4.5,1.6-6.1,4.5-3.4,6.2.8.5,2.7,0,4.3-1.3,3.7-2.6,5.6-2.6,8.3,0,2.4,2.6,1.6,4.5-1.9,4.5s-4.8,2.2-3.4,3.7c.5.5,3.2.8,6.1.6,4,0,5.6.5,6.6,2.4,1.1,2.2,1,2.6-1.6,2.6s-4,.6-5.1,1.3c-3,2.1,1,4.2,6.4,3.2,4.8-1,7.5.6,10.2,6.1l1.8,3.5h-6.1c-3.7,0-6.2.5-6.7,1.4-.3,1.1,1,1.8,3.8,1.8s5.3.6,6.4,1.3c1.3.8,2.6.6,3.7-.2,1-.8,1.9-1.1,2.1-1,.2.3,1.4,1.9,2.9,3.5,1.7,2,1,3.7-2.2,5-2.7,1.1-5,1.9-5.1,1.9-6.9-1.4-21-11.7-26.2-19.4v.2ZM658.6,580.3c-1.1,3.7-3.5,6.2-5.3,5.6-.8-.2-3.5-.8-6.2-1.3-4-.6-4.8-1.3-4.2-3.4.5-1.9,0-2.6-1.9-2.6s-3.4,1-4.3,1.9c-1.8,2.1-10.7,2.9-10.7.8s1.3-2.6,2.7-4.3l2.7-3.2-2.9-.5c-1.6-.3-4.3.8-5.9,2.4-3.5,3.2-9.1,3.2-9.8,0-.2-1.1,1.1-2.7,3-3.7,1.9-.8,3.4-2.2,3.4-2.9,0-2.2-4.8-1.6-8.3,1.3-6.6,5.1-11.5,2.2-5.6-3.4,3-2.9,3.4-3.4,1.3-4.2-1.4-.5-3.8.3-6.1,1.9-2.7,1.9-5,2.6-7.2,2.1-5.1-1.3-5.4-3.2-1.1-6.7l3.8-3.2-4,.5c-2.2.3-5,1-6.2,1.6-1.8.8-3.5-.2-6.4-3.2-4.5-4.8-5-6.7-1.9-6.7s5-1.4,8.6-3.4c3.7-1.8,8-3.4,9.8-3.4,4.2,0,19.4,7.8,28,14.6,7.4,5.6,17.1,11.4,28.5,16.6,6.2,2.9,7,3.7,6.2,6.4v.2ZM739.5,603.6c-1,2.4-2.2,4.3-2.9,4.3-1.4,0-3.5-2.6-4.3-5.3-.3-1.1-2.4-2.1-5.1-2.2-5.3-.3-15.7-2.4-16.6-3.5-.3-.3,0-1.9.8-3.5s1.1-3.4.6-4.2c-1.6-2.7-4.5-1.1-6.9,3.7-1.6,3-3.7,5.1-5.4,5.4-3.5.5-3.5-.8-.2-5.1,1.4-1.8,2.6-4.8,2.6-6.7,0-3-.8-2.4-7.7,5.1-7.5,8.3-11.4,9.8-7.5,3,2.4-4.3,6.1-13.4,6.1-15s-1-1.1-1.9-1.1-4,4-6.6,9.1c-5.1,10.1-6.1,10.7-12.3,9.8-5.6-.8-5.6-3.2.3-12.3,2.6-4,5-9.3,5.4-11.7,1-5.1,2.6-6.4,5.1-4.3,1,.8,3.4,1.1,5.3.6,2.7-.6,4.2,0,7.4,3.4,2.2,2.2,4.6,3.8,5.3,3.4.8-.5,5.8,0,11,1.1,5.3,1.1,12.6,2.4,16.3,2.9,5.1.6,7.5,1.9,10.9,5.4,4.6,5,4.8,8,.8,17.4l-.5.3ZM745.8,611.9c-2.9,0-3.2-1-1.3-4,1.1-1.8,1.4-1.8,2.6,0,.8,1.1,1.3,2.4,1.3,3s-1.1,1-2.6,1ZM499.4,758.3c-2.2,0-2.7.6-1.9,3.2.6,2.4,0,3.8-2.6,5.9-5.1,4-4.2,6.2,1.3,3,5.6-3.4,6.2-1.3,1.1,4-3.5,3.7-3,4.5,1.9,3.8,2.6-.3,1.9,1.9-1.8,5.3-1.9,1.8-3.2,4.3-3,5.9.2,1.8-1.6,4.6-5.1,8-3,2.9-7,6.7-9,8.5l-3.5,3.2v-3.2c0-2.1,1.6-4.3,4.3-6.4l4.3-3.2-4.3.8c-5.3,1-5.4,0-1.6-13.1,7.2-24.2,22.6-44.5,22.6-29.9s-.6,4-2.7,4v.2ZM547.7,684.1c0,1.6-1.3,2.2-3.5,2.2s-3.4.6-3.4,2.7-1,2.7-1.9,2.7c-2.2,0-2.7,3.4-.6,4.6,1,.5,1,1.8,0,3.4-1,1.9-2.9,2.6-6.4,2.6s-5.8.5-6.7,1.1c-2.9,1.9-.5,4.2,4.5,4.2s4.3.5,3.8,1.9-2.7,2.1-7.2,2.1-6.6.5-6.6,2.1,1.6,2.4,4,2.9c6.9,1.4,2.9,3.4-5,2.4-6.7-.8-7.4-.6-6.9,1.6.3,1.8,1.9,2.6,5.4,2.9,9.6.8,3.2,4.3-8,4.3s-4.5.5-4.2,2.2c.2,1.3,1.3,2.4,2.4,2.6,1.1,0,2.4.3,3,.3s-.3,1.6-1.9,3.5c-3.7,4.2-7.7,4.3-11.5.3-6.1-6.6-2.9-12.2,20.2-34.9,11.5-11.4,17.1-18.1,19.5-22.9,1.8-3.8,4-7,4.6-7,3,0,6.9,4,6.6,6.9-.2,1.6-.3,4-.5,5.4l.2-.2ZM639.7,659.1c-2.2,8.6-2.7,9.4-6.9,10.6-4,1.1-4.8,1-7-2.2-2.7-3.8-5.6-3.5-4.3.5.5,1.3.2,2.7-.5,3.2-.6.5-2.1-1.8-3.2-4.8-2.1-6.1-4.5-6.6-4-.6.5,5-1.6,4.6-3.7-.6-2.4-6.7-3.5-8.3-4.8-7.7-1.8,1-1.1,7.2,1.3,12,2.2,4.5,1.9,6.6-1.1,6.6s-2.4-2.9-3.4-6.4c-2.4-9.6-2.6-9.6-4.2-9.6s-1.3,2.4-.8,8c.3,4.3.5,8,.2,8-1.3,0-4.6-8.2-4.6-11s-3.4-7.2-5-5.8c-.5.5,0,3.7.8,7.2,1,3.5,2.1,7.7,2.4,9.3.5,2.1,0,3-1.3,3-3.2,0-4.6-2.9-5.8-10.4-.6-5-1.4-6.9-2.9-6.9s-1.9,1.4-1.3,8.3l.8,8.3-3.8-8.3c-2.2-5-4.6-8.3-5.9-8.3-2.7,0-2.6,4.2.3,9.1,1.3,2.2,1.9,4.3,1.4,5-1.8,1.8-6.1-.8-6.9-4.2s-2.7-4.3-4.2-1.9c-1.8,2.9-4.8,1-8.6-5.6-2.2-3.8-4-8-4-9.3,0-5.9,17.3-10.6,30.2-8.2,7.8,1.4,30.7.2,37.6-2.1,1.9-.6,8.2-.8,13.9-.3,12.5,1,12.6,1.1,9,15.4l.2-.2ZM645.3,667.9c-.5-.6-.2-1.6.6-2.1s1.3,0,1.3,1.3c0,2.4-.8,2.7-1.9.8ZM648.7,660.4c-.8.5-1.3-.6-1.3-2.6s.6-3.7,1.3-4.2c.8-.5,1.3.6,1.3,2.6s-.6,3.7-1.3,4.2ZM538.6,774.7c.6-1,3.4.8,7.5,4.6,5.3,5,6.4,6.4,5,7.7-2.7,2.7-8.2,3.4-10.6,1.6s-3.7-11.2-1.9-13.9ZM524.5,888.7c-5.9,0-8.5,1.4-7,3.8.5.6,2.9.6,6.1,0,4.5-1,5.8-.8,7.8,1.3,3,3,2.2,4.2-2.7,4.2s-10.9,2.4-9.9,4c1.3,2.1,7.5,1.4,13.8-1.3,6.4-2.9,9.4-3.4,9.4-1.3s-3.5,2.4-8,3.5c-5,1.4-8,2.9-8,4.2,0,2.1,3.2,1.4,9.8-1.9,4-1.9,7.7-1.8,14.7,1,3.2,1.1,3.5,1.8,1.9,2.7-1.1.6-4.2,1.3-6.9,1.3s-5.3.6-5.9,1.6c-1,1.6,7,1,18.1-1.4,4.8-1.1,6.2-1,7.5.6,1.9,2.6,7.7,1.9,7.7-.8s7-3.5,9-1.6c1.6,1.6-15.5,10.6-26.2,13.9-10.6,3.2-19.2,3.7-25.9,1.4-7.7-2.7-18.4-11.8-24.5-20.8-2.6-3.8-5.6-7.8-6.7-8.8-2.4-2.1-2.6-6.1-.6-14.2,2.2-8.6,5.1-9.6,12.5-4.3,6.1,4.3,7.7,7.7,4,7.7s-1.9.8-1.9,1.8,2.4,1.8,8.2,1.9c9.6.3,12.5,1.6,3.4,1.6h.6ZM548.5,811.3c-3.7,1.8-7.7,2.7-9.4,2.2-1.6-.5-4.6,0-6.6.6-4.6,1.8-4.8,4.6-.3,3.5,2.7-.6,3.4-.3,3.4,2.1s.5,2.6,2.4,1.9c8.5-3.5,9.3-1.6,1.8,4.3-7,5.8-14.7,9.3-15.8,7.4-1.3-1.9-9.9-.6-9.1,1.4.3.8,2.6,1.3,5.3,1.1,3.4-.3,5,.2,5.6,1.9.5,1.3.6,2.4.5,2.6-.2.2-3.8,2.2-8,4.6-4.2,2.4-8,4.8-8.3,5.4-1.4,2.2,2.2,2.7,5.6.6,4.5-2.9,6.1-1.1,2.1,2.1-3.8,3-3.2,3.2-12-.8-5-2.2-6.7-3.7-6.1-5,1-1.8,10.4-17,13.4-21.8,6.2-9.8,9.8-16.5,9.8-18.2s4.8-14.2,6.1-15.4c.3-.3,2.9,1.6,5.9,4.3,5.6,5,9.3,5.9,15.2,3.5,3-1.1,3.4-1,3.4,1.8s.6,3.7,1.6,4.6c1.8,1.9,2.2,1.4-5.9,5.3l-.3-.3ZM645,731.6c-4.2,1.6-4.6,1.6-8.3-1.9-4.8-4.6-6.1-3.7-3.4,2.6,1.9,4.3,1.9,5,0,5.6-1.1.5-3.5-.6-5.6-2.7-5.9-5.6-7.8-3.5-2.7,2.9l2.7,3.5-2.9,2.4c-2.9,2.2-3,2.2-8.2-1.8-2.9-2.2-5.4-4.6-5.9-5.3-.5-.6-1.3-1-2.1-.5-1.6,1,1,5.8,4.5,8.6,2.4,1.9,2.4,2.2.5,3.8-1.8,1.4-2.9,1-6.9-3-2.7-2.6-5.4-4.5-6.1-4-1.4.8.8,5.4,4.6,9.6,2.4,2.6,2.6,3.2.8,4.3-3,1.9-4.5,1.6-10.6-2.7-5.6-4-10.1-4.5-8.6-.8.3,1,3.2,3.2,6.2,5,7.7,4.3,2.9,5.3-5.9,1.1-4.8-2.2-6.9-2.6-8-1.4-2.2,2.2.8,5.4,6.4,6.4,2.4.5,4.2,1.4,3.8,1.9-.3.6-2.1.6-3.7,0-11.7-4.3-15.5-5-15.5-2.2s2.9,2.9,6.7,4.2c6.7,2.2,8.8,4.6,4,4.6s-5.8-1.1-9.6-2.6c-5.1-1.9-7.2-2.2-7.8-1.1-1.3,2.1,1.3,5,4.5,5s3.8.6,5.3,1.4q2.6,1.4.2,3.4c-1.3,1-4.3,1.9-6.4,1.9-5,0-13.6-5.6-15.4-10.1-3-8,5.4-23.5,18.7-34.4,13-10.6,15.8-12.6,19.2-14.1,9.9-4,49.8-8.6,54.2-6.4,1.3.6,2.4,2.1,2.4,3s1.4,3.7,3.4,5.8c3.7,4.3,3.2,5.1-4.3,8.2l-.3-.2ZM658.1,717.4c0-3.2.2-3.4,1.3-1,.6,1.4,1.1,3,1.3,3.7,0,.6-.5,1-1.3,1s-1.3-1.6-1.3-3.7ZM663.5,730.8c-2.4,2.2-4.2,2.9-4.2,1.4s4.3-7.2,5.4-7.2c2.1,0,1.3,3.5-1.3,5.8h0ZM667.4,716.9c-.8,1.3-1.4.6-2.1-2.4-.5-2.4-.6-4.6-.2-5,1.3-1.3,3.5,1,3.5,3.4s-.5,3-1.1,4.2l-.2-.2ZM1379.4,880.7c.8,0,1.3.6,1.3,1.3s-.6,1.3-1.3,1.3-1.3-.6-1.3-1.3.6-1.3,1.3-1.3ZM1405.8,855.9c.8,10.7-7.8,27.4-23.8,45.1-3.7,4.2-7.4,7.7-8.2,7.7-1.8,0,.3-3.4,7.4-12,3.4-4,6.1-7.7,6.1-8.3,0-2.2-3-.8-6.7,3.4-2.1,2.4-4,4-4,3.5,0-2.9,5.6-10.7,11.2-16,6.6-6.1,7.7-9.4,2.2-6.6-4,2.2-3.4.5,2.7-6.7,3-3.5,5-7.2,4.5-7.8-.5-.8-.5-2.9,0-4.8.6-2.7,1.6-3.2,4.5-2.9,3.2.3,3.7,1.1,4,5.4h.2ZM1381.6,870.2c.3-1.4,1.3-2.7,1.9-2.7,1.4,0,1.4.5.3,3.2-1.1,3-3,2.6-2.2-.5h0ZM1386.6,853.9c1.8-2.4,4.8-3.2,4.8-1.1s-1.1,2.1-2.4,3.4c-4.2,3.7-5.8,2.2-2.4-2.1v-.2ZM1358.6,790.3c.6,2.4,1.1,2.6,3.5,1.3,2.9-1.6,2.6-4-.6-4s-2.2-2.1,1.4-4.5c4.2-2.7,5.8-2.7,14.2.5,5.1,1.9,8.2,4.2,10.7,7.8,6.4,9,12.3,20.5,14.2,27,1.8,6.2,1.1,15.8-1.1,19.5-1.4,2.2-12.8,3.7-13.9,1.8-.5-.8,1-2.6,3.5-4,10.6-6.2,9.8-8.2-1.6-4.2-6.4,2.2-8.5,2.6-10.1,1.3-4.6-3.8-1.4-8.5,8.8-13.3l5.9-2.9-5.3.8c-2.9.5-7.5,2.1-10.4,3.5-4,2.1-5.6,2.2-7,1.1-3-2.6-2.2-3.7,5.3-8,5-2.7,7-4.6,6.6-6.1-1-2.4-.3-2.4-7.4.6-16.5,7.5-19-2.2-2.7-10.4,5.4-2.7,8.2-6.7,3.4-4.8-1.3.5-4.8,1.9-8,2.9-3,1.1-6.1,2.6-6.4,3.2-1.9,3.2-4.3.8-4.8-5-.5-6.4.6-9.1,1.9-4.5l-.2.2ZM1330.1,765.7c-1,1.1-2.7,1.9-3.8,1.9-1.8,0-1.8-.3.5-1.9,3.4-2.6,5.6-2.6,3.4,0ZM1272.3,703.1c2.7-2.7,10.4-2.7,12.6,0,1,1.1,2.7,1.9,4,1.9s5,1.1,8.2,2.7c3.2,1.4,7.4,2.7,9.3,2.7,6.7,0,15.4,4.2,21,9.8,8.2,8.3,17.9,25.6,22.9,40.3l4.3,13-3.5,3c-7.2,6.2-12.8,2.7-6.2-4,2.7-2.9,3.7-4.8,3-6.1-.8-1.4-2.4-.6-6.6,3-3,2.7-6.1,4.5-6.9,4-2.4-1.4-1.6-3.2,2.6-5.3,5.3-2.7,5.8-8,.6-6.7-3.8,1-4.2,0-1.3-4.3,1.1-1.6,1.8-4,1.3-5.3-.6-1.8-2.4-.6-8.5,5.4-7.7,7.5-13.6,9.9-13.6,5.4s4.6-8.8,9.6-14.4c1.6-1.9,1.9-3,1-4-1.4-1.4-3.5.5-11.8,10.9-3.7,4.6-5.6,5.3-8,2.2-1.4-1.6-1.1-1.9,1.1-1.9s2.9-.8,2.9-2.6c0-2.9,4.8-13,6.9-14.1,1.9-1.1,1.4-5.9-.5-5.9s-13,18.2-13,21.1-1.9,1.8-4.5-1c-3.4-3.7-2.7-6.7,2.4-13,4.8-5.9,6.2-12.5,2.7-12.5s-2.2,1.1-2.7,2.2c-.5,1.3-2.7,4.8-5.3,7.7l-4.5,5.3-2.4-4.8-2.2-5,4.2-5.3c4.6-5.9,5-6.9,2.2-6.9s-3.2,1.8-4.8,4-3.2,4-3.8,4-3.7-2.7-7-5.9c-5.6-5.3-6.7-5.9-11-5.1-2.6.5-4.8.3-4.8,0,0-1.3,7.4-12,10.1-14.6l.2-.3ZM1258.6,707.5c.3-3.4,1.1-4.5,3.4-4.8,3.5-.5,3.7.2.6,5.3s-4.6,5-4.2-.5h.2ZM1144.3,683.3c1-9.9,2.2-12.8,5.8-12.8s1.8,1,1.1,3.7c-.5,2.1-1.3,7.4-1.6,11.8-.5,5.1-1.4,8.5-2.6,9-3,1.1-3.5-1.6-2.6-11.7h-.2ZM1139.2,673.1c2.4,0,2.6,5.4.3,7.7-.8,1-1.9,4.3-2.2,7.7-1,8-2.7,6.1-2.7-3s1.8-12.3,4.6-12.3h0ZM1158.6,630.2c-1.1,4.2-4.2,5.8-4.2,2.1s2.2-5.8,4.2-5.8.5,1.6,0,3.5v.2ZM1261.1,601.7q-3.7-7,1.1-7c4.8,0,8,4.2,8,11.5s-2.6,8.5-9.1-4.5ZM1361.5,572.7c-1.1.5-1.9,2.2-1.9,4,0,3.5-1.4,4-5.3,1.6-3.8-2.4-5.3,0-1.8,3,1.6,1.3,2.4,2.9,1.8,3.2-.6.5-1.6,0-2.1-.6-1.3-1.9-3.4-.3-3.4,2.7s-2.2,3.4-4.3,0c-1-1.4-2.4-2.7-3.4-2.7-2.1,0-2.1.2-.3,4.8,1,2.7,1,3.8-.3,4.6-2.6,1.6-3.4,1.4-6.1-1.3-1.3-1.3-4.8-2.9-7.5-3.2l-5.1-.8,1.8,10.6h-4.8c-2.6,0-9,.6-14.1,1.6-8.5,1.4-9.4,1.3-11-.8-2.2-3-5.1-1.4-4.5,2.4s-.5,3-1.9,3.4c-1.3.3-2.2-.2-1.9-1.1.8-3.5-2.9-2.6-5,1.3-3,5.9-4.6,5.1-5-2.6,0-3.7-.3-7.2-.3-7.8-.3-2.6,18.1-13,39.8-22.6,20.3-9,21.1-9.3,28.5-13.4,10.1-5.6,13-5.4,15,1.3.8,2.9,2.4,6.1,3.4,6.9,2.4,1.9,2.2,5.1-.2,6.1l-.2-.5ZM1417.1,496.1c-5.6,9.4-6.7,10.6-9.4,9.9-2.1-.5-3-.2-3,1.1s.6,2.2,1.3,2.7c2.4,1.4-1.4,7.5-4.5,7-2.4-.3-2.7.3-2.4,3.7.2,2.2-.6,5.1-1.8,6.6-1.8,2.2-2.4,2.4-4.6,1-1.4-1-2.9-1.6-3.4-1.6-1.4,0-.6,3.2,1.4,5.6,1.9,2.2,1.9,2.7,0,5.8-1.8,2.7-2.7,3.2-4.8,2.1-5.3-2.9-7.2-.8-3.2,3.4,1.9,1.9,1.9,2.6.3,5.4-1.1,2.2-2.6,3.2-4.2,2.7-3-.8-4.5,1.3-2.4,3.8.8,1.1,1.1,2.6.6,3.2-.5.8-2.6,1.4-4.8,1.4-5.6,0-6.9-4.2-3.5-12,1.4-3.4,3.4-8.6,4.3-12,3.8-13.3,10.2-26.7,18.1-38.4,2.1-3.2,3.8-6.1,4-6.7,0-.5,2.6-3.8,5.8-7.5l5.8-6.6,7.8,1.9c5.4,1.3,8,2.6,8.3,4.2.3,1.3-2.4,7.2-5.9,13l.2.3ZM1395.5,424.4c.8-2.4,10.6,2.7,17.4,9.3,5.1,4.8,5.9,6.2,4.6,7.7-1.3,1.4-1.3,1.9,0,2.4,2.4.8,5.6,4.3,5.6,5.9s-1.3,1.6-2.7,2.1c-3,.8-3.5,3.7-.6,4.8,1.1.5,1.9,2.2,1.9,4s-1,4-1.9,4.8c-2.7,2.2-2.6,3.5.8,4.5,1.6.3,2.4,1.4,1.9,2.1-1.1,1.8-6.9,1.6-11.7-.3-3.8-1.6-4.6-3.5-2.2-5.9,1.1-1.1.6-1.9-1.3-3-3.5-1.9-3.5-3.7,0-4.8,3.7-1.1,3.4-2.9-1.1-4.3-3.5-1.3-3.8-1.9-3.5-7.4,0-3.4.6-6.4,1.1-6.9.5-.5-.3-2.4-1.8-4.2s-2.6-4.2-2.6-5.1-1-2.2-2.2-3c-1.1-.6-1.9-1.9-1.6-2.7l-.2.2ZM1370.7,427.3c1.1-2.1,2.1-5,2.1-6.2s.6-2.2,2.4-1.4c1.3.5,3.4,1.3,4.6,1.6,2.7.8,3,3,.5,3s-3.8,2.6-1.9,4.8c1,1.1,4.5,3.5,8,5.3,5.4,2.7,9.1,6.4,9.1,9.1s-7.5,0-9.9-1.8c-.8-.5-4.8-2.1-9-3.5-8.3-2.7-9.1-4.2-5.6-10.7l-.3-.2ZM1368.7,455.6c1.8-9.8,5.6-14.6,9.9-12.2,5.4,2.9,15.5,10.6,15.5,11.8s-2.7.8-5.9.3c-8-1.1-7.8,1,.3,5.6,8.5,4.8,11,7,11,9.8s-5,8.8-11.4,12c-6.4,3-7.7,5.3-3.2,5.3s2.6.6,1.9,2.1c-.5,1.1-.8,2.4-.8,2.7s-1.1.5-2.6.5c-3.2,0-13.3,5.1-13.3,6.9s4.3,1.3,7.2-.8c4.2-3.2,5-1,1.8,4.6-1.9,3.2-5,6.1-8,7.5-5.3,2.4-6.7,5.8-2.2,5.8s3.4-.2-.6,12.5c-5.1,16.2-6.6,18.2-12,18.2s-7,1.3-10.1,2.7c-4.2,2.1-6.7,2.6-11,1.9-6.4-1-9.4,1.3-5.6,4,3.4,2.6,1.1,3.4-6.6,2.4-3.8-.5-8-.5-9.3,0-2.1.8-2.1,1,0,3.4,2.2,2.4,2.1,2.6-.3,3.8-1.4.8-3.8,1-5.4.6-2.1-.6-3.7.2-5.6,2.7-1.4,1.9-5.3,4.8-8.3,6.2-3,1.6-7.4,4.2-9.6,5.8-5.4,4.2-17.1,7.7-21.6,6.7-2.1-.5-4.6-2.4-5.9-4.8-3-5.3-7.2-6.1-16.2-2.7-4.2,1.4-10.9,4-14.9,5.4l-7.4,2.7-5-3.4c-6.7-4.6-8.8-4.5-7.7.6s0,5.1-9.4-.2c-6.1-3.4-7.7-3.8-8.6-2.4-.8,1.3-.3,2.6,1.4,4,5.4,4.6,1.1,5.1-8,1l-5.9-2.7-2.2,2.7c-2.7,3.2-3.8,3.5-3.8.6s4.2-10.4,9.6-15.7l5.3-5.1,10.9,2.4c15.5,3.4,38.7,3,49.9-.8,4.6-1.6,9.1-2.7,9.9-2.7s9.1-3.7,18.4-8.2c15.5-7.4,17.9-8.2,29-9.1,8.6-.6,12.8-1.6,14.4-3.4,2.1-2.1,2.1-2.4-1.4-5.3-2.1-1.6-3.7-3.7-3.7-4.6,0-2.4,19.8-21.9,28-27.4,13.1-8.8,17.6-13.3,16.6-16.6-.5-1.6-1.8-2.9-2.9-2.9-4.3,0-3.2-4.2,3.2-11.7,8.2-9.6,10.4-13.6,12.2-23.5v.6ZM1175.9,548.3c1.9.6,6.7,12.8,5.6,14.6-2.2,3.5-5.3-.5-6.4-8.6-.8-5.1-.5-6.4.8-5.9h0ZM1171.9,171c-1.6,3-2.9,3.8-2.9,1.8s1-1.9,2.2-3q2.1-1.6.6,1.1v.2ZM1186.3,190.3c5.8-6.9,8-11.7,7.2-15.4-1-4.2-2.9-3-10.2,5.9-2.9,3.5-5.6,6.4-6.2,6.4-2.2,0-1.1-5,1.6-7.4,1.4-1.3,4.8-5.3,7.4-8.8,4.2-5.8,4.3-6.6,2.6-8.3-2.6-2.6-3.7-2.6-9,0-4,2.1-4.2,2.1-2.4,0,1.4-1.9,1.6-3.2,0-8.2-1-3.4-2.2-6.1-2.7-6.1-1.8,0-6.2,6.7-7.2,10.6-1,4.3-3.8,7.4-5.9,6.1-1.6-1,1.3-7.2,4.5-9.9,2.9-2.4,2.6-7.2-.5-10.1-3.4-3-5.6-1.4-8.6,6.7-1.3,3.2-2.7,5.9-3.4,5.9-2.4,0-2.7-2.7-.6-5.6,2.4-3.5,2.6-6.4.6-10.9-1.3-2.7-2.2-3.2-6.1-2.9-3.4.3-5.1-.3-6.4-2.4-1.9-2.9-1.4-5.6.8-4.2.6.5,2.7-.8,4.5-2.7,3.4-3.7,7.2-4.3,11.4-2.1,1.8,1,3.4,1,5.1-.2,3.4-2.1,6.9-.6,6.9,2.7s.8,2.7,2.7,2.7,2.7-1,2.7-1.9c0-3.2,4-2.2,8,1.9,2.1,2.2,4.8,4,6.2,4s3.7.8,5.1,1.9c2.1,1.6,2.2,2.2.8,4-2.6,3-.6,4.8,5.1,4.8s7.8,1.9,4,4c-4.6,2.6-3.4,5.3,2.6,5.3s5.6.6,6.7,2.6c1.1,2.1.8,2.9-1.4,4.2-3.8,2.1-2.6,4.6,2.1,4.6s6.1,4,2.6,6.6c-2.4,1.8-1.6,5,1.1,4.6,3.7-.5,4.8.3,4.8,3.5s-.8,3.4-1.8,3.4-2.6.8-3.4,1.8c-2.2,2.7.8,4.8,5.9,4,5.1-.8,6.1,1.1,1.4,3.2-1.6.8-5.8,3.8-9.1,6.9-5.4,4.8-6.6,5.3-10.2,4.3-3.7-1.1-4.3-.6-9,5.4h0c-2.7,3.5-5.8,6.6-6.9,6.6-2.1,0-2.4-2.1-.5-3.4.8-.5,1.3-2.4,1.3-4.5,0-3.5,6.2-14.9,9.1-16.8,2.1-1.3,1.9-6.1-.2-6.1s-5.3,3-9.6,6.7c-9.6,8-11.7,5.9-3.5-3.7h0ZM1196.8,228.7c-3.8,2.4-5.4.2-1.9-2.7,1.4-1.1,2.1-1.1,2.9,0,.5.8,0,2.1-1,2.7h0ZM1142.4,246.8c0,.8,2.4,2.4,5.3,3.5s5.3,3,5.3,4.2c0,2.4-3.4,2.6-8.8,0-5.4-2.4-6.6-4.5-4-7.2,1.1-1.1,2.2-1.4,2.2-.6v.2ZM1091.9,251.1c-.8,0-1.3-1.1-1.3-2.7s.6-2.7,1.3-2.7,1.3,1.1,1.3,2.7-.6,2.7-1.3,2.7ZM1098.6,260.4c-.6,0-1.3-.6-1.3-1.3s.6-1.6,1.3-2.1c.8-.5,1.3,0,1.3,1.3s-.6,2.1-1.3,2.1ZM1107.7,269.1c-1,1-2.4-.6-2.4-2.4s.6-.8,1.6.2c.8.8,1.3,1.9,1,2.2h-.2ZM1256.5,395.3c-3.2,7-4.8,8-4.8,3s5.8-11.4,7-10.1c.3.3-.6,3.5-2.2,7ZM1259.5,372.9c0,4.3-4.5,11.4-8.2,12.6-2.1.6-4.6,3.2-5.8,5.4-2.1,4.2-4.8,5.4-4.6,2.4,0-1,1-3.2,1.9-5,2.9-5.1,2.4-6.4-2.7-6.4s-5,.6-6.7,4.6c-1.1,2.6-1.9,5.8-1.9,7.2h0c0,2.7-1.6,3-6.2,1.1-4-1.6-8-14.9-5.9-19.5,1.9-4,1.9-4.8,0-3.7-2.9,1.8-6.4,11.7-5.1,14.1,1,1.9.8,2.4-1.4,2.4s-2.7-1-2.7-2.4-1-3.7-2.1-5.4c-1.6-2.2-1.9-5-1.4-9.6.8-8.5-1.4-8-4.5,1q-2.2,6.4-3.7,3.2c-.8-1.8-2.1-5.8-2.7-8.6-.8-3.5-2.4-5.8-4.3-6.7-3.5-1.4-5.3-8.6-3.5-13.8,1.3-3.5-.6-8.2-2.1-5.8-1.8,2.7-3.2,1.6-5.4-4.3-1.3-3.4-1.9-7-1.3-8.8.6-2.1.2-3.4-1.8-4.8-1.6-1.1-3.4-4.8-4.3-8.8-1-4.2-3.5-9.3-6.1-12.5-3.8-4.8-4.5-6.4-4.5-12.8s-2.1-11.4-6.4-9.1c-1.4.8-2.9,1.9-3,2.6s-2.7,1.6-5.4,2.1c-4.6.8-5,.6-5-2.6,0-4.6-3.5-5.6-7.2-2.1-2.9,2.7-3.2,2.7-5.3.8-1.1-1.1-2.2-4-2.2-6.1,0-4.3-1.4-5-4-1.9-1.4,1.8-1.9,1.8-4.2-.2-1.4-1.3-2.6-3.5-2.6-5,0-4-1.9-6.4-4.3-5.4-1.4.6-2.9-.5-4.5-3.7-1.3-2.4-3.2-5.1-4.3-5.9-1.6-1.3-1.8-2.2-.5-5.9,1.8-5,.3-8-4-8s-2.4-.8-2.2-2.9c.3-2.2-1.6-4.5-5.4-6.1-.3,0,2.1-6.4,3.2-8.2.6-1.3,8.5,4.8,8.5,6.6s2.6,3.8,4.8,3.8.6-1.8.6-3.8c0-4.5,3.7-9,5.6-6.9s.8,3-.3,6.1c-.8,2.6-1.1,5.3-.8,6.1,1.3,2.1,4.3,1.6,5.3-.8.6-1.8,1.3-1.9,2.4-.6s4.2,1.6,7.4,1.6c6.1,0,6.7.6,3.8,3.8-2.9,3.2-3.2,7.2-.5,7.8,1.4.3,2.2-.3,2.2-1.8s.6-3.4,1.4-4.8c1.1-2.1,1.8-2.4,3.4-1.1,2.4,1.9,2.4,4,0,4s-2.6,1.6-3.5,3.4c-1.4,2.6-2.6,3.2-4.5,2.6-1.4-.5-4.8-1.3-7.4-1.8-3.2-.6-5.4-2.2-7.4-5.1-3-4.8-7.4-5.8-7.4-1.8s6.2,8,8.6,8,3.5,2.2,6.6,5c3.4,2.9,10.1,6.7,16.2,9,13.6,5.1,28,5.3,39.4.2,10.7-4.8,21.6-17.1,30.9-34.9,8.2-15.8,19.5-25.9,29.3-25.9s4.8.5,5.4,3.7c1.9,9.1,5.3,12.3,13.3,12.3s3.5.8,5.4,11.4c.3,2.2,2.9,8.2,5.4,13.3,4.3,8.6,7.8,14.2,17.8,28,2.1,2.9,11.2,12.3,20.3,21,14.9,14.1,17.3,17.1,24.5,29.9,11.8,21,16.8,38.7,16.8,58.4s-.8,15-5.3,10.6c-1.8-1.9-5.4-4-7.8-4.8-3-1-4.5-2.2-4.5-4,0-2.7-3.7-3.5-6.1-1.4-.6.6-5,1.6-9.3,2.1-9.4,1-10.6,0-14.4-10.1-3.4-9.1-4.8-9.9-13.4-7.4l-7.2,2.1v-3.5c.5-3,0-3.5-3.7-4-3.4-.3-5.1.8-11,6.9-3.8,4-6.9,8.2-6.9,9.3l.5.2ZM1275.4,368.6c-.3.2-2.9,2.4-5.8,5-3.7,3.4-4.6,3.8-3.7,1.8,1.8-3.4,8.2-8.8,9.3-7.8.3.3.5.8,0,1l.2.2ZM1265,407.6c0-.3,1.1-.8,2.6-1.1,1.6-.5,3.2-2.7,4.2-6.1,1-3,2.7-6.6,4.2-8.2,1.4-1.4,2.6-3.4,2.6-4.3,0-3.5,10.6-13,14.2-13s2.6,2.1,3.5,4.5c1.6,3.7,3.8,5.4,13,9.9,6.1,2.9,13.6,5.9,16.5,6.7,9,2.2,25.1,5.4,28,5.4s4.5,2.2,7,5.6c5.3,6.7,5,9-1.8,22.9-4.8,9.8-5.1,15-1.3,18.1,4.8,4,0,16.5-10.7,28-8.6,9.3-9.8,12.2-6.7,16.8q2.2,3.5-1.3,6.2c-11.5,8.8-22.6,18.9-27.5,24.6-3,3.7-6.4,6.7-7.2,6.7-2.2,0-8.2-6.7-9.3-10.6-.8-2.6-.6-3,1.1-2.4,2.9,1.1,6.1-.3,6.1-2.7s-8.3-12.3-11-12.3-2.2.8-2.1,3.5c.6,6.1-2.4,4.8-5.9-2.4s-9-22.9-9-25.6,1.8-3.2,4-5.3,4-5.1,4-6.9,1.3-3.7,4-5.1c7.7-4,3.8-7.4-4.6-4-5.4,2.1-8.6,1.9-8.5-.3,0-2.6,2.9-4.8,6.2-5,2.1,0,6.9-1.3,10.7-2.6,5.1-1.8,7-3,7-4.8q0-3-6.2-.5c-8.3,3.5-11,2.2-11-4.8s.5-2.4,2.4-1.3c1.8,1,4,.6,8.2-1.3,3.2-1.4,6.6-2.6,7.5-2.6s1.9-1.3,1.9-2.7c0-3.5-2.7-3.4-12.6.6-4.3,1.8-8,3-8.2,3-1.3-1.9-13.9-26.4-13.9-26.7v-.3ZM1172,486.7c5.3-2.9,10.9-8.6,12.6-13s2.2-4.5,6.9-3.8c8.2,1.3,22.1-4.3,30.1-12.5,3.7-3.7,7.4-6.7,8-6.7s3.8,1.3,7,2.9c4.8,2.4,7.5,2.7,15.7,2.2,10.9-.6,10.1-1.4,10.6,9.6,0,3.4.6,11,1.3,17.3,1.3,12.3,2.1,14.1,13.8,28.2,10.1,12.2,10.7,13,19.5,22.2,6.4,6.7,7.5,8.6,5.9,9.6-3,1.9-9,1.4-9.8-.6-.8-2.2-6.2-2.7-6.2-.6s-.8,1.3-1.9,1.3-2.2,1-2.7,2.1c-1.4,3.5-3.8.5-3.2-3.8.6-4.5-1.3-11.5-3-11.5s-4.6,13.6-2.6,17.3c2.2,4.3,1.1,4.3-6.1.6-7.5-3.8-8.5-4-8.5-1.4s5.6,6.1,8.6,6.1,1.3,2.2-3.4,3.8c-3.2,1.1-5,.8-10.2-1.9-7.5-3.8-8.3-4-8.3-1.1s1.8,3,4,4.3c5,2.9,5,3.7-.2,5.4-6.9,2.4-12.2,1.8-19-2.6-8-5.1-11.2-3.4-4.8,2.6,6.9,6.2.5,6.7-11.5.6-8.3-4.2-13.9-3.4-8.3,1l3.4,2.7-5-.8q-13.9-2.1-17.4-8.6c-3.2-5.9-3.4-8-.6-8s2.2,2.7,3.7,5.9c1.4,3.4,3.5,6.1,4.8,6.1,2.9,0,2.6-4-.6-8-1.4-1.8-2.7-4.2-2.7-5.3s-1.6-4.3-3.4-7.4c-2.7-4.3-3.4-7-3.4-14.9s-1.9-16.3-4-16.3-3.2-4.8-6.1-10.7c-4.6-9.6-5-10.9-3-12l.2-.2ZM1168,496.9c.6.3,3.4,5,5.9,10.2,4.5,8.8,4.8,10.4,4.6,20.2,0,5.9-.8,11.2-1.4,11.8-1.4,1.4-1.9.5-4.2-11.2-1-4.8-2.7-10.7-4-13.3-2.4-4.6-3.2-19-1-17.8h0ZM1166.7,550.5l.5-5.8,1.8,5.8c1,3.2,1.6,7.7,1.3,9.9l-.5,4.2-1.8-4.2c-1-2.2-1.6-6.7-1.3-9.9ZM1167.7,627.5c.8-3,2.7-8.5,4.3-12,3.2-7,2.2-10.1-1.6-5-1.8,2.2-2.6,2.7-2.6,1.3,0-2.4,3.8-5.9,7.8-7.2,1.6-.5,3.5-2.1,4.2-3.5,1.6-3,5.9-3.5,4.8-.6-1.3,3.4,2.1,4,4.6.8,2.1-2.6,4.6-3.2,17.8-4.8,17.4-2.1,18.4-2.2,29.8-7.5,10.9-5.1,14.1-4.6,14.4,1.8,0,2.6,1.8,8.2,3.5,12.3,1.8,4.2,2.9,7.7,2.4,8s-4,.8-7.8,1c-5,.3-7.7-.3-9.4-1.9-3.2-3-4-2.9-4.5.8-.5,3-2.9,3.5-3.2.6-.5-4.6-.6-5.1-2.1-4.6-.8.3-2.2,2.6-3,5-.8,2.6-2.2,4.8-3.4,5.1-1.4.5-1.6-.8-1-5.8.8-5.3.6-6.1-1-4.8-1,.8-3,4.5-4.6,8s-3.8,6.9-5,7.4c-2.9,1.1-4.2,0-2.1-2.2,2.1-2.1,2.1-7.7,0-7.7s-3.2,3-5,6.7-3.8,6.4-4.6,6.1c-1.4-.5-1.4-.8,0-6.6,1.6-6.6-2.7-4.2-6.1,3.4-3.5,7.7-4.6,9-8.2,9s-2.1-.8-1.4-4.3c.5-2.4,1.3-5,1.9-5.6,1.8-1.9,1.4-4.8-.5-4.8-2.7,0-7.7,8.5-7.7,13.1s-.8,4.6-2.1,5.1c-3.5,1.4-4-.8-1-6.6,1.6-3,3.2-7,3.8-9,.5-1.8,2.2-5,3.7-7,1.4-2.1,2.2-4.2,1.8-4.6-1.4-1.4-5.4,1.6-5.9,4.6-.2,1.4-2.2,4.6-4.3,7.2-3.8,4.3-4.8,6.4-5.4,13.1-.3,3.2-5,5.8-5,2.7s.6-1.4,1.3-1.4,1.9-2.6,2.7-5.6l-.5.2ZM1159.7,505.4c.6,0,1.3,1.8,1.3,4s1,4.5,2.1,5.1c1.3.6,1.9,2.4,1.6,4.3-.5,2.9-.8,2.7-3.5-2.4-3-5.9-3.8-11-1.6-11h.2ZM1067.9,373.7c0,3.2-1.9,4.3-3.7,2.2-1.8-2.1-2.6-6.1-1.3-6.2,2.6,0,5,1.8,5,4h0ZM1064.5,361.5c.3.6,0,1.4-1.1,1.9-1.9.8-3.5,0-3.5-1.9s3.7-1.4,4.6,0ZM1063.4,388.3c4.2,0,7.5,3.7,7,7.7-.6,4.8-2.9,5-7.5.3-4.5-4.5-4.3-8,.5-8h0ZM915.1,378.5c1.8,1.6,2.1,2.7,1.1,4.6-1.9,3.7-5.9,5.4-7.7,3.5-2.1-2.1-1.9-5.1.3-8s3.2-2.9,6.2,0v-.2ZM910.4,354c2.9,2.9,1.3,5.6-2.2,3.4-2.1-1.3-2.9-1.3-4.2,0-2.2,2.4-4,2.1-3.5-.6.6-3.5,7.4-5.4,9.9-2.7ZM898.1,370.8c-1.3-3.8,1-5.6,5.9-4.6,4.3,1,5.3,3,2.6,5.8s-7.5,1.9-8.5-1.1ZM715.2,346.5c-2.2.5-4.5,1.3-4.8,1.9-1.8,2.9-5.8,1-7.2-3.5-.8-2.6-2.7-5.6-4.3-6.6-3.7-2.6-2.2-9.9,2.9-15.8,3.7-4.2,3.8-4.2,6.6-1.8,3.4,3,8.8,14.2,10.1,20.5.8,4,.6,4.3-3.2,5.1v.2ZM831.9,279.6c-1.1-3-1.1-3.2,1.1-2.4,1.1.5,1.9,1.6,1.9,2.6,0,2.6-2.2,2.4-3.2-.3l.2.2ZM849,244.6c.5-.8,1.4-1.3,2.1-1.3s1.3.6,1.3,1.3-1,1.3-2.1,1.3-1.8-.6-1.3-1.3ZM782.7,200.9c8.2-8,20-17.1,31.4-24,5-3,10.1-6.6,11.5-8,2.2-2.2,5.1-2.6,21-3.2,10.2-.3,19.2-.3,20.2,0,2.1.8,2.4,18.4.3,19.7-1.4.8-1.9,0-3.2-6.2-.5-1.9-1.9-4-3.5-4.5-3.4-1.1-7.2,1.8-5.3,4,.6.8,1.4,4.2,1.6,7.4.3,4.5,0,5.9-1.8,6.2-1.6.3-2.4-1-3-5.1-1.3-7.5-4.5-14.9-6.1-13.9s-1.1,3-.6,5.8c.6,4.3.3,5.1-2.6,6.4-2.7,1.3-3.7,1-5.4-1-4.3-5.1-7.7-1.6-3.5,3.7,1.4,1.9,2.7,4,2.7,4.6,0,1.9-7.5,1.3-9.3-.8-1-1.1-2.6-1.9-3.5-1.9-2.2,0-2.4,4.8,0,5.8,1,.3,3.4,3.7,5.4,7.5,2.7,5.1,3.4,7.4,2.4,9.1-1.4,2.4-1.4,2.2-4.8-7.4-.3-1-2.2-2.2-4.2-3-1.9-.8-5.1-2.6-7.2-4-3-2.2-4-2.2-5.1-.8s-.6,2.6,2.4,5.1c6.1,5.1,7.2,8.3,4.2,11-2.6,2.2-2.7,2.2-6.2-1-4.8-4.5-9.4-6.7-11.7-5.9-2.2.8-1.1,4.8,1.3,4.8s12.3,8.8,14.1,12.2c.8,1.4,1,2.6.3,2.4-4.6-.6-8.5-2.4-12.3-5.3-6.2-4.6-10.4-5.9-12.3-3.5-1.3,1.6-2.6,1-7.2-4l-5.8-5.9,6.4-6.2h-.5ZM800.3,227.3c0,1.4-4,1.6-6.1.2-2.2-1.6-3.4-5.6-1.4-5.6s7.5,3.8,7.5,5.4ZM633.6,329.4c1-8.3,5.9-22.1,10.9-30.1,7.5-12.3,29.3-34.6,46.1-47,4.6-3.4,19.7-13.1,23.5-15,5.8-3,22.9-16.3,29.8-23.2s8.3-6.6,9.4-3.4c1,2.4,8.5,4.6,15.4,4.6s11.4,2.2,12.2,5.8c1,3.7,0,4.3-8,5.9-4.6,1-8.3,1-11.8,0-5.8-1.6-8.8-.8-8.8,2.1s-1.3,2.1-3.4,2.1-3.4.6-3,2.2c.3,1.9,2.2,2.4,11.7,2.7,6.2.2,12.8,0,14.7-.5,3.2-.8,3.2-1-1.3-2.9-5.3-2.2-4-3.5,4.8-4.8,4.8-.8,5.9-.5,8.2,2.4,2.1,2.7,4,3.4,11.7,3.8,6.9.5,9.6,1.3,10.9,3,2.6,3.4,8.3,14.7,8.3,16.3s-1.9,1.6-4.3,2.1c-5.1,1-9.6,4-8.5,5.8,1,1.6,16.2-1.3,21.6-4.2,2.2-1.1,4.5-3,4.8-4,.5-1.1,2.4-2.2,4.3-2.7,3-.8,4.2-.3,6.4,2.6l2.7,3.5,8.6-2.7c10.4-3.4,25.3-5.1,25.3-2.9s-.5,1.8-1.3,2.2c-.6.5-1.6,3.7-2.1,7.4-1.1,8.6-4.6,9.3-7.4,1.3-3-9.1-5.4-5.3-3.2,5,.5,2.4,0,3.2-2.9,3.8-3.8,1-5.1-.5-8-8-1.9-5.4-5.3-6.4-4-1.3,3.7,14.7,1.6,16.6-8.8,7.7-3.8-3.2-7.7-5.8-8.3-5.4-.8.3-1.3,2.7-1.3,5.3.2,5.6-1.3,6.2-4.3,1.4-2.6-3.8-7.2-4.5-7.2-1s1.3,3.5,3,5c5.8,5-1,3.7-9.8-1.9-10.1-6.4-14.2-7.2-10.7-1.9,1.3,1.9,18.2,12.5,20,12.5,2.9,0,5.8,4.2,4.8,7.2-1.3,4.2-4.6,7.5-7.4,7.5s-2.4,1-2.4,2.9-.3,2.6-1.6,1.4c-1.9-1.9-6.4.2-6.4,2.9s-6.2,10.1-8,10.1-1.4-1.3-1.9-3c-.8-2.7-1-2.6-3.8,2.2-3.4,5.9-7.2,8.2-5.9,3.7,1.3-4.8-1.4-4.6-4.5.5-1.6,2.6-4,5.4-5.4,6.2-2.2,1.3-3.2.8-5.4-2.1-3-3.7-5.4-3.2-6.4,1.1-1,5.1-3,2.1-6.2-9-1.8-6.1-5.3-14.2-7.8-18.2-4.8-7.7-14.7-18.7-16.6-18.7s-1.1,5,1.8,7.5c7.8,7,19.7,27,19.7,33.3s0,3.4.3,4.5c1,6.1-.2,9.4-3.7,10.7-4.8,1.9-6.4,0-6.7-8.2-.3-7.4-3.5-17-8.2-24-3.2-4.8-12.5-11.8-15.7-11.8s-3,2.6,2.4,6.1c6.6,4.5,9.3,7.4,13,14.4,3.4,6.2,5.8,23.4,3.7,25.8-2.4,2.9-4.6,1.9-6.4-2.6-1-2.4-2.7-6.7-4.2-9.8-1.4-3-2.6-5.9-2.6-6.4,0-1.3-6.9-11.7-10.2-15.4-2.4-2.7-3-2.9-3.7-1.1-.6,1.8,6.1,15,8.8,17.1,1.4,1.1,4.6,8.2,6.6,14.4,1.8,5.3,1.6,5.9-.6,7.7-5,3.7-6.7,2.2-10.7-9.1-2.7-7.8-11-19.5-15.7-21.8-3.7-1.9-4-1.8-7,1.4-4,4.3-4.6,4.3-9.4,0-5.3-4.5-9.3-4.2-14.6,1-4.2,4-5,4.3-12.5,4-6.2-.3-8,0-7.5,1.3.3,1,2.2,1.9,4.2,2.2,4.6.6,4.5,1.8-1.1,6.7-5.1,4.5-12.6,8.6-18.2,9.9l-3.5.8.8-7h.3ZM674.4,316.6c-.5-1.8.3-3,2.2-4.2,2.4-1.3,3.5-1,7.5,2.1l4.6,3.5-3,3.2c-3.5,3.7-13.1,4.6-13.1,1.3s.5-2.2,1.1-2.7c.6-.5,1-1.9.5-3.4l.2.2ZM671.9,331c-.5.6-1.8,1.3-2.9,1.3s-1.6-.6-1.1-1.3c.5-.8,1.8-1.3,2.9-1.3s1.6.6,1.1,1.3ZM649.8,443c2.2,3.5,2.2,3.4-4.2,7.2-8.6,5.1-13.9,4.5-21.6-2.2-8-7-15.4-22.4-18.7-38.9-1.3-6.4-3.4-13-4.6-14.6-2.2-2.9-2.2-3,1.6-6.2,5-4.2,7.7-14.7,6.2-25.3-.5-4-1.3-10.1-1.8-13.6l-.8-6.2,4.3,1.3c10.7,3.2,26.7.5,41.1-6.9,6.2-3.2,6.1-3.2,7,.8.5,1.9,2.4,4.8,4.3,6.6,2.7,2.6,3,3.5,1.9,5.8-2.9,5.3-1.3,5.9,3.2,1.4,2.6-2.6,5.3-6.4,6.2-8.6,1.6-4.5,8.8-9.6,10.7-7.5.6.6,1.4,5.3,1.6,10.4.2,5,1.4,12.5,2.7,16.6,3.4,10.4,2.1,18.4-3.7,23-9.9,7.7-14.2,12.6-17.3,19.7-1.8,4.2-4.2,7.8-5.1,8.2-1,.3-4.8,6.6-8.5,13.6-5.6,10.9-6.4,13.3-5,15.5h.2ZM662.7,428.9c-.5,5.8-1.6,10.9-2.6,11.5-5.8,3.7-7.4-3.2-3-12.8,5.3-11.4,6.7-11,5.6,1.3ZM751.2,528.1c-2.6-1.6-1.3-15.2,2.6-26.6,2.7-8.2,2.7-8.5.3-10.2-2.1-1.6-2.6-1.4-4,1.1-.8,1.6-2.9,8.6-4.5,15.5s-3.5,13.1-4,13.9c-1.6,1.8-9.4-1.9-8-3.7.6-.8,2.2-5.6,3.5-10.9,1.3-5.1,2.9-10.6,3.7-12,2.4-4.6,3.5-12.6,1.6-12.6s-2.2.8-3,1.6c-2.4,2.9-9.6,26.2-9.6,30.9v4.3l-10.4,1.1c-5.6.6-13,1.1-16.3,1.1h-6.1l.5-5.1c.6-8.8-3-15-11.7-19.4-7.5-3.8-25.9-9.8-35-11.4-2.7-.5-5-1.3-5-1.8,0-1.8,17.3-19.5,17.3-17.8s-1,3.8-2.1,6.6c-2.1,4.8-1.8,8.3.5,8.3s7.5-8.6,9.6-12.6c.3-.8,2.4-4,4.5-7.2,4.8-7.4,7.8-22.1,7.2-33.8-.3-5-1-9.4-1.3-9.8-1-1-2.2,4.3-2.1,8.2,0,3-5,15.7-8.5,21-1.3,1.9-2.2,4.5-2.2,5.6,0,2.4-3.7,9.9-4.8,9.9s-.3-1,0-2.2c.5-1.3,1.1-4.5,1.4-7s1.1-5.3,1.9-5.9c.6-.6,1.3-3.4,1.3-6.1,0-8.2,3.7-25.1,6.7-31.8,1.9-4.3,7-10.6,14.9-18.2,6.6-6.4,13.4-13.9,15.4-16.8,3.7-5.6,4.6-6.1,7-3.2,1.3,1.6.6,2.9-3.8,6.9-5.4,5-7.2,9.8-3.5,9.8s1.9-.6,1.9-1.3,2.7-3.4,6.1-5.9c5-3.8,6.7-4.5,8.6-3.4,3.5,1.9,3.2,3.4-1.3,5.1-2.1.8-4.5,3-5.3,4.8-1.9,4.3-1.9,4.5.6,4.5s9.8-7.4,9.8-9.4,1.1-.6,2.7.2c3.4,1.8,3.4,5,0,5.9-3,1-8,6.9-8,9.4s3,1.9,8.2-3c4.2-4.2,5.3-4.6,7-3.2,2.9,2.4,2.6,3.8-1.9,7.5-4.2,3.5-5.3,7-2.4,7.2,1,0,3.4-1.9,5.3-4.3l3.5-4.3,5.4,5.4-4.6,5.4c-2.6,3-4.6,5.8-4.6,6.2,0,1.9,2.7.5,7.4-3.8q5.8-5.3,9.3-2.9c2.4,1.8,2.4,2.1-1.8,6.9-2.4,2.7-4,5.3-3.5,5.8.5.5,1.9-.5,3.4-2.1,1.3-1.6,2.9-3,3.5-3s1.9-.8,3.2-1.9c1.1-1,5.3-2.1,9.1-2.2,7.2-.3,9.4,1,9.4,5.6s4.8,7.7,15.7,13.3c10.6,5.3,17,10.9,15.4,13.6-.5.8-.6,5.4-.6,10.6.2,8.6,0,9.3-2.4,8.5-2.7-.8-5.8,1.4-8.2,6.1-.8,1.4-2.7,2.6-4.6,2.6-4,0-5.9,3.4-5,8.3.5,2.9-.3,4.8-4,8.8-6.1,6.7-8,10.2-6.9,13.4.8,2.4.3,2.6-5,1.8-6.4-1-9.9,1.4-8.6,6.1.3,1.4-1.1,6.2-3.2,10.7-4,8.3-4.5,8.8-7.7,6.9l.2.6ZM672.7,452.3c0-.8.6-1.8,1.3-2.1.8-.5,1.3-.2,1.3.5s-.6,1.8-1.3,2.1c-.8.5-1.3.2-1.3-.5ZM788.3,491.9c0,1.9-6.6,9-6.6,7s.5-1.6,1.1-1.6,1.6-1.4,2.1-3.4c.8-3.2,3.5-4.8,3.5-2.1h-.2ZM765,527.5c-.5,2.6-1.4,4.6-2.1,4.6-1.4,0-1.4-8.5,0-13.3l1-3.4,1,3.7c.5,2.1.6,5.8,0,8.3h.2ZM682.3,675.5c-1.1.3-1.3-2.9-.8-12.2.6-11.2.5-12.6-1.4-12.6s-2.2,1.6-2.2,9.9c0,12.6-1.4,16.8-5.9,16.8s-4.6-3-2.1-4.6c.6-.5,2.1-3.5,3.2-7,2.7-8.2,1.3-15.5-2.9-16-3.4-.5-3.7,1-1.4,7,.8,2.2,1.1,6.2.6,9-1,5-6.7,12.3-8.6,11.2-.6-.3-.8-4.5-.5-9.1s.5-12.6.5-17.9v-9.4l4.6-2.2c15.5-7.4,30.9-9.3,43.2-5.4,7.5,2.4,29.1,11.8,44,19.4,23,11.7,26.7,13.4,27.2,13.4s.8-1.3,1.3-2.9c.8-3,0-3,14.2.6,4,1.1,9.1,2.4,11.2,2.9,2.4.5,3.4,1.3,2.4,1.9-1.8,1.1-1.9,4.8-.8,13,.5,3,.2,5.9-.5,6.2-2.2,1.3-3-.6-3-7.7s-1.6-10.1-5.6-10.1-3.5-.6-5-1.6c-3.7-2.4-4.3-.8-2.6,6.1,1.8,6.6,1.1,8.3-2.2,7-1.8-.6-1.9-1.9-1.3-6.6.6-4.3.3-6.1-1.3-7.5-2.7-2.2-3.8.2-3.2,7.4.3,4.6,0,5.1-2.9,5.1s-3.7-1.3-2.4-9.3c.8-4.6-3.2-3-5,1.9-2.2,6.6-6.7,6.6-6.7,0s-2.9-6.7-5.4-.8c-1.9,4.8-2.2,4.8-8.3,4.5-5.6-.3-6.4-.8-6.7-3.7-.6-4.6-2.6-6.4-3.7-3.2-.5,1.4-1.4,3.4-2.2,4.2-1.9,2.4-4.8-.5-4-3.8.6-2.7-1.9-5.6-4-4.3-.6.3-1.1,2.4-1.1,4.5s-.6,3.8-3.2,4.3c-4.3.8-6.6-.8-5.4-4,1.4-4.5-1.6-4.6-3.8-.3s-8,6.7-10.4,4.2c-1.1-1.1-1-2.6.8-5.6,2.9-5,2.9-6.4.3-6.4s-3.8,3.2-5.3,9.6c-.6,3-1.6,3.7-6.7,4.5-8.8,1.3-9.9.6-8.5-6.2,1.9-9.6,1.4-17.1-.8-17.1s-2.1,1.9-2.1,8.3c0,9.6-1.3,14.6-3.5,15.2v-.3ZM802.9,705.1c.8,0,1.4.6,1.4,1.3,0,1.4-2.7,1.4-8.6,0-2.2-.6-6.2-1.1-9-1.1s-7.2-1.1-9.9-2.4-8-2.9-11.5-3.8c-3.7-1-10.9-2.9-16-4.5-13.9-4.3-35.4-9.3-40.5-9.3s-4.2-.3-3.8-.6c2.4-2.4,35,0,49.6,3.5,2.9.8,8,1.8,11.4,2.4,11.5,2.1,20.5,5.3,28,9.9,4.2,2.6,8.3,4.6,9.1,4.6h-.2ZM799.2,675.8c.6,0,1.3,1.8,1.3,4,0,4-1.8,5.3-3.4,2.6-1.1-1.8.5-6.6,2.1-6.6ZM726.6,775.5c1.1-5,2.7-3.7,4,3,1,5.3-.5,6.6-3.4,3-1-1.3-1.3-3.5-.6-6.1h0ZM781.8,880.7c.8,0,1.4,1.4,1.4,3s-.8,4.3-1.9,5.6c-1.8,2.4-1.9,2.4-2.9.2-1.1-2.7,1.3-9,3.4-9v.2ZM788,907.3c-5.3-.8-10.9-1.9-12.6-2.7l-3-1.1,3-4.6c1.9-2.9,3.5-4.2,4.3-3.4,2.6,2.6,5.8,1.3,7.2-2.7.8-2.2,2.1-4,2.9-4s1.1,1,.6,2.4c-.5,1.3-1.3,4-1.6,6.1-.6,3.2-.3,3.7,1.8,3.4,1.9-.3,2.9-2.6,4.2-9.1,1.9-9.3.6-13.4-2.7-8.8-1.8,2.4-1.9,2.4-2.7-.5-.5-1.6-.5-3.5.2-4.2,4-4,32.5-1.3,38.1,3.7,4.3,3.8,6.6,9.6,9.3,23,2.4,11.8,2.4,12.8.3,13.9-1.3.8-7,4.5-12.8,8.3-12.6,8.3-16,9-7.7,1.6l6.1-5.3-6.9,3.4c-3.8,1.9-9.8,6.1-13.3,9.4-7.4,6.9-11.2,8.2-7.5,2.4,2.6-4.2,10.7-12.2,14.4-14.4,1.3-.8,2.2-2.2,1.9-3.2-.6-1.9-5,1.4-19.7,15.5-6.6,6.2-9.8,8.3-12.5,8.3h-3.8l4.3-5c2.4-2.7,6.6-7.2,9.4-9.9,4.8-4.6,6.4-7.7,4.2-7.7s-4.3,3.2-8.3,7c-10.1,9.8-20,16.5-23.4,15.8-4.3-1-5.1-2.6-1.9-4.3,3.8-2.1,19-13.4,20.2-15.2,1.6-2.2,0-2.6-2.6-.5-1.3,1.1-7.4,4.8-13.3,8.3-6.1,3.5-11,6.9-11,7.5,0,1.8-3.2,1.4-6.1-.6-2.4-1.8-1.6-2.2,9.6-7.5,6.7-3.2,12.8-6.9,13.8-8.3,2.2-3.7,1-4-2.9-1-1.9,1.4-8.2,4.5-13.9,6.7-5.8,2.2-11.2,4.5-12.2,4.8-4.2,1.8.5-4,5.1-6.4,5.3-2.7,6.9-5.3,3-5.3s-5.1,1.6-8.8,3.5c-5.8,2.9-7.2,3.2-9.9,1.8-3.4-1.8-5.6-7.2-4.8-10.9.3-1.9,1.3-2.1,4-1.3,5.6,1.6,17.6.6,22.9-1.9,5.9-2.9,9.8-2.7,25.3.6,18.2,4,26.6,3.7,26.6-1.1s-4.8-5.1-16.3-6.9l-.3.2ZM766.9,879.5l-.5,14.9-4.8,4.2c-2.7,2.2-8.2,5.3-12.2,6.6-11.7,3.8-14.7,3.2-20.5-3.7-4.8-5.8-5.3-6.1-12.2-6.1s-9.3-1-11.8-1.9l-4.8-2.1.8-9.6c.6-9.3,6.1-24.8,8.5-25,10.1-.5,15.4-1.4,20.3-3.7,3.4-1.4,10.2-3,15.5-3.5,9.3-.8,9.8-.6,14.1,3.2,6.9,5.9,7.8,9.8,7.4,26.7h.2ZM751.2,821.1c1.8,2.7,1.4,3.2-3.5,5.4-3.2,1.6-4.3,2.9-3.8,4.3.5,1.3,1.6,1.8,3,1.1,3.7-1.6,8.2-2.2,8.2-1.3s-.6,2.1-1.4,3.5c-1.4,2.7-7.2,3.5-8.6,1.1-.5-.8-2.6-1.1-4.8-.6-5,1-25.4-8.6-28.8-13.8-4.3-6.4-5.9-12-5.1-19.2.8-7,6.1-22.2,8-22.2s2.2,2.4,4,5.3c4,7,9.1,9.9,15.4,8.8,4.8-.8,5-.6,6.4,3.8,1.6,5.1,1.3,6.1-2.4,6.1s-2.4,1-2.4,2.2c0,4.2,2.4,6.4,6.9,6.4s6.1,3.2,1.4,5.3c-1.6.8-3,2.4-3,3.7,0,2.9.5,2.9,5.6.2,3.4-1.8,4.3-1.8,5.3-.3l-.2.2ZM784.2,779.6c-3.2,0-3-1.4.8-10.1,3.5-7.7,4.2-11.2,2.1-11.2s-2.2,1.3-3.4,2.9l-2.1,3v-3.7c0-6.2-2.9-3.4-6.9,7.2-2.1,5.4-4.3,10.1-5.1,10.4-.6.3-1.3,1.3-1.3,2.4,0,2.9-2.4,2.2-3.4-1s-.6-6.7-.5-11.7c.3-5.1,0-9-.8-9.3-2.2-.8-4.5,7.8-4.6,16.8,0,8.5-1.4,10.4-5.1,6.7s-2.1-12.8-.3-17.6c1.8-4.5-.5-5.8-3.2-1.9-1.3,1.9-2.1,5.9-2.1,11.2,0,8.3-.8,10.4-3.7,8.6-1.1-.6-1.4-4-1-9.9,1-13.8,2.7-18.6,8.6-24,4.6-4.3,6.1-4.8,12.5-4.8s8.2.8,11.2,3c2.2,1.6,7.7,5.6,12,8.6l8,5.6-2.7,7c-3,8.2-5.9,11.7-9.3,11.7l.2-.2ZM800.3,771c-1,1.9-2.6,3.4-3.7,3.4s-1.6-.5-1.1-1.1c.3-.6,1.3-2.9,2.1-4.8,1.1-2.9,1.8-3.4,2.9-2.2,1.1,1.1,1.1,2.4-.3,4.8h.2ZM804.2,749.7c-.5,2.1-1,1.9-4.5-1.1s-3.7-3.5-1.6-4.3c1.4-.6,3.2-.2,4.5,1.1s1.8,3,1.6,4.3ZM809.3,725.9c-.5.5-1,2.2-1,4,0,2.6-.6,3-4.5,3s-4.6-.6-5-2.7c-.6-3.8-2.7-3.5-4.8.5-1,2.1-2.9,3.5-4.5,3.5s-2.6-.6-2.2-4.8c.6-6.6-2.4-7.5-3.7-1.1-1,5.4-1.8,6.2-5.6,5.3-1.8-.5-3-2.2-3.5-4.6-1-5.1-6.2-5.6-6.2-.6s-5,4.6-5.6-.2c-.5-4.5-3.7-5.8-4.6-1.9-.8,3.2-5.8,3.8-5.8,1s-2.6-3.8-5.1-1.6c-2.9,2.6-8.2,1.4-8.2-1.8s-3-5.8-4.5-4.5c-.5.5-.8,2.2-.8,4,0,3.4-3.4,5.6-5.4,3.5-1.1-1.1-2.2-5.6-2.4-10.9,0-3.5-2.1,0-3.4,6.2-1.1,5.4-1.8,6.2-4.6,6.2s-3.2-.6-2.9-1.9c.3-1.1.8-4.5,1.1-7.7,1-8.6-1.9-7-3.7,1.9-2.1,10.9-2.2,11-6.1,11s-3.4-.5-2.6-3c.5-1.6,1-3.4,1-3.7,0-7.2-.5-12.2-1.3-11.5-.5.5-1.9,5-3,9.8-1.9,8.2-5.1,13-7.4,10.7s0-4,1.3-8c1.3-4.3,1.6-7.5.8-8.3s-2.6,1.1-4.5,7.5c-.5,1.3-1.9,2.4-3.4,2.4s-3.8,1.8-5.4,4c-2.1,2.9-4,4-6.9,4-4.5,0-4.5,1.1-1.3-15.4.8-4.3,1.9-10.2,2.2-13.1.6-4.6,1.4-5.4,8-8.5,6.1-2.7,9.3-3.4,19.5-3.4s16.2.8,21,1.9c12.3,2.9,26.6,7.2,28.5,8.6,3,2.6,19.5,8,29.8,9.9,11.7,2.1,21.6,2.9,36.6,2.9s10.2.2,11,3c.5,1.6.2,4-.5,5.1-1.1,1.9-1.3,1.9-2.1-.2-.6-1.9-1.3-1.9-2.9-.6-1.1,1-1.9,2.6-1.9,3.5,0,2.1-5.1,4.5-7.7,3.5-1-.3-1.6-1.8-1.6-3,0-2.7-3.2-5.8-4.5-4.5v.3ZM822.7,680.4c-.3-10.7-.5-10.6,3.7-11.8,2.6-.8,2.9-.2,3.7,5.3,1.4,10.6,1,15-2.4,22.6-2.7,5.9-3.8,7.2-6.7,7.2s-3.2-.5-2.6-3.7c.5-2.1,1.8-5.1,2.7-6.7,1.3-2.1,1.8-6.1,1.6-13v.2ZM818.1,691.5c-1.9,7.2-6.4.8-6.7-9.6,0-4.5-.5-9.3-.6-10.7-.3-1.9.3-2.7,2.4-3,2.4-.3,3,.6,4.3,5.6,1.6,6.6,1.9,13.1.6,17.8h0ZM851.7,768.4c-1.4,1.1-3.8,1.9-5.4,1.9s-2.7-.6-2.2-3.7c.3-2.1,0-6.1-.6-9-1-4.8-1.6-5.3-5.1-5.3s-3.8.5-3.7,3.4c1,10.2,1,14.6-.3,14.2-.8-.2-1.1-1-1-1.6.2-.8,0-4.5-.5-8.3-.6-4.8-1.4-7-2.7-7-2.1,0-2.2,0-2.2,12.2s0,8.8-4,9.6c-7.5,1.4-10.6,1-9.9-1.6.3-1.3,1-3.5,1.4-5,.5-1.4,1.1-5.9,1.4-9.9.5-5.9,1.4-8.2,5-11.7,5.3-5.4,10.9-5.8,18.9-1.1,7.7,4.5,9.6,6.9,11.7,14.4,1.6,5.9,1.4,6.6-.8,8.3l.2.2ZM838.1,680.1c0-10.4.2-13.8,1.4-13.8,2.1,0,3.4,7.7,1.9,11.4-.6,1.4-.5,3.7,0,4.6,1.6,2.6,1.4,8.6-.3,14.7-1.3,4-2.2,5.1-4.6,5.1-3.7,0-3.8-.3-.8-5,1.9-2.9,2.2-6.2,2.1-17.3l.3.2ZM848.7,710.3c.8.8,3,1.4,4.8,1.4s5,1.1,6.7,2.6c4,3,8,3.5,8,.6s-2.4-4.5-5.4-7.5c-4.2-4.3-5.1-5.8-3.7-6.6,2.2-1.4,3.8-1.4,3.8-.2s2.4,4.6,5.3,9c2.9,4.3,5.3,8.5,5.3,9s-3.2,1-7,.8c-3.8,0-8.5.3-10.1.8-1.8.6-3.8.3-5-.6-1.1-1-2.4-1.1-3.2-.5-.6.6-1.4,3-1.8,5.3-.3,2.2-.6,2.9-.8,1.6,0-1.3-1.4-3.5-2.7-5-1.4-1.4-3.5-4.3-4.6-6.6l-2.1-4,5.4-1c3.4-.6,5.9-.3,6.9.6l.2.2ZM845.3,700.3c1.8-3.2,5.9-3.7,5.3-.8-.2,1.3-1.8,2.4-3.5,2.7-2.6.3-2.9,0-1.8-1.9ZM852.3,691.6c0-.8.6-1,1.3-.6.8.5,1.3,1.1,1.3,1.4s-.6.6-1.3.6-1.3-.6-1.3-1.4ZM840.3,731.6c0,.8-.6,1.3-1.3,1.3s-1.3-.6-1.3-1.3.6-1.3,1.3-1.3,1.3.6,1.3,1.3ZM863.7,755.3c-1.1-2.7-2.1-5.4-2.1-6.1s-2.2-3-5-5.3c-3.4-2.9-4.5-4.5-3.5-5.4,1-1,2.6-.8,5.3.6,2.1,1.1,4.6,2.1,5.6,2.1,2.1,0,5.8,7,5.6,10.9,0,1.8-1,4.2-1.9,5.6-1.9,2.4-2.1,2.2-4-2.2v-.2ZM872,756.7c3.2-3.7,1-16.2-3.4-19.7-1.9-1.4-4.5-2.7-5.9-2.7-3,0-3.2-2.1-.3-3.2,4.3-1.8,9.4-.8,12.3,2.2,3.7,3.8,4,16.5.5,23.5-1.3,2.6-3.4,4.8-4.8,5.1-2.7.5-2.2-1,1.6-5.4v.2ZM879.4,771.3c-3,4.2-4.5,4.8-7,3.2-1.4-1-.6-1.9,3.4-4.5,6.1-4,7.4-3.5,3.7,1.3h0ZM882.9,775.6c-.8,0-1-.6-.6-1.3.5-.8,1.1-1.3,1.4-1.3s.6.6.6,1.3-.6,1.3-1.4,1.3ZM904.2,762.8c-3.2,4.8-5,6.1-7.8,6.1s-3.7-.5-3-3.4c.6-3,.3-3.4-3.2-3-4.3.5-4,1.9-2.4-15.8l.8-8.3,7.8,6.1c4.3,3.4,8.8,7.4,9.9,9.1,1.9,2.9,1.8,3.5-2.1,9.3h0ZM911.9,743.9c3,1.6,5.9,2.4,6.4,1.9,1.4-1.4-3.4-5.9-7.4-6.9-5.9-1.4-19.5-8.3-24-12.2-7.2-6.1-24.3-34.1-22.1-36.3s9.8,9.4,14.7,18.7c4.8,9.3,12.5,16.6,21.9,21.1,8.6,4.2,29.9,11.8,36.8,13.3,3.8.8,7,2.1,7,2.7s-4.2,1.1-9.3,1.1-10.6.5-12.3,1.1c-8,2.9-9.6,2.7-14.7-1.8-6.1-5.4-4.8-6.9,2.7-3l.2.2ZM1033.1,766.8c-1.4-.5-2.7.5-4,2.9-2.4,4.8-5.4,5.9-5,1.8.6-5-3-3.8-4.8,1.4-2.1,6.1-6.6,6.6-6.7.6,0-5.4-3.5-5.3-5,.3-1,3.4-1.8,4.3-4.3,4.3s-3.4-.6-3.4-4.3c-.3-12.3-5.4-15.5-5.6-3.7-.2,7.7-1.3,10.6-4,10.6s-1.6-2.6-1.6-7.4c0-7.2-1.8-11-4.3-9.4-.6.5-1.8,4.6-2.2,9.4-.6,6.1-1.4,8.6-2.9,8.6-2.2,0-2.4-1.3-.6-5.9.8-2.2.8-3.7,0-4.2-.6-.5-1.3-2.2-1.3-3.8,0-3-3.2-5.6-4.5-3.7-.3.5-1,4.3-1.4,8.6-.6,5.1-1.6,7.7-2.7,7.7s-1.9-1.6-1.9-5-1.1-6.4-2.6-8.3c-2.2-2.9-2.7-3-3.5-1-.5,1.3-.5,4.5,0,7,.8,4,.5,4.6-1.9,4.6s-2.7-.8-2.7-1.9c0-3-2.7-3.8-4.5-1.3-2.1,3-4.8,1.4-4.8-2.9s-3.5-4.2-4.5.2c-.6,2.6-1.6,3.4-3.8,3-1.8-.2-3.2-1.6-3.4-3-.8-4.5-2.7-5.3-4.3-1.6-2.4,5.3-14.4,6.4-17.6,1.8-1.8-2.7-1.1-4.8,2.9-8.8,5.3-5.1,12.8-6.1,30.1-4.2,15,1.8,47.5,1,61.4-1.6,10.1-1.8,16.2-.3,23,5.6,2.6,2.2,3.7,3.7,2.4,3.2v.2ZM963.4,748.4c2.9.5,5.6,1.1,5.9,1.4,1.3,1.1-7.4.3-9.3-1-1.4-1-.5-1.1,3.4-.5h0ZM1011.1,745.4c1.3-.3,3-.3,4,0s0,.6-2.4.6-2.9-.3-1.6-.6ZM1023.2,745.1c1.1,0,2.4.6,2.9,1.3.5.8,0,1.3-1.1,1.3s-2.4-.6-2.9-1.3c-.5-.8,0-1.3,1.1-1.3ZM1031.4,723.6c-.5.8-1.1,1.3-1.4,1.3s-.6-.6-.6-1.3.6-1.3,1.4-1.3,1,.6.6,1.3ZM1032.7,745.1c.3,0,.6.6.6,1.3s-.6,1.3-1.4,1.3-1.1-.6-.6-1.3c.5-.8,1.1-1.3,1.4-1.3ZM1049.9,770.2c-.5-.8-.5-3,0-5l.8-3.5,2.6,3.8c1.4,2.1,2.6,4.3,2.6,5,0,1.6-5.1,1.1-6.1-.5l.2.2ZM1061.8,771.5c-.8-1.1-2.4-4.8-3.5-8.5-1.1-4-2.7-6.9-4.2-7-1.1-.2-2.2.2-2.2,1s-1,1-2.2.5c-1.3-.5-2.9,0-4,1.6-1.8,2.4-2.1,2.2-5.9-1.6l-4-4,9.8-9.4c12.8-12.5,14.4-12.5,13.4-.3-.6,7.7-.3,10.7,2.2,17.1,3.2,8.5,3.4,14.2.5,10.7h.2ZM1043.7,717.5c1-.3,2.1-.3,2.6,0,.5.5-.3.8-1.8.6-1.6,0-1.9-.3-.8-.8v.2ZM1055.9,715.8c.8,0,1.4.6,1.4,1.3s-.3,1.3-.6,1.3-1-.6-1.4-1.3c-.5-.8-.2-1.3.6-1.3ZM1063.9,686.2c-.5-3.8-1.3-5.6-2.7-5.6s-2.2,2.1-2.7,8.5c-.5,6.9-1.3,8.8-3.7,10.6-2.9,1.9-3,1.9-3-2.6,0-6.4-1.3-10.6-3.5-10.6s-2.2,3.7-.5,11.4c1,4.2.8,6.1-.8,8.3-2.6,4-4.5,3.8-4.5-.2s-2.4-10.1-4.8-10.1-2.2,3,0,13.9c.6,3.2.2,4.6-2.6,7.2-3.5,3.4-4,3-5.1-3-.8-4.5-3.4-3.7-6.4,2.1-3.2,6.2-2.7,11.8,1,11.8s2.1.2.3,1.9c-1.1,1-3.5,2.2-5.6,2.7-3.4.8-3.7.6-3.7-3.4,0-9-5.3-12.6-7.8-5.4-.8,2.2-2.1,4-2.9,4s-1.9,1.4-2.7,3.4c-.8,2.1-2.2,3.4-4.2,3.4s-2.7-.5-2.1-4c1.1-5.8-2.4-5.3-5.9.6-1.4,2.6-3.5,4.6-4.6,4.6-2.6,0-2.4-2.6,0-3.5,2.6-1,2.7-7.2,0-7.2s-3.2,2.2-4.8,5c-1.6,2.7-3.8,5.8-5,6.7h0c-2.7,2.2-5.1,2.1-5.9,0s1.4-4.8,4-4.8,1.8-1.3,1.8-2.7c0-3.8-4.5-2.9-5.1,1.1-.2,1.6-1.1,3-2.2,3s-2.4,1-3.4,1.9c-1,1.1-2.6,1.9-3.5,1.9-2.1,0-2.6-4.8-.5-6.1,1.9-1.1,1.6-7.4-.3-7.4s-5,2.9-5,6.2-3.5,5.8-8.3,4.8c-3.5-.6-4.8-2.4-2.4-3.2.6-.2,1.4-2.2,1.6-4.3.6-5.6-2.6-5.9-4.8-.3-2.4,5.8-3.8,6.7-7.2,5-1.8-1-2.7-2.7-2.7-5.4,0-4.6-1.9-5.1-5.1-1.1-2.1,2.7-2.4,2.7-4.5.6s-2.2-3.7-2.2-5.6q0-3.2-3-1.3c-4,2.7-5.9,2.6-6.7-.5-1-3.7-7.2-7.5-9.3-5.8-1.3,1-3-.2-6.7-4.5-4-4.6-4.8-6.6-4.2-9.1.8-3,.5-3.4-2.6-3.4s-3.5-.8-3.8-3.7c-.3-2.7-1.1-3.5-2.9-3.5-3.2.3-7.4-4.5-7.4-8.5s-2.2-5.1-4.5-3.2c-1.3,1.1-2.4.5-4.6-2.6-1.6-2.2-3.5-3.7-4.3-3.2s-3-.6-5-2.4c-1.9-1.8-8.6-6.1-15-9.4-6.2-3.4-12.2-7-13.1-8.2-1-1.1-2.2-2.1-2.9-2.1-2.4,0-31.2-14.7-37.8-19.4-17-12-29.9-25.3-32.2-33-1.6-5.1-1.4-5.8,1.4-8.2,4.8-4.2,8.8-12.6,8.8-18.6s-1.1-8.6-2.6-12.6c-1.4-4-2.6-7.7-2.6-8.2s2.1-1.6,4.6-2.4c6.1-2.1,10.6-10.7,12-23l1-9,6.2-3.4c8.3-4.6,14.6-12.3,15-18.6.2-3.7,1.3-5.6,4.2-7.7,7.2-5.1,14.1-15.4,15-22.2.8-6.1,1.1-6.4,6.4-8,14.2-4.3,23.2-12.5,26.7-24.5,1.9-6.6,2.6-7.5,5.4-7.5,4.5,0,18.9-6.7,24.2-11.2,2.4-1.9,4.8-5.6,5.6-8l1.4-4.3h10.9c9.4,0,12-.3,18.6-3.7,4.2-2.1,7.7-4.2,7.7-4.6s1.4-2.6,3.2-4.6l3-3.8,4.5,2.4c2.6,1.3,7.7,3,11.7,4,6.7,1.6,7.5,1.4,13.8-1.6l6.6-3.4,8.5,4.6c10.1,5.6,17.1,6.1,24.8,1.9l5.1-2.9,6.4,3c6.9,3.4,21.4,4.3,31.2,2.1,4.5-1,5-.8,9.3,5,5.4,7.2,10.9,9.8,22.9,10.7,10.9.8,12.3,1.6,16.2,8.3,2.7,4.8,3.5,5.3,9.9,6.1,8.6,1.1,10.2,2.4,12.2,10.1,2.2,9,6.2,16.3,12.3,22.6l5.3,5.4-2.1,6.2c-4.2,12.2-1.9,16.8,11.8,25.4,5.4,3.5,10.1,6.4,10.1,6.6s-1,2.9-2.1,6.1c-2.9,8.2-1.6,13.3,4.8,21.1l5.6,6.6-3,6.4c-5,10.2-2.9,26.4,4,33.4,3.4,3.4,3.5,4,2.1,8.3-2.7,8-3.7,17.3-1.9,19.4,1.3,1.6,1,1.9-2.2,1.9-5.9,0-7.8,2.7-4.2,5.6,2.6,1.9,2.7,2.6,1.1,3.5-1,.6-3.8,1-6.4.5-3.5-.6-4.5-.3-4.5,1.4s.5,2.2,1,2.2,1.8.5,2.7,1.1c1.4,1,1.4,1.8.3,4-1.3,2.4-2.2,2.7-6.1,2.1-5.1-1-6.1,1-2.4,5,1.9,2.2,1.9,2.7,0,5.8-1.8,2.7-2.9,3.2-6.2,2.6q-4-.8-3.2,3.8c.6,3.5.3,5.3-1.4,7-2.2,2.2-2.4,2.2-4.3-.5-1.1-1.6-2.4-2.9-3-2.9-2.1,0-1.3,4.3,1.1,6.1,1.8,1.3,2.1,2.2,1,4-1.9,3.2-4.6,3.8-4.6,1.3s-3.4-3.8-7.4-1.3c-2.1,1.4-3.4,3.4-3.4,5.1.5,5.3,0,7.4-2.2,9.4-3.4,3.4-5,2.6-4-2.2,1-5-1-9.1-3-6.9-.8.8-1.4,4.5-1.6,8.2-.2,5.8-.8,7-3.4,8.3-5.6,2.6-6.9,1.8-6.6-3.5.3-5.6-2.1-7.4-4.5-3-1.1,2.1-1.1,3.8,0,6.1,1.1,2.4,1,3.5-.6,5.1-3,3-5.9,2.6-5.9-1.3s-2.6-5.8-4.8-2.9c-1.3,1.8-1.3,3.4-.3,5.9,1.1,3,.8,3.8-2.4,6.6l-3.7,3-.6-5.6-.2-.2ZM1114.6,677.9c0,1.3-1.3,1.9-3.7,1.9q-3.5,0-1.1-1.9c3.4-2.6,4.8-2.6,4.8,0ZM1111.7,660.6c1.3-.8,2.9.3,2.9,2.1s-.6,1.1-1.3,1.1c-1.8,0-3-2.4-1.6-3.2ZM1112.5,701.1c-.5.8-1.1,1.3-1.4,1.3s-.6-.6-.6-1.3.6-1.3,1.4-1.3,1.1.6.6,1.3ZM1113,718.7c3.7-.3,4.3,0,3.7,1.8-.5,1.3-.8,2.4-.8,2.7s-1.9.5-4.2.5c-6.1,0-4.8-4.5,1.3-5.1v.2ZM1119.1,681.7c1.9-5.6,3.4-11,3.4-12,0-2.7,1.8-2.2,4.3,1.6,2.1,2.9,2.2,4.3,1.1,10.6-.8,4.6-.8,8.8,0,11.5.6,2.4,1.1,4.5,1,4.6-.2.2-2.4.6-5,1.1-4.3.8-4.8.5-6.4-3.2-1.6-3.5-1.4-5.1,1.6-14.2h0ZM1102.4,693.1c-.6,0-.8-1-.3-1.9.5-1.1,1.3-1.9,1.9-1.9s.8,1,.3,1.9c-.5,1.1-1.3,1.9-1.9,1.9ZM1103.7,723.3c-.3,1.3-1.6,2.6-2.9,2.9-1.8.3-2.2-.2-1.9-1.9.3-1.3,1.6-2.6,2.9-2.9,1.8-.3,2.2.2,1.9,1.9ZM1097.1,697.1c0,1.4-.6,2.7-1.3,2.7s-1.3-1.3-1.3-2.7.6-2.7,1.3-2.7,1.3,1.1,1.3,2.7ZM1080.7,703.1c-2.9,2.2-4.8,2.6-4.8.8s3.2-2.9,5.8-2.7c.8,0,.3,1-1,1.9ZM1069.9,737.9c-1.9,3.2-3.7,5.8-4,5.8s-.6-2.1-.6-4.6,1-5.6,2.9-7.4c5.9-5.4,6.7-2.4,1.8,6.2ZM1071.9,717.1c0-.6,2.9-2.9,6.6-5.3,3.5-2.2,7.2-5,8-6.1.8-1,2.7-1.4,4.3-1.1,2.4.6,2.7,1.4,1.9,6.7-.5,3.4-.8,7.4-.8,9.1,0,3.7-.6,3.8-5.3,1.1-1.8-1-5.9-2.2-9-2.7-3.2-.5-5.6-1.3-5.6-1.9l-.2.2ZM1111.1,743.8c-2.9,5.6-2.4,18.2.8,23.5,2.9,4.6,1.8,5.8-1.8,1.9-1.3-1.3-2.2-4.6-2.2-7.2,0-6.9-2.1-11.8-4.6-10.7-1.6.6-1.9,2.2-1.3,8.3.5,4.2,1.4,8.2,1.9,8.8.6.6,1.1,2.1,1.1,3,0,2.1-1.1,2.1-4.3.3-1.3-.8-2.6-3.5-3-6.2-2.1-12.3-5.9-14.1-5.9-2.6s-1.3,7.4-4.5.8c-1.8-3.7-4.8-4.8-4.8-1.9s-3.5,2.9-4.3.5c-1-2.6,5.3-13.9,11.2-20.3,6.6-7.2,17.6-11.4,26.9-10.2,3.4.3,6.1,1.1,6.1,1.4s-2.1,2.2-4.8,4c-2.6,1.8-5.6,5-6.7,6.9l.3-.3ZM1125.9,768.6c-1.1,1.1-4.8-5.6-4.8-9s.5-2.4,2.7,2.6c1.4,3.2,2.4,6.1,2.1,6.4ZM1181.6,771.6c-1,0-2.6.3-3.7.8-3.2,1.3-2.6-2.4,1.4-8.2,3.4-5,3.2-8.3-.3-9.4-1.8-.6-9.1,14.9-7.8,16.8.6,1-.3,1.4-2.6,1.4s-3.8-1-4.2-1.9c-.8-2.1,5.3-13.8,8.5-16s1.6-1.6-.3-3.2-2.6-1.3-5.8,1.8c-1.9,1.9-4.8,7-6.2,11.2-3,8.6-3.4,8.8-15.8,6.9-8.6-1.3-10.7-2.6-13.6-8-2.2-4.5-2.4-6.6-.5-6.6s4.8-2.9,8.8-6.6c10.6-9.4,18.2-11,33.6-7.4,10.9,2.7,15.8,7,16.2,14.7.3,5.4-4.3,13.8-7.7,13.8v-.2ZM1165.1,889.4c.8.5,1.3,1.1,1.3,1.4s-.6.6-1.3.6-1.3-.6-1.3-1.4.6-1.1,1.3-.6ZM1138.9,894c1,0,2.4,1.1,3.4,2.6,2.1,3.4,0,4.6-2.7,1.6-2.6-2.9-2.7-4.2-.5-4.2h-.2ZM1218.6,915c-1.4,10.1-8.3,20.8-18.1,28.2-3.7,2.7-7.5,5.6-8.8,6.6-1.1,1-6.6,2.6-11.8,3.7-10.4,2.2-11,2.2-23.5.8-18.6-2.2-31.7-8.2-40.8-18.9-3.2-3.8-6.6-7.7-7.5-8.5-1-1-1.6-2.2-1.6-2.9,0-1.4,17.1-19,18.6-19s3,1.1,5.1,2.2c5.1,2.9,6.9,1.3,3-2.7-5.6-5.9-2.7-8.6,3-2.9,3.7,3.7,8.3,4.3,12.2,1.4,2.4-1.8,2.4-1.9-.5-5.4-5-6.4-3.5-8.5,2.1-2.9,2.7,2.7,6.1,5,7.4,5,3.2,0,2.9-1.3-1.3-5.6-4.6-4.8-2.9-6.6,1.9-1.9,2.1,1.9,4.5,3.5,5.3,3.5s1.6,1.4,1.6,3.2c0,4-4.5,7.4-9.6,7.4s-5.9,2.1-3.8,4.5c2.1,2.6-2.6,4.6-14.6,6.7-6.9,1.1-9.9,2.2-9.9,3.5s1.8,2.1,5,2.2c3.7.3,5,1,5,2.7,0,3.4,4,10.9,6.1,11.7,3.5,1.3,4.5-.8,2.2-5.3-1.1-2.4-2.7-5.4-3.4-6.7-1.4-3.2-.3-5,3.5-5s3,.8,3.2,4.3c0,5.4,4.2,14.4,6.4,14.4s2.2-2.7,0-6.1c-1-1.4-2.1-4.5-2.4-6.6-.3-2.2-1-4.8-1.1-5.9-.3-1.3.6-2.1,2.4-2.4,2.2-.3,3,.2,3,1.9,0,2.7,5.3,14.4,8.3,18.2,1.1,1.4,2.6,2.1,3.4,1.6,1-.6-.2-4-3.2-9.6-4.6-9-5.8-16.2-2.9-18.9,2.9-2.9,4.6-1.6,6.2,4.3.8,3.2,2.1,6.2,2.7,6.7.8.5.8,1.8-.3,3.4-1.3,2.1-1.1,3,1,5.3,2.4,2.7,10.1,3.8,10.1,1.6s-3.7-8.5-5.1-9.3c-.6-.5-1.8-2.4-2.2-4.5-.8-3.2-.5-3.7,2.4-3.7,4.5,0,11.7-2.6,15.5-5.6q3.2-2.4,5.1,1.4c1,2.1,2.9,4.8,4.2,5.9,2.7,2.4,10.9,1.4,10.9-1.3s-4.8-9.8-7.2-11.4c-.8-.5,1.8-1,5.6-1s7.2.6,7.7,1.6c.3,1,0,5.4-.5,9.9l.2-.2ZM1198.4,906c0-.8,1-1.3,2.1-1.3s1.8.6,1.3,1.3c-.5.8-1.4,1.3-2.1,1.3s-1.3-.6-1.3-1.3ZM1219.1,843.9c4.3,2.4,5.3,3.7,5.3,6.9s.3,4,5.1,4,9.3,3.4,8,6.7c-.5,1.4-1.4,1.3-4.6-.2-2.4-1.3-5.4-1.6-7.8-1.1-5,1.1-5.3,4.6-.5,4.6s12.5,2.9,12.5,4.8c0,2.9-2.4,3.4-6.7,1.1-4.8-2.6-9.9-2.1-9.9.6s2.2,2.6,6.1,3.5c3.4.8,5.9,2.1,5.9,3s-.2,2.2-.3,2.9c0,.8-3,1.3-7,1-8.5-.5-10.1,2.1-3.2,5.1,4.2,1.8,4.6,2.4,3.2,4-1.3,1.6-4.3,1.9-13.4,1.8l-11.7-.3-9.1,6.2c-11.2,7.7-13,8-12.5,2.1,0-1.3-.3-2.6-.8-2.9-.6-.3-.6-5.1-.3-10.4.8-9.8.6-11.4-3.5-31.5-1.9-9.4-2.1-11.8-.6-16,1.9-5.4,7-14.4,11.8-20.3,5.8-7.2,12.5-4,18.1,8.5,3,7,6.9,10.9,16.2,16v-.2ZM1202.4,776.1c3.7,1.4,4.3,1.3,6.1-1,1.1-1.4,1.6-3.7,1.1-5-.6-1.8.8-3.2,5.9-5.8,9.8-5,12.5-4.5,16.6,2.6,1.9,3.2,3.5,6.1,3.5,6.4s-1.4.3-3.4,0c-4.8-1-4.2,1.9,1.3,5.1,5,2.9,6.2,6.6,2.2,6.4-1.3,0-3.5-1-5-1.9-3.7-2.7-5-2.4-4.5,1,.3,2.1,1.8,3.4,4.8,4.2,2.9.8,4.3,2.1,4.3,3.7,0,3.5-3,3-6.7-.8-1.8-1.8-3.7-3.4-4.3-3.4-2.4,0-.8,4.5,2.9,8,4.5,4.2,4,5.6-1.4,4.5-4.3-.8-5.4,1.9-1.8,5,1.8,1.4,1.8,2.1-.8,4.8-1.6,1.8-4.6,3.7-6.9,4.5-3.7,1.3-4.3,1-8.5-3-2.4-2.4-4.5-5.6-4.5-7,0-3.8-4.8-10.7-9.1-13-7-3.7-7-10.4-.2-14.2,3.2-1.9,4.6-1.9,8.2-.6v-.3ZM1230.7,699.9c7.7-2.6,9.9-2.4,7.5.5-1,1.1-1,2.9,0,5.4.8,2.1,2.2,7.5,3.2,12.2l1.8,8.3-3.8,2.7c-3.7,2.7-3.8,2.7-5.1,0-.8-1.4-1.4-3.5-1.4-4.8,0-2.9-3.5-4-6.1-1.9-2.6,2.1-1.4,7.5,1.9,10.1,1.9,1.4,1.9,1.8-1.4,1.8s-3.7-.5-3.7-3.7c0-6.4-1.4-9.6-4.2-9.6s-2.4.6-1.9,4.3c1.8,11.4,1.9,10.9-4.5,11.4s-8-.8-8.2-6.7c0-2.4-.8-3.7-2.1-3.7-1.9,0-2.7,3.7-2.1,10.4.2,1.9-.5,3-1.8,3-3,0-4-3.7-2.6-9.3,1.4-5.6,1-8-1.6-8s-3.4,4-5.3,12.3q-.8,3.7-4.2,1.4c-2.7-1.8-3.2-2.9-2.7-6.1,2.6-12,2.6-12.2.6-11.5-1,.3-2.9,3.2-4,6.6-1.1,3.2-3.2,6.1-4.3,6.2-1.8.3-2.1-.8-2.1-6.4,0-8.3-2.9-8.6-4-.6-.5,3.5-1.4,5.3-3,5.6-1.9.3-2.2-.5-2.2-5.1,0-6.9-2.7-6.6-4.6.5-1.4,4.8-4.5,9.3-4.8,6.9,0-.6-.3-3.4-.3-5.9-.2-7-3.8-6.2-5,1.1-.6,5.4-3.2,8.8-5.4,7.4-.6-.3-.6-4.2-.2-8.6.6-6.6.5-7.8-1.3-7.8s-2.4,1.8-3,5.3c-.6,4-1.4,5.3-3.4,5.3-3,0-5.3-4-4.3-7.7,1.3-4.6-2.2-5-3.8-.5-1.6,4.2-5.8,5.8-6.9,2.4-1.9-5.8-1.3-6.9,4.5-8.5,15.4-4.5,33-7.2,56-8.3,13.6-.6,26.2-1.9,28.3-2.7,2.1-.8,6.1-1.4,8.8-1.4s8.5-1.1,12.5-2.4l.2.3ZM1276.7,663.3c-1.4-2.7-5-2.7-5.9,0-1.1,3-3.8,2.4-6.4-1.4-2.4-3.8-4.2-3-5,2.1l-.5,3.4-1.6-3.7c-1.9-4.6-6.2-5.1-5.3-.5s0,5.4-9.4,6.9c-7.8,1.3-8.5,1.1-9.9-1.4-.8-1.4-1.3-3-1.1-3.4.2-.3-.6-.8-1.8-1.1-1.6-.3-2.1.6-2.1,4.3s-.8,5.3-2.9,6.7c-4.3,3-6.4,2.6-6.4-1.1s-.6-3.7-1.4-4.2c-1.9-1.3-3.8,1.9-3.8,6.4s-1.1,4.2-2.7,5.1c-4.2,2.2-6.6-.6-6.6-7.7s-.5-5.8-1.6-5.4c-3.4,1.1-4,14.4-.8,14.4s1,.6.5,1.3c-2.6,4.3-6.2-.6-8.2-11-1.1-6.4-4.6-6.9-4.5-.6,0,2.4.8,6.4,1.8,9.1,1.6,4.6,1.6,4.8-2.1,7-5.4,3.2-6.4,2.9-6.4-2.1,0-7.5-1.6-14.2-3.4-14.2-2.6,0-3,2.6-2.1,11,.5,4.3.5,7.8,0,8.2-.5.2-2.6.3-4.8.2-3.8,0-4-.3-3.5-5.4.5-7-.6-11.4-3-11.4s-1.9,1.6-1.9,6.7-.6,7.8-1.4,9.3h0c-1.3,2.4-6.6,3.7-6.7,1.6-.3-4.3,0-18.9.3-21,.3-1.4,2.7-3.7,5.1-4.8,15.2-7.4,29.8-13.4,37.8-15.8,5.1-1.6,13-4,17.4-5.4,13.4-4.2,37.8-8.2,50.1-8.2s15.5.8,12.5,3.8c-1.1,1.1-2.1,3.2-2.1,4.6,0,2.7,10.4,18.4,12.3,18.4s1.1.6,1.1,1.4c0,2.4-12.2.5-13.6-2.1h0ZM1374.6,679c-1.1,2.7-7.2,2.9-7.2,0s1.3-3.2,2.7-4.8c3-3,2.9-5.6-.5-6.4-1.3-.3-3,1.1-4.5,3.5-3.4,5.9-5.9,7-11.5,5.3-2.7-.8-4.8-2.2-4.8-3.2s.5-1.8,1.1-1.8c1.3,0,2.7-9.3,1.8-11.2-.8-1.4-5.1,3.8-7,8.3-.6,1.8-1.9,2.7-2.6,2.2-.8-.5-1-1.4-.6-1.9,1.3-2.1,3-13.3,2.1-13.3-1.4,0-4.6,4.2-6.4,8.3-1.1,2.6-2.2,3.4-3.7,2.9-1.6-.6-1.9-1.9-1.3-5.9,1-5.9-1.1-7-3.5-1.8-1.9,4.2-5.4,4.3-8,.3-1.6-2.4-2.4-2.7-3.8-1.4-2.1,1.6-6.1,2.2-12.8,1.9-3.8-.2-4.3-.6-4.3-3.8s1.8-6.1,3.7-9c4.5-6.4,9.4-7.7,28.8-7,10.6.3,14.6,1.1,19.5,3.5,16.5,8,27,24.5,22.9,35.4v-.2ZM1386.1,677.1c1.4-2.7,4-3.5,4-1.1s-1.3,2.7-2.7,4.3c-2.9,3-3.5,1.3-1.3-3v-.2ZM1421.5,746.3c-.3,0-1-.6-1.4-1.3-.5-.8-.2-1.3.6-1.3s1.4.6,1.4,1.3-.3,1.3-.6,1.3ZM1426.6,744.9c-1.9-2.1-2.1-3-.8-3.8,2.1-1.3-1-2.7-5.9-2.7s-3.8-2.4,1.4-3.4c5.9-1.1,6.1-3.2,0-3.2-8.8,0-11.7-3-5.1-5.4,2.9-1.1,3.2-1.6,1.6-2.6-1.1-.6-3.5-1.3-5.6-1.3-4.2,0-6.1-2.2-3.8-4.3s1.6-5-2.2-5-13.6-9.1-13.6-13.1-1-2.9-2.1-3.4c-2.6-1-2.7-9.9,0-11,1.1-.3,2.2-2.2,2.7-4,.6-2.7,1.4-3.2,3.8-2.4,5.1,1.6,7.7,4.8,13,15.8,4.2,9,6.9,12.5,17.4,22.6,15.8,15.2,17.4,17.3,16.3,23.4-.5,2.6-1.4,5.1-2.2,5.6-3.2,2.1-12.3,1.1-14.9-1.8h0ZM1441.9,756.3c-1,1.1-2.6,1.9-3.5,1.9s-1.9-1-1.9-1.9,1.3-1.9,3.5-1.9,3.2.3,1.9,1.9ZM1434.4,764.6c2.1-.8,6.6,2.2,5.4,3.5-.5.5-2.2.8-4,.8-3.4,0-4.3-3.2-1.4-4.3ZM1445.9,782.2c-2.9,5.8-3.5,6.1-6.7,4-1.8-1.1-1.4-1.8,1.3-3.8,4.5-3.5,2.9-7.4-2.6-6.1-2.2.5-4,.5-4,0,0-1.9,4.8-4.5,8.3-4.5s3.5-.3,2.9-3.5c-.6-2.7-.5-3.4,1-2.9,3,1,3,10.9,0,17l-.2-.2Z"/>
    <path class="st0" d="M1120.3,601.2c-1.4,0-1.9-.8-1.3-2.7,1-3.2-1.4-3.5-4.8-.6-2.1,1.9-2.1,2.4-.3,5.9,2.2,4.5,2.7,4.6,5.9,1.8,3-2.7,3.2-4.5.3-4.5l.2.2Z"/>
    <path class="st0" d="M1120.7,593.5c1.9,3,11.2-.6,11.2-4.2s.3-3-5.4-1.1c-4.8,1.6-6.9,3.5-5.6,5.4l-.2-.2Z"/>
    <path class="st0" d="M1113.8,569.2c1.1,1.9,8.8-1,8.8-3.4s-5.9-2.4-8,0c-1,1.1-1.3,2.6-.8,3.2v.2Z"/>
    <path class="st0" d="M1114.4,611.9c-.8,0-3-1.3-5.1-2.9-6.1-4.5-9.4-.5-3.8,4.3,3,2.6,5,3,8.3,1.8,2.4-1,2.9-3.2.6-3.2Z"/>
    <path class="st0" d="M1107.9,558.8c0,1.6,1.6,1.4,5.8-.5,4-1.9,4.8-5,1.4-5s-7,3.7-7,5.6l-.2-.2Z"/>
    <path class="st0" d="M1087.5,634c-.3,2.2,0,4.8.8,5.6,1.8,1.8,5.8,1.9,6.9.3.5-.6,0-1.9-1.3-2.9-1.1-1-1.9-3.4-1.9-5.4s-.5-4-1.1-4.5c-.6-.3-1.6-3-2.1-6.1-.8-5.4-2.6-7.5-4.8-6.1-.8.5-.2,3.5,1.4,7.7s2.4,8.6,2.1,11v.3Z"/>
    <path class="st0" d="M1103.9,581.7c0,2.2.8,1.8,4.8-2.2,2.7-2.7,4.5-5.3,4.2-5.6-1.4-1.4-9,5.4-9,8v-.2Z"/>
    <path class="st0" d="M1105,567.1c1.6-1.1,2.7-2.6,2.2-3.2-1.1-1.6-7.4,1.4-7.4,3.5s1.4,2.2,5.1-.3Z"/>
    <path class="st0" d="M1205.8,859.5c-4.5-1.8-12.3,1.3-10.6,4.2,1,1.6,5.6,1.4,6.6-.2.5-.6,2.2-1,4-.5,4.3,1.1,4.3-1.8,0-3.5Z"/>
    <path class="st0" d="M1098.3,599.8c10.2-.6,12.2-1.4,9.6-4.3-1.3-1.6,0-3.2,7.2-8.8,7.7-6.1,9.8-9.3,6.1-9.3s-16,12.5-16,14.7-2.1,3-11.8,4.2c-1.8.2-3.5,1.1-3.8,2.2-.5,1.4,1.3,1.8,8.8,1.3Z"/>
    <path class="st0" d="M1101.9,556.1c1.1,1.9,5.9-1.1,7.5-4.8.8-1.8,2.6-3.5,4-4,3.5-1.1,3.2-5.9-.3-5.9s-2.6-.6-1.9-2.6c.6-1.8,0-2.7-2.1-3.2-2.6-.6-2.7-1.3-1.9-6.2,1-5.3.8-5.4-2.2-5.1-1.9.3-2.9,1.1-2.6,2.4.3,1.1.5,3.8.3,6.2,0,2.9.3,4.3,1.6,4.3,4.5,0,4.6,8.3,0,13.6-1.8,2.2-3,4.5-2.6,5.1l.2.2Z"/>
    <path class="st0" d="M1197.3,790.2c4,1.6,12.6,1.6,13.6,0,.5-.6-.8-1.6-2.9-2.1s-5.4-1.4-7.5-2.1c-6.1-1.9-9,1.8-3.2,4v.2Z"/>
    <path class="st0" d="M1352.8,672.6c0,1.1,1,1.9,1.9,1.9,2.2,0,6.6-5.9,5.8-8-.6-1.9-7.7,3.7-7.7,6.1h0Z"/>
    <path class="st0" d="M1198.7,783.6c2.7,1.1,7.4.6,9-.8,1.3-1.1-3.4-3-7.7-3s-5.8,2.2-1.3,4v-.2Z"/>
    <path class="st0" d="M1237.8,246.3c1.8-.6,2.1-2.1,1.3-7.7-1-7.2-2.2-9.6-4.6-8.2-1.8,1.1-1.9,8.6-.2,13.3,1,2.4,1.9,3.2,3.5,2.6Z"/>
    <path class="st0" d="M1256.7,275c-2.4,2.4,0,3.8,10.2,5.9,5.1,1,9.8,1.6,10.4,1.3,1.6-1-.3-3-2.9-3s-2.9-.5-3.5-1.1c-.6-.6-3.8-1.9-7-2.9-4.3-1.4-6.1-1.4-7.2-.2Z"/>
    <path class="st0" d="M794.1,282.5c5.3,1.9,10.7,4,12.2,4.6,5.4,2.2,6.6,1.1,1.4-1.4-2.9-1.4-6.2-3.5-7.4-4.6-1.3-1.1-2.6-1.9-3-1.9s-5-2.4-10.1-5.3-10.2-5.3-11.5-5.3c-7,0,4.5,9,18.2,14.1l.2-.2Z"/>
    <path class="st0" d="M1262.6,237.1c.8-6.4-.5-9.3-3.5-8-2.7,1-3,13.6-.5,14.6,2.4,1,3.2-.5,4-6.6Z"/>
    <path class="st0" d="M1259.5,266.7c3.4,1.6,7.5,2.9,9.3,2.9,2.9,0,2.6-.3-1.9-2.6-2.9-1.4-6.6-3.8-8.2-5.3-3.5-3.2-6.4-3.4-5.8-.3.2,1.3,3.2,3.7,6.4,5.3h.2Z"/>
    <path class="st0" d="M1249.8,227.9c-2.4-3.2-4.3-.5-5.6,7.7-.5,3.7-.5,6.4.3,6.4,4.6,0,8.3-9.8,5.3-13.9v-.2Z"/>
    <path class="st0" d="M1277.6,407c-1.1,0-1.9,1.1-1.9,2.9s.3,2.6,1.9,1.1c1.1-1,1.9-2.2,1.9-2.9s-1-1.1-1.9-1.1Z"/>
    <path class="st0" d="M1282.1,402.2c2.1-2.1,3.7-4.2,3.4-4.5-.8-.8-7.2,5.4-7.2,7s1.8-.5,3.8-2.6Z"/>
    <path class="st0" d="M1251.7,490.2c1,12.2,2.4,16.2,8.2,23.5,2.9,3.5,5,5.1,6.9,4.8,3-.5,4.8-3.7,1.9-3.7s-4.2-3.5-6.9-8c-4.2-6.7-5.1-9.8-6.1-18.7-1-9.6-1.6-11.2-5.3-14.9-3-3-4.5-3.7-5.6-2.6-1.1,1.1-.5,2.4,2.2,5.3,3.4,3.4,3.8,5.1,4.6,14.4v-.2Z"/>
    <path class="st0" d="M1238.3,494c-2.9,3.5,1,18.1,7.7,28.3,2.1,3.2,2.9,3.5,6.2,2.2,1.8-.6,1.6-1.4-1.1-5.1-5.8-7.5-7.7-13.9-7.7-25.1s-.2-10.6-3.7-14.2c-4.5-4.6-8.5-5.4-4.2-.8,3.7,3.8,5.1,12,2.9,14.9l-.2-.2Z"/>
    <path class="st0" d="M1290.3,411c2.6,1.6,2.7,1.6,6.2-1.3,4-3.4,3.8-4-.8-4s-8.3,3.5-5.4,5.4v-.2Z"/>
    <path class="st0" d="M1325.6,470.3c2.1.3,4,1,4.3,1.3.3.3,1.8.6,3.2.6,4.6,0,1.8-2.7-6.4-6.1-9.4-3.8-8.6-3.7-8.6-1.4s3,4.8,7.5,5.6h0Z"/>
    <path class="st0" d="M1326.9,456.9c7.2,2.2,9.9,2.2,9.9,0s-12.5-6.7-14.7-5.4c-2.6,1.6-.6,3.7,4.8,5.4Z"/>
    <path class="st0" d="M1283.5,420.9c-.8,1-1.1,2.6-.6,3.4.5.8,1.9,1.1,3,.6,1.3-.5,4.6-1.8,7.7-2.9,5.9-2.1,8.3-5.3,5-6.7-2.4-1-13.1,2.9-15.2,5.6h.2Z"/>
    <path class="st0" d="M1223.2,497.1c-1,7.4,1.3,24,4,28,1.1,1.8,3.4,3.7,5,4.3,5.6,2.2,6.7.8,2.4-3.2-3.2-2.9-5.3-10.6-6.7-25.1-1.1-11-3.8-18.4-6.9-18.4s-1.4,4.8.8,6.7c1.6,1.4,1.9,3.2,1.3,7.5l.2.2Z"/>
    <path class="st0" d="M1328.5,444.6c6.4,2.7,7.8,2.7,8.8.2.8-2.2-7.4-6.4-10.9-5.8-3.8.8-2.9,3.4,2.1,5.4v.2Z"/>
    <path class="st0" d="M1322.1,487.9c7.5,3.4,8,3.4,8,0s-1.6-3.4-5-4.6c-2.7-1.1-6.9-3.5-9.3-5.3-4.2-3.2-8.5-4.3-8.5-2.2s8.8,9.4,14.7,12.2h0Z"/>
    <path class="st0" d="M1299.4,489.1c-2.1,2.1,3,8.3,9.3,11.4,2.7,1.3,5.8,1.9,6.9,1.6,1.1-.3,3.7-1.1,5.6-1.4,4.6-1,4.8-4.3,0-4.3s-14.2-2.9-17.4-5.8c-2.2-1.9-3.4-2.2-4.5-1.3l.2-.2Z"/>
    <path class="st0" d="M701.8,329.4c-1.3,1.3-1,2.2,1.8,4.3,1.9,1.4,4.3,4.8,5.6,7.4,2.7,5.6,3.5,5.9,3.4,1,0-5.1-8.5-15-10.7-12.6h0Z"/>
    <path class="st0" d="M1335.5,432.4c3.5,2.4,5.6,2.4,6.2,0,.6-1.9-8.8-7.7-10.4-6.2-1.4,1.4-.3,3.2,4,6.1l.2.2Z"/>
    <path class="st0" d="M775.5,304.9c-1-5.1-13.3-19.8-21-24.8-3.8-2.6-8.8-3-8.8-1s2.9,3.4,6.6,6.1c6.4,4.5,15.8,14.9,20.5,22.2,1.3,2.1,2.9,3.7,3.7,3.7s1-.6.5-1.3c-.5-.8-1.1-2.9-1.4-4.8v-.2Z"/>
    <path class="st0" d="M1192.3,519c.2,10.6,1,16.6,2.4,20,1.8,3.8,2.9,5,5.6,5,4,0,4.2-1,1.3-4.2-1.6-1.8-2.4-6.2-3.2-16.8-1-14.6-4.3-25.6-7.7-25.6s-2.2,2.9,0,5c1,1,1.6,7.4,1.8,16.6h-.2Z"/>
    <path class="st0" d="M1207.1,502c-.5,3.4,0,8,1.3,12.2,1.1,3.7,2.1,7.7,2.1,9s.8,4.5,1.9,7c1.3,3.2,2.9,4.6,4.6,4.6,3.5,0,3.5-1-.5-9.9-3.8-8.8-5.6-18.7-3.5-20,3.2-1.9-4.6-18.1-8.6-18.1s-2.2,2.4,1,6.4c2.1,2.7,2.6,4.6,1.9,8.8h-.2Z"/>
    <path class="st0" d="M1344.8,418.3c0-1.9-2.7-3.5-6.1-3.5s-1.6.6-.5,2.7c1.6,3,6.7,3.7,6.7.8h-.2Z"/>
    <path class="st0" d="M1227.5,248.1c2.4,1.9,3.7,2.1,4.5.6,1-1.6-6.7-10.1-8.3-9.1-1.8,1.1.5,5.8,3.8,8.3v.2Z"/>
    <path class="st0" d="M1217.8,253.7c1.3-.3,2.7-1.3,3-2.2.3-1.1-.2-1.6-1.8-1.3-1.3.3-2.6,1.3-3,2.2-.3,1.1.3,1.6,1.8,1.3Z"/>
    <path class="st0" d="M1215.9,292.4c5-4.8,6.4-8.3,4.2-9.8-1.8-1.1-4.2,1.1-9,8-5.6,8.2-16.6,30.1-15.7,31.5.3.6,1.3.8,2.1.6,2.4-.8,11.4-15.8,12.3-20.8.5-2.6,3-6.6,6.1-9.4v-.2Z"/>
    <path class="st0" d="M1208,263.8c4,2.9,6.4.5,3-3.2-1.3-1.4-3.2-2.7-4.2-2.7-2.7,0-2.1,3.7,1.1,5.9Z"/>
    <path class="st0" d="M1260.2,357.7c-4.6,0-6.2-2.1-2.7-3.5,2.2-.8,2.9-7.2.6-7.2s-2.6,2.4-4,5.3-5.4,8.3-8.6,12c-6.7,7.5-7,8.6-3.7,10.6,3.7,2.2,5.3,1.8,7.7-2.2,1.1-2.1,5.1-5.8,8.6-8.3,3.5-2.6,6.6-5.1,6.6-5.6s-2.1-1-4.6-1h.2Z"/>
    <path class="st0" d="M1250.6,336.4c-1.3,0-11.8,12.2-15.2,17.6-1.3,1.9-2.2,5.1-2.2,7,0,4.3,2.9,3.8,3.5-.6.5-3.4,4-8.2,10.7-15.4,4-4.3,5.8-8.6,3.2-8.6h0Z"/>
    <path class="st0" d="M788.5,249.9c3.2,0,2.7-3-.6-3.8-1.3-.2-2.2.5-2.2,1.6s1.1,2.1,2.7,2.1l.2.2Z"/>
    <path class="st0" d="M1306.7,504.3c-3.4-2.2-7-5.3-8-6.7-1.9-2.7-5.8-3.7-5.8-1.4,0,4.2,5.8,10.2,11.7,12.3,7.4,2.7,8.3,2.7,8.3,1.1s-2.7-3-6.2-5.3Z"/>
    <path class="st0" d="M1241,327c-1.4,0-1.8.3-10.7,11.7-6.7,8.5-9,13.6-7.4,16.2,1.4,2.2,2.7.6,4.6-5.1,1-2.9,4.6-8.5,8.2-12.3,6.1-6.6,8-10.4,5.1-10.4h.2Z"/>
    <path class="st0" d="M1199.4,293.5c2.1-2.2,2.1-5.1-.2-5.1s-5.3,3.5-4.2,5.3c1.1,1.8,2.4,1.8,4.5-.2h-.2Z"/>
    <path class="st0" d="M1198.4,269.9c1.9,1.4,3.8,2.6,4.3,2.6,1.9,0,1-3.5-1.8-6.1-2.1-1.9-3-2.1-4.3-.8-1.3,1.3-1,2.2,1.8,4.2v.2Z"/>
    <path class="st0" d="M1228.5,331c1-.8,1.9-2.2,1.9-3s1.1-2.2,2.7-3.2c2.2-1.4,3.8-7,1.9-7s-17.8,17.3-18.6,20c-.5,1.6-.5,4.3,0,6.1,1.3,5,3.2,3.8,6.9-4,1.9-4,4.3-8,5.3-8.8h-.2Z"/>
    <path class="st0" d="M1224.5,306.2c1.9-.8,2.6-7,.6-7s-2.4,1.9-4,4.3c-1.4,2.4-5.4,8.2-8.8,12.6-3.4,4.6-7.2,10.7-8.8,13.6-2.6,5.1-2.6,5.3-.2,5.3,3.7,0,7.4-4.6,13.6-17.1,3.2-6.1,6.4-11.4,7.5-11.8v.2Z"/>
    <path class="st0" d="M790.7,468.1c1,0,7-8.5,8.2-11.4,1.1-2.9-3.8,2.4-6.4,6.7-1.4,2.6-2.2,4.5-1.8,4.5v.2Z"/>
    <path class="st0" d="M724.2,449.7c-2.2-2.6-5.1,1.3-9.9,13.4-9.6,23.7-13.6,36.6-12.6,41.3.3,1.3,1,2.4,1.4,2.4,2.6,0,5.3-5.4,6.7-13.3,1.8-10.2,6.2-22.9,11.8-33.9,3.2-6.2,3.7-8.3,2.6-9.8v-.2Z"/>
    <path class="st0" d="M731.7,459.1c-1,1-9.1,22.6-12.6,33.4-1.4,4.3-2.6,10.6-2.6,13.8,0,5,.3,5.8,2.4,5.4,1.6-.3,2.9-2.7,4.2-8.5,2.7-11.8,8-28.5,11-35,2.6-5.3,2.6-5.9.6-7.8-1.1-1.1-2.6-1.8-2.9-1.3h-.2Z"/>
    <path class="st0" d="M710.9,432.6c-1.9.6-10.9,21.8-17,39.8-5.3,15.5-6.1,19.7-4.3,21.4,1.9,1.9,2.7.5,6.4-11.4,2.1-6.7,6.2-18.6,9.1-26.2,5.8-15.4,8-24.3,5.9-23.7h-.2Z"/>
    <path class="st0" d="M835.7,526l4-1.9h-4.2c-2.2,0-5,.6-5.8,1.8-2.2,2.6.3,2.6,5.9,0v.2Z"/>
    <path class="st0" d="M657,407.5c-2.7.8-19,26.2-19,29.4s1.1,1.9,2.7,1.9,3.7-2.1,6.6-8.3c2.1-4.6,4.2-9.9,4.6-12,.8-3.7,1.8-4.8,6.7-8.3,3-2.1,2.1-4-1.6-2.9v.2Z"/>
    <path class="st0" d="M1318.4,359.8c.2,1.1,3,3.2,6.4,4.6h0c6.7,2.7,8.5,2.6,9.1-.3.3-1.4-1.6-2.7-5.9-4.2-8-2.7-10.1-2.7-9.6,0v-.2Z"/>
    <path class="st0" d="M694.6,437.5c2.2-3.8,2.6-6.7,1-6.7s-1-.5-12.3,24c-8.3,17.9-11.4,27-9.8,29.3,1.4,2.4,3.4,1.1,5.4-3.7,1.3-2.7,3.2-7.4,4.6-10.2,4.6-10.2,9.1-23,9.3-26.2,0-1.8,1-4.6,1.9-6.4h-.2Z"/>
    <path class="st0" d="M1283.2,301.2c-9.6,1.6-5,5.8,6.4,5.8s6.9,1,8.6,2.4c1.8,1.3,5.3,2.6,7.8,2.7,2.6,0,4.8.6,5.1,1,1,1,6.2.8,7.4-.3,1.6-1.6-2.1-4.5-5.9-4.5s-6.1-1-8.6-1.9c-2.6-1.1-5.9-1.9-7.2-1.9s-2.6-.5-2.6-1.1c0-1.9-5.4-2.9-11-1.9v-.2Z"/>
    <path class="st0" d="M1311.2,338.8c-1.1,1.1-1,2.1.3,3.7,1,1.3,1.9,3.5,1.9,5,0,2.1,1.3,3,4.6,4,2.6.6,5.3,1.8,5.9,2.4,1.8,1.6,5.8,1.6,6.7,0,.5-.6-.6-2.1-2.6-2.9-3.7-1.8-4.2-2.6-1.9-4.6,1-1.1-.6-2.4-6.1-5.1-5.4-2.7-7.8-3.4-9-2.2v-.2Z"/>
    <path class="st0" d="M1186.9,275.5c-.5.6-.3,2.6.5,4.3,1.6,3.5,4.2,4.5,4.2,1.6s-3.7-7-4.8-5.9h.2Z"/>
    <path class="st0" d="M1297.3,326.3c-1,2.6,1.8,5,4.8,4,1.1-.3,5.3.6,9.3,1.9,4,1.4,7.7,2.6,8.2,2.6,1.9,0,5.1-1.6,5.1-2.7,0-2.2-10.2-6.4-18.4-7.2-7-.8-8.3-.6-9.1,1.4h.2Z"/>
    <path class="st0" d="M1284,314c-1.4,2.2,1.4,3.4,10.9,4.8,5.1.8,11.7,2.2,14.7,3.4,6.9,2.7,12.6,2.7,12.6.3s-1.3-3.2-9-4.8c-13.3-2.9-28.5-4.8-29.3-3.5v-.2Z"/>
    <path class="st0" d="M771.7,454.8c1.1,0,3-1.6,4.3-3.7s3.5-5,5-6.7c1.4-1.6,2.1-3,1.3-3-2.4,0-8.3,5.4-10.4,9.4-1.8,3.5-1.8,3.8,0,3.8l-.2.2Z"/>
    <path class="st0" d="M721.1,818.2c-2.1,0-2.6,1.6-1.1,3,1.6,1.6,3,1,3-1.1s-1-1.9-1.9-1.9Z"/>
    <path class="st0" d="M716.3,804.9c-.6,0-1.1,1-1.1,1.9s.8,2.1,1.9,2.1,1.6-.8,1.1-2.1c-.5-1.1-1.3-1.9-1.9-1.9Z"/>
    <path class="st0" d="M743.9,890.8c-10.1,1.1-13.9,2.6-13.9,5.1s.6,2.6,9.8-.5c12.2-4.2,13.4-5.6,4.2-4.6h0Z"/>
    <path class="st0" d="M729.8,888.9c0,1.8,1.6,1.6,4.6-.6,1.4-1,5-2.6,8-3.5,13.6-4.2,16.8-7.2,6.4-5.8-10.1,1.4-18.9,6.1-18.9,9.8l-.2.2Z"/>
    <path class="st0" d="M714.1,813.4c-.3,1.3.5,2.2,1.6,2.2s2.1-1.1,2.1-2.7c0-3.2-3.2-2.7-3.8.5h.2Z"/>
    <path class="st0" d="M779.4,457.5c1.8-2.6,5.6-6.4,8.6-8.6,5.8-4.2,7-6.1,3.8-6.1s-12.8,10.2-16,16c-3.2,5.8-.5,4.6,3.5-1.3h0Z"/>
    <polygon class="st0" points="976.3 736.7 976.3 736.7 976.3 736.7 976.3 736.7"/>
    <path class="st0" d="M839.1,511.3c1.6-1.9,1.3-2.1-2.1-1.6-2.1.2-4,1.1-4.3,2.1-.8,2.4,4.3,2.1,6.4-.5Z"/>
    <path class="st0" d="M838.3,504.6c3.2-1.3,2.6-3.2-1.3-3.2s-4.3,1.3-2.4,3q1.1,1.1,3.7,0v.2Z"/>
    <path class="st0" d="M836.2,497.4c1.6,0,4.6-3.8,3.8-4.8-1.3-1.3-5.1,1-5.1,2.9s.5,1.9,1.1,1.9h.2Z"/>
    <path class="st0" d="M838.1,486.8c2.2,0,3.8-3.5,2.1-4.6-1.8-1.1-4,.5-4,2.7s.8,1.9,1.9,1.9h0Z"/>
    <path class="st0" d="M820.3,767.1c0,2.4.6,3.2,2.4,2.9,2.7-.5,4-9.8,1.8-12.2-1.6-1.6-4.2,4-4.2,9.3Z"/>
    <path class="st0" d="M694.9,671.5c2.2-2.7,5.3-13.3,4.6-15.8-.3-1.4-1.4-2.4-2.6-2.4s-1.8,1.4-1.1,5.8c.5,4.5,0,6.6-1.9,9.1-1.4,1.9-2.7,3.8-2.7,4.2,0,1.4,2.2.8,3.7-.8h0Z"/>
    <path class="st0" d="M820.2,904.7c2.2,0,3-2.7,2.1-7.7l-1-5-1.9,4.5c-1,2.6-1.6,5.3-1.1,6.4.3,1,1.3,1.8,1.9,1.8Z"/>
    <path class="st0" d="M773.8,431.9c0-2.7-2.7-.6-9.3,6.9-3.8,4.3-6.2,8-5.4,8,1.8,0,14.7-13.1,14.7-14.9Z"/>
    <path class="st0" d="M825.9,908.4c3.2-.5,3.7-2.9.6-3.5-1-.2-2.2.6-2.7,1.8-.6,1.6,0,2.1,2.2,1.8h-.2Z"/>
    <path class="st0" d="M649.3,396.3c-3.4,0-23.4,29.4-23.4,34.6s.5,2.7,1.1,2.7c1.6,0,8.3-10.4,7.8-12.3-.5-2.2,3.7-8.3,10.6-15.2,5.8-5.8,7.2-9.8,3.7-9.8h.2Z"/>
    <path class="st0" d="M764.5,424.7c0-2.7-4.5.5-7.2,5.1-1.9,3.2-1.9,3.8-.3,3.8s7.5-6.1,7.5-8.8v-.2Z"/>
    <path class="st0" d="M805.9,887.1c.5-2.7.3-5.3-.3-5.8-1.8-1.1-5,6.2-6.1,13.8-1,6.6-.8,6.9,2.2,6.9s3.2-.6,3.2-5,.3-7.2.8-9.9h.2Z"/>
    <path class="st0" d="M811.5,902c2.7,0,3-.8,4.2-10.2.6-5.8.5-8.3-.5-8.3-1.9,0-3.5,4.2-4.6,12.3-.8,5.1-.5,6.2,1.1,6.2h-.2Z"/>
    <path class="st0" d="M736.3,865.1c3.7-1.1,6.7-2.6,6.7-3,0-1.8-4.3-2.6-8.8-1.8-5,1-6.4,2.4-5.3,5.1.6,1.6,1.8,1.4,7.4-.3Z"/>
    <path class="st0" d="M711.9,884.1c-4,1.8-4.6,2.4-3.4,4,1.3,1.6,2.1,1.6,5.3,0,7.7-4,5.9-7.2-2.1-3.8l.2-.2Z"/>
    <path class="st0" d="M732.5,876.7c1.1-1.3,4.6-3,7.7-3.7,6.7-1.4,7.5-2.1,6.2-4.3-1.6-2.6-12.3-.6-16,2.9-3.5,3.4-4.2,6.1-1.6,7,1,.3,2.6-.5,3.7-1.9Z"/>
    <path class="st0" d="M712.3,880.4c0,.2.6.3,1.4.3s1.4-1.4,1.6-3.4c0-1.9.3-4,.3-5s-1-1.9-2.1-2.1c-1.9-.3-2.2.5-1.8,4.6.3,2.7.5,5.3.6,5.4h-.2Z"/>
    <path class="st0" d="M641.1,391.3c9.3-8.8,9.9-10.1,3-5.4-10.6,7.2-24.8,23-24.8,27.7s2.6,1.3,4.6-2.9c2.2-4.8,4.2-7,17.1-19.4h0Z"/>
    <path class="st0" d="M715.2,261.2c7.5,2.1,13,2.2,13.9.8.3-.6-1-1.6-2.9-2.1-2.1-.5-4.6-1.8-5.9-2.9-2.7-2.6-11-1.9-11,.8s2.4,2.6,6.1,3.5l-.2-.2Z"/>
    <path class="st0" d="M665.9,301.7c1.6-1,1.4-1.3-1-1.3s-3,.6-3,1.3c0,1.6,1.4,1.6,4,0Z"/>
    <path class="st0" d="M736.8,243.8c1.6.3,6.2,1.4,10.2,2.6,4,1,8,1.9,9,2.1,3,.3,3.2-2.4.3-3.8-4.2-2.2-20.2-6.6-21.4-5.8-2.1,1.3-1,4.5,1.9,5.1v-.2Z"/>
    <path class="st0" d="M705.9,271.5c3.5,1.3,9.3,1,9.3-.5s-1.4-1.9-3.4-2.6c-1.8-.6-3.4-1.9-3.4-2.6s-2.1-1.4-4.6-1.4-4.6.5-4.6,1.1c0,1.4,4,5,6.7,5.9h0Z"/>
    <path class="st0" d="M724.3,252.3c2.2.2,5.9,1.3,7.8,2.4,4.3,2.2,9,1.9,9-.6s-11.4-5.3-18.4-5.4c-5.3,0-3.8,3.2,1.6,3.7Z"/>
    <path class="st0" d="M681.9,288.4c.3-.5,2.1-1.4,3.7-1.9,1.9-.6,2.9-1.8,2.7-3.2-.3-1.9.6-2.2,5.9-1.9,6.1.3,8.6-1.6,4.5-3.2-1.1-.5-1.6-1.6-1.1-2.6.5-1.1-.5-2.4-2.4-3-2.6-1-3.7-.6-5.8,1.9-1.4,1.8-4.2,3.2-6.1,3.5-2.9.3-3.4,1-3,4.6.2,4,0,4.3-5,5.1-2.9.5-5.3,1.4-5.3,2.2,0,1.4,10.9,0,12-1.6h-.2Z"/>
    <path class="st0" d="M622.4,359.9c1.6-.3,6.4-1.4,10.7-2.4,7.2-1.6,9.4-3.8,6.2-5.9-.8-.5-4,0-7,1.1s-7.2,2.4-9.3,2.9-3.7,1.8-3.7,2.9.8,1.9,3,1.4h0Z"/>
    <path class="st0" d="M621,372.1c-1,1.6-1.4,2.9-1,2.9,1.6,0,6.6-2.9,9.4-5.4,1.4-1.3,5.3-3,8.5-3.8,6.1-1.6,7.2-5,1.4-4.3-4.5.5-16,7.4-18.2,10.7h-.2Z"/>
    <path class="st0" d="M669.9,389.9c0,2.4,3.5.6,8.3-3.8,5.4-5.3,6.2-7,3.2-7s-11.5,9.1-11.5,11v-.2Z"/>
    <path class="st0" d="M625.6,390.7c3.5-3.4,8.3-7.2,10.9-8.5,5.4-2.7,12.2-8.6,9.8-8.6s-5.6,1.9-10.4,4.3c-9.4,4.6-16.5,11.5-16.5,16s.8,2.1,6.4-3.2h-.2Z"/>
    <path class="st0" d="M668,379c1.3,1.9,2.2,1.4,8.5-4.2,5.9-5.1,6.6-7.7,1.8-6.1-3.5,1.1-11.2,8.8-10.4,10.2h.2Z"/>
    <path class="st0" d="M673.1,360.9c2.2-2.6,3-4.6,2.1-4.6-2.2,0-7.8,5.3-7.8,7.5s1.8,1.9,5.8-3v.2Z"/>
    <path class="st0" d="M1270.6,289.5c.3,1.8,2.2,2.4,8.5,2.9,4.3.3,9.1,1.4,10.6,2.2,4.2,2.4,4.3.5.3-3-2.1-1.8-5.1-3.2-6.7-3.4-1.6,0-5.1-.3-8-.6-4.2-.3-5,0-4.6,1.8v.2Z"/>
    <path class="st0" d="M766.1,280.1c3.8,3,9.4,7.5,12.3,10.1,2.9,2.6,7.7,5.9,10.7,7.4,9.8,5,13.8,2.9,4.6-2.4-2.9-1.6-9.1-6.6-13.6-10.7-11.4-10.4-15.5-13.6-18.6-13.6-4.5,0-2.7,3.5,4.5,9v.3Z"/>
  </g>
  <path class="st1" d="M944.5,476.9l1.6,10.9-9.1,8.8c-5.1,4.8-9.1,9.3-9.1,9.6s4.8.3,10.7-.2l10.7-1,4.8,10.7c4.6,10.4,7.8,26.9,15.4,80.3,2.9,20.3,1.9,22.1-6.7,12.2-3.5-4-5.8-5.4-7.5-4.6-2.4,1-2.4,1.4-.3,4.5,1.3,1.9,2.7,7.2,3.4,11.5,1.1,8,1.1,8.2-4.6,11.4-7.5,4.3-6.7,7.7,2.2,9.9l6.9,1.8.5,11.5c.5,14.1-5.4,65.9-13.4,118.2-.8,5.1-2.2,15.8-3.2,24s-3.2,22.1-4.6,30.9c-1.6,9-3.4,21.3-4,27.5-1,9.9-1.6,11.7-5.3,14.2-5.8,4.2-11,3.8-15-.8-3.2-3.7-8-5.3-8-2.6s1,3.4,2.2,5.8c1.3,2.4,2.7,6.7,3.2,9.3,1,4.5.3,5.3-6.9,10.6-10.7,7.8-10.6,10.9.6,9.4,8.3-1,8.6-1,10.2,3.4,1,2.4,1.8,6.2,1.8,8.6.3,8.5,6.6,6.9,8-1.9,1.3-7.8,3.4-9.3,15-10.2,5.4-.5,10.2-1.1,10.7-1.6s-2.4-3.7-6.6-7c-6.1-5.1-7.4-7.2-7.4-11.4s1-6.9,2.1-9.1c1.3-2.4,1.9-6.7,1.4-10.6-.3-3.5,1.1-18.4,3.4-32.8,2.2-14.6,4.6-32.6,5.6-40.3.8-7.7,1.8-15,2.2-16.5.5-1.4,1.8-12.2,3-24,1.3-11.8,3-26.1,3.8-31.5,1-5.6,2.7-17.4,4.2-26.4,1.4-9,3-19.4,3.7-23.2.6-3.8,2.6-10.1,4.3-14.1,3.4-7.7,5.9-9.1,16.2-9.1s8.8-2.4,2.6-4.5c-7.8-2.7-10.6-6.1-10.6-13.1s1.1-8.3,2.4-10.7c4-7.8,1.8-13.8-3.4-8.6s-2.1,1.1-2.6.2c-1.4-2.4-8.8-52.6-9.8-68-.8-13-.6-14.9,2.7-21.1,3.5-6.7,3.7-6.9,13.8-7.7,5.6-.5,11-1.9,12.3-3.2,1.9-1.9,1.3-2.6-4.5-5.3-3.7-1.8-9.1-5.4-12-8.5l-5.3-5.4,1.8-10.6c1.6-9.4,9.1-27.7,13.3-32,2.6-2.7,16.6-22.4,26.2-36.5,5-7.2,13.6-19.4,19.2-27,5.6-7.7,14.4-20,19.5-27.5,5.1-7.5,11.2-16.2,13.4-19.4,8.8-12.2,28.5-41.1,32.2-47.5,2.1-3.7,6.1-9.4,9-12.6,2.7-3.2,13.8-17.6,24.3-31.7,10.6-14.2,19.8-26.2,20.8-26.7.8-.5,1.9-3.2,2.6-5.9l1.1-5,2.1,3.8c1.1,2.1,2.1,5,2.1,6.2s1.1,3.4,2.4,4.5c1.3,1.1,2.2,3.5,2.2,5.6,0,4.3,2.7,5,4,1,2.1-6.4,6.1-14.9,8-16.8,1.3-1.3,5.8-2.1,12-2.1s9.9-.6,9.9-1.6-3.2-5.1-7.2-9.3c-6.7-7.2-7-7.8-5.4-12.5,1-2.7,1.8-6.2,1.8-8s1.4-5,3-7.2c5.4-7.7,1.8-8.6-10.1-2.4-6.2,3.2-12,5.3-13.8,4.8s-7.2-4.6-12.2-9.4c-8-7.7-11.8-10.2-11.8-7.7h0c0,.5,1,2.4,2.2,4.3,1.1,1.9,3,8.3,4,14.2,1,5.9,2.1,12,2.6,13.3.5,1.6-2.2,4.8-7.7,9-8.8,6.9-12,11.2-7.4,9.9,1.4-.3,4.5,0,6.7,1q4.2,1.6,1.6,6.7c-1.4,2.7-4.8,7.8-7.5,11.4-2.7,3.4-9.9,13.1-16,21.6-5.9,8.5-11.8,16.8-13.1,18.6-1.3,1.8-10.4,14.9-20.5,29.4-9.9,14.4-21.1,30.1-24.6,34.9-3.5,4.6-11.5,15.8-17.6,24.8-6.1,9-16.3,23.5-22.7,32.5-6.2,9-15.7,22.2-20.8,29.4-5.1,7.2-13.1,18.4-17.8,24.8-4.6,6.4-10.1,14.6-11.8,18.1-4.3,8.3-13.9,14.1-19.2,11.7-1.9-1-4.8-3.5-6.4-5.9-1.4-2.4-4.2-6.1-6.1-8.2-6.9-7.8-63.2-91.5-104.6-155.5-14.7-22.6-16-25.4-11.4-25.4s2.4-4-4.3-8.2c-4-2.6-4.3-3.2-3.2-10.7.6-4.3,1.9-9.8,3.2-12,4.8-9.1,0-8.5-10.4,1.4-4.5,4.3-8.8,7.8-9.8,7.8-2.1,0-14.9-12-17.3-16.3-1-1.8-2.2-2.6-2.9-1.9-.6.6-.5,2.1.3,3,1.6,1.9,6.6,18.1,6.6,21.1s-2.7,3-6.1,4.8c-12.3,6.2-11,12.3,2.6,12.3s12.8,1.6,18.4,21.4c1.1,3.8,4.5.8,5-4.5.6-6.9,3.4-13.8,5.6-13.8,3.4,0,38.6,49.6,46.2,65.1,1.9,4,5.4,9.4,7.7,12.2,5.1,6.1,46.9,69,53.6,80.5,2.7,4.6,8.3,13.4,12.5,19.4,6.4,9.1,7.8,12.5,9.1,21.6l-1-.5ZM809.1,269.2c-3.7,2.9-4,2.9-6.7.3-2.1-1.9-4.3-2.4-7.7-1.6-6.1,1.3-6.1-1-.3-5.8,5.3-4.5,13-4.2,16.3.8,1.9,2.9,1.8,3.4-1.6,6.2ZM1157.9,191.6c.3-2.2,1.4-5,2.2-5.9s1-4.3.3-7.5c-1-5.3-.8-5.6,1.9-4.2,1.6.8,4.2,3,5.6,5l2.7,3.2,6.1-3.4c3.4-1.9,6.6-3,7.2-2.4.5.5-.5,3.5-2.4,6.7-3.2,5.3-3.2,5.9-1,9.4,2.2,3.5,2.2,3.7-.3,3.4-1.9-.3-4,1.8-6.7,6.9l-4,7.2-2.2-6.6c-1.8-5.1-3-6.6-6.2-7-3.5-.5-4-1.1-3.2-4.6v-.2ZM931.7,883.8c0,3.7-1,5.8-2.9,6.2-1.4.5-2.7,1.9-2.7,3,0,2.7-2.6,2.9-3.5.3-1.8-4.8,0-10.7,3.5-12.8,5.4-3,5.6-2.9,5.4,3l.2.2ZM937,892.4c0,.8-.8,1.6-1.6,1.6s-1.3-.6-.6-1.6c.5-.8,1.3-1.6,1.6-1.6s.6.6.6,1.6ZM971.7,631.6c2.4,3.7,2.2,6.9-.6,6.9s-6.6-7.7-5.4-9.3c1.4-2.4,3.4-1.8,6.1,2.4h0ZM948.2,494.2l5.8-5-2.1-9c-1.8-7.5-1.8-9,0-9s2.1.5,2.1,1.1c0,2.4,7.4,9.6,9.9,9.6s3.4,1.9,4.2,4.3,3.8,6.6,6.4,9.3l4.8,5h-5c-2.7,0-5.3,1-5.6,1.9-.3,1.1-1.4,5-2.4,8.5-1,3.7-2.4,6.6-3,6.6s-2.1-2.9-3.2-6.6c-3.4-11.7-3-11.4-14.1-11.8-3.8-.2-3.7-.3,1.9-5.3l.3.3Z"/>
</svg>