<?xml version="1.0" encoding="UTF-8"?>
<svg id="Layer_1" xmlns="http://www.w3.org/2000/svg" version="1.1" viewBox="0 0 1920 1080">
  <!-- Generator: Adobe Illustrator 30.3.0, SVG Export Plug-In . SVG Version: 2.1.3 Build 182)  -->
  <defs>
    <style>
      .st0 {
        fill: #564a3c;
      }

      .st1 {
        fill: #dbb57f;
      }
    </style>
  </defs>
  <g>
    <path class="st1" d="M943.5,467.8c2.7.6,3.7-.9,2.5-3.8-1.5-3.6-3.4-3.4-3.7.4-.2,2.4,0,3.1,1.2,3.4Z"/>
    <path class="st1" d="M929.5,619.8c-.9,0-1.1,4.4-.2,5.3.9.9,2,.6,2.5-.6.5-1.4-1-4.6-2.2-4.6Z"/>
    <path class="st1" d="M928.1,497.4c2-.3,2.3-1.8.4-2.2-.6-.1-1.4.4-1.7,1.1-.4,1,0,1.3,1.4,1.1Z"/>
    <path class="st1" d="M945.4,511.7c0,.9.3,1.6.8,1.6.9,0,2.1-3.2,1.4-3.9-.8-.8-2.2.6-2.2,2.3Z"/>
    <path class="st1" d="M927.9,490.9c0-.5-.6-.8-1.2-.8s-1.2.4-1.2.8.6.8,1.2.8,1.2-.4,1.2-.8Z"/>
    <path class="st1" d="M943.6,562.1c.1-.8-.3-1.4-1-1.4-1.5,0-2.5,1.4-1.7,2.5.7,1.2,2.4.5,2.7-1.2Z"/>
    <path class="st1" d="M934.9,502.8c.8-2.2-.4-3.1-2.1-1.5-.9.8-1.6,1.7-1.6,2.1,0,1.3,3.1.7,3.7-.6Z"/>
    <path class="st1" d="M933.3,574.2c1.4.3,4.4,1.2,6.6,1.9,5.1,1.5,5.4,1.5,5.4.5s-.4-.8-.8-.8-3.5-1.3-6.7-2.8c-5-2.4-5.6-2.9-3.8-3.2,1.1-.2,2.5,0,3.2.3.6.4,3,.7,5.4.7,4.2,0,6.2,1,4.4,2.1-1.5.9-.9,2.1,1.4,3,1.7.6,2.5.6,3.4-.4,1-1,1-1.3-.5-1.7-1-.3-1.9-1.6-2.2-3-.3-1.4-.9-2.5-1.3-2.5s-.8-.6-.8-1.2c0-1.4-2.9-1.7-3.8-.4-.7,1.2-4.8,1-6.4-.2-.8-.6-1.5-2.7-1.7-5-.4-4.4-2-7-3.3-5.7-.5.5-.5,1.2,0,1.9,1,1.3.8,8.6-.4,10-.5.6-.8,2.1-.7,3.5,0,2,.6,2.6,2.6,3.1Z"/>
    <path class="st1" d="M938.7,468.9c.7-.8.7-1.3,0-1.7-1.1-.7-3.5,1.1-2.9,2.2.7,1.1,1.7.9,2.8-.4Z"/>
    <path class="st1" d="M927.4,486.7c1.1,0,.3-3.6-.9-4-1.5-.5-2.3,2.3-.9,3.2.6.4,1.5.7,1.8.8Z"/>
    <path class="st1" d="M664.2,692.8c0,1.1.5.9,2.2-.9,1.2-1.2,2-2.4,1.8-2.7-.8-.8-4.1,2.1-4.1,3.5Z"/>
    <path class="st1" d="M936.2,509c-.7,1.7-1.3,3.4-1.5,3.8-.2.4.4.6,1.2.4,1.6-.3,4.6-5.6,3.9-6.7-.9-1.5-2.5-.4-3.6,2.5Z"/>
    <path class="st1" d="M935.7,550.4c-.6-.2-1.5.1-2,.8-.8.9-.5,1.6,1.3,3.3,2.1,1.9,4.5,2.8,4.5,1.6s-2.9-5.3-3.8-5.7Z"/>
    <path class="st1" d="M688.5,716.8c-3.8.7-4.5,1.1-3.9,2.1,1,1.7,7,.1,7-1.8s-1.2-.6-3.1-.3Z"/>
    <path class="st1" d="M880.1,553.8c3.4-.7,5.1-1.5,5.3-2.4.2-1.2,0-1.2-3.7-.2-2.2.7-5,1.2-6.3,1.2-2.3,0-3,.8-1.8,2,.7.7.5.7,6.5-.6Z"/>
    <path class="st1" d="M889.6,545.3c.9-.9-2-2-5-2-3.5,0-8.2,1.5-8.2,2.6s12.4.3,13.2-.6Z"/>
    <path class="st1" d="M883.5,539.8c4.1-1,5-2.4,1.4-2.3-3.4.1-6.3,1.1-6.7,2.2-.4,1.3.5,1.3,5.3,0Z"/>
    <path class="st1" d="M860.6,577.4c-.7,0-.7.5,0,1.7.9,1.7,4.2,2.4,4.2.9s-2.7-2.5-4.1-2.5Z"/>
    <path class="st1" d="M866.2,566.3c-2,.3-3.1,1-3.1,1.7s.8,1.1,4.7.7c5.4-.7,6.9-1.2,6.9-2.2s-4-.9-8.5-.2Z"/>
    <path class="st1" d="M863.8,571.7c-4.5,0-5.9.9-3.5,2.3,1.9,1.1,3.7,1.1,6.5,0,3.2-1.2,1.8-2.4-2.9-2.4Z"/>
    <path class="st1" d="M886.9,590.7c-1.4,0-3.2,2-2.5,2.8.9,1,1.8.6,2.8-1.1.7-1.3.6-1.7-.3-1.7Z"/>
    <path class="st1" d="M952.2,586.8c1.8.7,3,.6,3.6-.4.7-1.1-1.1-2.4-3.2-2.4-1.7,0-2,2.1-.4,2.8Z"/>
    <path class="st1" d="M914.3,608.8c-.8.8-.6,3.2.5,4.2,1.3,1.3,2.4.5,2.4-1.8s-1.8-3.4-2.8-2.3Z"/>
    <path class="st1" d="M953.7,580.3c0-.7-.3-1.3-.8-1.3s-1.3-.2-2-.5c-.7-.3-1.8.1-2.5.9-1.2,1.2-1.9,1.2-8.2-.8-5.2-1.6-7.1-1.9-8-1.2-1.8,1.5,0,2.4,7.4,4,8.7,1.8,9,1.8,9,.8s1.1-.8,2.5-.8,2.5-.4,2.5-1.2Z"/>
    <path class="st1" d="M879.2,591.5c-.7,0-1.1.4-.8.8.3.5.9.8,1.3.8s.8-.4.8-.8-.6-.8-1.3-.8Z"/>
    <path class="st1" d="M949.5,521.9c.9.2,1.7,1,1.7,1.8s.7,1.3,1.5,1.3c1.4,0,1.5-.8,1.6-7.9,0-4.4-.3-7.9-.7-7.9s-.8,1.4-.8,3.1c0,4-1.7,7.4-3.6,7-2-.3-1.8,2,.3,2.6Z"/>
    <path class="st1" d="M954.1,465.1c.5-.8-1.1-4.2-2.4-5.2-2-1.5-3,3.1-1.1,5,1.2,1.2,2.9,1.3,3.5.2Z"/>
    <path class="st1" d="M951.7,490c-1.5,0-2.2,6.7-1.1,10.4,1.3,4.3,2.3,2.6,2.3-4.2s-.3-6.2-1.2-6.2Z"/>
    <path class="st1" d="M911.5,600.8c-1.6.3-4,7.5-3.2,9.6.2.6.8,1,1.2,1,1.2,0,2.3-2.5,2.9-6.9.5-3.6.4-4-.9-3.7Z"/>
    <path class="st1" d="M956.7,500.8c.2,0,.4-2.9.4-6.4s-.2-6.2-.9-5.5c-.6.6-.7,2.7-.4,6.4.3,3,.7,5.5.9,5.5Z"/>
    <path class="st1" d="M875,559.9c-6.7,1.3-7.8,1.7-7.8,2.6s.5.8,1.1.8c2.5,0,11-1.9,11.8-2.5,1.5-1.5-.3-1.7-5.1-.8Z"/>
    <path class="st1" d="M891.8,591.5c-1.6,0-3,2.5-3,5.3s2.7,2,3.7-2.6c.5-2.1.3-2.7-.7-2.7Z"/>
    <path class="st1" d="M897.6,592.4c-1.5,0-1.9.6-2.6,4.4-.5,2.8-.4,3.1,1.1,3.1s1.9-.7,2.2-1.9c.9-3.2.6-5.6-.7-5.6Z"/>
    <path class="st1" d="M904.3,594.2c-.8-.2-1.6,1-2.4,3.8-.7,2.2-1,4.3-.9,4.6.2.3,1,.6,1.9.6s1.7-.9,2.1-3.7c.7-4.9.7-5-.7-5.3Z"/>
    <path class="st1" d="M1110.7,727.9c1.7.9,3.2,1.7,3.3,1.7.9.1-2.5-4.9-3.6-5.3-4.1-1.6-3.9,1.4.2,3.6Z"/>
    <path class="st1" d="M986.7,506.5c-.3-.7-.5-.5-.5.5,0,.9.2,1.4.4,1.1.3-.3.3-1,0-1.6Z"/>
    <path class="st1" d="M985.7,589c.6,1.1,1.8,1,5.4-.1,1.6-.5,4.6-1.2,6.6-1.4,2.6-.4,3.8-1,4-2,.2-1.2-.3-1.5-3.4-1.5s-4.4.6-5.3,1.2c-.9.7-2.8,1.2-4.3,1.2-2.7,0-4.1,1.1-3.2,2.5Z"/>
    <path class="st1" d="M989.4,521.6c3.4,0,2.9-8.4-.7-10.7-2-1.3-2-1.3-1.4,1.2.3,1.4.6,4.1.5,6,0,3,.1,3.5,1.5,3.5Z"/>
    <path class="st1" d="M998,573.4c.1.6-.7,1.2-1.9,1.3-3.3.4-4.3.9-3.8,1.9.6,1.1,5.4,1.1,5.4,0s1.2-.9,2.7-1c1.8-.2,2.8-.8,3-1.7.2-1.2-.3-1.4-2.7-1.4s-2.9.4-2.8,1Z"/>
    <path class="st1" d="M1003.5,569.9c.5,0,.8-1.3.6-3.1-.1-1.7-.5-3-.8-2.9-.3.1-.9.2-1.3.2-1.3,0-1,2.5.4,3,.7.2,1,1,.7,1.6-.2.6,0,1.2.4,1.2Z"/>
    <path class="st1" d="M990,467.3c.6-1.4-1.8-7.2-2.9-7.2s-1.9,3.9-.4,6.2c1.6,2.4,2.7,2.7,3.4,1Z"/>
    <path class="st1" d="M978.6,463.6c0,1.5.7,1.8,2.8,1,1.1-.4,1.1-.8-.1-3.3-1.6-3.2-4-4-3.2-1,.3,1,.5,2.5.5,3.3Z"/>
    <path class="st1" d="M976.1,464c-.1-1.8-2.5-7.7-3.2-7.9-1-.4-1.4,4.5-.5,6.8.4,1,3.7,2,3.6,1.1Z"/>
    <path class="st1" d="M997.8,568.2c-.9,0-1.7.6-1.7,1.2s.7,1.2,1.7,1.2,1.7-.6,1.7-1.2-.7-1.2-1.7-1.2Z"/>
    <path class="st1" d="M1002.8,578.5c0-1-.5-1.2-1.9-.8-1,.3-4,.9-6.7,1.5-3.1.6-4.8,1.4-4.8,2.2s1,1.1,5.2.6c6-.7,8.1-1.6,8.1-3.4Z"/>
    <path class="st1" d="M989.9,498.1c1.4,1.4,3.4,8.5,4.1,14.6.5,3.9.9,4.8,2.2,4.8s1.6-.6,1.6-4.2-.3-4.3-1.7-4.7c-1.7-.4-1.9-1.1-2.9-7.3-.7-4.3-2.6-7.9-4.2-7.9s-.9,2.9,1,4.8Z"/>
    <path class="st1" d="M1112.9,753.9c-2.3-.2-4.3.3-5.8,1.2-3.5,2.2-6.1,4.6-6.1,5.9s1.2,1.4,2.7,0c1.3-1.3,5.9-2.8,9.3-2.9,2.8-.1,2.7,0,3.1-2.2.2-1.4-.2-1.7-3.2-1.9Z"/>
    <path class="st1" d="M1108,732.1c-.3.4.6,1,1.8,1.3,1.3.3,2.7.6,3.2.8,2,.7,2.2.3.8-1.3-1.6-1.7-5-2.2-5.8-.9Z"/>
    <path class="st1" d="M1028.3,604.2c-.2,1,0,2.4.4,3.3.9,1.7,2.1,2,2.8.7.6-1.1-2.3-9.2-5.1-14-1.5-2.6-2.4-3.4-3-2.7-.6.6,0,2.4,2.2,6,2.1,3.3,3,5.7,2.7,6.8Z"/>
    <path class="st1" d="M967.5,463.9c.7-1.7-1.3-7.3-2.5-6.9-.9.3-1.1,4.7-.2,6.9.6,1.5,2.1,1.5,2.7,0Z"/>
    <path class="st1" d="M1105.4,750.7c.4,1,.9,1,3.6-.4,1.7-.9,4.6-1.8,6.3-2.1,3.6-.6,3.9-1.3,1.1-2.6-4.3-1.9-12.3,1.8-11,5.1Z"/>
    <path class="st1" d="M1005.5,503.5c1.3.8,3.1-.1,3.1-1.7,0-2.2-1.3-3.6-3-3.3-1.1.2-1.5.9-1.3,2.4.2,1.1.7,2.3,1.2,2.6Z"/>
    <path class="st1" d="M1010.7,560.8c.6.9,1.4,1,3.2.3,1.5-.6,1.8-2.8.4-2.8s-4.2,1.7-3.7,2.5Z"/>
    <path class="st1" d="M999.7,470.7c2.8-.4,3-3.2.3-3.2s-2.2.4-2.2,1.7.5,1.7,1.9,1.4Z"/>
    <path class="st1" d="M994.4,466.7c2.1,0,3.2-1.6,1.7-2.6-1.5-1-2.7-.5-3.1,1.2-.2.9.3,1.4,1.4,1.4Z"/>
    <path class="st1" d="M1012.6,496c-.3-1.7-4-2.4-4-.7s.4,1.6.9,2.1c1.3,1.3,3.4.4,3-1.3Z"/>
    <path class="st1" d="M1012.4,614c-1.4-.5-2.4-2-3.4-5.2-.8-2.4-1.5-4.9-1.7-5.5-.2-.6-.7-.9-1.1-.6-1,.6.5,6.2,2.1,8,1.7,1.9,1.4,3.3-.6,3.3s-1.7.3-1.2,4c.3,2.2.8,4.2,1,4.6.6,1.1,2.6.7,3.1-.6.3-.7.1-2.2-.3-3.4-1.2-3.1-1-4.1.4-2.8.7.6,1.2,1.5,1.2,2.2s.6,1.2,1.2,1.2c2.2,0,1.5-4.1-.7-5Z"/>
    <path class="st1" d="M1021.7,600.4c-1.4-3-3.5-4.7-4.5-3.7-.3.3.5,1.6,1.7,3.1,1.2,1.4,2.6,4.1,3.1,6.1.5,1.9,1.3,4.1,1.7,5,.4.8,1.5,1.4,2.4,1.4,2.4,0,2.1-2.7-.7-6-1.3-1.5-3-4.2-3.7-5.9Z"/>
    <path class="st1" d="M1018.2,611.2c-.9,0-1.9-.9-2.6-2.7-.7-1.6-1.7-4.1-2.4-5.7-1.2-2.9-3.5-4.2-2.7-1.4,1.9,6.1,5.5,13,7.2,13.9,2.7,1.4,3.3.9,2.5-1.9-.4-1.4-1.2-2.2-2.1-2.2Z"/>
    <path class="st1" d="M1004.5,595.7c-.4,0-1,.4-1.3.8-.3.5-1.3,1.2-2.2,1.7-1.7.9-1.7.9-.2-1.6,1.9-3.2,1.1-4.1-1.9-2-1.3.9-4.1,2.4-6.2,3.4-4.2,2-7.1,4.7-5.9,5.4.4.3,2.1-.3,3.8-1.2,1.7-.9,3.7-1.6,4.5-1.6s2-.5,2.6-1c.6-.6.2.4-.9,2-1.1,1.7-2.2,3.1-2.6,3.1-1.1,0-6.4,4.3-6.4,5.1s2.4.9,4.5-.5c1.1-.7,2.5-1.1,3.1-.8.9.4.4,1.4-2.2,4.1-1.9,2-4,3.8-4.8,4.1-3.2,1.1-1.2,3.3,2.4,2.6,1.8-.4,3.3-1.9,6-6,3.2-4.8,3.8-5.3,4.3-3.9.4.9.7,3,.7,4.8,0,2.6-.3,3.3-2.4,4.4-1.3.7-2.9,1.3-3.6,1.3s-1.9.5-2.7,1.2c-1.6,1.2-1.6,1.2,0,2.4,1.5,1.1,1.5,1.3.3,1.8-.8.3-1.6,1.1-1.9,1.7-.3.8,0,1.2,1.1,1.2s5.1-3.5,9.3-8.9c1.8-2.3,2.1-10.9.3-11.6-1.8-.7-1.5-2.5.8-6,2.1-3.1,2.7-6,1.3-6Z"/>
    <path class="st1" d="M1004.4,506.8c-.7-2.6-1.5-3.8-3-4.3-1.1-.4-2-1.4-2-2.1,0-2.2-3.3-7.9-4.6-7.9s-1.5,1.8.7,5.1c1.7,2.5,2.9,5.2,6.5,14.7.6,1.6,1,1.8,2.4,1,.9-.5,1.5-1.3,1.3-1.9-.2-.6-.8-2.6-1.3-4.6Z"/>
    <path class="st1" d="M1033.8,599.3c-.3,1.6-.2,3.9,0,5.1.4,1.4,1.1,2.1,2.2,2.1s1.6-.4,1.1-4.4c-.3-2.4-.8-4.7-1.2-5.2-.3-.4-1.3-2.8-2.2-5.3-1.4-4-3.1-6-4.1-5-.2.2.7,2.4,2.1,5,1.9,3.6,2.3,5.3,1.9,7.6Z"/>
    <path class="st1" d="M1078.9,671.9c-2,.8-6.4,7.7-5.9,9.2.4,1,.7,1.1,1.7.3.7-.6,1.2-1.7,1.2-2.5s.9-2.3,2.1-3.4c2.3-2.2,2.8-4.4.8-3.6Z"/>
    <path class="st1" d="M999,592.5c1.7-.4,2.6-1.2,2.8-2.5.2-1.6,0-1.8-1.7-1.3-5.6,1.7-14.8,5.9-14.8,6.8,0,1.5.9,1.4,6.5-.7,2.6-1,5.9-2,7.3-2.3Z"/>
    <path class="st1" d="M1105.7,773.3c-.5.9.1,2.5,1.9,5,2.1,3.1,2.8,3.6,3.8,2.8,1-.8.9-1.4-.6-4-2.5-4.2-4.2-5.5-5.1-3.9Z"/>
    <path class="st1" d="M1102.5,777c-1.2,0-.7,2.8,1,5.6,1.9,3.2,4.6,3.8,3.7.8-.7-2.3-3.8-6.5-4.7-6.5Z"/>
    <path class="st1" d="M1086.9,669.7c-1,0-4.1,4.3-6.3,8.6-1.4,2.7-1.4,3.3-.4,3.9,1.6,1,2.2.5,2.9-2.1.3-1.2,1.5-3.6,2.6-5.4,2.2-3.4,2.5-4.9,1.3-4.9Z"/>
    <path class="st1" d="M985.8,499.7c-.5-2.7-1.4-5.1-2-5.3-1.2-.4-1.4,2-.3,2.7.4.3,1,1.9,1.3,3.6.3,1.7.8,3.4,1,3.8.9,1.5.9,0,0-4.8Z"/>
    <path class="st1" d="M982.1,515.5c-1.4-1.5-2-3.7-2.7-10.8-.5-4.9-1.3-8.9-1.7-8.9-1,0-.9,5.9.1,8.8.4,1.3,1.2,5.2,1.6,8.7.4,3.4,1.1,7.6,1.3,9.4.4,2.4.9,3.1,2.2,3.1s1.6-.4,1.3-4.2c-.3-2.7-1-4.8-2.2-6.1Z"/>
    <path class="st1" d="M967.8,509c0-3.6-.4-6.5-.8-6.5-.6,0-.6,6.1.3,22.2,0,1.4.6,1.9,2,1.9s1.9-.5,1.9-1.4c0-1.9-1.8-8-2.6-9-.4-.4-.7-3.7-.7-7.3Z"/>
    <path class="st1" d="M975.8,516.4c-.9-1.2-1.3-3.9-1.3-8.6s-.3-7.2-1.7-8.9c-.9-1.2-1.7-3.1-1.7-4.3s-.4-2.2-.8-2.2-.8,1.1-.8,2.5.3,2.5.7,2.5c1.4,0,3.8,19.1,3.5,28.1,0,2.4.1,2.7,2.1,2.7h2.2l-.5-5.1c-.3-2.8-1.1-5.9-1.8-6.9Z"/>
    <path class="st1" d="M952.7,591c-7.6-2.5-9.7-3.5-12.1-5.3-2.4-1.9-5.2-2.2-5.2-.6s4.1,3.8,12.1,7c6.5,2.6,10.5,3.2,10.4,1.5,0-.5-2.4-1.6-5.2-2.6Z"/>
    <path class="st1" d="M960.7,464.3c.6-1-1.5-7-2.7-7.4-1-.3-1.4,4.5-.5,6.8.6,1.4,2.5,1.8,3.2.6Z"/>
    <path class="st1" d="M943.7,608.8c-1.3.3-2.7-.4-5.2-2.9-4.6-4.4-7.2-6.1-9.5-6.1s-2.3,2,1,3.2c1.6.6,4.9,2.7,7.3,4.6,2.4,1.9,5.9,4.5,7.7,5.7,3.7,2.4,5,2.7,5.8,1.4.9-1.4-5.1-6.5-7.1-6Z"/>
    <path class="st1" d="M945.4,619c-.9-.5-2.2-1.4-2.9-2.2-1-.9-1.6-1.1-2.2-.5-.6.6-.2,1.7,1.4,3.8,2.3,2.9,4,3.2,4.8.9.2-.6-.3-1.5-1.1-2Z"/>
    <path class="st1" d="M1047,584.7c.3-2.3-.6-4-2.3-4s-1.2.5-1.1,1c0,.6-.1,1.7-.5,2.5-.4.9.1,2.4,1.6,4.3,1.7,2.3,2,3.2,1.4,4.5-.6,1.1-.6,1.9.1,2.5,1.5,1.5,3.2,1.1,3.7-.7.2-.9.8-1.7,1.2-1.7,1.4,0,.7-1.6-1.8-4.1-1.6-1.7-2.5-3.2-2.3-4.4Z"/>
    <path class="st1" d="M935.9,620.9c-1.3.5-1.2.9.9,3.5,2.3,2.9,3.6,3.3,4.2,1.5.5-1.6-3.5-5.6-5.1-5Z"/>
    <path class="st1" d="M701.2,705c-1.9-.7-5.4.4-5.4,1.8s5.5,1.7,6.1,0c.3-.7,0-1.5-.7-1.7Z"/>
    <path class="st1" d="M960.6,511.2c0,3-.3,5.9-.8,6.5-1.1,1.4-2.1,7.7-1.3,8.5.3.3,1.2.5,1.9.3,1.1-.2,1.3-2,1.5-10,.1-5.3-.1-9.9-.6-10.2-.4-.3-.7,1.8-.7,4.9Z"/>
    <path class="st1" d="M962.8,492.9c0-1.1-.3-.8-.7.8-.3,1.4-.4,3-.2,3.5.6,1.9,2,1.1,1.5-.8-.3-1-.6-2.6-.6-3.5Z"/>
    <path class="st1" d="M952.7,598.1c-2.7-.7-3.9-.7-5.4.1-1.6.9-2.2.8-3.4-.2-2.8-2.5-10.2-7.3-11.1-7.3-2.2,0,0,3.1,4.2,6,2.5,1.7,5.7,4.2,7.1,5.6,1.4,1.3,3.8,3.2,5.4,4.2,6.3,3.8,7.9,1.3,2-3.1-4.2-3.2-4.3-3.8-.5-2.5,2.7,1,5.1.6,5.1-.9s-1.6-1.2-3.5-1.8Z"/>
    <path class="st1" d="M1268.8,665.5c.6-4.5-1.4-7.6-11-17.4-7.3-7.4-9-9.6-11.1-14.8-1.4-3.3-3.3-7.2-4.2-8.5-1.6-2.3-7.7-5.3-10.1-5-3.9.6-5-.1-8.5-5.7-4.2-6.5-10.7-12.4-16.7-15.1-7.6-3.4-29.7-3.1-34.9.5-2.6,1.8-5.3,1.5-6.8-.8-1.8-2.7-9.2-4.9-14.9-4.4-10.2.9-38.3,7.1-47.5,10.5-2.3.9-7.2,3-10.8,4.9-3.7,1.8-9.3,4.1-12.5,5-5.4,1.5-6,1.5-7.5.3-1.7-1.3-1.7-1.4,1.7-6.1,3.6-5.1,4.9-5.7,7.3-3.5,1.4,1.2,2.2,1.2,11.2-.5,6.2-1.2,14.1-3.5,21.4-6.3,6.4-2.4,13.9-5,16.7-5.8,5.1-1.4,18.1-3,26.2-3.3,3-.1,5.6-.8,7.5-2,3.6-2.2,14.9-5.1,19.9-5.2,7.8,0,24.3-6.5,30.5-11.9,3.1-2.7,6.3-7.3,7.3-10.3.3-1,1.7-3,3.1-4.5,1.4-1.5,3.1-3.8,3.8-5.2.7-1.4,5.9-9.5,11.5-17.9,5.6-8.5,10.8-16.7,11.6-18.3.8-1.6,2-3.5,2.7-4.3.8-.9,1.2-3.2,1.2-6.2,0-2.7.3-6.3.7-8.1,1.1-4.8-.4-17.2-2.5-20.7-1.6-2.7-9.2-9.2-13.4-11.5-5.4-2.9-16.6-4.2-20-2.4-1.3.7-1.6.6-1.6-.9,0-2.2-2.7-7.5-4.7-9.3-.9-.8-2.5-1.5-3.6-1.7-1.7-.2-2.1-.7-1.9-2.8.9-13-.2-24.5-2.8-29.7-.6-1.2-1.1-2.9-1.1-3.6,0-1.8-1.9-5.9-7.3-15.6-3.7-6.7-6-9.5-12.7-15.9-10.2-9.7-18.5-20.2-23.2-29.5-2.5-4.9-5-15.3-5-20.5s-1-6.3-3.8-6.3-3.7,1.5-3.7,3.5c0,2.9-2.3,1.5-3.3-2-1.5-5-3.8-6.7-8.1-6.2-2,.2-4.1,0-4.8-.6-.7-.5-2.9-5.3-4.9-10.6-2-5.3-4.8-11.3-6.2-13.4-2.5-3.7-9.3-10.7-10.3-10.7s-2.1-1.3-3.9-2.8c-3.6-3-16-7.9-20.3-8.1-10.1-.3-23.8,2.4-30.8,6.1-4,2.2-13.4,10.5-17.4,15.5-2.7,3.4-3.1,6.8-.7,6.8s4.3-1.1,7.7-2.5c5.7-2.4,6.6-2.5,13.6-2.1,5.8.4,8.2.9,10.8,2.5,1.9,1.1,5.1,2.9,7.2,4.1,5.8,3.1,12,10.7,14.1,17.1,1,3,2.7,7.5,3.9,10,2.2,4.8,4.5,13.3,3.9,14.3-.2.3,0,2.2.6,4.2,1.4,5.4.2,7.6-4.9,9.3-5.8,1.9-6.6,1.8-11.3-1.5-2.3-1.6-4.6-2.9-5.2-2.9s-1.1-1-1.1-2.7c0-1.7-.9-3.7-2.3-5.5-1.9-2.2-3.1-2.9-6.3-3.2-3.2-.4-4.2-.9-5.1-2.7-2-3.8-4.9-5.1-10.5-4.8-5,.3-5.1.2-6.6-2.6-.9-1.6-2.6-4-4-5.4-1.3-1.4-3.5-4.4-4.8-6.7-1.3-2.3-2.4-4.2-2.4-4.3,0,0-1-.4-2.1-.7l-2-.6.5,11.1c.7,14.5,2.3,23.1,6.1,32.4l3.2,7.6,9.6,7.7c11.4,9.1,15.7,11.7,20.9,12.4,2.1.3,5.2,1.1,6.8,1.9,2.8,1.3,3.4,2.4,10.2,18.5,12.4,29.5,14,32.3,22.6,39.7,5.9,5.1,7.5,6,18.1,9.4,10.8,3.5,15.3,5.6,16,7.3.3.8,1.1,1.8,1.9,2.4,2,1.4,5.2,8.3,4.9,10.5-.3,2.2-6.4,5.5-10.1,5.6-5.1.1-8.9-3.6-8.9-8.7s-2.5-4-4.3-3.3c-.6.2-2.1,2.4-3.3,4.8-3.5,7.2-9.1,12.7-14.5,14.4-4.7,1.5-4.7,1.5-7.9-.4-1.8-1-3.5-1.6-4-1.4-.4.2-1.8,2.8-3.2,5.7-4.6,10-16.1,15.2-22.7,10.5-3-2.2-3.1-4.1-.2-11.2,2.3-5.9,1.9-8.2-1.4-7.3-3.6.9-9.4-7.1-10.7-14.8-1-6.2-2-7.8-4.4-6.5-4,2.1-8.9-.7-10.2-5.9-.3-1.2-1.2-3-2.1-4.2-1.4-1.8-1.8-2-3.3-1-1.1.7-3,.9-5.2.6l-3.5-.5v-4c0-2.7-.5-4.6-1.4-5.6-1.7-1.9-1.9-4.1-.3-5,2.3-1.4,3.2-4.3,2.2-7.3-1.6-4.9-9.7-11-11.8-8.9-1.5,1.5-.8,11,1.2,16.2.8,2,.6,2.5-1.1,3.9-1.3,1-2.3,1.3-2.9.8-.6-.5-3.4-.4-7.3.2-8.8,1.3-9.1,1-8.7-8.8.3-6.5.7-8.1,3-12.2,1.4-2.6,2.4-4.9,2.2-5.1-1-1,2.8-6.9,14.5-22.3,4.6-6.1,6.6-9.9,5.1-9.9s-7.3,5.9-9.3,9.2c-1,1.6-3.4,4.9-5.4,7.4-2,2.5-4.7,6.4-6.1,8.9-1.4,2.4-3.1,4.6-3.8,4.9-.9.4-1.1,1.1-.8,2.5.3,1.4,0,2.1-.8,2.5-.7.3-1.2,1-1.1,1.5.3,2.4-.2,3.1-2.1,3.1s-2.7,1.9-.4,3.4c1.9,1.2,1.5,4-.5,4s-1.3.7-1.6,1.6c-.7,2.4-3.5,3-5.5,1.2-2.1-1.9-3.9-.9-6,3.3-2.1,4.3-4.8,5.4-8.4,3.5-1.5-.8-4.1-2.8-5.8-4.3-1.7-1.6-3.4-2.8-3.8-2.8s-2.5.9-4.6,2c-3.1,1.7-3.9,1.8-4.2.8-.2-.7-.6-1.9-.9-2.7-.3-.8-.8-3-1.2-4.8-2.7-14-6.8-21.8-17-33.2-5.7-6.3-15.4-13.4-17.4-12.7-2.1.8-.6,3.1,3.2,4.8,5.5,2.6,8.1,4.8,13.8,11.8,6.9,8.5,7.9,10.2,6.6,11.9-.8,1-.5,1.7,2,3.9,3.3,3,3.7,4,1.8,5.6-1.8,1.5-1.5,3.2.6,3.5,1.6.2,1.9.8,1.9,3.9,0,2-.2,3.8-.6,4-1.5.9-.5,3,1.8,3.8,1.4.5,2.5,1.2,2.5,1.7,0,1.6-5.3-.1-8.6-2.8-3.2-2.6-3.8-2.6-6.9-.3-1.6,1.2-1.9,1.1-4-.9-2.4-2.4-2.6-3.5-1.5-7.4,1.6-5.6-2-10.5-6.8-9.2-4,1-6.3,3.9-7.1,8.8-.7,4.4.2,10.8,1.6,10.8s3.3,2.5,3.8,5.3l.6,3.2-2.8-.4c-1.5-.2-4-.9-5.6-1.5-4.1-1.7-7,.2-7.8,5-.8,4.7-1.2,5-8.1,8.4-5.3,2.5-6.2,2.8-9.1,2-1.7-.5-3.6-.7-4.2-.5-1.8.6-3.3,5.6-2.9,9.5.4,3.3.1,4.1-2.2,6.7-2.5,2.9-7.7,5.2-9.3,4.2-.4-.2-1.4-1.9-2.3-3.6-2-3.9-6.5-7.6-12.8-10.3-4.2-1.9-5-2.6-6.5-6.1-.9-2.2-1.9-5.1-2.2-6.5-.5-3.2-3.9-7.5-5.2-6.7-.5.3-.8,1.1-.5,1.8.3.6,0,2.1-.3,3.2-.6,1.7-1.4,2.1-3.8,2.1s-3.8-.8-8.4-5.2c-3-2.8-7.2-7.7-9.5-10.7-3.4-4.6-5-5.9-9.1-7.7-2.7-1.2-5-2.5-5-2.9,0-1.5,11-7.6,14.4-8,2-.2,7.3-1.7,11.8-3.4,4.5-1.6,11.4-4.1,15.2-5.4,15.4-5.5,23.7-11.3,34.9-24.7,2.6-3.1,4-4.2,5.1-3.9,1.1.3,2-.4,3.2-2.5,1.9-3.2,3.9-4.3,16.6-9.2,5.9-2.3,8-2.8,8.9-2.1.9.7,1.2.4,1.7-1.5.3-1.6,1.8-3.4,4.4-5.2,9-6.5,13.4-12,13.5-16.9,0-1.9-9.4.3-15.5,3.6-7,3.8-8.2,4-10.4,2-2.1-1.9-4.8-1.7-10.1.8q-4.6,2.1-6.1.4c-2.5-2.7-3.9-3.1-7.7-2.2-2.4.6-4.2,1.8-5.7,3.7-1.9,2.4-5.7,5.3-7.3,5.3s2.6-12.4,6.9-18.3c6.2-8.5,13.3-14.1,17.8-14.1s3.5-.6,4.4-1.2c2.3-1.8,8.6-1.6,12.4.4,1.8.9,3.7,1.7,4.2,1.7s2.8,1.6,5,3.6c3.3,3,4.4,3.5,5.9,2.9,2.4-.9,2.4-1.1-.5-4.8-1.3-1.7-3-5.1-3.7-7.7-1.1-3.7-2.3-5.5-5.9-9-2.5-2.4-6.7-5.3-9.4-6.4-2.6-1.2-6-2.7-7.5-3.4-4.4-2-21.7-.7-30.7,2.3-8.3,2.8-9.9,3.6-18.9,9.4-4.1,2.7-9.2,7-12.7,10.8-3.2,3.5-6.1,6.3-6.5,6.3s-.4-1.7-.2-3.7c.5-3.7.5-3.8-2-3.8s-3.7,1.1-7.3,4.5c-7.7,7.3-17.9,15.1-27.9,21.2-8.8,5.5-21,15.6-30,24.8-4.5,4.7-8.7,10.9-11.8,17.7-1.2,2.5-2.8,5.9-3.6,7.5-.8,1.6-2.4,5.3-3.5,8.1-1.1,2.9-2.4,5.3-2.9,5.5-.8.3-3.7-.2-9.6-1.6-2.1-.5-2.2-.4-2.5,3.3-.2,2.1,0,7.1.2,11,.8,12.3.2,13.7-7.1,15.9-2,.6-2.4,1.1-2.2,2.7.1,1.1,1,2.7,1.9,3.7.9.9,1.6,2,1.6,2.5s.8,1.8,1.7,3.1c.9,1.3,2.1,4.5,2.5,7,1,5.5,5,15.2,8.4,20.4,5.5,8.4,14.5,12.4,21.7,9.6,1.9-.7,3.8-1.3,4.1-1.3,1.7,0,0,2.7-4.5,7.5-7.1,7.5-9.4,10.6-8.8,11.9.3.7,2.6,1.6,5.3,2.1,11.4,2.1,14.3,2.8,20.6,4.8,6.7,2.1,10.4,4.5,10.4,6.6s-.9,3-2,5.2c-1.8,3.5-1.9,4.2-.9,5.6,1,1.4,2.1,1.5,11,1.3,23.8-.7,22.2-.8,27.3,1.9,4.5,2.5,5.7,3.8,3.5,3.8s-1.8.7-2.6,1.7c-1.4,1.6-1.4,1.8.9,5.1,5.8,8.3,6.6,11.6,3.7,16.4-.9,1.5-1.8,2.7-2,2.7s-2.2-.9-4.5-2.1c-2.2-1.2-6.2-2.3-8.8-2.6-4.7-.5-5.9-1.3-3.5-2.2,1.4-.5,1.7-3,.4-3s-1.8.6-2.9,1.3c-1.1.8-2,1-2,.5s.4-1.1.8-1.4c1.1-.7,1.1-2.9,0-2.9s-2.1.9-3.6,2.1c-3.1,2.4-5.3,2.6-7.6.9-1.5-1.1-1.5-1.2-.2-1.7,1.5-.6,2-2.5.7-3.2-.4-.3-1.7.3-2.8,1.2-1.9,1.5-2.6,1.6-6.4.7-4.7-1-6.2-.4-7.6,3.1-1.3,3.5-5.2,3.4-12.8-.4-7.2-3.6-16.8-9.5-21-12.9-1.4-1.2-4.6-2.9-7.2-3.8-4.6-1.7-7.9-4.9-13.1-12.5-1.1-1.6-2.2-3.1-2.5-3.3-.3-.2-1.8-2.2-3.4-4.5-1.6-2.2-3.9-5.5-5.1-7.3-1.3-1.8-2.3-3.5-2.3-3.9s-.7-1.3-1.6-2.2c-.9-.8-1.9-2.3-2.2-3.2-.3-1-1.4-2.8-2.5-4.1-1.1-1.3-2-2.9-2-3.5,0-1.4-2.6-3.9-5.6-5.4-9.2-4.7-11.4-10.5-5.7-15.1,1.7-1.4,1.7-1.4-1.1-.9-2.8.5-2.9.5-1.7-1.1.7-.9,3.5-3.8,6.2-6.4,5.6-5.3,5.4-6.1-.6-2.3-4.5,2.8-4.7,2.9-4.7,1.4s3.6-5.1,8.5-8.2c2.4-1.6,4-3.2,4-4.1,0-1.5-.1-1.5-3.3.1-1.8.9-3.3,1.3-3.3.9,0-1.1,3.3-7.4,4.1-7.9.4-.2.4-1.4.2-2.5-.3-1.6-.8-2-1.8-1.6-.7.3-2.3.8-3.4,1-5.1,1.1-11.1,6.5-18.5,16.9-5.8,8.1-7.1,12.5-5.7,19.2.8,4.1.8,5.2-.2,6.6-1.2,1.8-1,4.5.7,6.6.5.7,1.5,2.4,2.2,3.7,4.5,9.2,35.1,45.4,38.3,45.4s.8,3.1-.5,3.6c-2.7,1-1.1,4,6.4,11.6,4.9,5,8.6,8,10.2,8.4,1.4.3,3.1,1.1,3.8,1.6,1.6,1.3,11.9,5.3,17.7,6.8,2.4.6,8,1.4,12.5,1.7,7.8.5,8.1.6,8.1,2.5s2.8,4.5,5.5,4.5,2,.3,2.2.7c.2.4,3.8.6,8,.6,4.2,0,7.8.2,8.1.7.3.4,1.9.5,3.7.2,4.3-.7,10,.7,19.3,4.8,4.2,1.8,10.8,4.1,14.7,5.1,6.9,1.8,14.5,5.8,17.7,9.5.8.9,2.5,1.9,3.7,2.2,2.5.6,11,6.1,11,7.1,0,1.7-13.2-2.8-25.4-8.7-21.3-10.3-37.1-14.3-51.2-12.9-3.4.3-7.9,1.2-10,2-2.1.8-6.4,2.1-9.6,2.9-3.2.8-6.4,1.8-7.1,2.2-.7.4-8.7.8-17.8.9-38.1.3-49.9,3.8-51,15.4-.4,4-1,5-5.8,10.7-3,3.5-7.6,8.5-10.2,11.3-7.2,7.5-11.2,12.8-13.6,18.2-2.4,5.4-2.6,7.5-.9,10.4,1,1.8.9,2.6-.5,6.2-.9,2.3-2.9,6.4-4.4,9.2-2.8,5.1-5.4,13.5-8.7,27.6-2.2,9.5-2.2,11.2-.1,11.7,1.1.3,1.7,1.3,1.9,3,.2,2,.7,2.7,2.1,2.9,1.5.2,2.2-.6,4.1-4.6,1.2-2.7,4-6.7,6.1-9,2.1-2.3,5.3-6.1,7.2-8.5,1.8-2.4,4.3-4.8,5.4-5.3,1.7-.9,1.8-1.1.6-1.4-1.7-.4-1.7-.1-.5-3.4.5-1.4,1.4-2.6,2-2.6,1.9,0,2.3-1.7.5-2.2-1-.2-1.7-.8-1.7-1.1,0-.8,1.9-2.8,4.4-4.5,2.2-1.5,1.2-2.9-1.1-1.4-2.1,1.3-3-.5-1.5-3.3.7-1.4.8-2,0-2.2-.5-.2-.9-1.2-.9-2.4,0-2.5,5.3-7.7,11.2-10.8,7.4-4,9.6-5.9,9.6-8.8s1-3.8,3.5-6.7c2.5-2.9,3.4-4.8,3.3-6.4-.1-1.3.5-2.8,1.4-3.7.9-.8,1.4-2,1.2-2.6-.4-1.1,1.2-7,1.9-7s1.4.7,2.6,1.6c1.2.9,3.8,1.8,5.6,2.2,1.8.3,3.8.9,4.3,1.4.5.4,3.7,1,7.1,1.3,3.4.3,6.8.8,7.6,1.2,2.2,1.2,3.5,0,1.9-1.8-1.7-1.9-.6-2.6,3.6-2.7,1.7,0,3.6-.5,4.3-1.1.7-.6,2.9-1.5,4.9-2,3.2-.9,3.8-.8,5.4.7,2,1.8,13.6,3.2,24.8,2.8,7.2-.2,8.8.7,4.2,2.3-1.7.6-4.8,2.2-6.9,3.5-2.1,1.3-4.2,2.4-4.7,2.4s-2.5.9-4.5,2c-2.8,1.6-4.3,1.9-7,1.6-1.9-.3-6.6,0-10.4.5-3.9.5-9.9,1.3-13.4,1.7-9.8,1.3-23.1,7.3-26.5,12-.6.9-3.2,3.7-5.6,6.3-2.5,2.6-5.8,7.1-7.3,10.1-3.8,7.2-4.8,8.4-7.1,8.1-1.6-.2-2.2.6-4.5,6.4-1.4,3.7-3.8,8.9-5.3,11.6-1.4,2.7-4.3,8.6-6.4,12.9-2.1,4.3-5.3,10.7-7,14.1-4,7.7-4.2,10-.8,11.9,2.6,1.5,3.1,2.6,1.7,3.5-2.4,1.5-4.4,7.7-4.5,13.7,0,6.2,0,6.3,4,12.1,5.7,8.2,11.9,14.4,16.7,16.7,5.6,2.7,15.4,2.8,22.1.3,2.5-.9,6.6-2.5,9.1-3.3,9.8-3.4,25.8-11.7,25.8-13.3s.5-1.7,1-2.3c1.5-1.5-.8-2.7-4.4-2.1-4.1.7-14,.6-17.9,0-6.7-1.1-7.2-1.3-6.7-2.6.6-1.6-3.3-3.1-6.4-2.5-1.9.4-2.3.2-2-1,1.6-6,1.6-6.2-.9-5.6-2.2.5-2.5.3-3.3-2.6-.5-1.7-.8-3.4-.5-3.8.2-.4-2-.7-5-.7-6.4,0-7.3-1.4-2.5-3.7,3.7-1.8,3.3-3.4-.8-3.1-1.7.1-3,0-3-.2s.7-1.9,1.7-3.7c1.2-2.5,3-4,7.3-6.4,11.2-6.2,15.3-10.2,9.8-9.6l-2.5.3,1.7-1.8c.9-1,3.3-2.8,5.4-4,3.5-2,6.6-4.9,6.6-6.2,0-.3-1.7-1.6-3.7-2.8-3-1.8-3.7-2.6-3.7-4.5s.7-2.7,5.5-5.3c3.8-2.1,7-3.2,10.8-3.6,3-.3,5.5-1,5.6-1.4,0-.4-1.1-1.2-2.6-1.7l-2.8-.9,2.1-1.4c1.1-.8,4.4-2.3,7.2-3.5,2.9-1.2,6-3.2,7.3-4.6,1.2-1.4,2.8-2.5,3.7-2.5,2.6,0,4.3-1,5-2.9.4-1.1,3.2-3.1,6.8-4.9,3.3-1.7,6.6-3.5,7.2-4,.8-.7,1.1-.4,1.1,1.1,0,1.1.3,2.5.7,3.1.9,1.3,6.8,2.5,13.5,2.5,5,0,21.3-3,22.9-4.2,1.4-1.1,17.1-1.8,18.5-.8.9.7.6,1.5-1.9,4.4-1.7,1.9-3,3.8-3,4.1,0,.7-10.4,8.4-14.8,10.8-3,1.7-4.3,3.2-6.5,7.7-3.9,7.8-4.9,14.4-3.1,21.2,1.7,6.4,4.8,9.8,12.5,13.7,3,1.5,5.6,3.1,5.8,3.4.6,1-3.2,2.1-9.5,2.7l-5.8.6-2.7,5.4c-1.5,3-3.2,8.4-4,12.3-1.2,6.4-1.2,7.2.2,10.7,2,5.3,3.9,6.7,9.4,7.2l4.7.4v5c.1,8.1.2,8.4,4.9,13.1,8.3,8.4,15.1,11.8,27.2,13.5,4,.5,12.4-.9,19.8-3.5,4.8-1.6,18.3-8.4,23.7-11.8,3.3-2.1,5-2.6,8.5-2.6,5.7,0,6.5-1.9,2.9-6.4-1.6-2-3.3-5.9-4.7-11-2.4-8.6-3-10-6.2-14-3.2-4.1-5.9-5.1-16.3-6.1-8-.7-10.2-.7-14,.4-6.1,1.8-6.4,1.7-6.4-1.1s-1.1-6-4.6-10.5c-1.7-2.2-2.8-4.4-2.6-5.1.2-.6,0-1.1-.5-1.1s-.7-1.2-.4-3.3c.4-2.7,0-4.6-2.2-9.8-1.5-3.5-3.8-8.1-5-10.2l-2.4-3.7,6.9-.6c6.3-.6,12.9-2.1,23.1-5.3,2-.6,6.3-1.2,9.5-1.2,6.4,0,12.2-.9,22.8-3.4,6.8-1.6,6.9-1.6,8.5,0,5.1,5.2,11.7,5.8,18.5,1.9,2.5-1.4,4.8-2.6,5-2.6s1.8,1.1,3.6,2.5c2.2,1.7,3.7,2.3,4.8,2,3-.9,14.7-.5,20,.8,17.9,4.3,21.8,4.6,33.9,2.3,19.1-3.6,22.9-4.5,25.1-6.1,1.7-1.1,2.7-1.4,3.8-.8.8.4,4.6,1,8.3,1.4l6.8.6,4.9-5.2,5.7,2c9.2,3.2,22,4.5,26.5,2.6,2.4-1,3.4-1.1,4.8-.3,1,.6,6.9,1.1,13.3,1.4l11.5.4,1.5,3.4c.9,1.9,2.8,4.3,4.5,5.4,1.6,1.1,2.9,2.4,2.9,3s-1.9,1.7-4.3,2.6c-3.9,1.4-4.8,2.2-9,8.5-5.9,8.6-6.5,12-4.1,22.7.9,4,1.6,8.6,1.6,10.1v2.7h-6.9c-10.1,0-14.4,2.5-28.3,16.5-3.8,3.8-8.2,7.6-9.8,8.4-3.9,2-5.8,3.7-5.8,5.4s2.5,3,5.6,5c3.1,2,6.9,4.7,8.5,5.9,5,3.9,14.3,8.4,21.2,10.4,8.1,2.3,17,2.5,25.5.7,8-1.7,10.2-2.8,15.7-7.4,4.1-3.5,5.5-5.1,10.4-11.8,1.8-2.4,3.9-11.7,3.5-14.8-.3-2.4.2-3.4,4.6-8.8,2.2-2.7,5.7-10.5,6.4-14.4,1.8-9.5-3.2-18.2-12-21-4.2-1.3-7.8-3.8-7.8-5.3s2-1.8,4.3-3.1c7.1-3.8,15.2-16.4,16.1-25.1.8-7.9-3.4-16.3-9.4-18.8-4-1.7-5.5-1.5-11,.9-5.8,2.6-10.3,2.5-10.7-.2-.3-2,.4-2.3,9.8-3.6,3-.4,7.1-1.2,9.1-1.7,4.7-1.2,14.8-7.4,15.4-9.5.4-1.4.9-1.5,4.4-1,4.4.6,8.3,2.6,9.7,4.8.7,1.1.5,1.8-.6,3.1-1.4,1.6-1.4,1.7.2,2.5.9.5,2.3.9,3.1.9,1.6,0,3.6,2.3,3.7,4.2,0,.7,1.7,2.8,3.8,4.6,2.1,1.8,3.7,3.8,3.6,4.5-.3,2,.9,3.3,3.3,3.3,8.1,0,11.3,4,5.2,6.4-1.8.7-3.3,1.6-3.3,2,0,1,3.1.9,3.8-.1.7-1.1,11.1-1.1,14.3,0,2.8,1,5.3,5.2,5.3,9.1s.4,2.7.9,2.9c.5.3,2.2,3.1,3.7,6.2,1.6,3.1,3.3,5.9,3.7,6.2.5.3.9,1.4.9,2.5s.8,2.3,2.7,3.3c1.5.7,4.7,3.1,7.1,5.3l4.4,4-1,3.2c-.6,2-2.9,5-5.8,7.9-4.9,4.8-5.5,6.4-1.9,5.5,3.3-.8,2.5,1.7-1.7,5.9-3.8,3.7-3.8,5.2,0,4.2,1.1-.3,2-.3,2,0,0,1.1-2.1,4.3-4.7,7.2-1.5,1.7-2.8,3.5-2.8,3.9,0,1.5,1.9,1.9,2.7.6.4-.7,1.3-1.4,2-1.4,1.9,0-1.3,5.5-5.4,9.5-3.6,3.5-4.6,7.1-1.9,7.1,3.7,0,24-16.2,28.1-22.4,1.1-1.7,3.2-4.7,4.6-6.7,7.2-10.1,10-21.6,7.1-28.6-.9-2-1.3-5.6-1.3-9.8,0-8-2.6-14.8-9.3-24.5-4.4-6.4-6.3-7.8-13.5-10.3-3.5-1.2-4.3-1.8-4.7-3.8-.7-3.7-4-9.1-15.8-26.1-6-8.6-12.4-13-22.3-15-1.6-.3-5.6-1.6-8.8-2.7-4.6-1.7-7.5-2.1-13.7-2.2-4.3,0-9.1.3-10.6.7-2.4.7-3,.6-4.9-1.2-2.5-2.3-2.9-2.4-7.4-.9-7.7,2.6-11.6,2.3-6-.5,1.5-.7,4.6-2.3,6.8-3.5,6.9-3.6,15.1-4.9,27.3-4.4,10.8.5,14.7-.1,14.7-2.3s2-2.2,5.6-1.2c4.1,1.1,4.3,1.3,2.1,2.8-2.7,1.9-1.4,3.1,2.6,2.5,2.7-.4,3.5-.2,4.5,1.1.9,1.3,2.3,1.7,5.9,1.9,4.2.2,4.7.5,4.5,1.8-.2,1.4.1,1.5,2.9,1.1,1.7-.3,6.3-.3,10.1,0l6.9.5,2.8,5.7c1.5,3.1,4.3,7.3,6.2,9.2,3.3,3.4,7.2,9.6,6.4,10.3-.2.2-1.4,0-2.6-.6-1.2-.5-2.4-.8-2.7-.5-.8.8.4,3.1,2,3.7,1.5.6,7.4,7,10.3,11.3,1,1.5,2.5,2.2,5.2,2.7,2.1.3,3.8.7,3.8.9,0,1.2-2.5,5.9-3.6,6.8-1.8,1.5-1.8,3.1,0,3.8.9.4,1.9,0,2.8-1.3,2.7-3.6,2.7.1-.1,5.6-2.5,4.9-2.6,5.5-1.3,6.2.8.4,1.4,1.5,1.4,2.3s.5,1.7,1,1.9c.8.3.8,1.1,0,4.2-1.6,6-1.4,7.2,1.1,7.2,3.6,0,8.3-4.1,12.3-10.8,7.7-12.8,8.6-17.4,5.2-27.7-1.2-3.7-1.8-7.1-1.6-9ZM1047.7,295.2c-.6.2-.9-.1-.7-.7.4-1.1,1.5-1.3,1.6-.3,0,.3-.4.8-.9.9ZM1068.8,294.1c-.3.7-1.2,1.2-2.1,1.2s-1.5-.4-1.2-1.3c.3-.8-.4-2-1.8-3.3-1.3-1.1-2.1-2.2-1.8-2.4.9-.9,4.9,1.6,4.9,3,0,.8.6,1.4,1.2,1.4s1,.5.7,1.2ZM1037.7,333.6c-.5,0-.8-.6-.8-1.3s.4-1.1.8-.8c.4.3.8.9.8,1.3s-.4.8-.8.8ZM924.8,353.2c2.1-1.5,3.1-.3,1.4,1.7-1.1,1.4-3.3,1.6-3.3.4s.8-1.4,1.9-2.1ZM916.5,357.2c.3-.3,1.1-.2,1.6.4,1.3,1.3.6,2-1,1-.7-.4-.9-1-.6-1.4ZM911.7,357.8c.8,0,1.3.8,1.3,2.1,0,2.5-.5,2.6-1.6.5-1.2-2.2-1.1-2.6.4-2.6ZM907.9,318.3c.5-.3.8-2.4.8-4.6s.4-4.1.9-4.1.8,1.4.5,4.7c-.5,4.7-1.6,7-2.6,5.4-.3-.5-.1-1.1.3-1.4ZM676.1,470.7c.7-1.9,3.1-6.2,5.4-9.6,4.1-6,11.5-13.3,12.4-12.4.3.3-.2,2.4-1.1,4.8-1,2.9-2.6,5.1-4.7,6.8-3.5,2.7-3.9,4-1.6,4.6,2.6.7,1.3,4.8-2,6.4-3.4,1.6-3.8,3.9-.8,3.9s2.6,2-.7,4.1c-3.9,2.4-5,2.2-6.7-1.6-1.3-3-1.4-3.7-.3-6.9ZM708.4,527.8c-1-1.4-2.4-3.3-3.3-4.2-.8-.9-3.7-4.4-6.4-7.9-2.7-3.4-6.4-7.9-8.3-10-5.2-5.9-12.5-16.4-12.5-18s4-2.3,9.9-.2c6,2.2,7,2.8,7.3,5.2.2,1.3,1.2,2,3.9,2.7,3.7.9,5.6,2.9,2.8,2.9-.8,0-2.5.5-3.6,1.2l-2.1,1.2,2.3.6c1.3.3,3.4.4,4.8,0,1.9-.4,2.6-.1,3.3,1.1,1.2,2.2,1.1,3.6-.3,3.1-.6-.2-2,.2-3,.9l-1.9,1.3,1.9.7c1.1.4,2.5.3,3.4-.1,1.5-.8,4.2-.3,4.2.8s-1.3,1-2.9,1.6c-2.8,1-3.8,2.8-2.1,3.9.5.3,1.7,0,2.7-.8,2.3-1.6,3.5-1.6,5.2,0,1.5,1.6,1,2.8-1.2,2.8s-3,1.4-2.1,2.3c.3.3,2,.5,3.8.4,2.5,0,3.5.3,4.1,1.5.7,1.4.6,1.6-1,1.6-1,0-2.5.4-3.2.8-1.9,1.3.6,2.6,4,2,3-.6,4.7.4,6.4,3.8l1.1,2.2h-3.8c-2.3,0-3.9.3-4.2.9-.2.7.6,1.1,2.4,1.1,1.5,0,3.3.4,4,.8.8.5,1.6.4,2.3-.1.6-.5,1.2-.7,1.3-.6.1.2.9,1.2,1.8,2.2q1.6,1.9-1.4,3.1c-1.7.7-3.1,1.2-3.2,1.2-4.3-.9-13.1-7.3-16.4-12.1ZM771.9,565.1c-.7,2.3-2.2,3.9-3.3,3.5-.5-.1-2.2-.5-3.9-.8-2.5-.4-3-.8-2.6-2.1.3-1.2,0-1.6-1.2-1.6s-2.1.6-2.7,1.2c-1.1,1.3-6.7,1.8-6.7.5s.8-1.6,1.7-2.7l1.7-2-1.8-.3c-1-.2-2.7.5-3.7,1.5-2.2,2-5.7,2-6.1,0-.1-.7.7-1.7,1.9-2.3,1.2-.5,2.1-1.4,2.1-1.8,0-1.4-3-1-5.2.8-4.1,3.2-7.2,1.4-3.5-2.1,1.9-1.8,2.1-2.1.8-2.6-.9-.3-2.4.2-3.8,1.2-1.7,1.2-3.1,1.6-4.5,1.3-3.2-.8-3.4-2-.7-4.2l2.4-2-2.5.3c-1.4.2-3.1.6-3.9,1-1.1.5-2.2-.1-4-2-2.8-3-3.1-4.2-1.2-4.2s3.1-.9,5.4-2.1c2.3-1.1,5-2.1,6.1-2.1,2.6,0,12.1,4.9,17.5,9.1,4.6,3.5,10.7,7.1,17.8,10.4,3.9,1.8,4.4,2.3,3.9,4ZM822.5,579.7c-.6,1.5-1.4,2.7-1.8,2.7-.9,0-2.2-1.6-2.7-3.3-.2-.7-1.5-1.3-3.2-1.4-3.3-.2-9.8-1.5-10.4-2.2-.2-.2,0-1.2.5-2.2.5-1,.7-2.1.4-2.6-1-1.7-2.8-.7-4.3,2.3-1,1.9-2.3,3.2-3.4,3.4-2.2.3-2.2-.5-.1-3.2.9-1.1,1.6-3,1.6-4.2,0-1.9-.5-1.5-4.8,3.2-4.7,5.2-7.1,6.1-4.7,1.9,1.5-2.7,3.8-8.4,3.8-9.4s-.6-.7-1.2-.7-2.5,2.5-4.1,5.7c-3.2,6.3-3.8,6.7-7.7,6.1-3.5-.5-3.5-2,.2-7.7,1.6-2.5,3.1-5.8,3.4-7.3.6-3.2,1.6-4,3.2-2.7.6.5,2.1.7,3.3.4,1.7-.4,2.6,0,4.6,2.1,1.4,1.4,2.9,2.4,3.3,2.1.5-.3,3.6,0,6.9.7,3.3.7,7.9,1.5,10.2,1.8,3.2.4,4.7,1.2,6.8,3.4,2.9,3.1,3,5,.5,10.9ZM826.4,584.9c-1.8,0-2-.6-.8-2.5.7-1.1.9-1.1,1.6,0,.5.7.8,1.5.8,1.9,0,.4-.7.6-1.6.6ZM672.4,676.4c-1.4,0-1.7.4-1.2,2,.4,1.5,0,2.4-1.6,3.7-3.2,2.5-2.6,3.9.8,1.9,3.5-2.1,3.9-.8.7,2.5-2.2,2.3-1.9,2.8,1.2,2.4,1.6-.2,1.2,1.2-1.1,3.3-1.2,1.1-2,2.7-1.9,3.7.1,1.1-1,2.9-3.2,5-1.9,1.8-4.4,4.2-5.6,5.3l-2.2,2v-2c0-1.3,1-2.7,2.7-4l2.7-2-2.7.5c-3.3.6-3.4,0-1-8.2,4.5-15.1,14.1-27.8,14.1-18.7s-.4,2.5-1.7,2.5ZM702.6,630c0,1-.8,1.4-2.2,1.4s-2.1.4-2.1,1.7-.6,1.7-1.2,1.7c-1.4,0-1.7,2.1-.4,2.9.6.3.6,1.1,0,2.1-.6,1.2-1.8,1.6-4,1.6-1.7,0-3.6.3-4.2.7-1.8,1.2-.3,2.6,2.8,2.6s2.7.3,2.4,1.2c-.3.9-1.7,1.3-4.5,1.3s-4.1.3-4.1,1.3,1,1.5,2.5,1.8c4.3.9,1.8,2.1-3.1,1.5-4.2-.5-4.6-.4-4.3,1,.2,1.1,1.2,1.6,3.4,1.8,6,.5,2,2.7-5,2.7s-2.8.3-2.6,1.4c.1.8.8,1.5,1.5,1.6.7,0,1.5.2,1.9.2.3,0-.2,1-1.2,2.2-2.3,2.6-4.8,2.7-7.2.2-3.8-4.1-1.8-7.6,12.6-21.8,7.2-7.1,10.7-11.3,12.2-14.3,1.1-2.4,2.5-4.4,2.9-4.4,1.9,0,4.3,2.5,4.1,4.3-.1,1-.2,2.5-.3,3.4ZM760.1,614.4c-1.4,5.4-1.7,5.9-4.3,6.6-2.5.7-3,.6-4.4-1.4-1.7-2.4-3.5-2.2-2.7.3.3.8.1,1.7-.3,2-.4.3-1.3-1.1-2-3-1.3-3.8-2.8-4.1-2.5-.4.3,3.1-1,2.9-2.3-.4-1.5-4.2-2.2-5.2-3-4.8-1.1.6-.7,4.5.8,7.5,1.4,2.8,1.2,4.1-.7,4.1s-1.5-1.8-2.1-4c-1.5-6-1.6-6-2.6-6s-.8,1.5-.5,5c.2,2.7.3,5,.1,5-.8,0-2.9-5.1-2.9-6.9s-2.1-4.5-3.1-3.6c-.3.3,0,2.3.5,4.5.6,2.2,1.3,4.8,1.5,5.8.3,1.3,0,1.9-.8,1.9-2,0-2.9-1.8-3.6-6.5-.4-3.1-.9-4.3-1.8-4.3s-1.2.9-.8,5.2l.5,5.2-2.4-5.2c-1.4-3.1-2.9-5.2-3.7-5.2-1.7,0-1.6,2.6.2,5.7.8,1.4,1.2,2.7.9,3.1-1.1,1.1-3.8-.5-4.3-2.6-.5-2.1-1.7-2.7-2.6-1.2-1.1,1.8-3,.6-5.4-3.5-1.4-2.4-2.5-5-2.5-5.8,0-3.7,10.8-6.6,18.9-5.1,4.9.9,19.2.1,23.5-1.3,1.2-.4,5.1-.5,8.7-.2,7.8.6,7.9.7,5.6,9.6ZM763.6,619.9c-.3-.4-.1-1,.4-1.3.5-.3.8,0,.8.8,0,1.5-.5,1.7-1.2.5ZM765.7,615.2c-.5.3-.8-.4-.8-1.6s.4-2.3.8-2.6c.5-.3.8.4.8,1.6s-.4,2.3-.8,2.6ZM696.9,686.6c.4-.6,2.1.5,4.7,2.9,3.3,3.1,4,4,3.1,4.8-1.7,1.7-5.1,2.1-6.6,1-1.5-1.1-2.3-7-1.2-8.7ZM688.1,757.9c-3.7,0-5.3.9-4.4,2.4.3.4,1.8.4,3.8,0,2.8-.6,3.6-.5,4.9.8,1.9,1.9,1.4,2.6-1.7,2.6s-6.8,1.5-6.2,2.5c.8,1.3,4.7.9,8.6-.8,4-1.8,5.9-2.1,5.9-.8s-2.2,1.5-5,2.2c-3.1.9-5,1.8-5,2.6,0,1.3,2,.9,6.1-1.2,2.5-1.2,4.8-1.1,9.2.6,2,.7,2.2,1.1,1.2,1.7-.7.4-2.6.8-4.3.8-1.7,0-3.3.4-3.7,1-.6,1,4.4.6,11.3-.9,3-.7,3.9-.6,4.7.4,1.2,1.6,4.8,1.2,4.8-.5s4.4-2.2,5.6-1c1,1-9.7,6.6-16.4,8.7-6.6,2-12,2.3-16.2.9-4.8-1.7-11.5-7.4-15.3-13-1.6-2.4-3.5-4.9-4.2-5.5-1.5-1.3-1.6-3.8-.4-8.9,1.4-5.4,3.2-6,7.8-2.7,3.8,2.7,4.8,4.8,2.5,4.8s-1.2.5-1.2,1.1,1.5,1.1,5.1,1.2c6,.2,7.8,1,2.1,1ZM703.1,709.5c-2.3,1.1-4.8,1.7-5.9,1.4-1-.3-2.9,0-4.1.4-2.9,1.1-3,2.9-.2,2.2,1.7-.4,2.1-.2,2.1,1.3s.3,1.6,1.5,1.2c5.3-2.2,5.8-1,1.1,2.7-4.4,3.6-9.2,5.8-9.9,4.6-.8-1.2-6.2-.4-5.7.9.2.5,1.6.8,3.3.7,2.1-.2,3.1.1,3.5,1.2.3.8.4,1.5.3,1.6-.1.1-2.4,1.4-5,2.9-2.6,1.5-5,3-5.2,3.4-.9,1.4,1.4,1.7,3.5.4,2.8-1.8,3.8-.7,1.3,1.3-2.4,1.9-2,2-7.5-.5-3.1-1.4-4.2-2.3-3.8-3.1.6-1.1,6.5-10.6,8.4-13.6,3.9-6.1,6.1-10.3,6.1-11.4s3-8.9,3.8-9.6c.2-.2,1.8,1,3.7,2.7,3.5,3.1,5.8,3.7,9.5,2.2,1.9-.7,2.1-.6,2.1,1.1s.4,2.3,1,2.9c1.1,1.2,1.4.9-3.7,3.3ZM763.4,659.7c-2.6,1-2.9,1-5.2-1.2-3-2.9-3.8-2.3-2.1,1.6,1.2,2.7,1.2,3.1,0,3.5-.7.3-2.2-.4-3.5-1.7-3.7-3.5-4.9-2.2-1.7,1.8l1.7,2.2-1.8,1.5c-1.8,1.4-1.9,1.4-5.1-1.1-1.8-1.4-3.4-2.9-3.7-3.3-.3-.4-.8-.6-1.3-.3-1,.6.6,3.6,2.8,5.4,1.5,1.2,1.5,1.4.3,2.4-1.1.9-1.8.6-4.3-1.9-1.7-1.6-3.4-2.8-3.8-2.5-.9.5.5,3.4,2.9,6,1.5,1.6,1.6,2,.5,2.7-1.9,1.2-2.8,1-6.6-1.7-3.5-2.5-6.3-2.8-5.4-.5.2.6,2,2,3.9,3.1,4.8,2.7,1.8,3.3-3.7.7-3-1.4-4.3-1.6-5-.9-1.4,1.4.5,3.4,4,4,1.5.3,2.6.9,2.4,1.2-.2.4-1.3.4-2.3,0-7.3-2.7-9.7-3.1-9.7-1.4s1.8,1.8,4.2,2.6c4.2,1.4,5.5,2.9,2.5,2.9s-3.6-.7-6-1.6c-3.2-1.2-4.5-1.4-4.9-.7-.8,1.3.8,3.1,2.8,3.1s2.4.4,3.3.9c1.6.9,1.6.9.1,2.1-.8.6-2.7,1.2-4,1.2-3.1,0-8.5-3.5-9.6-6.3-1.9-5,3.4-14.7,11.7-21.5,8.1-6.6,9.9-7.9,12-8.8,6.2-2.5,31.1-5.4,33.9-4,.8.4,1.5,1.3,1.5,1.9s.9,2.3,2.1,3.6c2.3,2.7,2,3.2-2.7,5.1ZM771.6,650.8c0-2,.1-2.1.8-.6.4.9.7,1.9.8,2.3,0,.4-.3.6-.8.6s-.8-1-.8-2.3ZM775,659.2c-1.5,1.4-2.6,1.8-2.6.9s2.7-4.5,3.4-4.5c1.3,0,.8,2.2-.8,3.6ZM777.4,650.5c-.5.8-.9.4-1.3-1.5-.3-1.5-.4-2.9-.1-3.1.8-.8,2.2.6,2.2,2.1,0,.8-.3,1.9-.7,2.6ZM1222.4,752.9c.5,0,.8.4.8.8s-.4.8-.8.8-.8-.4-.8-.8.4-.8.8-.8ZM1238.9,737.4c.5,6.7-4.9,17.1-14.9,28.2-2.3,2.6-4.6,4.8-5.1,4.8-1.1,0,.2-2.1,4.6-7.5,2.1-2.5,3.8-4.8,3.8-5.2,0-1.4-1.9-.5-4.2,2.1-1.3,1.5-2.5,2.5-2.5,2.2,0-1.8,3.5-6.7,7-10,4.1-3.8,4.8-5.9,1.4-4.1-2.5,1.4-2.1.3,1.7-4.2,1.9-2.2,3.1-4.5,2.8-4.9-.3-.5-.3-1.8,0-3,.4-1.7,1-2,2.8-1.8,2,.2,2.3.7,2.5,3.4ZM1223.8,746.3c.2-.9.8-1.7,1.2-1.7.9,0,.9.3.2,2-.7,1.9-1.9,1.6-1.4-.3ZM1226.9,736.1c1.1-1.5,3-2,3-.7s-.7,1.3-1.5,2.1c-2.6,2.3-3.6,1.4-1.5-1.3ZM1209.4,696.4c.4,1.5.7,1.6,2.2.8,1.8-1,1.6-2.5-.4-2.5s-1.4-1.3.9-2.8c2.6-1.7,3.6-1.7,8.9.3,3.2,1.2,5.1,2.6,6.7,4.9,4,5.6,7.7,12.8,8.9,16.9,1.1,3.9.7,9.9-.7,12.2-.9,1.4-8,2.3-8.7,1.1-.3-.5.6-1.6,2.2-2.5,6.6-3.9,6.1-5.1-1-2.6-4,1.4-5.3,1.6-6.3.8-2.9-2.4-.9-5.3,5.5-8.3l3.7-1.8-3.3.5c-1.8.3-4.7,1.3-6.5,2.2-2.5,1.3-3.5,1.4-4.4.7-1.9-1.6-1.4-2.3,3.3-5,3.1-1.7,4.4-2.9,4.1-3.8-.6-1.5-.2-1.5-4.6.4-10.3,4.7-11.9-1.4-1.7-6.5,3.4-1.7,5.1-4.2,2.1-3-.8.3-3,1.2-5,1.8-1.9.7-3.8,1.6-4,2-1.2,2-2.7.5-3-3.1-.3-4,.4-5.7,1.2-2.8ZM1191.6,681c-.6.7-1.7,1.2-2.4,1.2-1.1,0-1.1-.2.3-1.2,2.1-1.6,3.5-1.6,2.1,0ZM1155.5,641.9c1.7-1.7,6.5-1.7,7.9,0,.6.7,1.7,1.2,2.5,1.2s3.1.7,5.1,1.7c2,.9,4.6,1.7,5.8,1.7,4.2,0,9.6,2.6,13.1,6.1,5.1,5.2,11.2,16,14.3,25.2l2.7,8.1-2.2,1.9c-4.5,3.9-8,1.7-3.9-2.5,1.7-1.8,2.3-3,1.9-3.8-.5-.9-1.5-.4-4.1,1.9-1.9,1.7-3.8,2.8-4.3,2.5-1.5-.9-1-2,1.6-3.3,3.3-1.7,3.6-5,.4-4.2-2.4.6-2.6,0-.8-2.7.7-1,1.1-2.5.8-3.3-.4-1.1-1.5-.4-5.3,3.4-4.8,4.7-8.5,6.2-8.5,3.4s2.9-5.5,6-9c1-1.2,1.2-1.9.6-2.5-.9-.9-2.2.3-7.4,6.8-2.3,2.9-3.5,3.3-5,1.4-.9-1-.7-1.2.7-1.2s1.8-.5,1.8-1.6c0-1.8,3-8.1,4.3-8.8,1.2-.7.9-3.7-.3-3.7s-8.1,11.4-8.1,13.2-1.2,1.1-2.8-.6c-2.1-2.3-1.7-4.2,1.5-8.1,3-3.7,3.9-7.8,1.7-7.8s-1.4.7-1.7,1.4c-.3.8-1.7,3-3.3,4.8l-2.8,3.3-1.5-3-1.4-3.1,2.6-3.3c2.9-3.7,3.1-4.3,1.4-4.3s-2,1.1-3,2.5c-1,1.4-2,2.5-2.4,2.5s-2.3-1.7-4.4-3.7c-3.5-3.3-4.2-3.7-6.9-3.2-1.6.3-3,.2-3,0,0-.8,4.6-7.5,6.3-9.1ZM1146.9,644.6c.2-2.1.7-2.8,2.1-3,2.2-.3,2.3.1.4,3.3-1.9,3.2-2.9,3.1-2.6-.3ZM1075.5,629.5c.6-6.2,1.4-8,3.6-8s1.1.6.7,2.3c-.3,1.3-.8,4.6-1,7.4-.3,3.2-.9,5.3-1.6,5.6-1.9.7-2.2-1-1.6-7.3ZM1072.3,623.1c1.5,0,1.6,3.4.2,4.8-.5.6-1.2,2.7-1.4,4.8-.6,5-1.7,3.8-1.7-1.9s1.1-7.7,2.9-7.7ZM1084.4,596.3c-.7,2.6-2.6,3.6-2.6,1.3s1.4-3.6,2.6-3.6.3,1,0,2.2ZM1148.5,578.5c-2.3-4.4-2.3-4.4.7-4.4s5,2.6,5,7.2-1.6,5.3-5.7-2.8ZM1211.2,560.4c-.7.3-1.2,1.4-1.2,2.5,0,2.2-.9,2.5-3.3,1-2.4-1.5-3.3,0-1.1,1.9,1,.8,1.5,1.8,1.1,2-.4.3-1,0-1.3-.4-.8-1.2-2.1-.2-2.1,1.7s-1.4,2.1-2.7,0c-.6-.9-1.5-1.7-2.1-1.7-1.3,0-1.3.1-.2,3,.6,1.7.6,2.4-.2,2.9-1.6,1-2.1.9-3.8-.8-.8-.8-3-1.8-4.7-2l-3.2-.5,1.1,6.6h-3c-1.6,0-5.6.4-8.8,1-5.3.9-5.9.8-6.9-.5-1.4-1.9-3.2-.9-2.8,1.5.2,1.2-.3,1.9-1.2,2.1-.8.2-1.4-.1-1.2-.7.5-2.2-1.8-1.6-3.1.8-1.9,3.7-2.9,3.2-3.1-1.6,0-2.3-.2-4.5-.2-4.9-.2-1.6,11.3-8.1,24.9-14.1,12.7-5.6,13.2-5.8,17.8-8.4,6.3-3.5,8.1-3.4,9.4.8.5,1.8,1.5,3.8,2.1,4.3,1.5,1.2,1.4,3.2-.1,3.8ZM1246,512.5c-3.5,5.9-4.2,6.6-5.9,6.2-1.3-.3-1.9-.1-1.9.7s.4,1.4.8,1.7c1.5.9-.9,4.7-2.8,4.4-1.5-.2-1.7.2-1.5,2.3.1,1.4-.4,3.2-1.1,4.1-1.1,1.4-1.5,1.5-2.9.6-.9-.6-1.8-1-2.1-1-.9,0-.4,2,.9,3.5,1.2,1.4,1.2,1.7,0,3.6-1.1,1.7-1.7,2-3,1.3-3.3-1.8-4.5-.5-2,2.1,1.2,1.2,1.2,1.6.2,3.4-.7,1.4-1.6,2-2.6,1.7-1.9-.5-2.8.8-1.5,2.4.5.7.7,1.6.4,2-.3.5-1.6.9-3,.9-3.5,0-4.3-2.6-2.2-7.5.9-2.1,2.1-5.4,2.7-7.5,2.4-8.3,6.4-16.7,11.3-24,1.3-2,2.4-3.8,2.5-4.2,0-.3,1.6-2.4,3.6-4.7l3.6-4.1,4.9,1.2c3.4.8,5,1.6,5.2,2.6.2.8-1.5,4.5-3.7,8.1ZM1232.5,467.7c.5-1.5,6.6,1.7,10.9,5.8,3.2,3,3.7,3.9,2.9,4.8-.8.9-.8,1.2,0,1.5,1.5.5,3.5,2.7,3.5,3.7s-.8,1-1.7,1.3c-1.9.5-2.2,2.3-.4,3,.7.3,1.2,1.4,1.2,2.5s-.6,2.5-1.2,3c-1.7,1.4-1.6,2.2.5,2.8,1,.2,1.5.9,1.2,1.3-.7,1.1-4.3,1-7.3-.2-2.4-1-2.9-2.2-1.4-3.7.7-.7.4-1.2-.8-1.9-2.2-1.2-2.2-2.3,0-3,2.3-.7,2.1-1.8-.7-2.7-2.2-.8-2.4-1.2-2.2-4.6,0-2.1.4-4,.7-4.3.3-.3-.2-1.5-1.1-2.6-.9-1.1-1.6-2.6-1.6-3.2s-.6-1.4-1.4-1.9c-.7-.4-1.2-1.2-1-1.7ZM1217,469.5c.7-1.3,1.3-3.1,1.3-3.9s.4-1.4,1.5-.9c.8.3,2.1.8,2.9,1,1.7.5,1.9,1.9.3,1.9s-2.4,1.6-1.2,3c.6.7,2.8,2.2,5,3.3,3.4,1.7,5.7,4,5.7,5.7s-4.7,0-6.2-1.1c-.5-.3-3-1.3-5.6-2.2-5.2-1.7-5.7-2.6-3.5-6.7ZM1215.7,487.2c1.1-6.1,3.5-9.1,6.2-7.6,3.4,1.8,9.7,6.6,9.7,7.4s-1.7.5-3.7.2c-5-.7-4.9.6.2,3.5,5.3,3,6.9,4.4,6.9,6.1s-3.1,5.5-7.1,7.5c-4,1.9-4.8,3.3-2,3.3s1.6.4,1.2,1.3c-.3.7-.5,1.5-.5,1.7s-.7.3-1.6.3c-2,0-8.3,3.2-8.3,4.3s2.7.8,4.5-.5c2.6-2,3.1-.6,1.1,2.9-1.2,2-3.1,3.8-5,4.7-3.3,1.5-4.2,3.6-1.4,3.6s2.1-.1-.4,7.8c-3.2,10.1-4.1,11.4-7.5,11.4s-4.4.8-6.3,1.7c-2.6,1.3-4.2,1.6-6.9,1.2-4-.6-5.9.8-3.5,2.5,2.1,1.6.7,2.1-4.1,1.5-2.4-.3-5-.3-5.8,0-1.3.5-1.3.6,0,2.1,1.4,1.5,1.3,1.6-.2,2.4-.9.5-2.4.6-3.4.4-1.3-.4-2.3.1-3.5,1.7-.9,1.2-3.3,3-5.2,3.9-1.9,1-4.6,2.6-6,3.6-3.4,2.6-10.7,4.8-13.5,4.2-1.3-.3-2.9-1.5-3.7-3-1.9-3.3-4.5-3.8-10.1-1.7-2.6.9-6.8,2.5-9.3,3.4l-4.6,1.7-3.1-2.1c-4.2-2.9-5.5-2.8-4.8.4.7,3.2,0,3.2-5.9-.1-3.8-2.1-4.8-2.4-5.4-1.5-.5.8-.2,1.6.9,2.5,3.4,2.9.7,3.2-5,.6l-3.7-1.7-1.4,1.7c-1.7,2-2.4,2.2-2.4.4s2.6-6.5,6-9.8l3.3-3.2,6.8,1.5c9.7,2.1,24.2,1.9,31.2-.5,2.9-1,5.7-1.7,6.2-1.7s5.7-2.3,11.5-5.1c9.7-4.6,11.2-5.1,18.1-5.7,5.4-.4,8-1,9-2.1,1.3-1.3,1.3-1.5-.9-3.3-1.3-1-2.3-2.3-2.3-2.9,0-1.5,12.4-13.7,17.5-17.1,8.2-5.5,11-8.3,10.4-10.4-.3-1-1.1-1.8-1.8-1.8-2.7,0-2-2.6,2-7.3,5.1-6,6.5-8.5,7.6-14.7ZM1095.2,545.1c1.2.4,4.2,8,3.5,9.1-1.4,2.2-3.3-.3-4-5.4-.5-3.2-.3-4,.5-3.7ZM1092.7,309.3c-1,1.9-1.8,2.4-1.8,1.1s.6-1.2,1.4-1.9c1.3-1,1.3-1,.4.7ZM1101.7,321.4c3.6-4.3,5-7.3,4.5-9.6-.6-2.6-1.8-1.9-6.4,3.7-1.8,2.2-3.5,4-3.9,4-1.4,0-.7-3.1,1-4.6.9-.8,3-3.3,4.6-5.5,2.6-3.6,2.7-4.1,1.6-5.2-1.6-1.6-2.3-1.6-5.6,0-2.5,1.3-2.6,1.3-1.5,0,.9-1.2,1-2,0-5.1-.6-2.1-1.4-3.8-1.7-3.8-1.1,0-3.9,4.2-4.5,6.6-.6,2.7-2.4,4.6-3.7,3.8-1-.6.8-4.5,2.8-6.2,1.8-1.5,1.6-4.5-.3-6.3-2.1-1.9-3.5-.9-5.4,4.2-.8,2-1.7,3.7-2.1,3.7-1.5,0-1.7-1.7-.4-3.5,1.5-2.2,1.6-4,.4-6.8-.8-1.7-1.4-2-3.8-1.8-2.1.2-3.2-.2-4-1.5-1.2-1.8-.9-3.5.5-2.6.4.3,1.7-.5,2.8-1.7,2.1-2.3,4.5-2.7,7.1-1.3,1.1.6,2.1.6,3.2-.1,2.1-1.3,4.3-.4,4.3,1.7s.5,1.7,1.7,1.7,1.7-.6,1.7-1.2c0-2,2.5-1.4,5,1.2,1.3,1.4,3,2.5,3.9,2.5s2.3.5,3.2,1.2c1.3,1,1.4,1.4.5,2.5-1.6,1.9-.4,3,3.2,3s4.9,1.2,2.5,2.5c-2.9,1.6-2.1,3.3,1.6,3.3s3.5.4,4.2,1.6c.7,1.3.5,1.8-.9,2.6-2.4,1.3-1.6,2.9,1.3,2.9s3.8,2.5,1.6,4.1c-1.5,1.1-1,3.1.7,2.9,2.3-.3,3,.2,3,2.2s-.5,2.1-1.1,2.1-1.6.5-2.1,1.1c-1.4,1.7.5,3,3.7,2.5,3.2-.5,3.8.7.9,2-1,.5-3.6,2.4-5.7,4.3-3.4,3-4.1,3.3-6.4,2.7-2.3-.7-2.7-.4-5.6,3.4h0c-1.7,2.2-3.6,4.1-4.3,4.1-1.3,0-1.5-1.3-.3-2.1.5-.3.8-1.5.8-2.8,0-2.2,3.9-9.3,5.7-10.5,1.3-.8,1.2-3.8-.1-3.8-.6,0-3.3,1.9-6,4.2-6,5-7.3,3.7-2.2-2.3ZM1108.3,345.4c-2.4,1.5-3.4.1-1.2-1.7.9-.7,1.3-.7,1.8,0,.3.5,0,1.3-.6,1.7ZM1074.3,356.7c0,.5,1.5,1.5,3.3,2.2,1.8.7,3.3,1.9,3.3,2.6,0,1.5-2.1,1.6-5.5,0-3.4-1.5-4.1-2.8-2.5-4.5.7-.7,1.4-.9,1.4-.4ZM1042.7,359.4c-.5,0-.8-.7-.8-1.7s.4-1.7.8-1.7.8.7.8,1.7-.4,1.7-.8,1.7ZM1046.9,365.2c-.4,0-.8-.4-.8-.8s.4-1,.8-1.3c.5-.3.8,0,.8.8s-.4,1.3-.8,1.3ZM1052.6,370.6c-.6.6-1.5-.4-1.5-1.5s.4-.5,1,.1c.5.5.8,1.2.6,1.4ZM1145.6,449.5c-2,4.4-3,5-3,1.9s3.6-7.1,4.4-6.3c.2.2-.4,2.2-1.4,4.4ZM1147.5,435.5c0,2.7-2.8,7.1-5.1,7.9-1.3.4-2.9,2-3.6,3.4-1.3,2.6-3,3.4-2.9,1.5,0-.6.6-2,1.2-3.1,1.8-3.2,1.5-4-1.7-4s-3.1.4-4.2,2.9c-.7,1.6-1.2,3.6-1.2,4.5h0c0,1.7-1,1.9-3.9.7-2.5-1-5-9.3-3.7-12.2,1.2-2.5,1.2-3,0-2.3-1.8,1.1-4,7.3-3.2,8.8.6,1.2.5,1.5-.9,1.5s-1.7-.6-1.7-1.5-.6-2.3-1.3-3.4c-1-1.4-1.2-3.1-.9-6,.5-5.3-.9-5-2.8.6-1.4,4-1.4,4-2.3,2-.5-1.1-1.3-3.6-1.7-5.4-.5-2.2-1.5-3.6-2.7-4.2-2.2-.9-3.3-5.4-2.2-8.6.8-2.2-.4-5.1-1.3-3.6-1.1,1.7-2,1-3.4-2.7-.8-2.1-1.2-4.4-.8-5.5.4-1.3.1-2.1-1.1-3-1-.7-2.1-3-2.7-5.5-.6-2.6-2.2-5.8-3.8-7.8-2.4-3-2.8-4-2.8-8s-1.3-7.1-4-5.7c-.9.5-1.8,1.2-1.9,1.6-.1.4-1.7,1-3.4,1.3-2.9.5-3.1.4-3.1-1.6,0-2.9-2.2-3.5-4.5-1.3-1.8,1.7-2,1.7-3.3.5-.7-.7-1.4-2.5-1.4-3.8,0-2.7-.9-3.1-2.5-1.2-.9,1.1-1.2,1.1-2.6-.1-.9-.8-1.6-2.2-1.6-3.1,0-2.5-1.2-4-2.7-3.4-.9.4-1.8-.3-2.8-2.3-.8-1.5-2-3.2-2.7-3.7-1-.8-1.1-1.4-.3-3.7,1.1-3.1.2-5-2.5-5s-1.5-.5-1.4-1.8c.2-1.4-1-2.8-3.4-3.8-.2,0,1.3-4,2-5.1.4-.8,5.3,3,5.3,4.1,0,1.1,1.6,2.4,3,2.4s.4-1.1.4-2.4c0-2.8,2.3-5.6,3.5-4.3s.5,1.9-.2,3.8c-.5,1.6-.7,3.3-.5,3.8.8,1.3,2.7,1,3.3-.5.4-1.1.8-1.2,1.5-.4s2.6,1,4.6,1c3.8,0,4.2.4,2.4,2.4-1.8,2-2,4.5-.3,4.9.9.2,1.4-.2,1.4-1.1s.4-2.1.9-3c.7-1.3,1.1-1.5,2.1-.7,1.5,1.2,1.5,2.5,0,2.5s-1.6,1-2.2,2.1c-.9,1.6-1.6,2-2.8,1.6-.9-.3-3-.8-4.6-1.1-2-.4-3.4-1.4-4.6-3.2-1.9-3-4.6-3.6-4.6-1.1s3.9,5,5.4,5,2.2,1.4,4.1,3.1c2.1,1.8,6.3,4.2,10.1,5.6,8.5,3.2,17.5,3.3,24.6.1,6.7-3,13.5-10.7,19.3-21.8,5.1-9.9,12.2-16.2,18.3-16.2s3,.3,3.4,2.3c1.2,5.7,3.3,7.7,8.3,7.7s2.2.5,3.4,7.1c.2,1.4,1.8,5.1,3.4,8.3,2.7,5.4,4.9,8.9,11.1,17.5,1.3,1.8,7,7.7,12.7,13.1,9.3,8.8,10.8,10.7,15.3,18.7,7.4,13.1,10.5,24.2,10.5,36.5,0,8.4-.5,9.4-3.3,6.6-1.1-1.2-3.4-2.5-4.9-3-1.9-.6-2.8-1.4-2.8-2.5,0-1.7-2.3-2.2-3.8-.9-.4.4-3.1,1-5.8,1.3-5.9.6-6.6,0-9-6.3-2.1-5.7-3-6.2-8.4-4.6l-4.5,1.3v-2.2c.3-1.9,0-2.2-2.3-2.5-2.1-.2-3.2.5-6.9,4.3-2.4,2.5-4.3,5.1-4.3,5.8ZM1157.4,432.8c-.2.1-1.8,1.5-3.6,3.1-2.3,2.1-2.9,2.4-2.3,1.1,1.1-2.1,5.1-5.5,5.8-4.9.2.2.3.5,0,.6ZM1150.9,457.2c0-.2.7-.5,1.6-.7,1-.3,2-1.7,2.6-3.8.6-1.9,1.7-4.1,2.6-5.1.9-.9,1.6-2.1,1.6-2.7,0-2.2,6.6-8.1,8.9-8.1s1.6,1.3,2.2,2.8c1,2.3,2.4,3.4,8.1,6.2,3.8,1.8,8.5,3.7,10.3,4.2,5.6,1.4,15.7,3.4,17.5,3.4s2.8,1.4,4.4,3.5c3.3,4.2,3.1,5.6-1.1,14.3-3,6.1-3.2,9.4-.8,11.3,3,2.5,0,10.3-6.7,17.5-5.4,5.8-6.1,7.6-4.2,10.5,1.4,2.2,1.4,2.2-.8,3.9-7.2,5.5-14.1,11.8-17.2,15.4-1.9,2.3-4,4.2-4.5,4.2-1.4,0-5.1-4.2-5.8-6.6-.5-1.6-.4-1.9.7-1.5,1.8.7,3.8-.2,3.8-1.7s-5.2-7.7-6.9-7.7c-1.1,0-1.4.5-1.3,2.2.4,3.8-1.5,3-3.7-1.5-2.2-4.5-5.6-14.3-5.6-16s1.1-2,2.5-3.3c1.4-1.3,2.5-3.2,2.5-4.3s.8-2.3,2.5-3.2c4.8-2.5,2.4-4.6-2.9-2.5-3.4,1.3-5.4,1.2-5.3-.2,0-1.6,1.8-3,3.9-3.1,1.3,0,4.3-.8,6.7-1.6,3.2-1.1,4.4-1.9,4.4-3,0-1.9,0-1.9-3.9-.3-5.2,2.2-6.9,1.4-6.9-3s.3-1.5,1.5-.8c1.1.6,2.5.4,5.1-.8,2-.9,4.1-1.6,4.7-1.6s1.2-.8,1.2-1.7c0-2.2-1.7-2.1-7.9.4-2.7,1.1-5,1.9-5.1,1.9-.8-1.2-8.7-16.5-8.7-16.7ZM1092.8,506.6c3.3-1.8,6.8-5.4,7.9-8.1,1.1-2.7,1.4-2.8,4.3-2.4,5.1.8,13.8-2.7,18.8-7.8,2.3-2.3,4.6-4.2,5-4.2s2.4.8,4.4,1.8c3,1.5,4.7,1.7,9.8,1.4,6.8-.4,6.3-.9,6.6,6,0,2.1.4,6.9.8,10.8.8,7.7,1.3,8.8,8.6,17.6,6.3,7.6,6.7,8.1,12.2,13.9,4,4.2,4.7,5.4,3.7,6-1.9,1.2-5.6.9-6.1-.4-.5-1.4-3.9-1.7-3.9-.4s-.5.8-1.2.8-1.4.6-1.7,1.3c-.9,2.2-2.4.3-2-2.4.4-2.8-.8-7.2-1.9-7.2s-2.9,8.5-1.6,10.8c1.4,2.7.7,2.7-3.8.4-4.7-2.4-5.3-2.5-5.3-.9s3.5,3.8,5.4,3.8.8,1.4-2.1,2.4c-2,.7-3.1.5-6.4-1.2-4.7-2.4-5.2-2.5-5.2-.7s1.1,1.9,2.5,2.7c3.1,1.8,3.1,2.3-.1,3.4-4.3,1.5-7.6,1.1-11.9-1.6-5-3.2-7-2.1-3,1.6,4.3,3.9.3,4.2-7.2.4-5.2-2.6-8.7-2.1-5.2.6l2.1,1.7-3.1-.5c-8.7-1.3-8.7-1.3-10.9-5.4-2-3.7-2.1-5-.4-5s1.4,1.7,2.3,3.7c.9,2.1,2.2,3.8,3,3.8,1.8,0,1.6-2.5-.4-5-.9-1.1-1.7-2.6-1.7-3.3,0-.7-1-2.7-2.1-4.6-1.7-2.7-2.1-4.4-2.1-9.3s-1.2-10.2-2.5-10.2-2-3-3.8-6.7c-2.9-6-3.1-6.8-1.9-7.5ZM1090.3,513c.4.2,2.1,3.1,3.7,6.4,2.8,5.5,3,6.5,2.9,12.6,0,3.7-.5,7-.9,7.4-.9.9-1.2.3-2.6-7-.6-3-1.7-6.7-2.5-8.3-1.5-2.9-2-11.9-.6-11.1ZM1089.5,546.5l.3-3.6,1.1,3.6c.6,2,1,4.8.8,6.2l-.3,2.6-1.1-2.6c-.6-1.4-1-4.2-.8-6.2ZM1090.1,594.6c.5-1.9,1.7-5.3,2.7-7.5,2-4.4,1.4-6.3-1-3.1-1.1,1.4-1.6,1.7-1.6.8,0-1.5,2.4-3.7,4.9-4.5,1-.3,2.2-1.3,2.6-2.2,1-1.9,3.7-2.2,3-.4-.8,2.1,1.3,2.5,2.9.5,1.3-1.6,2.9-2,11.1-3,10.9-1.3,11.5-1.4,18.6-4.7,6.8-3.2,8.8-2.9,9,1.1,0,1.6,1.1,5.1,2.2,7.7,1.1,2.6,1.8,4.8,1.5,5-.3.2-2.5.5-4.9.6-3.1.2-4.8-.2-5.9-1.2-2-1.9-2.5-1.8-2.8.5-.3,1.9-1.8,2.2-2,.4-.3-2.9-.4-3.2-1.3-2.9-.5.2-1.4,1.6-1.9,3.1-.5,1.6-1.4,3-2.1,3.2-.9.3-1-.5-.6-3.6.5-3.3.4-3.8-.6-3-.6.5-1.9,2.8-2.9,5-1,2.2-2.4,4.3-3.1,4.6-1.8.7-2.6,0-1.3-1.4,1.3-1.3,1.3-4.8,0-4.8-.6,0-2,1.9-3.1,4.2-1.1,2.3-2.4,4-2.9,3.8-.9-.3-.9-.5,0-4.1,1-4.1-1.7-2.6-3.8,2.1-2.2,4.8-2.9,5.6-5.1,5.6-1.2,0-1.3-.5-.9-2.7.3-1.5.8-3.1,1.2-3.5,1.1-1.2.9-3-.3-3-1.7,0-4.8,5.3-4.8,8.2s-.5,2.9-1.3,3.2c-2.2.9-2.5-.5-.6-4.1,1-1.9,2-4.4,2.4-5.6.3-1.1,1.4-3.1,2.3-4.4.9-1.3,1.4-2.6,1.1-2.9-.9-.9-3.4,1-3.7,2.9-.1.9-1.4,2.9-2.7,4.5-2.4,2.7-3,4-3.4,8.2-.2,2-3.1,3.6-3.1,1.7s.4-.9.8-.9,1.2-1.6,1.7-3.5ZM1085.1,518.3c.4,0,.8,1.1.8,2.5s.6,2.8,1.3,3.2c.8.4,1.2,1.5,1,2.7-.3,1.8-.5,1.7-2.2-1.5-1.9-3.7-2.4-6.9-1-6.9ZM1027.7,436c0,2-1.2,2.7-2.3,1.4-1.1-1.3-1.6-3.8-.8-3.9,1.6,0,3.1,1.1,3.1,2.5ZM1025.6,428.4c.2.4,0,.9-.7,1.2-1.2.5-2.2,0-2.2-1.2s2.3-.9,2.9,0ZM1024.9,445.1c2.6,0,4.7,2.3,4.4,4.8-.4,3-1.8,3.1-4.7.2-2.8-2.8-2.7-5,.3-5ZM932.2,439c1.1,1,1.3,1.7.7,2.9-1.2,2.3-3.7,3.4-4.8,2.2-1.3-1.3-1.2-3.2.2-5,1.4-1.8,2-1.8,3.9,0ZM929.3,423.7c1.8,1.8.8,3.5-1.4,2.1-1.3-.8-1.8-.8-2.6,0-1.4,1.5-2.5,1.3-2.2-.4.4-2.2,4.6-3.4,6.2-1.7ZM921.6,434.2c-.8-2.4.6-3.5,3.7-2.9,2.7.6,3.3,1.9,1.6,3.6s-4.7,1.2-5.3-.7ZM807.3,419c-1.4.3-2.8.8-3,1.2-1.1,1.8-3.6.6-4.5-2.2-.5-1.6-1.7-3.5-2.7-4.1-2.3-1.6-1.4-6.2,1.8-9.9,2.3-2.6,2.4-2.6,4.1-1.1,2.1,1.9,5.5,8.9,6.3,12.8.5,2.5.4,2.7-2,3.2ZM880.2,377.2c-.7-1.9-.7-2,.7-1.5.7.3,1.2,1,1.2,1.6,0,1.6-1.4,1.5-2-.2ZM890.9,355.3c.3-.5.9-.8,1.3-.8s.8.4.8.8-.6.8-1.3.8-1.1-.4-.8-.8ZM849.5,328c5.1-5,12.5-10.7,19.6-15,3.1-1.9,6.3-4.1,7.2-5,1.4-1.4,3.2-1.6,13.1-2,6.4-.2,12-.2,12.6,0,1.3.5,1.5,11.5.2,12.3-.9.5-1.2,0-2-3.9-.3-1.2-1.2-2.5-2.2-2.8-2.1-.7-4.5,1.1-3.3,2.5.4.5.9,2.6,1,4.6.2,2.8,0,3.7-1.1,3.9-1,.2-1.5-.6-1.9-3.2-.8-4.7-2.8-9.3-3.8-8.7-.5.3-.7,1.9-.4,3.6.4,2.7.2,3.2-1.6,4-1.7.8-2.3.6-3.4-.6-2.7-3.2-4.8-1-2.2,2.3.9,1.2,1.7,2.5,1.7,2.9,0,1.2-4.7.8-5.8-.5-.6-.7-1.6-1.2-2.2-1.2-1.4,0-1.5,3,0,3.6.6.2,2.1,2.3,3.4,4.7,1.7,3.2,2.1,4.6,1.5,5.7-.9,1.5-.9,1.4-3-4.6-.2-.6-1.4-1.4-2.6-1.9-1.2-.5-3.2-1.6-4.5-2.5-1.9-1.4-2.5-1.4-3.2-.5-.7.9-.4,1.6,1.5,3.2,3.8,3.2,4.5,5.2,2.6,6.9-1.6,1.4-1.7,1.4-3.9-.6-3-2.8-5.9-4.2-7.3-3.7-1.4.5-.7,3,.8,3s7.7,5.5,8.8,7.6c.5.9.6,1.6.2,1.5-2.9-.4-5.3-1.5-7.7-3.3-3.9-2.9-6.5-3.7-7.7-2.2-.8,1-1.6.6-4.5-2.5l-3.6-3.7,4-3.9ZM860.5,344.5c0,.9-2.5,1-3.8.1-1.4-1-2.1-3.5-.9-3.5s4.7,2.4,4.7,3.4ZM756.3,408.3c.6-5.2,3.7-13.8,6.8-18.8,4.7-7.7,18.3-21.6,28.8-29.4,2.9-2.1,12.3-8.2,14.7-9.4,3.6-1.9,14.3-10.2,18.6-14.5,3.5-3.5,5.2-4.1,5.9-2.1.6,1.5,5.3,2.9,9.6,2.9,4,0,7.1,1.4,7.6,3.6.6,2.3,0,2.7-5,3.7-2.9.6-5.2.6-7.4,0-3.6-1-5.5-.5-5.5,1.3s-.8,1.3-2.1,1.3-2.1.4-1.9,1.4c.2,1.2,1.4,1.5,7.3,1.7,3.9.1,8,0,9.2-.3,2-.5,2-.6-.8-1.8-3.3-1.4-2.5-2.2,3-3,3-.5,3.7-.3,5.1,1.5,1.3,1.7,2.5,2.1,7.3,2.4,4.3.3,6,.8,6.8,1.9,1.6,2.1,5.2,9.2,5.2,10.2s-1.2,1-2.7,1.3c-3.2.6-6,2.5-5.3,3.6.6,1,10.1-.8,13.5-2.6,1.4-.7,2.8-1.9,3-2.5.3-.7,1.5-1.4,2.7-1.7,1.9-.5,2.6-.2,4,1.6l1.7,2.2,5.4-1.7c6.5-2.1,15.8-3.2,15.8-1.8s-.3,1.1-.8,1.4c-.4.3-1,2.3-1.3,4.6-.7,5.4-2.9,5.8-4.6.8-1.9-5.7-3.4-3.3-2,3.1.3,1.5,0,2-1.8,2.4-2.4.6-3.2-.3-5-5-1.2-3.4-3.3-4-2.5-.8,2.3,9.2,1,10.4-5.5,4.8-2.4-2-4.8-3.6-5.2-3.4-.5.2-.8,1.7-.8,3.3.1,3.5-.8,3.9-2.7.9-1.6-2.4-4.5-2.8-4.5-.6s.8,2.2,1.9,3.1c3.6,3.1-.6,2.3-6.1-1.2-6.3-4-8.9-4.5-6.7-1.2.8,1.2,11.4,7.8,12.5,7.8,1.8,0,3.6,2.6,3,4.5-.8,2.6-2.9,4.7-4.6,4.7s-1.5.6-1.5,1.8-.2,1.6-1,.9c-1.2-1.2-4,.1-4,1.8s-3.9,6.3-5,6.3-.9-.8-1.2-1.9c-.5-1.7-.6-1.6-2.4,1.4-2.1,3.7-4.5,5.1-3.7,2.3.8-3-.9-2.9-2.8.3-1,1.6-2.5,3.4-3.4,3.9-1.4.8-2,.5-3.4-1.3-1.9-2.3-3.4-2-4,.7-.6,3.2-1.9,1.3-3.9-5.6-1.1-3.8-3.3-8.9-4.9-11.4-3-4.8-9.2-11.7-10.4-11.7s-.7,3.1,1.1,4.7c4.9,4.4,12.3,16.9,12.3,20.8,0,.9,0,2.1.2,2.8.6,3.8-.1,5.9-2.3,6.7-3,1.2-4,0-4.2-5.1-.2-4.6-2.2-10.6-5.1-15-2-3-7.8-7.4-9.8-7.4s-1.9,1.6,1.5,3.8c4.1,2.8,5.8,4.6,8.1,9,2.1,3.9,3.6,14.6,2.3,16.1-1.5,1.8-2.9,1.2-4-1.6-.6-1.5-1.7-4.2-2.6-6.1-.9-1.9-1.6-3.7-1.6-4,0-.8-4.3-7.3-6.4-9.6-1.5-1.7-1.9-1.8-2.3-.7-.4,1.1,3.8,9.4,5.5,10.7.9.7,2.9,5.1,4.1,9,1.1,3.3,1,3.7-.4,4.8-3.1,2.3-4.2,1.4-6.7-5.7-1.7-4.9-6.9-12.2-9.8-13.6-2.3-1.2-2.5-1.1-4.4.9-2.5,2.7-2.9,2.7-5.9,0-3.3-2.8-5.8-2.6-9.1.6-2.6,2.5-3.1,2.7-7.8,2.5-3.9-.2-5,0-4.7.8.2.6,1.4,1.2,2.6,1.4,2.9.4,2.8,1.1-.7,4.2-3.2,2.8-7.9,5.4-11.4,6.2l-2.2.5.5-4.4ZM781.8,400.3c-.3-1.1.2-1.9,1.4-2.6,1.5-.8,2.2-.6,4.7,1.3l2.9,2.2-1.9,2c-2.2,2.3-8.2,2.9-8.2.8s.3-1.4.7-1.7c.4-.3.6-1.2.3-2.1ZM780.2,409.3c-.3.4-1.1.8-1.8.8s-1-.4-.7-.8c.3-.5,1.1-.8,1.8-.8s1,.4.7.8ZM766.4,479.3c1.4,2.2,1.4,2.1-2.6,4.5-5.4,3.2-8.7,2.8-13.5-1.4-5-4.4-9.6-14-11.7-24.3-.8-4-2.1-8.1-2.9-9.1-1.4-1.8-1.4-1.9,1-3.9,3.1-2.6,4.8-9.2,3.9-15.8-.3-2.5-.8-6.3-1.1-8.5l-.5-3.9,2.7.8c6.7,2,16.7.3,25.7-4.3,3.9-2,3.8-2,4.4.5.3,1.2,1.5,3,2.7,4.1,1.7,1.6,1.9,2.2,1.2,3.6-1.8,3.3-.8,3.7,2,.9,1.6-1.6,3.3-4,3.9-5.4,1-2.8,5.5-6,6.7-4.7.4.4.9,3.3,1,6.5.1,3.1.9,7.8,1.7,10.4,2.1,6.5,1.3,11.5-2.3,14.4-6.2,4.8-8.9,7.9-10.8,12.3-1.1,2.6-2.6,4.9-3.2,5.1-.6.2-3,4.1-5.3,8.5-3.5,6.8-4,8.3-3.1,9.7ZM774.5,470.5c-.3,3.6-1,6.8-1.6,7.2-3.6,2.3-4.6-2-1.9-8,3.3-7.1,4.2-6.9,3.5.8ZM829.8,532.5c-1.6-1-.8-9.5,1.6-16.6,1.7-5.1,1.7-5.3.2-6.4-1.3-1-1.6-.9-2.5.7-.5,1-1.8,5.4-2.8,9.7-1,4.3-2.2,8.2-2.5,8.7-1,1.1-5.9-1.2-5-2.3.4-.5,1.4-3.5,2.2-6.8.8-3.2,1.8-6.6,2.3-7.5,1.5-2.9,2.2-7.9,1-7.9s-1.4.5-1.9,1c-1.5,1.8-6,16.4-6,19.3v2.7l-6.5.7c-3.5.4-8.1.7-10.2.7h-3.8c0,0,.3-3.2.3-3.2.4-5.5-1.9-9.4-7.3-12.1-4.7-2.4-16.2-6.1-21.9-7.1-1.7-.3-3.1-.8-3.1-1.1,0-1.1,10.8-12.2,10.8-11.1s-.6,2.4-1.3,4.1c-1.3,3-1.1,5.2.3,5.2s4.7-5.4,6-7.9c.2-.5,1.5-2.5,2.8-4.5,3-4.6,4.9-13.8,4.5-21.1-.2-3.1-.6-5.9-.8-6.1-.6-.6-1.4,2.7-1.3,5.1,0,1.9-3.1,9.8-5.3,13.1-.8,1.2-1.4,2.8-1.4,3.5,0,1.5-2.3,6.2-3,6.2s-.2-.6,0-1.4c.3-.8.7-2.8.9-4.4.2-1.6.7-3.3,1.2-3.7.4-.4.8-2.1.8-3.8,0-5.1,2.3-15.7,4.2-19.9,1.2-2.7,4.4-6.6,9.3-11.4,4.1-4,8.4-8.7,9.6-10.5,2.3-3.5,2.9-3.8,4.4-2,.8,1,.4,1.8-2.4,4.3-3.4,3.1-4.5,6.1-2.2,6.1s1.2-.4,1.2-.8,1.7-2.1,3.8-3.7c3.1-2.4,4.2-2.8,5.4-2.1,2.2,1.2,2,2.1-.8,3.2-1.3.5-2.8,1.9-3.3,3-1.2,2.7-1.2,2.8.4,2.8s6.1-4.6,6.1-5.9.7-.4,1.7.1c2.1,1.1,2.1,3.1,0,3.7-1.9.6-5,4.3-5,5.9s1.9,1.2,5.1-1.9c2.6-2.6,3.3-2.9,4.4-2,1.8,1.5,1.6,2.4-1.2,4.7-2.6,2.2-3.3,4.4-1.5,4.5.6,0,2.1-1.2,3.3-2.7l2.2-2.7,3.4,3.4-2.9,3.4c-1.6,1.9-2.9,3.6-2.9,3.9,0,1.2,1.7.3,4.6-2.4,3.6-3.3,3.6-3.3,5.8-1.8,1.5,1.1,1.5,1.3-1.1,4.3-1.5,1.7-2.5,3.3-2.2,3.6.3.3,1.2-.3,2.1-1.3.8-1,1.8-1.9,2.2-1.9s1.2-.5,2-1.2c.7-.6,3.3-1.3,5.7-1.4,4.5-.2,5.9.6,5.9,3.5,0,2.4,3,4.8,9.8,8.3,6.6,3.3,10.6,6.8,9.6,8.5-.3.5-.4,3.4-.4,6.6.1,5.4,0,5.8-1.5,5.3-1.7-.5-3.6.9-5.1,3.8-.5.9-1.7,1.6-2.9,1.6-2.5,0-3.7,2.1-3.1,5.2.3,1.8-.2,3-2.5,5.5-3.8,4.2-5,6.4-4.3,8.4.5,1.5.2,1.6-3.1,1.1-4-.6-6.2.9-5.4,3.8.2.9-.7,3.9-2,6.7-2.5,5.2-2.8,5.5-4.8,4.3ZM780.7,485.1c0-.5.4-1.1.8-1.3.5-.3.8-.1.8.3s-.4,1.1-.8,1.3c-.5.3-.8.1-.8-.3ZM853,509.9c0,1.2-4.1,5.6-4.1,4.4,0-.6.3-1,.7-1s1-.9,1.3-2.1c.5-2,2.2-3,2.2-1.3ZM838.4,532.1c-.3,1.6-.9,2.9-1.3,2.9-.9,0-.9-5.3,0-8.3l.6-2.1.6,2.3c.3,1.3.4,3.6,0,5.2ZM786.7,624.6c-.7.2-.8-1.8-.5-7.6.4-7,.3-7.9-.9-7.9s-1.4,1-1.4,6.2c0,7.9-.9,10.5-3.7,10.5s-2.9-1.9-1.3-2.9c.4-.3,1.3-2.2,2-4.4,1.7-5.1.8-9.7-1.8-10-2.1-.3-2.3.6-.9,4.4.5,1.4.7,3.9.4,5.6-.6,3.1-4.2,7.7-5.4,7-.4-.2-.5-2.8-.3-5.7.2-2.9.3-7.9.3-11.2v-5.9c0,0,2.9-1.4,2.9-1.4,9.7-4.6,19.3-5.8,27-3.4,4.7,1.5,18.2,7.4,27.5,12.1,14.4,7.3,16.7,8.4,17,8.4s.5-.8.8-1.8c.5-1.9,0-1.9,8.9.4,2.5.7,5.7,1.5,7,1.8,1.5.3,2.1.8,1.5,1.2-1.1.7-1.2,3-.5,8.1.3,1.9.1,3.7-.3,3.9-1.4.8-1.9-.4-1.9-4.8s-1-6.3-3.5-6.3-2.2-.4-3.1-1c-2.3-1.5-2.7-.5-1.6,3.8,1.1,4.1.7,5.2-1.4,4.4-1.1-.4-1.2-1.2-.8-4.1.4-2.7.2-3.8-.8-4.7-1.7-1.4-2.4.1-2,4.6.2,2.9,0,3.2-1.8,3.2s-2.3-.8-1.5-5.8c.5-2.9-2-1.9-3.1,1.2-1.4,4.1-4.2,4.1-4.2,0s-1.8-4.2-3.4-.5c-1.2,3-1.4,3-5.2,2.8-3.5-.2-4-.5-4.2-2.3-.4-2.9-1.6-4-2.3-2-.3.9-.9,2.1-1.4,2.6-1.2,1.5-3-.3-2.5-2.4.4-1.7-1.2-3.5-2.5-2.7-.4.2-.7,1.5-.7,2.8s-.4,2.4-2,2.7c-2.7.5-4.1-.5-3.4-2.5.9-2.8-1-2.9-2.4-.2-1.4,2.7-5,4.2-6.5,2.6-.7-.7-.6-1.6.5-3.5,1.8-3.1,1.8-4,.2-4s-2.4,2-3.3,6c-.4,1.9-1,2.3-4.2,2.8-5.5.8-6.2.4-5.3-3.9,1.2-6,.9-10.7-.5-10.7s-1.3,1.2-1.3,5.2c0,6-.8,9.1-2.2,9.5ZM862.1,643.1c.5,0,.9.4.9.8,0,.9-1.7.9-5.4,0-1.4-.4-3.9-.7-5.6-.7-1.7,0-4.5-.7-6.2-1.5-1.7-.8-5-1.8-7.2-2.4-2.3-.6-6.8-1.8-10-2.8-8.7-2.7-22.1-5.8-25.3-5.8-1.6,0-2.6-.2-2.4-.4,1.5-1.5,21.9,0,31,2.2,1.8.5,5,1.1,7.1,1.5,7.2,1.3,12.8,3.3,17.5,6.2,2.6,1.6,5.2,2.9,5.7,2.9ZM859.8,624.8c.4,0,.8,1.1.8,2.5,0,2.5-1.1,3.3-2.1,1.6-.7-1.1.3-4.1,1.3-4.1ZM814.4,687.1c.7-3.1,1.7-2.3,2.5,1.9.6,3.3-.3,4.1-2.1,1.9-.6-.8-.8-2.2-.4-3.8ZM848.9,752.9c.5,0,.9.9.9,1.9s-.5,2.7-1.2,3.5c-1.1,1.5-1.2,1.5-1.8.1-.7-1.7.8-5.6,2.1-5.6ZM852.8,769.5c-3.3-.5-6.8-1.2-7.9-1.7l-1.9-.7,1.9-2.9c1.2-1.8,2.2-2.6,2.7-2.1,1.6,1.6,3.6.8,4.5-1.7.5-1.4,1.3-2.5,1.8-2.5s.7.6.4,1.5c-.3.8-.8,2.5-1,3.8-.4,2-.2,2.3,1.1,2.1,1.2-.2,1.8-1.6,2.6-5.7,1.2-5.8.4-8.4-1.7-5.5-1.1,1.5-1.2,1.5-1.7-.3-.3-1-.3-2.2.1-2.6,2.5-2.5,20.3-.8,23.8,2.3,2.7,2.4,4.1,6,5.8,14.4,1.5,7.4,1.5,8,.2,8.7-.8.5-4.4,2.8-8,5.2-7.9,5.2-10,5.6-4.8,1l3.8-3.3-4.3,2.1c-2.4,1.2-6.1,3.8-8.3,5.9-4.6,4.3-7,5.1-4.7,1.5,1.6-2.6,6.7-7.6,9-9,.8-.5,1.4-1.4,1.2-2-.4-1.2-3.1.9-12.3,9.7-4.1,3.9-6.1,5.2-7.8,5.2h-2.4l2.7-3.1c1.5-1.7,4.1-4.5,5.9-6.2,3-2.9,4-4.8,2.6-4.8s-2.7,2-5.2,4.4c-6.3,6.1-12.5,10.3-14.6,9.9-2.7-.6-3.2-1.6-1.2-2.7,2.4-1.3,11.9-8.4,12.6-9.5,1-1.4,0-1.6-1.6-.3-.8.7-4.6,3-8.3,5.2-3.8,2.2-6.9,4.3-6.9,4.7,0,1.1-2,.9-3.8-.4-1.5-1.1-1-1.4,6-4.7,4.2-2,8-4.3,8.6-5.2,1.4-2.3.6-2.5-1.8-.6-1.2.9-5.1,2.8-8.7,4.2-3.6,1.4-7,2.8-7.6,3-2.6,1.1.3-2.5,3.2-4,3.3-1.7,4.3-3.3,1.9-3.3s-3.2,1-5.5,2.2c-3.6,1.8-4.5,2-6.2,1.1-2.1-1.1-3.5-4.5-3-6.8.2-1.2.8-1.3,2.5-.8,3.5,1,11,.4,14.3-1.2,3.7-1.8,6.1-1.7,15.8.4,11.4,2.5,16.6,2.3,16.6-.7s-3-3.2-10.2-4.3ZM839.6,752.1l-.3,9.3-3,2.6c-1.7,1.4-5.1,3.3-7.6,4.1-7.3,2.4-9.2,2-12.8-2.3-3-3.6-3.3-3.8-7.6-3.8s-5.8-.6-7.4-1.2l-3-1.3.5-6c.4-5.8,3.8-15.5,5.3-15.6,6.3-.3,9.6-.9,12.7-2.3,2.1-.9,6.4-1.9,9.7-2.2,5.8-.5,6.1-.4,8.8,2,4.3,3.7,4.9,6.1,4.6,16.7ZM829.8,715.6c1.1,1.7.9,2-2.2,3.4-2,1-2.7,1.8-2.4,2.7.3.8,1,1.1,1.9.7,2.3-1,5.1-1.4,5.1-.8s-.4,1.3-.9,2.2c-.9,1.7-4.5,2.2-5.4.7-.3-.5-1.6-.7-3-.4-3.1.6-15.9-5.4-18-8.6-2.7-4-3.7-7.5-3.2-12,.5-4.4,3.8-13.9,5-13.9s1.4,1.5,2.5,3.3c2.5,4.4,5.7,6.2,9.6,5.5,3-.5,3.1-.4,4,2.4,1,3.2.8,3.8-1.5,3.8s-1.5.6-1.5,1.4c0,2.6,1.5,4,4.3,4s3.8,2,.9,3.3c-1,.5-1.9,1.5-1.9,2.3,0,1.8.3,1.8,3.5.1,2.1-1.1,2.7-1.1,3.3-.2ZM850.4,689.7c-2,0-1.9-.9.5-6.3,2.2-4.8,2.6-7,1.3-7s-1.4.8-2.1,1.8l-1.3,1.9v-2.3c0-3.9-1.8-2.1-4.3,4.5-1.3,3.4-2.7,6.3-3.2,6.5-.4.2-.8.8-.8,1.5,0,1.8-1.5,1.4-2.1-.6-.3-1-.4-4.2-.3-7.3.2-3.2,0-5.6-.5-5.8-1.4-.5-2.8,4.9-2.9,10.5,0,5.3-.9,6.5-3.2,4.2-1.2-1.2-1.3-8-.2-11,1.1-2.8-.3-3.6-2-1.2-.8,1.2-1.3,3.7-1.3,7,0,5.2-.5,6.5-2.3,5.4-.7-.4-.9-2.5-.6-6.2.6-8.6,1.7-11.6,5.4-15,2.9-2.7,3.8-3,7.8-3s5.1.5,7,1.9c1.4,1,4.8,3.5,7.5,5.4l5,3.5-1.7,4.4c-1.9,5.1-3.7,7.3-5.8,7.3ZM860.5,684.3c-.6,1.2-1.6,2.1-2.3,2.1s-1-.3-.7-.7c.2-.4.8-1.8,1.3-3,.7-1.8,1.1-2.1,1.8-1.4.7.7.7,1.5-.2,3ZM862.9,671c-.3,1.3-.6,1.2-2.8-.7-2.2-1.9-2.3-2.2-1-2.7.9-.4,2-.1,2.8.7.7.7,1.1,1.9,1,2.7ZM866.1,656.1c-.3.3-.6,1.4-.6,2.5,0,1.6-.4,1.9-2.8,1.9s-2.9-.4-3.1-1.7c-.4-2.4-1.7-2.2-3,.3-.6,1.3-1.8,2.2-2.8,2.2-1.4,0-1.6-.4-1.4-3,.4-4.1-1.5-4.7-2.3-.7-.6,3.4-1.1,3.9-3.5,3.3-1.1-.3-1.9-1.4-2.2-2.9-.6-3.2-3.9-3.5-3.9-.4s-3.1,2.9-3.5-.1c-.3-2.8-2.3-3.6-2.9-1.2-.5,2-3.6,2.4-3.6.6s-1.6-2.4-3.2-1c-1.8,1.6-5.1.9-5.1-1.1s-1.9-3.6-2.8-2.8c-.3.3-.5,1.4-.5,2.5,0,2.1-2.1,3.5-3.4,2.2-.7-.7-1.4-3.5-1.5-6.8,0-2.2-1.3,0-2.1,3.9-.7,3.4-1.1,3.9-2.9,3.9s-2-.4-1.8-1.2c.2-.7.5-2.8.7-4.8.6-5.4-1.2-4.4-2.3,1.2-1.3,6.8-1.4,6.9-3.8,6.9s-2.1-.3-1.6-1.9c.3-1,.6-2.1.6-2.3,0-4.5-.3-7.6-.8-7.2-.3.3-1.2,3.1-1.9,6.1-1.2,5.1-3.2,8.1-4.6,6.7-.3-.3,0-2.5.8-5,.8-2.7,1-4.7.5-5.2-.7-.7-1.6.7-2.8,4.7-.3.8-1.2,1.5-2.1,1.5s-2.4,1.1-3.4,2.5c-1.3,1.8-2.5,2.5-4.3,2.5-2.8,0-2.8.7-.8-9.6.5-2.7,1.2-6.4,1.4-8.2.4-2.9.9-3.4,5-5.3,3.8-1.7,5.8-2.1,12.2-2.1,4.2,0,10.1.5,13.1,1.2,7.7,1.8,16.6,4.5,17.8,5.4,1.9,1.6,12.2,5,18.6,6.2,7.3,1.3,13.5,1.8,22.9,1.8s6.4.1,6.9,1.9c.3,1,.1,2.5-.3,3.2-.7,1.2-.8,1.2-1.3-.1-.4-1.2-.8-1.2-1.8-.4-.7.6-1.2,1.6-1.2,2.2,0,1.3-3.2,2.8-4.8,2.2-.6-.2-1-1.1-1-1.9,0-1.7-2-3.6-2.8-2.8ZM874.5,627.7c-.2-6.7-.3-6.6,2.3-7.4,1.6-.5,1.8-.1,2.3,3.3.9,6.6.6,9.4-1.5,14.1-1.7,3.7-2.4,4.5-4.2,4.5s-2-.3-1.6-2.3c.3-1.3,1.1-3.2,1.7-4.2.8-1.3,1.1-3.8,1-8.1ZM871.6,634.6c-1.2,4.5-4,.5-4.2-6,0-2.8-.3-5.8-.4-6.7-.2-1.2.2-1.7,1.5-1.9,1.5-.2,1.9.4,2.7,3.5,1,4.1,1.2,8.2.4,11.1ZM892.6,682.7c-.9.7-2.4,1.2-3.4,1.2-1.4,0-1.7-.4-1.4-2.3.2-1.3,0-3.8-.4-5.6-.6-3-1-3.3-3.2-3.3s-2.4.3-2.3,2.1c.6,6.4.6,9.1-.2,8.9-.5-.1-.7-.6-.6-1,.1-.5,0-2.8-.3-5.2-.4-3-.9-4.4-1.7-4.4-1.3,0-1.4,0-1.4,7.6,0,5.5,0,5.5-2.5,6-4.7.9-6.6.6-6.2-1,.2-.8.6-2.2.9-3.1.3-.9.7-3.7.9-6.2.3-3.7.9-5.1,3.1-7.3,3.3-3.4,6.8-3.6,11.8-.7,4.8,2.8,6,4.3,7.3,9,1,3.7.9,4.1-.5,5.2ZM884.1,627.5c0-6.5.1-8.6.9-8.6,1.3,0,2.1,4.8,1.2,7.1-.4.9-.3,2.3,0,2.9,1,1.6.9,5.4-.2,9.2-.8,2.5-1.4,3.2-2.9,3.2-2.3,0-2.4-.2-.5-3.1,1.2-1.8,1.4-3.9,1.3-10.8ZM890.7,646.4c.5.5,1.9.9,3,.9,1.2,0,3.1.7,4.2,1.6,2.5,1.9,5,2.2,5,.4s-1.5-2.8-3.4-4.7c-2.6-2.7-3.2-3.6-2.3-4.1,1.4-.9,2.4-.9,2.4-.1s1.5,2.9,3.3,5.6c1.8,2.7,3.3,5.3,3.3,5.6,0,.3-2,.6-4.4.5-2.4,0-5.3.2-6.3.5-1.1.4-2.4.2-3.1-.4-.7-.6-1.5-.7-2-.3-.4.4-.9,1.9-1.1,3.3-.2,1.4-.4,1.8-.5,1,0-.8-.9-2.2-1.7-3.1-.9-.9-2.2-2.7-2.9-4.1l-1.3-2.5,3.4-.6c2.1-.4,3.7-.2,4.3.4ZM888.6,640.1c1.1-2,3.7-2.3,3.3-.5-.1.8-1.1,1.5-2.2,1.7-1.6.2-1.8,0-1.1-1.2ZM893,634.7c0-.5.4-.6.8-.4.5.3.8.7.8.9s-.4.4-.8.4-.8-.4-.8-.9ZM885.5,659.7c0,.5-.4.8-.8.8s-.8-.4-.8-.8.4-.8.8-.8.8.4.8.8ZM900.1,674.5c-.7-1.7-1.3-3.4-1.3-3.8s-1.4-1.9-3.1-3.3c-2.1-1.8-2.8-2.8-2.2-3.4.6-.6,1.6-.5,3.3.4,1.3.7,2.9,1.3,3.5,1.3,1.3,0,3.6,4.4,3.5,6.8,0,1.1-.6,2.6-1.2,3.5-1.2,1.5-1.3,1.4-2.5-1.4ZM905.3,675.4c2-2.3.6-10.1-2.1-12.3-1.2-.9-2.8-1.7-3.7-1.7-1.9,0-2-1.3-.2-2,2.7-1.1,5.9-.5,7.7,1.4,2.3,2.4,2.5,10.3.3,14.7-.8,1.6-2.1,3-3,3.2-1.7.3-1.4-.6,1-3.4ZM909.9,684.5c-1.9,2.6-2.8,3-4.4,2-.9-.6-.4-1.2,2.1-2.8,3.8-2.5,4.6-2.2,2.3.8ZM912.1,687.2c-.5,0-.6-.4-.4-.8.3-.5.7-.8.9-.8s.4.4.4.8-.4.8-.9.8ZM925.4,679.2c-2,3-3.1,3.8-4.9,3.8s-2.3-.3-1.9-2.1c.4-1.9.2-2.1-2-1.9-2.7.3-2.5,1.2-1.5-9.9l.5-5.2,4.9,3.8c2.7,2.1,5.5,4.6,6.2,5.7,1.2,1.8,1.1,2.2-1.3,5.8ZM930.2,667.4c1.9,1,3.7,1.5,4,1.2.9-.9-2.1-3.7-4.6-4.3-3.7-.9-12.2-5.2-15-7.6-4.5-3.8-15.2-21.3-13.8-22.7.9-.9,6.1,5.9,9.2,11.7,3,5.8,7.8,10.4,13.7,13.2,5.4,2.6,18.7,7.4,23,8.3,2.4.5,4.4,1.3,4.4,1.7s-2.6.7-5.8.7-6.6.3-7.7.7c-5,1.8-6,1.7-9.2-1.1-3.8-3.4-3-4.3,1.7-1.9ZM1006,681.7c-.9-.3-1.7.3-2.5,1.8-1.5,3-3.4,3.7-3.1,1.1.4-3.1-1.9-2.4-3,.9-1.3,3.8-4.1,4.1-4.2.4,0-3.4-2.2-3.3-3.1.2-.6,2.1-1.1,2.7-2.7,2.7s-2.1-.4-2.1-2.7c-.2-7.7-3.4-9.7-3.5-2.3-.1,4.8-.8,6.6-2.5,6.6s-1-1.6-1-4.6c0-4.5-1.1-6.9-2.7-5.9-.4.3-1.1,2.9-1.4,5.9-.4,3.8-.9,5.4-1.8,5.4-1.4,0-1.5-.8-.4-3.7.5-1.4.5-2.3,0-2.6-.4-.3-.8-1.4-.8-2.4,0-1.9-2-3.5-2.8-2.3-.2.3-.6,2.7-.9,5.4-.4,3.2-1,4.8-1.7,4.8s-1.2-1-1.2-3.1c0-1.8-.7-4-1.6-5.2-1.4-1.8-1.7-1.9-2.2-.6-.3.8-.3,2.8,0,4.4.5,2.5.3,2.9-1.2,2.9s-1.7-.5-1.7-1.2c0-1.9-1.7-2.4-2.8-.8-1.3,1.9-3,.9-3-1.8s-2.2-2.6-2.8.1c-.4,1.6-1,2.1-2.4,1.9-1.1-.1-2-1-2.1-1.9-.5-2.8-1.7-3.3-2.7-1-1.5,3.3-9,4-11,1.1-1.1-1.7-.7-3,1.8-5.5,3.3-3.2,8-3.8,18.8-2.6,9.4,1.1,29.7.6,38.4-1,6.3-1.1,10.1-.2,14.4,3.5,1.6,1.4,2.3,2.3,1.5,2ZM962.4,670.2c1.8.3,3.5.7,3.7.9.8.7-4.6.2-5.8-.6-.9-.6-.3-.7,2.1-.3ZM992.2,668.3c.8-.2,1.9-.2,2.5,0,.6.2,0,.4-1.5.4-1.4,0-1.8-.2-1-.4ZM999.8,668.1c.7,0,1.5.4,1.8.8.3.5,0,.8-.7.8s-1.5-.4-1.8-.8c-.3-.5,0-.8.7-.8ZM1004.9,654.7c-.3.5-.7.8-.9.8s-.4-.4-.4-.8.4-.8.9-.8.6.4.4.8ZM1005.7,668.1c.2,0,.4.4.4.8s-.4.8-.9.8-.7-.4-.4-.8c.3-.5.7-.8.9-.8ZM1016.5,683.8c-.3-.5-.3-1.9,0-3.1l.5-2.2,1.6,2.4c.9,1.3,1.6,2.7,1.6,3.1,0,1-3.2.7-3.8-.3ZM1023.9,684.6c-.5-.7-1.5-3-2.2-5.3-.7-2.5-1.7-4.3-2.6-4.4-.7-.1-1.4.1-1.4.6s-.6.6-1.4.3c-.8-.3-1.8,0-2.5,1-1.1,1.5-1.3,1.4-3.7-1l-2.5-2.5,6.1-5.9c8-7.8,9-7.8,8.4-.2-.4,4.8-.2,6.7,1.4,10.7,2,5.3,2.1,8.9.3,6.7ZM1012.6,650.9c.6-.2,1.3-.2,1.6,0,.3.3-.2.5-1.1.4-1,0-1.2-.2-.5-.5ZM1020.2,649.8c.5,0,.9.4.9.8s-.2.8-.4.8-.6-.4-.9-.8c-.3-.5-.1-.8.4-.8ZM1025.2,631.3c-.3-2.4-.8-3.5-1.7-3.5s-1.4,1.3-1.7,5.3c-.3,4.3-.8,5.5-2.3,6.6-1.8,1.2-1.9,1.2-1.9-1.6,0-4-.8-6.6-2.2-6.6s-1.4,2.3-.3,7.1c.6,2.6.5,3.8-.5,5.2-1.6,2.5-2.8,2.4-2.8-.1s-1.5-6.3-3-6.3-1.4,1.9,0,8.7c.4,2,.1,2.9-1.6,4.5-2.2,2.1-2.5,1.9-3.2-1.9-.5-2.8-2.1-2.3-4,1.3-2,3.9-1.7,7.4.6,7.4s1.3.1.2,1.2c-.7.6-2.2,1.4-3.5,1.7-2.1.5-2.3.4-2.3-2.1,0-5.6-3.3-7.9-4.9-3.4-.5,1.4-1.3,2.5-1.8,2.5s-1.2.9-1.7,2.1c-.5,1.3-1.4,2.1-2.6,2.1s-1.7-.3-1.3-2.5c.7-3.6-1.5-3.3-3.7.4-.9,1.6-2.2,2.9-2.9,2.9-1.6,0-1.5-1.6,0-2.2,1.6-.6,1.7-4.5,0-4.5s-2,1.4-3,3.1c-1,1.7-2.4,3.6-3.1,4.2,0,0,0,0,0,0h0s0,0,0,0c-1.7,1.4-3.2,1.3-3.7,0-.5-1.3.9-3,2.5-3s1.1-.8,1.1-1.7c0-2.4-2.8-1.8-3.2.7-.1,1-.7,1.9-1.4,1.9s-1.5.6-2.1,1.2c-.6.7-1.6,1.2-2.2,1.2-1.3,0-1.6-3-.3-3.8,1.2-.7,1-4.6-.2-4.6s-3.1,1.8-3.1,3.9-2.2,3.6-5.2,3c-2.2-.4-3-1.5-1.5-2,.4-.1.9-1.4,1-2.7.4-3.5-1.6-3.7-3-.2-1.5,3.6-2.4,4.2-4.5,3.1-1.1-.6-1.7-1.7-1.7-3.4,0-2.9-1.2-3.2-3.2-.7-1.3,1.7-1.5,1.7-2.8.4-.8-.8-1.4-2.3-1.4-3.5,0-2,0-2-1.9-.8-2.5,1.7-3.7,1.6-4.2-.3-.6-2.3-4.5-4.7-5.8-3.6-.8.6-1.9-.1-4.2-2.8-2.5-2.9-3-4.1-2.6-5.7.5-1.9.3-2.1-1.6-2.1s-2.2-.5-2.4-2.3c-.2-1.7-.7-2.2-1.8-2.2-2,.2-4.6-2.8-4.6-5.3,0-2.2-1.4-3.2-2.8-2-.8.7-1.5.3-2.9-1.6-1-1.4-2.2-2.3-2.7-2-.5.3-1.9-.4-3.1-1.5-1.2-1.1-5.4-3.8-9.4-5.9-3.9-2.1-7.6-4.4-8.2-5.1-.6-.7-1.4-1.3-1.8-1.3-1.5,0-19.5-9.2-23.6-12.1-10.6-7.5-18.7-15.8-20.1-20.6-1-3.2-.9-3.6.9-5.1,3-2.6,5.5-7.9,5.5-11.6,0-1.8-.7-5.4-1.6-7.9-.9-2.5-1.6-4.8-1.6-5.1,0-.3,1.3-1,2.9-1.5,3.8-1.3,6.6-6.7,7.5-14.4l.6-5.6,3.9-2.1c5.2-2.9,9.1-7.7,9.4-11.6.1-2.3.8-3.5,2.6-4.8,4.5-3.2,8.8-9.6,9.4-13.9.5-3.8.7-4,4-5,8.9-2.7,14.5-7.8,16.7-15.3,1.2-4.1,1.6-4.7,3.4-4.7,2.8,0,11.8-4.2,15.1-7,1.5-1.2,3-3.5,3.5-5l.9-2.7h6.8c5.9,0,7.5-.2,11.6-2.3,2.6-1.3,4.8-2.6,4.8-2.9,0-.3.9-1.6,2-2.9l1.9-2.4,2.8,1.5c1.6.8,4.8,1.9,7.3,2.5,4.2,1,4.7.9,8.6-1l4.1-2.1,5.3,2.9c6.3,3.5,10.7,3.8,15.5,1.2l3.2-1.8,4,1.9c4.3,2.1,13.4,2.7,19.5,1.3,2.8-.6,3.1-.5,5.8,3.1,3.4,4.5,6.8,6.1,14.3,6.7,6.8.5,7.7,1,10.1,5.2,1.7,3,2.2,3.3,6.2,3.8,5.4.7,6.4,1.5,7.6,6.3,1.4,5.6,3.9,10.2,7.7,14.1l3.3,3.4-1.3,3.9c-2.6,7.6-1.2,10.5,7.4,15.9,3.4,2.2,6.3,4,6.3,4.1s-.6,1.8-1.3,3.8c-1.8,5.1-1,8.3,3,13.2l3.5,4.1-1.9,4c-3.1,6.4-1.8,16.5,2.5,20.9,2.1,2.1,2.2,2.5,1.3,5.2-1.7,5-2.3,10.8-1.2,12.1.8,1,.6,1.2-1.4,1.2-3.7,0-4.9,1.7-2.6,3.5,1.6,1.2,1.7,1.6.7,2.2-.6.4-2.4.6-4,.3-2.2-.4-2.8-.2-2.8.9s.3,1.4.6,1.4c.3,0,1.1.3,1.7.7.9.6.9,1.1.2,2.5-.8,1.5-1.4,1.7-3.8,1.3-3.2-.6-3.8.6-1.5,3.1,1.2,1.4,1.2,1.7,0,3.6-1.1,1.7-1.8,2-3.9,1.6-2.5-.5-2.5-.5-2,2.4.4,2.2.2,3.3-.9,4.4-1.4,1.4-1.5,1.4-2.7-.3-.7-1-1.5-1.8-1.9-1.8-1.3,0-.8,2.7.7,3.8,1.1.8,1.3,1.4.6,2.5-1.2,2-2.9,2.4-2.9.8s-2.1-2.4-4.6-.8c-1.3.9-2.1,2.1-2.1,3.2.3,3.3,0,4.6-1.4,5.9-2.1,2.1-3.1,1.6-2.5-1.4.6-3.1-.6-5.7-1.9-4.3-.5.5-.9,2.8-1,5.1-.1,3.6-.5,4.4-2.1,5.2-3.5,1.6-4.3,1.1-4.1-2.2.2-3.5-1.3-4.6-2.8-1.9-.7,1.3-.7,2.4,0,3.8.7,1.5.6,2.2-.4,3.2-1.9,1.9-3.7,1.6-3.7-.8s-1.6-3.6-3-1.8c-.8,1.1-.8,2.1-.2,3.7.7,1.9.5,2.4-1.5,4.1l-2.3,1.9-.4-3.5ZM1056.9,626.1c0,.8-.8,1.2-2.3,1.2-2.2,0-2.2,0-.7-1.2,2.1-1.6,3-1.6,3,0ZM1055.1,615.3c.8-.5,1.8.2,1.8,1.3s-.4.7-.8.7c-1.1,0-1.9-1.5-1-2ZM1055.6,640.6c-.3.5-.7.8-.9.8s-.4-.4-.4-.8.4-.8.9-.8.7.4.4.8ZM1055.9,651.6c2.3-.2,2.7,0,2.3,1.1-.3.8-.5,1.5-.5,1.7s-1.2.3-2.6.3c-3.8,0-3-2.8.8-3.2ZM1059.7,628.5c1.2-3.5,2.1-6.9,2.1-7.5,0-1.7,1.1-1.4,2.7,1,1.3,1.8,1.4,2.7.7,6.6-.5,2.9-.5,5.5,0,7.2.4,1.5.7,2.8.6,2.9-.1.1-1.5.4-3.1.7-2.7.5-3,.3-4-2-1-2.2-.9-3.2,1-8.9ZM1049.3,635.6c-.4,0-.5-.6-.2-1.2.3-.7.8-1.2,1.2-1.2s.5.6.2,1.2c-.3.7-.8,1.2-1.2,1.2ZM1050.1,654.5c-.2.8-1,1.6-1.8,1.8-1.1.2-1.4-.1-1.2-1.2.2-.8,1-1.6,1.8-1.8,1.1-.2,1.4.1,1.2,1.2ZM1046,638.1c0,.9-.4,1.7-.8,1.7s-.8-.8-.8-1.7.4-1.7.8-1.7.8.7.8,1.7ZM1035.7,641.9c-1.8,1.4-3,1.6-3,.5s2-1.8,3.6-1.7c.5,0,.2.6-.6,1.2ZM1029,663.6c-1.2,2-2.3,3.6-2.5,3.6s-.4-1.3-.4-2.9.6-3.5,1.8-4.6c3.7-3.4,4.2-1.5,1.1,3.9ZM1030.2,650.6c0-.4,1.8-1.8,4.1-3.3,2.2-1.4,4.5-3.1,5-3.8.5-.6,1.7-.9,2.7-.7,1.5.4,1.7.9,1.2,4.2-.3,2.1-.5,4.6-.5,5.7,0,2.3-.4,2.4-3.3.7-1.1-.6-3.7-1.4-5.6-1.7-2-.3-3.5-.8-3.5-1.2ZM1054.7,667.3c-1.8,3.5-1.5,11.4.5,14.7,1.8,2.9,1.1,3.6-1.1,1.2-.8-.8-1.4-2.9-1.4-4.5,0-4.3-1.3-7.4-2.9-6.7-1,.4-1.2,1.4-.8,5.2.3,2.6.9,5.1,1.2,5.5.4.4.7,1.3.7,1.9,0,1.3-.7,1.3-2.7.2-.8-.5-1.6-2.2-1.9-3.9-1.3-7.7-3.7-8.8-3.7-1.6s-.8,4.6-2.8.5c-1.1-2.3-3-3-3-1.2s-2.2,1.8-2.7.3c-.6-1.6,3.3-8.7,7-12.7,4.1-4.5,11-7.1,16.8-6.4,2.1.2,3.8.7,3.8.9s-1.3,1.4-3,2.5c-1.6,1.1-3.5,3.1-4.2,4.3ZM1064,682.8c-.7.7-3-3.5-3-5.6,0-1.7.3-1.5,1.7,1.6.9,2,1.5,3.8,1.3,4ZM1098.8,684.7c-.6,0-1.6.2-2.3.5-2,.8-1.6-1.5.9-5.1,2.1-3.1,2-5.2-.2-5.9-1.1-.4-5.7,9.3-4.9,10.5.4.6-.2.9-1.6.9s-2.4-.6-2.6-1.2c-.5-1.3,3.3-8.6,5.3-10,1-.7,1-1-.2-2-1.2-1-1.6-.8-3.6,1.1-1.2,1.2-3,4.4-3.9,7-1.9,5.4-2.1,5.5-9.9,4.3-5.4-.8-6.7-1.6-8.5-5-1.4-2.8-1.5-4.1-.3-4.1s3-1.8,5.5-4.1c6.6-5.9,11.4-6.9,21-4.6,6.8,1.7,9.9,4.4,10.1,9.2.2,3.4-2.7,8.6-4.8,8.6ZM1088.5,758.3c.5.3.8.7.8.9s-.4.4-.8.4-.8-.4-.8-.9.4-.7.8-.4ZM1072.1,761.2c.6,0,1.5.7,2.1,1.6,1.3,2.1,0,2.9-1.7,1-1.6-1.8-1.7-2.6-.3-2.6ZM1121.9,774.3c-.9,6.3-5.2,13-11.3,17.6-2.3,1.7-4.7,3.5-5.5,4.1-.7.6-4.1,1.6-7.4,2.3-6.5,1.4-6.9,1.4-14.7.5-11.6-1.4-19.8-5.1-25.5-11.8-2-2.4-4.1-4.8-4.7-5.3-.6-.6-1-1.4-1-1.8,0-.9,10.7-11.9,11.6-11.9s1.9.7,3.2,1.4c3.2,1.8,4.3.8,1.9-1.7-3.5-3.7-1.7-5.4,1.9-1.8,2.3,2.3,5.2,2.7,7.6.9,1.5-1.1,1.5-1.2-.3-3.4-3.1-4-2.2-5.3,1.3-1.8,1.7,1.7,3.8,3.1,4.6,3.1,2,0,1.8-.8-.8-3.5-2.9-3-1.8-4.1,1.2-1.2,1.3,1.2,2.8,2.2,3.3,2.2s1,.9,1,2c0,2.5-2.8,4.6-6,4.6s-3.7,1.3-2.4,2.8c1.3,1.6-1.6,2.9-9.1,4.2-4.3.7-6.2,1.4-6.2,2.2s1.1,1.3,3.1,1.4c2.3.2,3.1.6,3.1,1.7,0,2.1,2.5,6.8,3.8,7.3,2.2.8,2.8-.5,1.4-3.3-.7-1.5-1.7-3.4-2.1-4.2-.9-2-.2-3.1,2.2-3.1s1.9.5,2,2.7c0,3.4,2.6,9,4,9s1.4-1.7,0-3.8c-.6-.9-1.3-2.8-1.5-4.1-.2-1.4-.6-3-.7-3.7-.2-.8.4-1.3,1.5-1.5,1.4-.2,1.9.1,1.9,1.2,0,1.7,3.3,9,5.2,11.4.7.9,1.6,1.3,2.1,1,.6-.4-.1-2.5-2-6-2.9-5.6-3.6-10.1-1.8-11.8,1.8-1.8,2.9-1,3.9,2.7.5,2,1.3,3.9,1.7,4.2.5.3.5,1.1-.2,2.1-.8,1.3-.7,1.9.6,3.3,1.5,1.7,6.3,2.4,6.3,1s-2.3-5.3-3.2-5.8c-.4-.3-1.1-1.5-1.4-2.8-.5-2-.3-2.3,1.5-2.3,2.8,0,7.3-1.6,9.7-3.5,2-1.5,2-1.5,3.2.9.6,1.3,1.8,3,2.6,3.7,1.7,1.5,6.8.9,6.8-.8s-3-6.1-4.5-7.1c-.5-.3,1.1-.6,3.5-.6,2.8,0,4.5.4,4.8,1,.2.6,0,3.4-.3,6.2ZM1109.3,768.7c0-.5.6-.8,1.3-.8s1.1.4.8.8c-.3.5-.9.8-1.3.8s-.8-.4-.8-.8ZM1122.2,729.9c2.7,1.5,3.3,2.3,3.3,4.3s.2,2.5,3.2,2.5,5.8,2.1,5,4.2c-.3.9-.9.8-2.9-.1-1.5-.8-3.4-1-4.9-.7-3.1.7-3.3,2.9-.3,2.9s7.8,1.8,7.8,3c0,1.8-1.5,2.1-4.2.7-3-1.6-6.2-1.3-6.2.4s1.4,1.6,3.8,2.2c2.1.5,3.7,1.3,3.7,1.9,0,.5-.1,1.4-.2,1.8,0,.5-1.9.8-4.4.6-5.3-.3-6.3,1.3-2,3.2,2.6,1.1,2.9,1.5,2,2.5-.8,1-2.7,1.2-8.4,1.1l-7.3-.2-5.7,3.9c-7,4.8-8.1,5-7.8,1.3,0-.8-.2-1.6-.5-1.8-.4-.2-.4-3.2-.2-6.5.5-6.1.4-7.1-2.2-19.7-1.2-5.9-1.3-7.4-.4-10,1.2-3.4,4.4-9,7.4-12.7,3.6-4.5,7.8-2.5,11.3,5.3,1.9,4.4,4.3,6.8,10.1,10ZM1111.8,687.5c2.3.9,2.7.8,3.8-.6.7-.9,1-2.3.7-3.1-.4-1.1.5-2,3.7-3.6,6.1-3.1,7.8-2.8,10.4,1.6,1.2,2,2.2,3.8,2.2,4s-.9.2-2.1,0c-3-.6-2.6,1.2.8,3.2,3.1,1.8,3.9,4.1,1.4,4-.8,0-2.2-.6-3.1-1.2-2.3-1.7-3.1-1.5-2.8.6.2,1.3,1.1,2.1,3,2.6,1.8.5,2.7,1.3,2.7,2.3,0,2.2-1.9,1.9-4.2-.5-1.1-1.1-2.3-2.1-2.7-2.1-1.5,0-.5,2.8,1.8,5,2.8,2.6,2.5,3.5-.9,2.8-2.7-.5-3.4,1.2-1.1,3.1,1.1.9,1.1,1.3-.5,3-1,1.1-2.9,2.3-4.3,2.8-2.3.8-2.7.6-5.3-1.9-1.5-1.5-2.8-3.5-2.8-4.4,0-2.4-3-6.7-5.7-8.1-4.4-2.3-4.4-6.5-.1-8.9,2-1.2,2.9-1.2,5.1-.4ZM1129.5,639.9c4.8-1.6,6.2-1.5,4.7.3-.6.7-.6,1.8,0,3.4.5,1.3,1.4,4.7,2,7.6l1.1,5.2-2.4,1.7c-2.3,1.7-2.4,1.7-3.2,0-.5-.9-.9-2.2-.9-3,0-1.8-2.2-2.5-3.8-1.2-1.6,1.3-.9,4.7,1.2,6.3,1.2.9,1.2,1.1-.9,1.1-2,0-2.3-.3-2.3-2.3,0-4-.9-6-2.6-6s-1.5.4-1.2,2.7c1.1,7.1,1.2,6.8-2.8,7.1-4,.3-5-.5-5.1-4.2,0-1.5-.5-2.3-1.3-2.3-1.2,0-1.7,2.3-1.3,6.5.1,1.2-.3,1.9-1.1,1.9-1.9,0-2.5-2.3-1.6-5.8.9-3.5.6-5-1-5s-2.1,2.5-3.3,7.7c-.5,2.3-.5,2.3-2.6.9-1.7-1.1-2-1.8-1.7-3.8,1.6-7.5,1.6-7.6.4-7.2-.6.2-1.8,2-2.5,4.1-.7,2-2,3.8-2.7,3.9-1.1.2-1.3-.5-1.3-4,0-5.2-1.8-5.4-2.5-.4-.3,2.2-.9,3.3-1.9,3.5-1.2.2-1.4-.3-1.4-3.2,0-4.3-1.7-4.1-2.9.3-.9,3-2.8,5.8-3,4.3,0-.4-.2-2.1-.2-3.7-.1-4.4-2.4-3.9-3.1.7-.4,3.4-2,5.5-3.4,4.6-.4-.2-.4-2.6-.1-5.4.4-4.1.3-4.9-.8-4.9s-1.5,1.1-1.9,3.3c-.4,2.5-.9,3.3-2.1,3.3-1.9,0-3.3-2.5-2.7-4.8.8-2.9-1.4-3.1-2.4-.3-1,2.6-3.6,3.6-4.3,1.5-1.2-3.6-.8-4.3,2.8-5.3,9.6-2.8,20.6-4.5,35-5.2,8.5-.4,16.4-1.2,17.7-1.7,1.3-.5,3.8-.9,5.5-.9s5.3-.7,7.8-1.5ZM1158.2,617c-.9-1.7-3.1-1.7-3.7,0-.7,1.9-2.4,1.5-4-.9-1.5-2.4-2.6-1.9-3.1,1.3l-.3,2.1-1-2.3c-1.2-2.9-3.9-3.2-3.3-.3.6,2.9,0,3.4-5.9,4.3-4.9.8-5.3.7-6.2-.9-.5-.9-.8-1.9-.7-2.1.1-.2-.4-.5-1.1-.7-1-.2-1.3.4-1.3,2.7s-.5,3.3-1.8,4.2c-2.7,1.9-4,1.6-4-.7s-.4-2.3-.9-2.6c-1.2-.8-2.4,1.2-2.4,4,0,1.4-.7,2.6-1.7,3.2-2.6,1.4-4.1-.4-4.1-4.8s-.3-3.6-1-3.4c-2.1.7-2.5,9-.5,9s.6.4.3.8c-1.6,2.7-3.9-.4-5.1-6.9-.7-4-2.9-4.3-2.8-.4,0,1.5.5,4,1.1,5.7,1,2.9,1,3-1.3,4.4-3.4,2-4,1.8-4-1.3,0-4.7-1-8.9-2.1-8.9-1.6,0-1.9,1.6-1.3,6.9.3,2.7.3,4.9,0,5.1-.3.1-1.6.2-3,.1-2.4,0-2.5-.2-2.2-3.4.3-4.4-.4-7.1-1.9-7.1s-1.2,1-1.2,4.2-.4,4.9-.9,5.8h0c-.8,1.5-4.1,2.3-4.2,1-.2-2.7,0-11.8.2-13.1.2-.9,1.7-2.3,3.2-3,9.5-4.6,18.6-8.4,23.6-9.9,3.2-1,8.1-2.5,10.9-3.4,8.4-2.6,23.6-5.1,31.3-5.1,8.1,0,9.7.5,7.8,2.4-.7.7-1.3,2-1.3,2.9,0,1.7,6.5,11.5,7.7,11.5s.7.4.7.9c0,1.5-7.6.3-8.5-1.3ZM1219.4,626.8c-.7,1.7-4.5,1.8-4.5,0s.8-2,1.7-3c1.9-1.9,1.8-3.5-.3-4-.8-.2-1.9.7-2.8,2.2-2.1,3.7-3.7,4.4-7.2,3.3-1.7-.5-3-1.4-3-2s.3-1.1.7-1.1c.8,0,1.7-5.8,1.1-7-.5-.9-3.2,2.4-4.4,5.2-.4,1.1-1.2,1.7-1.6,1.4-.5-.3-.6-.9-.4-1.2.8-1.3,1.9-8.3,1.3-8.3-.9,0-2.9,2.6-4,5.2-.7,1.6-1.4,2.1-2.3,1.8-1-.4-1.2-1.2-.8-3.7.6-3.7-.7-4.4-2.2-1.1-1.2,2.6-3.4,2.7-5,.2-1-1.5-1.5-1.7-2.4-.9-1.3,1-3.8,1.4-8,1.2-2.4-.1-2.7-.4-2.7-2.4,0-1.3,1.1-3.8,2.3-5.6,2.8-4,5.9-4.8,18-4.4,6.6.2,9.1.7,12.2,2.2,10.3,5,16.9,15.3,14.3,22.1ZM1226.6,625.6c.9-1.7,2.5-2.2,2.5-.7s-.8,1.7-1.7,2.7c-1.8,1.9-2.2.8-.8-1.9ZM1248.7,668.9c-.2,0-.6-.4-.9-.8-.3-.5-.1-.8.4-.8s.9.4.9.8-.2.8-.4.8ZM1251.9,668c-1.2-1.3-1.3-1.9-.5-2.4,1.3-.8-.6-1.7-3.7-1.7s-2.4-1.5.9-2.1c3.7-.7,3.8-2,0-2-5.5,0-7.3-1.9-3.2-3.4,1.8-.7,2-1,1-1.6-.7-.4-2.2-.8-3.5-.8-2.6,0-3.8-1.4-2.4-2.7s1-3.1-1.4-3.1-8.5-5.7-8.5-8.2-.6-1.8-1.3-2.1c-1.6-.6-1.7-6.2,0-6.9.7-.2,1.4-1.4,1.7-2.5.4-1.7.9-2,2.4-1.5,3.2,1,4.8,3,8.1,9.9,2.6,5.6,4.3,7.8,10.9,14.1,9.9,9.5,10.9,10.8,10.2,14.6-.3,1.6-.9,3.2-1.4,3.5-2,1.3-7.7.7-9.3-1.1ZM1261.5,675.1c-.6.7-1.6,1.2-2.2,1.2s-1.2-.6-1.2-1.2.8-1.2,2.2-1.2,2,.2,1.2,1.2ZM1256.8,680.3c1.3-.5,4.1,1.4,3.4,2.2-.3.3-1.4.5-2.5.5-2.1,0-2.7-2-.9-2.7ZM1264,691.3c-1.8,3.6-2.2,3.8-4.2,2.5-1.1-.7-.9-1.1.8-2.4,2.8-2.2,1.8-4.6-1.6-3.8-1.4.3-2.5.3-2.5,0,0-1.2,3-2.8,5.2-2.8,2.1,0,2.2-.2,1.8-2.2-.4-1.7-.3-2.1.6-1.8,1.9.6,1.9,6.8,0,10.6Z"/>
    <path class="st1" d="M1060.5,578.2c-.9,0-1.2-.5-.8-1.7.6-2-.9-2.2-3-.4-1.3,1.2-1.3,1.5-.2,3.7,1.4,2.8,1.7,2.9,3.7,1.1,1.9-1.7,2-2.8.2-2.8Z"/>
    <path class="st1" d="M1060.7,573.4c1.2,1.9,7-.4,7-2.6s.2-1.9-3.4-.7c-3,1-4.3,2.2-3.5,3.4Z"/>
    <path class="st1" d="M1056.4,558.2c.7,1.2,5.5-.6,5.5-2.1s-3.7-1.5-5,0c-.6.7-.8,1.6-.5,2Z"/>
    <path class="st1" d="M1056.8,584.9c-.5,0-1.9-.8-3.2-1.8-3.8-2.8-5.9-.3-2.4,2.7,1.9,1.6,3.1,1.9,5.2,1.1,1.5-.6,1.8-2,.4-2Z"/>
    <path class="st1" d="M1052.7,551.7c0,1,1,.9,3.6-.3,2.5-1.2,3-3.1.9-3.1s-4.4,2.3-4.4,3.5Z"/>
    <path class="st1" d="M1040,598.7c-.2,1.4,0,3,.5,3.5,1.1,1.1,3.6,1.2,4.3.2.3-.4,0-1.2-.8-1.8-.7-.6-1.2-2.1-1.2-3.4s-.3-2.5-.7-2.8c-.4-.2-1-1.9-1.3-3.8-.5-3.4-1.6-4.7-3-3.8-.5.3-.1,2.2.9,4.8,1,2.6,1.5,5.4,1.3,6.9Z"/>
    <path class="st1" d="M1050.2,566c0,1.4.5,1.1,3-1.4,1.7-1.7,2.8-3.3,2.6-3.5-.9-.9-5.6,3.4-5.6,5Z"/>
    <path class="st1" d="M1050.9,556.9c1-.7,1.7-1.6,1.4-2-.7-1-4.6.9-4.6,2.2s.9,1.4,3.2-.2Z"/>
    <path class="st1" d="M1113.9,739.6c-2.8-1.1-7.7.8-6.6,2.6.6,1,3.5.9,4.1-.1.3-.4,1.4-.6,2.5-.3,2.7.7,2.7-1.1,0-2.2Z"/>
    <path class="st1" d="M1046.7,577.3c6.4-.4,7.6-.9,6-2.7-.8-1,0-2,4.5-5.5,4.8-3.8,6.1-5.8,3.8-5.8s-10,7.8-10,9.2-1.3,1.9-7.4,2.6c-1.1.1-2.2.7-2.4,1.4-.3.9.8,1.1,5.5.8Z"/>
    <path class="st1" d="M1049,550c.7,1.2,3.7-.7,4.7-3,.5-1.1,1.6-2.2,2.5-2.5,2.2-.7,2-3.7-.2-3.7s-1.6-.4-1.2-1.6c.4-1.1,0-1.7-1.3-2-1.6-.4-1.7-.8-1.2-3.9.6-3.3.5-3.4-1.4-3.2-1.2.2-1.8.7-1.6,1.5.2.7.3,2.4.2,3.9,0,1.8.2,2.7,1,2.7,2.8,0,2.9,5.2,0,8.5-1.1,1.4-1.9,2.8-1.6,3.2Z"/>
    <path class="st1" d="M1108.6,696.3c2.5,1,7.9,1,8.5,0,.3-.4-.5-1-1.8-1.3-1.3-.3-3.4-.9-4.7-1.3-3.8-1.2-5.6,1.1-2,2.5Z"/>
    <path class="st1" d="M1205.8,622.8c0,.7.6,1.2,1.2,1.2,1.4,0,4.1-3.7,3.6-5-.4-1.2-4.8,2.3-4.8,3.8Z"/>
    <path class="st1" d="M1109.5,692.2c1.7.7,4.6.4,5.6-.5.8-.7-2.1-1.9-4.8-1.9-3.1,0-3.6,1.4-.8,2.5Z"/>
    <path class="st1" d="M1133.9,356.4c1.1-.4,1.3-1.3.8-4.8-.6-4.5-1.4-6-2.9-5.1-1.1.7-1.2,5.4-.1,8.3.6,1.5,1.2,2,2.2,1.6Z"/>
    <path class="st1" d="M1145.7,374.3c-1.5,1.5,0,2.4,6.4,3.7,3.2.6,6.1,1,6.5.8,1-.6-.2-1.9-1.8-1.9s-1.8-.3-2.2-.7c-.4-.4-2.4-1.2-4.4-1.8-2.7-.9-3.8-.9-4.5-.1Z"/>
    <path class="st1" d="M856.6,379c3.3,1.2,6.7,2.5,7.6,2.9,3.4,1.4,4.1.7.9-.9-1.8-.9-3.9-2.2-4.6-2.9-.8-.7-1.6-1.2-1.9-1.2s-3.1-1.5-6.3-3.3c-3.2-1.8-6.4-3.3-7.2-3.3-4.4,0,2.8,5.6,11.4,8.8Z"/>
    <path class="st1" d="M1149.4,350.6c.5-4-.3-5.8-2.2-5-1.7.6-1.9,8.5-.3,9.1,1.5.6,2-.3,2.5-4.1Z"/>
    <path class="st1" d="M1147.5,369.1c2.1,1,4.7,1.8,5.8,1.8,1.8,0,1.6-.2-1.2-1.6-1.8-.9-4.1-2.4-5.1-3.3-2.2-2-4-2.1-3.6-.2.1.8,2,2.3,4,3.3Z"/>
    <path class="st1" d="M1141.4,344.9c-1.5-2-2.7-.3-3.5,4.8-.3,2.3-.3,4,.2,4,2.9,0,5.2-6.1,3.3-8.7Z"/>
    <path class="st1" d="M1158.8,456.8c-.7,0-1.2.7-1.2,1.8,0,1.5.2,1.6,1.2.7.7-.6,1.2-1.4,1.2-1.8s-.6-.7-1.2-.7Z"/>
    <path class="st1" d="M1161.6,453.8c1.3-1.3,2.3-2.6,2.1-2.8-.5-.5-4.5,3.4-4.5,4.4s1.1-.3,2.4-1.6Z"/>
    <path class="st1" d="M1142.6,508.8c.6,7.6,1.5,10.1,5.1,14.7,1.8,2.2,3.1,3.2,4.3,3,1.9-.3,3-2.3,1.2-2.3s-2.6-2.2-4.3-5c-2.6-4.2-3.2-6.1-3.8-11.7-.6-6-1-7-3.3-9.3-1.9-1.9-2.8-2.3-3.5-1.6-.7.7-.3,1.5,1.4,3.3,2.1,2.1,2.4,3.2,2.9,9Z"/>
    <path class="st1" d="M1134.2,511.2c-1.8,2.2.6,11.3,4.8,17.7,1.3,2,1.8,2.2,3.9,1.4,1.1-.4,1-.9-.7-3.2-3.6-4.7-4.8-8.7-4.8-15.7,0-6.1-.1-6.6-2.3-8.9-2.8-2.9-5.3-3.4-2.6-.5,2.3,2.4,3.2,7.5,1.8,9.3Z"/>
    <path class="st1" d="M1166.7,459.3c1.6,1,1.7,1,3.9-.8,2.5-2.1,2.4-2.5-.5-2.5s-5.2,2.2-3.4,3.4Z"/>
    <path class="st1" d="M1188.8,496.4c1.3.2,2.5.6,2.7.8.2.2,1.1.4,2,.4,2.9,0,1.1-1.7-4-3.8-5.9-2.4-5.4-2.3-5.4-.9s1.9,3,4.7,3.5Z"/>
    <path class="st1" d="M1189.6,488c4.5,1.4,6.2,1.4,6.2,0s-7.8-4.2-9.2-3.4c-1.6,1-.4,2.3,3,3.4Z"/>
    <path class="st1" d="M1162.5,465.5c-.5.6-.7,1.6-.4,2.1.3.5,1.2.7,1.9.4.8-.3,2.9-1.1,4.8-1.8,3.7-1.3,5.2-3.3,3.1-4.2-1.5-.6-8.2,1.8-9.5,3.5Z"/>
    <path class="st1" d="M1124.8,513.1c-.6,4.6.8,15,2.5,17.5.7,1.1,2.1,2.3,3.1,2.7,3.5,1.4,4.2.5,1.5-2-2-1.8-3.3-6.6-4.2-15.7-.7-6.9-2.4-11.5-4.3-11.5s-.9,3,.5,4.2c1,.9,1.2,2,.8,4.7Z"/>
    <path class="st1" d="M1190.6,480.3c4,1.7,4.9,1.7,5.5.1.5-1.4-4.6-4-6.8-3.6-2.4.5-1.8,2.1,1.3,3.4Z"/>
    <path class="st1" d="M1186.6,507.4c4.7,2.1,5,2.1,5,0s-1-2.1-3.1-2.9c-1.7-.7-4.3-2.2-5.8-3.3-2.6-2-5.3-2.7-5.3-1.4s5.5,5.9,9.2,7.6Z"/>
    <path class="st1" d="M1172.4,508.1c-1.3,1.3,1.9,5.2,5.8,7.1,1.7.8,3.6,1.2,4.3,1,.7-.2,2.3-.7,3.5-.9,2.9-.6,3-2.7,0-2.7s-8.9-1.8-10.9-3.6c-1.4-1.2-2.1-1.4-2.8-.8Z"/>
    <path class="st1" d="M798.9,408.3c-.8.8-.6,1.4,1.1,2.7,1.2.9,2.7,3,3.5,4.6,1.7,3.5,2.2,3.7,2.1.6,0-3.2-5.3-9.4-6.7-7.9Z"/>
    <path class="st1" d="M1195,472.7c2.2,1.5,3.5,1.5,3.9,0,.4-1.2-5.5-4.8-6.5-3.9-.9.9-.2,2,2.5,3.8Z"/>
    <path class="st1" d="M845,393c-.6-3.2-8.3-12.4-13.1-15.5-2.4-1.6-5.5-1.9-5.5-.6s1.8,2.1,4.1,3.8c4,2.8,9.9,9.3,12.8,13.9.8,1.3,1.8,2.3,2.3,2.3s.6-.4.3-.8c-.3-.5-.7-1.8-.9-3Z"/>
    <path class="st1" d="M1105.5,526.8c.1,6.6.6,10.4,1.5,12.5,1.1,2.4,1.8,3.1,3.5,3.1,2.5,0,2.6-.6.8-2.6-1-1.1-1.5-3.9-2-10.5-.6-9.1-2.7-16-4.8-16-1.3,0-1.4,1.8,0,3.1.6.6,1,4.6,1.1,10.4Z"/>
    <path class="st1" d="M1114.7,516.2c-.3,2.1,0,5,.8,7.6.7,2.3,1.3,4.8,1.3,5.6,0,.8.5,2.8,1.2,4.4.8,2,1.8,2.9,2.9,2.9,2.2,0,2.2-.6-.3-6.2-2.4-5.5-3.5-11.7-2.2-12.5,2-1.2-2.9-11.3-5.4-11.3s-1.4,1.5.6,4c1.3,1.7,1.6,2.9,1.2,5.5Z"/>
    <path class="st1" d="M1200.8,463.9c0-1.2-1.7-2.2-3.8-2.2s-1,.4-.3,1.7c1,1.9,4.2,2.3,4.2.5Z"/>
    <path class="st1" d="M1127.5,357.5c1.5,1.2,2.3,1.3,2.8.4.6-1-4.2-6.3-5.2-5.7-1.1.7.3,3.6,2.4,5.2Z"/>
    <path class="st1" d="M1121.4,361c.8-.2,1.7-.8,1.9-1.4.2-.7-.1-1-1.1-.8-.8.2-1.6.8-1.9,1.4-.2.7.2,1,1.1.8Z"/>
    <path class="st1" d="M1120.2,385.2c3.1-3,4-5.2,2.6-6.1-1.1-.7-2.6.7-5.6,5-3.5,5.1-10.4,18.8-9.8,19.7.2.4.8.5,1.3.4,1.5-.5,7.1-9.9,7.7-13,.3-1.6,1.9-4.1,3.8-5.9Z"/>
    <path class="st1" d="M1115.3,367.3c2.5,1.8,4,.3,1.9-2-.8-.9-2-1.7-2.6-1.7-1.7,0-1.3,2.3.7,3.7Z"/>
    <path class="st1" d="M1147.9,426c-2.9,0-3.9-1.3-1.7-2.2,1.4-.5,1.8-4.5.4-4.5s-1.6,1.5-2.5,3.3c-.9,1.8-3.4,5.2-5.4,7.5-4.2,4.7-4.4,5.4-2.3,6.6,2.3,1.4,3.3,1.1,4.8-1.4.7-1.3,3.2-3.6,5.4-5.2,2.2-1.6,4.1-3.2,4.1-3.5,0-.3-1.3-.6-2.9-.6Z"/>
    <path class="st1" d="M1141.9,412.7c-.8,0-7.4,7.6-9.5,11-.8,1.2-1.4,3.2-1.4,4.4,0,2.7,1.8,2.4,2.2-.4.3-2.1,2.5-5.1,6.7-9.6,2.5-2.7,3.6-5.4,2-5.4Z"/>
    <path class="st1" d="M853.1,358.6c2,0,1.7-1.9-.4-2.4-.8-.1-1.4.3-1.4,1s.7,1.3,1.7,1.3Z"/>
    <path class="st1" d="M1177,517.6c-2.1-1.4-4.4-3.3-5-4.2-1.2-1.7-3.6-2.3-3.6-.9,0,2.6,3.6,6.4,7.3,7.7,4.6,1.7,5.2,1.7,5.2.7s-1.7-1.9-3.9-3.3Z"/>
    <path class="st1" d="M1135.9,406.8c-.9,0-1.1.2-6.7,7.3-4.2,5.3-5.6,8.5-4.6,10.1.9,1.4,1.7.4,2.9-3.2.6-1.8,2.9-5.3,5.1-7.7,3.8-4.1,5-6.5,3.2-6.5Z"/>
    <path class="st1" d="M1109.9,385.9c1.3-1.4,1.3-3.2-.1-3.2s-3.3,2.2-2.6,3.3c.7,1.1,1.5,1.1,2.8-.1Z"/>
    <path class="st1" d="M1109.3,371.1c1.2.9,2.4,1.6,2.7,1.6,1.2,0,.6-2.2-1.1-3.8-1.3-1.2-1.9-1.3-2.7-.5-.8.8-.6,1.4,1.1,2.6Z"/>
    <path class="st1" d="M1128.1,409.3c.6-.5,1.2-1.4,1.2-1.9s.7-1.4,1.7-2c1.4-.9,2.4-4.4,1.2-4.4s-11.1,10.8-11.6,12.5c-.3,1-.3,2.7,0,3.8.8,3.1,2,2.4,4.3-2.5,1.2-2.5,2.7-5,3.3-5.5Z"/>
    <path class="st1" d="M1125.6,393.8c1.2-.5,1.6-4.4.4-4.4s-1.5,1.2-2.5,2.7c-.9,1.5-3.4,5.1-5.5,7.9-2.1,2.9-4.5,6.7-5.5,8.5-1.6,3.2-1.6,3.3-.1,3.3,2.3,0,4.6-2.9,8.5-10.7,2-3.8,4-7.1,4.7-7.4Z"/>
    <path class="st1" d="M854.5,495c.6,0,4.4-5.3,5.1-7.1.7-1.8-2.4,1.5-4,4.2-.9,1.6-1.4,2.8-1.1,2.8Z"/>
    <path class="st1" d="M812.9,483.5c-1.4-1.6-3.2.8-6.2,8.4-6,14.8-8.5,22.9-7.9,25.8.2.8.6,1.5.9,1.5,1.6,0,3.3-3.4,4.2-8.3,1.1-6.4,3.9-14.3,7.4-21.2,2-3.9,2.3-5.2,1.6-6.1Z"/>
    <path class="st1" d="M817.6,489.4c-.6.6-5.7,14.1-7.9,20.9-.9,2.7-1.6,6.6-1.6,8.6,0,3.1.2,3.6,1.5,3.4,1-.2,1.8-1.7,2.6-5.3,1.7-7.4,5-17.8,6.9-21.9,1.6-3.3,1.6-3.7.4-4.9-.7-.7-1.6-1.1-1.8-.8Z"/>
    <path class="st1" d="M804.6,472.8c-1.2.4-6.8,13.6-10.6,24.9-3.3,9.7-3.8,12.3-2.7,13.4,1.2,1.2,1.7.3,4-7.1,1.3-4.2,3.9-11.6,5.7-16.4,3.6-9.6,5-15.2,3.7-14.8Z"/>
    <path class="st1" d="M882.6,531.2l2.5-1.2h-2.6c-1.4,0-3.1.4-3.6,1.1-1.4,1.6.2,1.6,3.7,0Z"/>
    <path class="st1" d="M770.9,457.1c-1.7.5-11.9,16.4-11.9,18.4s.7,1.2,1.7,1.2,2.3-1.3,4.1-5.2c1.3-2.9,2.6-6.2,2.9-7.5.5-2.3,1.1-3,4.2-5.2,1.9-1.3,1.3-2.5-1-1.8Z"/>
    <path class="st1" d="M1184.3,427.3c.1.7,1.9,2,4,2.9h0c4.2,1.7,5.3,1.6,5.7-.2.2-.9-1-1.7-3.7-2.6-5-1.7-6.3-1.7-6,0Z"/>
    <path class="st1" d="M794.4,475.9c1.4-2.4,1.6-4.2.6-4.2s-.6-.3-7.7,15c-5.2,11.2-7.1,16.9-6.1,18.3.9,1.5,2.1.7,3.4-2.3.8-1.7,2-4.6,2.9-6.4,2.9-6.4,5.7-14.4,5.8-16.4,0-1.1.6-2.9,1.2-4Z"/>
    <path class="st1" d="M1162.3,390.7c-6,1-3.1,3.6,4,3.6,2,0,4.3.6,5.4,1.5,1.1.8,3.3,1.6,4.9,1.7,1.6,0,3,.4,3.2.6.6.6,3.9.5,4.6-.2,1-1-1.3-2.8-3.7-2.8s-3.8-.6-5.4-1.2c-1.6-.7-3.7-1.2-4.5-1.2s-1.6-.3-1.6-.7c0-1.2-3.4-1.8-6.9-1.2Z"/>
    <path class="st1" d="M1179.8,414.2c-.7.7-.6,1.3.2,2.3.6.8,1.2,2.2,1.2,3.1,0,1.3.8,1.9,2.9,2.5,1.6.4,3.3,1.1,3.7,1.5,1.1,1,3.6,1,4.2,0,.3-.4-.4-1.3-1.6-1.8-2.3-1.1-2.6-1.6-1.2-2.9.6-.7-.4-1.5-3.8-3.2-3.4-1.7-4.9-2.1-5.6-1.4Z"/>
    <path class="st1" d="M1102.1,374.6c-.3.4-.2,1.6.3,2.7,1,2.2,2.6,2.8,2.6,1s-2.3-4.4-3-3.7Z"/>
    <path class="st1" d="M1171.1,406.4c-.6,1.6,1.1,3.1,3,2.5.7-.2,3.3.4,5.8,1.2,2.5.9,4.8,1.6,5.1,1.6,1.2,0,3.2-1,3.2-1.7,0-1.4-6.4-4-11.5-4.5-4.4-.5-5.2-.4-5.7.9Z"/>
    <path class="st1" d="M1162.8,398.7c-.9,1.4.9,2.1,6.8,3,3.2.5,7.3,1.4,9.2,2.1,4.3,1.7,7.9,1.7,7.9.2s-.8-2-5.6-3c-8.3-1.8-17.8-3-18.3-2.2Z"/>
    <path class="st1" d="M842.6,486.7c.7,0,1.9-1,2.7-2.3.8-1.3,2.2-3.1,3.1-4.2.9-1,1.3-1.9.8-1.9-1.5,0-5.2,3.4-6.5,5.9-1.1,2.2-1.1,2.4,0,2.4Z"/>
    <path class="st1" d="M811,713.8c-1.3,0-1.6,1-.7,1.9,1,1,1.9.6,1.9-.7s-.6-1.2-1.2-1.2Z"/>
    <path class="st1" d="M808,705.5c-.4,0-.7.6-.7,1.2s.5,1.3,1.2,1.3,1-.5.7-1.3c-.3-.7-.8-1.2-1.2-1.2Z"/>
    <path class="st1" d="M825.2,759.2c-6.3.7-8.7,1.6-8.7,3.2s.4,1.6,6.1-.3c7.6-2.6,8.4-3.5,2.6-2.9Z"/>
    <path class="st1" d="M816.4,758c0,1.1,1,1,2.9-.4.9-.6,3.1-1.6,5-2.2,8.5-2.6,10.5-4.5,4-3.6-6.3.9-11.8,3.8-11.8,6.1Z"/>
    <path class="st1" d="M806.6,710.8c-.2.8.3,1.4,1,1.4s1.3-.7,1.3-1.7c0-2-2-1.7-2.4.3Z"/>
    <path class="st1" d="M847.4,488.4c1.1-1.6,3.5-4,5.4-5.4,3.6-2.6,4.4-3.8,2.4-3.8s-8,6.4-10,10c-2,3.6-.3,2.9,2.2-.8Z"/>
    <polygon class="st1" points="970.5 662.9 970.5 662.9 970.5 662.9 970.5 662.9"/>
    <path class="st1" d="M884.7,522c1-1.2.8-1.3-1.3-1-1.3.1-2.5.7-2.7,1.3-.5,1.5,2.7,1.3,4-.3Z"/>
    <path class="st1" d="M884.2,517.8c2-.8,1.6-2-.8-2s-2.7.8-1.5,1.9c.7.7.7.7,2.3,0Z"/>
    <path class="st1" d="M882.9,513.3c1,0,2.9-2.4,2.4-3-.8-.8-3.2.6-3.2,1.8s.3,1.2.7,1.2Z"/>
    <path class="st1" d="M884.1,506.7c1.4,0,2.4-2.2,1.3-2.9-1.1-.7-2.5.3-2.5,1.7s.5,1.2,1.2,1.2Z"/>
    <path class="st1" d="M873,681.9c0,1.5.4,2,1.5,1.8,1.7-.3,2.5-6.1,1.1-7.6-1-1-2.6,2.5-2.6,5.8Z"/>
    <path class="st1" d="M794.6,622.1c1.4-1.7,3.3-8.3,2.9-9.9-.2-.9-.9-1.5-1.6-1.5s-1.1.9-.7,3.6c.3,2.8,0,4.1-1.2,5.7-.9,1.2-1.7,2.4-1.7,2.6,0,.9,1.4.5,2.3-.5Z"/>
    <path class="st1" d="M872.9,767.9c1.4,0,1.9-1.7,1.3-4.8l-.6-3.1-1.2,2.8c-.6,1.6-1,3.3-.7,4,.2.6.8,1.1,1.2,1.1Z"/>
    <path class="st1" d="M843.9,472.4c0-1.7-1.7-.4-5.8,4.3-2.4,2.7-3.9,5-3.4,5,1.1,0,9.2-8.2,9.2-9.3Z"/>
    <path class="st1" d="M876.5,770.2c2-.3,2.3-1.8.4-2.2-.6-.1-1.4.4-1.7,1.1-.4,1,0,1.3,1.4,1.1Z"/>
    <path class="st1" d="M766.1,450.1c-2.1,0-14.6,18.4-14.6,21.6s.3,1.7.7,1.7c1,0,5.2-6.5,4.9-7.7-.3-1.4,2.3-5.2,6.6-9.5,3.6-3.6,4.5-6.1,2.3-6.1Z"/>
    <path class="st1" d="M838.1,467.9c0-1.7-2.8.3-4.5,3.2-1.2,2-1.2,2.4-.2,2.4s4.7-3.8,4.7-5.5Z"/>
    <path class="st1" d="M864,756.9c.3-1.7.2-3.3-.2-3.6-1.1-.7-3.1,3.9-3.8,8.6-.6,4.1-.5,4.3,1.4,4.3s2-.4,2-3.1c0-1.7.2-4.5.5-6.2Z"/>
    <path class="st1" d="M867.5,766.2c1.7,0,1.9-.5,2.6-6.4.4-3.6.3-5.2-.3-5.2-1.2,0-2.2,2.6-2.9,7.7-.5,3.2-.3,3.9.7,3.9Z"/>
    <path class="st1" d="M820.5,743.1c2.3-.7,4.2-1.6,4.2-1.9,0-1.1-2.7-1.6-5.5-1.1-3.1.6-4,1.5-3.3,3.2.4,1,1.1.9,4.6-.2Z"/>
    <path class="st1" d="M805.2,755c-2.5,1.1-2.9,1.5-2.1,2.5.8,1,1.3,1,3.3,0,4.8-2.5,3.7-4.5-1.3-2.4Z"/>
    <path class="st1" d="M818.1,750.4c.7-.8,2.9-1.9,4.8-2.3,4.2-.9,4.7-1.3,3.9-2.7-1-1.6-7.7-.4-10,1.8-2.2,2.1-2.6,3.8-1,4.4.6.2,1.6-.3,2.3-1.2Z"/>
    <path class="st1" d="M805.5,752.7c0,.1.4.2.9.2s.9-.9,1-2.1c0-1.2.2-2.5.2-3.1,0-.6-.6-1.2-1.3-1.3-1.2-.2-1.4.3-1.1,2.9.2,1.7.3,3.3.4,3.4Z"/>
    <path class="st1" d="M761,447c5.8-5.5,6.2-6.3,1.9-3.4-6.6,4.5-15.5,14.4-15.5,17.3s1.6.8,2.9-1.8c1.4-3,2.6-4.4,10.7-12.1Z"/>
    <path class="st1" d="M807.3,365.7c4.7,1.3,8.1,1.4,8.7.5.2-.4-.6-1-1.8-1.3-1.3-.3-2.9-1.1-3.7-1.8-1.7-1.6-6.9-1.2-6.9.5s1.5,1.6,3.8,2.2Z"/>
    <path class="st1" d="M776.5,391c1-.6.9-.8-.6-.8-1,0-1.9.4-1.9.8,0,1,.9,1,2.5,0Z"/>
    <path class="st1" d="M820.8,354.8c1,.2,3.9.9,6.4,1.6,2.5.6,5,1.2,5.6,1.3,1.9.2,2-1.5.2-2.4-2.6-1.4-12.6-4.1-13.4-3.6-1.3.8-.6,2.8,1.2,3.2Z"/>
    <path class="st1" d="M801.5,372.1c2.2.8,5.8.6,5.8-.3s-.9-1.2-2.1-1.6c-1.1-.4-2.1-1.2-2.1-1.6s-1.3-.9-2.9-.9-2.9.3-2.9.7c0,.9,2.5,3.1,4.2,3.7Z"/>
    <path class="st1" d="M813,360.1c1.4.1,3.7.8,4.9,1.5,2.7,1.4,5.6,1.2,5.6-.4s-7.1-3.3-11.5-3.4c-3.3,0-2.4,2,1,2.3Z"/>
    <path class="st1" d="M786.5,382.7c.2-.3,1.3-.9,2.3-1.2,1.2-.4,1.8-1.1,1.7-2-.2-1.2.4-1.4,3.7-1.2,3.8.2,5.4-1,2.8-2-.7-.3-1-1-.7-1.6.3-.7-.3-1.5-1.5-1.9-1.6-.6-2.3-.4-3.6,1.2-.9,1.1-2.6,2-3.8,2.2-1.8.2-2.1.6-1.9,2.9.1,2.5,0,2.7-3.1,3.2-1.8.3-3.3.9-3.3,1.4,0,.9,6.8,0,7.5-1Z"/>
    <path class="st1" d="M749.3,427.4c1-.2,4-.9,6.7-1.5,4.5-1,5.9-2.4,3.9-3.7-.5-.3-2.5,0-4.4.7-1.9.7-4.5,1.5-5.8,1.8-1.3.3-2.3,1.1-2.3,1.8s.5,1.2,1.9.9Z"/>
    <path class="st1" d="M748.4,435c-.6,1-.9,1.8-.6,1.8,1,0,4.1-1.8,5.9-3.4.9-.8,3.3-1.9,5.3-2.4,3.8-1,4.5-3.1.9-2.7-2.8.3-10,4.6-11.4,6.7Z"/>
    <path class="st1" d="M779,446.1c0,1.5,2.2.4,5.2-2.4,3.4-3.3,3.9-4.4,2-4.4s-7.2,5.7-7.2,6.9Z"/>
    <path class="st1" d="M751.3,446.6c2.2-2.1,5.2-4.5,6.8-5.3,3.4-1.7,7.6-5.4,6.1-5.4s-3.5,1.2-6.5,2.7c-5.9,2.9-10.3,7.2-10.3,10s.5,1.3,4-2Z"/>
    <path class="st1" d="M777.8,439.3c.8,1.2,1.4.9,5.3-2.6,3.7-3.2,4.1-4.8,1.1-3.8-2.2.7-7,5.5-6.5,6.4Z"/>
    <path class="st1" d="M781,428c1.4-1.6,1.9-2.9,1.3-2.9-1.4,0-4.9,3.3-4.9,4.7s1.1,1.2,3.6-1.9Z"/>
    <path class="st1" d="M1154.4,383.4c.2,1.1,1.4,1.5,5.3,1.8,2.7.2,5.7.9,6.6,1.4,2.6,1.5,2.7.3.2-1.9-1.3-1.1-3.2-2-4.2-2.1-1,0-3.2-.2-5-.4-2.6-.2-3.1,0-2.9,1.1Z"/>
    <path class="st1" d="M839.1,377.5c2.4,1.9,5.9,4.7,7.7,6.3,1.8,1.6,4.8,3.7,6.7,4.6,6.1,3.1,8.6,1.8,2.9-1.5-1.8-1-5.7-4.1-8.5-6.7-7.1-6.5-9.7-8.5-11.6-8.5-2.8,0-1.7,2.2,2.8,5.6Z"/>
  </g>
  <path class="st0" d="M950.6,500.5l1,6.8-5.7,5.5c-3.2,3-5.7,5.8-5.7,6s3,.2,6.7-.1l6.7-.6,3,6.7c2.9,6.5,4.9,16.8,9.6,50.2,1.8,12.7,1.2,13.8-4.2,7.6-2.2-2.5-3.6-3.4-4.7-2.9-1.5.6-1.5.9-.2,2.8.8,1.2,1.7,4.5,2.1,7.2.7,5,.7,5.1-2.9,7.1-4.7,2.7-4.2,4.8,1.4,6.2l4.3,1.1.3,7.2c.3,8.8-3.4,41.2-8.4,73.9-.5,3.2-1.4,9.9-2,15-.6,5.1-2,13.8-2.9,19.3-1,5.6-2.1,13.3-2.5,17.2-.6,6.2-1,7.3-3.3,8.9-3.6,2.6-6.9,2.4-9.4-.5-2-2.3-5-3.3-5-1.6s.6,2.1,1.4,3.6c.8,1.5,1.7,4.2,2,5.8.6,2.8.2,3.3-4.3,6.6-6.7,4.9-6.6,6.8.4,5.9,5.2-.6,5.4-.6,6.4,2.1.6,1.5,1.1,3.9,1.1,5.4.2,5.3,4.1,4.3,5-1.2.8-4.9,2.1-5.8,9.4-6.4,3.4-.3,6.4-.7,6.7-1,.3-.3-1.5-2.3-4.1-4.4-3.8-3.2-4.6-4.5-4.6-7.1s.6-4.3,1.3-5.7c.8-1.5,1.2-4.2.9-6.6-.2-2.2.7-11.5,2.1-20.5,1.4-9.1,2.9-20.4,3.5-25.2.5-4.8,1.1-9.4,1.4-10.3.3-.9,1.1-7.6,1.9-15,.8-7.4,1.9-16.3,2.4-19.7.6-3.5,1.7-10.9,2.6-16.5.9-5.6,1.9-12.1,2.3-14.5.4-2.4,1.6-6.3,2.7-8.8,2.1-4.8,3.7-5.7,10.1-5.7,4.7,0,5.5-1.5,1.6-2.8-4.9-1.7-6.6-3.8-6.6-8.2s.7-5.2,1.5-6.7c2.5-4.9,1.1-8.6-2.1-5.4-.6.6-1.3.7-1.6.1-.9-1.5-5.5-32.9-6.1-42.5-.5-8.1-.4-9.3,1.7-13.2,2.2-4.2,2.3-4.3,8.6-4.8,3.5-.3,6.9-1.2,7.7-2,1.2-1.2.8-1.6-2.8-3.3-2.3-1.1-5.7-3.4-7.5-5.3l-3.3-3.4,1.1-6.6c1-5.9,5.7-17.3,8.3-20,1.6-1.7,10.4-14,16.4-22.8,3.1-4.5,8.5-12.1,12-16.9,3.5-4.8,9-12.5,12.2-17.2,3.2-4.7,7-10.1,8.4-12.1,5.5-7.6,17.8-25.7,20.1-29.7,1.3-2.3,3.8-5.9,5.6-7.9,1.7-2,8.6-11,15.2-19.8,6.6-8.9,12.4-16.4,13-16.7.5-.3,1.2-2,1.6-3.7l.7-3.1,1.3,2.4c.7,1.3,1.3,3.1,1.3,3.9,0,.9.7,2.1,1.5,2.8.8.7,1.4,2.2,1.4,3.5,0,2.7,1.7,3.1,2.5.6,1.3-4,3.8-9.3,5-10.5.8-.8,3.6-1.3,7.5-1.3s6.2-.4,6.2-1-2-3.2-4.5-5.8c-4.2-4.5-4.4-4.9-3.4-7.8.6-1.7,1.1-3.9,1.1-5s.9-3.1,1.9-4.5c3.4-4.8,1.1-5.4-6.3-1.5-3.9,2-7.5,3.3-8.6,3-1.1-.3-4.5-2.9-7.6-5.9-5-4.8-7.4-6.4-7.4-4.8h0c0,.3.6,1.5,1.4,2.7.7,1.2,1.9,5.2,2.5,8.9.6,3.7,1.3,7.5,1.6,8.3.3,1-1.4,3-4.8,5.6-5.5,4.3-7.5,7-4.6,6.2.9-.2,2.8,0,4.2.6,2.6,1,2.6,1,1,4.2-.9,1.7-3,4.9-4.7,7.1-1.7,2.1-6.2,8.2-10,13.5-3.7,5.3-7.4,10.5-8.2,11.6-.8,1.1-6.5,9.3-12.8,18.4-6.2,9-13.2,18.8-15.4,21.8-2.2,2.9-7.2,9.9-11,15.5-3.8,5.6-10.2,14.7-14.2,20.3-3.9,5.6-9.8,13.9-13,18.4-3.2,4.5-8.2,11.5-11.1,15.5-2.9,4-6.3,9.1-7.4,11.3-2.7,5.2-8.7,8.8-12,7.3-1.2-.6-3-2.2-4-3.7-.9-1.5-2.6-3.8-3.8-5.1-4.3-4.9-39.5-57.2-65.4-97.2-9.2-14.1-10-15.9-7.1-15.9s1.5-2.5-2.7-5.1c-2.5-1.6-2.7-2-2-6.7.4-2.7,1.2-6.1,2-7.5,3-5.7,0-5.3-6.5.9-2.8,2.7-5.5,4.9-6.1,4.9-1.3,0-9.3-7.5-10.8-10.2-.6-1.1-1.4-1.6-1.8-1.2-.4.4-.3,1.3.2,1.9,1,1.2,4.1,11.3,4.1,13.2s-1.7,1.9-3.8,3c-7.7,3.9-6.9,7.7,1.6,7.7s8,1,11.5,13.4c.7,2.4,2.8.5,3.1-2.8.4-4.3,2.1-8.6,3.5-8.6,2.1,0,24.1,31,28.9,40.7,1.2,2.5,3.4,5.9,4.8,7.6,3.2,3.8,29.3,43.1,33.5,50.3,1.7,2.9,5.2,8.4,7.8,12.1,4,5.7,4.9,7.8,5.7,13.5ZM866,370.7c-2.3,1.8-2.5,1.8-4.2.2-1.3-1.2-2.7-1.5-4.8-1-3.8.8-3.8-.6-.2-3.6,3.3-2.8,8.1-2.6,10.2.5,1.2,1.8,1.1,2.1-1,3.9ZM1084,322.2c.2-1.4.9-3.1,1.4-3.7.5-.6.6-2.7.2-4.7-.6-3.3-.5-3.5,1.2-2.6,1,.5,2.6,1.9,3.5,3.1l1.7,2,3.8-2.1c2.1-1.2,4.1-1.9,4.5-1.5.3.3-.3,2.2-1.5,4.2-2,3.3-2,3.7-.6,5.9,1.4,2.2,1.4,2.3-.2,2.1-1.2-.2-2.5,1.1-4.2,4.3l-2.5,4.5-1.4-4.1c-1.1-3.2-1.9-4.1-3.9-4.4-2.2-.3-2.5-.7-2-2.9ZM942.6,754.8c0,2.3-.6,3.6-1.8,3.9-.9.3-1.7,1.2-1.7,1.9,0,1.7-1.6,1.8-2.2.2-1.1-3,0-6.7,2.2-8,3.4-1.9,3.5-1.8,3.4,1.9ZM945.9,760.2c0,.5-.5,1-1,1s-.8-.4-.4-1c.3-.5.8-1,1-1s.4.4.4,1ZM967.6,597.2c1.5,2.3,1.4,4.3-.4,4.3s-4.1-4.8-3.4-5.8c.9-1.5,2.1-1.1,3.8,1.5ZM952.9,511.3l3.6-3.1-1.3-5.6c-1.1-4.7-1.1-5.6,0-5.6s1.3.3,1.3.7c0,1.5,4.6,6,6.2,6s2.1,1.2,2.6,2.7c.5,1.5,2.4,4.1,4,5.8l3,3.1h-3.1c-1.7,0-3.3.6-3.5,1.2-.2.7-.9,3.1-1.5,5.3-.6,2.3-1.5,4.1-1.9,4.1s-1.3-1.8-2-4.1c-2.1-7.3-1.9-7.1-8.8-7.4-2.4-.1-2.3-.2,1.2-3.3Z"/>
</svg>