<?xml version="1.0" encoding="UTF-8"?>
<svg id="Layer_1" xmlns="http://www.w3.org/2000/svg" version="1.1" viewBox="0 0 1920 1080">
  <!-- Generator: Adobe Illustrator 30.3.0, SVG Export Plug-In . SVG Version: 2.1.3 Build 182)  -->
  <defs>
    <style>
      .st0 {
        fill: #dbb57f;
      }

      .st1 {
        fill: #ff7f00;
      }
    </style>
  </defs>
  <g>
    <path class="st0" d="M988.8,702.1c-.8,0-1.4,1.3-1.4,2.9s.6,2.9,1.4,2.9,1.4-1.3,1.4-2.9-.6-2.9-1.4-2.9Z"/>
    <path class="st0" d="M668.8,443.4c-.8-2.2-1.6-1.9-6.1,2.6-3,3-4.6,5.8-4.2,6.9,2.6,4.3,12.2-4.5,10.2-9.4h0Z"/>
    <path class="st0" d="M651,383.1c1,.3,1.9.8,2.1.8,1.6.8,4.8-2.4,4.8-5,0-3.8-3.8-5.8-6.6-3.4-2.4,2.1-2.6,6.6-.2,7.5h-.2Z"/>
    <path class="st0" d="M670.1,458.6c-1.9,0-9.3,6.4-9.3,8.2,0,2.6,4.3,2.4,7.4-.5,2.4-2.1,3.7-7.7,1.9-7.7h0Z"/>
    <path class="st0" d="M645.9,328.5c-1.6,1.8-5,4.6-7.4,6.4-3.5,2.7-4,3.4-2.1,4.6,1.1.8,2.4,1.4,2.7,1.4,1.1,0,14.6-11.8,14.6-12.8,0-2.9-4.8-2.7-7.7.3h-.2Z"/>
    <path class="st0" d="M631.7,474.6c3-.6,3.4-1,1.4-1.4-1.4-.3-3.4,0-4,.8-1,1,0,1.1,2.7.6h-.2Z"/>
    <path class="st0" d="M716.3,533.5c-1,.3-.2.8,1.8.8s2.7-.3,1.8-.8c-1-.3-2.6-.3-3.5,0h0Z"/>
    <path class="st0" d="M738.1,436.5c0,1.1.5,2.1,1.3,2.1,1.6,0,3.2-3.7,2.1-4.8s-3.2.5-3.2,2.7h-.2Z"/>
    <path class="st0" d="M750.6,337.3c3.2-.8,9.1-6.2,6.7-6.2s-3.2,1.6-5.6,3.5c-3.7,2.9-3.8,3.4-1.1,2.7h0Z"/>
    <path class="st0" d="M752.5,342.6c-1.8,3.2,0,3.8,2.6,1.1,1.4-1.4,2.4-1.4,4.6,0,2.4,1.4,3,1.4,3.7-.8.5-1.4,1.4-4,2.4-5.8.8-1.8,1.1-3.7.6-4.2-1.3-1.3-12,6.1-13.9,9.4v.2Z"/>
    <path class="st0" d="M742.4,418.6c0-1.6-2.7-3.5-3.8-2.4s-.3,1.4.2,2.2c1.1,1.9,3.7,2.1,3.7.2h0Z"/>
    <path class="st0" d="M737.1,532.1c-1.4.3-.6.6,1.8.8,2.4,0,3.5-.3,2.6-.6-1-.3-2.9-.3-4.3,0v-.2Z"/>
    <path class="st0" d="M737.4,460.7c-6.4,1-8.3,2.7-4.8,4.2,3.4,1.4,7.7,1,10.4-1.1,4-2.9,1.8-4.2-5.8-3h.2Z"/>
    <path class="st0" d="M784,424.2c0-.8-.3-1.4-.6-1.4s-1.1.6-1.6,1.4-.2,1.4.6,1.4,1.4-.6,1.4-1.4h.2Z"/>
    <path class="st0" d="M696.3,158.3q-1.8-4.2-2.4-.8c-.3,1.9.3,4,1.3,4.6,2.7,1.6,3,.8,1-3.8h.2Z"/>
    <path class="st0" d="M673.1,216.5c-3,0-2.9,1.1.5,6.9,3,4.8,6.7,6.1,8,2.7,1-2.4-5.4-9.4-8.5-9.4v-.2Z"/>
    <path class="st0" d="M723.2,193.8c2.2-1.1,4.6-1.3,5.9-.5,1.9,1.1,1.8,1.4-1,2.2-2.4.8-3,1.8-2.4,4,.5,1.6,0,4.2-.6,5.6-2.1,4,0,8.3,5,10.6,5.9,2.6,11.4,2.6,17.4,0,5-2.1,6.7-6.7,3.4-8.8-.8-.5-1.1-1.9-.8-3,1.1-3-2.2-7.7-5.8-7.7s-5.1-.8-7.5-1.9c-3.5-1.4-4.2-2.2-2.7-3.5,2.2-2.2,10.4-2.2,15.2.2,2.1,1.1,5.9,2.4,8.5,2.9,3.8.8,4.6.5,4.6-1.8s-2.6-3.5-10.6-6.4c-5.8-2.1-12-3.7-13.6-3.7-3.2,0-15,5.9-18.6,9.4-2.9,2.9-.8,4.3,3.5,2.2v.2ZM741,210.8c.8,0,1.4-1,1.4-2.2s.6-2.1,1.3-2.1c2.4,0,3.2,2.9,1.4,5.1-1.9,2.4-5.6,2.7-5.6.6s.6-1.4,1.4-1.4h0ZM734.4,205c1.1,0,1.6,1.3,1.1,3.5-.6,3.7-2.4,4.6-3.8,2.2-1.1-1.9.6-5.9,2.7-5.9v.2Z"/>
    <path class="st0" d="M712.3,253.5c0-1.9-4.3-6.9-5.9-6.9s-1.4,5,.5,6.9c2.2,2.2,5.4,2.2,5.4,0Z"/>
    <path class="st0" d="M716.2,343.4c1.4.5,4.2,1.8,6.2,2.9q4.3,2.4,4.3,1c0-1.9-11.2-7.5-12.2-6.1-.5.8.3,1.8,1.8,2.2h-.2Z"/>
    <path class="st0" d="M762.1,236.9c.3-1-.5-1.8-1.8-1.8s-2.2,1-2.2,2.2c0,2.6,3,2.1,4-.6v.2Z"/>
    <path class="st0" d="M736,381.2c.6,1,1.9,1.3,3.2.8,1.1-.5,3.7-.8,5.6-.8,5.3,0,4.2-2.4-1.8-3.5-5.4-1-8.8.6-7,3.5Z"/>
    <path class="st0" d="M746.7,370.3c0-3.2-4.3-5.1-9.6-4.3-5.8,1-8.5,2.7-7,5,1.3,1.9,16.6,1.4,16.6-.6Z"/>
    <path class="st0" d="M753.9,266.6c0,2.1,4.6,1.8,8-.5,4.6-3.2,13.4-4,17.1-1.6,2.7,1.8,3.5,1.8,4.8.2,2.6-3-4.2-8.8-8.6-7.2-1.9.6-4.2,1-5.1.8-2.4-.5-16.2,6.7-16.2,8.3h0Z"/>
    <path class="st0" d="M738.6,400.4c-.5.5-.3,1.4.2,2.2,1.1,1.9,3.7,2.1,3.7.2s-2.7-3.5-3.8-2.4h0Z"/>
    <path class="st0" d="M741.1,388.4c-3,0-4.5.6-4.5,2.2s1.1,2.1,3.8,1.8c5.6-.6,6.1-4,.6-4h0Z"/>
    <path class="st0" d="M742.4,447.1c-1.6,0-2.9.6-2.9,1.4s1.3,1.4,2.9,1.4,2.9-.6,2.9-1.4-1.3-1.4-2.9-1.4Z"/>
    <path class="st0" d="M772.3,268.7c-1.6-1.1-4,1.8-4.2,4.8,0,1,1.3,1.8,2.9,1.8,3.2,0,4-4.8,1.3-6.6Z"/>
    <path class="st0" d="M721.6,553.2c1.1,1.8,13.1,1.8,17.1,0,1.9-.8-.5-1.3-7.7-1.3s-10.1.5-9.6,1.3h.2Z"/>
    <path class="st0" d="M939.5,384.1c4.5,0,5-.3,3.4-2.1-1-1.1-3.4-2.1-5.1-2.1s-3.4.8-3.4,2.1,1.6,2.1,5.1,2.1Z"/>
    <path class="st0" d="M926.4,510.8c-5.6,2.6-4.3,2.6,3.5,0,3.5-1.1,5.1-2.1,3.5-2.1s-4.8.8-7.2,1.9l.2.2Z"/>
    <path class="st0" d="M925.1,480.5c-6.4,2.7-13.8,4.3-10.9,2.4s0-1.9-5.9.2c-5.1,1.8-12.8,6.7-12.8,8.3s14.2,1.4,23.5,0c4.8-.8,9.8-2.6,11.5-4.2,1.6-1.6,5-3.5,7.4-4.5l4.3-1.8-6.2-1.1c-4.3-.8-7.7-.6-10.7.6h-.2Z"/>
    <path class="st0" d="M958.7,427.1c-1.8,0-3,1-3,2.2s1,2.1,2.4,1.8c3.5-.6,4-4,.6-4Z"/>
    <path class="st0" d="M962.4,417.8c2.6-1.9,2.2-2.1-4.8-2.1s-7.5.5-7.5,2.1c0,2.9,8.5,2.9,12.3,0Z"/>
    <path class="st0" d="M958.2,338.3c.8,0,2.4-1.1,3.5-2.6,1.8-2.2,1.8-2.4-1-.3-1.6,1.1-3.2,2.2-3.5,2.6-.3.2,0,.5,1,.5v-.2Z"/>
    <path class="st0" d="M965.1,383.3c1.1-.5,2.1-1.1,2.1-1.4s-1-.6-2.1-.6-2.1.6-2.1,1.4,1,1,2.1.6Z"/>
    <path class="st0" d="M957.1,255.3c1.4,0,3-3.5,3-6.9s-.3-2.1-2.1.3c-1.1,1.6-2.1,3.7-2.1,4.6s.6,1.9,1.3,1.9h-.2Z"/>
    <path class="st0" d="M942.1,396.9c1.3,2.1,15.4,1.9,20.3-.2,3.7-1.6,3.2-1.8-7.4-2.7-11.4-1-14.9-.2-13,2.9h0Z"/>
    <path class="st0" d="M954.4,470.5c0,.8,1.9,1.1,4.5.5,4.8-1,6.4-1.9,5.3-3-1.3-1.3-9.8,1-9.8,2.6Z"/>
    <path class="st0" d="M955.8,458.6c0,.8.6,1.4,1.4,1.4s1.4-.6,1.4-1.4-.6-1.4-1.4-1.4-1.4.6-1.4,1.4Z"/>
    <path class="st0" d="M979,477.2c4.6,1.8,5.3,1.8,5.3-.6s-1.4-2.1-4.3-2.1c-5.1,0-5.4,1-1.1,2.9l.2-.2Z"/>
    <path class="st0" d="M1009.6,531.6c1.1,0,1.8-.6,1.3-1.4s-1.9-1.4-3-1.4-1.8.6-1.3,1.4,1.8,1.4,3,1.4Z"/>
    <path class="st0" d="M985.4,505c-5.6-2.2-13.8-2.9-11.8-1,.6.6,4.5,1.8,8.5,2.7,4,.8,9,1.6,11,1.6s2.9,0,.8-.6c-1.6-.3-5.3-1.6-8.3-2.7h-.2Z"/>
    <path class="st0" d="M1008.8,511.6c2.7,1.8,10.1,1.8,10.1,0s-1.9-2.1-4.3-3c-3.4-1.4-4.8-1.4-6.1,0-1.3,1.3-1.1,2.1.5,3h-.2Z"/>
    <path class="st0" d="M897.1,540.4c0,2.7,6.9,1.1,10.1-2.2,1.9-1.9,2.9-3.5,2.4-3.5-2.4,0-12.5,4.8-12.5,5.9v-.2Z"/>
    <path class="st0" d="M959.8,344.7c-8.6,7-12.2,12.3-10.4,15.2.8,1.3,22.1-19.7,22.1-21.6s-2.2-1.4-11.7,6.4Z"/>
    <path class="st0" d="M956.5,402.8c-9.9,0-12.3.8-9.8,3.4,1.3,1.1,15.2,1.3,18.2,0,5.1-1.9,1.6-3.4-8.5-3.4h0Z"/>
    <path class="st0" d="M846.9,733.5c-.8,0-1.4.6-1.4,1.4s.6,1.4,1.4,1.4,1.4-.6,1.4-1.4-.6-1.4-1.4-1.4Z"/>
    <path class="st0" d="M896.2,684.2c-8.5-3.5-9-5.4-.8-3.5,7.8,1.8,14.1,1.6,22.4-.8,4-1.1,11.5-3.4,16.6-4.8,6.7-1.9,9.1-3.4,9-5-.5-2.6,4.3-5.6,7.2-4.5,1.3.5,2.9-1,4.5-4.3,1.3-2.7,3.7-5.8,5.1-6.6,1.6-.8,2.9-2.1,2.9-2.9,0-2.4-4.8-1.4-9.3,1.6-13.3,9.1-35.8,16-57.9,17.8-10.6.8-14.2,2.7-14.2,7.4s-1,1.4-2.1,1.1c-2.7-1.1-8.6,2.2-7,3.8s5.9,2.2,11.7,3.5c12.2,2.6,21.4,7,30.2,14.7,3.5,3,8,5.9,10.1,6.4,5.6,1.3,5.9,1.3,5.9,0,0-3.8-20.8-18.6-33.9-23.8l-.3-.2Z"/>
    <path class="st0" d="M934.2,718.6c0,.8,2.4,1.8,5.3,2.2,3,.5,6.7,1,8.3,1.1q2.7.2,0-1.8c-3.4-2.4-13.4-3.5-13.6-1.4v-.2Z"/>
    <path class="st0" d="M971.7,660.4c-6.4,5-19.8,11.8-29.9,15.2-4.2,1.3-7.8,2.9-8.2,3.5-1.3,2.1,1.4,4.2,5.6,4.8l4.3.6-4,1.6c-4.6,1.9-5.3,3.8-.8,2.4l3-1-3,4.3c-1.6,2.4-2.7,4.6-2.2,5.1,1.3,1.3,5.3-.8,10.6-5.6,2.7-2.6,8.5-7.2,12.6-10.2,9.4-7,17.4-16.3,18.4-21.1.8-4.6,0-4.5-6.4.5v-.2Z"/>
    <path class="st0" d="M844.2,745c-2.2-1.3-2.7-1.1-1.9.6.5,1.3,1.8,2.2,2.9,2.2,2.7,0,2.6-1.1-.8-2.9h-.2Z"/>
    <path class="st0" d="M997.9,494.5c2.1,0,3.7-.6,3.7-1.4s-1-1.4-2.1-1.4h-3.2c-.6,0-1.3.6-1.6,1.4s1.1,1.6,3.2,1.6v-.2Z"/>
    <path class="st0" d="M936.5,914c-2.2,0-2.9,1.6-1.1,3.4s3.4,1.1,3.4-1.1-1-2.1-2.1-2.1l-.2-.2Z"/>
    <path class="st0" d="M907,248.1c.8,0,1.4-.6,1.4-1.4s-.6-1.4-1.4-1.4-1.4.6-1.4,1.4.6,1.4,1.4,1.4Z"/>
    <path class="st0" d="M988.8,178c0,.8.5,1.3,1.1,1.3,1.4,0,16-15,16-16.5s1-3.2,2.2-5.8c1.3-2.6,2.1-6.7,1.8-9.3-.5-4-1-3.4-5.3,6.7-2.9,6.7-7,13.3-10.4,16.6-3,3-5.6,6.1-5.6,6.9h.2Z"/>
    <path class="st0" d="M894.4,285.7c-.3,1.9.5,2.6,3.8,2.6,4.8,0,6.2-1.3,4.6-4.2-1.6-2.6-7.8-1.4-8.5,1.6h0Z"/>
    <path class="st0" d="M937.8,200.9c.6,0,.3-1-.6-2.2-1-1.1-2.4-2.1-3.2-2.1s-1.1,1-.6,2.1c.6,1.4,0,2.2-2.1,2.2s-2.6-.6-2.1-1.3c1.8-2.9-2.1-2.7-8.5,0-5.6,2.6-6.4,3.4-5,5.1s1.4,2.4-.3,3.5c-1.6,1.1-1,2.4,3.5,6.6,4.6,4.3,6.2,5,9.9,4.3,17.1-3.4,19.4-5.9,12.2-13.3-2.6-2.6-4.2-4.8-3.5-4.8l.3-.2ZM927.8,213.5c-3,.2-6.4-2.2-6.4-4.6s.8-.3,1.8,1c1,1.3,3,2.6,4.6,3,1.9.4,1.9.7,0,.8v-.2ZM937.9,210.9c-1.3,2.1-4.6,1.6-5.6-1-.5-1.3-.6-2.6-.3-3,1.1-1.1,6.7,2.6,5.9,4Z"/>
    <path class="st0" d="M934.2,184.5c-6.2-.6-9.1-.2-13.6,2.1-3,1.6-6.2,2.9-7,2.9-1.8,0-6.6,4.5-6.6,6.1s9.9-.2,16-3.5c4.2-2.2,7-2.7,13.1-2.2,5.9.5,8.2.2,8.6-1.3,1-2.4-.3-2.7-10.7-3.8l.2-.2Z"/>
    <path class="st0" d="M901.9,272.5c-1.3,1.1-2.7,1-4.8-.3-3.8-2.4-7.8-.2-8.5,4.6-.5,2.9,0,3,1.6,1.6,3.4-2.7,13.9-3.2,17.8-.8,3.4,2.2,7.7,1.8,7.7-.8s-11.7-6.1-13.8-4.5v.2Z"/>
    <path class="st0" d="M992.8,164.2c1.8.6,3.2-1.1,5.9-7.2,4.2-9.4,3.5-11.2-1.3-3.4-1.9,3.2-4.6,5.6-6.1,5.6-3.4,0-3.2-1,1.1-6.7,2.9-3.7,3.4-5.3,2.2-7.4-1.3-2.4-1.4-2.2-1.4.3s-3.7,6.2-8.2,10.4c-6.4,5.9-7.7,7.7-5.8,8.5,1.3.5,2.4,1.8,2.4,2.9,0,2.9,2.4,2.4,5.8-1,1.6-1.6,4-2.6,5.4-2.2l-.2.2Z"/>
    <path class="st0" d="M881.3,484.2c0,.8.5,1.6,1.1,1.6,1.6,0,9.3-10.1,8.5-11-1-1-9.4,7.4-9.4,9.4h-.2Z"/>
    <path class="st0" d="M600.8,638.9c2.9,1,6.7,3.2,8.5,5.1,4.3,4.6,5.6,3.2,1.9-1.9-2.7-3.5-22.6-13.3-27.4-13.3s-2.2,2.9.6,3.8c1.4.5,4.5,1.6,6.9,2.7,2.4,1,6.6,2.6,9.4,3.5h0Z"/>
    <path class="st0" d="M537.8,859.9c-1.9.2-3.7,1.1-4,2.2-.8,2.4,1.4,2.2,4.8-.3,2.7-2.1,2.7-2.2-.6-1.8l-.2-.2Z"/>
    <path class="st0" d="M527.2,701.8c-1.3,1.3-1.3,2.1.3,3,2.7,1.6,3.5.8,2.2-2.2-.8-1.9-1.3-2.1-2.7-.8h.2Z"/>
    <path class="st0" d="M753.9,749.3c-.8,0-1.4.6-1.4,1.4s.6,1.4,1.4,1.4,1.4-.6,1.4-1.4-.6-1.4-1.4-1.4Z"/>
    <path class="st0" d="M771.7,713.3c-.5-.8-5.1-1.3-10.4-1.1-8,.2-8.6.3-3.8,1.1,9.4,1.4,15.2,1.4,14.2,0Z"/>
    <path class="st0" d="M778.2,935.4c.8,0,1.4-.6,1.4-1.4s-.6-1.4-1.4-1.4-1.4.6-1.4,1.4.6,1.4,1.4,1.4Z"/>
    <path class="st0" d="M517.3,693.5c-1.6,0-.3,7.7,1.9,12,1.3,2.4,1.6,2.4,3.5.6,1.8-1.8,1.8-2.7-1-7.4-1.8-2.9-3.7-5.3-4.5-5.3h0Z"/>
    <path class="st0" d="M989.3,497.7c-1.4,1.4.2,2.6,5.4,3.8,6.9,1.6,12,1.6,10.4,0s-14.7-5.1-15.8-4v.2Z"/>
    <path class="st0" d="M851.2,597.5c.8,0,1.4-1,1.4-2.2s-.6-1.9-1.4-1.3c-.8.5-1.4,1.4-1.4,2.2s.6,1.3,1.4,1.3Z"/>
    <path class="st0" d="M1425.1,384.7c-11.4,8.5-15.2,5.8-11.7-8.6,1.6-6.7,1.9-10.9,1.1-13.3-1.3-3.4-1.4-3.2-6.2,4.3-6.7,10.4-13.3,18.4-26.9,32.2l-11.2,11.5-1.8,12.2c-2.1,14.4-4.6,19.5-20,38.7-14.6,18.2-16.2,20-17.8,20s-1-12.3-.2-32.6c1.6-46.4,1.4-50.6-4.3-61.9-2.6-5.1-6.7-11.4-9-13.8-12.8-12.8-32.2-35.8-34.1-40.5-2.2-5.3-2.4-23.4-.3-25.4.5-.5,3.8,1.4,7.2,4.2,6.9,5.6,14.7,7,16.3,3,.5-1.3-.2-6.2-1.6-11-1.3-5-3-12.2-4-16-1-4-2.2-7.7-3.2-8.2-2.2-1.4-10.1-1.3-14.2.3-6.4,2.4-18.1,16-22.9,26.4-3.4,7.2-5,25.9-2.6,28.8s3.2,30.6,1.4,51.7c-.8,9.4-1.8,23.4-2.1,30.7-.6,13.4-2.4,47.5-3,57.3-.2,2.7-.3,8.3-.5,12.5,0,5-.8,7.5-2.1,7.4-1,0-5.9-2.2-11-5-5.1-2.7-10.9-5.8-13-6.7-1.9-1-4.5-2.7-5.6-3.7-2.4-2.4-31-16.2-41-19.7-9.6-3.5-10.2-4-20.8-16.3-5-5.9-15.2-16.5-22.6-23.7-14.2-13.6-20.8-21.9-22.2-28.3-.5-2.1-2.7-6.7-5-10.2-2.2-3.5-5.1-10.2-6.7-15-1.4-4.8-3.2-8.6-4-8.6s-.6-5,1.1-11.5c.6-2.6-14.1-18.6-17.3-18.6s-4.3-1.6-7.2-3.5c-3.4-2.2-7.2-3.5-10.7-3.5s-6.1-.8-7-1.6c-2.2-2.2-14.2-1.6-17.9,1-3.8,2.7-9.6,2.7-15.5,0-2.6-1.1-9.4-3.4-15-5-13.1-3.7-19.5-8.6-23.4-18.4-2.6-6.4-2.7-8.2-1.3-11.8,1.3-3.2,2.9-4.3,6.1-4.6,3.8-.3,5.1-1.8,9.8-10.4,2.9-5.6,5.4-11,5.6-12.2,0-1.1,2.1-5.1,4.3-8.6,16.3-25.9,16.2-25.6,16.3-38.1,0-8.6.8-12.5,2.7-15.5,2.7-4.2,2.4-6.2-2.2-16-1-2.1-1-4.8,0-8.6,2.4-8.6,1.9-12.2-2.4-16.6-3.2-3.4-3.8-5.3-3.7-10.7.3-7.8-1.3-10.4-6.7-10.4s-4-.5-4-5.1-5.1-12.5-12.5-15.8c-2.4-1.1-6.9-3.7-10.1-5.6s-7.4-3.5-9.4-3.5-4.6-1.3-6.1-3.5c-2.1-3-3.7-3.5-15.5-4.5-8.5-.6-14.7-.5-17.3.6-3.2,1.3-4.6,1.1-7-.6-4.2-2.9-8-2.7-13.6.6-2.6,1.6-6.6,2.9-9,2.9s-6.1,1.8-10.6,5.8c-3.4,3.2-6.4,5.4-6.7,5.1-.3-.3-2.4-1-4.5-1.4-3.2-.8-5.1,0-10.9,5.3-3.8,3.5-8.6,6.7-10.6,7.2-4.5,1.1-6.2,5.9-7.4,18.1-.5,6.9,0,11.4,1.9,17,2.6,7.7,2.4,12-.3,15.7-2.2,2.7-1.1,27,1.4,33.1,3.4,7.8,3.4,9.4.3,17.9-6.4,18.4-2.9,46.1,8.2,64.5,2.7,4.5,5.3,9.8,5.8,11.5.5,1.9,3.5,6.4,6.9,9.9,5.3,5.9,6.7,6.7,13.4,7.4,4.2.3,7.8,1.3,8.2,1.9,1.1,1.9-5.1,6.9-9.9,7.8-2.4.5-8.5,2.6-13.4,4.5-8.5,3.5-9.4,3.5-22.9,2.1-7.7-.8-18.7-2.7-24.6-4.5-7.2-2.1-14.9-3-23.8-3s-13.6-.6-14.1-1.3c-.5-.8-2.9-1.8-5.4-2.4-4.5-1-18.9-8.5-24.6-13-2.4-1.9-2.6-2.4-.6-3.5,1.1-.8,2.9-1.4,3.8-1.4s4.6-1.3,8.2-2.9c5.3-2.2,7-4,9.4-9.3,4.2-9.4,8.3-18.4,9.9-20.8,4.3-7.2,11.7-39.4,11.7-51s-1.3-8.5-2.7-13.1c-1.4-4.5-3-14.1-3.5-21.3s-1.6-14.4-2.6-15.8c-1.4-2.2-1.3-3.7.8-7.5,1.4-2.7,3-6.7,3.7-9,1.8-5.9-1-18.2-4.5-20.6-1.6-1.1-2.9-3.5-2.9-5.4,0-5.9-3-10.7-6.7-10.7s-6.2-2.4-10.9-9.1c-2.1-3-3.7-3.7-8.6-3.7s-7.4-1-9.1-2.1c-1.6-1.1-5.3-2.1-7.8-2.1s-12.6-.2-22.2-.6c-17.4-.6-17.6-.6-20.2,2.9-2.4,3.4-3,3.5-8.6,1.9-5-1.3-6.6-1.3-9.4.6-1.9,1.3-3.8,3.2-4.3,4.3-.5,1.4-2.9,2.1-7.2,2.1-8.8,0-13.4,2.1-16.3,7.2-1.9,3.4-3.4,4.3-7,4.3-5.9,0-13.4,6.1-13.4,11s-2.9,7-7.8,12.8c-4.3,5.1-8.2,11-8.6,13.1-.5,2.1-1.4,5.9-2.1,8.3-.8,2.4-1.4,6.7-1.4,9.6s-1.1,7.5-2.4,10.2c-2.4,5-2.4,5.1,1.6,10.9,3.7,5.3,4,6.9,4,17.6s.5,14.7,6.1,20.3c2.6,2.6,3.5,5.1,3.5,9.3s3.7,11.5,7.5,11.5,3.7,3.8,5.9,8.5c4.3,9.1,8.2,11.8,22.4,15,5.1,1.1,6.6,2.2,6.9,4.8.3,1.8,1.4,3.7,2.6,4.2,1.3.5,2.1,2.7,2.1,5.8v5l-4.6-5.4c-5.8-6.6-9.9-10.4-11.8-10.4s-4.6-2.2-8.6-5c-10.1-6.9-23.4-9.1-33.9-6.1-13.1,3.8-18.4,12-18.4,29.4s2.9,26.6,5.8,29.4,1.4,3.8,1.4,6.9c0,5-.5,5.6-5.3,7.7-17.8,7.4-23,21.1-36.8,98.1-1.3,6.7-3.5,18.6-5,26.6-3.4,17.4-3.5,27.8-.8,52,2.4,21,4.3,26.4,12.3,37,6.2,8.2,6.9,10.6,2.7,10.6s-5,1.9-7.7,4.3-6.2,4.3-7.8,4.3-5.6,3.7-11.7,12c-7,9.8-9.6,12.2-13.3,13-2.6.5-8.8,3.7-14.1,7-7.7,5-10.2,7.7-14.1,14.9s-6.2,9.9-8.3,11.2c-1.9,1.3-6.2,6.2-9.6,11-5.9,8.6-5.9,8.8-5.9,21.6s.6,14.2,3.8,21.6c3.8,8.6,4.8,14.1,6.1,35.7,2.6,44.5,5.4,61,19.5,115.4,5.4,21.3,3.5,33.6-8.2,50.2-22.1,31.8-23.5,34.2-23.5,43.5s.8,7,5.6,11.7c3.2,3,7.8,8.5,10.4,12.2,5.3,7.7,6.9,8.5,19,8.5s18.6-2.1,26.6-7.7c7.8-5.4,8.6-6.4,14.4-18.1,2.6-5.1,8-13.6,12.2-18.9,7.7-9.8,15.2-23,16.8-30.2.8-3.5-1.3-13.3-4.8-23.2-5.4-14.6-6.1-19-5-33.1.6-7.8,1.6-15.8,2.4-17.8.8-1.9,1.9-8.3,2.6-14.4,1.4-11.2,4.5-29,5.3-29.9.2-.3,2.9,1,5.8,2.9,8.6,5.6,10.9,6.9,14.7,8.6,5.6,2.7,8.6,5.6,8.6,8.6s1.6,4.3,3.7,6.4,5.3,6.4,7.4,9.6c6.2,10.1,9.1,12.3,21.1,16.2,11.5,3.7,18.9,3.8,24.8.6,1.3-.8,5-1.8,8-2.2,3.2-.5,6.9-2.4,8.8-4.3,1.8-1.9,3.8-3.5,4.6-3.5s1.9-1,2.2-2.1c.5-1.1,2.1-2.2,3.7-2.2s3.4,1.8,5.1,7.8c1.3,4.3,2.6,10.9,3,14.7.5,3.8,1.8,10.1,3,13.9,2.6,8,1.8,22.2-1.8,30.6-2.9,7-2.6,20.6.6,28.8,5.3,13.3,7.4,22.9,7.4,34.7s1,16.5,2.1,22.1c1.9,9,2.7,10.7,8.8,16.2,7.7,7.2,9.8,7.2,24.3.2,4.8-2.2,10.1-4.2,11.7-4.2s7-2.9,12-6.2c17.1-11.7,19.7-24.8,8.3-42.2-16.5-25.4-17.3-33.3-7.2-82.6,2.4-11.8,4.3-22.9,4.3-24.8,0-4.6,3.2-5.3,9.3-1.6,3.5,2.1,8.6,3.4,15,3.8l9.8.6,11.4-11.7c6.2-6.4,12-11.7,12.6-11.7s4,2.6,7.4,5.8c6.6,6.4,10.6,9.4,24.8,19,5.1,3.5,13.1,9.9,17.9,14.4s12.3,11,16.8,14.7c10.1,8,11.5,10.2,15.4,23.2l3,10.4-3,9.6c-5.6,17-7,24.5-7,34.1s2.2,16.6,10.4,24.5c5.1,5,7.5,6.1,15.2,7.4,5,.8,10.2,2.4,11.5,3.5,4.2,3.5,13.4,4,19.7,1,6.7-3.4,10.2-7.2,12.8-14.2,2.9-8.3,4.2-28.3,2.2-38.4-1.4-7.7-1.3-10.6,1.4-21.4,1.6-6.9,3.4-17.8,3.8-24,.6-10.1.3-12.5-2.7-19.4-2.2-5-6.4-10.6-11.2-15-18.6-17.3-28.2-27.8-32.5-36-2.6-4.8-4.6-10.2-4.6-11.8,0-2.9.6-3.2,6.9-2.7,7.7.5,22.1-3.4,24.6-6.6,2.4-2.9,5.6-2.7,13.6.6,3.7,1.6,7.8,2.9,9.3,2.9,3,0,3.2.5,6.4,17.1,1.3,6.7,3,14.6,3.7,17.4,1.9,7.4,1.6,18.4-.8,34.9-2.9,18.7-2.7,23.5.8,32.6,2.7,7.2,10.1,17,12.8,17s4.5,2.9,8.3,6.4c6.7,6.1,14.7,19.5,14.7,24.6s6.1,15.2,10.9,17.1c7.4,3,15.7,2.6,19.5-1.3,1.8-1.8,3.7-3,4.3-2.9,1.4.5,9.6-4.3,9.6-5.6s1.9-2.1,4.3-3.4c4.6-2.4,6.4-5.8,11.2-20.8,3-9.4,2.1-13.6-4.6-21.6-9-10.9-13.8-16.5-20.3-23.4-3.2-3.4-6.9-7.8-8.2-10.2-1.4-2.2-4.2-6.4-6.1-9.1-4.2-5.8-4.6-12.3-1.6-28.8,2.9-15.5,4.6-22.4,8.6-34.1,1.9-5.8,3.7-11.2,3.7-12.3s1.6-6.7,3.5-12.6c1.9-5.8,3.2-11.7,2.7-13.1s0-5,1.3-7.8c1.1-2.9,3.4-10.4,4.8-16.6s4.6-15.8,7.4-21.1c4.5-9.1,4.8-10.6,5.1-26.6.5-27.4-2.2-35-18.2-52-6.2-6.6-9-10.6-9.1-13.4-.3-5.6-5.1-13-10.7-16.5-2.6-1.6-6.4-4.8-8.5-7l-4-4.3,5.4-10.6c4.8-9.3,5.4-11.7,5.3-20.5,0-12.8-3.5-18.7-15.2-26.7-6.2-4.2-8.3-6.4-7.7-8,.5-1.3,1.4-8.8,2.2-16.6,1.8-19.7,2.4-21.8,8-29.1,5.6-7.2,9.1-14.9,9.1-19.5s.8-4.3,1.9-5.8c1.8-2.4,3.2-1.4,17.9,13.3,8.8,8.8,16.6,16,17.4,16s2.1,1.6,3,3.5c1,2.2,3.4,3.8,6.1,4.5,2.4.5,6.7,2.7,9.4,4.8,14.6,11.2,23.8,17.3,26.2,17.3s9.6,3.5,18.1,7.8c8.5,4.3,16.2,7.8,17.1,7.8s6.2,1.8,12,4.2c6.2,2.4,18.6,5.3,30.6,7.2,11,1.8,22.2,3.7,25.1,4.2l5,1v18.7c0,14.2-.5,19.4-2.1,21.6-14.6,20-36.2,46.2-39.5,48.2-1.6,1-1.9.5-1.3-2.1.5-1.9,0-4.5-1.3-6.1-2.1-2.7-2.2-2.7-5-.3-1.6,1.4-5,7.7-7.5,13.9s-5.8,12.8-7,14.6c-1.4,1.8-5.3,8.5-8.6,15-5.1,9.9-5.9,12.2-4.2,13.1,1.3.8,2.9.6,4.5-.5,13.6-10.1,20.6-16.2,32.8-28,7.8-7.7,14.2-14.7,14.2-15.7s-1.6-2.1-3.5-2.6-3.5-1.1-3.5-1.6,5.1-6.2,11.4-13.3c6.2-6.9,12.5-14.2,13.8-16.3,4-6.1,5.8-4.6,5.8,4s-.6,8.3-1.1,8.8c-1.9,1.9-1,4.8,1.1,3.8,1.4-.5,2.2,0,2.2,1.4s-1,2.2-2.1,2.2-2.1,2.2-2.1,8.2c0,12.6-1.1,20.2-3,24.5-1,2.1-2.9,6.1-4.2,8.8-1.3,2.7-3.4,6.7-4.8,8.8s-2.1,4.8-1.6,6.1-.3,5.6-1.6,9.6c-2.6,7.8-2.4,18.4.8,29,2.1,6.9,14.4,19.5,23.4,23.8,7.7,3.7,13.1,3.4,20.8-1.3l4.6-2.9-.5-22.2c-.3-17.3-1-22.6-2.6-23.7-3.2-2.1-4-1.6-6.4,3.4-3.2,6.2-7.8,11-10.6,11s-6.2-9.1-5.1-19.8c1.3-12.2,8.2-25.4,19.2-37.8,4.5-5,9.1-10.4,10.4-12.2s4.5-5.6,7-8.6c14.2-15.7,26.7-37.3,30.2-52.2,1.3-5.8,2.4-7.4,6.1-9,2.4-1,6.6-4.2,9.1-7,4-4.5,4.6-6.6,5-13.4.5-14.9.8-16.6,3.2-22.1,3.2-7.4,2.9-11.4-1.3-19.2-1.9-3.7-3.5-7.8-3.5-9.1s-.6-3-1.6-4c-1.9-1.9,1-6.4,13.1-20.5,4.3-5.1,10.1-12.2,12.5-15.7,4.5-6.2,10.9-10.2,22.2-13.8,3.2-1,5.4-3.7,9.9-12.8,4.5-8.6,9.3-14.9,19.8-25.6,8.2-8.3,13.6-15,13.1-16.2-1-2.6-1.3-2.6-6.6,1.4l-.5.6ZM1199.8,650.6c-5.1,5.3-13.4,11-13.4,9.3s2.2-4.8,4.8-9.8c2.7-5,5.3-10.6,5.9-12.6.6-1.9,2.4-5.1,4-7.2l2.9-3.5-1,7c-.6,4.5-.3,7.7.8,9,1.3,1.6.5,3.2-4,7.8ZM1300.2,365.5c4.8,5.1,11.8,13.6,15.4,18.9,6.2,9.1,6.6,10.1,7.5,22.9,1.3,16.6-1.1,26.1-2.7,11.4-1.9-16.2-8-30.1-13.1-30.1s-2.4,1.3,2.4,12.2c5.1,11.2,7.5,31.8,4.3,35.8-4.3,5.1-6.1,1.8-4.3-7.7,3.2-17.1-9.1-52-24.2-68.2-22.1-24-25.8-29.3-18.6-27,4.2,1.3,9.6,4.6,9.8,6.1,0,1,5.6,7,23.7,26.1l-.2-.3ZM1320.3,475.3c-1,5.3-2.9,6.1-7.4,2.9-2.2-1.6-2.9-4.2-3.4-14.2-.3-8,0-12.3,1-12.3s1.8,3,1.9,6.7c.3,6.2.8,6.9,4,6.9s5.1,2.7,3.7,10.2l.2-.2ZM1303.4,466.1c-1.4-2.2.5-27.4,2.1-28.5.6-.3,1.1,4.3,1.1,10.4-.2,13-1.4,20.6-3.2,18.1ZM1305.3,471.4c0,.8-.3,1.4-.6,1.4s-1.1-.6-1.4-1.4c-.5-.8-.2-1.4.6-1.4s1.4.6,1.4,1.4ZM1274.9,294.5c5.8-5.9,10.4-9.3,13.1-9.3s6.1,5.6,7.5,14.7c1,6.4-1,7-5.9,1.8-4-4.2-5.4-4.3-9.1-1.1-2.6,2.2-2.9,2.2-5.6-.5-2.7-2.7-2.7-2.9,0-5.6h0ZM1266.6,306.1c1.8-1.1,4.3.3,4.3,2.2s-3.8,1.8-5,0c-.5-.8-.2-1.8.6-2.2ZM1264.8,315.7c1-.5,2.2-.3,2.7,0,.5.5-.3.8-1.9.8s-2.1-.3-.8-.8ZM1263.5,324.2c1.8-1.1,8.8-.6,8.8.6s-2.4.5-5.4.5-4.6-.5-3.5-1.3l.2.2ZM1263,430c.3-.5,1-17.6,1.4-37.9s1.3-37.6,1.6-38.4c1.6-2.6,4.5-.5,13.8,10.2,11.7,13.6,15,21.6,17.1,40.3,1.4,13.9.8,66.2-1.1,73.8-.6,2.9-18.7,17.3-27.2,21.6-6.6,3.5-7.4,1.6-7.8-20.5-.5-18.1,1-47,2.4-49.3l-.2.2ZM1259.7,551.3c1.6-5.6,1.8-5.8,7.4-5,3,.5,6.2,1.3,6.9,1.9s-2.1,5-6.1,9.4c-4,4.5-7.8,8.2-8.5,8.2-1.9,0-1.6-7.8.3-14.7v.2ZM1091,355.1c.5.5-.2,2.1-1.4,3.5-2.7,3-4.8,3.4-4.8.8s5-5.6,6.2-4.3ZM1063.7,331.9c1.4-2.1,4-3.7,5.6-3.7,2.7,0,2.9.6,2.1,7.2-.6,4.6-.5,7.2.5,7.2,2.2,0,7.2-5.4,7.2-8s.8-1.9,1.8-1.6c1.9.6,2.1,3.8.3,9.9-1,3.4-.6,4,1.8,4s3.2-1,3.7-2.1c.5-1.1,1.4-2.1,2.4-2.1,2.2,0-2.2,8-6.1,10.7-4.2,2.9-9.8,2.9-9.8,0s-1-2.1-2.2-2.1-2.1-1-1.6-3.5c.8-3.8.6-3.8-9.3,1.3-8.2,4.2-9.6,1.3-3.7-6.9,2.6-3.5,5.9-8.2,7.4-10.2v-.2ZM988.8,219.4c-.8,0-1.4-.6-1.4-1.3s.6-1.8,1.4-2.2,1.4,0,1.4,1.3-.6,2.2-1.4,2.2ZM997.1,230.9c2.9,0,1.9,5.1-1.6,8.3-4.2,4-5.3,3.8-5.3-.3s4-8.2,6.9-8.2v.2ZM997.3,252.4c-1.6,0-2.7,1.3-3,3.2-.8,5-4,5-4,0s1.1-5.3,4.3-7.5c2.4-1.8,4.3-4.3,4.3-5.8s.6-2.6,1.4-2.6,1.4,1.4,1.4,3.2c0,5.9-1.8,9.6-4.3,9.6l-.2-.2ZM993.4,194c-2.2.3-5.3,1.3-6.7,1.8-1.9.8-2.4.6-1.8-.5,1.3-2.1,18.1-10.7,19-9.8,1.3,1.3-6.6,7.8-10.6,8.5h0ZM1025.3,186.9c.5,1.1-.6,4.6-2.2,8-3,5.8-7,8.5-5,3.4.5-1.4,1.6-4.6,2.4-7,1.6-5.3,3.7-7.2,5-4.3h-.2ZM1023,166.5c0,3.4-5,13.6-7.2,15-2.1,1.3-5.9,10.7-5,12.3.5.6,1.8,1.3,2.9,1.3,2.7,0,2.6.8-1.1,5.8-3.4,4.5-2.7,7.4,1,4.3,3.5-2.9,2.9,2.2-.6,5.8s-3.8,7-.3,3.8c1.4-1.3,3.7-2.4,5-2.4,3,0,3.2,6.9.3,10.7q-1.9,2.6-1.3-1.1c.6-3.7-1.3-5.4-3-2.6-.5.6-2.1,1-3.5.6-2.2-.6-3,.2-3.7,4.5h0c-.5,2.9-1.4,5.4-2.2,5.9-2.2,1.4-3-6.2-1.3-11.5,2.9-8.5,2.6-15.2-.5-19.8l-2.9-4.2,5-4.5c4.5-3.8,7.7-9.1,14.2-22.7,2.2-4.6,4.3-5.1,4.3-1v-.3ZM888,128.5c1-2.4,3.4-3.2,3.4-1.1s-1,2.4-2.1,4c-2.1,2.9-2.9,1.3-1.3-2.9ZM888.5,139.3c0,4.2-1.3,5.4-3.4,3.4s-1-7.7,1.3-7.7,2.1,1.4,2.1,4.3h0ZM881.6,118.6c2.6-2.1,4.8-3.5,5.3-3,.3.3-.8,3.8-2.6,7.5-1.8,3.7-4.2,8-5.3,9.6-1.8,2.6-1.9,2.2-1.9-3.7s.6-7,4.6-10.4h-.2ZM843.4,342.3c.5-1.8,1.4-3.7,1.9-4.2,1.1-1.3,14.6.3,14.6,1.6s-2.7,2.1-6.1,3.4c-8.8,3.4-11.5,3.2-10.2-1l-.2.2ZM798.2,190.8c0,.8-1.6,1.4-3.5,1.4s-3.5-.6-3.5-1.4,1.6-1.4,3.5-1.4,3.5.6,3.5,1.4ZM791,205c-3.4,0-7.8-3.5-5.9-4.8,1-.5,1.6-.3,1.6.5s1.4,2.1,3.2,2.9c2.1.8,2.4,1.3,1,1.4h.2ZM792.6,122.9c.8.8,1.3,2.7,1.1,4-.6,3.2-2.6,1.1-2.6-2.6s.5-2.6,1.6-1.3l-.2-.2ZM778.7,129.8c.5,1.1.6,2.1.3,2.1s-1.3-1-2.2-2.1c-1-1.3-1.1-2.1-.3-2.1s1.8,1,2.2,2.1ZM776.8,144.2c0,5.9-2.2,4.2-5.6-4.3-3.4-8.6-3.7-10.6-1.9-10.6s7.5,11.2,7.5,15v-.2ZM775.2,108.2c2.7,3,3,3.8,1.4,7.2-2.2,5-2.9,4.8-5.9-1.3-4.5-9.1-1.9-12.6,4.5-5.8v-.2ZM741.1,105.7c3.4,1.1,8.8,2.1,11.8,1.9,6.9-.3,13.3,2.6,10.9,5s-1.9,3.4,3.5,6.6c4.6,2.7,5,3.2,2.9,5.3-3,3-7.2.6-9.3-5.3-2.4-6.7-10.2-11.5-10.2-6.2s-1.3,2.1-2.9,2.1c-4.6,0-3.4,3.4,4.3,10.4,4,3.7,7.2,7.4,7.2,8.2s-.6,1.8-1.4,2.2c-1.3.8-5-2.4-11.7-10.1-1.3-1.4-3.5-3.7-4.8-4.6-2.2-1.8-2.1-2.1,0-3.7,2.2-1.6,2.1-1.9-1.8-3.8-2.9-1.3-4.3-3.2-4.6-5.9l-.5-3.8,6.1,2.2.5-.3ZM762.1,128.7c-.8.8-6.7-6.4-6.7-8.2s1.1-1.3,4.3,3.2c1.8,2.4,2.7,4.6,2.4,5.1v-.2ZM755.7,140.7c-.5,1.6-1.3,2.9-1.9,2.9s-.8-1.3-.3-2.9c.3-1.6,1.3-2.9,1.9-2.9s.8,1.3.3,2.9ZM707.7,111.7c1.3-1.3,2.1-1.3,3.4,0s1,1.8-1.8,1.8-3-.3-1.8-1.8h.2ZM648.2,246.9c-1.3,1.3-1.8,1-1.8-1.8s.3-3,1.8-1.8c1.3,1.3,1.3,2.1,0,3.5ZM676.5,269.5c-.8,0-1.4-1.6-1.4-3.5s.6-3.5,1.4-3.5,1.4,1.6,1.4,3.5-.6,3.5-1.4,3.5ZM677.1,247.3c-2.2,1.8-2.4,2.4-1,5,2.6,4.2,2.2,4.6-1.6,3.7-2.4-.6-3.7-.2-4.3,1.4h0c-.5,1.3-1.4,2.2-2.2,2.2-3,0-3-3.2-.2-7.8,1.9-3,2.4-5.1,1.4-5.8-2.4-1.4-7,.6-8,3.7-1.6,5.3-3.4,2.7-3-4.5.2-5.3,1-7.8,2.9-9.3,3.5-2.6,1.9-6.7-2.4-6.1-2.1.3-4.2,2.4-5.8,5.8-1.4,2.9-3.2,5.4-3.8,5.4-1.9,0-3.2-5-2.9-11.2.3-8,.2-8.3-2.2-5-2.6,3.7-5.3,4-7.7,1.1-2.6-3,.5-11,6.4-17.3l4.6-5h-4.8c-3.8,0-4.8-.6-4.8-2.9s1-3.4,2.1-3.7c3.2-1.3,2.6-3.7-.6-2.7-1.9.6-3.8-.2-5.9-2.2l-3-3,4.8-5c4.6-4.8,4.6-5,1.6-5.8-5.3-1.4-4.2-7.8,2.2-14.7,5.1-5.4,5.3-5.8,2.1-5.8s-3.4-.6-3.4-1.3c0-1.9,10.2-10.1,12.6-10.1s1.6-1,1.1-2.1c-.5-1.1.2-2.4,1.3-2.9,1.4-.6,1.9-2.4,1.8-6.2-.3-5.1-.2-5.4,3.8-5.6,14.1-1,16.8-2.1,15.5-7-.8-3.4-.6-3.5,6.9-3.5s8.8-1,10.4-2.1c1.4-1.1,3.2-1.8,4-1.3.6.5,1.3-.2,1.3-1.4s1.3-2.2,3.5-2.2,3.4.6,2.7,2.1c-1.6,4,.5,6.6,4,5.1,1.8-.8,6.1-2.1,9.4-2.9,4.5-1.1,5.8-2.1,4.8-3.2-.8-1-1.8-3.2-2.4-5-.8-2.6-.5-3.2,1.9-3.2s3.2,1.3,3.8,2.9c.5,1.6,2.9,3.8,5.3,5.1,2.7,1.4,4,3,3.5,4.3-.5,1.3,1.6,4.3,5.1,7.7,3.8,3.7,5.6,6.4,5,7.8-1.4,3.7-3,2.6-8-5-4.6-7-8.8-9.4-8.8-4.8s1.6,3.5,3.7,5.1c3.5,2.7,3.5,2.9,1.1,5.8-2.4,2.7-2.4,2.9,2.1,6.7,5,4.2,9.8,13.9,7.7,15.2-.8.5-2.4-1.3-3.7-4-2.2-4.8-7.2-8.2-11.8-8.2s-3.5-1.1-5-2.4c-1.4-1.3-2.6-1.8-2.6-1s1,2.2,2.1,3.2c2.4,1.9,2.7,5.4.8,8.5-1,1.6-2.1,1-5.3-2.6-2.7-3-5.6-4.6-9-4.8-7.5-.6-7,2.7.8,6.4,8.2,3.8,11,6.2,9.8,8.3-.6,1-2.4.6-5.1-.8-5.4-2.7-7-1.8-7,4.5s0,5-2.9,2.9c-1.6-1.1-4.2-1.8-5.8-1.3-1.6.3-3.5,0-4.6-.8-1-.8-4-1.8-6.9-1.9-7.5-.8-6.7,3.4,1,5.1,6.4,1.3,6.1,1,8.5,14.1,1,5.9-1,7-5.9,3.2-2.9-2.2-13.6-3-13.6-1s1.3,2.4,2.9,3.8c2.1,1.9,2.4,3,1.3,4.5-1.1,1.3-1.1,2.7,0,4.6,3.2,5.9,2.1,7.4-4.8,6.4-5.1-.6-6.9-.3-9.3,2.2-1.6,1.6-3,4.3-3,5.8s-.8,4.5-1.6,6.4c-2.4,5.3.5,10.9,10.6,20.2,8.2,7.5,8.5,8.2,5.9,10.1l.6-.3ZM686.9,246.5c1.6-2.7,1.1-3.7-6.2-10.4-8.6-7.8-11.2-12.5-11.2-20.5s0-5.1,4.6-4.2c2.6.5,5.8,2.2,6.9,3.8,1.9,2.6,2.7,2.7,5.4,1.3,2.9-1.6,3-2.4,2.4-11.8-.8-11.5,0-13.1,6.7-10.6,3.7,1.4,4.5,1.3,5.9-1.3,1-1.6,1.8-3.8,1.8-5s.3-3.7.5-5.4c.2-2.7.6-3,3-1.8,5.6,3,7,1.9,7.5-6.1l.5-7.5,2.9,3.2c6.1,6.9,11.4,2.1,10.6-9.3-.5-6.9,2.1-10.1,3.8-4.8,1.3,4.2,7.8,11.5,10.1,11.5s7-5.6,8.3-9c.3-1.1,2.1-.3,4.6,2.2,6.7,6.6,9,5.3,10.6-5.8l1-6.7,5.4,4.6c3.7,3.2,7,4.8,10.7,5,2.9.2,6.6.5,7.8.6,2.9.3,6.9,7.2,6.9,11.7s-2.1,4-9,7.2c-5.8,2.7-10.7,6.2-13.9,10.1-7.5,9.3-9.4,24.6-4.3,33.4,2.2,3.7,2.7,6.4,2.1,9.9-1.1,5.6,1.6,8.8,6.2,7.4,2.7-.8,2.9-1.6,2.1-7.7-.5-3.7-2.2-10.4-3.7-14.9-3.8-11.8-1.9-21.9,4.8-24.3,3.2-1.3,3.2-.2-.3,4.3-1.6,2.1-2.9,5.4-2.9,7.7,0,3.7.6,4.2,6.7,5,4.2.6,8.5.3,11.5-.8,5.9-2.1,7.2-1.4,8.3,5.3,2.2,13.8-12.6,61.9-21.1,69-1.6,1.4-1.9,2.6-1,3.7,1,1.3.3,2.7-2.2,5.1-3.4,3.2-4.8,3.5-18.2,3.4-13.6,0-15.2-.3-23.5-4.6-5-2.6-9.6-4.3-10.4-3.8-2.7,1.6-1.1,5.8,3.7,9.6,5.9,4.6,6.4,6.7,1.4,6.7s-4.8,3.7-.5,4.8c1.8.5,5.9.5,9.3,0,7-1,8.6,1.4,2.6,3.8-11.4,4.5-11.2,4.3-9.4,6.1s2.4,1.3,4.5,0c1.6-1,5.3-1.8,8.2-1.8s7.5-.6,10.1-1.3c2.7-.8,4.6-.8,4.6,0,0,1.9-8,5.6-12,5.6s-6.1,2.6-3.2,5.4c2.2,2.2,3,2.1,10.9-2.2,9.9-5.4,13.3-5.9,9-1.3-4,4.2-3.8,4.8,0,4.6,1.8,0,3.7-1.3,4.3-2.6,1.3-3,5.1-3.2,8.8-.3,2.7,1.9,2.7,2.2,0,5-2.6,2.7-2.6,2.9,0,2.9s3.4-1.1,4.3-2.4c2.6-3.5,9.8-1.4,8.6,2.4-1.1,3.4,0,3.7,3,.6,1.1-1.1,3.7-2.1,5.6-2.1s3.5.8,3.5,3.2,0,2.9,1.9.6c1.3-1.6,3.4-2.4,6.1-2.1,3.7.5,4.2,1,4.2,5.1s1.9,6.1,3,.3c.8-4.2,4.8-6.9,7.7-5,.8.5,1.1,3.5.6,7.2-1.1,8,1.4,8.5,2.7.6.6-4.2,1.6-5.8,3.5-5.8,4,0,5.9,2.9,5.9,8.5s-1,5.8-7.5,10.9c-16.5,12.5-26.4,26.2-29,40-.6,3-2.9,8.3-5.1,11.5s-6.7,11.2-9.9,17.4c-5.6,11-6.1,11.7-11.7,12.6-6.4,1.1-7.2,4.6-1,3.8,2.1-.3,3.8,0,3.8.5,0,.8-4.2,9.4-5.1,10.6-.2.3-2.1-.6-4.2-1.9-6.4-4.3-11.5-1.4-11.2,6.1,0,1.9-5.1,1.1-9.9-1.3s-5.1,1.6-1.8,4c1.4,1.1,3.4,1.9,4.3,1.9,2.6,0,3.8,4.3,1.9,6.6-3.5,4.2,2.9,6.6,9,3.4,5.1-2.7,5.6.3,2.2,16.3-3,15.2-3.2,15.4-6.7,14.4-5.8-1.4-7.5-1.4-8.2.3-.5,1.4,4.5,3.7,8.8,4,1.9.2,2.7,5.1,1,5.1s-1.9-.6-2.4-1.4c-1-1.6-3.5-.5-3.5,1.6s1.3,1.3,2.7,1.3c4.3,0,4.8,2.2,1.6,8-2.1,3.8-2.4,5.8-1.3,7.2,2.7,3.4.6,5.4-5.1,5-6.4-.5-5.9,1.9.6,3.2,2.7.6,4.8,2.1,5.6,4.2,1.8,4.6.8,5.4-6.4,5.4s-6.4.6-6.4,1.6,2.1,1.3,6.2.8c5.1-.6,6.7-.3,8.8,1.9,3.7,4.2,1.4,5.8-7.5,5.8s-7.5.5-5.9,1.4c1.1.8,5.8,1.4,10.2,1.4s8.6.6,10.6,2.9c2.6,2.7,2.4,2.9-.8,4.2l-3.4,1.4h3.4c3.7.2,8.8,2.6,8.8,4.2s-3.4,1.9-7.5,2.9c-10.7,2.6-20.6,2.1-29.3-1.4-8.2-3.2-9.3-5-4.3-5.9,1.8-.3-2.1-.6-8.5-.5-14.1.2-17.1-1.4-12.2-6.7l3.2-3.4-3.5.6c-3.2.6-3.5,0-4.3-7.4-.5-4.5-.6-8.6,0-9.4.5-.8,0-1.3-.6-1.3-2.4,0-1.8-5.9,1-8,2.2-1.8,2.2-1.9-.8-1.9-4.5,0-4-2.9,1.4-7.7l4.6-4-5,1c-6.6,1.3-4-1.6,3.7-4.3,8.6-3,8.3-5.6-.8-4.5-5.3.6-7.2.5-6.6-.6.5-.8,1.8-1.3,2.6-1,1,.3,2.9,0,4.5-1,2.6-1.4,2.4-1.6-2.1-2.2l-5-.8v-11.4c0-11.2,0-11.5,3.5-11.7,1.9-.2,6.7-1.6,10.6-3.4,5.3-2.2,6.6-3.4,5.4-4.6-1.3-1.3-2.6-1.1-5.3,0-5.1,2.2-10.1,2.2-8.2,0,3-3.8,1.6-6.2-3.5-5.6-4.2.5-4.8,0-4.8-2.6s-1-8-2.1-14.1c-4.6-23.5-5.1-27.4-5.6-46.1-.3-14.4-1.1-20.8-3-25.1s-2.6-10.4-2.9-24.3c-.5-22.7,0-26.2,4.5-27.4,2.4-.6,3-1.6,2.6-3.5-.5-2.1.6-3.4,5.6-5.4l6.2-2.7h-6.1c-3.4-.2-6.1-.8-6.1-1.6s1.3-1.4,2.9-1.4,5-1.1,7.5-2.6l4.6-2.6-7.8-.5c-9-.5-13.6-3.2-5.4-3.2s6.2-.3,7.5-.8c3-1.1,2.9-4.8-.3-4.8s-4.6-1.6-7-3.7l-4.5-3.7,3.4-3.7c3.8-4.2,3.4-6.2-1.6-6.2s-4.6-2.2-.6-3.5c4.3-1.4,3.5-5-1.4-5.9-4.5-1-5.6-2.6-2.6-3.8,1.3-.6,1.3-1.3-.5-2.6-1.3-1-3.4-4.3-4.6-7.2-2.1-4.5-2.2-5.8-.6-8.3l-.6-.5ZM773.3,455.1c-.6,2.2-1.8,4.6-2.7,5.1-1.9,1.1-2.2,1.3-5,.2-2.4-1-.8-3.4,2.4-3.4s2.6-1,2.4-2.4c0-1.3.6-2.7,1.8-3,1.6-.6,1.8.2,1,3.4l.2.2ZM733,581.5c-.3-.6-4-2.9-8.2-5-15.7-7.8-10.6-8.3,13.3-1.3,14.7,4.3,15.2,4.5,13.8,5.9s-18.1,1.6-18.9.3h0ZM763.5,611.1c1.9,3.2,4.5,6.2,5.6,6.9,1.9,1.1,9.1,15.5,9.1,18.2s-3.4,0-8.8-9.1c-3.4-5.6-7.7-11.8-9.8-13.8-5.1-4.8-13.9-10.2-16.5-10.2s-4.8-9.4-3-11c2.6-2.6,17.4,9.6,23.4,19ZM692.5,571.6c-5.8,4-8,3.8-3.7-.5s3.5-5.1,3.5-7.2-.6-3.7-3.7-3.7-3.7,0-1.4-3.5c3.4-5.1,2.9-8-1.3-8s-3.5-.8-3.5-3.4,2.9-6.9,7.2-8.6c1.1-.5-1.3-.6-5.3-.3-6.1.5-7.4.3-6.7-1.4.5-1.1,1.3-2.1,1.8-2.1s2.2-1,3.7-1.9c2.6-1.8,2.6-2.1.3-4.3-1.4-1.4-4.2-2.2-7-1.9-6.6.5-7-3.4-1-8.8,4.3-3.8,4.5-4.3,2.1-5.3-1.4-.6-4-.3-5.6.8-1.6,1-3.2,1.3-3.7.8-1.4-1.4,4.3-5.1,6.9-4.3s16-3.7,19.2-6.2c2.4-1.9,5.8-.8,4.3,1.4-.5.8-2.4,2.1-4.3,2.7-4.5,1.8-4.5,5.3,0,7,4.6,1.8,4.6,5.4,0,6.6-4.6,1.1-4.2,5.6.6,5.6s5.6,3.2,1.3,3.8c-4.5.6-5.3,5.1-1,5.8,4,.6,5.8,8.3,1.9,8.3s-2.7,5.6,1.3,6.6c5,1.3,6.1,5,1.4,5s-4.6,4,0,5.6c3.4,1.3,5.8,6.6,4.3,9-.3.6-2.2.8-4.2.3-2.2-.6-4.8,0-7.7,2.1l.2.2ZM693.9,586.9c-1.3,2.4-1.6,2.1-1.6-1.6s.3-3.8,1.6-2.6c1.1,1.1,1.1,2.4,0,4.2ZM662.7,502.8c-1.3-1.9,4.8-6.9,8.3-6.9s2.2.3-.6,4.3c-3.4,4.5-6.1,5.4-7.7,2.7v-.2ZM679.8,495.9c.6-4.6,3.2-6.2,7.5-5.1q3.8,1,1.1,3.7c-1.4,1.4-4.2,3-5.9,3.5-2.7.8-3.2.5-2.7-2.1ZM617.6,303.3c.8-.5,1.6,0,2.1,1,.8,2.1,12.5-9.8,12.5-12.6s-2.6-3.5-7.8,0c-2.9,1.9-5.6,3.5-6.1,3.5-1.4,0,1.3-9.4,3.5-11.8s2.4-2.4,3.4.5c1.1,3,1.3,2.9,9.6-1.8,7.4-4,9-4.5,11-2.9,1.4,1,3.7,2.2,5,2.7,1.4.5,2.1,1.6,1.6,3-1,2.6,3.4,6.2,6.1,5.1,1-.3,2.2,0,2.9.8.5.8,0,1.6-1.3,1.6-3,0-4.3,3.8-2.2,6.4,1,1.1,3.5,2.1,5.8,2.1,6.7,0,13.1,1.8,12.5,3.4-.3,1-1.9,1.4-3.7,1.3-5-.6-10.2,2.1-10.2,5.3s4,5.8,9.3,5.8,9.3,2.4,9.3,5.3-1,2.1-5,1.3c-5-1-10.7,1-10.7,3.4s4.3,5.6,6.4,4.8c1.1-.5,3.7-.5,5.6,0,3.4.8,3.4,1,1.3,5.1-1.1,2.4-2.7,4.3-3.5,4.3s-1.3,1.3-1.3,2.9,1.3,3.2,3.5,3.7c3,.8,3.5,1.8,3.5,5.9s-.3,4.8-2.7,4c-3.7-1.1-22.4,3-28.8,6.4-6.2,3.2-6.7,7.7-1.1,8.3,2.6.3,6.2-1.3,11.2-4.6,7.5-5.1,11.8-6.2,13.6-3.7.5.8,2.7,1.4,5.1,1.4,5.6,0,5.6,3.8,0,5-3.8.8-6.2,5-2.9,5s1.4,1.3,1.4,2.7,1.4,3.7,3.2,4.8l3.2,2.2-3.4,3.5c-2.9,3.2-3,4-1.4,6.6,1.1,1.6,2.7,3,3.7,3,2.6,0,3.8,2.9,2.1,4.6-2.6,2.6-1.9,6.6,1.3,8.5,3.5,2.2,3.7,4.8.3,6.1-2.2.8-2.1,1.3,1.1,3.7l3.5,2.7-3.5,2.7-3.5,2.7,4,1.4c4.6,1.8,5.3,5.9,1,5.9s-3.4,1-3.8,2.2c-1.1,2.7,2.1,5.1,5.6,4.3,1.4-.3,3.2.5,4,2.1,2.1,3.8,1.9,4-3.2,4.5-3.5.3-4.6,1.1-4.6,3.4s1.1,3,5.3,3.4,5.4,1.1,5.4,3c0,2.9-2.7,4.3-8,4.3s-3.7.6-4.2,1.3c-1.4,2.2,3,4.5,7.8,4.2,2.7-.2,5,.3,5.3,1.4.5,1.3-1,1.8-4.3,1.8-5,0-7.8,2.9-5.9,5.9,1.8,2.7-2.7,5.8-8,5.3-4.2-.3-6.4.6-10.9,4.2-6.2,5.1-10.1,6.1-7.8,1.9.8-1.4,4.5-5.9,8.3-9.9,6.6-6.9,6.7-7.4,3.5-8-3.8-.8-13.9,6.7-15.2,11.2-.5,1.9-1.3,2.4-2.2,1.4-1-1-.6-3.2,1.4-7,4.2-8,3.5-12.2-1.1-7.5-1.3,1.3-2.1,1.3-3.5,0-1.3-1.3-1-3.8,1.4-11.5,1.8-5.4,3.2-10.6,3.2-11.5,0-2.9-2.4-1.8-4,1.9-1,1.9-2.2,3.5-3,3.5-2.4,0-1.8-6.6.8-8.6,1.3-1.1,2.9-3.5,3.7-5.6l1.4-3.7,1.4,3.5c.8,1.9,1.4,4,1.3,4.6-.5,2.1,1.4,1,6.2-4,2.7-2.7,5.9-5,7.2-5s1.8-.5-.5-3.5c-2.4-3.2-2.9-3.4-5.8-1.4-4.8,3-5.6,2.4-1.9-1.6,1.9-1.9,4.2-3.5,5.3-3.5s1.9-.8,1.9-1.6-1.4-1.3-3.5-1c-4.5.8-4.5.3,0-5.4,5.1-6.7,1.9-7.5-5.8-1.3-4.6,3.8-6.4,4.6-6.4,2.9,0-3.8-3.4-2.6-6.1,2.1-2.4,4.3-5.4,4.6-5.4.5s6.9-13.4,8.6-13.4,1.4,1,1.4,2.1c0,3.7,2.7,4,7,1,2.2-1.6,4.8-2.9,5.8-2.9,2.2,0,1.9-2.2-.5-4.2-1.4-1.3-2.9-1.3-5-.2-1.6.8-3.5,1.6-4.5,1.6-2.7,0,1.8-5.6,5.6-7,3-1.1,3.2-1.3.8-1.4-1.6,0-4.6,1.4-6.7,3.5-2.1,1.9-5.1,3.5-6.6,3.5s-3.2,1.1-3.7,2.4c-1.3,3.5-4,.3-3.5-4,.3-2.7,1.3-3.4,4.6-3,4.8.5,15.2-5.8,15.2-9.1s-2.9-2.7-6.6,0-8,2.9-6.9,0c1.4-3.8-1-5.4-3.8-2.7-3.2,2.9-2.7,3.2-6.9-5.6-2.6-5.4-3-7.5-1.8-10.1.8-1.8,2.2-5.9,3.2-9.3,1.3-4.8,2.4-6.1,4.8-6.1,3.8,0,11.7-7.8,9.4-9.3-3.4-2.1-13.6,6.4-17.9,14.9-1.3,2.4-2.9,4.3-3.5,4.3-2.6,0-3-5.6-.8-10.7,2.6-5.9,1.4-9.8-1.6-5.6-3,4.3-3.8,1.3-1.4-5,3.2-7.8,3.2-13.6,0-12.3-2.1.8-4.6-1.1-4.8-3.5,0-.5,1.8-2.2,4-3.8l4.2-3-.6,3.5c-1.1,5.8,3.2,5.8,10.9,0,3.8-2.9,7.7-5.1,8.6-5.1s1.6-.6,1.6-1.4-1.4-1.1-3.5-.6c-2.2.6-3.5.3-3.5-.8s-1.1-1.3-2.9-.8c-2.2.6-2.6.3-1.9-1.3.5-1.3,1.4-2.2,2.1-2.2,2.1,0,1.4-2.6-1-3.4-2.7-1-8,2.1-15.4,9-4.5,4.3-5.6,4.8-6.7,2.9-2.1-3.2-1.8-3.8,2.9-6.7,2.4-1.4,4.3-2.9,4.3-3.4s2.4-3.2,5.1-6.1c4.5-4.5,5.4-8.2,2.2-8.2s-4.3,3.2-8.3,7.2-7.7,7.2-8.2,7.2c-1.4,0-1-6.9.5-7.8l-.2,1.1ZM650.4,497c5.6,10.6,9.4,29,7.7,36.5-.6,3-1.4,5.8-1.8,6.1-.3.3-2.4-2.7-4.6-6.7s-6.7-9.9-9.8-13c-6.4-6.6-6.7-9.6-1.3-21.6,1.6-3.7,3-7.2,3-8,0-3.7,2.7-1,6.9,6.9l-.2-.2ZM646.4,437c0-2.2,5.6-12.8,6.9-12.8s2.2,1,3.8,2.1q2.7,2.1-.3,2.1c-3,0-3.8,1.4-5.6,5-2.2,4.8-4.8,6.6-4.8,3.5v.2ZM584.2,547.6c-.5-1.6-1.4-3-2.1-3-2.1,0-5.4-14.7-7.4-31.2-1.9-18.2-1.3-30.6,3-50.4,1.6-7.5,4.2-20,5.6-28,7.4-41,10.2-52.6,16-67.7,3.4-8.6,11.4-16.5,16-15.8,2.4.3,3.7,2.6,6.2,10.9,1.8,5.8,5.3,14.1,7.7,18.4,3.7,6.7,4.6,9.9,5.1,18.9.3,5.9.8,13.9,1.3,17.8.3,3.8,0,8.5-.6,10.2-.8,2.1-.8,3.5,0,3.8.8.2,1.6,3.8,2.1,8,.3,4.2,1,8,1.3,8.6s.2,2.1-.5,3c-.6,1.1-.6,3,.3,4.5,2.2,3.5.5,6.7-4.5,7.8-6.2,1.3-5.6,4,.6,2.7,4.5-.8,5-.6,5,2.1s-.8,3-1.8,3-1.1.5.3,1.3c1.6,1.1,1.8,2.2.6,5.3-1.1,3.2-2.2,4-5.9,4.2-2.6,0-5.1.6-5.8,1.3-.6.6,0,1,1.8.8,6.2-.6,7.8,0,7.8,3.4s-2.2,6.1-7.8,6.4c-5.8.3-6.6,1.8-1.1,1.8s5.6,6.1-2.6,8.2c-2.7.6-5.1,2.1-5.6,3.2-.6,1.9,1.4,1.8,7.2-.6,1.4-.6,2.6-.3,2.6.6s-2.9,2.9-6.4,4.5c-3.5,1.4-6.4,3.5-6.4,4.5s-1.1,2.9-2.4,4.3c-2.2,2.4-2.2,2.6.3,2.6s5.4-1.1,8.8-2.4l6.2-2.4,6.2,6.4c6.1,6.1,6.2,6.6,3.8,9.1q-2.2,2.6,0,.8c5-3.7,7.5,2.4,3,7.2-3.2,3.5-1.3,5.3,2.2,2.1,2.4-2.1,2.9-2.2,4.5-.3,1.4,1.8,1.3,3.2-1.3,7.4-3.5,5.9-3.2,8.2.5,2.7,2.6-3.8,4.2-3.7,6.6.6,1.1,2.1.6,3.7-1.8,6.7-2.9,3.7-2.9,3.8-.2,1.6,1.6-1.4,3.7-2.6,4.5-2.6,2.1,0,3.7,5.1,2.6,8.6-.8,2.4-.3,2.9,2.6,2.9,4.5,0,7.2,3.4,6.1,7-.8,2.7-.6,2.9,2.7,1.3,4.2-1.9,8.5.3,7,3.8-.5,1.3,0,2.1,1.4,2.1s2.4-.8,2.9-1.8c1.4-4,2.9.8,2.9,9s.3,8.6,1,8.6,2.2-2.7,3.5-6.1l2.4-6.1,1.9,4.3c1.1,2.4,2.1,4,2.1,3.5s.5-3.2.8-6.2c1-8.8,3-9.1,4.8-.6,1.3,6.4,4.2,6.9,4.2.8s2.9-12.3,3.2-8.2v7.7c-.2,4,.3,5.4,1.6,5,1.9-.6,2.2-1.3,6.1-9.8l2.2-5v5.9c0,3.4.8,6.4,1.6,6.9,1.4.8,2.1-1,1.6-4.6-.3-2.2,5.9-2.4,8.2,0,2.1,2.1,2.2,13.6.3,14.7-1,.5-.6,2.7.8,5.9,2.4,5.9,2.7,12.8.6,14.1-.8.5-1.1,3-.6,5.8.5,2.7.6,4.8.3,4.8s-3.5-2.1-7.4-4.5c-4.3-2.7-6.9-5.3-6.9-7,0-3.4-1.8-3.5-4.3-.6-2.2,2.7-5,2.7-7.2,0s-4.8-1.3-3.8,2.2c.5,1.8,0,2.7-1.4,2.7s-2.4-1.3-2.9-2.9-1.6-2.9-2.7-2.9-1.9,1.3-1.9,2.9c0,4-2.1,3.5-4-.8-1.8-3.8-4.5-3.5-4.5.3s-3.5,1.1-5.4-4.3c-2.2-6.9-3.7-8.2-14.4-13.6-10.6-5.4-35-20.2-56.8-34.4-15-9.9-21.9-16.8-24.3-24.2v.5ZM718.1,677.7c-3.5,0-4.8-2.1-3.7-5.6.8-2.6,5.9-5.4,7.2-4,1.3,1.3,3.4,15.2,2.6,18.1-1,3.7-2.2,3.8-4.8.8-1.4-1.8-1.4-2.9-.2-5,2.2-3.7,2.2-4.2-1.1-4.2v-.2ZM713.9,649c3.5-1.4,4.5-1.4,5.6.2,1.9,3.2,1.6,5.6-1.1,6.6-1.4.5-3.7,1.9-5,3-2.2,1.9-2.6,1.8-3.7-1.3-1.8-4.6-.8-6.4,4.3-8.5h-.2ZM706.6,645.7c0-2.1,5.8-5.3,9.4-5.3s2.6,2.7-.5,3.7c-1.4.5-3.7,1.4-5,2.1-3.4,1.8-4,1.8-4-.6v.2ZM719.2,659.1c2.9,0,1.8,3.8-1.9,6.2-4.3,2.7-5.1,2.9-5.1.3s4.5-6.7,6.9-6.7l.2.2ZM654.2,749.7c-1.1-2.9-1.9-7.5-1.9-10.4,0-4.8,0-5,1.6-1.4.8,1.9,4.6,10.1,8.3,17.9s7.2,16.2,7.7,18.2c.5,2.2.8,3.8.5,3.8-3-.8-4.5-2.6-7.2-7.5-2.9-5.6-3.4-6.6-3.8-9.1,0-.6-.8-.3-1.3.8-.8,1.3-1.8.8-3.2-2.1-1.4-2.7-1.6-4-.5-4.3s1.1-2.1-.3-5.9h.2ZM662.7,805c-7,0-10.1-2.2-16.6-11.7-6.1-8.6-11.7-18.4-10.6-18.4s7.4,6.7,15.8,15c14.1,13.8,15,15,11.4,14.9v.2ZM653.9,774.3c.3-.3,3.8,2.1,7.5,5.6,3.8,3.5,7.8,5.9,8.8,5.6,3.2-1.3,10.6,2.6,10.6,5.4s-5,3.5-11.5,0c-5-2.7-16.8-15.4-15.5-16.6h.2ZM676.3,762.5c-5.3-5.3-12.6-16.8-12.6-20s14.2,15,14.2,16.8,1.4,2.7,3.2,3.5,3.4,2.6,3.7,3.8c.8,3.8-1.3,2.9-8.6-4.5l.2.3ZM678.9,676.7c-1.8-1.8-1-6.1,1.3-6.1s2.1,1.3,2.1,2.7c0,3-1.9,5-3.4,3.4ZM680.5,728.9c-.5,2.1-1.1,1.6-3-2.1-2.6-4.6-1.3-6.4,1.8-2.6,1,1.1,1.4,3.2,1.1,4.6h.2ZM678.7,643.7c-.5-2.6-1.8-5.1-2.7-5.8-2.1-1.3-5.1-6.6-5.1-9s.5-1.3,2.1,0c1.1,1,2.1,2.6,2.1,3.5s2.2,2.2,5,2.7c2.7.5,5,1.4,5,2.2s1.6,1.8,3.5,2.4l3.5,1.1-5.4,6.4c-5.9,6.9-5.8,7-8-3.8l.2.2ZM677.3,655.3c1.6,1.1,2.1,2.2,1.1,2.9-.8.5-2.2,0-3.4-1.3-2.4-2.9-1.1-4,2.2-1.6h0ZM673.4,702.3c-1.1.3-1,1.9.6,5.1,1.3,2.4,2.4,4.8,2.4,5.3,0,2.4-3,.2-5.6-4-4-6.4-3.8-9.1.6-9.1s5,1.8,1.9,2.9v-.2ZM673.6,727.1c0,2.1-2.6.3-4-2.9-1-1.9-2.2-3.5-3-3.5-1.6,0-3.8-9.8-2.6-10.9.6-.6,9.6,15.4,9.6,17.4v-.2ZM683,803.7c.5-.8,1.6-1.4,2.4-1.4s1,.6.5,1.4-1.6,1.4-2.2,1.4-1.1-.6-.5-1.4h-.2ZM685.9,662.9c2.4-8.5,5.4-15.2,7-15.8,1-.3,2.6,1,3.5,3,1.4,3,1.3,4-.2,5.3-1.1.8-3.4,3.5-5.3,6.1-3.8,5.4-6.6,6.1-5.1,1.4h0ZM696.6,665.5c1.9-1.1,2.1-.8,3.2,4.6.8,4,.2,5.3-3.7,9-5.1,4.8-6.7,5.3-6.7,2.4s5.4-14.9,7.4-16h-.2ZM689.9,701.7c1.1-4.6,7.4-14.2,10.4-16,3.2-1.8,4.2,0,2.1,3.7-1,1.8-4.5,6.1-7.7,9.6-5.3,5.9-5.8,6.1-5,2.6l.2.2ZM670.2,624.2c-.3.3-1.4-.6-2.4-2.4s-1.3-3.4-1-3.8c.3-.3,1.4.6,2.4,2.4s1.3,3.5,1,3.8ZM643.4,605.3c-1,1-2.6-.8-2.6-2.6s.6-.8,1.8.2c1,1,1.4,2.1,1,2.4h-.2ZM584,576.5c1.8-1.8,13.4-2.1,14.4-.5.6,1-1.9,1.4-7.2,1.4s-7.7-.5-7.2-1h0ZM564.6,594.6c1,0,1.6-1.1,1.6-2.6,0-3.2,7-7.5,12.5-7.5s4.8-.6,5.6-1.4,3.5-1.1,7.8,0c3.5.8,8.6,1.4,11.5,1.4s7.5,1.6,12.2,4.8c5.8,3.8,6.9,5.3,6.6,8.6-.3,3.7,0,3.8,5,3.8s6.4,1.1,16.6,12.2c11.5,12.2,13.9,13.9,13.9,10.1s2.6-2.1,5,4c1.3,3.4,4,8.2,5.9,10.7,1.9,2.6,3.8,6.7,4.3,9.3.5,3.1,0,3.6-1.6,1.4-1.3-1.8-3.7-3.2-5.1-3.2-3,0-3.7,2.1-1.3,3.7,2.9,1.8,5,10.2,8.3,32.5,1.1,7.8-.5,9-3.4,2.1-2.4-5.8-10.9-18.2-17.6-25.6-2.7-2.9-4.8-6.1-4.8-6.9,0-3.4-8-13.3-14.7-18.2-9.9-7.4-14.2-10.2-16.3-10.2s-5.3-2.4-9.6-5.1-8.6-5-9.8-5-4.6-1.6-8-3.5-10.1-4.2-14.9-5c-8.5-1.3-12.6-3.4-10.1-4.6.6-.3,4.5-1.8,8.5-3,7-2.2,7.8-2.2,17.9.5,17.1,4.6,20,5.6,22.1,7.2,1.4,1.1,2.2,1.1,2.9,0,1.8-2.7-1.4-4.5-15.7-8.6-13.3-3.8-14.1-4-24.8-2.1-6.1,1.1-11.4,1.6-11.7,1.3s0-.6,1.1-.6v-.3ZM538.7,612.7c9.4-4.8,38.2-5.9,41.9-1.6,1.1,1.4-.5,2.1-7.4,3.4-4.8.8-10.1,2.7-11.7,4.2-2.2,2.1-5,2.6-13,2.2-8.2-.2-11.4.5-17,3.2-3.8,1.9-7.2,3.5-7.7,3.5-3.7,0,7.2-11,14.6-14.9h.2ZM582.4,742.6c-5.9,1.6-6.1,3.8-.3,3.8s4.3.6,4.3,2.7-2.6,4.5-7.2,4.5-2.7.6-2.7,1.6,1.8,1.3,4,1.1c3.5-.3,4,0,4,3.8s-.6,4.5-4.2,5c-2.2.5-4.5,1.4-4.8,2.4-.5,1.3,1,1.4,4.6.8,5-.8,5.1-.6,4.8,2.6-.3,2.2-2.1,4.2-5.1,5.4-5.9,2.6-6.1,4.6-.3,3.5,4-.8,4.3-.6,4.3,3.5s-.6,4.6-5.8,6.1c-7,2.1-7.5,4.6-.6,3.4,4.3-.8,5-.6,5,1.8,0,4.2-1.8,6.1-8,8.3l-5.6,2.1h5.4c5,.2,5.4.5,5.4,4.3s-1,4.5-4,5.9c-2.9,1.3-3.4,2.1-1.8,2.6,4.8,1.6,5.3,5,1.3,9.1-2.4,2.4-2.6,3.4-1.1,4.2,1.3.8,1.8,3.7,1.6,8.8-.3,5.9-1.1,8.2-3.5,10.1-1.8,1.3-2.6,2.6-1.8,2.7.8,0,2.4.3,3.5.3s2.7,3.4,3.8,8.8c1,4.8,2.7,9.9,3.5,11.5,1,1.6,1.9,6.2,2.1,10.4.3,6.9.2,7.5-2.4,6.7-3.4-1.1-3.5-.2-.6,4.2,2.2,3.4,1.6,8-1.1,8s-2.7-1.1-4.2-2.4c-2.2-2.1-2.6-2.1-2.6-.2s1,3,2.2,4c2.7,2.2,2.7,5-.2,7.4-1.6,1.3-2.6,1.4-2.9.3-.3-1-1.4-2.9-2.6-4.3-1.8-2.4-1.9-1.9-1.1,4.8.6,6.2.5,7.5-1.4,7.5s-3-1.1-3.8-2.6c-1.3-1.9-1.4-1.4-.8,2.9.8,5,.5,5.6-3.5,7.8-2.9,1.6-4.3,3.4-4,5.3.3,2.6-.5,2.9-8.6,3-9.4,0-13.1,1.6-7.8,2.9,2.2.6,3.4,2.4,4,5.8,1.1,5.8-1.3,9-8.6,12.6-4.8,2.2-15,3-15,1.1s2.6-2.4,5.8-3.8c6.9-3.4,6.7-5.6-.5-6.2-2.9-.3-5.3-1.1-5.3-1.9s-1.1-1.1-2.2-.6c-1.9.8-2.1.2-1.4-2.9.8-3,.5-3.7-1.6-3.2-1.6.3-2.7,2.1-3,4.5-.2,2.1-1,3.8-1.8,3.8-2.1,0-3.4-7.2-1.6-9,2.6-2.6,1.9-3.7-3-5-5.6-1.4-6.7-5.3-2.9-11.4,4.8-7.7,23.4-33.3,24.8-34.1.8-.5,2.1-3.4,2.9-6.4,1.3-4.6,2.6-5.9,7.8-8.2,5.8-2.4,7.8-5.9,2.4-4.2-4,1.3-5.6-1-6.6-10.2-1-8-.6-9.1,2.1-10.9,2.9-2.1,1.6-5-1.4-3.2-.8.5-2.1-.8-2.9-2.9-1.1-3-1-4.5.8-6.2,2.9-3.2,2.7-4-1-4.6s-6.7-8.3-3.2-8.3,2.4-2.4-.8-3.4c-3.7-1-4-8.8-.3-10.9q2.4-1.4,0-1.4c-1.4,0-3.4-1.8-4.3-3.8-1.4-3.2-1.3-4,.8-5.6,3.4-2.4,3-3.4-.8-3.8-4.3-.6-5.3-6.2-1.1-7.7,1.6-.5,2.6-1.4,2.2-2.2-.5-.6-1.8-1-2.9-.5-1.3.5-2.7-.6-3.8-3-1.6-3.4-1.4-4.2,1-5.9,2.2-1.6,2.2-1.9.5-1.9s-2.6-1.6-2.9-4.3c-.5-3.4,0-4.8,2.2-5.9q2.9-1.6-.2-2.7c-2.1-.8-3.2-2.4-3.2-4.8s1-4,3.2-4.8l3.2-1.1-3.2-1.6c-3.5-1.9-4.3-8.5-1.4-11.4s1.1-1.8-.8-1.8c-3.2,0-3.2-4.3,0-4.3s2.2-.2.3-1.8c-3.4-2.6-4.3-7.8-1.8-9.8,1.8-1.4,1.8-1.9-.2-3-3.5-1.9-2.7-5.4,1.3-5.4h3.5l-2.7-7.8c-1.4-4.3-2.7-8.8-2.7-9.8s-1.3-3.5-2.7-5.4c-2.2-2.9-2.6-4.6-1.4-11,1.8-10.7,2.6-13,5.4-13.8,1.4-.5,4.2-2.6,6.1-4.6,3.4-3.5,3.4-3.7.3-2.1-5.1,2.7-5.4,1.9-1.1-2.7,4-4.2,4.8-4.5,11.7-3.7,4.2.5,7.8.2,8.3-.5,1.6-2.6,6.1-1.3,14.9,4.6,5.3,3.5,10.2,8.3,12,11.5,1.8,3,4.2,5.8,5.4,6.2,2.2.8,8.5,8,13.3,15.5,3.7,5.8,2.1,8.2-1.8,2.7-1.8-2.6-3.8-4.5-4.6-4.5-2.2,0-1.4,4.3,1.3,8.3,4.2,5.8,6.7,15.7,4.6,17.8s-2.1,4,.5,4,2.7,1.3-.3,4.6c-2.2,2.6-2.2,2.7.8,3.5,4.8,1.3,4,6.1-1.3,7.2-5.4,1.1-4.8,4.2.8,4.2s4.2.6,4.2,3.5-1,3.8-4.6,4.8l-.8-.8ZM707.4,699.1c-6.6,6.7-8.2,17.3-8.6,54.6-.6,51.2-4,63.2-19,69.6-5,2.1-14.6,2.4-20.6.6-9.4-2.9-18.2-9.3-22.4-16.5-10.2-17.1-19.5-45.8-22.2-69-2.9-23.4-9.8-42.9-24.3-68.5-9.4-16.5-25.3-31.5-40.5-38.2-3.4-1.4-6.4-3.2-6.9-3.8-.6-1.1,19-3.4,29.8-3.4s6.4-3-.5-4c-5.9-1-3.8-2.6,4.6-3.7,4.8-.6,9.8.3,22.2,4.3,8.8,2.9,16.5,5.8,17,6.6s1.4,1.1,2.2.6c.6-.5,5.6,2.6,10.7,6.7,6.7,5.4,10.7,9.9,13.6,15.5,2.2,4.3,7.2,10.9,11,14.6,5.9,5.6,7.8,8.5,10.9,17.8,2.1,6.1,3.4,11.5,3,11.8-.3.3-.6,0-.6-.8s-2.4-3.4-5.4-5.6l-5.3-4.2,2.7,4.2c1.4,2.2,2.9,7,3.2,10.6l.5,6.4-4.6-5.9c-4.6-5.8-8.3-7.7-8.3-4.3s1,2.7,2.1,4c2.7,3,4.8,12.3,2.4,10.9-1-.6-1.6-2.2-1.6-3.7s-.6-3-1.3-3.5c-2.6-1.6-2.9,1.9-.8,7.8,2.2,6.6,2.9,21.6.8,16.5-.6-1.6-1.3-4.8-1.3-7.2s-1.6-5.8-4.5-8.5c-3-2.9-4.3-5.4-4.3-8.8s-5.4-21.6-10.6-33.8c-1.3-2.9-3.4-5.3-4.5-5.3-3.4,0-1.8,6.1,7.2,26.4,1.1,2.4,2.4,7.5,2.9,11.5s1.9,8.6,3,10.4c1.1,1.9,3,10.9,4.3,20,1.1,9.1,3.4,20.6,5,25.3,3.7,11,3.5,13.9,0,9.3-8.6-10.9-10.2-14.2-11.4-23.8-1.8-13.8-4.8-27.4-7.7-34.1-2.9-6.9-3-8.6-.2-7.5,3.4,1.3,2.4-3.2-2.2-11.2-2.2-4-5-9-5.8-11-.8-2.2-2.1-4-2.7-4s-5.4-5.1-10.6-11.5c-8-9.8-19.8-21.4-21.8-21.4s2.1,5.9,7.2,11.5c21,22.6,29.9,38.2,32.2,55.8.8,5.9,2.1,13.3,2.9,16.5s1.6,8.2,1.6,11.2.6,6.7,1.4,8.2c1,1.8,1,3,0,3.5-1.6,1-5.8-6.6-5.8-10.6s-.6-3.2-1.4-3.7-1.4-3.2-1.6-6.2c0-3.5-.3-4.2-.8-1.8-.3,1.9-1.3,5.9-2.1,8.6-1.4,4.6-1.1,6.1,3.8,15.7,2.9,5.9,6.6,12.3,8,14.4,3.5,5.1,3.5,7.5,0,5.6-1.6-.8-3-1-3.5-.2-.8,1.3,4.5,14.6,6.2,16,.5.3,3.8,5.1,7.2,10.4,3.5,5.3,6.7,9.6,7.2,9.6s2.2,1.3,4,2.9c4.6,4.3,15.5,7.7,21.6,6.4,6.2-1.1,15.2-8,18.4-14.1,2.7-5.1,3.8-23.5,1.8-28.8-.8-1.9-1.8-11.4-2.2-21.1-1.4-27.2,2.1-42.6,12.5-53.9,2.2-2.6,4.8-4.2,5.8-3.5,1,.6.2,2.4-2.2,4.8h-.8ZM764.6,969.8c-1.3,0-2.1-.6-1.9-1.6.3-.8,1.1-1.6,1.9-1.6s1.6.6,1.9,1.6c.3.8-.6,1.6-1.9,1.6ZM778.4,792.7c-2.6,1-4.5,2.7-4.5,4.2s-.3,3.5-1,4.6c-.6,1.8.3,2.6,3.5,3.2,6.2,1.3,6.2,6.2,0,6.2s-4.3.6-4.3,1.4,1.9,2.2,4.3,3c4.8,1.6,5.8,5.4,1.4,5.4s-3.8,2.2-.8,3.4c3,1.1,2.7,3.8-.6,3.8s-5.3,2.9-1.6,3.8c2.2.6,3,1.9,3,5.6s-.5,4.8-3.8,5.1c-4.6.5-5.9,3.4-1.9,4.5,3.4.8,4,6.4,1,7.5-1.3.5-1.9,3.5-1.9,9.1s-.6,9.3-1.3,10.2c-1.6,2.6-1.8,17.3-.3,20.3.8,1.6.6,3.4-.3,4.6-1.3,1.6-1,2.9,1.3,5.8,3.8,5,3.8,7.2-.2,8.5-3,1-3,1.1,1,1.9,4.8,1.1,6.6,4,3,5.4-3.2,1.3-2.7,4.8.6,4.8,6.7,0,10.6,9.1,10.2,24.8,0,7.4-2.2,11.4-5.3,10.1-3.4-1.3-5.1.8-3.4,4.2,1.3,2.2,1.1,3.2-.3,4.2-3,1.9-3.7,1.6-5.4-3-1.4-3.5-2.4-4.2-5-3.5-1.8.5-3.7,0-4.2-.8-1.6-2.6-4.5-1.8-6.6,2.1-1.8,3.4-2.1,3.4-5.3,1.4-7.5-5-11,.8-4,6.2,2.2,1.8,3.4,3.8,2.9,5.1-1.1,3-5.8,2.7-8.8-.8-1.8-2.1-2.9-5.8-3.2-12.2-.5-8.8-.5-9.3,3.2-10.6,4.6-1.8,5-3.2.5-2.7-2.7.3-3.2,0-2.9-3,.2-1.9-.3-5.3-1.3-7.5-1.3-3-1.3-4.5,0-6.1,2.1-2.6.8-5.3-2.1-4.2-2.6,1-2.9-3.8-.5-6.2s.8-2.4-1.6-4.6c-2.9-2.9-2.9-3.4-.8-5.6,3.4-3.7,3-6.4-.5-4.5-4,2.1-4.2,2.1-5.8-3.8-2.1-7.7-1.9-17.6.8-25,1.3-3.4,2.6-10.7,3-16.3.5-5.6,1.4-10.7,2.1-11.7.8-1,.5-1.9-.6-2.4-2.4-1-4.2-19.5-2.2-22.1,1-1.1.8-2.1-.6-2.9-2.9-1.8-4.2-6.2-2.4-8.5,1.1-1.4.8-2.6-1.4-4.8-3.7-3.7-3.7-5.6-.5-8.2,2.4-1.8,2.2-1.9-.6-2.7-4.3-1.1-5.3-5.9-1.8-8.2,3.2-2.1,3.7-4.6.6-3.4-1.3.5-2.7-.3-3.7-2.1-1.3-2.4-1.1-3.4,1-4.8,2.4-1.8,2.4-1.9-.2-3.4-2.2-1.3-2.4-2.1-1-5.1,1-2.2,1.1-4,.3-4.5-2.1-1.3-1.6-5.1,1-8,1.9-2.2,2.1-2.7.3-3.4-2.1-.8-2.6-6.1-.8-9,1.6-2.6-.5-6.1-4.2-7-4.3-1.1-4.3-2.4-.2-5.3l3.2-2.2h-4c-2.2,0-4-.8-4-1.6,0-2.7,9.3-15.5,12.5-17.3,1.8-1,3.2-2.4,3.2-3,0-1.9-5.9.3-9.4,3.4-3.7,3.4-5.4,3.5-3.7,0,.8-1.4,5.8-4.8,11.2-7.4,9.4-4.6,10.1-4.8,23.8-4,7.7.5,14.7,1.4,15.7,2.1,1,.8,3.7,1.8,6.1,2.4,4.3,1.1,10.7,5.9,10.7,8.3s-2.4,1.1-5.4.8c-7.4-.6-7.7,3.5-.3,4.5s5.1,1.4,5.4,3.7c.3,2.7,0,2.9-7.5,2.4l-8-.6v4.6c0,2.6-1,5.6-2.1,6.7s-2.1,3-2.1,4.3c0,3.7,5.1-.2,7.8-5.8,1.9-4.2,3.2-5.1,6.6-5.1,5.3,0,7,2.7,3.5,5.3-2.6,1.9-2.6,2.1-.2,3.8,2.9,2.1,3.4,6.1.8,6.9-1.1.3-1,1.6.8,4,3,4.3,3.2,8.5.3,8.5s-2.2,1-2.2,1.9,1,2.4,2.2,2.9c3.2,1.3,2.6,3.5-1,4-4.6.6-5.1,4-.6,4s5.1,5.1,0,6.2c-4.5,1.1-4.6,4.8,0,6.6,5.4,2.1,5.9,4.3,1,6.2v.5ZM781.1,798c0,.8-1,1.4-2.1,1.4s-2.2-.2-2.2-.6,1-1,2.2-1.4c1.1-.5,2.1-.2,2.1.6ZM755.7,673.2c-.6,0-4.3-.5-8.2-.8-10.6-.8-15.5-6.1-5.8-6.1s15,4.8,15,6.6-.5.5-1.1.3h0ZM768.3,678l3.4,5.3c3,5,6.6,13.6,6.6,16.2s-3.7,1-8.8-3.5c-5-4.5-13.9-8.3-23.7-10.2-4.2-.8-8.8-4.5-7.5-5.6.3-.3,7.2-.8,15.4-1.3l14.7-.8h0ZM784,687.7c-1.6,0-4.3-4.8-4.3-7.7s-11.7-16-14.9-16c-5.6-.2-6.6-.6-6.6-2.7,0-3-3.8-3.4-13.3-1.1-9.3,2.1-11,1.6-11-2.9s.2-2.9,1.4-.6c.8,1.4,2.1,2.2,2.7,1.8,2.7-1.6,3.7-12.3,4.5-44.8,0-4.2.8-7.5,1.4-7.5s1.3.6,1.3,1.4,3.5,5,7.8,9.1c8.2,8,9.1,10.1,6.1,11.5-1.3.6-1.3,1.1.3,1.8,1.1.5,3.7,2.9,5.8,5.3,1.9,2.4,5.6,6.6,8,9.4,2.4,2.9,4.8,6.2,5.3,7.7,1.3,3.5-2.2,3.2-5.4-.3-1.8-1.9-4.3-2.9-8.5-2.9h-5.9l3.8,3.2c2.1,1.8,5.8,4.6,8.2,6.4s5.9,6.9,8,11.5c2.1,4.5,4.3,9.3,5.1,10.7.8,1.3,1.4,3.5,1.4,4.6s-.6,2.2-1.4,2.2l.2-.2ZM783.7,621.8c-.8,2.2-4.2-1.1-4.2-4.2s.3-1.9,2.4,0c1.3,1.3,2.1,3,1.8,4v.2ZM784.8,639.4c.5.5.6,2.1.3,3.5-.5,2.6-.6,2.6-1.6,0-1.1-2.7-.3-5,1.3-3.4v-.2ZM788,591.1c-2.6,2.6-32.6,1.3-35.5-1.6s8.8-4.8,20.5-4.8,10.1.6,12.6,2.7c1.8,1.4,2.9,3.2,2.4,3.7ZM787.8,580.1c-.6-.3-11.7-2.9-15-3.5-4.6-1-4-3.4,1-3.4s14.4,4,14.4,5.9-.2,1.1-.3,1h0ZM792.5,570.3c0-.8,2.1-3.5,4.5-6.4,2.7-3,3.7-5.1,2.6-5.1s-3.7,2.1-5.6,4.5c-4.3,5.3-7.8,4.6-5.3-1,.8-1.9,3-4.5,5-5.8,1.9-1.3,3.4-2.9,3.4-3.7,0-2.7-3.2-1.3-8,3.8-4.2,4.3-5.3,5-7,3.4-1.9-1.6-1.9-2.1.3-4.5,1.3-1.4,4.2-3.5,6.1-4.5,4.5-2.1,5.3-5.1,2.4-9-2.1-2.7-2.4-2.7-8,3.2-6.2,6.6-8,4.6-2.6-2.9,4.5-6.4,6.7-7.7,14.1-8.8,3.5-.5,7.4-1.9,8.6-2.9,1.6-1.4,3.7-1.6,7.8-.6,3.2.8,7.4,1.6,9.6,2.1,3,.6,5.4,3.5,11.8,15,4.3,7.8,8,15.2,8,16.5,0,2.7,4.3,5.3,9.3,5.3s4,1,4.6,2.9c.5,2.1,1.6,2.7,3.5,2.1,1.4-.5,4.2-.3,5.8.2,3.2,1,3,1.1-1.1,4.5-4.2,3.4-4.2,3.5-.6,2.6,1.9-.6,4.6-1.9,5.9-3s3.4-1.9,4.6-1.9.6,1.6-3.2,5c-3,2.7-6.4,5-7.2,5s-1.4,1.1-1.3,2.6c.6,3.2,5.4,4.3,5.4,1.1s5-5,13-6.1c2.7-.5,5.8-1.4,6.7-2.2,1.6-1.3,5.1.3,13.6,6.2.6.5,1.4,2.2,1.8,4,.3,1.8,1.3,4.2,2.2,5.1,2.1,2.6,1.3,22.4-1,23.2-1.1.3-1.6-1.9-1.6-7.4s-.5-8.6-6.1-15.8c-5.9-7.7-9-9.4-10.9-6.4-.5.8-1.9,1.1-3,.8-3.4-1.3-3.7,2.4-.5,8.5,1.6,3,2.9,7.5,2.9,9.9s.8,6.4,1.8,9,1.3,5.1.6,5.8c-1.9,1.9-3.8-1.9-4.8-9.3-.5-4-1.4-7.4-2.1-7.4s-2.6-2.2-4.2-5c-3-5-7.5-6.6-9.3-3.5-.5.8,0,2.7,1.3,4,1.3,1.4,2.2,3.7,2.2,5.1s1.1,4,2.7,5.6c1.4,1.6,3,4.6,3.5,6.9,1.1,5-1.6,6.7-3.4,2.1-.8-1.9-2.1-4-2.9-4.5s-1.4-2.9-1.4-5.1-1-4.6-2.1-5.1-2.4-2.1-2.9-3.5c-1-2.9-8.5-5.6-15.4-5.6s-4-.6-4-3-.6-2.6-1.6-2.1c-.8.5-1.1,1.9-.8,2.9.5,1.1,0,2.1-.6,2.1s-1.8-.8-2.2-1.9c-.5-1.1-2.1-1.8-4.2-1.3-2.7.5-3.7,0-4.3-3.2-1.3-4.8-5.8-7.4-8.6-5-1.8,1.4-2.6,1.3-4.5-.5-1.9-1.9-2.1-2.7-.3-5q1.6-2.2,0-.8c-2.7,2.4-7,2.2-8.2-.5-.5-1.3-1.6-1.9-2.7-1.4-3.2,1.1-6.9-2.7-6.1-6.1.6-2.6.5-2.9-1.1-1.6-2.1,1.8-5,.8-5-1.4h-.2ZM833.3,522.1c3.8-12,5.3-10.6,8,7.8,2.6,17,1.8,17.4-7,4.8q-3.4-4.8-1-12.5v-.2ZM1033.1,547.1c.5.6,2.6,2.1,4.6,3.5,2.2,1.4,4,3.2,4,4.2s-.8,1-2.2-.2c-3.5-2.9-19.8-.8-27,3.4-7.8,4.6-20.8,17.1-26.1,25.3-6.2,9.6-29.4,33.8-36.2,37.8-12.2,7.2-27,13.9-36,16.3-5.9,1.6-17.3,3.2-25.1,3.7-13.1.6-15.4.5-25.6-3.2-15.2-5.3-25.1-15-25.1-24.6s2.1-3.5,10.7.8c4,1.9,7.8,3.5,8.8,3.5,2.4,0,5.8,5.8,7.7,12.6,1.8,6.4,3.5,7.2,9.8,4,2.1-1.1,8.5-2.4,14.2-2.9,5.6-.5,12-1.6,14.1-2.4s7.7-1.6,12.6-1.9c5.9-.3,12.5-2.1,19.8-5.1,9.3-3.8,13.4-6.9,26.1-19,13.6-12.8,26.7-28.3,36.5-42.9,3.8-5.6,16.2-15,21.8-16.3,3.4-.8,11.2,1.1,12.6,3.4v.2ZM1027.5,503.7c-2.6-1.9-5.4-3.8-6.4-4.2-.8-.3-1.1-1.1-.5-1.8.6-.6,2.9,0,5,1.6,2.2,1.6,5.1,3.4,6.4,3.8,1.4.5,2.6,1.6,2.6,2.4,0,2.4-1.9,1.8-7-2.1v.2ZM1037.4,563.1c0,1.8-2.2,3-3.4,1.9-1.6-1.6-1-3.4,1.3-3.4s2.1.6,2.1,1.3v.2ZM982.2,604.7c-.5.8-1.1,1.4-1.4,1.4s-.6-.6-.6-1.4.6-1.4,1.4-1.4,1.1.6.6,1.4ZM974.4,612.7c0,3.5-3.5,7.2-4.8,5.1-.5-.8.5-2.9,1.9-4.8q2.7-3.4,2.9-.3ZM964.2,625c-.3,1.8-1.3,3.4-2.2,3.7-1.9.6-2.2-1-1-4.5,1.3-3.4,3.7-2.7,3.2.8ZM952.6,635.9c-1.9,1.9-3,2.1-4.3.8s2.1-7.7,4.2-7.7,2.6,4.6.2,6.9h0ZM941.3,639.9c-.5,3.8-3.2,6.2-4.3,3.8-1.4-2.7-.2-6.9,2.2-7.4,2.1-.3,2.6.3,2.1,3.5h0ZM927.8,649.3c-2.7,1.9-5.4,1.1-4.5-1.1.5-1.3,1-3,1-4.2,0-1.9,6.4-5.4,7.7-4.2,1,1-2.1,8-4,9.4h-.2ZM915.4,653.8c-1.8.5-3.7,1-4.2,1-1.9,0-.5-5.9,2.1-8.2,2.2-2.1,2.9-2.1,4-.3,2.2,3.5,1.4,6.7-1.9,7.7v-.2ZM904.3,652.5c-1,2.6-2.4,3.7-4.8,3.7-4,0-5.3-1.1-5.3-4.3s2.7-4.2,8-4.2,4,0,2.1,5v-.2ZM888.3,651.4c-.6,3-5.1,4.2-8.3,2.1-2.7-1.8-1.8-2.7,4.2-3.8,4-.8,4.6-.6,4.2,1.8h0ZM873.1,649.8c.5,2.4-5,2.1-11.4-.5-6.7-2.7-10.2-5.4-5-3.8,1.8.6,6.2,1.4,9.8,1.9,3.5.5,6.6,1.6,6.7,2.4h-.2ZM817,620.1c-3.2.3-4.5-.2-4-1.4.6-1.8,8-6.6,10.4-6.7,1.6,0,5,10.7,5,16.3s-.5,3.4-5,2.7c-3.5-.6-6.4,0-10.1,2.2-7,4.2-10.7,4-10.7-.5s2.7-5.9,12.8-8c8-1.8,9.3-5.1,1.6-4.5v-.2ZM824,603.3c1.1-1.8,1.8-1.8,3.2-.3,1.4,1.4,1.4,2.1-.3,3.2-4.2,2.6-5.4,1.3-2.9-2.9ZM813,637c3.4-2.2,13.6-3,16.2-1.1.8.6,4,3.8,7.2,7.4l5.8,6.2-14.1-.6c-16.5-.8-23.2.3-26.2,4.5-2.4,3.4-4.8,4-4.8,1.3s11-13.9,16-17.4v-.2ZM837.1,633.5c-.8-2.6,1.9-1,9.8,5.9,3.4,3,5.8,5.4,5.4,5.4-1.9,0-14.6-9.4-15.2-11.4h0ZM894.2,609.7c.8.5,1.4,2.4,1.4,4.5s-.8,3.5-2.1,3.5-2.1-1.4-2.1-3.7-1.6-6.1-3.5-9c-3.2-4.8-4.8-10.4-2.7-10.4,4.2,0,8.8,7.2,8,12.5,0,1,.3,2.1,1.3,2.6h-.3ZM910.7,581.5c1.3-3.2,36.5-27.4,37.8-26.1s0,1.3-.8,1.8c-.8.6-6.1,4.6-11.7,9.3-11,8.8-26.6,18.1-25.3,15ZM917.1,588.2c-1,1.1-2.9,2.1-4.2,2.1-1.9,0-1.9-.3.5-2.1,3.7-2.7,5.9-2.7,3.7,0ZM910.7,566c-.5.8-1.6,1.4-2.2,1.4s-1.1-.6-.6-1.4,1.6-1.4,2.4-1.4,1,.6.5,1.4h0ZM985.4,542.6c-9.1-4.8-9.9-7-1.4-3.5,2.9,1.3,7.5,3,10.1,4s4.3,2.2,3.8,3c-1.1,1.9-3.4,1.3-12.5-3.5ZM988.2,560.2c1.1,0-4.6,8.2-13.6,19-13.6,16.5-28.2,29.3-39.7,34.9-5.6,2.7-12.2,5.3-14.7,5.8-4,.8-4.6.5-4.6-2.1s7.7-11.5,16.2-17c3.4-2.1,9.3-6.6,13.1-9.6,4-3.2,10.2-8,13.9-10.6,3.8-2.6,9-6.7,11.5-9,4-3.7,16-11.4,17.8-11.4l.2-.2ZM973.8,560.2c-4.3,4.6-41,33-42.7,33s-4.2,2.2-8,5c-7.4,5.3-8.8,5.9-8.8,3.7s17.3-15.5,35.8-29.4c5.1-3.8,11.7-8.8,14.6-10.9,2.9-2.2,7-4.5,9.3-5l4.2-1-4.3,4.6h0ZM972.3,535.9c-2.1,0-5.8-2.6-4.8-3.4.5-.5,2.1.2,3.5,1.3s2.1,2.1,1.3,2.1ZM959.8,559.7c-6.6,4.5-14.1,9.9-16.6,12.2-5.3,4.6-6.1,4.8-6.1,2.2s16.5-15.5,25.4-20.3c9.9-5.1,8.3-1.8-2.9,5.8l.2.2ZM957.4,522c-.8,1-1.6,3-1.6,4.8,0,3.5-3.4,6.2-15.7,13-4.3,2.4-10.7,6.1-14.2,8.3-6.6,4.2-24.6,12.3-27.4,12.3s-4.2,1.6-7.2,3.7c-6.6,4-11.5,5.1-17.8,3.7l-4.3-1,4.5-3.2c4.6-3.4,13-6.6,29.9-11.8,10.2-3.2,17.4-7.2,25.4-14.1,13.8-12,15-13.4,18.1-21.4,4.3-11.8,5.4-13.1,8-9.9,2.9,3.7,4.3,13.8,2.4,15.7h-.2ZM821,812.9c-1.8,1.3-4.6,2.2-6.2,2.2-5-.2-12.5-3.5-13.9-6.2-1.3-2.4-1-2.6,3.4-1.9,2.7.3,5.9,1.1,7.2,1.8,1.8.8,3.7-.3,6.9-3.7,4.8-5.3,5.1-7.5,2.7-20.8-1.9-10.4-1-12.5,3-7.7,3.2,3.7,5.8,11.5,5.8,17.4s-5,16.3-8.8,18.9h0ZM809.9,785.2c-2.1,0-4.8-5.4-5.4-10.6l-.5-4.2,2.7,3.5c1.4,1.9,3.2,5.3,3.7,7.4.6,2.4.3,3.8-.6,3.8h.2ZM810.4,798c-1.1,1.9-3.2,1.9-4.3,0-1.3-2.1.2-3.4,2.9-2.2,1.3.5,1.9,1.6,1.4,2.4v-.2ZM824,758.8c0-1,.6-.8,1.8.2,1,1,1.3,2.1,1,2.4-1,1-2.7-.8-2.7-2.6h0ZM950.2,812.9c1.9-1.3,5.4,2.2,5.4,5.3s1,2.7,2.6,2.7c3.2,0,8.8,7.4,8.8,11.5s.3,2.7,2.2,1.3c1.8-1.4,2.7-1.3,5,.8,2.7,2.6,2.7,3.5.2,10.7-.5,1.1.6.5,2.2-1.4,2.9-3.4,3.2-3.5,5.6-1.1s2.4,4.5,2.2,9.6c-.3,6.2,0,7.2,2.6,7.2s3.2.2,3.7,10.1c.5,9.1-.5,11.8-3.8,11-3.4-.8-3.7,2.2-.6,4.8,3,2.6,2.7,5.9-.6,6.7-3.4,1-3.4,1.1-1.3,5,1.1,2.1,1.1,3.4,0,4.8-1,1.1-1.3,2.7-.6,3.5.5.8,1.4,3.5,2.2,5.8,1.1,3.7.8,4.5-2.2,6.1l-3.5,1.9,4.3,3.2c5.4,4,4.3,6.6-2.2,5.3-3-.6-4.8-.3-4.8.6s1.1,1.4,2.6,1.4,3.8,1.3,5.3,2.9c2.9,3.2,2.9,3.4-8.5,3.5-4.3,0-7.2.8-7.7,1.9-.5,1.3.3,1.6,3,1,11.5-2.9,15.8,9.4,6.9,19.8-1.1,1.4-3.8,2.4-5.9,2.4-3.4,0-3.5-.2-.8-1.3,5-2.1,7-5.4,5-8-2.7-3.2-7.5-1.9-8.6,2.2-.6,1.9-1.1,2.6-1.1,1.3-.2-2.9-4.5-4.6-6.4-2.7-2.4,2.2-3.8,1.8-3.8-1.4s-3.5-2.7-4,1.4c-.6,3.8-4.8,3.5-5.4-.5-.5-3.4-3.4-5.3-6.7-4.3-3.7,1.1-5.9-.6-3.8-3,1.3-1.6.8-2.2-2.1-2.9-2.7-.6-3.8-2.1-4.6-5.9-1.1-5.8,0-14.6,2.6-22.7,1.8-5.3,2.2-5.6,6.6-5.3,5.4.5,6.1-1.3,1.4-4.5l-3.2-2.2,5-2.1c4.8-1.9,4.8-2.1,1.8-3.2-4.2-1.3-4.3-7.4-.3-9.4,3-1.6,2.4-5.8-.8-5.8s-1.8-2.2,5.4-5.4c7.5-3.4,8.8-6.2,1.6-3.5-2.2.8-6.1,1.9-8.6,2.2-4.2.8-4.6.5-4.6-2.7s.5-3.5,1.1-3.5,2.7-1.3,4.6-2.9,2.6-2.6,1.4-2.2c-8.2,2.4-9.9,2.2-11.5-.6-1.1-1.9-1.1-3.7,0-5.6,1.3-2.2,1-2.6-2.2-1.9-4.3.8-9.6-3.4-8.5-6.9.6-1.9,0-2.2-2.6-1.8-2.2.5-4.3-.6-6.7-3-1.9-2.1-4-3.7-4.8-3.7-2.6,0-13.9-10.4-13.9-12.8s-1.4-3-3.2-3.7c-1.8-.8-3.2-2.7-3.2-4.3s-.8-2.7-2.7-2.6c-3.8.3-8-2.1-8-4.6s-1.1-2.1-2.6-2.1c-4.5,0-4.8-1.8-.8-5.9l3.8-4-5.9,2.4c-4.8,1.9-6.4,2.1-8.2.5-2.1-1.6-2.1-2.2,0-5.3,2.6-3.8,1.8-5.9-1.1-3.7-3,2.4-6.7,3.2-7.5,1.9-.5-.8,1.9-3,5.1-5.3,3.2-2.2,5.3-4.2,4.5-4.5s-1.1-1.4-.8-2.4c1.4-3.8-1.9-3.4-4.8.5-3.2,4.3-9.3,6.4-11.7,4s-1.6-4.5,5.3-9.1c6.1-4.2,6.4-4.6,3-4.6s-5,1-6.4,2.1c-2.9,2.2-7.8,2.9-7.8,1.1s1.9-1.9,4.3-3c2.4-1,4.3-2.7,4.3-3.8,0-2.6-2.6-2.6-7.7.2-5.4,2.9-8.2.6-4.5-3.5,2.4-2.7,2.4-2.9,0-3.8-1.4-.5-4.3-2.9-6.7-5.1-2.2-2.2-5.8-4-7.7-4s-3.7-1-4.3-3.2c-.5-1.8-2.6-4.3-4.6-5.4-4.6-2.7-8.2-13.1-7-21.3.6-4.5,2.7-7.5,10.7-15.7,8.2-8.3,10.7-10.1,14.4-10.1s4.5.6,4.5,2.7,1.3,3,5.4,3.7c2.9.5,6.7,1.1,8.5,1.4,1.9.3,3.7-.3,4.5-1.8,1.1-2.1,2.4-1.3,8.6,5.4,4,4.3,7.4,8.8,7.4,10.1,0,3.5,3.2,5.4,10.7,6.6,5,.6,7,1.6,7.5,3.5.8,3,1.9,3.4,4.3,1s2.6-1.3,5.4.3c3.5,1.9,3.7,2.6,2.9,8.8-1,7.8,0,8.8,2.1,2.6.8-2.4,2.4-4.3,3.4-4.3,2.9,0,6.2,5.4,5.3,8.6-1,3.5,2.2,7.4,5.1,6.4,2.4-1,4.5,1.6,4.5,5.8s4.6,9.3,6.7,9.3,2.1,1.6,3,3.7c1,2.1,4.2,7.4,7,11.8,6.4,9.8,7.5,13.3,5.4,16-1.1,1.4-1.1,2.2.2,2.6,1,.3,2.2,3,2.7,6.2.5,3,1.4,5.3,2.2,4.8l.3-.3ZM877.8,716.4c.5-.8,1.4-1.4,2.2-1.4s1.3.6,1.3,1.4-1,1.4-2.2,1.4-1.9-.6-1.3-1.4ZM951.2,749.3c3.7,0,7.5-1.3,11-3.7,2.9-2.1,5.8-3.4,6.2-2.9,1.1,1.1-4,7.8-8.6,11.2-2.1,1.4-6.6,3-10.1,3.5-5.6.6-7,.2-11.2-3.5-2.7-2.4-5.9-4.6-7-5-1.3-.5-5.1-6.1-8.5-12.5-3.5-6.4-7.7-12.8-9.3-14.1s-3.5-3.2-4.2-4.3c-1.6-2.7,9.8,4.8,20.5,13.6,5,4.2,11,7.8,13.3,8.3,4.8,1,20-4.6,25-9.3,3.8-3.7,5-3.4,5,.8,0,6.6-10.2,13.6-20.3,14.1-7.8.3-9.1,3.8-1.4,3.8l-.3-.2ZM970.2,772.2c-2.7,2.4-6.2,4.3-7.8,4.3s-5.1.3-8,.8c-4.5.8-5.6.3-9.8-4.5-5.4-6.2-5.1-7.5,1.1-4.5,4.8,2.6,17,2.9,24.5,1l5-1.4-5,4.3ZM1001.4,681.8v4.2c.2,1.1-.3,1.4-1.1,1.1-.8-.5-1.9-.2-2.4.8s-.3,2.1.5,2.6c1,.6,1.1,2.7.3,5.9-.6,2.7-1.3,4.2-1.3,3.2-.3-4.2-3,.3-3,5s.6,4.6,1.4,4.2c.8-.5,1.4.5,1.4,2.1s-.6,2.7-2.4,1.9c-2.1-.8-2.2.2-1.4,9.4,1,12-1.4,23-6.9,31.8-3.8,5.9-6.6,7-3.5,1.3,3.8-7.2,9.1-45.8,5.9-43.7-1,.6-1.6,2.1-1.6,3.4,0,3.8-8.8,33.8-11.7,39.4-1.4,2.9-3.8,5.9-5.4,6.9-2.7,1.4-5.8,1.9-5.8,1s2.6-5.6,5.8-11.8c3.4-6.7,5.8-13.3,5.8-16.3,0-12.5,9-48.3,13.4-54.2.8-1.1,3-2.6,4.8-3.2,1.9-.6,2.9-1.9,2.4-2.7s.8-2.7,2.7-4.3c2.1-1.6,3.7-3.7,3.7-4.8,0-3.4,4.8-6.4,9-5.4q4,.8,1.3,3.8c-4.3,5-11.8,17-12,19.4l.2-.6ZM1072.5,941.8c-1.3,1.3-3.8,2.2-5.8,2.2-2.9,0-3.5-.6-3.2-3.2.3-1.8,1.4-3.2,2.6-3.2s3-.8,4-1.8c4.2-3.8,6.2,1.9,2.2,5.9h.2ZM1082.6,718.3c2.6,1,2.9,4.6.3,5.8-1.3.6-1.3,1.1.3,2.2,1.8,1.3,1.8,1.8-.3,4.2-1.6,1.8-2.1,3.8-1.4,5.9.6,2.6,0,4.2-2.6,6.1-2.2,1.9-2.9,3-1.6,3.5,1,.3,1.8,2.6,1.8,5s-.6,4.2-2.9,4.2-2.9.6-2.9,1.4,1,1.4,2.1,1.4,2.4.6,2.9,1.3c1.3,2.1-.8,6.1-2.9,5.3-1.1-.3-2.2,0-2.7.6-.5.8,0,1.8,1.4,2.2,3.2,1.3,2.7,4.5-.8,6.4-2.2,1.1-2.6,2.1-1.4,3.2,2.7,2.7,1.8,6.4-1.9,7.4-3.2.8-3.4,1.3-1.9,4.6,1.4,3.2,1.3,3.8-.8,5.1-1.3.8-2.4,2.6-2.4,4s-.6,3.2-1.4,3.7-1.1,2.7-.6,5.1c.6,3.2.3,4.3-1.4,5.1-1.6.6-2.1,1.9-1.6,4.2.5,1.8,0,3.7-.8,4.3-1,.5-1.3,2.7-.8,5,.5,2.2,0,5.1-1.1,6.6-1.1,1.6-1.4,3.4-.6,4.8.6,1.3,2.2,4.5,3.4,7.2s2.9,6.1,3.7,7.5c3.7,6.2,4.5,7.8,6.7,12.5,3.4,6.9,10.4,14.4,13.6,14.4s2.6,1.1,2.6,3.4c0,4.5,6.9,15,13.8,21,3.4,2.9,4.8,5.1,3.8,5.4-2.1.6-2.4,6.1-.3,6.1s1.4,1.3,1.4,2.9-1,2.9-3.5,2.9-3.5.8-3.5,2.7.8,3,1.6,3.4c2.2.8.3,5.4-2.2,5.4s-2.4-1.6-2.9-3.5c-.6-2.2-1.9-3.5-3.7-3.5-3.2,0-3.8,4.2-1.1,6.9,1.4,1.4,1.3,2.1-.3,3.2-4.6,2.9-6.1,1.6-5.3-4.3.5-3.7-.8-5.5-4-5.3-2.6.2-5.9,1.4-7.5,2.7-1.4,1.3-3.7,2.4-5,2.4s-2.6,1.4-2.7,3c-.6,4.3-3.7,5-3.7,1s-.5-7.7-1.1-13.1c-1-8.6-1.4-9.8-3.8-9.1-1.6.5-3.7-.3-5.1-2.1-1.3-1.4-3.2-2.7-4.3-2.7s-2.6-1.9-3.4-4.3c-1.1-3.2-2.4-4.3-5-4.3s-3.4-.8-3.4-2.1-1.1-2.2-2.7-2.2c-3.8,0-7.8-4.8-5.6-6.9,1.3-1.3,1-1.8-1.3-1.8-4.2,0-5.6-2.7-2.4-5,2.7-1.9,1.8-5.1-1.6-5.1s-2.7-6.6,0-7.7c1.1-.5,2.1-1.4,2.1-2.2s-1-1.4-2.1-1.4c-2.9,0-2.7-2.4.3-4.2,1.9-1.1,2.1-1.8.6-2.7-1.4-1-1.6-2.6-.2-7.8,1.3-5.1,1.3-7.7,0-10.9s-1.3-5,0-7.2c1.8-3.4.6-14.6-1.9-19.4-.8-1.6-1.3-3.5-1.1-4.3,1.3-4.2,1-8-.8-9.4-3.2-2.6-2.2-6.9,1.6-8.5,4.3-1.6,4.8-5,.6-3.8-1.6.5-3.8-.2-5.1-1.6-2.1-2.1-2.1-2.6,1.4-5.6,4.6-4,4.6-4.8.2-4.8s-4.8-4.8,0-8c4.3-2.9,3.5-4.8-1.4-3.8-4.3.8-4.8-1.8-1.1-5.3,1.4-1.3,3.8-3.8,5.3-5.8l2.9-3.4-4.6.6c-4.5.6-4.6.5-4.6-4.6s.6-5.6,5-7.7c6.1-2.9,6.4-4.2.8-3.4-6.4,1-5.6-3.2,1.6-9.4,3.4-2.9,5.6-5.4,5.3-5.8-.8-.8-10.7,2.4-12.2,4-1.8,1.8-3.4,1-3.4-1.6s3.2-7.5,5.3-7.5,1.8-1,2.2-2.2c.5-1.1,1.6-2.1,2.7-2.1s3-1.3,4.3-2.9c4-4.6-.8-5.3-5.8-.8-5.1,4.8-6.7,4.6-5.4-.2,1.3-5.3,2.7-6.9,9.8-10.2l6.1-3h-4.6c-4,0-4.6-.5-4.6-3.5s1.1-3.8,7.4-5.8c4-1.3,9.8-4.3,12.6-7,7.7-6.9,14.4-8.8,22.4-6.6,9.1,2.6,9.3.8.3-2.2-4.2-1.4-8.5-3.2-9.4-3.8-1.9-1.4-8.3,2.6-16.8,10.6-2.2,2.2-5.4,4.5-6.9,4.8-5.8,1.8-4.3-1.4,3.5-8.5,4.5-4,8.2-8.2,8.2-9.1,0-3.7,13.1-3.5,26.4.3,8.3,2.4,23.5,18.4,20.3,21.6-.5.5-3.5-1.1-6.9-3.5-6.1-4.5-10.6-4.6-6.6-.3,1.9,2.1,1.6,3-2.7,9.1-2.7,3.7-5.9,6.9-7,6.9s-2.1,1-2.1,2.1c0,3.4,5.4,2.6,8.6-1.3,2.1-2.4,4-3.2,6.1-2.7,5.8,1.4,6.7,3.2,6.7,13.4s-.5,9.9-2.1,9.9-2.1.6-2.1,1.3,1,1.6,2.1,2.1v-.2ZM1076.8,689.2c-.5-.8,0-1.9,1.1-2.6,1.1-.6,2.2-2.1,2.6-3.2.5-1.6,1.4-1.3,3.8,1.3,1.8,1.9,3.2,3.8,3.2,4.5,0,1.6-9.6,1.4-10.7-.2v.2ZM1089,699.9c-.8.5-1.4,0-1.4-1.3s.6-2.2,1.4-2.2,1.4.6,1.4,1.3-.6,1.8-1.4,2.2ZM1081.8,635.6c6.4,2.2,8,3.4,9,6.9,1.4,5.6.5,6.2-3.5,2.6-1.8-1.6-7.8-4-13.9-5.3-11.7-2.6-21.6-2.2-33.1,1.4-7.4,2.4-18.4,11-18.4,14.4s-.8,1.9-3.2,1.3c-1.8-.5-4.6-1.1-6.2-1.4-1.6-.2-3.7-1-4.6-1.4-1-.6-5.1,2.1-9.8,6.6-5.4,5-7.4,6.2-5.8,3.7,3.4-5.4,14.4-15.4,21-19.2,7.5-4.3,18.2-7.4,35-10.1,18.4-2.9,24-2.7,33.6.5v.2ZM1059.2,600.1c3.8,4,6.9,8.5,6.9,9.9,0,2.4-1.4,2.9-10.9,3.7-6.1.5-13.4,1-16.5,1s-8,1.3-10.9,2.7c-6.2,3.2-18.9,15.4-18.9,18.2s1.3,2.4,5.3-2.4c1.9-2.4,4.3-4.3,5.1-4.3s2.6-.8,3.8-1.9c5.1-4.2,13.1-5.6,25.6-4.6,7,.5,14.4.3,17.1-.5,5.4-1.6,7.5-1.1,9.9,2.6,1.6,2.6,1,2.7-11.2,2.9-7,0-13.4.5-14.1,1-.6.3-5.9,1.6-11.7,2.7-17.9,3.5-31.5,9.6-43.4,19.5-5.8,4.8-11.5,11-12.8,13.6-3.2,6.9-9,14.4-19.7,26.1-7.5,8.3-10.4,10.4-15.5,11.5-8.5,1.9-9.6,3.7-1.6,2.4,3.5-.5,8.3-2.2,10.4-3.8,16.5-11.7,21.1-13.6,21-8.8,0,1.4-1.4,8-3.2,14.6-2.2,8.6-3.8,12.2-5.4,12.3-1.3.2-4.8,3-7.7,6.2-5.3,5.9-7.4,6.6-16.2,4.8-4.6-1-13.6-6.7-28.3-18.2-14.4-11.2-19.4-14.4-25.6-15.8l-4.3-1,3.5,4c1.9,2.2,5.4,6.2,7.8,9,3.4,3.8,3.7,4.6,1.4,3.8-6.6-2.6-7.8-2.6-7.8-.2s1.4,2.9,3.2,3.7c1.8.6,2.4,1.3,1.4,1.4-4.8.3-11.4-4.8-14.4-11-6.1-12.5-7.5-14.6-14.1-19-12.3-8.5-32.5-10.4-42.7-4.3-2.4,1.4-5.9,3-7.8,3.7-6.1,1.8-12.8,7.8-17.3,15.5-4.8,8.3-5.8,6.1-1.6-3.7,2.7-6.2,12-16.8,14.9-16.8s4.5-1.9,8.2-4.3c7.8-5,13.4-5.6,30.4-2.9,8,1.3,11.7,1.3,12.8.3,2.2-2.2-3.4-4-17.1-5.1-13.9-1.1-26.7,1.4-39.4,8-4.5,2.2-8.3,3.7-8.3,3,0-2.4,14.7-12.2,22.1-14.9,5.9-2.1,6.7-2.7,4.6-3.7-4.2-1.6-16.2,2.1-29.9,9.1-3.2,1.6-.3-3.8,4.3-8.2,4.8-4.5,9.1-6.1,16.2-6.1,15.7.2,27.8,0,28.5-.6s3,.6,5.8,2.1c7.2,3.8,27.2,7.2,41.8,7.2s32.6-4.8,50.2-14.4c15.4-8.3,19.8-11.7,28.8-21,10.4-10.9,13.6-14.7,20.8-25.6,3.7-5.6,7.2-10.2,7.8-10.6.6-.3,1.1-1.3,1.1-2.2s4.2-6.1,9.3-11.5l9.3-9.8,10.1,1c8.2.8,10.7.5,12.6-1.1,1.4-1.3,3.2-1.8,4.2-1.1,3.5,2.2-7,8.8-18.4,11.2-9,1.9-24.2,17.9-32.8,34.4-6.2,11.7-8.8,15.2-21.3,28.3-13,13.6-15.4,16.5-13.4,16.5s3.4-1.6,5.8-3.5c2.2-1.9,5.9-4,8-4.5s5-2.4,6.4-4.2,5.4-4.8,9-6.9c3.5-2.1,9-7,12.2-11s6.2-7.2,6.7-7.2,3.2-1.9,5.9-4.3,5.6-4.3,6.4-4.3c2.6,0,18.4-11.2,19.4-13.6.5-1.3,3.4-3.4,6.2-4.5l5.3-2.2,6.9,7.2-.2.6ZM1036.8,592.1c-3.2,4.2-9.3,9.1-17.1,13.8-6.7,4-12.6,7.4-13,7.4-1.1,0,4.5-10.2,9.3-17,4.5-6.1,12.8-10.9,21.9-12.8,5.1-1.1,5,.6-1,8.5l-.2.2ZM1047.4,536.2c6.9,4,10.1,9.8,10.1,18.2s-.5,7-2.9,7.7c-3.5,1-4,.3-5.1-7.4-.6-3.7-2.4-7.5-5-9.9-2.9-2.9-3.8-5-3.2-7.8l.8-3.8,5.3,3ZM1247.2,529.7c-2.6-.2-5.3-.8-5.8-1.3-.5-.5-2.7-.6-4.8-.2-3.2.6-4.2,0-5.6-2.9-2.1-4.5-4.6-4.8-4.6-.8s-6.6,3.8-8.3-1.4c-1.8-4.8-4.5-5.8-4.5-1.4s-1,2.9-2.1,2.9c-4.3,0-6.9-2.1-9.4-7.7l-2.6-5.9.8,5.4c.6,4.8.5,5.4-2.4,5.4s-3.8-1.6-5.9-6.4c-3.5-7.8-4.8-8.3-3.5-1.3,1,4.8.8,5.1-2.4,4.2-4.8-1.4-8.3-6.1-8.3-10.9s-.6-4.2-1.4-4.2-1.1,2.2-.5,5.8c.5,3.2.5,5.8,0,5.8-3,0-8.2-5.3-9.6-9.8-2.4-7.7-4.8-9.4-3.5-2.7l1,5.4-4.6-2.9c-2.6-1.6-7-3.5-10.1-4.3-4.8-1.3-5.3-2.1-5.8-6.7-.5-4.8-.6-5-1.9-2.2-1.3,2.9-1.6,3-6.2,1.1-4.5-1.9-4.8-2.4-3.8-7,1.1-5.8,0-6.6-2.1-1.4-.8,1.9-1.9,3.5-2.6,3.5-3.2,0-8.6-6.1-9.6-11-.6-3.4-1.3-4.5-1.8-2.7-1,4.3-6.7,2.6-7.2-2.2-.3-3.4-1-3.8-3.8-3-4.2,1.1-5.6-1.1-5.3-8.2.3-6.4-.6-7-2.6-1.9-2.6,6.7-9-.6-6.6-7.5q.8-2.4-1.1,0c-1.1,1.4-2.6,2.6-3.5,2.6-3,0-5.8-5.9-5-10.7.8-5.3-2.1-8.6-3.4-3.7-.5,1.6-1.3,3-1.9,3-1.3,0-14.2-15-17.8-20.6-2.6-4-2.7-4-4.6-1.4-1.1,1.4-1.9,3.8-1.9,5.3s-1,2.4-3,2.2c-1.6-.2-3.4.5-3.7,1.3-.3,1.1,1.4,1.9,5.4,2.2,3.4.2,6.2,1.1,6.6,2.1.3,1.1-1.3,1.3-6.1.3-3.7-.6-7.2-1-8-.5-3,1.9-.8,3.2,6.6,3.8,9,.8,9.9,1.3,8.6,5.1-.8,2.4-1.8,2.7-6.6,2.1-3-.5-6.7-.2-8.2.5-1.9.8-.6,1.4,4.6,1.9,6.2.6,7.2,1.3,7.5,4.3.2,1.9-.5,4.8-1.4,6.2-1.8,2.6-2.2,2.6-8,.2-3.4-1.3-6.4-2.1-6.9-1.6-1.8,1.8,1.3,3.8,6.7,4.8,5.9,1,6.6,1.9,4.2,6.6-1,1.9-2.4,2.6-4,1.9-4.6-1.9-16.2-3.2-16.8-1.9-1,1.6,5.6,4,10.9,4,8,0,5.9,5.4-2.2,5.8-2.4,0-5.6.2-7,.2s-4.3-.3-6.1-1-3.2-.5-3.2.3,1.9,1.8,4.3,2.2c7.2,1.4,4.8,3.5-5.3,4.6-6.2.6-12,.5-16.6-.8-7.4-1.9-10.4-.8-8.8,3.2.5,1.4,3.5,2.6,7.5,3.2,12.6,1.8,14.4,2.4,13.6,4.5-.5,1.1,0,3,.8,4,1.8,2.2,1.1,2.9-4.6,4.3-5.6,1.3-5,3.5,1.4,4.6,6.7,1.3,11.4,4.2,12.2,7.7.5,1.8-.2,2.9-2.1,3.4-4.8,1.3-2.9,3.8,3,3.8s5.4.5,4.8,2.1c-.5,1.1-3,2.6-5.8,3-8.5,1.6-7.5,4.6,2.1,6.2,7.7,1.3,7.5,4.5,0,3.5-7-1-17.8,1.4-21.6,4.8-2.4,2.1-3,2.1-7.2,0s-9.6-4.6-15.7-7.7c-11.2-5.4-17.4-11-16.2-14.4,1-2.7-3-13.4-6.7-18.1-1.9-2.4-4.8-4.2-7.2-4.3-4.3-.3-4.5,0-12.6,16.8-3.5,7.4-16,21.1-23.4,25.8-3.7,2.4-36.8,14.6-49.6,18.4-2.7.8-5.9,2.7-6.9,4.2-1.1,1.4-2.6,2.7-3.5,2.7-2.4,0,4.6-7,8-8,5.6-1.6,10.9-4.2,10.9-5.3s1.3-1.1,2.7-1.1,3-1,3.5-2.1,3-3,5.9-4.2c6.7-2.9,6.4-4.2-.6-3-8.6,1.4-7.2-1.6,3.2-6.7,22.9-11.2,28.3-14.4,28.3-17.3s-1.1-.5-2.6.8c-1.4,1.3-4.2,2.7-6.1,3.4-9.9,3-46.9,23.2-53.3,29.1-8,7.2-3.7,0,5-8.3,8.6-8.3,25.8-18.6,34.6-20.8,7.4-1.8,14.6-8,9.1-8s-36.3,17-44,22.7c-10.7,8.2-12.5,7.4-2.9-1.3,9.3-8.3,22.7-16.8,30.7-19.2,6.7-2.1,9.1-5.8,2.7-4.2-7.2,1.8-21.4,9.1-34.7,18.1-6.4,4.2-8.3,4.3-6.9.6.8-2.1,36.5-26.7,41.4-28.5,2.2-1,3.5-3.8,1.6-3.8s-7.2,4.2-14.9,9.3c-14.1,9.3-22.1,12.5-16.6,6.6,1.4-1.4,9-6.9,16.6-11.8,7.8-5,14.6-10.1,15-11.4.5-1.3,3.5-4,6.9-6.1,3.4-1.9,7-4.6,8-5.9,1.8-2.1,1.4-2.1-1.9-.8-6.6,2.6-19.5,11.4-19.2,13.1s-9.8,9.3-19.4,14.2l-5.3,2.7,1.4-3.2c1.4-3.2,11.5-11,14.2-11s1.4-.6,1.4-1.4c0-2.9-3.7-1.3-17.3,7.8-17.9,12-23.5,12.3-6.4.3,2.1-1.4,3.4-3.2,2.9-3.8-.5-.6,1-2.6,3.2-4.2s3.2-3,2.4-3-5.9,3.2-11.2,7.2c-10.6,7.8-10.9,8-10.9,5.3s10.2-11,12.6-11,3.2-1.4,5.3-3.2c3.5-2.7,4.2-2.9,5.4-.8,1.1,1.8,2.2,1.9,5.4.8,2.2-.8,4-2.2,4-3.2,0-2.1,5.4-7.2,9-8.5,1.4-.5,2.6-1.9,2.6-3.2,0-1.9-.8-1.9-5.4,1-2.9,1.8-5.9,3.7-6.7,4.5-2.4,2.2-5.1,1.3-5.1-1.9s1.3-5.3,3-8c4.2-6.7,1.9-8-3.2-1.9-3.2,3.8-4.3,4.5-5,2.6-1.1-2.9,2.7-10.6,5.9-11.7,1.3-.5,2.1-1.3,1.6-1.8-.5-.5-3,.5-5.8,2.2-2.7,1.6-5.3,2.6-5.8,2.1-1.4-1.4.8-8.2,3.2-10.1,1.3-1,1.8-2.2,1.3-2.7-.6-.6-2.2,0-3.7,1.3-1.4,1.3-3,2.4-3.5,2.4-2.1,0-.8-3.2,2.7-6.4l3.7-3.4-4,.3c-3,.2-4.5-.6-5.9-3.7-1.1-2.2-2.4-4-3.2-4s-1.6-1.4-2.2-3.2c-1-2.7-1.1-2.4-1.9,2.4-.8,5.1-1.4,5.8-8,8.3-6.4,2.4-6.6,2.6-2.1,2.1,2.7-.3,5.9-.8,7-1.1s2.2.6,2.6,1.9c.3,1.8-1.4,3-6.7,4.8-6.9,2.2-9.8,4.5-8.3,5.9.5.5,2.2-.2,4-1.4,1.9-1.1,4.8-2.6,6.6-3,2.7-.8,3.2-.5,3.2,2.7s-2.4,5.8-9.9,8.2l-3.7,1.3,3.5-.5c1.9-.3,4.8-1,6.2-1.6,2.4-1,2.6-.6,1.6,3.7-1.9,9-6.2,17.3-8.8,16.8-1.3-.3-2.7.3-3,1.3-.3,1,.3,1.8,1.6,1.8,3.2,0,2.9,2.2-.6,5.8s-2.6,3.4-1.4,4.8c2.4,2.7.3,6.1-4.6,8.2l-4.5,1.8,4,.5c6.1,1,4.6,4.8-2.6,6.9l-4.3,1.3,4,.5c4.3.6,5.4,4.2,1.6,5.6-1.6.6-1.8,1.1-.6,1.9,1.3.8,1.3,1.8.2,4-1.3,2.4-3.5,3-15,3.8-9.6.8-13.8,1.6-14.2,3-1,2.4-5.4,2.7-7.4.6-2.6-2.6-7.5.2-11.5,6.6-2.2,3.5-5,6.2-5.9,6.2s-.5-2.1,2.4-5.9c5-6.7,4.8-8.3,0-5-4.5,3.2-5.4,2.9-5.4-1.3s2.4-6.2,11.5-13.6l3.5-2.9-4.6,1.6c-2.6.8-4.6,2.1-4.6,2.9s-.6,1.3-1.4,1.3c-2.9,0-1.3-6.4,2.4-10.2l3.8-4h-3.2c-3,0-3.2-.5-2.4-6.1.5-3.4,1.1-8.5,1.6-11.5.3-3,1.4-6.7,2.2-8.2s1.4-4.3,1.4-6.4.6-4,1.4-4.5,1.4-2.2,1.4-3.8,1-4.6,1.9-6.7c1.1-2.1,2.7-6.4,3.7-9.6s3.8-9.9,6.4-15c2.6-5.1,4.3-9.9,4.2-10.9-.3-.8.8-2.7,2.4-4.2s2.9-4.2,2.9-5.9.5-3.4,1.1-3.4,2.1-1.8,3.2-3.8,4.5-5.6,7.7-7.8q5.4-4,1.8-4c-3.7,0-4.8-2.7-.2-7.7,1.9-2.1,3.5-4.8,3.5-6.1s1.9-2.9,4.3-3.8c2.7-1.1,4-2.4,3.5-3.7-1-2.7,1.8-5.9,5.1-5.9s2.7-1,2.7-1.9c0-2.4,4-6.1,8.3-7.4,1.9-.5,4.6-2.2,6.1-3.7,1.4-1.4,3.7-2.7,4.8-2.7s4.5-1.1,7.2-2.4c4.3-2.1,5.8-2.2,10.2-.6,5.4,1.9,8.6,1,4.5-1.4-1.4-.8-2.6-2.4-2.6-3.5,0-2.6,8.6-2.9,13-.6,3.4,1.8,3.5.3.5-3.2-2.2-2.4-2.2-2.7,0-3.5,1.3-.5,3.2-.2,4.2.6,2.4,2.4,5,1.9,4.8-.8-.3-4.2,9.1-5.1,15.7-1.8,3,1.6,6.2,2.7,7.4,2.7,2.1,0,7,6.9,5.8,8-.5.5-2.7-.3-5.1-1.4-5.4-2.7-10.2-2.9-10.2-.3s4,5.9,5.3,4.6c.5-.5,1.6-.3,2.6.5,1.9,1.6,8,.3,8-1.6s1.6-1.3,3.5-1.3c4.2,0,5-4,1.1-5.1-7.2-2.2-9.9-6.2-4.2-6.2s4-.6,4.5-1.4-1.4-1.4-4.8-1.4c-9,0-12.2-2.1-4.5-2.9,3.7-.5,6.2-1.4,6.1-2.4-.2-1,2.6-2.4,6.1-3.4,5.6-1.6,6.2-2.2,5.6-5-.6-2.6,0-3.4,2.9-4.2,4.5-1.1,5-5.1.6-5.1s-2.7-.3-1.3-2.2c1-1.1,2.6-2.1,3.5-2.1s2.9-1.3,4.3-2.9c4-4.3,1-6.2-5.1-3.2-2.7,1.4-7.8,3.4-11.4,4.5-3.5,1.1-7.2,2.7-8.3,3.4-1,.8-7.8,1.4-15.2,1.6-10.6.2-13.9-.2-16.2-2.1-3.4-2.7-6.9-8.8-6.4-10.7.2-.6-.2-1.6-1-2.1-2.4-1.6-11.2-18.1-14.6-27.4-3.8-10.6-4.8-24-2.7-36.6,2.1-12.2,2.9-13.3,7.7-9.4,2.4,1.9,5.9,3,9.4,3s5.6.3,5.6,3.5-.8,6.4-1.6,9.8c-2.1,7.7-.8,13.4,3.2,14.7,4.6,1.4,7.2-1.9,5.6-7.7-1-3.2-.8-7,.3-11.4,1.8-6.9,2.1-25.1.6-30.9-.5-1.9-2.9-4.3-5.9-5.8-2.7-1.3-5-3.2-5-4.2s-4.2-2.6-11.5-3.8c-9.3-1.6-11.5-2.4-11.5-4.5s.6-2.9,1.6-3.5c2.4-1.4,11.4-22.1,11.4-25.9s2.9-4.5,6.4-.6c3,3.4,5.1,2.6,5.1-2.2s6.1-6.4,10.4-2.6c2.6,2.4,5.1,2.7,15.4,2.6,9.9,0,13,.3,16,2.6,4.5,3.2,8.3,2.2,8.3-1.9s4.3-3.5,5.1,1.1c.5,2.2,2.1,4.8,3.8,5.9,3.2,1.9,3.4,1.9,7.7-5.1,1.3-2.1,2.2-2.2,4.3-1.1,3.4,2.1,4.2,6.1,1.6,8.2-3.8,3.2-4,6.6-.3,9.9,2.1,1.9,3.5,4.6,3.5,7,0,8.6,9.4,10.6,15.8,3.2,3.4-3.8,3.8-5.3,2.7-7.5s-3-2.7-5.1-2.7c-3.2,0-3.5-.5-2.6-4,.5-2.2,2.2-5.8,3.8-7.8,3.8-5.3,1.4-8-3.5-4-5,3.8-7.4,1.9-6.7-5.8.5-6.9,1.3-6.6-11.8-4.6-6.4,1-8.2-1.3-3.4-4.3,1.9-1.3,3.5-3.7,3.5-5.1,0-3.5.3-3.5-7.5,0-4.6,1.9-7.4,4.3-9.8,8.6-3.8,6.9-8.3,7.4-10.4,1.3-1.1-3.2-.5-5,3.4-10.6,2.7-4,4-7.4,3.4-8.2-1.8-1.8-5.8,0-7.5,3.2-.8,1.4-2.6,2.7-3.8,2.7-2.4,0-5.1,4.5-6.9,11.8-1.1,5-4.6,5.1-6.4.3-2.6-6.7-1.6-10.2,4.2-15.2,5.3-4.5,6.4-8.3,2.4-8.3s-13.3,8-15,11.2c-1,1.8-1,4.3,0,7.5,1.8,6.1,0,7.8-4,4.2-3.8-3.5-4.3-12.2-.8-15.8,2.7-3,1.4-5.8-1.9-4.5-2.2.8-2.2.6.2-3.4,1.4-2.4,4-5.4,5.6-6.9q3-2.6,4.3,1.1c1.8,5.3,5.8,4.6,8.6-1.4,2.1-4.5,2.9-5,6.1-4.3,2.2.6,6.7-.2,11.4-1.9,4.6-1.8,8-2.4,8.5-1.4,1.1,1.8,8.6,1.8,14.6,0,4.5-1.3,4.6-1.3,3.8,2.7-1.1,5.3,1.9,6.2,12.6,4.2,9-1.8,12.6-1,6.2,1.6-2.6,1-3.7,2.4-3.4,4,.3,2.1,2.1,2.6,9.1,2.6s20.8,4.2,20.8,7.5-1.6,4.2-3.7,6.9c-2.1,2.7-3.4,5.9-2.9,7,1.1,2.7,6.1,2.7,7.2,0,1-2.4,6.2-2.9,9.4-.8,3.4,2.1,3.2,16.6-.3,23.2-2.4,4.5-2.6,5.9-1,7.7,1.6,1.9,1.1,2.9-3,6.1-2.7,2.1-5.9,3.8-7,4-4.6.3-15.5,6.1-21.3,11.4-4.6,4.2-6.4,5-7.8,3.7-2.4-2.1-3.7,1.8-3.7,10.9s.5,6.1,2.9,6.1,3.2-1,3.7-2.1c.5-1.1,1.4-2.1,2.4-2.1s3.7-1.6,6.2-3.5c2.6-1.9,6.4-3.5,8.3-3.5,6.4,0,6.7,10.2.6,19-3.5,5.1-5,4.2-2.6-1.8,1.4-3.4,1.4-4.8,0-6.4-1.4-1.8-2.6-1.3-6.6,3.7-5.8,6.9-6.1,9.4-1.4,10.7l3.5,1-3.2,4.8c-1.8,2.6-4.5,5-6.1,5.3-4.8.6-4.3,5,.6,6.1,4.3,1,5.9,4.2,2.6,5.4-1.4.5-1.4,1,0,2.6,2.7,2.9,2.1,5.3-1.8,6.2-4,1-4.8,4.3-1.3,5.8,3.2,1.3,1.3,3.4-3.7,4.5-2.4.5-4.3,1.9-4.3,2.9,0,1.9.8,2.2,5.8,2.6,1.3,0,2.1,1.6,2.1,3.7s-.8,3.7-5,4.3c-2.7.3-5.1,1.4-5.4,2.6-.6,1.8.2,2.1,5.8,2.4,4.5.3,3.4,2.9-2.6,5.9-3.2,1.6-7.2,4.3-9.1,5.9l-3.2,3,6.6-1.3c3.5-.6,7.8-1.9,9.3-2.7,3.8-2.1,5.9-1.9,5,.5-.5,1.1-2.6,2.4-4.6,2.9-4.3,1.1-13.1,9-13.1,11.8s2.1,2.2,8.8-3.2c10.2-8.2,14.9-6.1,7.7,3.7-8.5,11.5-7.2,13.8,2.4,4,4.8-5,6.2-5.8,8.3-4.5,2.4,1.6,2.6,3,1,8.6-.8,2.6-.5,3.2,2.1,3.2s3.7-1.3,4.6-2.9c2.2-4.3,9.4-3.4,8.8,1.1-.5,3.8,0,4,4.8,1,3.4-2.2,3.5-2.2,5,1.6,1.1,2.9,2.1,3.7,4.3,2.9,1.6-.5,2.9-.3,2.9.6s2.4,1.3,7.2.6l7.2-1-.8,4.2-.8,4.2,2.4-3.2c2.7-3.7,6.7-4.2,9.8-1,1.3,1.3,2.2,1.6,2.2.8s1.6-1.6,3.7-2.1c3.4-.6,3.7-.3,2.9,2.7-.5,1.8-2.4,5.8-4.5,8.6-2.4,3.5-3.5,6.9-3.2,9.6.3,3.7,1.1,4.5,5.3,5.3,2.7.5,5.4,2.1,6.1,3.2.6,1.3,2.9,2.2,5,2.2s7.5,1.3,12.2,3c7.7,2.7,8.6,2.7,12.6.8,4.2-2.1,4.3-2.1,5.6,1.3.6,1.9,1.9,3.8,2.9,4.3.8.5,1.1,2.2.6,3.7-.5,1.4-.2,2.7.6,2.7s2.6,1.6,4,3.7c2.2,3.5,2.2,3.8,0,5.1-3.4,1.9-3,3.7.6,3.5,2.4,0,3.5,1.3,5.1,7,1.4,4.8,3.7,8.5,7,11.2,3.4,2.9,4.6,4.8,4.2,6.7-.6,2.1-.2,2.4,2.2,1.8,3.8-1,5.8,1.9,4.6,6.7q-.8,3.5,1.9,1.1c2.7-2.4,2.9-2.4,5.3,0,1.3,1.4,2.4,3.7,2.4,5s.8,2.1,2.4,1.4c2.9-1.1,6.2,3,6.2,7.7s1,3.4,3.2,3.7c2.1.3,3.2,1.4,3.2,3.4s1.1,3,3.2,3.4c4,.6,9.3,7,8.3,10.4-.6,1.9,0,2.2,2.7,1.8,2.4-.5,4,.2,5,2.1,1.1,2.1,2.6,2.6,5.9,2.1,3.2-.5,4.3,0,4.3,1.6s1,1.9,2.7,1.4c1.4-.3,4.6.3,6.9,1.4,2.2,1.1,7.7,3.8,12.3,5.9,4.5,2.1,8.3,4.3,8.3,5.1s1.4,1.4,3.2,1.4c4.3,0,7.4,2.1,6.2,4.2-.6,1,.3,1.6,2.4,1.6s6.9,2.6,11.2,5.6,10.6,6.9,13.9,8.5l6.1,2.9v9.1c0,13.6-.8,15.4-6.6,15l-.6-1.4ZM856.8,552.5c1-1.1,3-2.4,4.8-2.7q3.2-.8-.2,2.1c-4,3.2-7,3.8-4.6.8v-.2ZM859,476.2c1.8.6,1.9,1.4.8,3.7-.8,1.6-2.4,2.9-3.5,2.9s-3.5,1.3-5.6,2.9c-4.5,3.5-5.9,3.7-4,.3,2.7-5,9.9-10.7,12.3-9.9v.2ZM851.5,469.8c.5-4,4.8-4.5,4.8-.5s-1.1,3-2.6,3.4c-2.1.3-2.6-.2-2.1-2.9h-.2ZM878.6,205c-4.3,2.2-7.2,1.8-7.2-1.3s4-5,7.7-3.5c3.2,1.3,2.9,3-.5,4.8ZM883.2,211.4c.5,1.1.3,2.4-.2,2.7-1.6,1-6.1-2.1-5.3-3.5,1.3-2.1,4.6-1.6,5.4.8h0ZM969.4,169.3c.5-.8,1.1-1.4,1.4-1.4s.6.6.6,1.4-.6,1.4-1.4,1.4-1.1-.6-.6-1.4ZM1244,666.9c2.9-1.1,6.9,0,6.9,2.1s-2.4,1.8-6.4,0c-2.6-1.1-2.7-1.3-.3-2.2l-.2.2ZM1245.1,687.7c1.6,0,2.9.6,2.9,1.4s-1.3,1.4-2.9,1.4-2.9-.6-2.9-1.4,1.3-1.4,2.9-1.4ZM1242.9,700.7c2.7-3,5.1-3.8,5.1-1.8s-1.8,2.1-3.8,3c-2.6,1.2-3,.7-1.3-1.3h0ZM1268,713.5l2.9-2.9v9.3c0,6.4-.6,9.9-2.2,11.5-1.3,1.3-2.4,2.2-2.6,2.2-10.7-2.7-17-7.7-20.3-16.8l-2.6-6.6,3.4-2.6c1.9-1.4,3.8-2.7,4.3-2.7s3,2.6,5.6,5.8c5.3,6.4,7.4,7,11.5,2.9v-.2ZM1264.5,648.7c-4,5.8-8,10.4-9,10.4-3.5,0-3.5-4.3.2-9.6,7-10.2,12-15,14.6-14.1,2.9,1.1,3,.6-5.8,13.3ZM1285.1,613.7c-1.9,4.3-5.6,6.4-4.6,2.7,1-3.4,4.6-8.2,5.6-7.2.5.5,0,2.4-1,4.5ZM1285.1,571.1c-4.5,17.4-6.1,21.3-17.1,43.8-5.8,11.5-11.2,21.3-12.2,21.8-2.2.8-2.6-39.7-.3-48.5,1-3.8,4.6-9.3,11-16.5,5.3-5.9,11.4-13.3,13.6-16.2,3.2-4.3,4.5-5.1,6.1-3.7,2.7,2.2,2.6,5.9-1,19.4l-.2-.2ZM1289.6,577.8c0-4.2,1.9-7.5,3.7-5.8.3.3-.3,2.9-1.4,5.4l-2.1,4.8v-4.6l-.2.2ZM1292.3,599.7c-.8.5-1.4.2-1.4-.6s.6-1.8,1.4-2.2c.8-.5,1.4-.3,1.4.5s-.6,1.9-1.4,2.4h0ZM1292.5,527.3c-2.7,3.5-7.2,8.8-9.9,11.8-4.8,5.1-8.8,6.9-8.8,4s-1.8-2.2-4-3.5c-3.7-1.9-5-3.8-9.1-13.1-1.4-3.4-1.3-11.8.5-15.4.6-1.3,3.8-3.7,7.2-5.3s8.6-4.5,11.8-6.4c16.8-10.2,19.2-11,27.8-10.1,16,1.9,15,4.6-2.1,5.3q-9.9.3-10.9,5c-1.4,7-7,13-14.6,15.5-7.5,2.6-8,5.6-1.1,7.2,7.7,1.6,18.1-4.2,21.3-12.2,1-2.4,2.4-4.3,3-4.3,2.2,0-.3,9.3-3.5,12.2-1.8,1.6-5.3,5.8-8,9.3h.3ZM1308.2,504.5c0-2.2,3.5-5.8,5.8-5.8s1.4.8,1.1,1.6c-.8,2.6-6.9,6.2-6.9,4.2h0ZM1316,518.8c1.1,0,2.1.6,2.1,1.4s-1.3,1.4-3,1.4-2.6-.6-2.1-1.4c.5-.8,1.8-1.4,2.9-1.4h.2ZM1300,586.3c-2.1,1.8-2.2,1.6-1.4-1.6.5-1.9,1-4,1-4.6,0-2.4,2.9-.8,2.9,1.6s-1.1,3.5-2.4,4.6ZM1317.1,569.5c-.2,2.4-2.2,8.2-4.6,13s-5.3,9.9-6.6,11.5q-2.2,2.7-1.4-.8c.5-1.9,1.3-7.4,1.8-12,.6-6.9.3-8.6-1.6-9.8-1.3-.8-2.4-2.6-2.4-4.2,0-2.6.8-2.9,7.5-2.4,7.4.5,7.5.5,7.2,4.6h.2ZM1308,554.1c3.2-.8,4.3,0,4.3,2.7s-.5,1.8-1.1,1.8c-6.4-1-8-3.2-3.4-4.5h.2ZM1317.3,548.1c-3.2,2.4-4.5,2.6-8.8.8-5-2.1-4-5.3,2.1-6.4,3.8-.6,5.8-.3,7.4,1.3,2.1,2.1,1.9,2.4-.6,4.3ZM1313.8,533.3c4.2-.5,4.6,0,4.2,2.7-.6,3.8-2.2,4.5-6.6,2.4-4.5-2.1-3.2-4.6,2.4-5.1ZM1320.2,530.3c-2.7.6-7.2.3-13.1-1-2.1-.5-2.9-1.4-2.4-2.9,1.1-3,10.9-2.7,14.9.5,3,2.6,3,2.7.5,3.2l.2.2ZM1324.6,514.3c-1.1,1.8-5,1.9-7.7.3-1.6-1-1.4-1.6.5-3.5,1.3-1.3,2.9-2.4,3.5-2.4,2.1,0,4.6,4.2,3.7,5.6ZM1332.5,553.7c-2.7,3.2-4.3,2.7-4.3-1.3s1-4.3,4.2-2.2c1.8,1.1,1.8,1.8.2,3.5ZM1336.8,534.3c-.8,1.6-2.9,3.7-4.3,4.5-2.2,1.1-3,1-4.3-1.3-1.3-2.4-.8-3.2,3.5-5.3,5.8-2.7,7.4-2.1,5.1,2.1ZM1336.3,522.6c-1.6,1.8-3.7,3.2-4.6,3.2-3.8,0-3.2-2.9,1.6-6.7,4.5-3.5,5-4.6,4.2-8.6-.6-3.7-.3-4.6,1.4-4.6,5.3,0,3.8,9.8-2.6,16.8h0ZM1374.9,424.9c-.8,2.2-5.3,3-5.1,1.1,0-.6,1-2.7,2.1-4.6,1.8-3.2,2.1-3.2,3-1.1.5,1.4.6,3.5,0,4.6h0ZM1379.4,417.7c-.5-.8-1.1-3-1.6-5.1-1-3.7,2.9-9.1,14.2-20.8,1.8-1.8,5.1-6.1,7.8-9.6,6.6-9.1,9.3-8.8,5.6.6-3.2,8.2-9.8,18.6-11.7,18.6s-2.1,1.9-2.9,4.3c-1.6,4.6-2.6,5.1-5.3,2.6-1.3-1.3-1.8-1-1.8,1.9s-3.4,9.6-4.6,7.5h.2ZM1390.6,429.3c-3.8,2.7-8.2,2.7-7,0,1-2.4,7.2-4.5,8.8-2.9.5.6-.2,1.9-1.8,3v-.2ZM1391.8,421.3c-.6-1,0-2.2,1-2.9,3.2-2.1,5.8-1.4,5.3,1.1-.6,2.9-4.8,4.2-6.2,1.8h0ZM1405.6,410.5c-1.9,2.4-7.2,3.2-7.2,1.1s5.1-5.8,7-4.6c1.6,1.1,1.8,1.6,0,3.5h.2ZM1413.9,399.3c-3.2,3.4-8.5,4.6-8.5,2.2s1.1-2.7,2.6-4.5c1.9-2.4,3.4-3,5.9-2.2l3.2,1-3.2,3.5h0Z"/>
  </g>
  <path class="st1" d="M1080.5,955.4c2.7,1,2.4,0-2.4-5.8-7-8.5-7.2-12.8-1.1-17.9,4.3-3.7,5.9-9.4,2.4-9-1,0-5.6,1.9-10.2,3.8-8.2,3.4-8.5,3.4-12.6-.6-6.4-6.4-7.8-5.4-8.5,5.6-.5,8.2-1.1,10.1-3.5,10.6-1.6.3-10.2-1.6-19.2-4.2l-16.3-4.6-6.1-8.8c-6.6-9.4-7.2-14.7-2.1-19.2,4.6-4-.3-4.6-8-1l-7.4,3.4-4.6-5.6c-2.6-3-5.3-5.1-5.9-4.6s-1.4,4.2-1.8,7.8l-.5,6.9-3.7-2.9c-5-3.8-17.1-18.2-18.2-21.6-.8-2.4,0-2.7,8.6-3.7,12.8-1.4,13.4-3,5.1-13.1-6.2-7.5-6.7-8.3-5.8-13.8.6-3.4,2.1-6.2,3.5-7,2.7-1.3,3.5-7.4,1-7.7-.8,0-5.3,1.3-9.9,3-8.2,3-8.6,2.9-14.7-1.4-3.5-2.4-7.2-5.4-8.2-6.6-3.4-3.7-22.9-91.2-23.8-106.4-.2-3.5,0-3.7,4.6-4.3,2.7-.3,6.1-1.1,7.4-1.6,1.4-.6,2.9-.6,3.4,0s1.3.6,1.9,0c.6-.5-1.6-3.5-5.6-7.5l-6.7-6.6,2.1-8.2c1.1-4.5,2.6-8.6,3.4-9.3.6-.6.3-2.1-.6-3.4-1.4-1.8-2.7-1.6-5.4.6-1.9,1.6-3.8,2.6-4.3,1.9-.8-1,3.8-43,6.4-58.9.6-4.3,2.4-16.8,3.5-27.7,1.3-10.9,2.9-24.2,3.8-29.3.8-5.3,2.1-15,2.9-21.9.8-6.9,2.4-19.7,3.5-28.3,1.3-8.8,3.2-23.4,4.3-32.5,1.1-9.1,2.4-19.5,3-23.4.6-3.7,1.6-10.7,2.2-15.4.6-5,3.2-12.3,6.1-17.3,4.6-8,5.4-8.8,9.8-9.8,2.7-.6,6.7-1,9-1s5.1-.6,6.2-1.6,2.4-1.3,3-.8c.5.6,8.6,1,18.1,1,14.7,0,65.3.6,88,1.3,6.1.2,7.2.6,9.3,4.6,1.3,2.4,2.2,6.9,2.1,9.8-.3,7.8,2.9,7.4,7.8-1.3,4-7,4.2-7,10.7-8.3,9.3-1.8,9.8-2.7,4.8-8.6-5.8-6.7-6.4-10.4-2.9-14.9,2.9-3.5,1.6-8.5-1.4-5.9-.8.6-3.8,2.2-6.7,3.7-4.6,2.1-5.8,1.9-8.2-.8-6.4-7.7-10.6-6.6-10.1,2.6.6,8.8-5.1,12.6-18.4,12.2-11-.3-23.5-.6-38.6-.6s-18.2-.3-29.6-.8c-11.4-.3-22.6,0-24.8.6-3.7,1.3-4.3,1-8.6-5l-4.8-6.2,4.2-5.1c3-3.8,3.7-5.6,2.2-7.4-2.1-2.4-2.4-2.2-10.2,4.8-4.3,3.8-5.6,4.5-7,2.9-1-1.1-3.2-10.9-5.1-21.9-1.9-11-4.3-24.6-5.4-30.2-2.7-13.4-6.4-45-5.4-45.8.5-.3,2.7-1,5.1-1.4,7-1.3,7.4-2.6,2.9-8.8-4-5.4-4-6.2-1.6-12.6,2.9-7.7,2.2-10.1-1.9-6.7-1.4,1.3-4.6,3.4-6.9,4.6-3.7,2.1-4.6,1.9-7.2-1.3-3.8-4.8-7.7-16.6-6.6-20.3.8-2.2,2.7-2.6,10.7-1.8,5.4.6,10.2.6,10.9,0,1.8-1.4-1.1-8.2-6.1-14.2-3.4-4-4.5-6.7-4.5-10.9s.8-6.1,1.4-6.7c1.6-1.4,2.7-8.2,1.6-9.6-.5-.5-2.7.6-5.1,2.7-2.4,1.9-6.2,4-8.5,4.6-3.8.8-4.6.3-10.4-6.4-7.8-9.3-8.8-8.5-10.9,8.3-1,7.7-2.4,12.5-3.8,13-1.3.5-6.1,3.5-10.9,6.9-7,5-8.2,6.1-6.1,6.9,1.3.5,3.8.6,5.6.5,1.8,0,6.6.5,10.7,1.3,7.2,1.4,7.5,1.6,8.6,6.4.6,2.7.8,5.9.3,7.2s-.5,3.8,0,5.9c1,4.5,3.5,4.5,6.7,0,1.9-2.6,2.6-2.7,4.3-.3,1.1,1.4,3,5.9,4,9.9,1.8,7.2,1.8,7.4-3.8,12.8-3.2,3-5.3,5.9-4.8,6.6,1.3,1.4,9.1,2.1,10.6.8,2.2-1.8,4,2.2,3,7s.2,8,2.4,6.2c2.4-1.9,4.2,2.9,7.4,20,9.3,50.4,9.8,55,5.4,56-2.6.6-3.4,1.8-3.7,6.1-.3,2.9.6,7.2,1.8,9.4,1.3,2.2,1.6,4.6.8,5.3-2.1,1.8-9.4.5-18.9-3.2-4.6-1.8-18.6-6.6-31-10.7-23.5-7.7-42.9-15.2-44.5-17.1-.5-.6,0-3.5,1.4-6.4,2.1-4.5,1.9-5.6-.8-7.7-4.2-3-4.3-3.2-5.8.6-2.9,7-10.6,8.8-15.2,3.4-1.4-1.8-4-3.4-5.9-3.8-3-.8-3.4-.3-3,5.4l.3,6.2-5.6-4c-3-2.2-7.2-4.8-9.1-5.9s-8.3-5.4-14.1-9.8c-28.2-20.6-35.7-25.6-39.8-26.2-1.8-.3-3.2-1-3-1.3,0-.5,1.4-4.3,2.9-8.5,2.9-8.2,2.9-9.3-.8-9.6-2.1-.2-1.3-13.8,2.6-42.6,1.4-11,10.6-28.2,16.8-31,1.9-1,8.3-1.9,14.4-2.1,6.1-.2,11.2-1,11.4-1.8.3-.8-3-5-7.4-9.3l-7.8-8,2.2-5.3c1.1-2.9,2.2-6.6,2.4-8.2,0-1.6,1.4-4.3,2.7-6.2,1.4-1.8,2.9-3.8,3.4-4.3,1.3-1.8-13.1,2.1-19.4,5.3l-5.8,2.9-5.8-6.7c-11.2-13.3-16.6-11.5-16.6,5.4v11.5s-5.8,4.3-12.8,9.4c-7,5-13,9.4-13,9.9-.2,2.4,11.2,5.9,18.9,5.9h9l.3,5.4c.2,3-1,21.3-2.6,40.5-2.7,32.3-3.2,35-6.7,36.5-3.2,1.3-4.5.6-9.3-4.3-3-3.2-5.8-5.4-6.4-5-.5.5-.3,3.4.3,6.6s.6,6.4,0,6.9c-1.1,1-34.7,4.5-47.8,5-2.6,0-10.2.6-17,1-19.2,1.3-26.6,1.3-27.7,0-.6-.8.3-3.4,2.2-5.9s3-5.3,2.7-6.1-4.6.3-9.8,2.4l-9.1,3.8-5-5.1c-5.6-5.8-8-5.4-5.8,1,.8,2.2,1.4,6.2,1.3,8.6-.2,4-1.1,5.1-9.3,11-9.6,7-10.4,9.6-2.7,8.6,7-.8,11,1.9,12.2,8.3.5,3,1.6,6.2,2.2,7.2,1.8,2.2,5.1-.6,6.2-5.3,1.3-5.6,7-9.4,13.4-9.1,6.1.3,8-1.9,5-5.4-1-1.1-1.6-2.9-1.3-3.8.6-1.8,9.1-3.5,16-3.2,2.2,0,6.6-.2,9.6-.6,5.9-.8,39.7-2.9,51.8-3.2,8.2-.2,9.4,1.6,4.3,6.1-3.4,2.9-3.4,3,.6,6.4,3.8,3.2,4,3.7,1.8,8.2-1.3,2.6-2.9,6.9-3.4,9.4-1,4.5-17.1,53-33.1,99.7-4.2,11.8-9,26.4-10.7,32.5-1.8,5.9-4,11-4.8,11.2-1,0-2.9-1.3-4.5-3-4.3-5.1-6.4-2.7-6.4,7.2s-.5,10.1-.8,11.2c-.5,1.1-4.6,5.6-9.3,9.8-4.6,4.2-8.3,7.8-8,8.2.3.3,4.6.8,9.8,1,11,.5,15.7,4.5,14.1,12-1,5.1.3,7.8,4.2,8.2,1.8,0,4.2,7.5,8.6,27,12,51,16.6,75.2,15,78.1-1.1,1.9-.6,3.8,1.1,5.9,1.4,1.8,2.6,5.3,2.4,7.8-.2,4.2-1.4,5.8-8.8,12l-8.6,7.2,6.2,1.4c3.4.8,6.2,1.9,6.1,2.6,0,1.8-10.9,25.4-20.5,45.3-4.3,9-8.5,18.2-9.3,20.5-.6,2.2-3.8,9.1-6.9,15-3,6.1-11.2,22.2-17.9,36.2-33,67.8-32.2,66.6-36.3,66.9-2.2,0-4-1.1-6.7-5-2.9-4.2-4-5-5.6-3.5-1.1,1-1.3,3-.5,4.8s1.3,6.1,1.1,9.6c-.3,6.2-.6,6.6-9.3,13.4-5.3,4.2-8.3,7.4-7.5,7.7s2.2,0,3-.8c.8-.6,5-.5,9.1.3l7.7,1.4,1.1,8.5c.6,4.6,1.9,9.6,3,10.9,1.9,2.2,2.2,1.6,6.7-8.5,5.8-13.1,8.8-15,18.4-12,6.7,2.1,11.4,1.8,11.5-.8,0-.8-1-1.4-2.4-1.6-1.4,0-5.3-3.5-9.1-8l-6.6-7.8,5.1-4.3c6.2-5.3,6.2-6.9-.3-7.4-2.7-.2-5.1-1.1-5.3-2.1-.3-1.9,3.7-10.9,19.8-44,11.4-23.4,19.4-40.3,23.4-49.4,1.4-3.4,3-6.4,3.5-6.9.5-.3,5-10.1,10.1-21.4,5.1-11.4,9.6-21,10.1-21.4.5-.3,1.6-2.7,2.7-5.3,2.7-6.7,11.4-22.9,12.2-22.7,1.8.3,7.5,21.9,9,33,.8,6.7,2.7,20.8,4.2,31.4,6.9,51.2,9.8,78.7,8.2,77.8-3.5-2.1-4.8,1.9-4.3,12.2l.6,10.4-12,8.8c-11.5,8.5-12,9-9.9,11.2,1.1,1.3,6.9,2.9,12.8,3.4,5.9.6,11.2,1.6,11.8,2.2s2.1,6.1,3.2,11.8c1.3,6.1,2.9,10.6,3.8,10.4,1.6-.3,3.8-3.5,11.4-16,3.7-6.2,5.6-7,16.8-7.7,9.1-.5,11.2-2.6,8.2-8-1.4-2.6-4.5-6.6-7-8.8-4.2-3.8-4.3-4.5-2.6-10.7,1.1-3.7,2.9-8.5,4-10.9,1.8-3.5,1.6-4.3-.8-4.8-2.7-.5-6.1.8-19,7.2-9.4,4.6-9.3,5-16.3-50.4-2.7-21.3-3.2-24.8-8.3-61.4-5.1-35.8-5.1-34.7-2.1-38.2,1.4-1.6,4.2-5.4,6.2-8.5,3.5-5.4,3.8-5.6,10.6-5.1,8.3.6,11.4-1.1,7-4-8.5-5.6-9.3-6.7-9.3-13s1.3-8.3,2.7-11c3.4-5.8,1.8-8.5-3.5-5.8-12,6.2-14.2,6.9-17,5.3-2.1-1.3-6.1-15.4-15.2-53.4-6.9-28.5-13-54.9-13.4-58.9-1.8-12.6,7-22.4,18.9-20.8,6.7,1,7.4-1.6,2.2-7.7-5.3-6.2-5.3-8.5-.8-19,2.7-6.6,1.6-11.5-1.9-8.5-3,2.6-17.3,8.5-18.1,7.5-.3-.5,0-1.4.8-2.1s3.5-8.2,5.9-16.6c2.4-8.5,5.1-17.8,6.1-20.6,5.1-15.7,10.2-33.6,10.1-35,0-.8.8-3,1.9-4.6,1.3-1.8,5.6-14.2,9.6-27.8,4.2-13.6,9-28.5,10.7-33,1.8-4.5,3.2-8.8,3-9.8,0-.8.6-2.4,1.9-3.4,1.1-1,2.1-3,2.1-4.6s.6-3.5,1.6-4.3c2.4-1.9,5.1,2.2,5.4,8.2.2,4.6.5,5.3,3.4,5.4s3.5-.5,5.1-6.4c1.1-3.7,3.2-7.8,4.8-9.1,3.5-3,17.6-1.8,22.6,1.9,1.9,1.4,12.5,8.8,23.5,16.2,29.9,20.3,28.6,19.2,24.2,23.4-2.1,1.9-5.4,4.8-7.7,6.4-4.2,3-3.7,6.1.6,4.3,6.6-2.7,10.6-3.8,14.7-4h4.5c0-.2-.6,7.5-.6,7.5-1,12.2,2.1,13.3,7,2.9,3-6.2,3.5-6.7,8.5-8,2.9-.8,5.9-1.9,6.7-2.6s2.9-.6,4.8,0c1.8.6,3.8.2,4.5-1,.8-1.3,9.6.8,28.5,7,51.7,17.1,53.1,17.8,47.8,22.2-4,3.4-2.2,4.5,5.1,3.8,3.5-.3,6.9,0,7.5.6,1.3,1.4.8,19.8-.8,34.2-1.4,12.6-1.9,15.8-5.8,43-3.7,26.2-8.5,62.1-14.9,113.3-2.4,18.9-5.4,41.9-6.9,51-1.4,9.3-2.9,18.6-3.2,20.8-1,6.2-5.8,7.5-14.4,4-4.2-1.8-8.3-3-9.1-2.9-1,0-1.4,4.5-1.1,9.8l.6,9.6-6.4,4.6c-5.9,4.3-6.2,5-4.2,7.4,1.4,1.8,4.8,2.2,10.4,1.8,4.5-.5,8.6-.3,9.1.3,3.5,4.2,1.1,14.2-13.4,57.6-4,12-10.7,31.8-14.9,44.3-6.6,19.4-8,22.4-10.4,21.9-3-.6-3.7.3-5.8,10.4-1.1,5.4-2.7,7.8-8.6,13.1-4,3.5-8.8,7.2-10.9,8l-3.7,1.6,5.6.6c3,.3,7.5.3,10.1-.3,4.6-1,8.8,1.8,7.7,5.3-.3,1,.2,4.3,1.1,7.4,2.2,7.4,5.3,7.5,8.3.6,3.2-7,8.3-11,13.1-10.4,5.4.8,6.2-.2,3.5-5.1-1.4-2.7-1.6-5.9-.3-9.1,2.4-6.2,3-12.2,1.6-13.9-.6-.8-4.5-.8-8.3,0l-7.2,1.3,1-5.6c.6-3.2,1.9-8.8,3-12.6s2.4-9.3,3-12.2c.5-2.9,2.9-9.6,5.1-14.9,2.2-5.4,4.6-12.2,5.4-15.2.6-3,2.6-8.6,4.2-12.5,1.6-3.8,3.2-8.8,3.7-10.9,1.3-8.8,9.4-29.4,12-30.7,1.4-.6,4.3-3.5,6.6-6.4,2.2-2.9,4.3-4.8,4.6-4.5.6.8,3.4,12.3,8.8,37.1,1.6,7.4,5,22.2,7.4,33.3,5.1,23.4,6.1,29.9,3.8,30.2-1,0-.8,1.3.3,2.6,1,1.3,2.2,7.4,2.7,13.6.6,10.4.5,11.7-3.5,15-7.4,6.2-11.8,12.3-10.4,13.9.8.8,1.9,1.1,2.6.6.6-.5,2.2-.3,3.5.5s5,1.8,8,2.1l5.6.6,1.9,7.4c3,11.5,7,14.1,9.6,5.6,2.4-8.2,4.6-7.2,15.4,6.1l9.6,12.2-6.7,5.4c-8.3,6.6-7.4,9.1,3,7.7,3.8-.5,7.4-.6,7.5-.3,1.8,2.1,2.4,10.6,1,12.8-1,1.4-1,3.7,0,4.8,2.6,2.9,8.6-.3,9.9-5.3,1.6-6.1,6.4-9.3,10.9-7.2,2.1,1,13,4.2,24,7,11.2,2.9,20.8,5.8,21.3,6.6.5.6.5,2.6,0,4.2-1,2.6-.3,2.9,5.4,2.9s8.8,1.1,8,6.6c-.5,3.2,0,4.2,2.6,5.3,3.2,1.3,4,.5,10.7-8.5,2.6-3.5,7.7-3.8,15.7-1.3l.2-.2ZM1089.3,419.7c1.3.8,3.8,1.3,5.4,1.3s2.4.5,1.8,1c-.6.6-4,.8-7.4.5-5-.5-5.8-1-4.3-2.4,1.1-1,3-1.1,4.5-.3h0ZM914.2,251.4c-2.7.3-5.1,1.6-6.9,4-3.2,4.2-3.8,3.8-4.5-2.1-.6-5-3-6.4-6.1-3.7-1.1,1-4,1.3-6.4.5-4.5-1.4-3.7-3.7,2.2-7,5.3-3,5.6-3.5,5.9-10.2.3-7.5,2.4-8.5,7.2-2.9,3,3.5,8,5.4,10.1,3.7,2.6-2.2,3.5,0,1.6,4.3-1.3,2.7-1,4.6,1.1,7.2,3.4,3.8,2.1,5.8-4.2,6.4l-.2-.2ZM920.3,293.5c.8-2.6,4.5-1.8,5.4,1.3.5,1.4.5,2.9,0,3.4-1.4,1.1-6.1-2.7-5.4-4.5v-.2ZM747.5,239.9c-1.8,2.6-3.7,4.8-4.3,4.6-.6,0-1.8-2.7-2.6-5.9-1.3-4.6-2.1-5.9-4.3-6.2-1.6-.3-3.5,0-4.3.6s-3.7,1-6.6.6l-5.1-.6,17.3-14.7.5-9.3c.5-10.7,1.6-12.6,5-7.2,1.3,2.1,3.5,5.6,4.8,7.8,2.7,4.6,6.6,4.3,12.8-1,2.2-1.9,4.8-3.2,5.6-2.9,2.2.6-1.6,9.6-4.6,10.7-2.1.6-1.4,2.1,4,8.5,4.3,5.1,5.9,8,5.1,8.8-.8.6-5.6,1.1-10.6,1.1-8.8,0-9.4.3-12.5,4.8l-.2.2ZM607.5,343.9c-.6-.8-2.1,0-3.5,1.8-1.3,1.6-2.9,2.4-3.4,1.8s-2.7-1.4-4.6-1.6c-3.5-.5-3.5-.6-.3-3.4,1.9-1.6,3.5-4,3.5-5.1,0-1.6,1.6-2.7,5.3-3.5,5.4-1.3,8.2,0,5.4,2.4-1,.8-1.1,2.7-.5,4.3,1.3,3-.2,5.6-2.1,3.5l.2-.2ZM581.4,900.9c1.6,1.8,3.7,3,4.6,2.6,1.4-.5,1.8.3,1.8,3-.2,3.4-.5,3.7-4.5,4.2h0c-2.4.2-6.4.5-9.1.5h-4.8l4.3-3.7c3.4-2.9,4.2-4.3,3-6.6-1.9-4,1.3-3.8,4.5,0h.2ZM704.6,874c3.5,4.2,3.8,4.2,11.7.8,4.5-1.9,8.3-2.9,8.8-2.6.5.5,0,3.2-1,5.9-1.6,4.6-.6,9.4,2.2,11.7,2.9,2.2,2.1,3-3.5,4-6.1,1-10.6,4.8-11.7,10.4-.8,3.7-1.9,2.7-5.1-3.8-2.9-6.1-3-6.2-9.3-6.1-3.5,0-6.7-.3-7-.8s2.1-3,5.4-5.9c5.4-4.6,6.1-5.8,6.1-11.5v-6.4l3.5,4.2-.2.2ZM693.1,690.3c-.2,2.2-.6,4.3-1,4.6s-1.6-.8-3-2.4c-1.8-2.1-1.8-3.4-.3-4.6,3.2-2.7,4.6-1.9,4.3,2.4ZM650.7,520.1c2.2,3.8,2.6,4,6.7,1.6,2.4-1.4,6.4-3.4,8.8-4.2,5.9-2.1,5.8,2.2-.2,6.6-4,2.9-4,3.4-1,7.5l3.2,4.5h-5.3c-2.9.3-5.8,1.3-6.4,2.2-.8,1.4-2.2.8-5.3-2.2-3.4-3.2-4-4.6-2.7-6.6.8-1.3,1.3-2.7.8-3.2-.3-.5-.6-3-.8-5.6v-4.8c-.2,0,2.2,4.2,2.2,4.2h-.2ZM721.3,342c-5.3.6-7.2-1-4.2-3.5,1.3-1.1,2.1-2.7,1.9-3.7-.3-1.9,8.2-7.5,11.2-7.4,1,0,.3,3.2-1.4,7-2.9,6.6-3.4,7-7.5,7.5ZM820.8,390.1c-2.2-2.4-2.4-3.4-.6-4.3,2.9-1.6,7.8,3.8,5.4,5.9-1,.8-2.9.3-4.6-1.6h-.2ZM949.6,421.5c-1.8,0-4.5,0-5.9-.3-4-.6-4.8-2.1-2.4-4,3-2.6,5.4-2.2,8.6,1.1,2.6,2.7,2.4,3-.2,3.2h-.2ZM892.6,719.1c-3.2-.3-5.9-1-6.1-1.3s-1-3.7-1.8-7.2l-1.4-6.7,3.7,3.5c4,3.8,10.9,4.6,14.6,1.6,2.1-1.8,2.2-1.4,1.4,2.7-1.3,6.4-3.5,7.8-10.4,7.2v.2ZM952.2,875.3c-2.7-1.1-4.2-.5-8,3.4-2.6,2.6-4.8,4.6-4.8,4.5,0,0,0-1.3.3-2.9.8-4-1.8-8.2-5.1-8.5-3.8-.3-5.6-2.4-3.5-4.2,1.8-1.4,2.4-14.9,1-16.6-.5-.6-.3-1.6.3-2.2s2.4.6,4.5,4.2c3.5,5.8,8.5,8.6,11.2,6.2,1.3-1.1,1.8-.3,2.1,4,.3,4,1.3,6.2,4,8.5,4.3,3.4,3.2,5.4-1.8,3.4l-.2.3ZM981.8,923.3c-6.2-.3-6.9-1.1-3.8-5,1.8-2.1,3.8-3,6.6-2.7,5,.5,5.1.6,3.5,4.8-1.1,2.7-2.2,3.4-6.2,3v-.2ZM1058.2,944.5c-.8-1-.6-2.4.3-3.2,1-.8,2.4-.6,3.2.3.8,1,.6,2.4-.3,3.2s-2.4.6-3.2-.3Z"/>
</svg>