<?xml version="1.0" encoding="UTF-8"?>
<svg id="Layer_1" xmlns="http://www.w3.org/2000/svg" version="1.1" viewBox="0 0 1920 1080">
  <!-- Generator: Adobe Illustrator 30.3.0, SVG Export Plug-In . SVG Version: 2.1.3 Build 182)  -->
  <defs>
    <style>
      .st0 {
        fill: #dbb57f;
      }

      .st1 {
        fill: #ff7f00;
      }
    </style>
  </defs>
  <g>
    <path class="st0" d="M726.2,507.6c-1.6,1.9-6.7,7.8-11.7,13-4.8,5.1-8.8,10.1-8.8,10.9,0,3.7,4.3.6,13-8.8,5.1-5.6,11.8-13,15-16.3,3.2-3.4,6.1-7.2,6.6-8.5s2.9-3.5,5.3-5.1c2.6-1.6,3.8-2.9,2.7-3.2-1.9-.6-17.3,11.8-22.1,17.9v.2Z"/>
    <path class="st0" d="M1047.9,581.8c-3.5,0-3.5,1.9.5,6.1,2.7,2.9,6.7,4.8,6.7,3.2,0-2.9-5-9.4-7.2-9.4v.2Z"/>
    <path class="st0" d="M1046.3,578c.5.5,2.4,1,4.3,1,4.6,0,3.4-3.4-1.4-4-3.5-.5-5,1-2.9,3Z"/>
    <path class="st0" d="M958,453.3c.6,0,1.8-.6,2.6-1.4,1-1,2.2-.5,4,1.4,3.4,3.7,6.4,3.7,6.4,0s-10.2-14.9-12.5-13.4c-1.8,1.1-2.2,13.6-.5,13.6v-.2Z"/>
    <path class="st0" d="M934.7,563.9c15.5,0,16.5-1.4,2.2-3.5-8.5-1.3-15.5-.3-16.5,2.1-.3.8,5.4,1.4,14.2,1.4h0Z"/>
    <path class="st0" d="M1053.9,600.8c-1.6-1-5.8.5-5.8,2.2s1.6,1.3,3.5,1.3c3.5,0,4.8-1.9,2.2-3.5h0Z"/>
    <path class="st0" d="M1052.4,563.6c0-1.6-6.7-3.7-8-2.4s-.3,1.4,0,2.2c1.1,1.9,7.8,1.9,7.8,0l.2.2Z"/>
    <path class="st0" d="M716.7,681.2c.8-4.5.8-17.3,0-17.3-2.4,0-5.3,10.6-4,14.4,1.1,3.5,3.7,5.3,4,2.9Z"/>
    <path class="st0" d="M721.9,672.8c1.1,3.8,3.8,2.1,3.8-2.6s-.6-4.2-3.4-4.6c-2.9-.3-3.2,0-2.4,2.1.6,1.4,1.4,3.7,1.8,5.1h.2Z"/>
    <path class="st0" d="M706.2,692.8c2.2-1.6,3-3.7,3.2-9.6.3-6.4-.3-8-3.2-10.7-5.3-5-6.6-2.9-6.1,10.6.3,12.3,1,13.4,6.1,9.9v-.2Z"/>
    <path class="st0" d="M1106.3,583.9c2.6,1.1,6.1,1.1,7.2,0,1.6-1.6-2.1-4.6-5.6-4.6s-4.6,3.4-1.6,4.6Z"/>
    <path class="st0" d="M1107.9,595.4q-2.7,2.1,0,4.3c4.2,3.2,6.9,2.7,5.6-1.1-1.4-4.8-2.7-5.4-5.6-3.2Z"/>
    <path class="st0" d="M1111.1,640.8c-1,1-.6,2.2,1,3.8,2.6,2.6,7.8,2.6,8.6,0,.8-2.2-7.8-5.6-9.6-3.8Z"/>
    <path class="st0" d="M1110.2,623.4c-4.2,1.3-3.4,5.3,1.3,6.6,5,1.4,5.4,1.4,6.2,0,.5-.6-.3-2.7-1.8-4.5-1.9-2.4-3.4-2.9-5.8-2.2v.2Z"/>
    <path class="st0" d="M1109.4,610.1c-3,2.6-2.7,3.8,1.6,6.2,5.3,2.9,6.4,2.7,5.3-1-1.6-5.3-4.3-7.5-6.9-5.4v.2Z"/>
    <path class="st0" d="M1080.3,608.7c-3,0-3.7,3.5-1,4.6,2.2,1,5.3,1.1,5.3.3,0-2.6-2.2-5.1-4.3-5.1v.2Z"/>
    <path class="st0" d="M1077.7,591.1c0,1.6,1,2.1,3.2,1.9,1.8-.3,3.2-1.1,3.2-1.9s-1.4-1.6-3.2-1.9c-2.2-.3-3.2.3-3.2,1.9Z"/>
    <path class="st0" d="M1083.3,583.2c0-2.1-1-2.9-3.5-2.9-3.8,0-4.5,1.3-1.9,4,2.6,2.6,5.3,2.1,5.3-1.1h.2Z"/>
    <path class="st0" d="M1078.3,601c5,3.7,9,1.8,4.3-2.2-1.1-1-3.2-1.3-4.6-.8-2.4,1-2.2,1.1.3,3h0Z"/>
    <path class="st0" d="M1080.6,620.5c-2.2,1.4-1.9,3.4,1,4,3.8,1,5.1-.5,2.7-2.7-1.1-1.1-2.7-1.8-3.7-1.1v-.2Z"/>
    <path class="st0" d="M691.6,681c-1.8.3-2.6,2.1-2.9,6.4-.3,5.3,0,5.9,2.4,5.9s2.9-1,2.9-6.4-.3-6.4-2.4-5.9Z"/>
    <path class="st0" d="M524.4,842.6c0-2.2,6.6-8.2,7.8-6.9.3.3-1.1,5.1-3,10.9-1.9,5.8-3.8,13-4.3,15.8q-1,5.4,5.1,6.1c1.4,0,1.9,1.4,1.6,4.3-1.4,11.7-1.3,12.6,3.4,13.1,3.7.3,4.6-.3,6.7-4.6,1.3-2.7,3-4.8,3.7-4.3.6.5,1.3,4.8,1.3,9.9,0,9.1,1.8,14.9,4.8,14.9s4.6,1.9,8.3,4.5c8.2,5.3,9,8.6,2.2,8-3.8-.3-4.6,0-5,2.6-.5,3.4,5.3,6.1,13,6.2,2.4,0,6.1,1,8.2,2.1,2.7,1.4,8.2,1.9,18.4,1.8,9.3,0,15.5.5,17.3,1.4,2.9,1.8,10.6,1.3,18.7-1.1,3.5-1.1,5.3-.8,7.7.8,4.5,3.2,8.6,2.7,12.3-1.3,3.8-4.2,5.3-4.3,8.6-1.3,2.7,2.6,5.4,1.6,5.4-1.9s2.9-12.6,5.4-15.8l2.6-3,4.3,3.7c5.4,4.6,6.6,4.6,8.6,0,3.4-7.2-2.4-21.8-8.6-21.8s-12-9.8-13.6-14.9c-1.3-4.2-2.6-5-9.6-7-5.4-1.6-10.4-2.1-15.8-1.6-29.8,3.2-37,2.1-49.8-7.2-7.7-5.6-8-7.7-4.5-24.8,1.9-9.1,4-15.4,13.4-39.5,3.5-8.8,13-24.5,18.7-30.9,7.8-8.8,30.9-16,56.6-17.9,7.8-.6,17-2.1,20.3-3.2,5.3-1.9,5.9-1.9,5.3,0-1.3,3.4,6.1,1.1,23.7-7.5,8.6-4.3,19.5-9,24.3-10.6,10.7-3.4,49-23.7,58.7-30.9,4-3,7.4-5.3,7.7-5,6.6,7.8,3.5,36.5-5.6,54.4-3.7,7.2-8.3,12-17.4,17.9-7.8,5-12,12.8-10.7,20,1.4,9.1,2.1,9.9,7.8,12.5,11.4,5.1,16.6,22.1,11.2,36.5-4.2,11.2-1.6,14.1,9,9.9,2.6-1.1,2.6-.5,1.8,13.9-1.1,17.9-.8,19.5,4.6,18.4,3.7-.8,4-.5,5,5.3,1.8,11,4.3,12.8,10.7,7.2,2.1-1.8,2.9-1.6,6.6,1.1,2.2,1.8,5.6,5.8,7.4,9,3.8,6.9,5.4,8.2,8.6,7.2,1.8-.5,3.4.6,5.3,4,3.4,5.6,3.5,8.6.6,11-1.9,1.6-1.9,2.1.3,4.5,3,3.4,9.3,2.9,19-1.4,3.5-1.6,8.6-3,11.2-3.4,4.5-.3,4.6,0,4.8,4.2,0,2.6.5,5,1,5.4.5.5,4.2,0,8.2-1.4,4.8-1.6,9.3-2.1,13.1-1.4,13,1.9,16,2.1,24.2,1.3,7.5-.8,9.1-1.4,13.8-6.4,4.5-4.8,5.9-5.4,9.4-4.6,3.7.8,4.2.5,5.1-2.9,1-3.8-2.7-13.3-5.3-13.3s-1.1-1-1.1-2.1c0-2.7,1.6-2.7,8,0,7.4,3,8.6,1.1,5.3-8.6-2.6-7.8-2.9-8.2-9.4-9.8-3.7-1-8-2.7-9.3-4-1.4-1.3-5.9-2.7-10.1-3.2-5-.6-9.3-2.2-12.3-4.5-4.5-3.4-5-3.5-12-1.8-4,1-11.7,3.7-17.1,5.8-10.2,4.2-16.5,5-22.2,2.7-2.7-1-4-3.7-6.9-13.8-4.3-14.9-7.2-36-7.2-53.4s0-12.8,5.3-19.7c8.2-10.7,18.2-18.2,37-27.4,12.8-6.2,19.2-10.4,26.1-17,5.1-4.8,13-11.8,17.6-15.7,13.1-10.9,25.6-24.5,34.2-37.3s8.5-12,9.1-12.5c.8-.5,3.4,1.3,5.9,3.8,5.6,5.8,13.6,9.6,19.2,9.6s5.4,2.2,2.9,5c-.6.8-1.6,3-2.1,5-1.3,5.3,2.4,7.8,12.8,9,7.4.8,8.8.6,8.8-1.3s1.6-2.2,7-2.2c8.5,0,9.9,1.8,4.8,6.2-3.5,3-3.7,3.7-2.2,7,1.3,2.7,2.6,3.7,5.6,3.5,7-.2,25.1.6,26.1,1.3.6.3.3,1.8-.6,3.4-1.4,2.2-1.3,3.2.8,5.3s5.1,2.6,20,2.6,17.6.2,17.6.5-1.3,2.2-3,4.5c-6.1,8.2-.6,12.3,10.2,8,6.6-2.6,9-1.8,6.7,2.2-2.4,4.6.2,5.8,7.4,3.4,7.2-2.4,16.8-2.9,16.8-.6s-1.6,3-3.5,5c-1.9,1.9-3.5,4-3.5,4.8,0,2.6,5.8,3.2,8.3,1,1.9-1.8,13-6.4,15-6.4s0,1.1-.3,2.7c-1,3.8,1.9,5,11,4.8q8-.2,9,4.3c1.3,6.9-4.6,21.8-13.9,35-2.4,3.4,1,7,5.6,6.2,1.9-.3,4-.3,4.6,0s-.5,4.8-2.4,9.9-3.8,13.9-4.5,19.7c-1,10.2-.8,10.4,2.2,10.4s3.2.5,2.2,5.8c-.5,3.2-1,6.2-1.1,6.7v6.9c0,5.6.3,5.9,4.2,5.9s5.1-1.3,8-5.1l4-5.1,2.1,4.3c2.4,5.1,18.4,14.2,20,11.5,1.6-2.6,5.1-.5,8.5,4.8,2.4,3.8,2.7,6.2,2.2,13.6-.6,8-.3,9.1,2.1,9.8,2.1.5,2.6,1.8,2.2,5.1-.6,5.9,4.6,8,13.3,5.4,3.4-1,8.5-2.1,11.4-2.6,6.1-.8,5.9-1.1,2.9,11.2-.8,3.2-.5,3.8,1.9,3.8s5.4-.8,8.6-1.9c6.2-2.2,9-1.8,20.6,3.5,6.1,2.7,8.3,3,18.1,2.2,11.7-1,18.6-3.5,26.1-9.9,5.4-4.5,8-4.5,9.9,0,.8,1.9,2.7,3.5,4.2,3.5,2.1,0,2.9-1.4,3.5-6.7,1-6.6.8-6.9-4.6-11.4-6.1-5.1-7.8-11.2-2.9-9.6,1.6.5,4,1.3,5.6,1.8,2.4.8,2.9.2,2.9-4.2s-2.9-8.2-18.4-17.3c-4-2.4-9.6-5.8-12.3-7.8-7-4.8-18.9-4.6-28.8.5-8.2,4.2-10.9,4.3-17,1.3-4.8-2.6-5.1-2.7-12.6-9.1-7-5.9-8.2-12-8.8-43-.2-13.9-1.1-28.8-1.9-33-2.2-11.4-1.8-17.1,2.1-24.8,1.9-3.8,3.5-7.8,3.5-8.8,0-2.1,6.2-3.8,9.4-2.6,1.6.6,2.1,1.9,1.4,5-.6,3.2,0,4.5,2.4,6.2,3.7,2.4,6.2,1.4,13.3-5.1,2.6-2.4,4.6-3.7,4.8-3,0,.8.3,2.6.3,4,.2,4.3,4.5,6.1,7.5,3.4,1.4-1.3,5-3.4,7.8-4.5,4.5-1.8,5.3-1.9,5.3-.2,0,3,6.6,4,10.9,1.8,2.1-1.1,6.1-2.4,8.8-3,2.7-.6,7-2.2,9.6-3.8,3.7-2.2,5-2.4,6.7-1.1,1.6,1.4,3.2,1.1,7.4-1,7-3.5,13.6-2.2,19,4,2.2,2.6,4,5.1,4,5.8s1.6,1.9,3.5,2.6c2.2,1,3.4,2.2,3.2,3.8-.3,1.8.3,2.4,2.7,2.1,2.9-.5,3,0,2.2,4.2-.5,2.6-1.4,5.8-2.1,7-1.9,3.7-1.4,6.9,1.8,14.9,3,7.4,6.4,9.9,17,13.6,1.3.5,2.4,1.8,2.4,2.9s1.6,5,3.5,8.5c4,7.2,12.3,12.3,20.2,12.3s4.5.6,4.5,3.2,1.1,4,2.7,4.8c2.2,1.4,3.2,1.1,5.4-1.4,4-4.3,6.1-8.6,6.1-12.6s1-3.7,2.4-4.2c1.3-.3,3.7-1.1,5-1.8,2.2-1,2.4-.3,2.1,5.1-.3,5.6,0,6.2,3.2,6.6,2.9.3,4.6-1,9-6.7,3-3.8,6.4-10.2,7.5-13.9,1.6-5.4,2.9-7.2,6.2-8.6,2.4-1,4.8-3,5.8-4.5,2.1-3.8.3-10.2-3.7-12.5-2.1-1.1-4.5-4.8-6.4-10.1-1.8-4.6-5-10.1-7-12.2-2.2-2.1-4-4.5-4.2-5.3,0-1.9-16.3-12-19.2-12s-7.4-5.1-13.8-11.2c-9.4-9.3-13.9-12.3-25.4-17.9-9.1-4.3-19-10.7-28.8-18.4-14.7-11.7-19.4-14.7-36-22.9-14.2-7.2-14.2-7-10.6-15.5,1.9-4.5,4.3-7.7,6.2-8.2,11.8-3.7,19-17.9,21.4-42.7.5-5,2.6-13.3,4.6-18.2,2.2-5.3,3.8-12,3.8-16s.8-7.4,3-9.1c5-4,6.7-9.1,5.3-14.6-1.1-4.2-1.3-8.2-.5-12.8,0-.5,3.2-1.9,6.9-2.9l6.7-1.9,1-10.4c.5-5.8,2.1-13,3.4-16,2.4-5.8,8.5-11.8,11.7-11.8s1.8-2.1,1.8-5.4,1-7.7,2.1-10.2c1.8-4,5.3-38.4,5-47,0-1.6,1.3-10.2,3-19.4,1.8-9.1,3.2-19.2,3.2-22.6s1.3-7.8,3.4-10.9c2.9-4.5,4.3-5.1,19.4-8.8,9-2.2,17.4-4,19.2-4,4.2,0,7.5-1.4,7.5-3s-10.1-1-29.3,1.6c-7.2,1-13.4,1.4-13.9,1-1.6-1.6,5.1-6.1,12.8-8.8,4-1.4,10.2-4.3,14.2-6.4,7.8-4.3,26.7-8.2,41.6-8.3h9.1c0-.2-7.7-1.4-7.7-1.4-15.2-2.4-27,0-59.2,11.8-7.4,2.7-14.1,5-14.9,5s-1.6-1.8-1.8-4c-.3-3.4.5-4.3,5-6.2,2.9-1.3,8.5-4,12.3-6.2,7.7-4.2,17.3-8.5,27.8-12.3,3.7-1.3,6.7-2.7,6.7-3.2,0-2.2-18.7,1.3-27.4,5.1-5.3,2.4-10.2,4.3-10.7,4.3-2.1,0,.3-6.2,4.2-10.9,8.2-9.9,10.2-14.6,9.3-20.8-.6-4.5-.2-7,2.1-11,3.5-6.2,3.7-10.9.8-16.6-1.6-3-1.8-4.8-.6-6.1.8-1,1.9-5.6,2.4-10.2.8-8,.6-9-3.5-15-2.4-3.7-5-6.6-5.4-6.6s-1.1-2.9-1.3-6.4c-.5-8.3-5.1-18.2-10.4-22.1-2.2-1.6-6.2-6.2-8.8-10.2-6.7-10.4-10.7-14.7-15-15.7-2.1-.5-5.3-3-7-5.6-4.6-6.9-11.2-9.6-20.5-8.5-7.4,1-7.7.8-12.2-4-2.6-2.9-7-5.8-10.4-6.7-5.3-1.6-6.4-1.4-10.6,1l-4.8,2.7-4.5-3.5c-3.5-2.7-6.1-3.5-12.2-3.4-4.3,0-8.2-.5-8.6-1.3s-3.4-2.7-6.4-4.3c-6.1-3.2-13.3-2.7-19.4,1-2.2,1.4-4.6,1.8-7.7,1-2.4-.6-5.1-1-5.9-.6s-6.6,1-13,1.6c-9.3.8-13.9,2.2-23.7,6.9-6.6,3.2-12,6.4-12,7s-3.4,3-7.4,5.1c-11.5,5.8-15.4,9-14.9,12,.3,2.2-1.4,3.5-10.2,7-5.8,2.2-11,4.8-11.5,5.8-1.3,2.1,0,5.3,2.2,5.3s2.9,1,4.3,1.9c3.4,2.6,2.2,4-11.4,14.2-8.3,6.2-10.1,8.3-9.6,10.6.5,1.8,2.2,3.2,4.8,3.7,5.6,1.1,5.1,2.7-1.9,6.2-7,3.5-23.7,20.5-23.7,24s6.2,5.9,9.4,4.6c7.4-2.7-10.4,19-21.8,26.9-4.2,2.9-4,4.8,1,9.6,4.2,4,5.6,7.8,2.9,7.8s-4.8,3.4-9.3,7.5c-9.4,9-14.1,19.5-12.6,29.4.6,5,.3,6.6-2.2,8.8-3.2,2.9-4,7.2-1.6,8.6,3.8,2.4-2.7,13.9-11,19.4-5.8,3.8-17.4,8-22.1,8s-6.7,2.7-4.3,5.4c3,3.5,1.1,9.6-3.5,11.2-10.9,3.7-53.8,7.4-80,6.7-12.2-.3-35.5,0-51.7.5l-29.6,1.1-21.1-7.2c-19.2-6.6-48.5-12.8-51.5-10.9-.6.3-9.9,1-20.6,1.3-21.4.6-41.6,4.8-68.2,14.1-17.1,5.9-31.4,7.2-48,4.2-24.3-4.5-26.7-5.4-48.6-20.3-22.1-14.9-29.8-17.3-55.8-17.4-39.7,0-56,7.2-77,34.2-12.2,15.7-21.3,34.6-23.4,48.3-1.9,13.1-1.9,51,.3,64,2.6,15.4,2.2,28-.8,32.5-1.4,2.1-3.7,3.8-5.1,3.8s-4.3,1-6.6,2.2c-5.8,3.4-13,1.6-19.8-4.8-5.6-5.3-14.2-20.2-14.2-24.6s-.5-2.7-1.3-3.2c-1.3-.8-5.3-17.6-4.6-19.7.2-.6-.6-4.5-1.9-8.3-1.8-5.3-2.1-10.2-1.6-20,.6-11.7,1.3-13.9,6.6-24.2,3.2-6.2,5.9-12.2,5.9-13.1s2.2-6.9,5.1-13.1c12.3-27.8,14.6-39.8,9.1-48.8-3.7-5.9-10.6-11.8-15.4-13.3-2.9-.8-4-2.2-4.8-5.6-1.9-9.8-6.6-16.5-17.1-25.1-11.2-9.1-17-11-15.5-5.4.5,1.8,1.3,5.8,1.6,8.8l.8,5.6-5.8-5.9c-6.9-7.2-12.5-10.2-18.2-10.2s-4.3.6-4.3,2.6.5,3.2,1.3,3.8c.6.8,2.1,3.8,3,7,1,3,3.8,9.9,6.4,15.2,3.2,6.4,4.6,11.5,4.6,15.5s-.2,5.6-1.8,2.9c-1-1.8-3.7-5.9-5.9-9.4-2.2-3.5-4.8-7.4-5.6-8.5-.8-1.3-3-2.4-5-2.6-3.4-.3-3.5,0-4.6,8.2-.6,4.6-.6,12.8-.3,17.9.8,8.6.5,9.8-2.4,12-3,2.4-3,2.7-.8,7.2,1.4,2.9,2.7,10.1,3.4,19,1.3,18.4,4.3,25.4,15.5,35.8,9.3,8.6,13.9,15.2,13.8,19.5,0,3.4,4.2,31.7,5.1,33,.3.5,1.3,5.4,2.1,10.7,2.9,18.1,10.1,35.4,21,50.4,4.8,6.6,22.7,22.2,25.4,22.2s5.3,1.3,9.8,2.9c8,2.7,8.8,2.7,17.6.6,16.3-4,25.6-14.2,31.2-33.8,3.4-12.2,3.5-13.3,2.9-46.2-.6-29.1-.3-35,1.8-43,1.3-5.1,3-9.9,3.7-10.6.6-.8,1.1-2.4,1.3-3.8,0-4.2,4.6-12.3,7.4-13.3,1.4-.5,2.6-1.4,2.6-2.4,0-2.4,22.7-23.5,28.5-26.4,9.3-4.6,17.4-5.8,31.4-4,7,.8,15,2.2,17.9,3,5.6,1.4,17.9,9.6,23.8,15.4,1.9,2.1,7.7,7.5,12.8,12.5,7.2,6.9,9.9,10.6,12.5,17.4,1.8,4.8,4,9,5.1,9.4,2.4,1,1.6,3.8-4.6,16.6-4.8,9.9-10.9,29.9-9.6,32,.3.6,1.6,1.1,2.9,1.1,4.2,0-.5,14.6-8.2,25.3-1.4,1.9-2.9,6.2-3.4,9.6-.8,5.3-.6,5.9,1.9,5.9s2.9.8,3,1.8c.3,4-.5,7.5-2.4,9.6-1.1,1.3-2.1,3.5-2.1,5.1s-1.6,3.8-3.5,5.1c-4.2,2.7-4.5,4.8-1.1,7.2,2.2,1.8,2.1,2.1-1.8,6.2-2.4,2.4-7.7,6.9-12,9.8-13.3,9.1-15.2,13.3-7.8,16.6l3.4,1.6-5.9,11.7c-4,7.7-9,14.7-14.9,20.6s-8.5,9.6-7.8,10.1c.6.6,3,1.3,5.3,1.6,4.2.5,4,.6-6.2,8.6-9.3,7-13.9,9.1-18.9,8.2-2.6-.5-6.6,1.6-6.6,3.2s1.3,3,2.9,4.3c1.6,1.4,2.9,3,2.9,3.7,0,2.1-13.9,8.3-14.9,6.6-2.1-3.4-13-7-18.6-6.1-3,.5-6.1,1.3-6.9,1.8-5.6,3.8-13.3,23.5-13.3,34.2s-1.1,6.6-3.4,9.1c-5.9,6.9-10.6,17.8-13,29.3-1.3,6.2-2.6,13-3,15-.8,3.4-.5,3.7,3.2,3,2.2-.5,4.5-1.6,5.1-2.7.6-1,1.6-1.9,2.2-1.9,2.4,0-5.1,17-9.4,21.4-5.3,5.4-16,26.1-16.5,31.7-.2,3,.3,4,2.9,4.3,4.3.6,9-2.1,9-5.3l-.8.8ZM678,895.1c.8,0,1.1.6.6,1.4s-1.1,1.4-1.4,1.4-.6-.6-.6-1.4.6-1.4,1.4-1.4ZM659.5,882.9c6.7,3.4,7.7,5.8,5.8,12.2-1,3.2-2.6,5.6-3.7,5.6-2.2,0-7.7-5-7.7-7s-6.7-5.9-13.4-6.9c-10.1-1.4-8.2-3.7,4.2-4.8,8.3-.8,12-.5,14.9,1h0ZM751.8,710.9c-1.6.5-2.9.5-2.9.2s1.3-1.1,2.9-2.1c1.6-.8,2.9-1,2.9-.2s-1.3,1.6-2.9,2.1ZM818.3,742c2.6-2.1,33.8-12.8,37.4-12.8s3.2-.5,3.7-1.3c.5-.6,3.5-1.8,6.7-2.2,5.4-.8,15-3,36.3-8.5,4.3-1.1,9.9-1.9,12.3-1.9h4.6l-3.5,3.8c-3,3.4-4.8,3.8-11.7,4-11.5.2-31.2,4-45.1,9-6.6,2.2-17.1,5.4-23.4,7-6.4,1.6-13,3.8-14.7,5-1.8,1.1-3.5,2.1-3.8,2.1-1.4,0-.8-2.6,1.1-4v-.2ZM848.9,674.9c1.8,1.8-3.8,6.6-10.4,9-9.1,3.4-12,3.7-12,1s21.1-11.2,22.4-10.1v.2ZM837.9,667.4c2.4-1.4,2.9-1.4,2.9.3s-1.3,2.7-2.7,3.5-3,1.4-3.5,1.4c-1.6,0,.8-3.7,3.4-5.3h0ZM837.1,693.3c5.4-1.3,12.2-3.5,14.9-5,5.6-3,14.7-5.4,19.7-5.4s2.7,1.6-5.9,4.3c-4,1.3-13.4,4.6-20.8,7.2-7.4,2.7-14.4,5.3-15.7,5.8-2.6,1.1-5-1.6-3-3.5.6-.6,5.6-2.2,11-3.5l-.2.2ZM892.1,663.2c-.5.6-1.6,1.3-2.6,1.3s-3.5,1-5.8,2.1c-2.2,1.1-9.3,4-15.5,6.2s-12.5,4.5-13.9,5c-3.2,1.3-3.2-1.1,0-4,5.1-4.6,39.8-14.4,37.6-10.6h.2ZM860.7,648.8c.3-1,1.4-2.1,2.6-2.4,1.1-.3,1.6.2,1.3,1.3-.3,1-1.4,2.1-2.6,2.4-1.1.3-1.6-.2-1.3-1.3ZM864.6,660.2c0-.8.6-1.4,1.4-1.4s1.1.6.6,1.4-1.1,1.4-1.4,1.4-.6-.6-.6-1.4ZM873.1,657.5c0-1,7.2-4.3,9.4-4.3s0,2.7-3,4c-4.3,1.9-6.2,2.1-6.2.3h-.2ZM902,626.4c-.5.8-1.8,1.4-3,1.4s-1.8-.6-1.3-1.4,1.9-1.4,3-1.4,1.8.6,1.3,1.4ZM911.1,632c2.4,0,1.8,2.6-1,4-3.7,1.9-11.8,3.2-11,1.8,1-1.4,9.8-5.8,12-5.8ZM899.3,646.6c5-.8,5.1-.6,3.7,2.1-.8,1.6-2.7,3.2-4,3.7-7.2,2.1-11.7,2.4-11.7,1,0-2.2,6.2-5.8,12-6.7h0ZM878.2,764.8c-.3,1.9-1.6,3.4-3.4,3.5-4.2.6-5.3-1.3-2.6-4.2,3.4-3.7,6.4-3.4,5.9.6h0ZM887.1,758c-3,2.7-4,2.9-5.3.6-1.1-1.8,3-5.4,6.1-5.4s2.2,1.9-.8,4.8ZM897.5,749.2c-.5.8-1.4,1.4-2.2,1.4s-1.3-.6-1.3-1.4,1-1.4,2.2-1.4,1.8.6,1.3,1.4ZM910.7,735.6c-3.2,2.6-5.9,3-17.6,3.4-17.1.5-29.9,2.7-52.8,9.6-14.6,4.3-18.6,6.2-22.1,9.9-2.4,2.6-5,4.5-5.8,4.5s-1.6,1.6-1.6,3.5c0,4.5,1.8,4.5,10.1-.6,9.6-5.9,27.8-10.2,39.7-9.4,10.9.6,12.2-1.4,2.4-3.8l-6.2-1.6,7.4-2.4c4-1.3,10.9-2.4,15.4-2.4q8,0,5.9,3.2c-1.1,1.8-3.5,3.8-5.3,4.8-1.8.8-5.3,3.7-7.8,6.1-4.6,4.5-4.8,4.5-17.3,4-10.2-.5-13,0-14.9,1.8-1.3,1.3-5.4,3.5-9.1,4.8-7.7,2.7-11.7,5.8-11.7,8.5s-.2,2.6,13.1-3.5c18.9-8.6,36.3-8.8,36.3-.5s-1,1.8-3.2,1.1c-9.6-3-9.9-2.9-9.1,1.8,1,4.6,0,5.6-2.9,2.9-1.1-1.1-3.5-1-9.1.8-14.1,4.6-25.8,11.7-23.4,14.2.8.8,8.3-2.9,12.3-6.1,3-2.4,15.7-6.4,16.6-5.3.5.5,1,1.6,1,2.6s2.2,1.6,5.3,1.6,5.3.5,5.3,1.1c0,4.5-.5,5.3-3.5,6.1-2.7.6-3.5,1.8-3.5,5s-1,4.5-4.6,6.1c-14.9,6.2-19.7,8.5-21,10.2-2.6,3,1.8,2.2,9.4-1.8,11-5.8,14.2-6.4,15.2-3.2.6,2.4,1.1,2.6,3.5,1,1.6-1,3.4-1.4,3.8-1,1.4,1.4-.6,4-3.4,4s-4,1.3-5.9,2.7-4.2,2.7-5,2.7c-1.8,0-10.2,8.5-8.5,8.5s4.2-1.6,8-3.7c6.2-3.4,7-3.5,9.1-1.4s3,2.4,4,2.4,2.9,1.3,4.3,2.7c2.4,2.6,2.4,2.9,0,3.7-1.3.5-3.8,0-5.8-1-2.9-1.6-4.2-1.3-9.6,1.8-6.7,3.8-10.4,7.5-9.1,8.8s3.4-1.3,6.6-3.7l5.8-4.5,6.7,3c4.6,2.1,5.8,3,3.5,3-4.8,0-3.8,3,2.2,7.4,3,2.2,5.8,5.4,6.1,7.4.8,4.2,1,4-3.8,1.9-1.9-1-4-1.3-4.5-.8-1.4,1.4,6.7,11,9,10.6,1.4-.3,2.9,2.1,4.5,7.4,2.6,8.3,5.4,9.9,7.8,4.5,1.3-2.7,2.4-3.2,7.2-2.9,5.8.3,11.7-1.4,24.2-7.5,6.4-3,15-4,15.5-1.8.2.8-1.1,1.8-2.9,2.2-21.8,6.1-37.8,12-37.8,13.9s11,3,15,1c2.2-1.1,6.2-2.6,9-3,2.7-.6,5.9-1.6,7-2.2,1.3-.6,5.9-2.4,10.6-4,13.9-4.6,23.5-3.2,25.3,3.7,1.4,5.9-1,6.9-7,2.9-6.9-4.8-14.4-4.8-23-.2-3.7,1.9-9.1,4.5-12.2,5.8-3.7,1.4-5,2.6-3.5,3,1.1.5,2.6,1.3,2.9,2.1.8,1.3,14.9-2.4,17.4-4.6.8-.6,4-1.3,7.2-1.1,4.5,0,6.6,1,9.6,4,2.1,2.2,3.8,5.4,3.7,7.4,0,7.2-6.9,11-10.6,6.1-1.6-2.2-2.1-2.2-5.8.5-2.2,1.6-6.7,3.5-9.9,4.5-8.2,2.2-16.8,2.1-19.5-.6s-10.9-5-23.7-4.2l-12.3.8-1.8-4c-3.4-7.7-15.5-24.8-18.1-25.6-1.4-.3-2.7-1.1-2.7-1.8s-1.1-1.4-2.7-1.8c-1.6-.5-3-2.6-3.7-5.1-1.3-6.1-5.6-8.2-8.8-4.5-4.2,5-5,3.2-4-8.5,1.1-12.8-.3-15-7.2-10.6l-3.7,2.4,1-8.5c1-8.3.8-8.6-3.4-13-3-3-4.3-5.6-4.2-8.2.6-8.8,0-14.2-2.2-14.2s-3.7-3.4-5.6-7.5c-1.9-4.2-5.1-8.3-7-9.4-8.3-4.5-4.8-19.2,6.1-24.6,3.2-1.6,6.9-3.8,8.3-5.1,3.5-3,19.8-8.8,42.1-14.6,26.6-6.9,29.9-7.5,34.4-7.5s4.8-1,5.8-2.1c2.4-2.9,11.4-2.9,11.4,0s.5,1.8,2.6.5c1.4-1,3.8-1.1,5.3-.6,2.4,1,2.4,1.3-1.1,4.2l.6.3ZM921.9,722.8c-3.5,4-5.1,5-6.7,4-1.3-.8-1.6-1.8-.6-2.4.8-.6,3.8-3.4,6.7-5.9,3.4-3,5.3-4,5.3-2.7s-2.1,4.3-4.6,7.4v-.3ZM925.5,703.9c-3.4,5.3-6.1,7.2-10.2,7.2s-9.9,1.6-17.6,3.5c-7.7,1.9-19.2,4.3-25.4,5.4s-17.9,3.4-26.1,5c-17.4,3.4-15.8,3.2-14.9,1.4.5-.8,1.8-1.4,2.9-1.4s5.6-1.6,10.1-3.5,11.7-4.2,15.8-5c4.3-.8,12.5-2.9,18.4-4.8,5.8-1.9,16.6-5,24-6.7,7.4-1.8,15.4-3.8,17.6-4.6,6.4-1.9,8.2-.8,5.3,3.7l.2-.2ZM869.5,707.6c-11.5,3.4-12,2.2-1.3-2.9,5.6-2.7,10.6-5.4,11-6.2.5-.8,2.6-1.4,4.6-1.4,3.7,0,9.8-1.9,17.3-5.3,7.5-3.4,35.2-5.9,35.2-3.2s-4.5,5.8-8.3,5.8c-5.9,0-36.8,6.9-58.6,13.3h0ZM936.1,705.5c-1.9,3-5.3,5-5.3,3s4.8-5.8,6.1-5.8.2,1.3-.8,2.7h0ZM942,690.8c-.8.5-1.4.2-1.4-.5s.6-1.8,1.4-2.2c.8-.5,1.4-.2,1.4.5s-.6,1.8-1.4,2.2ZM946,673.3c-.5,1.3-3.8,2.2-9.8,2.9-11.8,1.1-20.6,3.2-31.2,7.5-4.8,1.9-9.1,3.5-9.8,3.5s-5.8,2.1-11.4,4.6c-13.9,6.4-25.3,10.4-36.3,13-5.1,1.1-10.6,2.4-12,2.9-4.5,1.3-1-1.6,6.7-5.8,3.7-1.9,7.5-3.5,8.5-3.5s4.3-1.1,7.4-2.6c3-1.4,8.8-3.4,12.6-4.5,3.8-1,8.2-2.9,9.4-4.3,2.7-2.7,9.1-5.1,17.3-6.1,3-.5,9.4-1.8,14.1-3,4.6-1.3,12-2.7,16.2-3.4,4.3-.6,10.2-1.6,13.3-2.1,4.3-.8,5.3-.6,4.8,1l.2-.2ZM892.1,678.1c-10.2,3.5-12.5,3.8-17,2.1-2.6-1-2.6-1.3.8-3.4,5.6-3.7,11.2-4.5,11.2-1.9s1.4,2.7,6.2-2.4c4.5-4.8,13.6-8,23.4-7.8,2.2,0,4.5-.6,5-1.4s3.2-1.4,6.1-1.4,9.6-1,15-1.9c5.6-1.1,10.4-1.4,11.2-.6,1.9,1.8-1.8,5.6-5.4,5.6-7.2,0-39,7.5-56.3,13.4l-.2-.2ZM952.6,708.4c-.5.8-1.1,1.4-1.4,1.4s-.6-.6-.6-1.4.6-1.4,1.4-1.4,1.1.6.6,1.4ZM955.9,673.5c-2.2,3.4-5.4,5-5.3,2.7,0-1.9,4-5.8,5.9-5.8s.6,1.3-.6,3h0ZM919.3,657.5c-7.5,1.6-14.7,3.2-15.8,3.7-1.3.5-2.2.5-2.2,0,0-1.8,6.9-4.2,23.8-8.6,18.9-5,33.9-7.4,33.9-5.3s-15.7,5.3-39.7,10.2ZM946.5,637.2c12.3-2.4,16.6-2.6,14.7-.8-.8.6-7.7,2.4-15.5,3.7-7.8,1.3-17.3,3.4-21.1,4.3-8.5,2.2-13.3,2.6-11.2.5,1.4-1.3,9.4-3.2,33-7.7h.2ZM921.1,632.2c0-3,16.3-7,24.3-6.1,5.9.8,7.2,3.2,1.9,3.2s-5,.5-6.7,1.3c-5.9,2.2-19.5,3.4-19.5,1.6ZM960.6,700.4c-1.4,1.4-1.6,1.3-.8-.8.5-1.4,1.3-2.1,1.8-1.8.5.5,0,1.6-1,2.6ZM963.5,662.3c-1.4,1.4-1.6,1.3-.8-.8.5-1.4,1.3-2.2,1.8-1.8.5.5,0,1.6-1,2.6ZM974.5,664.7c-.8,0-1.4-.6-1.4-1.4s.6-1.4,1.4-1.4,1.4.6,1.4,1.4-.6,1.4-1.4,1.4ZM1023.9,678.9c0-.8,2.6-1.4,5.8-1.4s5.4.6,4.8,1.4c-.5.8-3,1.4-5.8,1.4s-4.8-.6-4.8-1.4ZM1087.5,711.1c-2.1,3-13,3.5-13,.5s8.5-3.2,11.8-2.6c1.3.3,1.8,1.1,1.3,2.1h-.2ZM1157.5,741.3c-2.7,1.8-3.8,1.8-5,0-.5-.8.8-1.4,3-1.4s3.5.3,1.9,1.4ZM1166.8,731.6c-.5.8-2.6,1.4-4.6,1.3-3.4,0-3.5-.2-1-1.3,4-1.6,6.7-1.6,5.6,0ZM1164.6,719.9c-13.4,6.6-14.1,6.9-14.1,4s3.4-3.8,7.5-6.2c4.2-2.4,11.8-8.5,17.3-13.6,9-8.5,9.9-9.1,11.7-6.9,1,1.4,1.8,3,1.8,3.7,0,3.2-13.3,13.8-24,19h-.2ZM1198,753.5c-1,2.4-8,3-8,.6s6.7-5,8-3.7c.5.5.5,1.9,0,3h0ZM1191.1,734.4c1.3-1.6,2.9-2.9,3.5-2.9s1.1,1.3,1.1,2.9-1,2.9-3.5,2.9-3.4,0-1.1-2.9ZM1208.3,812.5c-.8,1.9-2.7,4.3-4.5,5.1-2.9,1.6-3,1.4-2.2-1.9,1.9-7.4,3.7-10.7,5.8-10.7s2.7,2.6.8,7.5h.2ZM1285.7,913c-3.7-2.7-4-5-.6-4.8,3,0,7.4,3.2,7.4,5.4s-3,1.9-6.7-.6ZM1336.9,881.5c2.4,0,6.4,3.8,6.4,6.1s-3.8,1.8-12,1.8-12,0-12-.5c0-1,15.4-7.5,17.6-7.5v.2ZM1289.5,735.4q-2.2,2.7-2.2-.5c0-4.3,9.6-21.6,14.1-25.3,15.8-13,32.8-22.7,43.5-25.1,5-1.1,3.7,2.4-1.6,4.5-2.7,1.1-7.7,3.8-11.2,6.2-3.5,2.4-8,4.2-9.9,4.2-4.6,0-22.2,17.4-27,26.7-1.8,3.5-4.3,7.5-5.4,9.1l-.2.2ZM1297.7,680.4c-2.4.6-3.2.3-3.2-1.3s1.6-2.6,3.7-3c4-1,6.1.2,4,2.1-.6.6-2.7,1.6-4.5,2.2ZM1296.9,707.2c-3.8,2.7-5.3,2.7-5.3.3s2.9-5.3,5.9-5.1c3.5,0,3.2,2.2-.6,4.8h0ZM1302.2,660c.5-2.6,1-5.6,1-6.7,0-4.3,2.7.5,3,5.4.3,3.8-.2,5-2.2,5.4-2.4.5-2.6,0-1.8-4v-.2ZM1305.4,624.8c-2.2-1.9-5.6-.6-4.2,1.4.5.8,0,3.5-.8,6.2-2.9,8.3-4.3,7.8-7.7-3.2-.8-2.4.3-4.5,4.5-9.1,3-3.4,6.7-7.7,8.3-9.9l2.9-3.8.8,7.4c1.3,10.9,1.1,17.9-.5,17.9s-1.4-1.1-1.4-2.7-1-3.4-2.1-4.3l.2.2ZM1293.4,691.1c2.9-2.7,5.4-3.7,5.4-2.2s-1.9,2.7-4.3,5.3c-3,3.4-4.2,4-4.2,2.2s1.4-3.7,3-5.3h0ZM1317.4,664.5c-1-.6-2.4-5.1-3.2-9.9-1.1-7.5-1.1-9.1,1-11,1.8-1.8,2.6-1.9,3.4-.5,1.8,2.9,4.3.3,4.3-4.8s.5-4.6,3.2-4c2.9.5,3,1.3,2.7,9.3-.3,4.8-1.1,9.4-1.9,10.4s-1.9,3.8-2.4,6.4c-1,4.6-3.7,6.2-6.9,4.2h-.2ZM1319.1,677.2c-2.1,3-4.2,5.6-4.5,5.6-.8,0,.8-11.2,1.9-13,1-1.6,4.5-1.4,5.6.3.5.8-.8,4-2.9,7h-.2ZM1299.8,748.4c-1.9,2.1-4.5,4.3-5.9,5-4.5,2.4-2.9-3.5,1.6-6.2,6.1-3.5,8.2-2.9,4.3,1.3h0ZM1304.3,731.9c-4.5,0-3.4-3.7,3.4-10.6,8.2-8.5,10.7-8,4.5.8-2.7,4-5,7.8-5,8.5s-1.3,1.3-2.7,1.3h-.2ZM1313.2,739.6c-4.6,1.8-6.1.6-3.8-2.9.8-1.3,1.6-1.1,3.5.2,2.2,1.6,2.2,1.9.2,2.7h.2ZM1344.7,722.9c-2.6,3.4-6.2,8.8-8.3,12.2-2.6,4.2-5.9,7.4-11,10.1-6.6,3.5-7.4,3.7-6.9,1.4.3-1.4,1.8-2.9,3.4-3.2,4.3-.8,7.5-4.3,6.7-7.4-.6-2.6,5.8-12,8.2-12s3.7-1.8,6.9-3.8l5.8-3.8-4.6,6.1v.5ZM1349.7,722.6c3.2-4.8,11.4-9.4,20.6-11.5,4.5-1.1,4.6-1,2.1,1.3-1.4,1.3-5.1,4.3-8.2,6.6-3,2.2-7.2,5.9-9,8-3.4,3.8-8.6,5.3-8.6,2.2s1.4-3.8,3.2-6.6h-.2ZM1351.9,741.5c-1.8,2.1-6.9,2.7-6.9.8s3.2-4.2,5.8-3.5c2.1.6,2.4,1.1,1.1,2.7h0ZM1474.2,759.2c3.2,0,9,3.7,9,5.8s-1.9,1.6-7-2.2c-3.8-2.9-4.2-3.5-1.9-3.5h0ZM1370.3,690.1c-1-1-1.1-1.6-.2-1.6,2.9,0,18.7,11.2,28.5,20.3,6.2,5.8,12.5,10.1,16.6,11.7,13.4,5,18.9,8.2,24,14.4,2.9,3.5,6.2,7.5,7.4,8.8s5.3,6.1,9.3,10.7c3.8,4.6,9.6,11,12.8,14.4,5.8,5.9,12.5,18.2,13.9,25.4,1.1,5.6-1.3,10.6-6.4,13.4q-4.3,2.6-4.3-.3c0-1.6,1.6-4,3.5-5.6s3.5-3.8,3.5-5.1c0-1.9-.8-2.2-4.5-1.6l-4.5.8,3.7-3.5c5.4-5.1,4.8-6.9-1.9-6.1l-5.6.8,1-4.8c.8-4.2.5-4.8-1.9-4.8s-5.8-2.6-9.3-5.6c-6.9-6.1-12.2-6.6-12.2-1.1s-.3,2.6-4.2-1.1c-2.9-2.7-4.6-3.7-5.6-2.7-1.8,1.8,3.7,9.4,14.6,20.6,7.7,7.8,9.8,12.8,6.1,14.2-2.9,1.1-6.6,9.9-6.6,15.7s-1.4,6.1-6.9,3.4-8.5-8.3-9.3-15.8c-1.1-12.5-2.6-16.8-5.9-17.4-2.2-.3-3.4.5-4,3.2-1.1,4.2-1.8,4.3-5.8,1.6-2.1-1.4-3.2-4.2-3.7-9.3-.8-6.2-.3-7.8,2.7-11.8,3.8-5,4.6-9.3,1.6-9.3s-2.7-2.6-3.5-5.6c-1-3.2-2.6-5.6-3.7-5.6-2.4,0-2.6.6-.6,4.3,2.2,4,.2,6.2-3,3.2-1.9-1.8-2.2-2.9-1.3-4.2,2.9-3.5-1.8-8.8-5.6-6.4-2.4,1.4-16.8-8.5-17-11.7,0-1.3,1-2.4,2.2-2.4,3.7,0,15.8-9.1,14.2-10.9-1.1-1.1-18.7,8-21.6,11-1.3,1.4-3,2.6-4,2.6s-3.4,1.3-5.4,2.9c-4.6,3.7-5.6,3-3.5-2.7,1.3-3.5,2.4-4.5,5.6-4.5s4.2-.8,4.2-1.9,2.1-2.9,4.6-4.2c5-2.4,10.9-8,8.5-8-3.7,0-17.6,7.5-23.5,12.8-5.3,4.6-6.9,5.4-8.6,4s-1.8-2.1.5-5c1.3-1.8,3.8-3.7,5.8-4.2,1.8-.5,4-1.4,5-2.2,3.7-3,19.4-12.5,20.8-12.5,3.2,0,.3-3.5-3.2-4-2.7-.3-3.5-1.1-2.9-3.2,1.1-4-2.9-3.5-12.6,1.4-10.9,5.4-10.4,2.6.8-5.8,4.2-3,5-6.7,2.2-9.4l-.8.2ZM1456.3,786.1c0,3.7-1.6,3.2-5.3-1.3-3.4-4.2-4.3-8.2-1.4-6.6,4,2.2,6.7,5.4,6.7,7.8h0ZM1358.3,700c-15.8,14.1-35.8,30.4-35.8,29.3,0-2.6,8.3-13.4,13.8-18.1,11.8-10.1,15.7-13,17.3-13s3.2-1.1,5.1-2.2c5.8-3.7,5.6-1.1-.3,4.2v-.2ZM1353.4,681.8c1-.5,2.2-.3,2.7,0,.5.5-.3.8-1.8.8s-1.9-.5-.8-.8h-.2ZM1355.9,688.8c.5.5-2.9,3-7.5,5.9-4.5,2.9-10.7,7.5-13.8,10.2-3,2.9-9.3,9.8-13.8,15.4-4.5,5.6-8.3,9.8-8.3,9.3,0-3.2,4-11.4,7.5-15,2.1-2.2,3.8-5,3.8-5.9,0-4.8,29-22.9,32-20v.2ZM1347.5,644.7c-1,0-3.2,1.6-4.6,3.7l-2.7,3.7-1-5.4c-.8-4.8-.3-6.1,3.2-9.8,2.2-2.4,4.8-6.9,5.6-10.2,2.7-10.1,5.8-6.9,5.8,6.1s-2.4,12-6.4,12h.2ZM1367.1,624.2c-1.4,6.7-3,7.4-4.8,1.6-1.4-4.2-1.4-5.4,0-6.4,3.5-2.1,5.8,0,4.8,4.8ZM1367.8,597.3c-6.7,5.8-7.5,6.1-9,2.6-1.1-3,2.6-5.9,6.4-5,2.2.6,2.7,0,2.7-2.9s1.1-4.5,2.9-5.4c3.5-2.2,3.7-4.8.3-5.6-3.7-1-5.1-9.1-2.2-13.3,2.6-4,6.9-4.5,5.8-.6-.5,1.6.3,3.5,1.9,5.1,5,4.5.5,17.4-8.6,25.3l-.2-.2ZM1364.7,552h0c.5.5.6,1.6.3,2.6-.5,1.4-.8,1.4-1.8,0-1.1-1.9,0-4,1.4-2.6ZM1386.2,546.1c-.3,5.8-1.3,10.7-2.1,11-4.3,1.4-8.5-10.7-4.5-13.1,1-.6,1-1.6-.2-2.9-1.3-1.6-1.3-2.4,0-4.2,2.1-2.6,1-6.4-2.1-6.4s-2.6-2.6,2.4-7c7.2-6.4,7.8-4.3,6.2,22.4l.2.2ZM1386.7,470c-2.4,0-2.9-.8-2.6-4.6,1-13.6-1.1-13.8-4.8-.6-1.3,4.5-4.6,11.5-7.4,15.7-5.3,7.7-5.9,12.3-1.8,13.1,1.8.3,2.7-1.1,3.8-5,.8-2.9,3.4-8.2,5.6-11.5l4.2-6.1,1,3.8c.5,2.1.5,6.6,0,9.8-.5,3.7-.3,7.2.8,9.3,1.1,1.9,1.1,3.5.3,4s-2.9,3.7-4.6,7.2-3.4,6.6-3.7,6.9c-.2.3-2.1-.6-4.2-2.1-5.1-3.5-6.7-.6-3.8,7.5,1.4,4.3,1.6,6.6.6,7.2-2.1,1.3-4.5,8-4.6,12.6,0,3.5-.2,3.7-2.1,1.1-4.2-5.4-8,1-10.2,16.8-.6,4.8-2.6,9-6.4,13.9-5.8,7.5-5.9,8.8-2.2,11.2,1.9,1.1,3.4.5,7.4-3.4,4.2-4,5.3-4.5,6.4-2.7,2.1,3.4,1.6,5.6-1.3,5.6s-6.4,3.5-5.1,5.6c1.4,2.2,2.4,22.2,1.4,26.2-1.4,5.8-4,4-3-2.1,1.1-6.7-1.3-9.6-5.6-6.6-2.6,1.8-3,1.6-5.4-1-2.4-2.9-2.6-2.9-4.5-.3-1.1,1.4-1.9,4-1.9,5.8s-.6,3.5-1.4,4-1.4-2.4-1.4-7.7-.5-8.8-2.6-9.9c-4.2-2.2-5.9,0-5.4,7,.6,7-.5,14.1-2.1,14.1s-1.4-2.6-1.9-5.8c-.8-5-1.4-5.8-5.3-6.6l-4.3-1,1-8.8c.8-7,.5-9.1-1.3-10.6-2.9-2.4-3.7-1.4-8.5,11.7-2.2,6.1-4.6,10.9-5.1,10.9-1.4,0-1.3-1.6.5-6.9,2.1-5.8.8-9.8-2.2-7.2-3.8,3-4.2,0-.5-4,2.4-2.6,3.5-5.3,3.4-8.2-.3-5.9-2.6-5.3-8.5,2.4-5.4,7.2-8.8,8.8-6.9,3.5.6-1.8,1.1-5.1,1.1-7.4,0-3.2-.6-4.3-2.9-4.6-2.4-.3-3.5.8-5.4,5.8-3.2,8.2-3.4,16.8-.6,26.2,1.6,5.8,2.9,7.8,5,8.2,2.1.3,3.2-.8,4.5-5.3,2.4-7.8,4.5-8.5,4.6-1.6,0,3.2.3,6.6.3,7.4s-1.9,2.2-4.5,2.9c-3,.8-5.9,3.2-8.5,6.6-2.1,3-4.6,6.6-5.8,8-1.6,2.2-1.8,1-1-7.7.8-10.4-1.1-22.9-3.7-22.9s-4.5,2.9-8.3,6.6c-4,3.7-7,5.6-7,4.5s2.9-4.5,6.4-7.5c9.8-8.5,12.6-14.7,12.3-27.2-.2-10.1,0-10.2,4.3-13,2.6-1.4,5.6-2.4,6.9-1.9,3.2,1.1,5.4-3.4,3.4-7.2l-1.6-3-7.5,2.9c-4.2,1.6-8.5,4.3-9.9,6.4-4.3,6.2-7.4,15.7-6.6,20.3.8,4.3-1.1,9.4-2.7,7.8-.5-.5-1-5.3-1-10.6,0-11.4-.5-12.3-4-10.4-2.2,1.1-2.6,2.6-1.9,8.2.5,5.3,0,8.2-2.7,13.6-3.8,7.7-4.5,7.4-5.8-2.1-1.6-11,1.3-18.4,9.9-26.4,8.3-7.5,9.4-11.2,4.8-15.7-3-3.2-4-3.4-6.9-1.6-1.6,1-1.6,1.8,0,4,1.6,2.6,1.1,3.7-4.3,10.1-3.4,4-6.6,7.2-7.2,7.2s-3.2,1.6-5.6,3.7c-5,4.2-5.9,1.9-1.6-3.7,1.6-1.9,2.7-5.6,2.9-8,0-7.7,4-20.2,7.8-24.6,5.4-6.2,2.6-8.8-5.1-4.8-3.5,1.8-4,1.8-5.3-.3s-1.9-1.8-5.6,2.4c-4.6,5.3-5,5-4.3-6.6.2-3.2-.3-6.2-1.3-6.9-2.1-1.3.5-4.5,5.9-7.2,4.6-2.4,3.8-5.4-1.3-4.2-2.1.5-4.5,0-5.8-1-1.8-1.6-2.6-1.3-5.1,2.2-1.6,2.2-4,5.4-5.4,7q-2.4,2.9-1.6,0c.5-1.9-.6-4.2-3.8-6.9-4.3-3.8-4.5-4.3-3.7-12.3,1-9.6,4.8-17.3,9.3-17.9,1.8-.3,3-1.3,3-2.4,0-3.2-4.6-3.2-8.2-.3-3.5,3-5.1,2.6-3.7-1,.5-1.3,2.1-2.2,3.7-2.2,2.4,0,2.6-.6,1.8-6.9-.6-5.3-.3-7.7,1.4-10.2,1.3-1.8,2.2-5,2.2-7s1.3-5.3,2.9-7.4c3.5-4.3,5.1-11.5,3-13-2.4-1.6-1.8-5.6,1.3-8.2,1.6-1.3,3.4-2.4,4-2.4,2.1,0,7.7-6.7,7-8.6-.3-1.1-4.2,1.8-9.4,7-8.6,8.6-8.8,9.1-8,14.4.6,4.3.3,6.4-2.1,9.1-1.6,1.9-2.9,5.1-2.9,7s-1.1,5.8-2.4,8.6-2.6,6.7-2.7,8.6c-.2,1.9-1.3,5.4-2.4,7.7-1.1,2.4-2.7,6.1-3.5,8.2-1,2.2-2.6,3.8-4.2,3.8s-3.4.6-4.2,1.6c-1.1,1.1-2.2.8-4.3-1.3-2.6-2.6-2.7-3.4-.8-14.2,1-6.2,2.2-12.2,2.7-13,.5-.8,2.6-1.1,4.6-.6,3,.6,4.6,0,8.5-4,4.5-4.6,4.6-5.1,3-9.9-1-2.9-1.9-6.6-2.1-8.5-.6-6.7,2.1-20.6,5.3-25.8,1.8-2.9,3.8-6.6,4.8-8.2.8-1.4,4.5-4.6,8.2-7.2,3.7-2.4,6.9-4.6,7.4-5.1,1.1-1.1,4.5-15.2,5.6-22.9,1.1-8.8,4.8-20.6,7-22.7,2.2-2.1,13.4-6.7,14.2-5.9.3.3-.2,3.5-1.3,6.9-3.4,10.9-5.1,19.5-5.1,25s-5,20.2-8.8,23.2c-1.8,1.4-5.8,3.8-9.1,5.3-6.2,3-12,8.3-9.1,8.3s3.4-1.1,5.4-2.4c12.5-7.5,15.5-9.9,19.7-14.4,3.5-3.8,4.8-4.6,5.8-3.2,1.4,2.2-1.4,12.8-4.8,17.4-2.9,4-2.7,5.3.5,5.3s3.2-1.3,3.7-2.7c.5-1.6,1.6-2.9,2.6-2.9s2.7-1.9,4.2-4.3c2.1-3.7,3-4.2,7.8-3.8l5.3.5-.5,6.4c-.2,3.5-1.4,7.8-2.7,9.8-1.9,3-2.4,3-3.5,1.1-.8-1.3-1.9-2.4-2.6-2.4-2.2,0-7.4,13.1-8.2,21.3-.6,6.9-.3,8.3,2.2,10.6,3.5,3,3.8,7.2.8,10.4-2.6,2.9-1.3,7.4,1.9,6.7,1.6-.3,2.2-1.6,1.9-4.2-.3-2.1.3-4.2,1.1-4.6,2.7-1.6,1.8-8.5-1.4-10.4-2.6-1.6-2.9-2.7-2.2-9.4,1-9.3,4.5-14.4,10.6-15.5,5.9-1.1,8.8-5.3,8.8-13s2.1-11.5,5.3-11.5,3.5-1.1,5-2.4c4.5-4,4.3-1-.2,4.2-5,5.6-5.3,6.6-2.1,6.7,3.7,0,1.8,6.1-2.6,8.2-2.7,1.3-3.8,2.9-3.8,5.3s-1.4,6.6-3.4,10.1c-4.6,9.4-4.8,15,0,19.7,3.2,3.2,3.7,4.8,3.5,10.6-.3,5.1.2,6.7,1.8,6.7s2.4-2.2,3-6.2c1-6.4,0-10.1-4-13.4-5.3-4.5-.5-20,9.3-29.9,4.5-4.5,6.9-8,6.9-10.4,0-4,2.1-4.6,3.5-1,.8,2.1,1.3,1.9,3-1.3,2.6-4.8,17-16.6,20.5-16.6s2.7,1.3,3,3.2c.3,2.6,1.3,3.2,5.4,3,2.7,0,6.1-.6,7.4-1.3,2.2-1,2.4-.5,2.1,5.1l-.5,6.1h9.9v10.6c0,11.2.3,11.7,7.7,9.8,1.6-.5,2.2,1.1,2.6,6.9.2,4.5,1.1,7.5,2.1,7.7,1,0,2.6.3,3.5.3s2.6,1.8,3.5,3.5c1,2.1,3.7,3.8,6.2,4.6,2.7.8,4.5,2.1,4.5,3.5,0,4.6,11,8.6,13.4,4.8.5-.8,2.1-1.4,3.4-1.4s3.7-1.3,5.1-2.9c3-3.4,5.4-3.5,7.7-.6,1.4,1.8,1.3,2.9-1,5.8-6.4,9-7.5,11.2-6.7,13.6,1.1,3.5-3,9.4-6.6,9.4l-.2,1.6ZM1201.1,535.7c-1.1,0-2.1-.5-2.1-1.1,0-1.6,6.2-7.2,8.2-7.2s3.2,7.2,2.6,16.6c-.3,4.6-1.4,8.3-2.9,9.9-2.4,2.2-2.4,1.9-2.1-6.1.5-9-.5-12-3.8-12l.2-.2ZM1204.7,563.9c1,0,4.3-2.2,7.2-5.1,9.3-9.1,10.6-2.7,3.4,17.6-2.1,5.8-3.7,10.9-3.7,11.5,0,2.4,4.5,1.3,9-2.2,5.3-4,10.9-5,7.8-1.4-1,1.1-2.6,2.1-3.7,2.1s-2.7,1.4-3.5,3.2c-1,1.8-3.8,5.6-6.7,8.5-2.7,2.9-5.4,5.3-5.9,5.3-1.8,0-4-11-5-25-.8-11.7-.6-14.4,1-14.4h.2ZM1232.3,599.1c.5,1.9,1.6,2.4,3.5,1.9,3-.8,3,.5-.5,14.1-.8,2.9-1.6,5.3-1.9,5.3-1.1,0-5-14.7-4.8-19.4,0-5,2.6-6.4,3.8-2.1l-.2.2ZM1236.4,622.1c1.3.3,2.6,1.3,2.9,2.2.8,2.6-3.4,2.1-4.5-.5-.6-1.6,0-2.1,1.4-1.8h.2ZM1194.3,517.8c-4.5,7.5-5.9,8-5.9,2.1s-.5-7.8-1.1-11.7c-.8-5.8-.6-7.5,1.3-9,2.1-1.6,2.2-1.4,2.2,2.2s1.3,5.3,3.5,7.2l3.5,3.2-3.5,5.9h0ZM1194.2,544.2c-1.9,3-3.7,5.6-4,5.6-1.4,0-2.4-2.4-2.2-6.6,0-4,.5-4.6,3.2-4.6s4-.8,5-1.8c3-3,1.9,1.3-1.9,7.4ZM1183.6,513.5c0,1.9-2.9,1.1-3.7-1.1-1.1-3,.8-4.6,2.4-2.1.6,1.1,1.3,2.6,1.3,3.2ZM1166.3,476.7c-.6-21.6-1-23.8-2.9-28.8-2.1-5.6-2.1-6.6.6-9,2.9-2.6,10.2-14.7,8.8-14.7s-3.7,2.6-7.2,5.6c-7,6.2-9,6.4-5.1.8,2.7-4.2,4.5-10.9,6.6-26.1,1-6.6,2.4-11.7,4-13.4,1.4-1.6,3.7-5,5-7.4,1.3-2.6,4.3-6.2,6.6-8.3,4.2-3.7,5.6-7.5,2.7-7.5s-1.8-5.3.3-6.6c1-.6,1.9-.3,2.2.6.8,2.4,8.3,2.1,9.3-.5.5-1.1,1.8-2.1,2.9-2.1s2.2-.5,2.6-1.1c.3-.6,3.4-3.5,6.9-6.6,10.1-8.8,12.6-13.9,12.8-25.4,0-11.4,1.4-14.1,10.6-20.3,10.4-7,13.9-5,7,4.3-7.8,10.6-16.2,26.4-17.8,33.8-1,4.3-2.6,9.3-3.5,11.4-1,1.9-2.2,6.6-2.7,10.2-.5,3.7-1.4,7.8-2.2,9.4-.8,1.4-1.1,4.3-.6,6.1.6,2.9-.2,4-5.3,7.5-3.7,2.4-6.2,5.3-6.6,7.4-.3,1.8-2.7,6.2-5.4,9.8-2.7,3.5-5.6,8-6.2,9.8-1.8,4.5-1.6,18.1,0,24.6,1.1,4.3,1,5.9-1,8.8-2.6,3.8-5.6,4.6-6.6,1.8-.5-1.3-1.4-1.1-3.5.8-4.2,3.5-5.8,8.3-7.2,21.3-1.1,9.9-1,11.4,1.3,13.3,3.4,2.9,3.2,4-1,12.3-1.9,3.8-3.5,8-3.5,9.3s-.6,2.7-1.4,3.2c-2.4,1.4-3.2-3.4-1.3-7.8,1.3-3,1.6-10.4,1.1-26.4h-.2ZM1258.8,344.8c-2.6,5-5.3,9.1-5.9,9.1-1.4,0-1.4-.5.5-5.3,4-9.9,5.6-13,7-13.9,3.5-2.1,2.9,1.4-1.6,9.9v.2ZM1265.4,363.6c5.8-5.6,7.5-5,7.5,2.4s-.8,7-6.1,12.5c-4.8,5.1-7.2,6.4-12,7-3.4.3-5.9.2-5.9-.5,0-1.6,11.8-17,16.5-21.4ZM1251.9,356.8c1.4,0-3,11.7-5.4,14.4-4,4.3-4.8,2.6-1.4-3.4,1.8-3.2,3.8-7,4.6-8.5s1.8-2.6,2.2-2.6ZM1273.1,318.6c0-4,2.7-9.8,4.2-9,.8.5,1.4,1.8,1.4,2.7s-1.3,3.4-2.7,5.3c-2.2,2.7-2.7,2.9-2.9,1ZM1383.5,406.1c5.3,5.1,7.2,6.1,11.8,6.1s5.9.6,6.4,1.3c1.4,2.4-1,5.8-4,5.8s-5.9,2.7-9.8,6.6l-6.7,6.6v-7c0-4.8-.6-7.7-2.2-9-1.9-1.6-2.7-1.3-6.2,2.9-3.4,4-4.2,4.3-5,2.4-.5-1.3,0-3.4.8-4.5,2.7-3.2.6-6.6-3.7-6.1-3.2.3-4-.3-5.6-5.1-3-9-.8-10.9,8.3-7,1.8.8,2.4.5,2.6-1.1,0-2.4-6.4-5.3-10.4-5-3.4.3-6.4-5-6.4-11.4s-1-6.6-2.1-8.8c-2.7-5.1-1.1-6.1,5.8-3.7,4.2,1.4,5.8,2.9,6.7,6.4,1.8,6.1,10.6,13.8,17.9,15.8,6.4,1.8,25.9.8,28.6-1.3.8-.6,3.5-1.6,6.1-2.1,4.3-1,4.6-.8,4.6,3.4s-3.2,7.5-13.4,10.6c-6.2,1.9-7.5,1.8-15-.8-8.2-2.7-15.4-3.7-15.4-1.9s2.9,3.7,6.4,7h-.2ZM1402.8,499.1c-1.1,2.2-2.1,6.7-2.1,9.9s-.5,7.8-1,10.2c-.8,4.3-2.4,5.6-3.8,3.4-1.6-2.6-3.7-19-2.9-21.6.6-1.9,0-4-2.2-6.2-3.7-3.8-2.9-5.8,1.4-3.5,2.1,1.1,3.7,1.1,5.9,0,3.5-1.8,6.9-.8,6.9,1.9s-1,3.8-2.1,6.1l-.2-.2ZM1407.5,458.6c-1.3,1.4-2.4,3.4-2.4,4.3s-2.1,5.3-4.6,9.4-5.4,7.7-6.4,7.7c-2.1,0-2.4-5.1-.5-6.2.6-.5,1.3-2.2,1.3-4.2,0-5.1,5.6-13.1,9.8-14.1,4.8-1.1,5.8,0,2.9,3.2v-.2ZM1409.4,432c-2.2,0-4.2-.5-4.2-1,0-1.9,10.2-13.1,12-13.1,2.6,0,4.3,13.8,2.1,16.3-2.2,2.6-5.6,2.6-5.6,0s-1.4-2.1-4.2-2.1l-.2-.2ZM1418.3,479.4c-2.6,4-3.4,4.2-5.8,1.4s-1.8-10.6,1.3-16.6c1.4-2.9,2.6-6.6,2.7-8.3,0-2.6.3-2.7,2.1-1.3,3,2.6,2.6,7.5-1.6,14.9-4.2,7.4-3.8,9.6.6,4,2.9-3.5,3-3.7,3-.8s-1.1,4.6-2.2,6.6l-.2.2ZM1421.4,444.7c-.5.8-1.1,1.4-1.4,1.4s-.6-.6-.6-1.4.6-1.4,1.4-1.4,1.1.6.6,1.4ZM1428.3,409.2c-1.3,4-2.7,7.4-3.4,7.4-1.9,0-1.4-3.7,1.6-11.7,1.6-4,2.9-9.1,2.9-11.4s.6-3.8,1.4-3.8c1.8,0,.6,9.1-2.6,19.4v.2ZM1430.7,369.5c-1.4,1.8-1.6,2.9-.3,4.8,1,1.4,1.3,2.9.8,3.4-3.2,3.2-10.2-2.9-10.2-9s1-4.8,2.1-5.8c1.1-1,2.1-2.6,2.1-3.5,0-2.6,5.3-6.7,7-5.8,2.1,1.3,1,12.6-1.4,15.7v.2ZM1430.3,318.1c-.8-1.4,5.4-14.2,6.9-14.2s0,1.8-.6,4c-1.9,6.9-5.3,12-6.4,10.2h.2ZM1428.3,278.4c-3,0-3.5-2.2-1.6-5.4,1.6-2.6,4.3-.8,4.3,2.7s-1,2.7-2.9,2.7h.2ZM1435.9,326.9c-1.3-3.4-1.1-3.7,1.9-1.9,1.6.8,2.9,2.1,2.9,2.9,0,2.2-3.8,1.6-4.8-1h0ZM1442.2,339.7c-.8.5-1.4,0-1.4-1.3s.6-2.2,1.4-2.2,1.4.6,1.4,1.3-.6,1.8-1.4,2.2ZM1455.6,300.7c-.5,1.3-1.1,3.8-1.4,5.4-.5,4.5-1.9,5.9-7.8,9-3,1.6-5.8,2.7-6.1,2.7-1.6,0,4.3-12,7.8-15.7,4.3-4.6,9.3-5.6,7.7-1.6l-.2.2ZM1442.3,291.2c0-2.4,5-6.9,9.4-8.3,4-1.3,4.3-1.1,3.7,1.3-.3,1.4-2.2,4-4.3,5.4-3.7,2.9-8.8,3.7-8.8,1.4v.2ZM1461.4,263.1l-7.4,7c-8.3,8-11.5,9-10.4,3.5,0-.6-.5-1.8-1.3-2.2-2.4-1.4,9.6-8.5,14.6-8.5h4.5v.2ZM1453.5,247.6c2.2,0,1.9,3.8-.6,5.9-1.1,1-3.2,2.7-4.6,4-1.3,1.3-4.2,3.2-6.2,4.6-4.5,2.7-5,2.9-6.1,1-2.1-3.5,11.5-15.5,17.6-15.5h0ZM1388.1,179.1c.5,1.1.6,1.9.5,1.9-3.4-1.4-8-5.3-8-6.6,0-2.2,6.4,1.8,7.5,4.8v-.2ZM1385.5,204.2c-2.4,5.6-3.7,6.4-3.7,2.1s-.8-4.6-1.9-6.7c-1.1-2.1-2.4-6.9-2.9-10.7-.8-5.4-.6-6.6,1-5.8,7.7,4.5,10.9,13.1,7.5,21.1h0ZM1378.8,169.3c.8,2.6-4.2,4.3-7.7,2.6-1.8-.8-2.9-2.1-2.7-2.9.6-1.9,9.8-1.8,10.4.3h0ZM1268.1,165c4.5-2.2,7.5-2.9,12.6-2.4,3.7.3,6.9.2,7.2-.5.2-.6,2.1-1.3,4-1.6,3-.3,3.5,0,3.2,3.4-.5,4.3,2.7,6.7,8.8,6.7s4,1.1,5,3.5c.8,2.1,2.4,3.5,4.2,3.5s5,2.2,7.7,5c3.8,4,5,6.6,5.8,12.6.5,4.3.6,8.6,0,9.9-1.4,3.8-3,2.4-5-4.5-1.1-3.7-3-7.7-4.3-8.8-5-4.8-10.9-9-17.3-12.3-5.8-2.9-7.8-3.4-14.7-2.6-4.5.5-10.2,1.8-12.8,2.9l-4.8,1.9.8-4c.6-3.4.2-4.3-2.6-5.6-4.8-2.2-4.3-4,2.4-7.4l-.2.2ZM1242,180.2c13.3-5.3,19.2-4.2,9.4,1.8-2.7,1.6-5,3.8-5,4.6s.3,1.1,1.1,0c.6-.8,2.9-2.2,5.3-3,2.2-.8,5.3-1.9,6.7-2.6,1.8-.6,2.4-.3,2.4,1.1,0,4.3,9.1,5.1,23.4,2.2,6.6-1.4,7.5-1.3,12.6,2.1,13.4,8.8,16.2,11,16,13.3h0c0,1.4-.6,3.7-1.3,5.3q-1.1,2.7-2.7-.3c-2.1-3.8-20.2-14.1-27.4-15.4-3.4-.6-6.1-.5-7.4.6-1.1,1-2.7,1.3-3.4.8-2.1-1.3-3.4,1.9-1.6,4.2,1.8,2.1.8,5-1.6,5s-1.3-1.1-1.3-2.7c0-4.3-7.5-6.2-13-3.5-3.5,1.8-4.8,1.9-7.7.5-1.8-1-3.4-2.6-3.4-3.5s-1.6-2.7-3.5-4c-4.8-3.2-4.5-4.3,1.8-6.9l.3.5ZM1283.3,204.5l-6.4-5.8,8,.8c11.2,1,18.9,5.6,20,11.8,1.1,6.4-.6,8.2-5.1,5-1.9-1.4-5-3.4-6.9-4.3-1.9-1-6.4-4.3-9.8-7.5h.2ZM1293.1,243.2c0,2.1-2.6.3-11.2-7.5-8.6-8-9-8.5-5.1-8.5s5.1.6,6.7,1.4c2.4,1.3,9.8,12.3,9.8,14.6h-.2ZM1239.1,197.2c4.6-1,7.7,1.3,3.8,2.7-1.4.5-4.2,2.1-6.1,3.5-1.9,1.4-4.3,2.6-5.4,2.6-3.5,0,3.4-8,7.7-8.8h0ZM1231.1,194.1c1,.6,1,1.6-.2,2.9-1.9,2.2-6.9,2.7-6.9.6s5.4-4.6,7.2-3.5h-.2ZM1218,214.9c2.1-.5,5.1-1.9,6.7-3.2,1.8-1.4,1.3-.5-1.1,2.7-2.1,2.7-5.3,7.4-7,10.2s-3.5,5.1-3.8,5.1c-4.2-.8-7.7-2.4-8-3.7-.6-2.1,8.8-10.1,13.4-11.2h-.2ZM1204.4,244.2c2.6.2,4.6-.3,4.6-1.1,0-3.2,4.6-7.5,8.5-8,2.7-.3,4-1.1,3.8-2.4-.6-2.9,4-7.2,7.5-7.2s3.4-1.1,3.8-2.7,4.3-4.5,9.3-7c4.6-2.4,9.3-5.6,10.1-7s4-3.5,7.2-4.3c5.1-1.4,6.6-1.1,14.9,2.7,9.9,4.6,10.6,7.2,1.8,7.2s-5.9.6-6.4,2.1c-1,2.4-6.9,2.9-8.3.6-1.9-3-9.3-1.4-16.2,3.5-5.8,4.2-7.2,6.1-8,10.4-1.1,7-6.2,11.8-11.2,10.6-2.6-.6-5,0-7.8,2.1-2.2,1.6-5.1,2.6-6.4,2.2-1.3-.5-3.4.6-5.3,2.6-3,3.2-13.6,6.1-15.5,4-3.7-3.7,5-9.3,13.4-8.5l.2.3ZM1230.2,251.1c-.5.8-1.1,1.4-1.4,1.4s-1-.6-1.4-1.4,0-1.4,1.4-1.4,1.9.6,1.4,1.4ZM1196.3,265.6c-.5,1.3-1.4,2.2-2.2,2.2-1.9,0-.6-3.2,1.4-3.8,1-.3,1.3.3.8,1.8v-.2ZM1185.7,292.5c1.4-1.3,3-4.5,3.5-7.2,1.4-7.7,6.1-11.5,13-10.7,3.4.3,6.2,0,6.7-1,.5-.8.3-1.6-.5-1.6-2.4,0-1.8-3.7,1.3-6.4,1.6-1.4,2.6-3.5,2.1-5-.5-1.3.3-3.2,1.6-4.3,1.9-1.6,2.6-1.4,3.7.6.8,1.3,1.9,2.1,2.7,1.6s1.3,0,1.3,1.3c0,2.6,5.1,1.4,6.2-1.3.5-1.1,1.9-1.9,3.4-1.9,2.2,0,2.6,1.1,2.6,6.4s-.5,6.4-.8,6.4c-.5,0-3,1.9-5.6,4.2-6.1,5.3-4.6,8.5,1.8,3.7,5.6-4.2,12.8-5.9,14.2-3.5.6,1,.2,2.2-.8,2.9-4.5,2.7-15.4,11.8-15.4,12.8,0,2.4,5.4,1,6.1-1.8.5-1.6,1.3-2.7,1.9-2.6.6.2,2.7-.5,4.5-1.4,1.8-1,6.7-1.9,10.7-2.2,10.6-.6,13.8-3,7.5-5.9-1.6-.8-3.7-3.5-4.5-6.1-1-2.9-3.2-5.8-5.8-7-3.8-2.1-4.3-3-4.5-10.7-.2-5,.5-10.1,1.8-12.6,1.1-2.2,2.4-5.3,2.7-6.7.5-1.4,2.4-3.2,4.3-4.2,3.2-1.4,4-1.1,7,2.1,2.6,2.9,4.8,3.7,9,3.8,5,0,6.6,1,14.1,8.5,4.8,4.8,8.5,9.8,8.5,11.4,0,4,3.4,3.5,5.3-.6,1.3-2.9,2.6-3.4,7.4-3.2,5.1.2,6.4-.5,11.4-5.8,5.3-5.6,6.2-9.8,1.9-8.2-1.9.8-13.3-8.3-13.3-10.6s.6-1,1.4-.5c.8.5,1.9-.5,2.6-2.1l1.1-3,3.8,3c4.6,3.7,7.5,2.6,4.5-1.8-2.9-4.2-2.7-5.6.8-4.5,1.6.5,3.8.2,4.8-.6,2.2-1.8,7.8.3,7.8,2.9s1.8,1.3,3.8,1c3.4-.3,4-1.3,5.6-8.2,3.5-15-.5-27.8-10.9-33.9-7.2-4.2-9.1-8.5-4-8.5s21.8,13,23.7,20c1.8,6.2,1.8,14.9,0,16-4.2,2.6,1.3,10.6,7.2,10.6s2.6-2.1,3.4-13.3c1.4-18.4,0-21.9-12.8-30.7-8.6-5.9-11-6.9-19.7-7.7-7.2-.6-10.2-1.6-11.4-3.5-1.3-1.9-1.1-2.9.5-4.2,1.6-1.4,2.6-1.3,4.6.6,1.4,1.3,4.8,2.4,7.4,2.4s8.5,1.3,13,2.9c4.5,1.6,8.8,2.9,9.9,2.9s4,2.7,6.7,5.9c9.6,11.8,9.8,12.3,8.8,23-.5,5.4-1.6,10.6-2.2,11.5-1.9,2.6-.3,7.8,3.2,10.1,2.7,1.8,3.4,1.6,5.9-1,2.6-2.4,3.4-2.6,6.6-1.1,10.7,5.1,16.3-1.4,15.2-17.9-.5-8.6-.3-9.4,1.3-7,1.1,1.4,3.2,4.2,4.6,5.8,2.2,2.4,2.6,4.3,1.9,9.9-.5,3.8-1.6,8.6-2.7,10.7-1.9,3.5-1.8,4,1.1,5.4,2.7,1.4,3.5,1.1,7-2.7,3.4-3.7,4-5.6,4-12.2,0-9.3-3.4-18.2-8.8-23.8-3.5-3.7-3.8-4.3-1.8-5.4,4-2.2,9,0,12.3,6.1,1.8,3,4,5.6,4.8,5.6,2.4,0,2.9,1.3,4,10.9,1,8.5.8,8.8-2.7,10.4-2.4,1.1-3.7,2.7-3.7,4.8s-1.6,4.6-3.5,6.4c-4.3,4.2-4.6,8.3-.6,8.3s10.6-4.2,13.9-10.4c2.6-4.8,4.5-8.3,8.3-14.7,0-.3,1.3.3,2.6,1.3,3.2,2.7,1.8,9.3-3.7,17.3-2.4,3.5-5.1,6.9-5.8,7.4-1.9,1.1-1.8,6.2.2,6.2,4.2,0,11.7-5.1,14.9-10.1,1.9-3,4-5.4,4.6-5.4,2.4,0-1.1,10.1-4.2,12.3-6.9,4.8-10.4,8.5-9.4,10.1,1.4,2.4,5.1,2.1,10.4-1.1,5.9-3.7,7.7-3.5,3.2,0-5.4,4.3-14.4,8.8-18.1,8.8s-3.7,1.4-5.3,5.6c-1.1,3-4.8,9.8-8.3,14.9-3.7,5.4-6.4,11-6.4,13.1,0,4.5,7.8,22.1,9.8,22.1s1.9,2.7,2.9,6.1c.8,3.4,2.7,8.8,4.2,12.3,5.3,12.6,5.1,14.4-2.4,21.6l-6.7,6.4-2.4-4.2c-5.3-8.6-20-16.3-24.5-12.6-3.4,2.7-2.6-1.4,1-5.3,3.7-4,1.9-6.9-3.5-5.6-4.6,1.1-10.7,13.6-6.6,13.6s2.1,1.6,2.9,3.7c1.3,3.4,1.8,3.7,8,2.9,3.7-.5,7.4-.3,8.3.2.8.6,3.4,4.6,5.4,8.8,2.1,4.3,5.4,9.1,7.2,10.9,3.2,3,3.4,3.4,1.1,8.5-1.3,2.9-3.5,6.4-5,7.7-4.2,3.5-17.6,4.8-24.5,2.4-5.4-1.9-12.2-8.8-10.2-10.6.5-.5,4.5.5,8.6,2.1,5.1,1.9,8,2.4,8.6,1.4,1.4-2.2-3.7-6.4-11.2-9.3-7.4-2.7-8.6-4.2-6.6-7.4,1-1.6,1.9-1.8,5.4-.2,2.4,1,5.4,1.4,6.9,1.3,2.1-.5,1.4-1.3-2.7-3.8-3.7-2.2-5.3-4.2-5.3-6.7,0-4.3-3.4-5.8-8-3.2-3.2,1.8-3.8,1.6-5.6-.8-1.1-1.4-1.9-3.7-1.9-5,0-3.8-5.9-6.1-13.6-5-13.6,1.9-20.3,1.6-22.2-1.1-2.4-3.2-8.5-3.4-7.2-.3.5,1.3.8,2.6.8,2.9,0,1.1,13.6,7.5,19.7,9.1,7.4,1.9,17.1,6.7,18.6,9.1,5.1,7.8-8.5,5.9-16-2.1l-5.1-5.4-1,4.2c-.6,2.9-2.1,4.6-5.1,5.6-2.2.8-4.2,2.1-4.2,2.9,0,1.8,5.6,4.2,7.8,3.4s4.5,2.4,5.6,8.6l1,5.4-3.4-2.4c-1.8-1.3-5-2.4-6.9-2.4s-4.6-1.3-6.1-2.9c-1.3-1.6-4.2-2.9-6.2-3-2.1,0-5.4-.3-7.4-.5-1.9,0-6.6-.3-10.2-.5-5-.2-6.7-.8-6.7-2.4,0-3.8,5.4-7.7,10.9-7.7s5.1,0,2.6-2.9c-3-3.4-6.1-3.5-13-.8-6.1,2.6-7.5,1.8-3.8-2.2,4.2-4.5,10.1-7,13.9-6.1,3.2.8,3.5.5,3.5-3.5s0-4.3-7.8-4.5c-8,0-16.3,2.6-20.6,6.6-3.8,3.4-6.1,1-3.2-3.5,1.3-2.1,3.2-4.3,4.2-5.1s2.6-3.7,3.4-6.6c2.2-6.6,7.2-9.9,14.1-9.3,6.4.6,7-2.1,1.3-6.4-3.5-2.6-4.3-2.7-9-1.1-2.7,1-5.3,1.6-5.4,1.3-.3-.3-.6-2.7-1-5.4-.5-4.8-.3-5,4-4.6,5.9.5,7-1.6,2.7-5.9-3.2-3.2-4-3.4-9-2.1-7,1.9-14.6,5.4-14.6,6.7s-2.7,4.2-6.2,8c-3.4,3.7-7.5,9.6-9.3,13-2.7,5.3-3.4,5.9-5.1,4.2-1.6-1.6-1.6-2.9-.3-6.6,1-2.6,2.9-4.8,4.2-5.3,3.2-1,11-10.1,11-12.8s4.6-10.4,7.2-10.4,3-1.6,3.8-3.5c1-1.9,2.9-3.5,4.3-3.5,3.4,0,5-3.5,2.6-5.4-1-.8-4.5-1.9-7.8-2.4-5.9-1-6.1-1-15.7,8.8-7.5,7.7-10.9,10.1-15,10.9-7.7,1.4-22.6,16.2-23.7,23.7-.5,2.9-1.3,7.7-1.8,10.4-.6,3.8-3,7.4-9.6,13.9-9.3,9.3-15,12.5-15,8.3s2.9-7.7,8.5-11.4c6.1-3.8,6.9-5.4,3.4-6.9-4.3-1.8-17.6,8.6-17.6,13.8s-2.2,4.8-5,8.6-5,8.5-5,10.2-2.9,7-6.6,11.7c-6.6,8.5-10.4,18.6-10.6,27.7,0,2.6-.8,5.9-1.8,7.4-1.4,2.2-1.4,3.4,0,5.8,2.4,3.8,1,7.7-5,14.6-2.6,3-4.8,6.2-4.8,7.4s-.6,2.1-1.4,2.6c-.8.5-1.4-2.2-1.6-7.4,0-4.5-.3-10.7-.5-13.8-.2-3.8.5-6.4,2.4-8.5,4.3-4.5,9.9-14.6,9.3-16.6-.3-1.1-2.4.3-5.4,3.5-5.1,5.8-13.6,11.7-14.9,10.2-.5-.5,1.3-3.2,3.7-5.9,2.6-2.9,5.3-6.1,6.2-7.2,2.2-2.6,6.6-6.7,10.1-9.4,2.7-2.1,2.6-2.1-1.9-2.2-4.3,0-4.6-.5-4.2-3.8.3-2.2,1.4-4,2.9-4.3,1.3-.3,6.6-4.3,11.5-9.1,7.5-7.2,9.8-10.4,12.8-18.7,2.9-7.7,5.8-12.2,12.2-18.9,7.5-7.8,9.8-11.2,7.7-11.2s-1.9,1.3-3.5,2.9-4,2.9-5.4,2.9c-3.5,0-17.1,13.8-18.1,18.2-1.4,6.9-3.2,9.8-5.4,9-3.2-1.3-2.6-7.8,1.1-11.4,1.8-1.6,4.8-5.9,6.6-9.4,3-5.8,4.3-7,7.2-6.7.5,0,1.8-1.6,2.9-3.7,1.1-2.1,5.6-7,9.9-11.2,4.3-4,9-9.4,10.2-12.2,1.3-2.6,3.2-5.4,4.5-6.6,1.1-1,2.1-3.2,2.1-5s3-5.8,9.9-11.8c9.9-8.5,10.6-9.8,3.5-7.2-3.7,1.4-9,5.6-21.3,17.4-11.7,11.2-12.8,12.2-14.4,12.2-2.9,0-3.2-4-.5-6.2l1.6.5ZM1424.7,290.8c-.5.5-.8-.3-.8-1.9s.5-1.9.8-.8c.5,1,.3,2.2,0,2.7ZM1154.2,451.4c0,1-2.2,4-5,6.6l-5,4.8v-5.1c0-5.6.3-5.9,6.1-7.2,2.7-.6,3.8-.3,3.8,1h0ZM1148.9,367.6c0-2.6,2.6-4.6,3.8-3.4.5.5-.2,1.9-1.4,3.2-2.2,2.2-2.4,2.2-2.4,0v.2ZM1185.7,308.7c0-.8,1-1.4,2.2-1.4s1.8.6,1.3,1.4c-.5.8-1.4,1.4-2.2,1.4s-1.3-.6-1.3-1.4ZM1153.5,329.6c3.4-4.2,25.3-21,26.4-20.3.6.3,1.4,2.1,1.9,3.5.6,2.2,0,3-3,3.7-2.1.5-4.5,1-5.4,1.3-1,.3-5.9,5.8-11,12.2-10.4,13-13,15-14.2,11.8-.8-2.1,1.8-7.8,5.4-12.3v.2ZM1146,376.2c2.1,0,1.6,1.6-3.4,9.8s-8,10.6-8,6.1,9.3-15.8,11.4-15.8ZM1120.4,405.6c1.6-1.8,2.9-2.6,2.9-1.8s-1.3,3-2.7,5c-1.6,1.8-2.9,2.6-2.9,1.8s1.3-3,2.7-5ZM1119,427.9c1-1.1,3.2-1.9,5.3-1.9,3.4,0,3.2.3-3.2,6.2-3.8,3.5-9,7.2-11.7,8.3-2.6,1.1-8.3,1.9-12.6,1.9h-7.8l4.6-2.9c2.6-1.6,5.1-2.9,5.6-2.9s3.5-2.4,6.6-5.3c3.5-3.4,5.8-4.6,6.1-3.5.8,2.4,5.3,2.2,7.4,0h-.2ZM443.1,343.7c1.1-1.1,4,.8,11.4,7.5,8,7.5,10.4,12,11.5,22.4,1,7.8.8,8-2.1,7.4-1.9-.5-3.5,0-4.2,1.3-1,1.6-1.4,1.3-2.7-1.4-.8-1.9-2.1-5.9-2.6-9s-2.7-7.7-4.8-10.4c-4-5.1-8.2-16.2-6.6-17.8h0ZM448.6,444.7c-1.3,0-1.9,1.8-1.9,5.6,0,7.4-2.4,8.6-3.7,1.9-.8-4.2-.3-6.6,2.4-11.5,1.9-3.5,4-6.4,4.6-6.4s3.2,2.9,5.4,6.7l4.2,6.7-2.4,6.2c-3,8-5.6,8.3-4.3.6,1-5.9-.6-9.8-4.3-9.8v-.2ZM452.3,411.6c-.8-.5-1.9.5-2.2,2.1-.8,2.9-2.6,3.8-3.7,1.9-1.1-1.9,0-9.4,2.4-14.7,1.3-2.9,2.4-7.5,2.4-10.4,0-7.7,2.6-4.2,4.5,6.2,1.6,9.1,0,17-3.2,15l-.2-.2ZM421.5,351.9c-4.2-8.8-3.8-11.2,1.3-9.6,4.3,1.4,16.6,17.6,19.7,26.1,2.6,7.2,2.7,8.5,1,15.7l-1.9,7.7v-7.2c-.3-6.9-4.8-20.3-7-20.3s-1.8.8-2.7,1.6c-2.2,2.1-6.1.5-6.1-2.6s-1.9-6.4-4.2-11.4h0ZM441.1,399.6c0,3-2.1,3.8-3.5,1.4-1-1.8.3-4.3,2.2-4.2.8,0,1.3,1.3,1.3,2.9v-.2ZM435.3,382.1l-.5,4-1.8-4.8c-1.9-5.1-1.3-7.4,1.3-4.8.8.8,1.3,3.4,1,5.6ZM411.3,378.6c1-.3,1.8,0,1.8,1s1.3,2.7,2.7,4c1.4,1.4,4.3,7,6.4,12.3,2.1,5.3,3.4,10.9,3.2,12.5-.3,2.4-1.4,1.8-6.4-3.8-3.4-3.7-6.6-8-7.2-9.9-2.1-5.4-2.2-15.5-.3-16.2l-.2.2ZM689.1,539.6c.8-2.1,4-3.2,4-1.4s-1,1.8-2.2,2.2c-1.4.5-2.1.2-1.6-.8h-.2ZM688.7,578.9c1.8.5,4.2-.6,6.7-3.4,2.2-2.2,5.8-5.1,8.2-6.4s6.2-3.7,8.8-5.4c2.6-1.6,4.6-2.4,4.6-1.4,0,2.2-9.4,12.3-16.2,17-3.2,2.2-8.2,5.4-10.9,6.9l-5.1,2.9-.8-3.8c-1-4.6,1.1-7.4,4.8-6.4l-.2.2ZM670.7,606.4c4.3-4.3,7.2-3.4,3.2,1-1.4,1.6-3.5,2.9-4.8,2.9s-1.1-1,1.6-3.8h0ZM664.9,626.1c1.3-1.3,2.4-4,2.7-5.9.8-5.1,4-5.4,4-.3s-1.1,5-3.2,6.4c-4.2,2.9-6.2,2.7-3.5-.3v.2ZM647.5,652.7c1.1-.3,1.6.2,1.3,1.3-.3,1-1.4,2.1-2.4,2.4-1.1.3-1.6-.2-1.3-1.3.3-1,1.4-2.1,2.6-2.4h-.2ZM610.7,695.4c2.2-.5,7-2.7,10.6-5.1,3.7-2.4,7.8-4,9.6-3.7l3.2.5-3.8,3.8c-2.4,2.4-5.4,3.8-7.8,3.8s-5.6,1-7.5,2.1c-4,2.2-8.5,2.7-8.5.8s1.9-1.8,4.2-2.2h.2ZM538.2,813.3l6.4-5.3-1,4c-1,3.7-.8,3.8,1.4,2.1,3.2-2.7,12-14.9,15.2-21.3,2.6-5,2.4-9.6-.3-9.6s-8.6,13.9-8.6,16.5-5.1,7.5-6.2,7.5-1-6.4.5-7.8c3-3.2,7.7-19,6.9-23.7-.6-4.2-.2-5.3,3.4-7.8,2.6-1.9,4.2-4.3,4.2-6.6,0-5.3-2.2-4.3-10.6,4.2-4.2,4.3-8,7.7-8.3,7.7-2.7,0,.3-6.4,7-14.7,6.9-8.6,7.8-10.4,7.8-16.2s1-7.7,2.1-9.3c1.1-1.4,1.8-4.2,1.3-5.8-1-4,1.8-12.2,5.1-15,4-3.7,11.4-3.2,17.6,1.1,5.6,3.8,10.4,4,14.9.3,1.1-1,6.4-4,11.7-6.7,5.3-2.7,10.6-5.9,11.7-7.2,1.3-1.3,4.2-2.2,6.6-2.2,4.8,0,10.7-5.3,14.6-13.3,2.4-5,4.2-6.1,5.8-3.5s5,1.4,6.2-1.9c.6-1.8,2.2-3.7,3.5-4.2s2.2-2.1,2.2-3.7c0-3.2-3.2-3.7-9.1-1.4-4.6,1.8-5-1.4-.5-5.9s5.4-6.9,8.3-11.4c5-7.8,12.2-14.2,39.7-34.2,6.1-4.5,8.2-8.3,5.8-10.7s-4.3,2.2-8.6,6.1c-8,7.2-11.7,8.6-11.7,4.5s3.5-5,8-8c11.8-8.3,20.2-16.2,20.2-19.2s-1.8-3.4-5,.3c-1.4,1.6-6.7,5.8-11.8,9.4-5.1,3.5-10.1,7.4-11,8.3-4.3,4.3-4.5,1.4,0-3.5,2.6-2.9,6.2-7.5,8.2-10.2,1.9-2.7,5.3-6.2,7.5-7.8,10.1-7,22.1-18.9,22.7-22.2.3-1.9,0-3.5-.5-3.7-.6,0-1.3-.5-1.3-1.1,0-3.8,28.6-25.6,33.8-25.6s2.9-.8,2.6-3.8c-.3-2.1-1-4.2-1.4-4.3-.6-.3-6.6,3.8-13.3,9.1-16.8,13.3-37.9,29-43,32l-4.2,2.6.5-5.4c.3-4.2,1.1-5.4,3.4-5.8,1.6-.2,6.1-2.9,9.9-5.9,15.8-12.5,20.2-16.3,21-18.2.5-1.1,4.8-6.2,9.6-11.5,6.9-7.2,8.6-10.1,8.2-12.5-.6-2.7-2.1-1.6-11.8,9.6-9.4,10.7-23.7,23.8-30.1,27.4-1,.5-2.7.5-4,0-2.1-.8-2.1-1.1,0-4.2,2.7-4.2,2.9-8.5.3-10.1s-1.8-2.7-1.3-5.8c.5-3.4,2.7-6.4,8.3-11.2,9.3-8,15-16,13.9-19.2-1.3-3.5-2.4-2.9-8.5,5.1-5.8,7.7-9.4,11.4-13.8,13.8-3.7,2.2-3,.5,2.4-5.4,4.5-5,4.8-5.6,3-9.1-1.6-3.2-1.6-4.2.3-6.9,1.3-1.8,3.5-4.3,5.1-5.6,2.2-1.9,2.6-2.7,1.1-4.2-1.3-1.3-2.4-1.4-4.2-.3-4,2.6-10.4,11.2-12.3,16.8-1.9,5.6-5,8.2-5,4.3s1.8-5.1,4-9c5.9-10.1,9.3-21,7.4-24.5-1.3-2.4-1.1-3,1.4-3.7,2.7-.6,4.2-3.2,1.9-3.4-.6,0-2.6-1.3-4.3-2.9l-3.4-2.7,3.7-4.3c2.9-3.5,3.4-4.8,2.1-6.4-1.4-1.8-2.1-1.8-5,0-4.6,3-7.2,2.7-4.3-.5,2.9-3.2,3-7.4.5-7.4s-2.7,1-3.7,2.1c-2.1,2.4-4,2.6-7,.8-1.8-1.1-1.8-1.6.3-4,3.7-4,3-4.6-3.4-3.7-4.6.8-5.8.5-5.1-1.1.3-1.1,2.1-2.2,3.7-2.4,1.8-.2,3-1,3-1.6,0-1.3-1.9-2.1-9.6-3.5-3-.6-5.1-2.1-5.9-4.2-1.1-3.2-9.1-7-11.4-5.6-.6.3-2.2-1.1-3.7-3.5-2.9-4.8-3.7-5.1-6.1-2.2-2.6,3-4.5,2.6-7.8-1.8-2.9-3.5-3.4-3.7-6.7-1.9-3.2,1.6-4.2,1.6-7.2-.3-3.2-2.1-3.7-2.1-5.8,0s-3.2,2.1-7.4.6c-4.2-1.3-5.6-1.3-7.5.5-2.6,2.4-5.9,2.7-10.7,1.3-2.4-.8-3.4-.3-4.2,1.6-1.4,3.8-5,6.1-9,5.8-2.9-.3-3.7.3-4,3.2-.8,5.1-2.6,6.6-7.2,5.9-3.7-.6-4.3-.2-4.3,2.9s-3,7-7.5,8.6c-1.6.6-2.2,1.8-1.8,3,1.3,3.2-3,10.4-7,11.8-3.4,1.3-3.5,1.8-2.6,7.8.8,5.3.5,7.2-2.1,10.6-1.6,2.2-3,6.2-3,8.8s-.8,5.4-1.6,6.4c-1.3,1.3-1.3,2.6.3,5.3,1.6,3,1.6,4.2.2,6.6-1.3,1.9-1.3,3.4-.3,4.6.8,1,1.1,5.8.8,10.9s0,11.2,1,13.8c1.4,4.2,1.3,5-1,6.7-2.6,1.8-2.6,2.1-.5,4.5,3,3.4,2.1,18.6-1.3,20.5-1.6,1-2.1,2.4-1.4,5.1.6,2.6,0,4.5-1.3,5.8-1.4,1.1-1.9,3-1.3,5.1.8,3,.5,3.4-4.2,3.4s-7.8,2.1-5.3,4.6,1.9,5.6-1.1,4c-3.2-1.8-4.5-.6-4.5,3.5s-4.2,5.6-7.4,2.1c-3.4-3.7-5.4-3.7-6.4,0-.6,2.4-1.4,2.7-5.1,1.9-13.8-2.9-41.6-29.4-44-41.9-.5-2.2-1.3-4.3-2.1-4.8-.6-.5-1.3-2.7-1.3-5.3s-1.4-10.1-3.4-16.8c-1.8-6.7-4.2-19.2-5-27.5-2.2-20.6-5-26.2-18.1-38.2-9.6-8.8-11-10.7-13.1-18.1-2.4-8.8-4.2-33-2.4-33s3.4,2.6,6.1,5.6c5.3,5.9,6.6,9.6,9.3,27.5,2.1,13.9,2.6,14.9,5.8,14.9s3.5-2.1,1.1-3.5c-2.9-1.8,1-27.7,4.8-32.6,2.1-2.7,4.5-2.1,6.9,2.2,2.2,3.7,2.1,4.3-1.8,12.6-5.9,12.6-6.4,16.8-2.6,24.3,2.6,5.1,4.2,6.6,8.2,7.4,6.1,1.3,9-1,13.6-10.7,4.2-8.8,4.2-12.2.3-15.7-3-2.7-6.6-9.8-7.7-15.4-.8-4.3,1-10.7,2.9-10.6,1,0,2.2-1.6,2.7-3.5s1.4-3.2,2.1-2.9c1.1.6-.2,12-2.1,17.8-1.4,4.6.6,6.1,4.2,2.9l3.2-3-1.4,6.4c-1.4,5.9-.2,11.2,1.6,6.4.5-1.1,3.8-8,7.5-15.2,7-13.3,10.1-24,7-24.5-5.4-.8-5.1-1-5.6,6.2,0,1.3-.6,2.4-1.3,2.4s-1.1-6.4-1.1-14.1.3-14.1.6-14.1,2.7,1.6,5.3,3.7c9.6,7.4,10.9,15.4,5,29.6-1.6,3.8-5.9,14.2-9.4,23.2-7,17.8-15.5,34.6-18.4,36.2-4,2.4-5.1,6.9-3.7,15.4,6.6,38.9,13.9,61.4,25,77.4,6.7,9.9,10.6,12.8,19.2,14.9,7.4,1.8,7.7,1.8,14.4-2.6,13.6-8.6,17.3-23,12.5-49.1-1.6-8.8-1.9-17.4-1.4-33.9.8-24.8,2.6-37.3,6.6-45.1,8.5-17,12.6-23,26.2-37.8,5.1-5.4,7.7-7.4,9.4-6.7,1.4.5,4.3-.3,6.4-1.8,5.4-3.7,15.5-8.2,22.6-9.9,13.6-3.5,17.3-4,31.4-4.2,12.6,0,16,.3,23.2,3.2,7.4,2.9,33.3,19.2,44.5,27.8,4,3,16.3,6.6,30.7,8.6,13,1.9,46.1-2.9,65.6-9.4,16.8-5.8,37.4-9,60.6-9.9,20.6-.8,23.4-.6,32.5,2.2,5.4,1.8,12,3.5,14.7,4.2,5.1,1.1,13.9,4.5,26.2,10.2,4,1.9,8,3.4,8.6,3.4s4.5,1.6,8.3,3.5,7.7,3.5,8.5,3.5c2.1,0,4.8-5.4,3.8-7.8-.5-1.1,0-2.1,1-2.1s10.2-.3,20.8-.6c10.6-.3,20-1,21.1-1.3,1.1-.3,14.4-1,29.6-1.3,15.2-.3,33.9-1.6,41.8-2.7,7.7-1.1,16.6-2.4,19.7-2.9s9.6-2.1,14.6-3.5c5-1.6,9.3-2.4,9.6-2.1,1.3,1.3-1.1,6.6-3,6.6s-3,2.1-4.6,4.5c-2.1,3.5-5,5.4-11.8,8-27.4,10.2-27.2,20.3.3,19.4,13.4-.5,24.2-3.4,28.8-7.5,2.4-2.1,12.3-7.4,14.1-7.2.3,0,.6,4.2.6,9.3,0,7.7-1,11-5,19.5-2.7,5.6-5,10.9-5,11.7,0,5.6,17.8,0,26.2-8.2,2.6-2.6,4.8-3.7,5.3-2.9s1.3,7.4,1.8,14.7c.8,13.1.8,13.4-5.1,27.5-3.2,7.8-5.9,15.5-5.9,17,0,3.8,6.4,3.2,10.7-1,3.7-3.5,9.6-4.2,15.5-1.4l3.7,1.8-.8,17.6c-.5,11-1.6,20-3,23.8-1.3,3.4-2.2,6.2-2.2,6.6s1.8.3,3.8.5c2.9,0,5.4-1.8,10.6-7.2l6.7-7.4v4.8c0,11.5,7.5,49.9,10.7,55.7.3.6,1.4.5,2.6-.5,1.1-.8,2.6-1.1,3.4-.6s2.4-1.4,3.7-4.3c3.2-7.5,7.8-10.2,7.7-4.5,0,1.6,1.9,8.6,4.2,15.5,2.2,7,4.2,14.4,4.2,16.5,0,3.2.5,3.8,3.8,3.7,2.9,0,4.5-1.4,6.6-5,1.4-2.6,4-6.4,5.8-8.3s5-5.9,7.2-9c2.7-3.6,4.4-4.3,5.3-2.1,1.8,4.5.2,21.6-2.6,29.3-3,8.6-2.9,9.9,1.9,9.9s5.6-1.6,10.9-7.7c6.4-7,7-7.5,9.3-5.4,3.5,3.2,3,6.7-1.1,9.6-2.6,1.8-3.2,2.9-2.2,3.8,1.1,1.1,1,2.4,0,4.3-1.3,2.2-1.1,3.2,1,4.6,2.1,1.6,2.2,2.6.8,6.2-2.2,6.2-2.1,6.9,1.9,6.9s4.5,1.6,0,19.2c-5,19-9.6,33-10.9,33s-1.1-2.6-1.1-5.6c0-7.2-2.1-12.8-4.8-12.8s-2.6-.3-2.9,26.2c-.2,18.2-.6,21.8-2.9,25.4-1.4,2.2-3.5,4.6-4.5,5.1-2.7,1.6-.6,5.3,2.9,5.3s3.4,1,4,5.3c1.8,10.6,1.4,11.4-4.5,11.8-7.7.6-7.4,4.6.3,4.8,4.6,0,5.8.6,6.1,3.2.3,2.4-.8,3.5-4.6,5.1-5.8,2.4-5.4,5,.8,5s4.2.5,4.2,4.2-.6,4.2-3.8,4.5c-5.3.6-5.1,4.5.3,5.4,4,.6,4.5,1.4,3.7,7,0,.8-1.4,1.4-3,1.4-4,0-3.5,3.5.6,5.4,4,1.9,4.6,5.1,1,7.2-2.2,1.3-2.1,1.8,2.1,5.9,2.6,2.6,4.6,5.3,4.6,6.1,0,1.8,6.7,10.4,13.4,17.3,3,3.2,6.6,5,12.2,6.1,8.5,1.8,13,1,19.2-4,3.7-2.9,9.4-3.7,10.9-1.4,1.3,2.1-16,11-24.6,13-10.7,2.2-12.8,4.5-7,7.4s5,2.1,11.8-.5c10.2-3.8,11.2-3.7,10.1,1.6-.6,3-.5,4.8,1,5.6,2.7,1.8,5.4,1.6,5.4-.5s5.3-5.3,12.6-6.2c4.3-.5,7-.2,7.7.8.5.8,2.4,1.6,4.2,1.6,4.6,0,5.6,1.6,2.2,3.8-1.6,1.1-2.9,3.2-2.9,4.5,0,6.2-25.3,11.4-31.8,6.4-2.6-1.9-2.4-2.1,2.9-2.1s5.4-.3,3.2-1.9c-1.4-1-6.2-2.2-10.7-2.9-4.5-.5-10.4-2.1-13-3.5-9.3-5-15.4-5.1-17.1,0-.5,1.3-4.8,3-11,4.6-10.6,2.6-13.8,2.1-9.4-1.1,3-2.1,1.9-5.8-1.9-6.9-2.9-.8-3.5-5-1.4-9.1,3-6.1,4.5-12.8,3.2-16.2-1.1-3-7-8.2-9.4-8.2s.5,6.7,3.2,12.3c1.1,2.6,1.9,5.3,1.4,6.4-.3,1-1.8-.6-3.4-3.7-3.7-7.7-9.1-11.4-15.8-11-4.2.3-6.6-.6-9.9-3.4-4-3.4-4.3-4.5-4.3-11.7s-1.9-17.1-4.2-18.6c-.8-.5-.6-5,.6-12,5.4-30.6,5.6-39,1.3-51.4-.6-1.9-1.4-6.6-1.6-10.4s-1.8-11.5-3.5-17.3c-2.6-8.2-3-11.5-1.9-15,1.8-6.1,1.6-6.9-1-6.4-3.7.6-5-6.6-2.4-13.8,1.9-5.6,1.9-6.4-.6-10.6-1.6-2.6-3-3.8-3.7-2.9-1.6,2.6-3.4,1.8-5.8-2.9-1.8-3.2-1.8-4.8-.6-6.2,1.1-1.3,1.1-2.7.2-4.6-1.1-2.1-.2-4.6,4.5-12.5,3.2-5.3,6.4-9.9,7-10.2s2.2-2.7,3.5-5.4c1.8-3.8,2.1-5.6.8-7.5-.8-1.4-1.3-3.8-.8-5.3.5-1.6-.3-4.8-1.4-7.2-3-5.9-2.7-8.8.8-9.8,2.2-.6,2.6-1.1,1.1-1.9-1-.6-2.7-1.1-3.7-1.3-2.9,0-6.1,9.6-7,21-.6,7.7-1.9,12.2-4.2,15.8-1.8,2.9-3.4,5.8-3.4,6.4s-1.9,4.2-4.3,7.7c-3.2,4.8-4,7.4-3.4,10.1,1.8,6.7-7.5,15.5-30.1,28.6-14.4,8.3-16.2,7.4-5.3-2.9,14.6-13.8,20.3-19.7,20.3-21,0-1.9-2.6-1.4-3.8.6-.6,1-3,3-5.4,4.5-2.4,1.4-6.2,4.3-8.6,6.2-10.7,9.1-24.5,17.1-30.4,17.6l-6.1.6,7.8-4.2c4.3-2.4,10.4-6.1,13.4-8.5,3-2.4,7.7-5.3,10.2-6.6s4.6-2.9,4.6-3.5,2.6-2.4,5.6-4c4.8-2.4,8.6-7.5,6.9-9.3-.3-.3-5.3,2.7-11,6.6-11,7.4-31.8,18.1-35.2,18.1s-1.6-.5,0-2.1c1-1.1,2.4-2.1,3-2.1,1.4,0,11-9.3,11-10.7s1.1-1.8,2.4-2.7c1.3-1,2.1-2.2,1.6-2.7s-4.5,1.4-8.8,4.2c-11.4,7.5-30.2,16.5-28.5,13.6.3-.6,3.5-3,6.7-5.3,10.2-6.9,19.2-16,18.6-18.9-1.3-4.6-6.6-2.9-11.5,3.7-2.6,3.4-5.8,6.1-7,6.1s-3,.6-3.7,1.3c-3.2,3-20.6,11.4-21.9,10.6-2.1-1.3,2.6-5.9,9.1-9.3,2.9-1.4,5.8-3.5,6.1-4.6.5-1.1,3.2-3.7,6.2-5.6,5.4-3.8,8.5-9.1,5.1-9.1s-6.1,3-11.2,6.7c-18.9,13.4-27.4,17.8-30.6,15.7-2.2-1.4-2.7-1,7.7-7,4.5-2.7,8.8-5.9,9.6-7.2.6-1.3,4.5-4.2,8.3-6.2,5.8-3.2,9.9-7.8,9.9-11s-4.2.3-16.6,8.6c-13.1,9-28.3,17.3-30.9,17.3s-3.7,1.6-6.4,3.5c-5.3,3.5-10.2,4.5-11.5,2.2-1-1.6,1.9-4,6.7-5.1,6.9-1.8,38.7-19,40.8-22.2,3.2-4.6-.8-4.2-17.1,2.2-10.9,4.3-14.7,4.3-7.7,0,2.2-1.4,4.3-3.2,4.5-4,0-.8,2.2-1.4,4.8-1.4,6.7,0,10.6-1.8,11.7-5,1.3-4,.3-4.5-5.1-2.2-8.2,3.4-14.7,5.1-19.4,5.1s-22.9,3.5-28.8,5.9c-2.7,1.1-4.5,1.1-5.4,0-2.4-2.4,2.7-4.2,22.2-7.2,12.8-2.1,18.7-3.5,20-5.3,3.5-4.6,1.9-5.8-4.8-3-2.2.8-13.1,2.4-24.5,3.4l-20.5,1.8-8.2-3.5c-4.5-1.9-8.2-4.2-8.2-5s1-.6,2.2.5c3,2.6,13,2.1,19.7-.8,3-1.3,10.2-2.7,15.8-3.2s10.2-1.4,10.2-2.2-2.1-1.3-4.6-1.3c-14.2.6-30.4,1.9-33.6,2.6-2.1.5-4.2,0-4.6-.8-1.6-2.7-6.4-1.8-6.4,1.3s-2.4,3.5-3.5-.3c-1.3-4,2.6-6.7,9.4-6.7s8.6-1.3,12.8-2.7c4.2-1.4,9.8-3,12.8-3.7,2.9-.5,5.3-1.6,5.3-2.4s-2.1-1.1-5.3-.5c-2.9.5-11.5,1.8-19.2,2.9l-13.9,2.1-2.7-3.2c-1.4-1.8-2.7-3.5-2.7-4,0-2.1,7.5-3.8,19.5-4.8,8.3-.6,13.4-1.6,14.6-2.9,1-1.1,1.4-2.2,1.1-2.4-.3-.3-8.5,0-18.2.6-19,1.3-20,1.1-29.6-3.5l-6.4-3,9.9-1c22.9-2.1,27.5-3.4,27.5-7.8s-1-1.9-3.8-1.1c-4,1-36.2,3.7-42.7,3.5-1.9,0-8.6-.5-14.7-1-8.6-.6-14.6-.2-25.4,2.1-23.8,5.1-21.6,4.8-18.2,2.2,6.6-4.8,15.8-9,17.8-7.8,1.1.6,4.5.5,7.5-.3,10.1-2.6,27.8-3.7,38.6-2.4,6.7.8,11.2.8,12,0s3-1.4,5.1-1.3c2.1,0,4.3-.6,5-1.3.8-.6,4.2-1.9,7.7-2.7,5.3-1.1,3.5-1.3-9.9-1-22.4.6-21.6.6-38.1.5-10.2,0-18.6.8-27.2,2.7-14.4,3.4-17,3.5-16.2,1.1.3-1,4.6-2.9,9.6-4.3,5-1.4,11.2-3.2,14.1-4,13.6-4,37.4-6.1,39-3.7,1.4,2.2,3.5,1,3-1.9-.6-4.6-18.1-10.1-38.9-12.2-8.8-.8-10.2-.6-11,1.4-.5,1.3-.6,2.6-.3,2.9.5.5,12.8,1.9,18.7,2.1,5.4.2.8,1.8-10.4,3.7-13.1,2.2-21.1,5.8-24.5,11-3.4,5-4.6,4.5-5.4-2.1-.8-5.9-3.4-10.2-5.3-9.1-.6.3-.5,2.9.2,5.8,1.9,7,.6,21.4-2.1,24.2-4.2,4.2-5.8.8-4.6-10.2.8-8.8.6-10.4-1.3-10.4s-2.6,1-2.7,17.8c-.2,11.8-1.8,15.5-8,18.9-1.9,1.1-2.1-.2-1.6-10.9.5-9.9.3-12-1.3-11.4-1.3.5-2.4,4-3,9.8-.6,5-2.1,11.7-3.5,14.7-1.3,3-2.2,6.1-2.1,6.7,0,.6-.5,2.4-1.3,3.8-3,5.6-4.2,2.7-3.8-8.8.5-15-1.9-16.5-4-2.6-1.6,11.2-4.3,20.6-6.7,23.7-1.6,2.1-13.8,10.4-13.8,9.4s.8-2.6,6.2-15c2.4-5.8,3-12.5,1-12.5s-2.4,3.5-3.7,7.8-3.8,11.4-5.8,15.5c-1.9,4.2-2.7,7.7-1.9,7.7,2.7,0-.8,4-7.2,8.3-5.8,3.8-6.4,4-6.7,1.6-.2-1.4.6-4.3,1.9-6.2,2.6-3.8,6.7-17.9,5.6-19s-2.7,1.6-4.6,7.5c-2.4,7.2-9.6,21.3-13.9,27-2.9,3.8-11.7,10.2-13.9,10.2s4.3-7.2,12.2-17.4c4-5.3,5.4-9.3,3.2-9.3s-4.5,5.1-8.8,11.4c-4.3,6.2-9.4,12.5-11.4,13.6-5.1,3.2-5.1,3-2.9,4.3,1.4,1,.8,1.8-2.7,3.5-5.9,3-6.7,2.1-3-4,3.8-6.2,3.8-8,0-3-2.7,3.4-3.2,3.5-4,1.4-.6-2.1-1.8-1.3-5.8,4-5,6.4-8.3,8.3-8.3,4.5s-3.8-2.7-4.8.3c-1,2.9-13,11-18.1,12.3-1.9.5-4.2,2.2-5,4-2.6,5.4-47.5,20.2-52.3,17-4.2-2.6-44.5,7.8-54.6,13.9-7.7,4.6-19,15.2-19,17.6s-2.6,5-6.4,5.6c-2.2.5-2.7,1.4-2.4,5,.3,3.4-.3,5-2.4,6.2-1.9,1.3-2.9,3.4-2.9,6.2s-1.1,5.1-3.2,6.6c-2.9,1.9-3,2.4-1.3,5.3,1.6,2.7,1.6,3.7-1,6.9-1.9,2.6-2.4,4.5-1.6,6.1,1.9,3.4-1,9.4-4.3,9.4s-3.8,3.8-.8,5.1c3.4,1.3,2.4,6.1-1.4,7.8-4.3,1.9-4.5,3.4-.6,5.4,2.1,1.1,2.7,2.6,2.2,4.5-.8,3.2,2.6,10.9,4.6,11,.8,0,1,1.9.5,4.2-1,4.6.5,5.3,5.4,2.7,2.7-1.4,2.9-1.3,1.9,2.2-1.3,4.8,2.2,6.4,6.2,2.9,2.2-1.9,3.8-2.2,8-1.3,6.2,1.4,23.4,1.4,38.6,0,13.1-1.3,16,1.1,4.3,3.5-4.5,1-10.9,2.2-14.4,2.9-3.5.8-10.6,1.6-15.8,2.1-6.6.5-9.6,1.4-9.6,2.7s1,2.2,2.1,2.7,2.2,3.2,2.4,6.1c.5,6.1,1.9,6.4,13.8,3.4,7.5-1.9,20.8-.6,24.2,2.4,3,2.7,4.5,11.5,3.2,18.9-1,5.6-1.1,5.8-5.4,5-2.4-.5-8.2,0-12.6,1.3-8.8,2.2-19.7,2.6-24.2.6-1.6-.6-6.6-.8-11.2-.3l-8.3.8,1-3.7c.8-3,.5-3.7-1.6-3.7s-3.7,1.3-5,2.9c-4.3,5-7.2,2.9-8.2-5.8-1.1-10.7-2.9-13.6-9.3-14.7-8.6-1.8-10.6-3.2-9.9-8.2.3-2.4-.2-7.8-1.3-12s-1.6-8-1.3-8.3c.5-.5-.2-2.6-1.3-4.8-1.9-3.5-1.9-4.5,0-8.2,2.4-4.8,2.7-8.5.8-8.5s-1.4.6-1.4,1.4c0,2.7-2.9,1.4-4.2-1.8-.6-1.8-2.6-4.3-4-5.8-2.4-2.1-2.6-3.4-1.6-7.7,1.8-7.2,1.6-9.3-.6-12.3-1.9-2.6-2.1-2.6-4.6-.3-1.4,1.3-3.5,2.4-4.3,2.4-2.9,0,0-4,6.4-9.3l.2-1.1ZM1040.1,676l2.7-1.3c1.6-.6,3.8-1.3,5-1.3q1.9,0,0,1.3c-1.1.8-3.4,1.3-5,1.3h-2.7ZM1050,667.7c.5-.8,2.2-1.4,4-1.4,2.6,0,2.7.3,1,1.4-2.7,1.8-6.1,1.8-5,0Z"/>
    <path class="st0" d="M685.2,641.2c4-1.9,6.4-4.2,7.4-6.9,1.9-5.3-1.1-5.8-5.1-.8-1.4,1.8-8,7.2-14.7,11.8-13.6,9.6-17.4,13.4-16.2,15.7,1.4,2.4,2.4,1.9,12.8-7.7,5.4-5,12.5-10.4,15.8-12v-.2Z"/>
    <path class="st0" d="M580.1,751.4c4.5,0,5.1.3,5.1,3.2,0,5.4,5,4.3,7.8-1.6,1.3-2.7,3.8-5.9,5.8-7.2,1.8-1.1,5.3-5.3,7.5-9,5-8,9.1-10.4,20.2-11.7,4.5-.5,11.7-2.6,16.2-4.6,4.5-2.1,11.7-4.8,15.8-6.2,4.3-1.4,7.2-2.6,6.7-2.6s0-1.1,1.1-2.6c1.3-1.3,3.4-4,4.8-5.9,2.2-3,3-3.2,5.4-1.8,3.8,2.4,6.1-.6,5.6-7.5-.3-3.8-1.1-5.4-2.9-5.9-1.9-.3-2.4.5-2.4,4.5s-1.8,6.6-6.6,6.6-1.9-1.1-1.6-3c.2-1.6-.3-3.4-1.3-3.7-1.6-.5-2.4,1-5.4,9.3-.6,1.6-1.1,1.6-2.9,0-1.9-1.6-2.6-1.4-4.2.8-1.1,1.4-1.9,3.2-1.9,4s-1,.5-2.2-.6c-1.9-1.6-2.7-1.4-5.4,2.1-2.2,2.9-4,3.7-5.8,3-1.8-.6-3.2,0-4.8,1.9-1.6,2.1-4.6,3.2-9.9,4-10.7,1.4-23.8,8.8-24,13.3,0,2.6-7,10.4-9.9,11.2-2.2.6-3.2,0-3.7-1.9-1-3.8-4.8-4.8-5.6-1.4-.8,3-3.2,3.7-5.8,1.1s-6.1-.5-6.1,2.7c0,5.1,4.8,9.3,10.4,9.1l-.2.5Z"/>
    <path class="st0" d="M545.5,838.3c.8,0,1.4-1,1.4-2.1s.5-2.1,1.3-2.1c1.6,0,10.7-19.7,9.6-20.6-2.1-2.1-5.1,1.8-9.1,11.8-2.4,6.1-4.5,11.5-4.5,12.2s.6,1,1.4,1l-.2-.2Z"/>
    <path class="st0" d="M565.9,804.5c2.9,0,4.8-2.9,6.4-10.2.8-3.5,3.8-11.7,6.6-18.1,4.6-10.6,5.4-15.5,2.4-15.5s-17.3,30.2-17.3,39.2.6,4.5,1.9,4.5v.2Z"/>
    <path class="st0" d="M1145.2,646.3c0-2.7-2.2-5.1-5.1-5.1s-4.5,2.6-2.4,4.6,7.5,1.3,7.5.3v.2Z"/>
    <path class="st0" d="M1143.6,635.2c-.3-2.1-1.6-3.4-3.7-3.7-3.5-.5-4.3,2.2-1.4,5.1,2.9,2.9,5.6,2.1,5.1-1.4h0Z"/>
    <path class="st0" d="M1398.3,374.3c1.6,0,2.6-.6,2.1-1.4-.5-.8-1.8-1.4-2.9-1.4s-2.1.6-2.1,1.4,1.3,1.4,2.9,1.4Z"/>
    <path class="st0" d="M1311.9,533.2c-.5,0-2.1,2.1-3.4,4.8-1.8,3.7-2.1,7.2-1.4,15.5.5,5.9,1.4,10.7,2.1,10.7s1.1-3.2.6-8.2c-.5-6.1,0-9.4,1.9-13.3,2.4-4.8,2.4-9.6,0-9.6h.2Z"/>
    <path class="st0" d="M1350,513.6c-6.6,0-11.2,2.9-8.3,5.3,1,.8,3.5,1.9,5.4,2.2,5.8,1.1,6.2,1,9-1.1,3.8-2.9.6-6.4-6.1-6.4Z"/>
    <path class="st0" d="M1329.5,543.1c-3,0-4,2.2-1.6,4.3,3,2.6,2.6,4-2.2,8.2-4.3,3.5-4.3,4-3.7,12.6.3,5,1.4,9.9,2.4,11,2.9,3.5,4.3.3,2.9-7.2-1.4-7.5-.6-10.2,5-16.2,3-3.2,3-3.8,1.3-8.2-1.1-2.6-2.9-4.6-4-4.6h0Z"/>
    <path class="st0" d="M1342.2,506.4c0-1.1-1.1-2.2-2.4-2.4-2.4-.5-3.4,2.6-1.4,4.5,1.4,1.4,4,.2,4-2.1h-.2Z"/>
    <path class="st0" d="M1327.8,523.1c2.9,3.2,5.1,4.2,5.3,2.1,0-1.9-9.1-18.7-10.2-18.7-1.6,0-1.3,6.9.5,10.2.8,1.8,2.9,4.5,4.5,6.2v.2Z"/>
    <path class="st0" d="M1323.8,310.9c0,2.1,4.5.6,6.1-1.9.8-1.3,1.1-2.9.5-3.4-1.1-1.1-6.7,3.4-6.7,5.4l.2-.2Z"/>
    <path class="st0" d="M1348.1,542.1c-2.2.8-6.6,9.3-6.7,13.4,0,4.5,1.9,2.9,5.4-4.3,3.4-6.9,3.8-9.9,1.3-9.1h0Z"/>
    <path class="st0" d="M1357.5,508.8c1.4,3.8,4.8,2.1,8.5-4.5,4.5-8,3.5-10.2-2.4-5.3-5.4,4.5-7,7.2-6.1,9.8Z"/>
    <path class="st0" d="M1179.3,443.7c2.4-2.6,3.4-6.7,5.3-22.7,1.3-10.7,3.2-20.8,4.3-22.6,1.1-1.6,3.8-8.5,5.9-14.9,2.7-8.2,5.4-13.3,8.6-16.5,5.1-5.1,5.6-6.1,2.6-6.1s-3.2,1.8-4.5,3.8-4.2,6.4-6.1,9.4c-2.1,3-5,8.5-6.2,12-1.4,3.5-4,9-5.9,12.2-2.4,4.2-3.5,8-3.5,13.4,0,11.2-2.6,26.4-5,29.8-1.1,1.6-2.1,3.5-2.1,4.2,0,2.2,3.8,1,6.7-2.1h-.2Z"/>
    <path class="st0" d="M1317.5,302.9c3.4,2.4,4.8.2,2.1-3-1.3-1.6-2.2-1.8-3.4-.5-1.1,1.1-.8,2.1,1.3,3.7v-.2Z"/>
    <path class="st0" d="M1274.2,888.4c.8,0,1.4-.6,1.4-1.4s-.6-1.4-1.4-1.4-1.4.6-1.4,1.4.6,1.4,1.4,1.4Z"/>
    <path class="st0" d="M1263.9,264.7c1.9.5,4.8,2.4,6.6,4.3,4.3,4.6,6.7,4.3,9.1-1.3,4-9.3-4.2-22.9-16-26.9-7.2-2.4-9.8-1.8-11.5,2.9-1.9,5.1-1.8,5.4,3.5,8.6,3.8,2.2,5,3.8,5,7.2s.8,4.5,3.4,5.1h0Z"/>
    <path class="st0" d="M1341.9,309.3c-2.4,0-8.5,8-7.4,9.8,1.6,2.6,3.5,1.6,6.4-3.2,3.2-5.3,3.5-6.7,1.1-6.6h-.2Z"/>
    <path class="st0" d="M1248.1,788.7c2.9,1.1,6.7,1,6.7-.3,0-2.2-3.8-4.5-6.2-3.5-2.7,1-3,2.9-.5,3.8h0Z"/>
    <path class="st0" d="M1145.2,656.8c2.7,1.8,5.6,1.8,5.6,0s-2.7-3.2-5.3-2.2c-2.1.8-2.1,1.1-.3,2.2Z"/>
    <path class="st0" d="M1221.1,740.4c0,11.8.2,23.5.6,25.8.5,2.4.8,7.5.8,11.7s.5,7.4,1.1,7.4c2.2,0,3.2-6.9,2.2-16.8-.8-8.2-.5-10.1,1.9-13.1,3.2-4,3.5-6.2,1.3-6.9-1-.3-.8-1.9.6-4.6,2.7-5.3,2.9-7.7,0-7.7s-2.1-.6-2.1-1.3,1-2.1,2.1-3c3.4-2.7,2.6-5.4-1.8-5.9l-3.8-.5,3.8-3.8c4.6-4.6,5-6.7.6-6.7s-3.4-.8-3.4-4.3-2.2-7.8-4.3-6.6c-2.2,1.4-3.5,10.7-1.8,12.8,1,1.3,1.4,9.4,1.4,23.5l.5.2Z"/>
    <path class="st0" d="M1219.5,288.4c-1.9-.6-4.2.3-7.2,3-6.7,6.2-8.3,10.4-8.5,22.4,0,9.4.3,10.7,2.4,10.2,3.2-.6,5.9-6.2,6.1-12.5,0-3.5,1.6-7.2,5-12,5.8-8,6.1-9.9,2.1-11.2h.2Z"/>
    <path class="st0" d="M1385.7,312.5c-3.2.8-3.4-1.8-.5-5.4,1.1-1.4,2.1-4.5,2.1-6.7,0-5.9-3.8-4.3-8,3-3.2,5.8-3.4,11.5-.3,11.5s1.4,2.7-1.8,7c-1.6,2.2-2.6,4.8-2.1,5.6,1.8,2.7,4.3,1.6,9.6-4.6,5.6-6.4,5.9-11.5.8-10.2l.2-.2Z"/>
    <path class="st0" d="M1397.5,261.6c-2.1-.3-3,.3-3,1.8s1.3,2.2,3.7,2.2c4.5,0,4-3.4-.6-4Z"/>
    <path class="st0" d="M1351,309.5c-2.4.5-5.3,7.7-3.8,9.8,1.4,2.2,3.5,1.3,4.8-2.4,2.1-5.4,1.8-7.8-1-7.4Z"/>
    <path class="st0" d="M1404.6,305.2c.5,1.6,0,3.2-.6,3.7-.8.5-.6,1.6.3,2.9,1.1,1.4,1.1,2.1,0,1.9-1.8,0-2.2,4.5-.6,6.1.5.5,1.6.3,2.4-.5s2.7-1.4,4.2-1.4c2.1,0,2.4-.6,1.6-2.4-.5-1.3-1.3-5.4-1.8-9.1-.3-3.8-1.4-6.9-2.7-7.4-2.4-1-3.8,2.4-2.9,6.2h.2Z"/>
    <path class="st0" d="M1393.7,279.9c0-2.7-4.2-5-7-3.8-2.4,1-2.4,1.1,0,3.8,2.7,3,7,3.2,7,0Z"/>
    <path class="st0" d="M1324.9,274.4c2.9,2.4,7.8,7.2,11,10.4,3.8,3.8,7.5,6.2,10.6,6.6,14.7,2.2,14.9,2.2,20.3-2.1,5.9-4.6,8.2-4.6,8.5.3,0,1.9.3,4.2.3,5.1s1.1,1.8,2.2,1.8,2.1-.8,2.1-1.8,1-3.5,2.1-5.8c2.6-5,1.4-10.7-2.2-10.7s-2.7-1-2.7-2.1,1-2.1,2.1-2.1c2.7,0,2.7-1.9-.2-7.5-2.9-5.8-14.1-19.7-17.1-21.4-1.3-.6-3-2.2-3.8-3.4-1.1-1.4-2.7-1.8-5.3-1.1-5,1.3-4.6,3.4.8,5.8,5,2.1,10.4,7.4,9.1,8.6-.5.5-3.2-.5-6.2-1.9-7.7-3.8-18.2-6.6-21.3-5.4-2.2,1-2.2,1.3.8,3.7,1.8,1.4,4.2,2.7,5.3,2.7s1.9.5,1.9,1.1-3.5,1.1-7.8,1.3c-7.8.2-12,2.1-12,5.4s6.4,3.8,11.5,2.7q4-.8,4,4.8c0,3-.6,6.1-1.3,6.4-.6.5-4.2-1.8-7.5-5-4-3.5-7.2-5.3-8.6-4.8-3.5,1.3-2.7,3.2,2.9,8.2l.6.2ZM1367,268.5c1.3,2.4,1.9,5,1.8,5.8-.6,1.9-9.4-8.6-9.4-11.4s5.3.6,7.8,5.4l-.2.2ZM1355.8,275.9c4.8-2.4,5-2.4,4.5,1.3-.5,3.5-4,4.8-6.4,2.2-1.3-1.3-.8-2.1,1.9-3.5h0ZM1348.4,264.5c1.1-1.1,5.1.6,5.1,2.2,0,2.4-4.3,3-5.1.8-.5-1.1-.5-2.6,0-3Z"/>
    <path class="st0" d="M1393.7,255.6c3.7,2.2,4.5,2.4,6.4.6,1.1-1.1,3.4-2.9,5-4,2.7-1.9,2.7-2.1.3-3.5-1.3-.8-2.4-3-2.4-4.8,0-3.4-3-5-9.4-5s-3.2.8-3.2,2.9,1.3,3,4.5,3.8l4.5,1-5,1.6c-6.1,2.1-6.2,4.2-.6,7.5v-.2Z"/>
    <path class="st0" d="M1247.3,507.4c-3-2.6-4.2-16.6-1.4-18.2,2.9-1.8.3-10.6-3.7-12.3-1.9-.8-3.5-2.7-3.5-4.3,0-2.9-3.2-6.4-4.6-5-2.2,2.2-.5,6.6,4.6,11.5l5.6,5.4-2.1,6.9c-3.4,10.7-2.9,15.5,1.8,18.1,6.4,3.5,8.5,2.1,3.4-2.2v.2Z"/>
    <path class="st0" d="M846.3,854.6c3.2-1.3,5.3-5.6,2.6-5.6s-7.4,4.3-7.4,5.8.3,1.6,4.8,0v-.2Z"/>
    <path class="st0" d="M850.8,865.3c1.3-.5,2.7-.8,3.4-.8,1.4,0,3.4-7,2.2-8.2s-7.8,5.4-7.8,7.8.8,1.8,2.2,1.1h0Z"/>
    <path class="st0" d="M1266.7,505.5c-.8-1-1.6-4.3-1.8-7.5-.3-6.9-2.6-9.8-5.8-7.2-2.4,1.9-3,5.6-1,5.8.6,0,2.1,1.9,3,4.3,1.4,3.5,1.4,5,0,8.2-4.6,9.9-4.5,15.5,1,21.8,3.7,4.3,4.5,1.3,1.1-4.8l-3.2-5.8,4-6.4c3-4.8,3.7-6.9,2.6-8.2v-.2Z"/>
    <path class="st0" d="M824.3,807.9c.6-.3,4.5-1.9,8.3-3.7,12.8-5.6,13.3-6.1,6.4-5.1-6.9.8-14.2,4.5-15.2,7.5-.3,1.1,0,1.6.6,1.3h-.2Z"/>
    <path class="st0" d="M1288.9,427.6c-.5-1.4,0-4.6,1.3-7,2.7-5.1,2.7-5.8.3-5.8s-5.4,10.4-4.2,13.6c1.1,3,3.5,2.2,2.6-.8Z"/>
    <path class="st0" d="M1223.1,429.5c-3.8-2.7-4.6-2.1-6.6,6.2-1.6,6.7-1.1,11.5,2.1,16.2,2.7,4,2.2,6.1-1.8,9.6-5,4.2-6.1,13-2.9,21.8,1.3,3.7,3.5,7.5,4.6,8.5,3.5,2.9,3.7,1,.5-5.3-4.3-8.3-3.8-15.2,1.3-22.2,4.2-5.8,4.3-5.9,2.2-11.8-2.4-6.9-1.6-16.5,1.6-19,1.8-1.4,1.6-1.9-1.1-3.8h0Z"/>
    <path class="st0" d="M1387.5,735.7c0,1.3,1.8,1,8.2-2.1,3.4-1.6,5.9-3.2,5.4-3.7-.8-.8-13.6,4.6-13.6,5.8Z"/>
    <path class="st0" d="M1299.3,480.4c0-.8-1.3-3-2.7-5-1.4-1.9-2.7-5-2.7-6.6s-1-4.2-2.2-5.3c-2.4-2.4-7.7-3-7.7-.8s1,1.4,2.1,1.4c3,0,4.2,2.7,2.1,5-1.4,1.6-.8,2.7,2.7,6.1,2.4,2.2,4.3,5,4.3,5.9s1.8,3.7,3.8,5.8c2.1,2.2,4.6,4,5.6,4,2.7,0,2.4-1-1.6-5.3-1.9-2.1-3.5-4.5-3.5-5.3h-.2Z"/>
    <path class="st0" d="M1286.7,532.7c2.9-2.1,3.4-6.6.6-7.5-2.1-.6-7.8,8.3-7.8,12.5s1.6,5,4.3,7.4c5.1,4.3,7.2,3.7,2.9-1.1-3.8-4.2-3.8-8.6,0-11.4v.2Z"/>
    <path class="st0" d="M1272.6,469.2c-.8-5.6-3.4-8.2-4.6-4.8s1.1,14.4,3.8,17.6c1.4,1.6,3.4,2.7,4.5,2.2,2.6-1,2.4-1.9-.5-6.1-1.3-1.9-2.7-5.9-3.2-9Z"/>
    <path class="st0" d="M1296.6,450.1c0-1.6-2.7-3.5-3.7-2.4-.5.5-.3,1.4.2,2.2,1.1,1.9,3.5,1.9,3.5.2h0Z"/>
    <path class="st0" d="M805.7,767.1c-1.9,0-6.2,5.3-6.2,7.7s3.2,5.1,7.2,9.6c7.5,8.6,10.4,9.9,11.8,5.4,1.1-3.5-1.1-7.8-5.6-10.7-2.1-1.3-3.8-4.2-4.3-7-.5-2.6-1.8-4.8-2.7-4.8l-.2-.2Z"/>
    <path class="st0" d="M1426.5,739.7c8.6,5.6,11.5,6.6,11.5,3.4,0-5.4-16.5-17.3-19.7-14.2-2.4,2.4-.3,5.1,8.2,10.7v.2Z"/>
  </g>
  <path class="st1" d="M1405.2,400.4c-1,.3-1.9,4.2-2.4,8.5-1,8.6-2.4,10.2-9,10.2s-5.4,1.1-6.9,2.7c-2.9,3,0,3.5-35.2-6.9-23-6.9-24.2-7.7-18.2-13.6,3.5-3.5,3.2-3.7-4.2-4.6-8-1-10.6-2.6-11.4-7-1-5-5-9.9-5.9-7.5-1.9,4.5-5.8-1.4-8.6-13.3-.8-3.4-2.6-9.3-3.7-13.1-2.1-6.9-2.1-7.2.8-11.2,1.6-2.2,4.2-5,5.4-5.9s2.7-3,3.2-4.6c.6-2.7,0-3-8-3.8-7.8-.8-9-1.3-10.7-5-3.8-7.4-10.1-7.8-10.2-.6,0,5.3-2.2,6.9-9.4,6.9s-7.5.8-9.3,2.6c-2.4,2.4-2.2,2.6,2.1,6.2,5.4,4.6,6.1,4-16,15.4-9.4,4.8-18.2,9.4-19.8,10.2-1.4.8-8,3.8-14.2,6.9-6.4,2.9-16.3,7.7-22.2,10.4-13.8,6.6-20.8,9-25.8,9s-4.5-.5-9.1-12.6c-1.6-4.2-4.2-5-4.3-1.3,0,1.3-1.4,5.1-3,8.5-2.9,5.9-3.2,6.1-9.1,6.1s-9,3.4-1.4,8.3c6.2,4.2,6.9,7.2,3.5,17-2.7,7.7-1,9.8,4.6,5.8,2.2-1.6,4.3-2.6,4.6-2.2.3.3-.8,7.2-2.6,15.2-8,36.8-9,38.6-13,24.8-3-10.4-5.6-9.8-7.8,2.1-1.1,5.3-2.2,9.9-2.6,10.2-.3.3-5.6,1-11.8,1.4l-11.2.6-.3,4.3c-.3,3.4.2,4.5,2.4,5,3.8,1,3.5,4-.3,3.2-1.8-.3-7-1-12-1.4-14.9-1.4-51.8-6.1-64.8-8.2-6.7-1.1-19.7-2.7-28.6-3.5-28.6-2.4-83.8-10.2-85.6-12-.6-.6,1.4-4.3,4.5-8.3,6.2-8.5,7-11.7,2.4-10.1-1.8.6-7.2,1.1-12.3,1.1-10.4,0-13.1-1.9-13.1-9s-1.3-5.3-2.9-7.4l-2.9-3.7-3.4,3.5c-1.8,1.9-3.7,5.9-4.2,8.6-1.4,9.3-2.2,9.9-12.8,9.9s-9.4.5-9.4,1.3c0,3.4,2.1,5.9,6.7,8.3,8,4.2,9.1,6.2,5.1,9.9-3,2.9-17.4,13.8-33.8,25.6-8.3,6.1-75.5,56.3-87.4,65.4-5,3.7-14.4,10.7-21.1,15.7-6.7,4.8-13.9,10.1-15.8,11.7-5.4,4.3-7.7,3.5-9.4-3-4-14.6-7.2-17.6-8.8-8.2-2.2,13.4-3,15-8.2,16s-7.8.5-11.5,0c-6.7-1-6.9-.8-6.9,2.6s1.9,5.1,7,9.6l7,6.1-3.8,12c-2.6,8.3-3.4,12.2-2.2,12.6.8.3,1.6,1.4,1.6,2.4,0,3.7,3.4,1.9,10.7-5.6,7.2-7.4,7.4-7.4,11-5.4,4.8,2.4,10.7,9.4,11.8,13.8.8,3.5,3.8,4.5,5,1.6.3-1,0-6.7-.8-13-1-7.5-1-11.7,0-12.6,1.9-1.9,35.5-6.9,94.6-13.8,30.6-3.7,39-4,38.6-1.4-.2,1-.5,5.9-.8,10.9-.3,7.2-1.3,10.7-4.5,16.6-2.2,4.2-8.3,15.5-13.4,25.3-5.1,9.8-11,20.5-13.1,24-2.1,3.4-4.6,8.2-5.4,10.6-1.8,4.8-4,5.8-4,1.6s-4.8-3.5-7.4.3c-1.1,1.6-2.1,5-2.1,7.4,0,5.4-1.6,6.6-10.4,6.6s-11.5,2.2-10.4,6.1c.5,1.8,2.6,2.9,7,3.7,7.2,1.3,7,1,5.1,16.5-1,8.5-1,8.6,1.9,7,1.6-.8,4.2-2.9,5.8-4.3l2.7-2.9,3,6.7c2.6,5.4,10.2,25.4,23.2,60.5,2.9,7.8,2.6,9.6-2.1,8.6-3.2-.6-4.3,0-6.2,2.7-2.9,4.3-1.9,5.9,5,8.6l5.4,2.2-1,10.1h0c-1.1,12.3.5,13.1,9,4.3l5.6-5.8,3.4,4.3c3.7,4.8,8.6,5.8,8.8,1.9v-9.6c-.3-6.2.2-7.5,3.7-10.9,2.1-2.1,5.1-4.5,6.6-5.3,4.6-2.6,1-4.6-8.2-4.6h-8.6l-2.2-7.5c-2.6-8.8-5.3-9.6-8.2-2.7-1.9,4.5-4.8,6.6-4.8,3.4s-1.9-5.9-4.2-11.2c-4-9.3-5-11.7-8-19-4-9.4-13.8-41-13-41.8s3.4,1.8,6.2,5c3,3.2,5.9,5.8,6.6,5.8s.8-5.4.5-12c-.6-11.7-.6-12,2.9-14.2,1.9-1.3,4.3-3.7,5.1-5.3,1.9-3.7,0-5.3-7.2-5.3s-5.1-.3-5.1-.8c0-2.1,15.5-33.6,28-57.3,4.3-8.3,10.7-20,13.9-26.2l5.9-11.2,3.7,1.9c2.1,1.1,5.1,3.5,6.7,5.4,1.8,1.9,3.7,3.5,4.5,3.5,1.8,0,1.8-3.5,0-7-.8-1.4-1.1-3.5-.8-4.5.8-2.2,3.4-1.6,47.2,9.4,40.5,10.2,37.9,9.6,56,15,8.6,2.6,19.7,5.8,24.5,6.9,9.1,2.1,21.1,5.4,36.8,10.2,5,1.4,14.7,4.3,21.8,6.2,14.9,4.2,29.6,8.5,37.6,10.9,3,1,10.1,3,15.7,4.6,5.6,1.6,19.2,5.8,30.1,9.1,10.9,3.4,20.5,6.4,21.4,6.7,2.6.8,2.1,2.6-1.9,6.6s-3.4,3.8-1.8,5.8c1,1.1,2.6,1.8,3.7,1.4,2.2-.8,16.8,6.2,19.4,9.3,1.9,2.4,2.7,23,1,28-1,2.9-.8,3.2,2.1,2.7,2.1-.3,4.3-2.4,6.2-5.9,1.6-3,4.8-7.5,6.9-10.1l3.8-4.5,12.3,7.7c17.4,10.7,19.8,10.2,13.6-2.6-5.8-11.8-4.5-13.4,7.5-9.6,9,2.7,61.8,22.2,87.4,32.2,5.6,2.2,17.1,6.2,25.6,9,15,4.8,35,13.3,36.2,15.2,1.4,2.2-2.2,17.8-5.4,23.4-1.9,3.2-3.2,6.2-2.9,6.6,1,1,11.8-9.8,11.8-12s5.1-8.5,7.2-7.7c1,.3,3.8,4.5,6.2,9,3,5.8,5.3,8.3,7,8.3q3.2,0,.6-6.4c-1.1-2.7-2.1-7.8-2.1-11.5,0-6.4.2-6.7,6.1-10.1,6.9-4,9-6.1,9.6-9.9.5-3-.3-3.4-13.4-5.1-5.9-.8-6.9-1.4-8.5-5.4-1-2.6-1.9-5.8-1.9-7.4,0-5.1-3.7-2.7-7.4,4.8l-3.7,7.5-9.1-1-9.1-1,2.6,2.9c3.4,3.8,1.3,3.7-9.1-.3-11.2-4.3-36.3-13.9-47.4-17.9-4.8-1.8-18.1-6.6-29.3-10.7-32.3-11.7-41.4-15.2-53.6-20l-11.4-4.5,9-9.1c5-5,8.5-9.4,7.8-9.9s-7-.2-14.1.5c-7,.6-13.3.8-13.9,0-.6-.6-.5-6.9.3-13.9.8-7,2.1-19,2.9-26.4.8-7.5,1.9-17.8,2.7-22.9s1.3-11.4,1.3-13.9c0-5.9,1.6-6.9,6.9-4.3,2.2,1.1,4.5,1.4,4.8.8s-.3-5.3-1.6-10.4l-2.2-9.1,5.8-5.1,5.8-5.1-4.6-.8c-2.6-.5-6.4-1-8.6-1.1-3.2-.3-4.2-1.1-4.5-3.8-1.1-10.1-1.9-12.3-4.3-12.3s-4.2,2.6-4.2,6.9-.3,2.6-.8,2.6c-2.9,0-61.3-56.6-63.4-61.4-2.4-5.9-.6-10.2,6.1-15.4,3.4-2.4,6.1-5.1,6.1-6.1,0-2.9-4.5-4.3-11.4-3.5l-6.7.8,1.1-4.6c.6-2.6,1.4-7,2.1-10.1,2.1-11.4,8.5-36.8,9.8-39,1.6-3,2.6-3,6.6-.3,4.2,2.9,5.3,1.3,2.6-3.5-1.3-2.1-2.4-4.8-2.4-5.9,0-2.6,16.5-18.7,19-18.7s41.4-19.7,69.3-33.8c7.7-3.8,14.6-7,15.5-7s1.3,2.2.6,7.5c-.8,6.4-.6,7.7,1.4,8.5,2.4,1,3.8-.3,9.9-8.8,2.6-3.5,2.7-3.5,6.2-1.3,5,3.2,10.6,15,18.1,37.8.5,1.6-1.3,2.6-8,4-4.8,1-7.8,2.1-6.9,2.4s1.8,1.8,1.8,3,2.1,4.2,4.8,6.4c4.5,3.7,4.6,4.2,3.4,9.3-2.2,9.3-1.9,11.4,1.9,10.6,1.8-.3,5-2.4,7-4.6s4.5-4,5.3-4,3,2.4,4.8,5.4c3.2,5.3,6.7,7.2,6.7,3.8s-1.1-4.6-2.2-8.2c-1.3-3.5-1.9-6.9-1.3-7.4.8-1,21.1,3.4,31.5,6.6,2.2.6,10.6,3.2,18.4,5.4s16.3,4.8,18.7,5.4c5.8,1.8,6.1,2.6,6.1,13s.5,8.8,1.1,8.8c1.4,0,5.3-3.7,8.5-8.2,2.9-4.2,8-3,13.4,3,5.9,6.6,7.7,3.4,3.2-6.2l-3.5-7.7,2.6-5.8c1.4-3.2,4.3-7.4,6.2-9.1,5.4-5,4.6-6.9-2.6-6.9s-6.1-.6-6.1-1.8c0-2.2,13.8-34.2,21.4-49.6,6.1-12.3,12.8-21,16.3-21s3.8,2.1,6.4,4.8c5.8,5.9,7,6.1,5.8.3-3.2-15.2-2.1-19.4,6.1-23.5,5.9-3,5-4.8-2.7-4.8s-7-.3-8.2-3.7c-4.3-12.3-9.4-14.6-11.2-4.8-1.4,8.2-1.8,8.5-9.3,8.5s-7,.6-8.2,2.6c-1.1,2.1-.6,3.4,3.4,6.7,6.7,5.9,6.4,11.2-1.4,27.2-3.5,6.9-6.7,14.2-7.4,16.3-1.9,5.9-11.7,27.7-15,33.4l-3,5.1-3.4-5c-1.8-2.7-4-4.6-5-4.3l-.6-.3ZM832.6,823.9c1.8-4.6,7.2-14.7,7.8-14.7,2.1,0,7,4.6,6.4,6.1-.3,1,0,3,.8,4.6,1.9,3.7,0,3.7-3.4,0-3.8-4.3-7.2-3.5-7.8,1.8-.3,2.9-1.3,4.6-2.9,5-1.9.3-2.2,0-1.1-2.7h.2ZM829.2,810.6c1.1,0,2.1.6,2.1,1.3s-.6,1.4-1.3,1.4-1.6-.6-2.1-1.4,0-1.3,1.3-1.3ZM811.1,708.5c-1,1-1.6,2.7-1.6,4.2s-1.1,2.4-5.9,2.4-6.2-.6-7.7-3.4c-1-1.9-1.6-3.7-1.3-3.8,2.1-1.6,10.9-3.2,11.5-2.2.5.6,2.1,1.3,3.7,1.3s2.6.3,1.3,1.6h0ZM1398.2,755.4c1.9-2.6,2.1-2.6,4.8.5,2.2,2.4,3.8,2.9,6.9,2.4,5-1,5.1,1.4,0,3.4-2.1.8-5.4,2.4-7.5,3.5-3.5,1.9-3.7,1.8-3.7-1.3s-.6-3.8-1.3-4.5c-.8-.8-.5-2.2.6-4h.2ZM1219.5,570l1.6-4,2.2,4.3c1.1,2.4,1.8,5.3,1.4,6.4-1.1,2.7-5.4,2.4-6.2-.5-.3-1.3,0-4.2,1-6.4v.2ZM877.2,454.4c3.7,0,5.9-2.6,6.1-6.7,0-4.2,3.4-8.8,5.3-7.7.8.5,1.4,2.9,1.4,5.3s1,5.6,2.1,7c1.6,2.2,2.6,2.4,5.1,1.1,3.2-1.6,13.3-3,13.3-1.8s-1.6,2.2-3.5,4.3c-2.9,3-3.5,5-3.5,12s-.2,8.3-2.6,7c-1.4-.8-3.2-2.6-4-4.2-2.2-4.2-5.6-3.4-12,2.7-3.2,3-6.4,5.4-7.2,5.4-1.6,0-.6-7.7,1.6-14.1,1.3-3.2,1-4.3-1.8-7.2-3-3.2-3-3.4-.5-3.4h.2ZM711.6,603.4c-4.8,4.6-6.7,7.5-5.9,8.5.6.8,1.6,3.5,2.1,5.9,1,5.3-1.3,5.9-5.3,1.8-3.4-3.7-3.8-3.5-11.2,2.1-10.6,8-12.5,6.1-5.9-5.9,3.5-6.4,4.2-11.2,1.6-11.2s-8.5-6.7-7.7-8.2c1.1-1.8,10.2-1.9,10.2,0s1,1.3,1.9,1.3c2.4,0,4.8-4.2,4.8-8.2s3.4-2.2,5.9,5.3c2.7,7.5,4.2,8.6,5.3,4.3.5-2.1,1.9-2.7,5.9-2.7h5.3l-7.2,7h.2ZM868.9,588.7c-1.3,1.9-1.9,4.2-1.3,5.1.6,1.1-.3,1.3-3.5.6-3.7-.8-5-.5-7,2.2l-2.6,3.2.8-3.7c.6-3,0-4.3-3.2-6.7-4.5-3.4-4.3-5.3.6-5.3s3.4-.6,3.4-1.4.6-1.3,1.6-1.3,2.4-1.1,3.4-2.4q1.8-2.2,1.9,0c0,1.3,1.8,3.2,3.8,4,2.1,1,4,1.8,4.2,1.9.3,0-.6,1.9-1.8,3.7h-.3ZM1222.3,684.4c4-1.3,8-1.9,8.6-1.4,2.1,1.3-1.3,5.6-7.4,9.8-5.4,3.7-5.6,2.9,1.8,18.6,2.4,5,4.2,9.4,4.2,9.9,0,2.2-4.2,0-10.9-6.1-4.2-3.7-8.5-6.7-9.6-6.7s-4.3,2.4-7,5.4c-2.7,3-5.6,5.4-6.2,5.4s-1-3.4-.5-7.8l.6-8-7.7-4.6c-4.2-2.6-7.7-5.4-7.7-6.2s5-3.4,10.9-5.4c10.7-3.8,10.9-4,10.4-8.2-.8-6.7,1-8.2,4.3-3.7,1.4,2.1,3,5.4,3.2,7.4.6,4.3,3.8,5,13,2.1v-.3ZM1157.2,516c2.1-1.1,6.6,2.9,28.3,24.5,22.2,22.2,25.3,25.9,22.2,25.9s-5.3,2.1-5.3,5.6,2.1,2.1,4.8,3.2c5.4,2.2,6.4,6.6,2.6,13-2.9,5-1.6,8.8,2.9,7.8,3.4-.6,3.4-.5,3.4,7s-.6,10.1-1.3,13.1-1.9,12.5-2.7,21.1c-2.7,27.8-3.7,30.7-6.7,20.5-2.2-7.4-5.3-7.2-10.1.3-1.4,2.4-2.4,6.4-2.4,11.2s-.3,8.3-.8,9.6c-1,2.4-2.9,2.7-5.9,1-1.1-.6-7.8-2.7-15-4.6-7.2-1.9-21.6-6.1-32-9.3-29.3-8.6-41.1-12-54.6-15.7-19.8-5.4-25.4-7-34.7-9.9-4.8-1.6-16.3-4.6-25.3-7-9.1-2.2-19.8-5.4-24-6.9-7.5-2.6-20-6.1-59-16.6-11.2-3-28.8-7.8-38.9-10.7-28.5-8.2-29.8-9-21.9-13.4,7.4-4.2,4.6-8.5-5.1-8.2-5.9.2-7.7-1.6-9.8-9.8-1.3-5.1-2.4-6.9-4.3-6.9s-3.2,1.3-4.6,9.8c-1.1,6.4-2.7,7.5-10.9,8.5-3.7.5-7,1.1-7.4,1.4-.5.3.6,3,2.2,5.9l3,5.3-4.5.8c-2.4.5-13.9,1.4-25.6,2.2s-22.1,1.8-23.2,2.1c-4.5,1.3-41.1,6.1-55.8,7.5-15.7,1.4-19.4,1-14.4-1.8,3.8-2.1,11.5-10.1,11.5-11.8s-2.4-1.4-5.6-1.4-5.4-.6-5.1-1.4c.6-1.8,15.4-13.3,29.8-23.2,12.2-8.5,35-25.4,38.9-29,1.4-1.4,8.3-6.2,15-10.9,13.4-9,24.3-17.3,40.2-30.2,12-9.8,22.4-17.1,24.5-17.1s1.4,2.1,1.4,4.8c0,4.3.3,4.8,4,4.8s5.6-1.6,9.6-5.4c3-3,6.4-5.4,7.4-5.4s4.5,2.4,7.7,5.4c3.4,3,7.4,5.4,9.3,5.4,3.7,0,3.8-.3,1.1-9-2.1-7-1.1-9.4,3.4-8.2,2.7.8,22.2,3,49.9,5.4,25.4,2.2,38.6,3.8,87.8,9.9,32.3,4.2,60.3,8,66.4,9.4,2.9.6,2.9,1.1,2.2,12.8-.6,9.6-.5,12.2,1.1,12.2,2.6,0,8-5.4,7.4-7.4-.3-1,1.3-3.4,3.5-5.4,3.8-3.7,4.3-3.8,8.5-2.1,2.4,1,6.7,4.2,9.6,7,4.2,4.2,5.8,5,7.7,3.8l-.3.3ZM1153.2,481.8c0,.8-2.4,2.9-5.3,4.8-6.1,3.8-7.8,6.1-5.9,7.4.8.5,1.6,2.6,2.1,4.6l.6,3.8-3.2-2.9c-2.7-2.6-3.4-2.7-5.9-1-1.6,1.1-4.2,3.5-5.6,5.6-4.3,5.4-5.6,4.6-4.6-3,.8-5.6.5-7.4-2.1-10.9-1.6-2.2-3.8-4.2-4.8-4.2-1.9,0-5.6-3.7-4.6-4.6.3-.3,2.9-1,5.6-1.4,4.2-.8,5.1-.5,5.1,1.3s.6,2.2,1.4,2.2c1.8,0,4-5.9,4-10.4s2.2-3,4.6,2.7c1,2.4,2.7,5.4,3.7,6.9,1.8,2.2,2.2,2.2,5.9.3,4.6-2.4,8.8-2.7,8.8-.8l.2-.5ZM1157.2,407.1c-4.2,3.5-8,6.4-8.5,6.4-1.4,0-1-1.9,1.1-4.6,1.4-1.9,1.6-3.5.6-6.1-1-2.6-.8-3.8.5-4.6,1-.6,1.8-2.6,1.8-4.2,0-4.8,2.7-4.5,3.4.6.5,3.7,1.4,4.6,4.6,5.1l4,.6-7.5,6.6v.2ZM1289.7,346.8c0,.8-1.1,1.3-2.7,1.3s-3,.6-3.5,1.3c-.5.8-2.1,2.1-3.7,2.9-2.6,1.4-2.7,1.1-1.9-2.7,1-4.6-1.1-9.8-4.2-9.8s-2.1-.5-2.1-1,4.6-1,10.4-.6c7.7.3,10.9,0,12.3-1.6,1.1-1.1,3-2.1,4.3-2.1s.3,1.9-3.5,5.4c-3.2,3-5.8,6.1-5.8,6.9h.3ZM1305.4,420.4c-1.6,1.3-2.1,1.3-2.1-.5,0-2.6,2.2-4.2,3.4-2.4.5.6,0,1.9-1.3,2.9h0ZM1311.8,413.2c-4,2.1-4.3,2.1-4.3-.3s-1.3-2.7-2.7-3.4c-5.9-3.2-1.4-8,4.8-5.3,2.6,1.1,3.8,1.1,5.1,0,1.8-1.8,9.3-2.2,9.3-.5s-7.2,6.9-12.2,9.4h0ZM1451.9,325.5c2.1,1.9,3.2,2.1,5.4.8,1.6-.8,4.2-1.1,5.8-.6l2.7,1-2.7,2.9c-1.6,1.6-4.6,4-6.9,5.4l-4.2,2.4v-4.2c0-2.2-.6-4.5-1.3-5-.8-.5-1.4-1.8-1.4-3,0-1.9.3-1.9,2.6.2v.2ZM1415.6,420.8c4.5-.3,4.8,1,1,4.3-2.2,2.1-2.6,3.5-1.9,7.8.8,5,.6,5.3-1.8,4.6-1.4-.5-3.8,0-5.3,1.1-4,3-4.6,2.6-4.6-2.7s-1-5.8-4.2-8.3c-4.8-4-4.3-5.9,1.4-5.9s4.5-1,5.6-3.4c1.9-4.2,2.9-4.3,4.6-.3,1,2.2,2.4,3,5.1,2.9v-.2Z"/>
</svg>