<?xml version="1.0" encoding="UTF-8"?>
<svg id="Layer_1" xmlns="http://www.w3.org/2000/svg" version="1.1" viewBox="0 0 1920 1080">
  <!-- Generator: Adobe Illustrator 30.3.0, SVG Export Plug-In . SVG Version: 2.1.3 Build 182)  -->
  <defs>
    <style>
      .st0 {
        fill: #564a3c;
      }

      .st1 {
        fill: #dbb57f;
      }
    </style>
  </defs>
  <g>
    <path class="st1" d="M814.2,519.6c-1,1.2-4.2,4.9-7.3,8.1-3,3.2-5.5,6.3-5.5,6.8,0,2.3,2.7.4,8.1-5.5,3.2-3.5,7.4-8.1,9.4-10.2,2-2.1,3.8-4.5,4.1-5.3.3-.8,1.8-2.2,3.3-3.2,1.6-1,2.4-1.8,1.7-2-1.2-.4-10.8,7.4-13.8,11.2Z"/>
    <path class="st1" d="M1015.3,566c-2.2,0-2.2,1.2.3,3.8,1.7,1.8,4.2,3,4.2,2,0-1.8-3.1-5.9-4.5-5.9Z"/>
    <path class="st1" d="M1014.3,563.6c.3.3,1.5.6,2.7.6,2.9,0,2.1-2.1-.9-2.5-2.2-.3-3.1.6-1.8,1.9Z"/>
    <path class="st1" d="M959.1,485.7c.4,0,1.1-.4,1.6-.9.6-.6,1.4-.3,2.5.9,2.1,2.3,4,2.3,4,0,0-2.3-6.4-9.3-7.8-8.4-1.1.7-1.4,8.5-.3,8.5Z"/>
    <path class="st1" d="M944.5,554.8c9.7,0,10.3-.9,1.4-2.2-5.3-.8-9.7-.2-10.3,1.3-.2.5,3.4.9,8.9.9Z"/>
    <path class="st1" d="M1019,577.9c-1-.6-3.6.3-3.6,1.4,0,.4,1,.8,2.2.8,2.2,0,3-1.2,1.4-2.2Z"/>
    <path class="st1" d="M1018.1,554.6c0-1-4.2-2.3-5-1.5-.3.3-.2.9,0,1.4.7,1.2,4.9,1.2,4.9,0Z"/>
    <path class="st1" d="M808.3,628.1c.5-2.8.5-10.8,0-10.8-1.5,0-3.3,6.6-2.5,9,.7,2.2,2.3,3.3,2.5,1.8Z"/>
    <path class="st1" d="M811.5,622.9c.7,2.4,2.4,1.3,2.4-1.6,0-2-.4-2.6-2.1-2.9-1.8-.2-2,0-1.5,1.3.4.9.9,2.3,1.1,3.2Z"/>
    <path class="st1" d="M801.7,635.4c1.4-1,1.9-2.3,2-6,.2-4-.2-5-2-6.7-3.3-3.1-4.1-1.8-3.8,6.6.2,7.7.6,8.4,3.8,6.2Z"/>
    <path class="st1" d="M1051.8,567.3c1.6.7,3.8.7,4.5,0,1-1-1.3-2.9-3.5-2.9-2.2,0-2.9,2.1-1,2.9Z"/>
    <path class="st1" d="M1052.8,574.5c-1.7,1.3-1.7,1.3,0,2.7,2.6,2,4.3,1.7,3.5-.7-.9-3-1.7-3.4-3.5-2Z"/>
    <path class="st1" d="M1054.8,602.9c-.6.6-.4,1.4.6,2.4,1.6,1.6,4.9,1.6,5.4,0,.5-1.4-4.9-3.5-6-2.4Z"/>
    <path class="st1" d="M1054.2,592c-2.6.8-2.1,3.3.8,4.1,3.1.9,3.4.9,3.9,0,.3-.4-.2-1.7-1.1-2.8-1.2-1.5-2.1-1.8-3.6-1.4Z"/>
    <path class="st1" d="M1053.7,583.7c-1.9,1.6-1.7,2.4,1,3.9,3.3,1.8,4,1.7,3.3-.6-1-3.3-2.7-4.7-4.3-3.4Z"/>
    <path class="st1" d="M1035.5,582.8c-1.9,0-2.3,2.2-.6,2.9,1.4.6,3.3.7,3.3.2,0-1.6-1.4-3.2-2.7-3.2Z"/>
    <path class="st1" d="M1033.9,571.8c0,1,.6,1.3,2,1.2,1.1-.2,2-.7,2-1.2,0-.5-.9-1-2-1.2-1.4-.2-2,.2-2,1.2Z"/>
    <path class="st1" d="M1037.4,566.9c0-1.3-.6-1.8-2.2-1.8-2.4,0-2.8.8-1.2,2.5,1.6,1.6,3.3,1.3,3.3-.7Z"/>
    <path class="st1" d="M1034.3,578c3.1,2.3,5.6,1.1,2.7-1.4-.7-.6-2-.8-2.9-.5-1.5.6-1.4.7.2,1.9Z"/>
    <path class="st1" d="M1035.7,590.2c-1.4.9-1.2,2.1.6,2.5,2.4.6,3.2-.3,1.7-1.7-.7-.7-1.7-1.1-2.3-.7Z"/>
    <path class="st1" d="M792.6,628c-1.1.2-1.6,1.3-1.8,4-.2,3.3,0,3.7,1.5,3.7,1.6,0,1.8-.6,1.8-4,0-3.4-.2-4-1.5-3.7Z"/>
    <path class="st1" d="M688.1,729c0-1.4,4.1-5.1,4.9-4.3.2.2-.7,3.2-1.9,6.8-1.2,3.6-2.4,8.1-2.7,9.9-.6,3.4-.6,3.4,3.2,3.8.9,0,1.2.9,1,2.7-.9,7.3-.8,7.9,2.1,8.2,2.3.2,2.9-.2,4.2-2.9.8-1.7,1.9-3,2.3-2.7.4.3.8,3,.8,6.2,0,5.7,1.1,9.3,3,9.3.5,0,2.9,1.2,5.2,2.8,5.1,3.3,5.6,5.4,1.4,5-2.4-.2-2.9,0-3.1,1.6-.3,2.1,3.3,3.8,8.1,3.9,1.5,0,3.8.6,5.1,1.3,1.7.9,5.1,1.2,11.5,1.1,5.8,0,9.7.3,10.8.9,1.8,1.1,6.6.8,11.7-.7,2.2-.7,3.3-.5,4.8.5,2.8,2,5.4,1.7,7.7-.8,2.4-2.6,3.3-2.7,5.4-.8,1.7,1.6,3.4,1,3.4-1.2,0-2.7,1.8-7.9,3.4-9.9l1.6-1.9,2.7,2.3c3.4,2.9,4.1,2.9,5.4,0,2.1-4.5-1.5-13.6-5.4-13.6-1.9,0-7.5-6.1-8.5-9.3-.8-2.6-1.6-3.1-6-4.4-3.4-1-6.5-1.3-9.9-1-18.6,2-23.1,1.3-31.1-4.5-4.8-3.5-5-4.8-2.8-15.5,1.2-5.7,2.5-9.6,8.4-24.7,2.2-5.5,8.1-15.3,11.7-19.3,4.9-5.5,19.3-10,35.4-11.2,4.9-.4,10.6-1.3,12.7-2,3.3-1.2,3.7-1.2,3.3,0-.8,2.1,3.8.7,14.8-4.7,5.4-2.7,12.2-5.6,15.2-6.6,6.7-2.1,30.6-14.8,36.7-19.3,2.5-1.9,4.6-3.3,4.8-3.1,4.1,4.9,2.2,22.8-3.5,34-2.3,4.5-5.2,7.5-10.9,11.2-4.9,3.1-7.5,8-6.7,12.5.9,5.7,1.3,6.2,4.9,7.8,7.1,3.2,10.4,13.8,7,22.8-2.6,7-1,8.8,5.6,6.2,1.6-.7,1.6-.3,1.1,8.7-.7,11.2-.5,12.2,2.9,11.5,2.3-.5,2.5-.3,3.1,3.3,1.1,6.9,2.7,8,6.7,4.5,1.3-1.1,1.8-1,4.1.7,1.4,1.1,3.5,3.6,4.6,5.6,2.4,4.3,3.4,5.1,5.4,4.5,1.1-.3,2.1.4,3.3,2.5,2.1,3.5,2.2,5.4.4,6.9-1.2,1-1.2,1.3.2,2.8,1.9,2.1,5.8,1.8,11.9-.9,2.2-1,5.4-1.9,7-2.1,2.8-.2,2.9,0,3,2.6,0,1.6.3,3.1.6,3.4.3.3,2.6,0,5.1-.9,3-1,5.8-1.3,8.2-.9,8.1,1.2,10,1.3,15.1.8,4.7-.5,5.7-.9,8.6-4,2.8-3,3.7-3.4,5.9-2.9,2.3.5,2.6.3,3.2-1.8.6-2.4-1.7-8.3-3.3-8.3-.4,0-.7-.6-.7-1.3,0-1.7,1-1.7,5,0,4.6,1.9,5.4.7,3.3-5.4-1.6-4.9-1.8-5.1-5.9-6.1-2.3-.6-5-1.7-5.8-2.5-.9-.8-3.7-1.7-6.3-2-3.1-.4-5.8-1.4-7.7-2.8-2.8-2.1-3.1-2.2-7.5-1.1-2.5.6-7.3,2.3-10.7,3.6-6.4,2.6-10.3,3.1-13.9,1.7-1.7-.6-2.5-2.3-4.3-8.6-2.7-9.3-4.5-22.5-4.5-33.4,0-7.8,0-8,3.3-12.3,5.1-6.7,11.4-11.4,23.1-17.1,8-3.9,12-6.5,16.3-10.6,3.2-3,8.1-7.4,11-9.8,8.2-6.8,16-15.3,21.4-23.3,2.7-4,5.3-7.5,5.7-7.8.5-.3,2.1.8,3.7,2.4,3.5,3.6,8.5,6,12,6,2.6,0,3.4,1.4,1.8,3.1-.4.5-1,1.9-1.3,3.1-.8,3.3,1.5,4.9,8,5.6,4.6.5,5.5.4,5.5-.8,0-1,1-1.4,4.4-1.4,5.3,0,6.2,1.1,3,3.9-2.2,1.9-2.3,2.3-1.4,4.4.8,1.7,1.6,2.3,3.5,2.2,4.4-.1,15.7.4,16.3.8.4.2.2,1.1-.4,2.1-.9,1.4-.8,2,.5,3.3,1.3,1.3,3.2,1.6,12.5,1.6,6,0,11,.1,11,.3,0,.2-.8,1.4-1.9,2.8-3.8,5.1-.4,7.7,6.4,5,4.1-1.6,5.6-1.1,4.2,1.4-1.5,2.9.1,3.6,4.6,2.1,4.5-1.5,10.5-1.8,10.5-.4,0,.5-1,1.9-2.2,3.1-1.2,1.2-2.2,2.5-2.2,3,0,1.6,3.6,2,5.2.6,1.2-1.1,8.1-4,9.4-4,.1,0,0,.7-.2,1.7-.6,2.4,1.2,3.1,6.9,3,5-.1,5-.1,5.6,2.7.8,4.3-2.9,13.6-8.7,21.9-1.5,2.1.6,4.4,3.5,3.9,1.2-.2,2.5-.2,2.9,0,.4.2-.3,3-1.5,6.2-1.2,3.2-2.4,8.7-2.8,12.3-.6,6.4-.5,6.5,1.4,6.5,1.8,0,2,.3,1.4,3.6-.3,2-.6,3.9-.7,4.2,0,.3,0,2.3,0,4.3,0,3.5.2,3.7,2.6,3.7,1.9,0,3.2-.8,5-3.2l2.5-3.2,1.3,2.7c1.5,3.2,11.5,8.9,12.5,7.2,1-1.6,3.2-.3,5.3,3,1.5,2.4,1.7,3.9,1.4,8.5-.4,5-.2,5.7,1.3,6.1,1.3.3,1.6,1.1,1.4,3.2-.4,3.7,2.9,5,8.3,3.4,2.1-.6,5.3-1.3,7.1-1.6,3.8-.5,3.7-.7,1.8,7-.5,2-.3,2.4,1.2,2.4,1,0,3.4-.5,5.4-1.2,3.9-1.4,5.6-1.1,12.9,2.2,3.8,1.7,5.2,1.9,11.3,1.4,7.3-.6,11.6-2.2,16.3-6.2,3.4-2.8,5-2.8,6.2,0,.5,1.2,1.7,2.2,2.6,2.2,1.3,0,1.8-.9,2.2-4.2.6-4.1.5-4.3-2.9-7.1-3.8-3.2-4.9-7-1.8-6,1,.3,2.5.8,3.5,1.1,1.5.5,1.8.1,1.8-2.6,0-3.4-1.8-5.1-11.5-10.8-2.5-1.5-6-3.6-7.7-4.9-4.4-3-11.8-2.9-18,.3-5.1,2.6-6.8,2.7-10.6.8-3-1.6-3.2-1.7-7.9-5.7-4.4-3.7-5.1-7.5-5.5-26.9-.1-8.7-.7-18-1.2-20.6-1.4-7.1-1.1-10.7,1.3-15.5,1.2-2.4,2.2-4.9,2.2-5.5,0-1.3,3.9-2.4,5.9-1.6,1,.4,1.3,1.2.9,3.1-.4,2,0,2.8,1.5,3.9,2.3,1.5,3.9.9,8.3-3.2,1.6-1.5,2.9-2.3,3-1.9,0,.5.2,1.6.2,2.5.1,2.7,2.8,3.8,4.7,2.1.9-.8,3.1-2.1,4.9-2.8,2.8-1.1,3.3-1.2,3.3-.1,0,1.9,4.1,2.5,6.8,1.1,1.3-.7,3.8-1.5,5.5-1.9,1.7-.4,4.4-1.4,6-2.4,2.3-1.4,3.1-1.5,4.2-.7,1,.9,2,.7,4.6-.6,4.4-2.2,8.5-1.4,11.9,2.5,1.4,1.6,2.5,3.2,2.5,3.6,0,.4,1,1.2,2.2,1.6,1.4.6,2.1,1.4,2,2.4-.2,1.1.2,1.5,1.7,1.3,1.8-.3,1.9,0,1.4,2.6-.3,1.6-.9,3.6-1.3,4.4-1.2,2.3-.9,4.3,1.1,9.3,1.9,4.6,4,6.2,10.6,8.5.8.3,1.5,1.1,1.5,1.8,0,.7,1,3.1,2.2,5.3,2.5,4.5,7.7,7.7,12.6,7.7,2.3,0,2.8.4,2.8,2,0,1.1.7,2.5,1.7,3,1.4.9,2,.7,3.4-.9,2.5-2.7,3.8-5.4,3.8-7.9,0-1.3.6-2.3,1.5-2.6.8-.2,2.3-.7,3.1-1.1,1.4-.6,1.5-.2,1.3,3.2-.2,3.5,0,3.9,2,4.1,1.8.2,2.9-.6,5.6-4.2,1.9-2.4,4-6.4,4.7-8.7,1-3.4,1.8-4.5,3.9-5.4,1.5-.6,3-1.9,3.6-2.8,1.3-2.4.2-6.4-2.3-7.8-1.3-.7-2.8-3-4-6.3-1.1-2.9-3.1-6.3-4.4-7.6-1.4-1.3-2.5-2.8-2.6-3.3,0-1.2-10.2-7.5-12-7.5-.8,0-4.6-3.2-8.6-7-5.9-5.8-8.7-7.7-15.9-11.2-5.7-2.7-11.9-6.7-18-11.5-9.2-7.3-12.1-9.2-22.5-14.3-8.9-4.5-8.9-4.4-6.6-9.7,1.2-2.8,2.7-4.8,3.9-5.1,7.4-2.3,11.9-11.2,13.4-26.7.3-3.1,1.6-8.3,2.9-11.4,1.4-3.3,2.4-7.5,2.4-10,0-3.2.5-4.6,1.9-5.7,3.1-2.5,4.2-5.7,3.3-9.1-.7-2.6-.8-5.1-.3-8,0-.3,2-1.2,4.3-1.8l4.2-1.2.6-6.5c.3-3.6,1.3-8.1,2.1-10,1.5-3.6,5.3-7.4,7.3-7.4.7,0,1.1-1.3,1.1-3.4,0-1.9.6-4.8,1.3-6.4,1.1-2.5,3.3-24,3.1-29.4,0-1,.8-6.4,1.9-12.1,1.1-5.7,2-12,2-14.1,0-2.4.8-4.9,2.1-6.8,1.8-2.8,2.7-3.2,12.1-5.5,5.6-1.4,10.9-2.5,12-2.5,2.6,0,4.7-.9,4.7-1.9,0-1-6.3-.6-18.3,1-4.5.6-8.4.9-8.7.6-1-1,3.2-3.8,8-5.5,2.5-.9,6.4-2.7,8.9-4,4.9-2.7,16.7-5.1,26-5.2h5.7c0-.1-4.8-.9-4.8-.9-9.5-1.5-16.9,0-37,7.4-4.6,1.7-8.8,3.1-9.3,3.1-.5,0-1-1.1-1.1-2.5-.2-2.1.3-2.7,3.1-3.9,1.8-.8,5.3-2.5,7.7-3.9,4.8-2.6,10.8-5.3,17.4-7.7,2.3-.8,4.2-1.7,4.2-2,0-1.4-11.7.8-17.1,3.2-3.3,1.5-6.4,2.7-6.7,2.7-1.3,0,.2-3.9,2.6-6.8,5.1-6.2,6.4-9.1,5.8-13-.4-2.8-.1-4.4,1.3-6.9,2.2-3.9,2.3-6.8.5-10.4-1-1.9-1.1-3-.4-3.8.5-.6,1.2-3.5,1.5-6.4.5-5,.4-5.6-2.2-9.4-1.5-2.3-3.1-4.1-3.4-4.1-.3,0-.7-1.8-.8-4-.3-5.2-3.2-11.4-6.5-13.8-1.4-1-3.9-3.9-5.5-6.4-4.2-6.5-6.7-9.2-9.4-9.8-1.3-.3-3.3-1.9-4.4-3.5-2.9-4.3-7-6-12.8-5.3-4.6.6-4.8.5-7.6-2.5-1.6-1.8-4.4-3.6-6.5-4.2-3.3-1-4-.9-6.6.6l-3,1.7-2.8-2.2c-2.2-1.7-3.8-2.2-7.6-2.1-2.7,0-5.1-.3-5.4-.8-.3-.5-2.1-1.7-4-2.7-3.8-2-8.3-1.7-12.1.6-1.4.9-2.9,1.1-4.8.6-1.5-.4-3.2-.6-3.7-.4-.5.2-4.1.6-8.1,1-5.8.5-8.7,1.4-14.8,4.3-4.1,2-7.5,4-7.5,4.4,0,.5-2.1,1.9-4.6,3.2-7.2,3.6-9.6,5.6-9.3,7.5.2,1.4-.9,2.2-6.4,4.4-3.6,1.4-6.9,3-7.2,3.6-.8,1.3,0,3.3,1.4,3.3.6,0,1.8.6,2.7,1.2,2.1,1.6,1.4,2.5-7.1,8.9-5.2,3.9-6.3,5.2-6,6.6.3,1.1,1.4,2,3,2.3,3.5.7,3.2,1.7-1.2,3.9-4.4,2.2-14.8,12.8-14.8,15,0,1.7,3.9,3.7,5.9,2.9,4.6-1.7-6.5,11.9-13.6,16.8-2.6,1.8-2.5,3,.6,6,2.6,2.5,3.5,4.9,1.8,4.9-.4,0-3,2.1-5.8,4.7-5.9,5.6-8.8,12.2-7.9,18.4.4,3.1.2,4.1-1.4,5.5-2,1.8-2.5,4.5-1,5.4,2.4,1.5-1.7,8.7-6.9,12.1-3.6,2.4-10.9,5-13.8,5-2.9,0-4.2,1.7-2.7,3.4,1.9,2.2.7,6-2.2,7-6.8,2.3-33.6,4.6-50,4.2-7.6-.2-22.2,0-32.3.3l-18.5.7-13.2-4.5c-12-4.1-30.3-8-32.2-6.8-.4.2-6.2.6-12.9.8-13.4.4-26,3-42.6,8.8-10.7,3.7-19.6,4.5-30,2.6-15.2-2.8-16.7-3.4-30.4-12.7-13.8-9.3-18.6-10.8-34.9-10.9-24.8,0-35,4.5-48.1,21.4-7.6,9.8-13.3,21.6-14.6,30.2-1.2,8.2-1.2,31.9.2,40,1.6,9.6,1.4,17.5-.5,20.3-.9,1.3-2.3,2.4-3.2,2.4-.9,0-2.7.6-4.1,1.4-3.6,2.1-8.1,1-12.4-3-3.5-3.3-8.9-12.6-8.9-15.4,0-.8-.3-1.7-.8-2-.8-.5-3.3-11-2.9-12.3.1-.4-.4-2.8-1.2-5.2-1.1-3.3-1.3-6.4-1-12.5.4-7.3.8-8.7,4.1-15.1,2-3.9,3.7-7.6,3.7-8.2,0-.6,1.4-4.3,3.2-8.2,7.7-17.4,9.1-24.9,5.7-30.5-2.3-3.7-6.6-7.4-9.6-8.3-1.8-.5-2.5-1.4-3-3.5-1.2-6.1-4.1-10.3-10.7-15.7-7-5.7-10.6-6.9-9.7-3.4.3,1.1.8,3.6,1,5.5l.5,3.5-3.6-3.7c-4.3-4.5-7.8-6.4-11.4-6.4-2,0-2.7.4-2.7,1.6,0,.9.3,2,.8,2.4.4.5,1.3,2.4,1.9,4.4.6,1.9,2.4,6.2,4,9.5,2,4,2.9,7.2,2.9,9.7,0,3.4-.1,3.5-1.1,1.8-.6-1.1-2.3-3.7-3.7-5.9-1.4-2.2-3-4.6-3.5-5.3-.5-.8-1.9-1.5-3.1-1.6-2.1-.2-2.2,0-2.9,5.1-.4,2.9-.4,8-.2,11.2.5,5.4.3,6.1-1.5,7.5-1.9,1.5-1.9,1.7-.5,4.5.9,1.8,1.7,6.3,2.1,11.9.8,11.5,2.7,15.9,9.7,22.4,5.8,5.4,8.7,9.5,8.6,12.2,0,2.1,2.6,19.8,3.2,20.6.2.3.8,3.4,1.3,6.7,1.8,11.3,6.3,22.1,13.1,31.5,3,4.1,14.2,13.9,15.9,13.9.5,0,3.3.8,6.1,1.8,5,1.7,5.5,1.7,11,.4,10.2-2.5,16-8.9,19.5-21.1,2.1-7.6,2.2-8.3,1.8-28.9-.4-18.2-.2-21.9,1.1-26.9.8-3.2,1.9-6.2,2.3-6.6.4-.5.7-1.5.8-2.4,0-2.6,2.9-7.7,4.6-8.3.9-.3,1.6-.9,1.6-1.5,0-1.5,14.2-14.7,17.8-16.5,5.8-2.9,10.9-3.6,19.6-2.5,4.4.5,9.4,1.4,11.2,1.9,3.5.9,11.2,6,14.9,9.6,1.2,1.3,4.8,4.7,8,7.8,4.5,4.3,6.2,6.6,7.8,10.9,1.1,3,2.5,5.6,3.2,5.9,1.5.6,1,2.4-2.9,10.4-3,6.2-6.8,18.7-6,20,.2.4,1,.7,1.8.7,2.6,0-.3,9.1-5.1,15.8-.9,1.2-1.8,3.9-2.1,6-.5,3.3-.4,3.7,1.2,3.7,1,0,1.8.5,1.9,1.1.2,2.5-.3,4.7-1.5,6-.7.8-1.3,2.2-1.3,3.2,0,1-1,2.4-2.2,3.2-2.6,1.7-2.8,3-.7,4.5,1.4,1.1,1.3,1.3-1.1,3.9-1.5,1.5-4.8,4.3-7.5,6.1-8.3,5.7-9.5,8.3-4.9,10.4l2.1,1-3.7,7.3c-2.5,4.8-5.6,9.2-9.3,12.9-3.1,3.1-5.3,6-4.9,6.3.4.4,1.9.8,3.3,1,2.6.3,2.5.4-3.9,5.4-5.8,4.4-8.7,5.7-11.8,5.1-1.6-.3-4.1,1-4.1,2,0,.6.8,1.9,1.8,2.7,1,.9,1.8,1.9,1.8,2.3,0,1.3-8.7,5.2-9.3,4.1-1.3-2.1-8.1-4.4-11.6-3.8-1.9.3-3.8.8-4.3,1.1-3.5,2.4-8.3,14.7-8.3,21.4,0,2.1-.7,4.1-2.1,5.7-3.7,4.3-6.6,11.1-8.1,18.3-.8,3.9-1.6,8.1-1.9,9.4-.5,2.1-.3,2.3,2,1.9,1.4-.3,2.8-1,3.2-1.7.4-.6,1-1.2,1.4-1.2,1.5,0-3.2,10.6-5.9,13.4-3.3,3.4-10,16.3-10.3,19.8-.1,1.9.2,2.5,1.8,2.7,2.7.4,5.6-1.3,5.6-3.3ZM784.1,761.8c.5,0,.7.4.4.9-.3.5-.7.9-.9.9-.2,0-.4-.4-.4-.9,0-.5.4-.9.9-.9ZM772.5,754.2c4.2,2.1,4.8,3.6,3.6,7.6-.6,2-1.6,3.5-2.3,3.5-1.4,0-4.8-3.1-4.8-4.4,0-1.5-4.2-3.7-8.4-4.3-6.3-.9-5.1-2.3,2.6-3,5.2-.5,7.5-.3,9.3.6ZM830.2,646.7c-1,.3-1.8.3-1.8.1,0-.2.8-.7,1.8-1.3,1-.5,1.8-.6,1.8-.1,0,.4-.8,1-1.8,1.3ZM871.8,666.1c1.6-1.3,21.1-8,23.4-8,1,0,2-.3,2.3-.8.3-.4,2.2-1.1,4.2-1.4,3.4-.5,9.4-1.9,22.7-5.3,2.7-.7,6.2-1.2,7.7-1.2h2.9s-2.2,2.4-2.2,2.4c-1.9,2.1-3,2.4-7.3,2.5-7.2.1-19.5,2.5-28.2,5.6-4.1,1.4-10.7,3.4-14.6,4.4-4,1-8.1,2.4-9.2,3.1-1.1.7-2.2,1.3-2.4,1.3-.9,0-.5-1.6.7-2.5ZM890.9,624.2c1.1,1.1-2.4,4.1-6.5,5.6-5.7,2.1-7.5,2.3-7.5.6,0-1.1,13.2-7,14-6.3ZM884,619.5c1.5-.9,1.8-.9,1.8.2,0,.7-.8,1.7-1.7,2.2-.9.5-1.9.9-2.2.9-1,0,.5-2.3,2.1-3.3ZM883.5,635.7c3.4-.8,7.6-2.2,9.3-3.1,3.5-1.9,9.2-3.4,12.3-3.4,3,0,1.7,1-3.7,2.7-2.5.8-8.4,2.9-13,4.5-4.6,1.7-9,3.3-9.8,3.6-1.6.7-3.1-1-1.9-2.2.4-.4,3.5-1.4,6.9-2.2ZM917.9,616.9c-.3.4-1,.8-1.6.8s-2.2.6-3.6,1.3c-1.4.7-5.8,2.5-9.7,3.9-3.9,1.4-7.8,2.8-8.7,3.1-2,.8-2-.7,0-2.5,3.2-2.9,24.9-9,23.5-6.6ZM898.3,607.9c.2-.6.9-1.3,1.6-1.5.7-.2,1,.1.8.8-.2.6-.9,1.3-1.6,1.5-.7.2-1-.1-.8-.8ZM900.7,615c0-.5.4-.9.9-.9.5,0,.7.4.4.9-.3.5-.7.9-.9.9-.2,0-.4-.4-.4-.9ZM906,613.3c0-.6,4.5-2.7,5.9-2.7,1.2,0,0,1.7-1.9,2.5-2.7,1.2-3.9,1.3-3.9.2ZM924.1,593.9c-.3.5-1.1.9-1.9.9-.7,0-1.1-.4-.8-.9.3-.5,1.2-.9,1.9-.9.7,0,1.1.4.8.9ZM929.8,597.4c1.5,0,1.1,1.6-.6,2.5-2.3,1.2-7.4,2-6.9,1.1.6-.9,6.1-3.6,7.5-3.6ZM922.4,606.5c3.1-.5,3.2-.4,2.3,1.3-.5,1-1.7,2-2.5,2.3-4.5,1.3-7.3,1.5-7.3.6,0-1.4,3.9-3.6,7.5-4.2ZM909.2,680.4c-.2,1.2-1,2.1-2.1,2.2-2.6.4-3.3-.8-1.6-2.6,2.1-2.3,4-2.1,3.7.4ZM914.8,676.1c-1.9,1.7-2.5,1.8-3.3.4-.7-1.1,1.9-3.4,3.8-3.4,1.6,0,1.4,1.2-.5,3ZM921.3,670.6c-.3.5-.9.9-1.4.9-.4,0-.8-.4-.8-.9,0-.5.6-.9,1.4-.9.8,0,1.1.4.8.9ZM929.5,662.1c-2,1.6-3.7,1.9-11,2.1-10.7.3-18.7,1.7-33,6-9.1,2.7-11.6,3.9-13.8,6.2-1.5,1.6-3.1,2.8-3.6,2.8-.5,0-1,1-1,2.2,0,2.8,1.1,2.8,6.3-.4,6-3.7,17.4-6.4,24.8-5.9,6.8.4,7.6-.9,1.5-2.4l-3.9-1,4.6-1.5c2.5-.8,6.8-1.5,9.6-1.5,5,0,5,0,3.7,2-.7,1.1-2.2,2.4-3.3,3-1.1.5-3.3,2.3-4.9,3.8-2.9,2.8-3,2.8-10.8,2.5-6.4-.3-8.1,0-9.3,1.1-.8.8-3.4,2.2-5.7,3-4.8,1.7-7.3,3.6-7.3,5.3,0,1.6-.1,1.6,8.2-2.2,11.8-5.4,22.7-5.5,22.7-.3,0,.9-.6,1.1-2,.7-6-1.9-6.2-1.8-5.7,1.1.6,2.9,0,3.5-1.8,1.8-.7-.7-2.2-.6-5.7.5-8.8,2.9-16.1,7.3-14.6,8.9.5.5,5.2-1.8,7.7-3.8,1.9-1.5,9.8-4,10.4-3.3.3.3.6,1,.6,1.6,0,.6,1.4,1,3.3,1,1.8,0,3.3.3,3.3.7,0,2.8-.3,3.3-2.2,3.8-1.7.4-2.2,1.1-2.2,3.1,0,2-.6,2.8-2.9,3.8-9.3,3.9-12.3,5.3-13.1,6.4-1.6,1.9,1.1,1.4,5.9-1.1,6.9-3.6,8.9-4,9.5-2,.4,1.5.7,1.6,2.2.6,1-.6,2.1-.9,2.4-.6.9.9-.4,2.5-2.1,2.5-.8,0-2.5.8-3.7,1.7-1.2.9-2.6,1.7-3.1,1.7-1.1,0-6.4,5.3-5.3,5.3.4,0,2.6-1,5-2.3,3.9-2.1,4.4-2.2,5.7-.9.8.8,1.9,1.5,2.5,1.5.6,0,1.8.8,2.7,1.7,1.5,1.6,1.5,1.8,0,2.3-.8.3-2.4,0-3.6-.6-1.8-1-2.6-.8-6,1.1-4.2,2.4-6.5,4.7-5.7,5.5.3.3,2.1-.8,4.1-2.3l3.6-2.8,4.2,1.9c2.9,1.3,3.6,1.9,2.2,1.9-3,0-2.4,1.9,1.4,4.6,1.9,1.4,3.6,3.4,3.8,4.6.5,2.6.6,2.5-2.4,1.2-1.2-.6-2.5-.8-2.8-.5-.9.9,4.2,6.9,5.6,6.6.9-.2,1.8,1.3,2.8,4.6,1.6,5.2,3.4,6.2,4.9,2.8.8-1.7,1.5-2,4.5-1.8,3.6.2,7.3-.9,15.1-4.7,4-1.9,9.4-2.5,9.7-1.1.1.5-.7,1.1-1.8,1.4-13.6,3.8-23.6,7.5-23.6,8.7,0,1.4,6.9,1.9,9.4.6,1.4-.7,3.9-1.6,5.6-1.9,1.7-.4,3.7-1,4.4-1.4.8-.4,3.7-1.5,6.6-2.5,8.7-2.9,14.7-2,15.8,2.3.9,3.7-.6,4.3-4.4,1.8-4.3-3-9-3-14.4-.1-2.3,1.2-5.7,2.8-7.6,3.6-2.3.9-3.1,1.6-2.2,1.9.7.3,1.6.8,1.8,1.3.5.8,9.3-1.5,10.9-2.9.5-.4,2.5-.8,4.5-.7,2.8,0,4.1.6,6,2.5,1.3,1.4,2.4,3.4,2.3,4.6,0,4.5-4.3,6.9-6.6,3.8-1-1.4-1.3-1.4-3.6.3-1.4,1-4.2,2.2-6.2,2.8-5.1,1.4-10.5,1.3-12.2-.4-2.4-2.4-6.8-3.1-14.8-2.6l-7.7.5-1.1-2.5c-2.1-4.8-9.7-15.5-11.3-16-.9-.2-1.7-.7-1.7-1.1,0-.4-.7-.9-1.7-1.1-1-.3-1.9-1.6-2.3-3.2-.8-3.8-3.5-5.1-5.5-2.8-2.6,3.1-3.1,2-2.5-5.3.7-8-.2-9.4-4.5-6.6l-2.3,1.5.6-5.3c.6-5.2.5-5.4-2.1-8.1-1.9-1.9-2.7-3.5-2.6-5.1.4-5.5,0-8.9-1.4-8.9-.7,0-2.3-2.1-3.5-4.7-1.2-2.6-3.2-5.2-4.4-5.9-5.2-2.8-3-12,3.8-15.4,2-1,4.3-2.4,5.2-3.2,2.2-1.9,12.4-5.5,26.3-9.1,16.6-4.3,18.7-4.7,21.5-4.7,1.4,0,3-.6,3.6-1.3,1.5-1.8,7.1-1.8,7.1,0,0,1.1.3,1.1,1.6.3.9-.6,2.4-.7,3.3-.4,1.5.6,1.5.8-.7,2.6ZM936.5,654.1c-2.2,2.5-3.2,3.1-4.2,2.5-.8-.5-1-1.1-.4-1.5.5-.4,2.4-2.1,4.2-3.7,2.1-1.9,3.3-2.5,3.3-1.7,0,.7-1.3,2.7-2.9,4.6ZM938.8,642.3c-2.1,3.3-3.8,4.5-6.4,4.5-1.2,0-6.2,1-11,2.2-4.8,1.2-12,2.7-15.9,3.4-3.9.7-11.2,2.1-16.3,3.1-10.9,2.1-9.9,2-9.3.9.3-.5,1.1-.9,1.8-.9.7,0,3.5-1,6.3-2.2,2.8-1.2,7.3-2.6,9.9-3.1,2.7-.5,7.8-1.8,11.5-3,3.6-1.2,10.4-3.1,15-4.2,4.6-1.1,9.6-2.4,11-2.9,4-1.2,5.1-.5,3.3,2.3ZM903.8,644.6c-7.2,2.1-7.5,1.4-.8-1.8,3.5-1.7,6.6-3.4,6.9-3.9.3-.5,1.6-.9,2.9-.9,2.3,0,6.1-1.2,10.8-3.3,4.7-2.1,22-3.7,22-2,0,1.6-2.8,3.6-5.2,3.6-3.7,0-23,4.3-36.6,8.3ZM945.4,643.3c-1.2,1.9-3.3,3.1-3.3,1.9,0-.8,3-3.6,3.8-3.6.3,0,.1.8-.5,1.7ZM949.1,634.1c-.5.3-.9.1-.9-.3,0-.5.4-1.1.9-1.4.5-.3.9-.1.9.3,0,.5-.4,1.1-.9,1.4ZM951.6,623.2c-.3.8-2.4,1.4-6.1,1.8-7.4.7-12.9,2-19.5,4.7-3,1.2-5.7,2.2-6.1,2.2-.4,0-3.6,1.3-7.1,2.9-8.7,4-15.8,6.5-22.7,8.1-3.2.7-6.6,1.5-7.5,1.8-2.8.8-.6-1,4.2-3.6,2.3-1.2,4.7-2.2,5.3-2.2.6,0,2.7-.7,4.6-1.6,1.9-.9,5.5-2.1,7.9-2.8,2.4-.6,5.1-1.8,5.9-2.7,1.7-1.7,5.7-3.2,10.8-3.8,1.9-.3,5.9-1.1,8.8-1.9,2.9-.8,7.5-1.7,10.1-2.1,2.7-.4,6.4-1,8.3-1.3,2.7-.5,3.3-.4,3,.6ZM917.9,626.2c-6.4,2.2-7.8,2.4-10.6,1.3-1.6-.6-1.6-.8.5-2.1,3.5-2.3,7-2.8,7-1.2,0,2.1.9,1.7,3.9-1.5,2.8-3,8.5-5,14.6-4.9,1.4,0,2.8-.4,3.1-.9.3-.5,2-.9,3.8-.9,1.8,0,6-.6,9.4-1.2,3.5-.7,6.5-.9,7-.4,1.2,1.1-1.1,3.5-3.4,3.5-4.5,0-24.4,4.7-35.2,8.4ZM955.7,645.1c-.3.5-.7.9-.9.9-.2,0-.4-.4-.4-.9,0-.5.4-.9.9-.9.5,0,.7.4.4.9ZM957.8,623.3c-1.4,2.1-3.4,3.1-3.3,1.7,0-1.2,2.5-3.6,3.7-3.6.5,0,.4.8-.4,1.9ZM934.9,613.3c-4.7,1-9.2,2-9.9,2.3-.8.3-1.4.3-1.4,0,0-1.1,4.3-2.6,14.9-5.4,11.8-3.1,21.2-4.6,21.2-3.3,0,.8-9.8,3.3-24.8,6.4ZM951.9,600.6c7.7-1.5,10.4-1.6,9.2-.5-.5.4-4.8,1.5-9.7,2.3-4.9.8-10.8,2.1-13.2,2.7-5.3,1.4-8.3,1.6-7,.3.9-.8,5.9-2,20.6-4.8ZM936,597.5c0-1.9,10.2-4.4,15.2-3.8,3.7.5,4.5,2,1.2,2-1.2,0-3.1.3-4.2.8-3.7,1.4-12.2,2.1-12.2,1ZM960.7,640.1c-.9.9-1,.8-.5-.5.3-.9.8-1.3,1.1-1.1.3.3,0,1-.6,1.6ZM962.5,616.3c-.9.9-1,.8-.5-.5.3-.9.8-1.4,1.1-1.1.3.3,0,1-.6,1.6ZM969.4,617.8c-.5,0-.9-.4-.9-.9,0-.5.4-.9.9-.9.5,0,.9.4.9.9,0,.5-.4.9-.9.9ZM1000.3,626.7c0-.5,1.6-.9,3.6-.9,2.2,0,3.4.4,3,.9-.3.5-1.9.9-3.6.9-1.7,0-3-.4-3-.9ZM1040,646.8c-1.3,1.9-8.1,2.2-8.1.3,0-.9,5.3-2,7.4-1.6.8.2,1.1.7.8,1.3ZM1083.8,665.7c-1.7,1.1-2.4,1.1-3.1,0-.3-.5.5-.9,1.9-.9,1.9,0,2.2.2,1.2.9ZM1089.6,659.6c-.3.5-1.6.9-2.9.8-2.1,0-2.2-.1-.6-.8,2.5-1,4.2-1,3.5,0ZM1088.2,652.3c-8.4,4.1-8.8,4.3-8.8,2.5,0-.7,2.1-2.4,4.7-3.9,2.6-1.5,7.4-5.3,10.8-8.5,5.6-5.3,6.2-5.7,7.3-4.3.6.9,1.1,1.9,1.1,2.3,0,2-8.3,8.6-15,11.9ZM1109.1,673.3c-.6,1.5-5,1.9-5,.4,0-1.1,4.2-3.1,5-2.3.3.3.3,1.2,0,1.9ZM1104.8,661.4c.8-1,1.8-1.8,2.2-1.8.4,0,.7.8.7,1.8,0,1.3-.6,1.8-2.2,1.8-2.1,0-2.1,0-.7-1.8ZM1115.5,710.2c-.5,1.2-1.7,2.7-2.8,3.2-1.8,1-1.9.9-1.4-1.2,1.2-4.6,2.3-6.7,3.6-6.7,1.5,0,1.7,1.6.5,4.7ZM1163.9,773c-2.3-1.7-2.5-3.1-.4-3,1.9,0,4.6,2,4.6,3.4,0,1.4-1.9,1.2-4.2-.4ZM1195.9,753.3c1.5,0,4,2.4,4,3.8,0,.7-2.4,1.1-7.5,1.1-4.1,0-7.5,0-7.5-.3,0-.6,9.6-4.7,11-4.7ZM1166.3,662c-1.4,1.7-1.4,1.7-1.4-.3,0-2.7,6-13.5,8.8-15.8,9.9-8.1,20.5-14.2,27.2-15.7,3.1-.7,2.3,1.5-1,2.8-1.7.7-4.8,2.4-7,3.9-2.2,1.5-5,2.6-6.2,2.6-2.9,0-13.9,10.9-16.9,16.7-1.1,2.2-2.7,4.7-3.4,5.7ZM1171.4,627.6c-1.5.4-2,.2-2-.8,0-.7,1-1.6,2.3-1.9,2.5-.6,3.8.1,2.5,1.3-.4.4-1.7,1-2.8,1.4ZM1170.9,644.4c-2.4,1.7-3.3,1.7-3.3.2,0-1.6,1.8-3.3,3.7-3.2,2.2,0,2,1.4-.4,3ZM1174.2,614.9c.3-1.6.6-3.5.6-4.2,0-2.7,1.7.3,1.9,3.4.2,2.4-.1,3.1-1.4,3.4-1.5.3-1.6,0-1.1-2.5ZM1176.2,592.9c-1.4-1.2-3.5-.4-2.6.9.3.5,0,2.2-.5,3.9-1.8,5.2-2.7,4.9-4.8-2-.5-1.5.2-2.8,2.8-5.7,1.9-2.1,4.2-4.8,5.2-6.2l1.8-2.4.5,4.6c.8,6.8.7,11.2-.3,11.2-.5,0-.9-.7-.9-1.7,0-.9-.6-2.1-1.3-2.7ZM1168.7,634.3c1.8-1.7,3.4-2.3,3.4-1.4,0,.2-1.2,1.7-2.7,3.3-1.9,2.1-2.6,2.5-2.6,1.4,0-.8.9-2.3,1.9-3.3ZM1183.7,617.7c-.6-.4-1.5-3.2-2-6.2-.7-4.7-.7-5.7.6-6.9,1.1-1.1,1.6-1.2,2.1-.3,1.1,1.8,2.7.2,2.7-3,0-2.5.3-2.9,2-2.5,1.8.3,1.9.8,1.7,5.8-.2,3-.7,5.9-1.2,6.5-.5.6-1.2,2.4-1.5,4-.6,2.9-2.3,3.9-4.3,2.6ZM1184.8,625.6c-1.3,1.9-2.6,3.5-2.8,3.5-.5,0,.5-7,1.2-8.1.6-1,2.8-.9,3.5.2.3.5-.5,2.5-1.8,4.4ZM1172.7,670.1c-1.2,1.3-2.8,2.7-3.7,3.1-2.8,1.5-1.8-2.2,1-3.9,3.8-2.2,5.1-1.8,2.7.8ZM1175.5,659.8c-2.8,0-2.1-2.3,2.1-6.6,5.1-5.3,6.7-5,2.8.5-1.7,2.5-3.1,4.9-3.1,5.3,0,.4-.8.8-1.7.8ZM1181.1,664.6c-2.9,1.1-3.8.4-2.4-1.8.5-.8,1-.7,2.2.1,1.4,1,1.4,1.2.1,1.7ZM1200.8,654.2c-1.6,2.1-3.9,5.5-5.2,7.6-1.6,2.6-3.7,4.6-6.9,6.3-4.1,2.2-4.6,2.3-4.3.9.2-.9,1.1-1.8,2.1-2,2.7-.5,4.7-2.7,4.2-4.6-.4-1.6,3.6-7.5,5.1-7.5.4,0,2.3-1.1,4.3-2.4l3.6-2.4-2.9,3.8ZM1203.9,654c2-3,7.1-5.9,12.9-7.2,2.8-.7,2.9-.6,1.3.8-.9.8-3.2,2.7-5.1,4.1-1.9,1.4-4.5,3.7-5.6,5-2.1,2.4-5.4,3.3-5.4,1.4,0-.6.9-2.4,2-4.1ZM1205.3,665.8c-1.1,1.3-4.3,1.7-4.3.5,0-1.4,2-2.6,3.6-2.2,1.3.4,1.5.7.7,1.7ZM1281.7,676.9c2,0,5.6,2.3,5.6,3.6,0,1.3-1.2,1-4.4-1.4-2.4-1.8-2.6-2.2-1.2-2.2ZM1216.8,633.7c-.6-.6-.7-1-.1-1,1.8,0,11.7,7,17.8,12.7,3.9,3.6,7.8,6.3,10.4,7.3,8.4,3.1,11.8,5.1,15,9,1.8,2.2,3.9,4.7,4.6,5.5.7.8,3.3,3.8,5.8,6.7,2.4,2.9,6,6.9,8,9,3.6,3.7,7.8,11.4,8.7,15.9.7,3.5-.8,6.6-4,8.4-2.7,1.6-2.7,1.6-2.7-.2,0-1,1-2.5,2.2-3.5,1.2-1,2.2-2.4,2.2-3.2,0-1.2-.5-1.4-2.8-1l-2.8.5,2.3-2.2c3.4-3.2,3-4.3-1.2-3.8l-3.5.5.6-3c.5-2.6.3-3-1.2-3-1,0-3.6-1.6-5.8-3.5-4.3-3.8-7.6-4.1-7.6-.7,0,1.7-.2,1.6-2.6-.7-1.8-1.7-2.9-2.3-3.5-1.7-1.1,1.1,2.3,5.9,9.1,12.9,4.8,4.9,6.1,8,3.8,8.9-1.8.7-4.1,6.2-4.1,9.8,0,3.4-.9,3.8-4.3,2.1-3.4-1.7-5.3-5.2-5.8-9.9-.7-7.8-1.6-10.5-3.7-10.9-1.4-.2-2.1.3-2.5,2-.7,2.6-1.1,2.7-3.6,1-1.3-.9-2-2.6-2.3-5.8-.5-3.9-.2-4.9,1.7-7.4,2.4-3.1,2.9-5.8,1-5.8-.7,0-1.7-1.6-2.2-3.5-.6-2-1.6-3.5-2.3-3.5-1.5,0-1.6.4-.4,2.7,1.4,2.5.1,3.9-1.9,2-1.2-1.1-1.4-1.8-.8-2.6,1.8-2.2-1.1-5.5-3.5-4-1.5.9-10.5-5.3-10.6-7.3,0-.8.6-1.5,1.4-1.5,2.3,0,9.9-5.7,8.9-6.8-.7-.7-11.7,5-13.5,6.9-.8.9-1.9,1.6-2.5,1.6-.6,0-2.1.8-3.4,1.8-2.9,2.3-3.5,1.9-2.2-1.7.8-2.2,1.5-2.8,3.5-2.8,1.6,0,2.6-.5,2.6-1.2,0-.7,1.3-1.8,2.9-2.6,3.1-1.5,6.8-5,5.3-5-2.3,0-11,4.7-14.7,8-3.3,2.9-4.3,3.4-5.4,2.5-1.1-.9-1.1-1.3.3-3.1.8-1.1,2.4-2.3,3.6-2.6,1.1-.3,2.5-.9,3.1-1.4,2.3-1.9,12.1-7.8,13-7.8,2,0,.2-2.2-2-2.5-1.7-.2-2.2-.7-1.8-2,.7-2.5-1.8-2.2-7.9.9-6.8,3.4-6.5,1.6.5-3.6,2.6-1.9,3.1-4.2,1.4-5.9ZM1270.5,693.7c0,2.3-1,2-3.3-.8-2.1-2.6-2.7-5.1-.9-4.1,2.5,1.4,4.2,3.4,4.2,4.9ZM1209.3,639.9c-9.9,8.8-22.4,19-22.4,18.3,0-1.6,5.2-8.4,8.6-11.3,7.4-6.3,9.8-8.1,10.8-8.1.6,0,2-.7,3.2-1.4,3.6-2.3,3.5-.7-.2,2.6ZM1206.2,628.5c.6-.3,1.4-.2,1.7,0,.3.3-.2.5-1.1.5-1,0-1.2-.3-.5-.5ZM1207.8,632.9c.3.3-1.8,1.9-4.7,3.7-2.8,1.8-6.7,4.7-8.6,6.4-1.9,1.8-5.8,6.1-8.6,9.6-2.8,3.5-5.2,6.1-5.2,5.8,0-2,2.5-7.1,4.7-9.4,1.3-1.4,2.4-3.1,2.4-3.7,0-3,18.1-14.3,20-12.5ZM1202.5,605.3c-.6,0-2,1-2.9,2.3l-1.7,2.3-.6-3.4c-.5-3-.2-3.8,2-6.1,1.4-1.5,3-4.3,3.5-6.4,1.7-6.3,3.6-4.3,3.6,3.8,0,4.8-1.5,7.5-4,7.5ZM1214.8,592.5c-.9,4.2-1.9,4.6-3,1-.9-2.6-.9-3.4,0-4,2.2-1.3,3.6,0,3,3ZM1215.2,575.7c-4.2,3.6-4.7,3.8-5.6,1.6-.7-1.9,1.6-3.7,4-3.1,1.4.4,1.7,0,1.7-1.8,0-1.3.7-2.8,1.8-3.4,2.2-1.4,2.3-3,.2-3.5-2.3-.6-3.2-5.7-1.4-8.3,1.6-2.5,4.3-2.8,3.6-.4-.3,1,.2,2.2,1.2,3.2,3.1,2.8.3,10.9-5.4,15.8ZM1213.3,547.4h0c.3.3.4,1,.2,1.6-.3.9-.5.9-1.1,0-.7-1.2,0-2.5.9-1.6ZM1226.7,543.7c-.2,3.6-.8,6.7-1.3,6.9-2.7.9-5.3-6.7-2.8-8.2.6-.4.6-1-.1-1.8-.8-1-.8-1.5,0-2.6,1.3-1.6.6-4-1.3-4-2.1,0-1.6-1.6,1.5-4.4,4.5-4,4.9-2.7,3.9,14ZM1227,496.1c-1.5,0-1.8-.5-1.6-2.9.6-8.5-.7-8.6-3-.4-.8,2.8-2.9,7.2-4.6,9.8-3.3,4.8-3.7,7.7-1.1,8.2,1.1.2,1.7-.7,2.4-3.1.5-1.8,2.1-5.1,3.5-7.2l2.6-3.8.6,2.4c.3,1.3.3,4.1,0,6.1-.3,2.3-.2,4.5.5,5.8.7,1.2.7,2.2.2,2.5-.5.3-1.8,2.3-2.9,4.5-1.1,2.2-2.1,4.1-2.3,4.3-.1.2-1.3-.4-2.6-1.3-3.2-2.2-4.2-.4-2.4,4.7.9,2.7,1,4.1.4,4.5-1.3.8-2.8,5-2.9,7.9,0,2.2-.1,2.3-1.3.7-2.6-3.4-5,.6-6.4,10.5-.4,3-1.6,5.6-4,8.7-3.6,4.7-3.7,5.5-1.4,7,1.2.7,2.1.3,4.6-2.1,2.6-2.5,3.3-2.8,4-1.7,1.3,2.1,1,3.5-.8,3.5-2,0-4,2.2-3.2,3.5.9,1.4,1.5,13.9.9,16.4-.9,3.6-2.5,2.5-1.9-1.3.7-4.2-.8-6-3.5-4.1-1.6,1.1-1.9,1-3.4-.6-1.5-1.8-1.6-1.8-2.8-.2-.7.9-1.2,2.5-1.2,3.6,0,1.1-.4,2.2-.9,2.5-.5.3-.9-1.5-.9-4.8,0-4.2-.3-5.5-1.6-6.2-2.6-1.4-3.7,0-3.4,4.4.4,4.4-.3,8.8-1.3,8.8-.4,0-.9-1.6-1.2-3.6-.5-3.1-.9-3.6-3.3-4.1l-2.7-.6.6-5.5c.5-4.4.3-5.7-.8-6.6-1.8-1.5-2.3-.9-5.3,7.3-1.4,3.8-2.9,6.8-3.2,6.8-.9,0-.8-1,.3-4.3,1.3-3.6.5-6.1-1.4-4.5-2.4,1.9-2.6,0-.3-2.5,1.5-1.6,2.2-3.3,2.1-5.1-.2-3.7-1.6-3.3-5.3,1.5-3.4,4.5-5.5,5.5-4.3,2.2.4-1.1.7-3.2.7-4.6,0-2-.4-2.7-1.8-2.9-1.5-.2-2.2.5-3.4,3.6-2,5.1-2.1,10.5-.4,16.4,1,3.6,1.8,4.9,3.1,5.1,1.3.2,2-.5,2.8-3.3,1.5-4.9,2.8-5.3,2.9-1,0,2,.2,4.1.2,4.6,0,.6-1.2,1.4-2.8,1.8-1.9.5-3.7,2-5.3,4.1-1.3,1.9-2.9,4.1-3.6,5-1,1.4-1.1.6-.6-4.8.5-6.5-.7-14.3-2.3-14.3-.4,0-2.8,1.8-5.2,4.1-2.5,2.3-4.4,3.5-4.4,2.8,0-.7,1.8-2.8,4-4.7,6.1-5.3,7.9-9.2,7.7-17-.1-6.3,0-6.4,2.7-8.1,1.6-.9,3.5-1.5,4.3-1.2,2,.7,3.4-2.1,2.1-4.5l-1-1.9-4.7,1.8c-2.6,1-5.3,2.7-6.2,4-2.7,3.9-4.6,9.8-4.1,12.7.5,2.7-.7,5.9-1.7,4.9-.3-.3-.6-3.3-.6-6.6,0-7.1-.3-7.7-2.5-6.5-1.4.7-1.6,1.6-1.2,5.1.3,3.3,0,5.1-1.7,8.5-2.4,4.8-2.8,4.6-3.6-1.3-1-6.9.8-11.5,6.2-16.5,5.2-4.7,5.9-7,3-9.8-1.9-2-2.5-2.1-4.3-1-1,.6-1,1.1,0,2.5,1,1.6.7,2.3-2.7,6.3-2.1,2.5-4.1,4.5-4.5,4.5-.4,0-2,1-3.5,2.3-3.1,2.6-3.7,1.2-1-2.3,1-1.2,1.7-3.5,1.8-5,0-4.8,2.5-12.6,4.9-15.4,3.4-3.9,1.6-5.5-3.2-3-2.2,1.1-2.5,1.1-3.3-.2-.8-1.3-1.2-1.1-3.5,1.5-2.9,3.3-3.1,3.1-2.7-4.1.1-2-.2-3.9-.8-4.3-1.3-.8.3-2.8,3.7-4.5,2.9-1.5,2.4-3.4-.8-2.6-1.3.3-2.8,0-3.6-.6-1.1-1-1.6-.8-3.2,1.4-1,1.4-2.5,3.4-3.4,4.4-1.5,1.8-1.5,1.8-1,0,.3-1.2-.4-2.6-2.4-4.3-2.7-2.4-2.8-2.7-2.3-7.7.6-6,3-10.8,5.8-11.2,1.1-.2,1.9-.8,1.9-1.5,0-2-2.9-2-5.1-.2-2.2,1.9-3.2,1.6-2.3-.6.3-.8,1.3-1.4,2.3-1.4,1.5,0,1.6-.4,1.1-4.3-.4-3.3-.2-4.8.9-6.4.8-1.1,1.4-3.1,1.4-4.4,0-1.3.8-3.3,1.8-4.6,2.2-2.7,3.2-7.2,1.9-8.1-1.5-1-1.1-3.5.8-5.1,1-.8,2.1-1.5,2.5-1.5,1.3,0,4.8-4.2,4.4-5.4-.2-.7-2.6,1.1-5.9,4.4-5.4,5.4-5.5,5.7-5,9,.4,2.7.2,4-1.3,5.7-1,1.2-1.8,3.2-1.8,4.4,0,1.2-.7,3.6-1.5,5.4-.8,1.8-1.6,4.2-1.7,5.4-.1,1.2-.8,3.4-1.5,4.8-.7,1.5-1.7,3.8-2.2,5.1-.6,1.4-1.6,2.4-2.6,2.4-.9,0-2.1.4-2.6,1-.7.7-1.4.5-2.7-.8-1.6-1.6-1.7-2.1-.5-8.9.6-3.9,1.4-7.6,1.7-8.1.3-.5,1.6-.7,2.9-.4,1.9.4,2.9,0,5.3-2.5,2.8-2.9,2.9-3.2,1.9-6.2-.6-1.8-1.2-4.1-1.3-5.3-.4-4.2,1.3-12.9,3.3-16.1,1.1-1.8,2.4-4.1,3-5.1.5-.9,2.8-2.9,5.1-4.5,2.3-1.5,4.3-2.9,4.6-3.2.7-.7,2.8-9.5,3.5-14.3.7-5.5,3-12.9,4.4-14.2,1.4-1.3,8.4-4.2,8.9-3.7.2.2-.1,2.2-.8,4.3-2.1,6.8-3.2,12.2-3.2,15.6,0,4.5-3.1,12.6-5.5,14.5-1.1.9-3.6,2.4-5.7,3.3-3.9,1.9-7.5,5.2-5.7,5.2.6,0,2.1-.7,3.4-1.5,7.8-4.7,9.7-6.2,12.3-9,2.2-2.4,3-2.9,3.6-2,.9,1.4-.9,8-3,10.9-1.8,2.5-1.7,3.3.3,3.3.9,0,2-.8,2.3-1.7.3-1,1-1.8,1.6-1.8.6,0,1.7-1.2,2.6-2.7,1.3-2.3,1.9-2.6,4.9-2.4l3.3.3-.3,4c-.1,2.2-.9,4.9-1.7,6.1-1.2,1.9-1.5,1.9-2.2.7-.5-.8-1.2-1.5-1.6-1.5-1.4,0-4.6,8.2-5.1,13.3-.4,4.3-.2,5.2,1.4,6.6,2.2,1.9,2.4,4.5.5,6.5-1.6,1.8-.8,4.6,1.2,4.2,1-.2,1.4-1,1.2-2.6-.2-1.3.2-2.6.7-2.9,1.7-1,1.1-5.3-.9-6.5-1.6-1-1.8-1.7-1.4-5.9.6-5.8,2.8-9,6.6-9.7,3.7-.7,5.5-3.3,5.5-8.1,0-4.5,1.3-7.2,3.3-7.2.8,0,2.2-.7,3.1-1.5,2.8-2.5,2.7-.6-.1,2.6-3.1,3.5-3.3,4.1-1.3,4.2,2.3,0,1.1,3.8-1.6,5.1-1.7.8-2.4,1.8-2.4,3.3,0,1.2-.9,4.1-2.1,6.3-2.9,5.9-3,9.4,0,12.3,2,2,2.3,3,2.2,6.6-.2,3.2.1,4.2,1.1,4.2.8,0,1.5-1.4,1.9-3.9.6-4,0-6.3-2.5-8.4-3.3-2.8-.3-12.5,5.8-18.7,2.8-2.8,4.3-5,4.3-6.5,0-2.5,1.3-2.9,2.2-.6.5,1.3.8,1.2,1.9-.8,1.6-3,10.6-10.4,12.8-10.4,1,0,1.7.8,1.9,2,.2,1.6.8,2,3.4,1.9,1.7,0,3.8-.4,4.6-.8,1.4-.6,1.5-.3,1.3,3.2l-.3,3.8h6.2s0,6.6,0,6.6c0,7,.2,7.3,4.8,6.1,1-.3,1.4.7,1.6,4.3.1,2.8.7,4.7,1.3,4.8.6,0,1.6.2,2.2.2.6,0,1.6,1.1,2.2,2.2.6,1.3,2.3,2.4,3.9,2.9,1.7.5,2.8,1.3,2.8,2.2,0,2.9,6.9,5.4,8.4,3,.3-.5,1.3-.9,2.1-.9.9,0,2.3-.8,3.2-1.8,1.9-2.1,3.4-2.2,4.8-.4.9,1.1.8,1.8-.6,3.6-4,5.6-4.7,7-4.2,8.5.7,2.2-1.9,5.9-4.1,5.9ZM1111,537.2c-.7,0-1.3-.3-1.3-.7,0-1,3.9-4.5,5.1-4.5,1.3,0,2,4.5,1.6,10.4-.2,2.9-.9,5.2-1.8,6.2-1.5,1.4-1.5,1.2-1.3-3.8.3-5.6-.3-7.5-2.4-7.5ZM1113.3,554.8c.6,0,2.7-1.4,4.5-3.2,5.8-5.7,6.6-1.7,2.1,11-1.3,3.6-2.3,6.8-2.3,7.2,0,1.5,2.8.8,5.6-1.4,3.3-2.5,6.8-3.1,4.9-.9-.6.7-1.6,1.3-2.3,1.3-.7,0-1.7.9-2.2,2-.6,1.1-2.4,3.5-4.2,5.3-1.7,1.8-3.4,3.3-3.7,3.3-1.1,0-2.5-6.9-3.1-15.6-.5-7.3-.4-9,.6-9ZM1130.5,576.8c.3,1.2,1,1.5,2.2,1.2,1.9-.5,1.9.3-.3,8.8-.5,1.8-1,3.3-1.2,3.3-.7,0-3.1-9.2-3-12.1,0-3.1,1.6-4,2.4-1.3ZM1133.1,591.2c.8.2,1.6.8,1.8,1.4.5,1.6-2.1,1.3-2.8-.3-.4-1,0-1.3.9-1.1ZM1106.8,526c-2.8,4.7-3.7,5-3.7,1.3,0-1.6-.3-4.9-.7-7.3-.5-3.6-.4-4.7.8-5.6,1.3-1,1.4-.9,1.4,1.4,0,1.7.8,3.3,2.2,4.5l2.2,2-2.2,3.7ZM1106.7,542.5c-1.2,1.9-2.3,3.5-2.5,3.5-.9,0-1.5-1.5-1.4-4.1,0-2.5.3-2.9,2-2.9,1.1,0,2.5-.5,3.1-1.1,1.9-1.9,1.2.8-1.2,4.6ZM1100.1,523.3c0,1.2-1.8.7-2.3-.7-.7-1.9.5-2.9,1.5-1.3.4.7.8,1.6.8,2ZM1089.3,500.3c-.4-13.5-.6-14.9-1.8-18-1.3-3.5-1.3-4.1.4-5.6,1.8-1.6,6.4-9.2,5.5-9.2-.3,0-2.3,1.6-4.5,3.5-4.4,3.9-5.6,4-3.2.5,1.7-2.6,2.8-6.8,4.1-16.3.6-4.1,1.5-7.3,2.5-8.4.9-1,2.3-3.1,3.1-4.6.8-1.6,2.7-3.9,4.1-5.2,2.6-2.3,3.5-4.7,1.7-4.7-1.2,0-1.1-3.3.2-4.1.6-.4,1.2-.2,1.4.4.5,1.5,5.2,1.3,5.8-.3.3-.7,1.1-1.3,1.8-1.3.7,0,1.4-.3,1.6-.7.2-.4,2.1-2.2,4.3-4.1,6.3-5.5,7.9-8.7,8-15.9,0-7.1.9-8.8,6.6-12.7,6.5-4.4,8.7-3.1,4.4,2.7-4.9,6.6-10.1,16.5-11.1,21.1-.6,2.7-1.6,5.8-2.2,7.1-.6,1.2-1.4,4.1-1.7,6.4-.3,2.3-.9,4.9-1.4,5.9-.5.9-.7,2.7-.4,3.8.4,1.8-.1,2.5-3.3,4.7-2.3,1.5-3.9,3.3-4.1,4.6-.2,1.1-1.7,3.9-3.4,6.1-1.7,2.2-3.5,5-3.9,6.1-1.1,2.8-1,11.3,0,15.4.7,2.7.6,3.7-.6,5.5-1.6,2.4-3.5,2.9-4.1,1.1-.3-.8-.9-.7-2.2.5-2.6,2.2-3.6,5.2-4.5,13.3-.7,6.2-.6,7.1.8,8.3,2.1,1.8,2,2.5-.6,7.7-1.2,2.4-2.2,5-2.2,5.8,0,.8-.4,1.7-.9,2-1.5.9-2-2.1-.8-4.9.8-1.9,1-6.5.7-16.5ZM1147.1,417.9c-1.6,3.1-3.3,5.7-3.7,5.7-.9,0-.9-.3.3-3.3,2.5-6.2,3.5-8.1,4.4-8.7,2.2-1.3,1.8.9-1,6.2ZM1151.2,429.6c3.6-3.5,4.7-3.1,4.7,1.5,0,3.4-.5,4.4-3.8,7.8-3,3.2-4.5,4-7.5,4.4-2.1.2-3.7.1-3.7-.3,0-1,7.4-10.6,10.3-13.4ZM1142.8,425.4c.9,0-1.9,7.3-3.4,9-2.5,2.7-3,1.6-.9-2.1,1.1-2,2.4-4.4,2.9-5.3.5-.9,1.1-1.6,1.4-1.6ZM1156,401.5c0-2.5,1.7-6.1,2.6-5.6.5.3.9,1.1.9,1.7,0,.6-.8,2.1-1.7,3.3-1.4,1.7-1.7,1.8-1.8.6ZM1225,456.2c3.3,3.2,4.5,3.8,7.4,3.8,1.9,0,3.7.4,4,.8.9,1.5-.6,3.6-2.5,3.6-1.1,0-3.7,1.7-6.1,4.1l-4.2,4.1v-4.4c0-3-.4-4.8-1.4-5.6-1.2-1-1.7-.8-3.9,1.8-2.1,2.5-2.6,2.7-3.1,1.5-.3-.8,0-2.1.5-2.8,1.7-2,.4-4.1-2.3-3.8-2,.2-2.5-.2-3.5-3.2-1.9-5.6-.5-6.8,5.2-4.4,1.1.5,1.5.3,1.6-.7,0-1.5-4-3.3-6.5-3.1-2.1.2-4-3.1-4-7.1,0-1.6-.6-4.1-1.3-5.5-1.7-3.2-.7-3.8,3.6-2.3,2.6.9,3.6,1.8,4.2,4,1.1,3.8,6.6,8.6,11.2,9.9,4,1.1,16.2.5,17.9-.8.5-.4,2.2-1,3.8-1.3,2.7-.6,2.9-.5,2.9,2.1,0,3.1-2,4.7-8.4,6.6-3.9,1.2-4.7,1.1-9.4-.5-5.1-1.7-9.6-2.3-9.6-1.2,0,.3,1.8,2.3,4,4.4ZM1237.1,514.3c-.7,1.4-1.3,4.2-1.3,6.2,0,2-.3,4.9-.6,6.4-.5,2.7-1.5,3.5-2.4,2.1-1-1.6-2.3-11.9-1.8-13.5.4-1.2,0-2.5-1.4-3.9-2.3-2.4-1.8-3.6.9-2.2,1.3.7,2.3.7,3.7,0,2.2-1.1,4.3-.5,4.3,1.2,0,.7-.6,2.4-1.3,3.8ZM1240,489c-.8.9-1.5,2.1-1.5,2.7,0,.6-1.3,3.3-2.9,5.9-1.6,2.6-3.4,4.8-4,4.8-1.3,0-1.5-3.2-.3-3.9.4-.3.8-1.4.8-2.6,0-3.2,3.5-8.2,6.1-8.8,3-.7,3.6,0,1.8,2ZM1241.2,472.4c-1.4,0-2.6-.3-2.6-.6,0-1.2,6.4-8.2,7.5-8.2,1.6,0,2.7,8.6,1.3,10.2-1.4,1.6-3.5,1.6-3.5,0,0-.9-.9-1.3-2.6-1.3ZM1246.8,502c-1.6,2.5-2.1,2.6-3.6.9-1.5-1.7-1.1-6.6.8-10.4.9-1.8,1.6-4.1,1.7-5.2,0-1.6.2-1.7,1.3-.8,1.9,1.6,1.6,4.7-1,9.3-2.6,4.6-2.4,6,.4,2.5,1.8-2.2,1.9-2.3,1.9-.5,0,1.1-.7,2.9-1.4,4.1ZM1248.7,480.3c-.3.5-.7.9-.9.9-.2,0-.4-.4-.4-.9,0-.5.4-.9.9-.9.5,0,.7.4.4.9ZM1253,458.1c-.8,2.5-1.7,4.6-2.1,4.6-1.2,0-.9-2.3,1-7.3,1-2.5,1.8-5.7,1.8-7.1,0-1.3.4-2.4.9-2.4,1.1,0,.4,5.7-1.6,12.1ZM1254.5,433.3c-.9,1.1-1,1.8-.2,3,.6.9.8,1.8.5,2.1-2,2-6.4-1.8-6.4-5.6,0-1.4.6-3,1.3-3.6.7-.6,1.3-1.6,1.3-2.2,0-1.6,3.3-4.2,4.4-3.6,1.3.8.6,7.9-.9,9.8ZM1254.3,401.2c-.5-.9,3.4-8.9,4.3-8.9.2,0,0,1.1-.4,2.5-1.2,4.3-3.3,7.5-4,6.4ZM1253,376.4c-1.9,0-2.2-1.4-1-3.4,1-1.6,2.7-.5,2.7,1.7,0,1.1-.6,1.7-1.8,1.7ZM1257.8,406.7c-.8-2.1-.7-2.3,1.2-1.2,1,.5,1.8,1.3,1.8,1.8,0,1.4-2.4,1-3-.6ZM1261.7,414.7c-.5.3-.9,0-.9-.8,0-.7.4-1.4.9-1.4.5,0,.9.4.9.8,0,.5-.4,1.1-.9,1.4ZM1270.1,390.3c-.3.8-.7,2.4-.9,3.4-.3,2.8-1.2,3.7-4.9,5.6-1.9,1-3.6,1.7-3.8,1.7-1,0,2.7-7.5,4.9-9.8,2.7-2.9,5.8-3.5,4.8-1ZM1261.8,384.4c0-1.5,3.1-4.3,5.9-5.2,2.5-.8,2.7-.7,2.3.8-.2.9-1.4,2.5-2.7,3.4-2.3,1.8-5.5,2.3-5.5.9ZM1273.7,366.8l-4.6,4.4c-5.2,5-7.2,5.6-6.5,2.2,0-.4-.3-1.1-.8-1.4-1.5-.9,6-5.3,9.1-5.3h2.8ZM1268.8,357.1c1.4,0,1.2,2.4-.4,3.7-.7.6-2,1.7-2.9,2.5-.8.8-2.6,2-3.9,2.9-2.8,1.7-3.1,1.8-3.8.6-1.3-2.2,7.2-9.7,11-9.7ZM1227.9,314.3c.3.7.4,1.2.3,1.2-2.1-.9-5-3.3-5-4.1,0-1.4,4,1.1,4.7,3ZM1226.3,330c-1.5,3.5-2.3,4-2.3,1.3,0-1-.5-2.9-1.2-4.2-.7-1.3-1.5-4.3-1.8-6.7-.5-3.4-.4-4.1.6-3.6,4.8,2.8,6.8,8.2,4.7,13.2ZM1222.1,308.2c.5,1.6-2.6,2.7-4.8,1.6-1.1-.5-1.8-1.3-1.7-1.8.4-1.2,6.1-1.1,6.5.2ZM1152.9,305.5c2.8-1.4,4.7-1.8,7.9-1.5,2.3.2,4.3.1,4.5-.3.1-.4,1.3-.8,2.5-1,1.9-.2,2.2,0,2,2.1-.3,2.7,1.7,4.2,5.5,4.2,1.6,0,2.5.7,3.1,2.2.5,1.3,1.5,2.2,2.6,2.2,1,0,3.1,1.4,4.8,3.1,2.4,2.5,3.1,4.1,3.6,7.9.3,2.7.4,5.4,0,6.2-.9,2.4-1.9,1.5-3.1-2.8-.7-2.3-1.9-4.8-2.7-5.5-3.1-3-6.8-5.6-10.8-7.7-3.6-1.8-4.9-2.1-9.2-1.6-2.8.3-6.4,1.1-8,1.8l-3,1.2.5-2.5c.4-2.1.1-2.7-1.6-3.5-3-1.4-2.7-2.5,1.5-4.6ZM1136.6,315c8.3-3.3,12-2.6,5.9,1.1-1.7,1-3.1,2.4-3.1,2.9,0,.7.2.7.7,0,.4-.5,1.8-1.4,3.3-1.9,1.4-.5,3.3-1.2,4.2-1.6,1.1-.4,1.5-.2,1.5.7,0,2.7,5.7,3.2,14.6,1.4,4.1-.9,4.7-.8,7.9,1.3,8.4,5.5,10.1,6.9,10,8.3h0c0,.9-.4,2.3-.8,3.3-.7,1.7-.7,1.7-1.7-.2-1.3-2.4-12.6-8.8-17.1-9.6-2.1-.4-3.8-.3-4.6.4-.7.6-1.7.8-2.1.5-1.3-.8-2.1,1.2-1,2.6,1.1,1.3.5,3.1-1,3.1-.4,0-.8-.7-.8-1.7,0-2.7-4.7-3.9-8.1-2.2-2.2,1.1-3,1.2-4.8.3-1.1-.6-2.1-1.6-2.1-2.2,0-.6-1-1.7-2.2-2.5-3-2-2.8-2.7,1.1-4.3ZM1162.4,330.2l-4-3.6,5,.5c7,.6,11.8,3.5,12.5,7.4.7,4-.4,5.1-3.2,3.1-1.2-.9-3.1-2.1-4.3-2.7-1.2-.6-4-2.7-6.1-4.7ZM1168.5,354.4c0,1.3-1.6.2-7-4.7-5.4-5-5.6-5.3-3.2-5.3,1.4,0,3.2.4,4.2.9,1.5.8,6.1,7.7,6.1,9.1ZM1134.8,325.6c2.9-.6,4.8.8,2.4,1.7-.9.3-2.6,1.3-3.8,2.2-1.2.9-2.7,1.6-3.4,1.6-2.2,0,2.1-5,4.8-5.5ZM1129.8,323.7c.6.4.6,1-.1,1.8-1.2,1.4-4.3,1.7-4.3.4,0-1.2,3.4-2.9,4.5-2.2ZM1121.6,336.7c1.3-.3,3.2-1.2,4.2-2,1.1-.9.8-.3-.7,1.7-1.3,1.7-3.3,4.6-4.4,6.4-1.1,1.8-2.2,3.2-2.4,3.2-2.6-.5-4.8-1.5-5-2.3-.4-1.3,5.5-6.3,8.4-7ZM1113.1,355c1.6.1,2.9-.2,2.9-.7,0-2,2.9-4.7,5.3-5,1.7-.2,2.5-.7,2.4-1.5-.4-1.8,2.5-4.5,4.7-4.5,1.2,0,2.1-.7,2.4-1.7.3-1,2.7-2.8,5.8-4.4,2.9-1.5,5.8-3.5,6.3-4.4.5-.9,2.5-2.2,4.5-2.7,3.2-.9,4.1-.7,9.3,1.7,6.2,2.9,6.6,4.5,1.1,4.5-2.3,0-3.7.4-4,1.3-.6,1.5-4.3,1.8-5.2.4-1.2-1.9-5.8-.9-10.1,2.2-3.6,2.6-4.5,3.8-5,6.5-.7,4.4-3.9,7.4-7,6.6-1.6-.4-3.1,0-4.9,1.3-1.4,1-3.2,1.6-4,1.4-.8-.3-2.1.4-3.3,1.6-1.9,2-8.5,3.8-9.7,2.5-2.3-2.3,3.1-5.8,8.4-5.3ZM1129.2,359.3c-.3.5-.7.9-.9.9-.2,0-.6-.4-.9-.9-.3-.5,0-.9.9-.9.8,0,1.2.4.9.9ZM1108,368.4c-.3.8-.9,1.4-1.4,1.4-1.2,0-.4-2,.9-2.4.6-.2.8.2.5,1.1ZM1101.4,385.2c.9-.8,1.9-2.8,2.2-4.5.9-4.8,3.8-7.2,8.1-6.7,2.1.2,3.9,0,4.2-.6.3-.5.2-1-.3-1-1.5,0-1.1-2.3.8-4,1-.9,1.6-2.2,1.3-3.1-.3-.8.2-2,1-2.7,1.2-1,1.6-.9,2.3.4.5.8,1.2,1.3,1.7,1,.5-.3.8,0,.8.8,0,1.6,3.2.9,3.9-.8.3-.7,1.2-1.2,2.1-1.2,1.4,0,1.6.7,1.6,4,0,2.2-.3,4-.5,4-.3,0-1.9,1.2-3.5,2.6-3.8,3.3-2.9,5.3,1.1,2.3,3.5-2.6,8-3.7,8.9-2.2.4.6.1,1.4-.5,1.8-2.8,1.7-9.6,7.4-9.6,8,0,1.5,3.4.6,3.8-1.1.3-1,.8-1.7,1.2-1.6.4.1,1.7-.3,2.8-.9,1.1-.6,4.2-1.2,6.7-1.4,6.6-.4,8.6-1.9,4.7-3.7-1-.5-2.3-2.2-2.8-3.8-.6-1.8-2-3.6-3.6-4.4-2.4-1.3-2.7-1.9-2.8-6.7-.1-3.1.3-6.3,1.1-7.9.7-1.4,1.5-3.3,1.7-4.2.3-.9,1.5-2,2.7-2.6,2-.9,2.5-.7,4.4,1.3,1.6,1.8,3,2.3,5.6,2.4,3.1,0,4.1.6,8.8,5.3,3,3,5.3,6.1,5.3,7.1,0,2.5,2.1,2.2,3.3-.4.8-1.8,1.6-2.1,4.6-2,3.2.1,4-.3,7.1-3.6,3.3-3.5,3.9-6.1,1.2-5.1-1.2.5-8.3-5.2-8.3-6.6,0-.5.4-.6.9-.3.5.3,1.2-.3,1.6-1.3l.7-1.9,2.4,1.9c2.9,2.3,4.7,1.6,2.8-1.1-1.8-2.6-1.7-3.5.5-2.8,1,.3,2.4.1,3-.4,1.4-1.1,4.9.2,4.9,1.8,0,.5,1.1.8,2.4.6,2.1-.2,2.5-.8,3.5-5.1,2.2-9.4-.3-17.4-6.8-21.2-4.5-2.6-5.7-5.3-2.5-5.3,4,0,13.6,8.1,14.8,12.5,1.1,3.9,1.1,9.3,0,10-2.6,1.6.8,6.6,4.5,6.6,1.2,0,1.6-1.3,2.1-8.3.9-11.5,0-13.7-8-19.2-5.4-3.7-6.9-4.3-12.3-4.8-4.5-.4-6.4-1-7.1-2.2-.8-1.2-.7-1.8.3-2.6,1-.9,1.6-.8,2.9.4.9.8,3,1.5,4.6,1.5,1.7,0,5.3.8,8.1,1.8,2.8,1,5.5,1.8,6.2,1.8.7,0,2.5,1.7,4.2,3.7,6,7.4,6.1,7.7,5.5,14.4-.3,3.4-1,6.6-1.4,7.2-1.2,1.6-.2,4.9,2,6.3,1.7,1.1,2.1,1,3.7-.6,1.6-1.5,2.1-1.6,4.1-.7,6.7,3.2,10.2-.9,9.5-11.2-.3-5.4-.2-5.9.8-4.4.7.9,2,2.6,2.9,3.6,1.4,1.5,1.6,2.7,1.2,6.2-.3,2.4-1,5.4-1.7,6.7-1.2,2.2-1.1,2.5.7,3.4,1.7.9,2.2.7,4.4-1.7,2.1-2.3,2.5-3.5,2.5-7.6,0-5.8-2.1-11.4-5.5-14.9-2.2-2.3-2.4-2.7-1.1-3.4,2.5-1.4,5.6,0,7.7,3.8,1.1,1.9,2.5,3.5,3,3.5,1.5,0,1.8.8,2.5,6.8.6,5.3.5,5.5-1.7,6.5-1.5.7-2.3,1.7-2.3,3,0,1.1-1,2.9-2.2,4-2.7,2.6-2.9,5.2-.4,5.2,3.1,0,6.6-2.6,8.7-6.5,1.6-3,2.8-5.2,5.2-9.2,0-.2.8.2,1.6.8,2,1.7,1.1,5.8-2.3,10.8-1.5,2.2-3.2,4.3-3.6,4.6-1.2.7-1.1,3.9.1,3.9,2.6,0,7.3-3.2,9.3-6.3,1.2-1.9,2.5-3.4,2.9-3.4,1.5,0-.7,6.3-2.6,7.7-4.3,3-6.5,5.3-5.9,6.3.9,1.5,3.2,1.3,6.5-.7,3.7-2.3,4.8-2.2,2,0-3.4,2.7-9,5.5-11.3,5.5-1.6,0-2.3.9-3.3,3.5-.7,1.9-3,6.1-5.2,9.3-2.3,3.4-4,6.9-4,8.2,0,2.8,4.9,13.8,6.1,13.8.4,0,1.2,1.7,1.8,3.8.5,2.1,1.7,5.5,2.6,7.7,3.3,7.9,3.2,9-1.5,13.5l-4.2,4-1.5-2.6c-3.3-5.4-12.5-10.2-15.3-7.9-2.1,1.7-1.6-.9.6-3.3,2.3-2.5,1.2-4.3-2.2-3.5-2.9.7-6.7,8.5-4.1,8.5.5,0,1.3,1,1.8,2.3.8,2.1,1.1,2.3,5,1.8,2.3-.3,4.6-.2,5.2.1.5.4,2.1,2.9,3.4,5.5,1.3,2.7,3.4,5.7,4.5,6.8,2,1.9,2.1,2.1.7,5.3-.8,1.8-2.2,4-3.1,4.8-2.6,2.2-11,3-15.3,1.5-3.4-1.2-7.6-5.5-6.4-6.6.3-.3,2.8.3,5.4,1.3,3.2,1.2,5,1.5,5.4.9.9-1.4-2.3-4-7-5.8-4.6-1.7-5.4-2.6-4.1-4.6.6-1,1.2-1.1,3.4-.1,1.5.6,3.4.9,4.3.8,1.3-.3.9-.8-1.7-2.4-2.3-1.4-3.3-2.6-3.3-4.2,0-2.7-2.1-3.6-5-2-2,1.1-2.4,1-3.5-.5-.7-.9-1.2-2.3-1.2-3.1,0-2.4-3.7-3.8-8.5-3.1-8.5,1.2-12.7,1-13.9-.7-1.5-2-5.3-2.1-4.5-.2.3.8.5,1.6.5,1.8,0,.7,8.5,4.7,12.3,5.7,4.6,1.2,10.7,4.2,11.6,5.7,3.2,4.9-5.3,3.7-10-1.3l-3.2-3.4-.6,2.6c-.4,1.8-1.3,2.9-3.2,3.5-1.4.5-2.6,1.3-2.6,1.8,0,1.1,3.5,2.6,4.9,2.1,1.4-.5,2.8,1.5,3.5,5.4l.6,3.4-2.1-1.5c-1.1-.8-3.1-1.5-4.3-1.5-1.2,0-2.9-.8-3.8-1.8-.8-1-2.6-1.8-3.9-1.9-1.3,0-3.4-.2-4.6-.3-1.2,0-4.1-.2-6.4-.3-3.1-.1-4.2-.5-4.2-1.5,0-2.4,3.4-4.8,6.8-4.8,3.2,0,3.2,0,1.6-1.8-1.9-2.1-3.8-2.2-8.1-.5-3.8,1.6-4.7,1.1-2.4-1.4,2.6-2.8,6.3-4.4,8.7-3.8,2,.5,2.2.3,2.2-2.2,0-2.7,0-2.7-4.9-2.8-5,0-10.2,1.6-12.9,4.1-2.4,2.1-3.8.6-2-2.2.8-1.3,2-2.7,2.6-3.2.6-.5,1.6-2.3,2.1-4.1,1.4-4.1,4.5-6.2,8.8-5.8,4,.4,4.4-1.3.8-4-2.2-1.6-2.7-1.7-5.6-.7-1.7.6-3.3,1-3.4.8-.2-.2-.4-1.7-.6-3.4-.3-3-.2-3.1,2.5-2.9,3.7.3,4.4-1,1.7-3.7-2-2-2.5-2.1-5.6-1.3-4.4,1.2-9.1,3.4-9.1,4.2,0,.4-1.7,2.6-3.9,5-2.1,2.3-4.7,6-5.8,8.1-1.7,3.3-2.1,3.7-3.2,2.6-1-1-1-1.8-.2-4.1.6-1.6,1.8-3,2.6-3.3,2-.6,6.9-6.3,6.9-8,0-2.3,2.9-6.5,4.5-6.5.8,0,1.9-1,2.4-2.2.6-1.2,1.8-2.2,2.7-2.2,2.1,0,3.1-2.2,1.6-3.4-.6-.5-2.8-1.2-4.9-1.5-3.7-.6-3.8-.6-9.8,5.5-4.7,4.8-6.8,6.3-9.4,6.8-4.8.9-14.1,10.1-14.8,14.8-.3,1.8-.8,4.8-1.1,6.5-.4,2.4-1.9,4.6-6,8.7-5.8,5.8-9.4,7.8-9.4,5.2,0-2.5,1.8-4.8,5.3-7.1,3.8-2.4,4.3-3.4,2.1-4.3-2.7-1.1-11,5.4-11,8.6,0,.6-1.4,3-3.1,5.4-1.7,2.4-3.1,5.3-3.1,6.4,0,1.1-1.8,4.4-4.1,7.3-4.1,5.3-6.5,11.6-6.6,17.3,0,1.6-.5,3.7-1.1,4.6-.9,1.4-.9,2.1,0,3.6,1.5,2.4.6,4.8-3.1,9.1-1.6,1.9-3,3.9-3,4.6,0,.6-.4,1.3-.9,1.6-.5.3-.9-1.4-1-4.6,0-2.8-.2-6.7-.3-8.6-.1-2.4.3-4,1.5-5.3,2.7-2.8,6.2-9.1,5.8-10.4-.2-.7-1.5.2-3.4,2.2-3.2,3.6-8.5,7.3-9.3,6.4-.3-.3.8-2,2.3-3.7,1.6-1.8,3.3-3.8,3.9-4.5,1.4-1.6,4.1-4.2,6.3-5.9,1.7-1.3,1.6-1.3-1.2-1.4-2.7,0-2.9-.3-2.6-2.4.2-1.4.9-2.5,1.8-2.7.8-.2,4.1-2.7,7.2-5.7,4.7-4.5,6.1-6.5,8-11.7,1.8-4.8,3.6-7.6,7.6-11.8,4.7-4.9,6.1-7,4.8-7-.2,0-1.2.8-2.2,1.8-1,1-2.5,1.8-3.4,1.8-2.2,0-10.7,8.6-11.3,11.4-.9,4.3-2,6.1-3.4,5.6-2-.8-1.6-4.9.7-7.1,1.1-1,3-3.7,4.1-5.9,1.9-3.6,2.7-4.4,4.5-4.2.3,0,1.1-1,1.8-2.3.7-1.3,3.5-4.4,6.2-7,2.7-2.5,5.6-5.9,6.4-7.6.8-1.6,2-3.4,2.8-4.1.7-.6,1.3-2,1.3-3.1,0-1.4,1.9-3.6,6.2-7.4,6.2-5.3,6.6-6.1,2.2-4.5-2.3.9-5.6,3.5-13.3,10.9-7.3,7-8,7.6-9,7.6-1.8,0-2-2.5-.3-3.9ZM1250.8,384.1c-.3.3-.5-.2-.5-1.2,0-1,.3-1.2.5-.5.3.6.2,1.4,0,1.7ZM1081.7,484.5c0,.6-1.4,2.5-3.1,4.1l-3.1,3v-3.2c0-3.5.2-3.7,3.8-4.5,1.7-.4,2.4-.2,2.4.6ZM1078.4,432.1c0-1.6,1.6-2.9,2.4-2.1.3.3-.1,1.2-.9,2-1.4,1.4-1.5,1.4-1.5,0ZM1101.4,395.3c0-.5.6-.9,1.4-.9.8,0,1.1.4.8.9-.3.5-.9.9-1.4.9-.5,0-.8-.4-.8-.9ZM1081.3,408.4c2.1-2.6,15.8-13.1,16.5-12.7.4.2.9,1.3,1.2,2.2.4,1.4,0,1.9-1.9,2.3-1.3.3-2.8.6-3.4.8-.6.2-3.7,3.6-6.9,7.6-6.5,8.1-8.1,9.4-8.9,7.4-.5-1.3,1.1-4.9,3.4-7.7ZM1076.6,437.5c1.3,0,1,1-2.1,6.1-3.1,5.1-5,6.6-5,3.8,0-1.9,5.8-9.9,7.1-9.9ZM1060.6,455.9c1-1.1,1.8-1.6,1.8-1.1,0,.6-.8,1.9-1.7,3.1-1,1.1-1.8,1.6-1.8,1.1,0-.5.8-1.9,1.7-3.1ZM1059.7,469.8c.6-.7,2-1.2,3.3-1.2,2.1,0,2,.2-2,3.9-2.4,2.2-5.6,4.5-7.3,5.2-1.6.7-5.2,1.2-7.9,1.2h-4.9s2.9-1.8,2.9-1.8c1.6-1,3.2-1.8,3.5-1.8.3,0,2.2-1.5,4.1-3.3,2.2-2.1,3.6-2.9,3.8-2.2.5,1.5,3.3,1.4,4.6,0ZM637.3,417.2c.7-.7,2.5.5,7.1,4.7,5,4.7,6.5,7.5,7.2,14,.6,4.9.5,5-1.3,4.6-1.2-.3-2.2,0-2.6.8-.6,1-.9.8-1.7-.9-.5-1.2-1.3-3.7-1.6-5.6-.3-1.9-1.7-4.8-3-6.5-2.5-3.2-5.1-10.1-4.1-11.1ZM640.7,480.3c-.8,0-1.2,1.1-1.2,3.5,0,4.6-1.5,5.4-2.3,1.2-.5-2.6-.2-4.1,1.5-7.2,1.2-2.2,2.5-4,2.9-4,.4,0,2,1.8,3.4,4.2l2.6,4.2-1.5,3.9c-1.9,5-3.5,5.2-2.7.4.6-3.7-.4-6.1-2.7-6.1ZM643,459.6c-.5-.3-1.2.3-1.4,1.3-.5,1.8-1.6,2.4-2.3,1.2-.7-1.2,0-5.9,1.5-9.2.8-1.8,1.5-4.7,1.5-6.5,0-4.8,1.6-2.6,2.8,3.9,1,5.7,0,10.6-2,9.4ZM623.8,422.3c-2.6-5.5-2.4-7,.8-6,2.7.9,10.4,11,12.3,16.3,1.6,4.5,1.7,5.3.6,9.8l-1.2,4.8v-4.5c-.2-4.3-3-12.7-4.4-12.7-.4,0-1.1.5-1.7,1-1.4,1.3-3.8.3-3.8-1.6,0-.9-1.2-4-2.6-7.1ZM636,452.1c0,1.9-1.3,2.4-2.2.9-.6-1.1.2-2.7,1.4-2.6.5,0,.8.8.8,1.8ZM632.4,441.2l-.3,2.5-1.1-3c-1.2-3.2-.8-4.6.8-3,.5.5.8,2.1.6,3.5ZM617.4,439c.6-.2,1.1,0,1.1.6,0,.5.8,1.7,1.7,2.5.9.9,2.7,4.4,4,7.7,1.3,3.3,2.1,6.8,2,7.8-.2,1.5-.9,1.1-4-2.4-2.1-2.3-4.1-5-4.5-6.2-1.3-3.4-1.4-9.7-.2-10.1ZM791,539.6c.5-1.3,2.5-2,2.5-.9,0,.5-.6,1.1-1.4,1.4-.9.3-1.3.1-1-.5ZM790.8,564.2c1.1.3,2.6-.4,4.2-2.1,1.4-1.4,3.6-3.2,5.1-4,1.5-.8,3.9-2.3,5.5-3.4,1.6-1,2.9-1.5,2.9-.9,0,1.4-5.9,7.7-10.1,10.6-2,1.4-5.1,3.4-6.8,4.3l-3.2,1.8-.5-2.4c-.6-2.9.7-4.6,3-4ZM779.5,581.4c2.7-2.7,4.5-2.1,2,.6-.9,1-2.2,1.8-3,1.8-1,0-.7-.6,1-2.4ZM775.9,593.7c.8-.8,1.5-2.5,1.7-3.7.5-3.2,2.5-3.4,2.5-.2,0,1.8-.7,3.1-2,4-2.6,1.8-3.9,1.7-2.2-.2ZM765,610.3c.7-.2,1,.1.8.8-.2.6-.9,1.3-1.5,1.5-.7.2-1-.1-.8-.8.2-.6.9-1.3,1.6-1.5ZM742,637c1.4-.3,4.4-1.7,6.6-3.2,2.3-1.5,4.9-2.5,6-2.3l2,.3-2.4,2.4c-1.5,1.5-3.4,2.4-4.9,2.4-1.4,0-3.5.6-4.7,1.3-2.5,1.4-5.3,1.7-5.3.5,0-.4,1.2-1.1,2.6-1.4ZM696.7,710.7l4-3.3-.6,2.5c-.6,2.3-.5,2.4.9,1.3,2-1.7,7.5-9.3,9.5-13.3,1.6-3.1,1.5-6-.2-6-.8,0-5.4,8.7-5.4,10.3,0,.9-3.2,4.7-3.9,4.7-.8,0-.6-4,.3-4.9,1.9-2,4.8-11.9,4.3-14.8-.4-2.6-.1-3.3,2.1-4.9,1.6-1.2,2.6-2.7,2.6-4.1,0-3.3-1.4-2.7-6.6,2.6-2.6,2.7-5,4.8-5.2,4.8-1.7,0,.2-4,4.4-9.2,4.3-5.4,4.9-6.5,4.9-10.1,0-2.3.6-4.8,1.3-5.8.7-.9,1.1-2.6.8-3.6-.6-2.5,1.1-7.6,3.2-9.4,2.5-2.3,7.1-2,11,.7,3.5,2.4,6.5,2.5,9.3.2.7-.6,4-2.5,7.3-4.2,3.3-1.7,6.6-3.7,7.3-4.5.8-.8,2.6-1.4,4.1-1.4,3,0,6.7-3.3,9.1-8.3,1.5-3.1,2.6-3.8,3.6-2.2,1,1.6,3.1.9,3.9-1.2.4-1.1,1.4-2.3,2.2-2.6.8-.3,1.4-1.3,1.4-2.3,0-2-2-2.3-5.7-.9-2.9,1.1-3.1-.9-.3-3.7,1.1-1.1,3.4-4.3,5.2-7.1,3.1-4.9,7.6-8.9,24.8-21.4,3.8-2.8,5.1-5.2,3.6-6.7-.3-.3-2.7,1.4-5.4,3.8-5,4.5-7.3,5.4-7.3,2.8,0-.9,2.2-3.1,5-5,7.4-5.2,12.6-10.1,12.6-12,0-2.2-1.1-2.1-3.1.2-.9,1-4.2,3.6-7.4,5.9-3.2,2.2-6.3,4.6-6.9,5.2-2.7,2.7-2.8.9,0-2.2,1.6-1.8,3.9-4.7,5.1-6.4,1.2-1.7,3.3-3.9,4.7-4.9,6.3-4.4,13.8-11.8,14.2-13.9.2-1.2,0-2.2-.3-2.3-.4,0-.8-.3-.8-.7,0-2.4,17.9-16,21.1-16,1.5,0,1.8-.5,1.6-2.4-.2-1.3-.6-2.6-.9-2.7-.4-.2-4.1,2.4-8.3,5.7-10.5,8.3-23.7,18.1-26.9,20l-2.6,1.6.3-3.4c.2-2.6.7-3.4,2.1-3.6,1-.1,3.8-1.8,6.2-3.7,9.9-7.8,12.6-10.2,13.1-11.4.3-.7,3-3.9,6-7.2,4.3-4.5,5.4-6.3,5.1-7.8-.4-1.7-1.3-1-7.4,6-5.9,6.7-14.8,14.9-18.8,17.1-.6.3-1.7.3-2.5,0-1.3-.5-1.3-.7,0-2.6,1.7-2.6,1.8-5.3.2-6.3-.8-.5-1.1-1.7-.8-3.6.3-2.1,1.7-4,5.2-7,5.8-5,9.4-10,8.7-12-.8-2.2-1.5-1.8-5.3,3.2-3.6,4.8-5.9,7.1-8.6,8.6-2.3,1.4-1.9.3,1.5-3.4,2.8-3.1,3-3.5,1.9-5.7-1-2-1-2.6.2-4.3.8-1.1,2.2-2.7,3.2-3.5,1.4-1.2,1.6-1.7.7-2.6-.8-.8-1.5-.9-2.6-.2-2.5,1.6-6.5,7-7.7,10.5-1.2,3.5-3.1,5.1-3.1,2.7,0-.7,1.1-3.2,2.5-5.6,3.7-6.3,5.8-13.1,4.6-15.3-.8-1.5-.7-1.9.9-2.3,1.7-.4,2.6-2,1.2-2.1-.4,0-1.6-.8-2.7-1.8l-2.1-1.7,2.3-2.7c1.8-2.2,2.1-3,1.3-4-.9-1.1-1.3-1.1-3.1,0-2.9,1.9-4.5,1.7-2.7-.3,1.8-2,1.9-4.6.3-4.6-.7,0-1.7.6-2.3,1.3-1.3,1.5-2.5,1.6-4.4.5-1.1-.7-1.1-1,.2-2.5,2.3-2.5,1.9-2.9-2.1-2.3-2.9.5-3.6.3-3.2-.7.2-.7,1.3-1.4,2.3-1.5,1.1-.1,1.9-.6,1.9-1,0-.8-1.2-1.3-6-2.2-1.9-.4-3.2-1.3-3.7-2.6-.7-2-5.7-4.4-7.1-3.5-.4.2-1.4-.7-2.3-2.2-1.8-3-2.3-3.2-3.8-1.4-1.6,1.9-2.8,1.6-4.9-1.1-1.8-2.2-2.1-2.3-4.2-1.2-2,1-2.6,1-4.5-.2-2-1.3-2.3-1.3-3.6,0-1.2,1.2-2,1.3-4.6.4-2.6-.8-3.5-.8-4.7.3-1.6,1.5-3.7,1.7-6.7.8-1.5-.5-2.1-.2-2.6,1-.9,2.4-3.1,3.8-5.6,3.6-1.8-.2-2.3.2-2.5,2-.5,3.2-1.6,4.1-4.5,3.7-2.3-.4-2.7-.1-2.7,1.8,0,2.2-1.9,4.4-4.7,5.4-1,.4-1.4,1.1-1.1,1.9.8,2-1.9,6.5-4.4,7.4-2.1.8-2.2,1.1-1.6,4.9.5,3.3.3,4.5-1.3,6.6-1,1.4-1.9,3.9-1.9,5.5,0,1.6-.5,3.4-1,4-.8.8-.8,1.6.2,3.3,1,1.9,1,2.6.1,4.1-.8,1.2-.8,2.1-.2,2.9.5.6.7,3.6.5,6.8-.2,3.2,0,7,.6,8.6.9,2.6.8,3.1-.6,4.2-1.6,1.1-1.6,1.3-.3,2.8,1.9,2.1,1.3,11.6-.8,12.8-1,.6-1.3,1.5-.9,3.2.4,1.6,0,2.8-.8,3.6-.9.7-1.2,1.9-.8,3.2.5,1.9.3,2.1-2.6,2.1-3.4,0-4.9,1.3-3.3,2.9,1.7,1.7,1.2,3.5-.7,2.5-2-1.1-2.8-.4-2.8,2.2,0,2.8-2.6,3.5-4.6,1.3-2.1-2.3-3.4-2.3-4,0-.4,1.5-.9,1.7-3.2,1.2-8.6-1.8-26-18.4-27.5-26.2-.3-1.4-.8-2.7-1.3-3-.4-.3-.8-1.7-.8-3.3,0-1.5-.9-6.3-2.1-10.5-1.1-4.2-2.6-12-3.1-17.2-1.4-12.9-3.1-16.4-11.3-23.9-6-5.5-6.9-6.7-8.2-11.3-1.5-5.5-2.6-20.6-1.5-20.6.4,0,2.1,1.6,3.8,3.5,3.3,3.7,4.1,6,5.8,17.2,1.3,8.7,1.6,9.3,3.6,9.3,1.8,0,2.2-1.3.7-2.2-1.8-1.1.6-17.3,3-20.4,1.3-1.7,2.8-1.3,4.3,1.4,1.4,2.3,1.3,2.7-1.1,7.9-3.7,7.9-4,10.5-1.6,15.2,1.6,3.2,2.6,4.1,5.1,4.6,3.8.8,5.6-.6,8.5-6.7,2.6-5.5,2.6-7.6.2-9.8-1.9-1.7-4.1-6.1-4.8-9.6-.5-2.7.6-6.7,1.8-6.6.6,0,1.4-1,1.7-2.2.3-1.2.9-2,1.3-1.8.7.4-.1,7.5-1.3,11.1-.9,2.9.4,3.8,2.6,1.8l2-1.9-.9,4c-.9,3.7-.1,7,1,4,.3-.7,2.4-5,4.7-9.5,4.4-8.3,6.3-15,4.4-15.3-3.4-.5-3.2-.6-3.5,3.9,0,.8-.4,1.5-.8,1.5-.4,0-.7-4-.7-8.8,0-4.8.2-8.8.4-8.8.2,0,1.7,1,3.3,2.3,6,4.6,6.8,9.6,3.1,18.5-1,2.4-3.7,8.9-5.9,14.5-4.4,11.1-9.7,21.6-11.5,22.6-2.5,1.5-3.2,4.3-2.3,9.6,4.1,24.3,8.7,38.4,15.6,48.4,4.2,6.2,6.6,8,12,9.3,4.6,1.1,4.8,1.1,9-1.6,8.5-5.4,10.8-14.4,7.8-30.7-1-5.5-1.2-10.9-.9-21.2.5-15.5,1.6-23.3,4.1-28.2,5.3-10.6,7.9-14.4,16.4-23.6,3.2-3.4,4.8-4.6,5.9-4.2.9.3,2.7-.2,4-1.1,3.4-2.3,9.7-5.1,14.1-6.2,8.5-2.2,10.8-2.5,19.6-2.6,7.9,0,10,.2,14.5,2,4.6,1.8,20.8,12,27.8,17.4,2.5,1.9,10.2,4.1,19.2,5.4,8.1,1.2,28.8-1.8,41-5.9,10.5-3.6,23.4-5.6,37.9-6.2,12.9-.5,14.6-.4,20.3,1.4,3.4,1.1,7.5,2.2,9.2,2.6,3.2.7,8.7,2.8,16.4,6.4,2.5,1.2,5,2.1,5.4,2.1.5,0,2.8,1,5.2,2.2,2.4,1.2,4.8,2.2,5.3,2.2,1.3,0,3-3.4,2.4-4.9-.3-.7,0-1.3.6-1.3.6,0,6.4-.2,13-.4,6.6-.2,12.5-.6,13.2-.8.7-.2,9-.6,18.5-.8,9.5-.2,21.2-1,26.1-1.7,4.8-.7,10.4-1.5,12.3-1.8,1.9-.3,6-1.3,9.1-2.2,3.1-1,5.8-1.5,6-1.3.8.8-.7,4.1-1.9,4.1-.6,0-1.9,1.3-2.9,2.8-1.3,2.2-3.1,3.4-7.4,5-17.1,6.4-17,12.7.2,12.1,8.4-.3,15.1-2.1,18-4.7,1.5-1.3,7.7-4.6,8.8-4.5.2,0,.4,2.6.4,5.8,0,4.8-.6,6.9-3.1,12.2-1.7,3.5-3.1,6.8-3.1,7.3,0,3.5,11.1,0,16.4-5.1,1.6-1.6,3-2.3,3.3-1.8.3.5.8,4.6,1.1,9.2.5,8.2.5,8.4-3.2,17.2-2,4.9-3.7,9.7-3.7,10.6,0,2.4,4,2,6.7-.6,2.3-2.2,6-2.6,9.7-.9l2.3,1.1-.5,11c-.3,6.9-1,12.5-1.9,14.9-.8,2.1-1.4,3.9-1.4,4.1,0,.1,1.1.2,2.4.3,1.8,0,3.4-1.1,6.6-4.5l4.2-4.6v3c0,7.2,4.7,31.2,6.7,34.8.2.4.9.3,1.6-.3.7-.5,1.6-.7,2.1-.4.5.3,1.5-.9,2.3-2.7,2-4.7,4.9-6.4,4.8-2.8,0,1,1.2,5.4,2.6,9.7,1.4,4.4,2.6,9,2.6,10.3,0,2,.3,2.4,2.4,2.3,1.8,0,2.8-.9,4.1-3.1.9-1.6,2.5-4,3.6-5.2,1.1-1.2,3.1-3.7,4.5-5.6q2.5-3.4,3.3-1.3c1.1,2.8.1,13.5-1.6,18.3-1.9,5.4-1.8,6.2,1.2,6.2,2,0,3.5-1,6.8-4.8,4-4.4,4.4-4.7,5.8-3.4,2.2,2,1.9,4.2-.7,6-1.6,1.1-2,1.8-1.4,2.4.7.7.6,1.5,0,2.7-.8,1.4-.7,2,.6,2.9,1.3,1,1.4,1.6.5,3.9-1.4,3.9-1.3,4.3,1.2,4.3,2.8,0,2.8,1,0,12-3.1,11.9-6,20.6-6.8,20.6-.4,0-.7-1.6-.7-3.5,0-4.5-1.3-8-3-8-1.6,0-1.6-.2-1.8,16.4-.1,11.4-.4,13.6-1.8,15.9-.9,1.4-2.2,2.9-2.8,3.2-1.7,1-.4,3.3,1.8,3.3,1.6,0,2.1.6,2.5,3.3,1.1,6.6.9,7.1-2.8,7.4-4.8.4-4.6,2.9.2,3,2.9,0,3.6.4,3.8,2,.2,1.5-.5,2.2-2.9,3.2-3.6,1.5-3.4,3.1.5,3.1,2.3,0,2.6.3,2.6,2.6,0,2.2-.4,2.6-2.4,2.8-3.3.4-3.2,2.8.2,3.4,2.5.4,2.8.9,2.3,4.4,0,.5-.9.9-1.9.9-2.5,0-2.2,2.2.4,3.4,2.5,1.2,2.9,3.2.6,4.5-1.4.8-1.3,1.1,1.3,3.7,1.6,1.6,2.9,3.3,2.9,3.8,0,1.1,4.2,6.5,8.4,10.8,1.9,2,4.1,3.1,7.6,3.8,5.3,1.1,8.1.6,12-2.5,2.3-1.8,5.9-2.3,6.8-.9.8,1.3-10,6.9-15.4,8.1-6.7,1.4-8,2.8-4.4,4.6,2.6,1.3,3.1,1.3,7.4-.3,6.4-2.4,7-2.3,6.3,1-.4,1.9-.3,3,.6,3.5,1.7,1.1,3.4,1,3.4-.3,0-1.7,3.3-3.3,7.9-3.9,2.7-.3,4.4-.1,4.8.5.3.5,1.5,1,2.6,1,2.9,0,3.5,1,1.4,2.4-1,.7-1.8,2-1.8,2.8,0,3.9-15.8,7.1-19.9,4-1.6-1.2-1.5-1.3,1.8-1.3,3.1,0,3.4-.2,2-1.2-.9-.6-3.9-1.4-6.7-1.8-2.8-.3-6.5-1.3-8.1-2.2-5.8-3.1-9.6-3.2-10.7,0-.3.8-3,1.9-6.9,2.9-6.6,1.6-8.6,1.3-5.9-.7,1.9-1.3,1.2-3.6-1.2-4.3-1.8-.5-2.2-3.1-.9-5.7,1.9-3.8,2.8-8,2-10.1-.7-1.9-4.4-5.1-5.9-5.1-.7,0,.3,4.2,2,7.7.7,1.6,1.2,3.3.9,4-.2.6-1.1-.4-2.1-2.3-2.3-4.8-5.7-7.1-9.9-6.9-2.6.2-4.1-.4-6.2-2.1-2.5-2.1-2.7-2.8-2.7-7.3,0-5.4-1.2-10.7-2.6-11.6-.5-.3-.4-3.1.4-7.5,3.4-19.1,3.5-24.4.8-32.1-.4-1.2-.9-4.1-1-6.5-.1-2.4-1.1-7.2-2.2-10.8-1.6-5.1-1.9-7.2-1.2-9.4,1.1-3.8,1-4.3-.6-4-2.3.4-3.1-4.1-1.5-8.6,1.2-3.5,1.2-4-.4-6.6-1-1.6-1.9-2.4-2.3-1.8-1,1.6-2.1,1.1-3.6-1.8-1.1-2-1.1-3-.4-3.9.7-.8.7-1.7.1-2.9-.7-1.3-.1-2.9,2.8-7.8,2-3.3,4-6.2,4.4-6.4.4-.2,1.4-1.7,2.2-3.4,1.1-2.4,1.3-3.5.5-4.7-.5-.9-.8-2.4-.5-3.3.3-1-.2-3-.9-4.5-1.9-3.7-1.7-5.5.5-6.1,1.4-.4,1.6-.7.7-1.2-.6-.4-1.7-.7-2.3-.8-1.8,0-3.8,6-4.4,13.1-.4,4.8-1.2,7.6-2.6,9.9-1.1,1.8-2.1,3.6-2.1,4,0,.4-1.2,2.6-2.7,4.8-2,3-2.5,4.6-2.1,6.3,1.1,4.2-4.7,9.7-18.8,17.9-9,5.2-10.1,4.6-3.3-1.8,9.1-8.6,12.7-12.3,12.7-13.1,0-1.2-1.6-.9-2.4.4-.4.6-1.9,1.9-3.4,2.8-1.5.9-3.9,2.7-5.4,3.9-6.7,5.7-15.3,10.7-19,11l-3.8.4,4.9-2.6c2.7-1.5,6.5-3.8,8.4-5.3,1.9-1.5,4.8-3.3,6.4-4.1,1.6-.8,2.9-1.8,2.9-2.2,0-.4,1.6-1.5,3.5-2.5,3-1.5,5.4-4.7,4.3-5.8-.2-.2-3.3,1.7-6.9,4.1-6.9,4.6-19.9,11.3-22,11.3-.9,0-1-.3,0-1.3.6-.7,1.5-1.3,1.9-1.3.9,0,6.9-5.8,6.9-6.7,0-.3.7-1.1,1.5-1.7.8-.6,1.3-1.4,1-1.7-.3-.3-2.8.9-5.5,2.6-7.1,4.7-18.9,10.3-17.8,8.5.2-.4,2.2-1.9,4.2-3.3,6.4-4.3,12-10,11.6-11.8-.8-2.9-4.1-1.8-7.2,2.3-1.6,2.1-3.6,3.8-4.4,3.8-.8,0-1.9.4-2.3.8-2,1.9-12.9,7.1-13.7,6.6-1.3-.8,1.6-3.7,5.7-5.8,1.8-.9,3.6-2.2,3.8-2.9.3-.7,2-2.3,3.9-3.5,3.4-2.4,5.3-5.7,3.2-5.7-.6,0-3.8,1.9-7,4.2-11.8,8.4-17.1,11.1-19.1,9.8-1.4-.9-1.7-.6,4.8-4.4,2.8-1.7,5.5-3.7,6-4.5.4-.8,2.8-2.6,5.2-3.9,3.6-2,6.2-4.9,6.2-6.9,0-1.2-2.6.2-10.4,5.4-8.2,5.6-17.7,10.8-19.3,10.8-.4,0-2.3,1-4,2.2-3.3,2.2-6.4,2.8-7.2,1.4-.6-1,1.2-2.5,4.2-3.2,4.3-1.1,24.2-11.9,25.5-13.9,2-2.9-.5-2.6-10.7,1.4-6.8,2.7-9.2,2.7-4.8,0,1.4-.9,2.7-2,2.8-2.5,0-.5,1.4-.9,3-.9,4.2,0,6.6-1.1,7.3-3.1.8-2.5.2-2.8-3.2-1.4-5.1,2.1-9.2,3.2-12.1,3.2-3.2,0-14.3,2.2-18,3.7-1.7.7-2.8.7-3.4,0-1.5-1.5,1.7-2.6,13.9-4.5,8-1.3,11.7-2.2,12.5-3.3,2.2-2.9,1.2-3.6-3-1.9-1.4.5-8.2,1.5-15.3,2.1l-12.8,1.1-5.1-2.2c-2.8-1.2-5.1-2.6-5.1-3.1,0-.5.6-.4,1.4.3,1.9,1.6,8.1,1.3,12.3-.5,1.9-.8,6.4-1.7,9.9-2,3.5-.3,6.4-.9,6.4-1.4,0-.5-1.3-.8-2.9-.8-8.9.4-19,1.2-21,1.6-1.3.3-2.6,0-2.9-.5-1-1.7-4-1.1-4,.8,0,2.4-1.5,2.2-2.2-.2-.8-2.5,1.6-4.2,5.9-4.2,1.8,0,5.4-.8,8-1.7,2.6-.9,6.1-1.9,8-2.3,1.8-.3,3.3-1,3.3-1.5,0-.5-1.3-.7-3.3-.3-1.8.3-7.2,1.1-12,1.8l-8.7,1.3-1.7-2c-.9-1.1-1.7-2.2-1.7-2.5,0-1.3,4.7-2.4,12.2-3,5.2-.4,8.4-1,9.1-1.8.6-.7.9-1.4.7-1.5-.2-.2-5.3,0-11.4.4-11.9.8-12.5.7-18.5-2.2l-4-1.9,6.2-.6c14.3-1.3,17.2-2.1,17.2-4.9,0-1-.6-1.2-2.4-.7-2.5.6-22.6,2.3-26.7,2.2-1.2,0-5.4-.3-9.2-.6-5.4-.4-9.1-.1-15.9,1.3-14.9,3.2-13.5,3-11.4,1.4,4.1-3,9.9-5.6,11.1-4.9.7.4,2.8.3,4.7-.2,6.3-1.6,17.4-2.3,24.1-1.5,4.2.5,7,.5,7.5,0,.5-.5,1.9-.9,3.2-.8,1.3,0,2.7-.4,3.1-.8.5-.4,2.6-1.2,4.8-1.7,3.3-.7,2.2-.8-6.2-.6-14,.4-13.5.4-23.8.3-6.4,0-11.6.5-17,1.7-9,2.1-10.6,2.2-10.1.7.2-.6,2.9-1.8,6-2.7,3.1-.9,7-2,8.8-2.5,8.5-2.5,23.4-3.8,24.4-2.3.9,1.4,2.2.6,1.9-1.2-.4-2.9-11.3-6.3-24.3-7.6-5.5-.5-6.4-.4-6.9.9-.3.8-.4,1.6-.2,1.8.3.3,8,1.2,11.7,1.3,3.4.1.5,1.1-6.5,2.3-8.2,1.4-13.2,3.6-15.3,6.9-2.1,3.1-2.9,2.8-3.4-1.3-.5-3.7-2.1-6.4-3.3-5.7-.4.2-.3,1.8.1,3.6,1.2,4.4.4,13.4-1.3,15.1-2.6,2.6-3.6.5-2.9-6.4.5-5.5.4-6.5-.8-6.5-1.5,0-1.6.6-1.7,11.1-.1,7.4-1.1,9.7-5,11.8-1.2.7-1.3-.1-1-6.8.3-6.2.2-7.5-.8-7.1-.8.3-1.5,2.5-1.9,6.1-.4,3.1-1.3,7.3-2.2,9.2-.8,1.9-1.4,3.8-1.3,4.2,0,.4-.3,1.5-.8,2.4-1.9,3.5-2.6,1.7-2.4-5.5.3-9.4-1.2-10.3-2.5-1.6-1,7-2.7,12.9-4.2,14.8-1,1.3-8.6,6.5-8.6,5.9,0-.4.5-1.6,3.9-9.4,1.5-3.6,1.9-7.8.6-7.8-.5,0-1.5,2.2-2.3,4.9-.8,2.7-2.4,7.1-3.6,9.7-1.2,2.6-1.7,4.8-1.2,4.8,1.7,0-.5,2.5-4.5,5.2-3.6,2.4-4,2.5-4.2,1-.1-.9.4-2.7,1.2-3.9,1.6-2.4,4.2-11.2,3.5-11.9-.7-.7-1.7,1-2.9,4.7-1.5,4.5-6,13.3-8.7,16.9-1.8,2.4-7.3,6.4-8.7,6.4-.4,0,2.7-4.5,7.6-10.9,2.5-3.3,3.4-5.8,2-5.8-.4,0-2.8,3.2-5.5,7.1-2.7,3.9-5.9,7.8-7.1,8.5-3.2,2-3.2,1.9-1.8,2.7.9.6.5,1.1-1.7,2.2-3.7,1.9-4.2,1.3-1.9-2.5,2.4-3.9,2.4-5,0-1.9-1.7,2.1-2,2.2-2.5.9-.4-1.3-1.1-.8-3.6,2.5-3.1,4-5.2,5.2-5.2,2.8,0-1.8-2.4-1.7-3,.2-.6,1.8-8.1,6.9-11.3,7.7-1.2.3-2.6,1.4-3.1,2.5-1.6,3.4-29.7,12.6-32.7,10.6-2.6-1.6-27.8,4.9-34.1,8.7-4.8,2.9-11.9,9.5-11.9,11,0,1.7-1.6,3.1-4,3.5-1.4.3-1.7.9-1.5,3.1.2,2.1-.2,3.1-1.5,3.9-1.2.8-1.8,2.1-1.8,3.9,0,1.9-.7,3.2-2,4.1-1.8,1.2-1.9,1.5-.8,3.3,1,1.7,1,2.3-.6,4.3-1.2,1.6-1.5,2.8-1,3.8,1.2,2.1-.6,5.9-2.7,5.9-2.1,0-2.4,2.4-.5,3.2,2.1.8,1.5,3.8-.9,4.9-2.7,1.2-2.8,2.1-.4,3.4,1.3.7,1.7,1.6,1.4,2.8-.5,2,1.6,6.8,2.9,6.9.5,0,.6,1.2.3,2.6-.6,2.9.3,3.3,3.4,1.7,1.7-.9,1.8-.8,1.2,1.4-.8,3,1.4,4,3.9,1.8,1.4-1.2,2.4-1.4,5-.8,3.9.9,14.6.9,24.1,0,8.2-.8,10,.7,2.7,2.2-2.8.6-6.8,1.4-9,1.8-2.2.5-6.6,1-9.9,1.3-4.1.3-6,.9-6,1.7,0,.6.6,1.4,1.3,1.7.7.3,1.4,2,1.5,3.8.3,3.8,1.2,4,8.6,2.1,4.7-1.2,13-.4,15.1,1.5,1.9,1.7,2.8,7.2,2,11.8-.6,3.5-.7,3.6-3.4,3.1-1.5-.3-5.1,0-7.9.8-5.5,1.4-12.3,1.6-15.1.4-1-.4-4.1-.5-7-.2l-5.2.5.6-2.3c.5-1.9.3-2.3-1-2.3-.9,0-2.3.8-3.1,1.8-2.7,3.1-4.5,1.8-5.1-3.6-.7-6.7-1.8-8.5-5.8-9.2-5.4-1.1-6.6-2-6.2-5.1.2-1.5-.1-4.9-.8-7.5-.7-2.6-1-5-.8-5.2.3-.3-.1-1.6-.8-3-1.2-2.2-1.2-2.8,0-5.1,1.5-3,1.7-5.3.5-5.3-.5,0-.9.4-.9.9,0,1.7-1.8.9-2.6-1.1-.4-1.1-1.6-2.7-2.5-3.6-1.5-1.3-1.6-2.1-1-4.8,1.1-4.5,1-5.8-.4-7.7-1.2-1.6-1.3-1.6-2.9-.2-.9.8-2.2,1.5-2.7,1.5-1.8,0,0-2.5,4-5.8ZM1010.4,624.9l1.7-.8c1-.4,2.4-.8,3.1-.8,1.2,0,1.2,0,0,.8-.7.5-2.1.8-3.1.8h-1.7ZM1016.6,619.7c.3-.5,1.4-.9,2.5-.9,1.6,0,1.7.2.6.9-1.7,1.1-3.8,1.1-3.1,0Z"/>
    <path class="st1" d="M788.6,603.1c2.5-1.2,4-2.6,4.6-4.3,1.2-3.3-.7-3.6-3.2-.5-.9,1.1-5,4.5-9.2,7.4-8.5,6-10.9,8.4-10.1,9.8.9,1.5,1.5,1.2,8-4.8,3.4-3.1,7.8-6.5,9.9-7.5Z"/>
    <path class="st1" d="M722.9,672c2.8,0,3.2.2,3.2,2,0,3.4,3.1,2.7,4.9-1,.8-1.7,2.4-3.7,3.6-4.5,1.1-.7,3.3-3.3,4.7-5.6,3.1-5,5.7-6.5,12.6-7.3,2.8-.3,7.3-1.6,10.1-2.9,2.8-1.3,7.3-3,9.9-3.9,2.7-.9,4.5-1.6,4.2-1.6-.4,0,0-.7.7-1.6.8-.8,2.1-2.5,3-3.7,1.4-1.9,1.9-2,3.4-1.1,2.4,1.5,3.8-.4,3.5-4.7-.2-2.4-.7-3.4-1.8-3.7-1.2-.2-1.5.3-1.5,2.8,0,3-1.1,4.1-4.1,4.1-.8,0-1.2-.7-1-1.9.1-1-.2-2.1-.8-2.3-1-.3-1.5.6-3.4,5.8-.4,1-.7,1-1.8,0-1.2-1-1.6-.9-2.6.5-.7.9-1.2,2-1.2,2.5,0,.4-.6.3-1.4-.4-1.2-1-1.7-.9-3.4,1.3-1.4,1.8-2.5,2.3-3.6,1.9-1.1-.4-2,0-3,1.2-1,1.3-2.9,2-6.2,2.5-6.7.9-14.9,5.5-15,8.3,0,1.6-4.4,6.5-6.2,7-1.4.4-2,0-2.3-1.2-.6-2.4-3-3-3.5-.9-.5,1.9-2,2.3-3.6.7-1.4-1.4-3.8-.3-3.8,1.7,0,3.2,3,5.8,6.5,5.7Z"/>
    <path class="st1" d="M701.3,726.3c.5,0,.9-.6.9-1.3,0-.7.3-1.3.8-1.3,1,0,6.7-12.3,6-12.9-1.3-1.3-3.2,1.1-5.7,7.4-1.5,3.8-2.8,7.2-2.8,7.6,0,.3.4.6.9.6Z"/>
    <path class="st1" d="M714,705.2c1.8,0,3-1.8,4-6.4.5-2.2,2.4-7.3,4.1-11.3,2.9-6.6,3.4-9.7,1.5-9.7-2.5,0-10.8,18.9-10.8,24.5,0,1.8.4,2.8,1.2,2.8Z"/>
    <path class="st1" d="M1076.1,606.3c0-1.7-1.4-3.2-3.2-3.2-2,0-2.8,1.6-1.5,2.9.6.6,4.7.8,4.7.2Z"/>
    <path class="st1" d="M1075.1,599.4c-.2-1.3-1-2.1-2.3-2.3-2.2-.3-2.7,1.4-.9,3.2,1.8,1.8,3.5,1.3,3.2-.9Z"/>
    <path class="st1" d="M1234.3,436.3c1,0,1.6-.4,1.3-.9-.3-.5-1.1-.9-1.8-.9-.7,0-1.3.4-1.3.9,0,.5.8.9,1.8.9Z"/>
    <path class="st1" d="M1180.3,535.6c-.3,0-1.3,1.3-2.1,3-1.1,2.3-1.3,4.5-.9,9.7.3,3.7.9,6.7,1.3,6.7.5,0,.7-2,.4-5.1-.3-3.8,0-5.9,1.2-8.3,1.5-3,1.5-6,0-6Z"/>
    <path class="st1" d="M1204.1,523.4c-4.1,0-7,1.8-5.2,3.3.6.5,2.2,1.2,3.4,1.4,3.6.7,3.9.6,5.6-.7,2.4-1.8.4-4-3.8-4Z"/>
    <path class="st1" d="M1191.3,541.8c-1.9,0-2.5,1.4-1,2.7,1.9,1.6,1.6,2.5-1.4,5.1-2.7,2.2-2.7,2.5-2.3,7.9.2,3.1.9,6.2,1.5,6.9,1.8,2.2,2.7.2,1.8-4.5-.9-4.7-.4-6.4,3.1-10.1,1.9-2,1.9-2.4.8-5.1-.7-1.6-1.8-2.9-2.5-2.9Z"/>
    <path class="st1" d="M1199.2,518.9c0-.7-.7-1.4-1.5-1.5-1.5-.3-2.1,1.6-.9,2.8.9.9,2.5.1,2.5-1.3Z"/>
    <path class="st1" d="M1190.2,529.3c1.8,2,3.2,2.6,3.3,1.3,0-1.2-5.7-11.7-6.4-11.7-1,0-.8,4.3.3,6.4.5,1.1,1.8,2.8,2.8,3.9Z"/>
    <path class="st1" d="M1187.7,396.7c0,1.3,2.8.4,3.8-1.2.5-.8.7-1.8.3-2.1-.7-.7-4.2,2.1-4.2,3.4Z"/>
    <path class="st1" d="M1202.9,541.2c-1.4.5-4.1,5.8-4.2,8.4,0,2.8,1.2,1.8,3.4-2.7,2.1-4.3,2.4-6.2.8-5.7Z"/>
    <path class="st1" d="M1208.8,520.4c.9,2.4,3,1.3,5.3-2.8,2.8-5,2.2-6.4-1.5-3.3-3.4,2.8-4.4,4.5-3.8,6.1Z"/>
    <path class="st1" d="M1097.4,479.7c1.5-1.6,2.1-4.2,3.3-14.2.8-6.7,2-13,2.7-14.1.7-1,2.4-5.3,3.7-9.3,1.7-5.1,3.4-8.3,5.4-10.3,3.2-3.2,3.5-3.8,1.6-3.8-.7,0-2,1.1-2.8,2.4-.8,1.3-2.6,4-3.8,5.9-1.3,1.9-3.1,5.3-3.9,7.5-.9,2.2-2.5,5.6-3.7,7.6-1.5,2.6-2.2,5-2.2,8.4,0,7-1.6,16.5-3.1,18.6-.7,1-1.3,2.2-1.3,2.6,0,1.4,2.4.6,4.2-1.3Z"/>
    <path class="st1" d="M1183.8,391.7c2.1,1.5,3,.1,1.3-1.9-.8-1-1.4-1.1-2.1-.3-.7.7-.5,1.3.8,2.3Z"/>
    <path class="st1" d="M1156.7,757.6c.5,0,.9-.4.9-.9,0-.5-.4-.9-.9-.9-.5,0-.9.4-.9.9,0,.5.4.9.9.9Z"/>
    <path class="st1" d="M1150.3,367.8c1.2.3,3,1.5,4.1,2.7,2.7,2.9,4.2,2.7,5.7-.8,2.5-5.8-2.6-14.3-10-16.8-4.5-1.5-6.1-1.1-7.2,1.8-1.2,3.2-1.1,3.4,2.2,5.4,2.4,1.4,3.1,2.4,3.1,4.5,0,2.1.5,2.8,2.1,3.2Z"/>
    <path class="st1" d="M1199,395.7c-1.5,0-5.3,5-4.6,6.1,1,1.6,2.2,1,4-2,2-3.3,2.2-4.2.7-4.1Z"/>
    <path class="st1" d="M1140.4,695.3c1.8.7,4.2.6,4.2-.2,0-1.4-2.4-2.8-3.9-2.2-1.7.6-1.9,1.8-.3,2.4Z"/>
    <path class="st1" d="M1076.1,612.9c1.7,1.1,3.5,1.1,3.5,0,0-1.3-1.7-2-3.3-1.4-1.3.5-1.3.7-.2,1.4Z"/>
    <path class="st1" d="M1123.5,665.1c0,7.4.1,14.7.4,16.1.3,1.5.5,4.7.5,7.3,0,2.6.3,4.6.7,4.6,1.4,0,2-4.3,1.4-10.5-.5-5.1-.3-6.3,1.2-8.2,2-2.5,2.2-3.9.8-4.3-.6-.2-.5-1.2.4-2.9,1.7-3.3,1.8-4.8,0-4.8-.7,0-1.3-.4-1.3-.8,0-.4.6-1.3,1.3-1.9,2.1-1.7,1.6-3.4-1.1-3.7l-2.4-.3,2.4-2.4c2.9-2.9,3.1-4.2.4-4.2-1.7,0-2.1-.5-2.1-2.7,0-2.9-1.4-4.9-2.7-4.1-1.4.9-2.2,6.7-1.1,8,.6.8.9,5.9.9,14.7Z"/>
    <path class="st1" d="M1122.5,382.6c-1.2-.4-2.6.2-4.5,1.9-4.2,3.9-5.2,6.5-5.3,14,0,5.9.2,6.7,1.5,6.4,2-.4,3.7-3.9,3.8-7.8,0-2.2,1-4.5,3.1-7.5,3.6-5,3.8-6.2,1.3-7Z"/>
    <path class="st1" d="M1226.4,397.7c-2,.5-2.1-1.1-.3-3.4.7-.9,1.3-2.8,1.3-4.2,0-3.7-2.4-2.7-5,1.9-2,3.6-2.1,7.2-.2,7.2,1.3,0,.9,1.7-1.1,4.4-1,1.4-1.6,3-1.3,3.5,1.1,1.7,2.7,1,6-2.9,3.5-4,3.7-7.2.5-6.4Z"/>
    <path class="st1" d="M1233.8,365.9c-1.3-.2-1.9.2-1.9,1.1,0,.9.8,1.4,2.3,1.4,2.8,0,2.5-2.1-.4-2.5Z"/>
    <path class="st1" d="M1204.7,395.8c-1.5.3-3.3,4.8-2.4,6.1.9,1.4,2.2.8,3-1.5,1.3-3.4,1.1-4.9-.6-4.6Z"/>
    <path class="st1" d="M1238.2,393.1c.3,1,0,2-.4,2.3-.5.3-.4,1,.2,1.8.7.9.7,1.3,0,1.2-1.1,0-1.4,2.8-.4,3.8.3.3,1,.2,1.5-.3.5-.5,1.7-.9,2.6-.9,1.3,0,1.5-.4,1-1.5-.3-.8-.8-3.4-1.1-5.7-.2-2.4-.9-4.3-1.7-4.6-1.5-.6-2.4,1.5-1.8,3.9Z"/>
    <path class="st1" d="M1231.4,377.3c0-1.7-2.6-3.1-4.4-2.4-1.5.6-1.5.7,0,2.4,1.7,1.9,4.4,2,4.4,0Z"/>
    <path class="st1" d="M1188.4,373.9c1.8,1.5,4.9,4.5,6.9,6.5,2.4,2.4,4.7,3.9,6.6,4.1,9.2,1.4,9.3,1.4,12.7-1.3,3.7-2.9,5.1-2.9,5.3.2,0,1.2.2,2.6.2,3.2,0,.6.7,1.1,1.4,1.1.7,0,1.3-.5,1.3-1.1,0-.6.6-2.2,1.3-3.6,1.6-3.1.9-6.7-1.4-6.7-.9,0-1.7-.6-1.7-1.3,0-.7.6-1.3,1.3-1.3,1.7,0,1.7-1.2-.1-4.7-1.8-3.6-8.8-12.3-10.7-13.4-.8-.4-1.9-1.4-2.4-2.1-.7-.9-1.7-1.1-3.3-.7-3.1.8-2.9,2.1.5,3.6,3.1,1.3,6.5,4.6,5.7,5.4-.3.3-2-.3-3.9-1.2-4.8-2.4-11.4-4.1-13.3-3.4-1.4.6-1.4.8.5,2.3,1.1.9,2.6,1.7,3.3,1.7.7,0,1.2.3,1.2.7,0,.4-2.2.7-4.9.8-4.9.1-7.5,1.3-7.5,3.4,0,1.5,4,2.4,7.2,1.7,2.5-.5,2.5-.5,2.5,3,0,1.9-.4,3.8-.8,4-.4.3-2.6-1.1-4.7-3.1-2.5-2.2-4.5-3.3-5.4-3-2.2.8-1.7,2,1.8,5.1ZM1214.7,370.2c.8,1.5,1.2,3.1,1.1,3.6-.4,1.2-5.9-5.4-5.9-7.1,0-1.9,3.3.4,4.9,3.4ZM1207.7,374.8c3-1.5,3.1-1.5,2.8.8-.3,2.2-2.5,3-4,1.4-.8-.8-.5-1.3,1.2-2.2ZM1203.1,367.7c.7-.7,3.2.4,3.2,1.4,0,1.5-2.7,1.9-3.2.5-.3-.7-.3-1.6,0-1.9Z"/>
    <path class="st1" d="M1231.4,362.1c2.3,1.4,2.8,1.5,4,.4.7-.7,2.1-1.8,3.1-2.5,1.7-1.2,1.7-1.3.2-2.2-.8-.5-1.5-1.9-1.5-3,0-2.1-1.9-3.1-5.9-3.1-1.4,0-2,.5-2,1.8,0,1.3.8,1.9,2.8,2.4l2.8.6-3.1,1c-3.8,1.3-3.9,2.6-.4,4.7Z"/>
    <path class="st1" d="M1139.9,519.5c-1.9-1.6-2.6-10.4-.9-11.4,1.8-1.1.2-6.6-2.3-7.7-1.2-.5-2.2-1.7-2.2-2.7,0-1.8-2-4-2.9-3.1-1.4,1.4-.3,4.1,2.9,7.2l3.5,3.4-1.3,4.3c-2.1,6.7-1.8,9.7,1.1,11.3,4,2.2,5.3,1.3,2.1-1.4Z"/>
    <path class="st1" d="M889.3,736.5c2-.8,3.3-3.5,1.6-3.5-1.1,0-4.6,2.7-4.6,3.6,0,1,.2,1,3,0Z"/>
    <path class="st1" d="M892.1,743.2c.8-.3,1.7-.5,2.1-.5.9,0,2.1-4.4,1.4-5.1-.7-.7-4.9,3.4-4.9,4.9,0,.8.5,1.1,1.4.7Z"/>
    <path class="st1" d="M1152,518.3c-.5-.6-1-2.7-1.1-4.7-.2-4.3-1.6-6.1-3.6-4.5-1.5,1.2-1.9,3.5-.6,3.6.4,0,1.3,1.2,1.9,2.7.9,2.2.9,3.1,0,5.1-2.9,6.2-2.8,9.7.6,13.6,2.3,2.7,2.8.8.7-3l-2-3.6,2.5-4c1.9-3,2.3-4.3,1.6-5.1Z"/>
    <path class="st1" d="M875.5,707.3c.4-.2,2.8-1.2,5.2-2.3,8-3.5,8.3-3.8,4-3.2-4.3.5-8.9,2.8-9.5,4.7-.2.7,0,1,.4.8Z"/>
    <path class="st1" d="M1165.9,469.6c-.3-.9,0-2.9.8-4.4,1.7-3.2,1.7-3.6.2-3.6-1.3,0-3.4,6.5-2.6,8.5.7,1.9,2.2,1.4,1.6-.5Z"/>
    <path class="st1" d="M1124.8,470.8c-2.4-1.7-2.9-1.3-4.1,3.9-1,4.2-.7,7.2,1.3,10.1,1.7,2.5,1.4,3.8-1.1,6-3.1,2.6-3.8,8.1-1.8,13.6.8,2.3,2.2,4.7,2.9,5.3,2.2,1.8,2.3.6.3-3.3-2.7-5.2-2.4-9.5.8-13.9,2.6-3.6,2.7-3.7,1.4-7.4-1.5-4.3-1-10.3,1-11.9,1.1-.9,1-1.2-.7-2.4Z"/>
    <path class="st1" d="M1227.5,662.2c0,.8,1.1.6,5.1-1.3,2.1-1,3.7-2,3.4-2.3-.5-.5-8.5,2.9-8.5,3.6Z"/>
    <path class="st1" d="M1172.4,502.6c0-.5-.8-1.9-1.7-3.1-.9-1.2-1.7-3.1-1.7-4.1,0-1.1-.6-2.6-1.4-3.3-1.5-1.5-4.8-1.9-4.8-.5,0,.5.6.9,1.3.9,1.9,0,2.6,1.7,1.3,3.1-.9,1-.5,1.7,1.7,3.8,1.5,1.4,2.7,3.1,2.7,3.7,0,.6,1.1,2.3,2.4,3.6,1.3,1.4,2.9,2.5,3.5,2.5,1.7,0,1.5-.6-1-3.3-1.2-1.3-2.2-2.8-2.2-3.3Z"/>
    <path class="st1" d="M1164.5,535.3c1.8-1.3,2.1-4.1.4-4.7-1.3-.4-4.9,5.2-4.9,7.8,0,1.5,1,3.1,2.7,4.6,3.2,2.7,4.5,2.3,1.8-.7-2.4-2.6-2.4-5.4,0-7.1Z"/>
    <path class="st1" d="M1155.7,495.6c-.5-3.5-2.1-5.1-2.9-3-.8,2.1.7,9,2.4,11,.9,1,2.1,1.7,2.8,1.4,1.6-.6,1.5-1.2-.3-3.8-.8-1.2-1.7-3.7-2-5.6Z"/>
    <path class="st1" d="M1170.7,483.7c0-1-1.7-2.2-2.3-1.5-.3.3-.2.9.1,1.4.7,1.2,2.2,1.2,2.2.1Z"/>
    <path class="st1" d="M863.9,681.8c-1.2,0-3.9,3.3-3.9,4.8,0,.5,2,3.2,4.5,6,4.7,5.4,6.5,6.2,7.4,3.4.7-2.2-.7-4.9-3.5-6.7-1.3-.8-2.4-2.6-2.7-4.4-.3-1.6-1.1-3-1.7-3Z"/>
    <path class="st1" d="M1251.9,664.7c5.4,3.5,7.2,4.1,7.2,2.1,0-3.4-10.3-10.8-12.3-8.9-1.5,1.5-.2,3.2,5.1,6.7Z"/>
  </g>
  <path class="st0" d="M1238.6,452.6c-.6.2-1.2,2.6-1.5,5.3-.6,5.4-1.5,6.4-5.6,6.4-1.6,0-3.4.7-4.3,1.7-1.8,1.9,0,2.2-22-4.3-14.4-4.3-15.1-4.8-11.4-8.5,2.2-2.2,2-2.3-2.6-2.9-5-.6-6.6-1.6-7.1-4.4-.6-3.1-3.1-6.2-3.7-4.7-1.2,2.8-3.6-.9-5.4-8.3-.5-2.1-1.6-5.8-2.3-8.2-1.3-4.3-1.3-4.5.5-7,1-1.4,2.6-3.1,3.4-3.7.8-.6,1.7-1.9,2-2.9.4-1.7,0-1.9-5-2.4-4.9-.5-5.6-.8-6.7-3.1-2.4-4.6-6.3-4.9-6.4-.4,0,3.3-1.4,4.3-5.9,4.3s-4.7.5-5.8,1.6c-1.5,1.5-1.4,1.6,1.3,3.9,3.4,2.9,3.8,2.5-10,9.6-5.9,3-11.4,5.9-12.4,6.4-.9.5-5,2.4-8.9,4.3-4,1.8-10.2,4.8-13.9,6.5-8.6,4.1-13,5.6-16.1,5.6s-2.8-.3-5.7-7.9c-1-2.6-2.6-3.1-2.7-.8,0,.8-.9,3.2-1.9,5.3-1.8,3.7-2,3.8-5.7,3.8-5.2,0-5.6,2.1-.9,5.2,3.9,2.6,4.3,4.5,2.2,10.6-1.7,4.8-.6,6.1,2.9,3.6,1.4-1,2.7-1.6,2.9-1.4.2.2-.5,4.5-1.6,9.5-5,23-5.6,24.1-8.1,15.5-1.9-6.5-3.5-6.1-4.9,1.3-.7,3.3-1.4,6.2-1.6,6.4-.2.2-3.5.6-7.4.9l-7,.4-.2,2.7c-.2,2.1.1,2.8,1.5,3.1,2.4.6,2.2,2.5-.2,2-1.1-.2-4.4-.6-7.5-.9-9.3-.9-32.4-3.8-40.5-5.1-4.2-.7-12.3-1.7-17.9-2.2-17.9-1.5-52.4-6.4-53.5-7.5-.4-.4.9-2.7,2.8-5.2,3.9-5.3,4.4-7.3,1.5-6.3-1.1.4-4.5.7-7.7.7-6.5,0-8.2-1.2-8.2-5.6s-.8-3.3-1.8-4.6l-1.8-2.3-2.1,2.2c-1.1,1.2-2.3,3.7-2.6,5.4-.9,5.8-1.4,6.2-8,6.2s-5.9.3-5.9.8c0,2.1,1.3,3.7,4.2,5.2,5,2.6,5.7,3.9,3.2,6.2-1.9,1.8-10.9,8.6-21.1,16-5.2,3.8-47.2,35.2-54.6,40.9-3.1,2.3-9,6.7-13.2,9.8-4.2,3-8.7,6.3-9.9,7.3-3.4,2.7-4.8,2.2-5.9-1.9-2.5-9.1-4.5-11-5.5-5.1-1.4,8.4-1.9,9.4-5.1,10-1.6.3-4.9.3-7.2,0-4.2-.6-4.3-.5-4.3,1.6s1.2,3.2,4.4,6l4.4,3.8-2.4,7.5c-1.6,5.2-2.1,7.6-1.4,7.9.5.2,1,.9,1,1.5,0,2.3,2.1,1.2,6.7-3.5,4.5-4.6,4.6-4.6,6.9-3.4,3,1.5,6.7,5.9,7.4,8.6.5,2.2,2.4,2.8,3.1,1,.2-.6,0-4.2-.5-8.1-.6-4.7-.6-7.3,0-7.9,1.2-1.2,22.2-4.3,59.1-8.6,19.1-2.3,24.4-2.5,24.1-.9-.1.6-.3,3.7-.5,6.8-.2,4.5-.8,6.7-2.8,10.4-1.4,2.6-5.2,9.7-8.4,15.8-3.2,6.1-6.9,12.8-8.2,15-1.3,2.1-2.9,5.1-3.4,6.6-1.1,3-2.5,3.6-2.5,1s-3-2.2-4.6.2c-.7,1-1.3,3.1-1.3,4.6,0,3.4-1,4.1-6.5,4.1-4.9,0-7.2,1.4-6.5,3.8.3,1.1,1.6,1.8,4.4,2.3,4.5.8,4.4.6,3.2,10.3-.6,5.3-.6,5.4,1.2,4.4,1-.5,2.6-1.8,3.6-2.7l1.7-1.8,1.9,4.2c1.6,3.4,6.4,15.9,14.5,37.8,1.8,4.9,1.6,6-1.3,5.4-2-.4-2.7,0-3.9,1.7-1.8,2.7-1.2,3.7,3.1,5.4l3.4,1.4-.6,6.3h0c-.7,7.7.3,8.2,5.6,2.7l3.5-3.6,2.1,2.7c2.3,3,5.4,3.6,5.5,1.2,0-.8,0-3.5,0-6-.2-3.9.1-4.7,2.3-6.8,1.3-1.3,3.2-2.8,4.1-3.3,2.9-1.6.6-2.9-5.1-2.9h-5.4l-1.4-4.7c-1.6-5.5-3.3-6-5.1-1.7-1.2,2.8-3,4.1-3,2.1s-1.2-3.7-2.6-7c-2.5-5.8-3.1-7.3-5-11.9-2.5-5.9-8.6-25.6-8.1-26.1.3-.3,2.1,1.1,3.9,3.1,1.9,2,3.7,3.6,4.1,3.6s.5-3.4.3-7.5c-.4-7.3-.4-7.5,1.8-8.9,1.2-.8,2.7-2.3,3.2-3.3,1.2-2.3,0-3.3-4.5-3.3-1.8,0-3.2-.2-3.2-.5,0-1.3,9.7-21,17.5-35.8,2.7-5.2,6.7-12.5,8.7-16.4l3.7-7,2.3,1.2c1.3.7,3.2,2.2,4.2,3.4,1.1,1.2,2.3,2.2,2.8,2.2,1.1,0,1.1-2.2,0-4.4-.5-.9-.7-2.2-.5-2.8.5-1.4,2.1-1,29.5,5.9,25.3,6.4,23.7,6,35,9.4,5.4,1.6,12.3,3.6,15.3,4.3,5.7,1.3,13.2,3.4,23,6.4,3.1.9,9.2,2.7,13.6,3.9,9.3,2.6,18.5,5.3,23.5,6.8,1.9.6,6.3,1.9,9.8,2.9,3.5,1,12,3.6,18.8,5.7,6.8,2.1,12.8,4,13.4,4.2,1.6.5,1.3,1.6-1.2,4.1-1.9,1.9-2.1,2.4-1.1,3.6.6.7,1.6,1.1,2.3.9,1.4-.5,10.5,3.9,12.1,5.8,1.2,1.5,1.7,14.4.6,17.5-.6,1.8-.5,2,1.3,1.7,1.3-.2,2.7-1.5,3.9-3.7,1-1.9,3-4.7,4.3-6.3l2.4-2.8,7.7,4.8c10.9,6.7,12.4,6.4,8.5-1.6-3.6-7.4-2.8-8.4,4.7-6,5.6,1.7,38.6,13.9,54.6,20.1,3.5,1.4,10.7,3.9,16,5.6,9.4,3,21.9,8.3,22.6,9.5.9,1.4-1.4,11.1-3.4,14.6-1.2,2-2,3.9-1.8,4.1.6.6,7.4-6.1,7.4-7.5,0-1.8,3.2-5.3,4.5-4.8.6.2,2.4,2.8,3.9,5.6,1.9,3.6,3.3,5.2,4.4,5.2,2,0,2,0,.4-4-.7-1.7-1.3-4.9-1.3-7.2,0-4,.1-4.2,3.8-6.3,4.3-2.5,5.6-3.8,6-6.2.3-1.9-.2-2.1-8.4-3.2-3.7-.5-4.3-.9-5.3-3.4-.6-1.6-1.2-3.6-1.2-4.6,0-3.2-2.3-1.7-4.6,3l-2.3,4.7-5.7-.6-5.7-.6,1.6,1.8c2.1,2.4.8,2.3-5.7-.2-7-2.7-22.7-8.7-29.6-11.2-3-1.1-11.3-4.1-18.3-6.7-20.2-7.3-25.9-9.5-33.5-12.5l-7.1-2.8,5.6-5.7c3.1-3.1,5.3-5.9,4.9-6.2-.4-.3-4.4-.1-8.8.3-4.4.4-8.3.5-8.7,0-.4-.4-.3-4.3.2-8.7.5-4.4,1.3-11.9,1.8-16.5.5-4.7,1.2-11.1,1.7-14.3.5-3.2.8-7.1.8-8.7,0-3.7,1-4.3,4.3-2.7,1.4.7,2.8.9,3,.5.2-.4-.2-3.3-1-6.5l-1.4-5.7,3.6-3.2,3.6-3.2-2.9-.5c-1.6-.3-4-.6-5.4-.7-2-.2-2.6-.7-2.8-2.4-.7-6.3-1.2-7.7-2.7-7.7s-2.6,1.6-2.6,4.3-.2,1.6-.5,1.6c-1.8,0-38.3-35.4-39.6-38.4-1.5-3.7-.4-6.4,3.8-9.6,2.1-1.5,3.8-3.2,3.8-3.8,0-1.8-2.8-2.7-7.1-2.2l-4.2.5.7-2.9c.4-1.6.9-4.4,1.3-6.3,1.3-7.1,5.3-23,6.1-24.4,1-1.9,1.6-1.9,4.1-.2,2.6,1.8,3.3.8,1.6-2.2-.8-1.3-1.5-3-1.5-3.7,0-1.6,10.3-11.7,11.9-11.7s25.9-12.3,43.3-21.1c4.8-2.4,9.1-4.4,9.7-4.4s.8,1.4.4,4.7c-.5,4-.4,4.8.9,5.3,1.5.6,2.4-.2,6.2-5.5,1.6-2.2,1.7-2.2,3.9-.8,3.1,2,6.6,9.4,11.3,23.6.3,1-.8,1.6-5,2.5-3,.6-4.9,1.3-4.3,1.5.6.2,1.1,1.1,1.1,1.9s1.3,2.6,3,4c2.8,2.3,2.9,2.6,2.1,5.8-1.4,5.8-1.2,7.1,1.2,6.6,1.1-.2,3.1-1.5,4.4-2.9,1.3-1.4,2.8-2.5,3.3-2.5s1.9,1.5,3,3.4c2,3.3,4.2,4.5,4.2,2.4s-.7-2.9-1.4-5.1c-.8-2.2-1.2-4.3-.8-4.6.5-.6,13.2,2.1,19.7,4.1,1.4.4,6.6,2,11.5,3.4,4.9,1.4,10.2,3,11.7,3.4,3.6,1.1,3.8,1.6,3.8,8.1,0,3,.3,5.5.7,5.5.9,0,3.3-2.3,5.3-5.1,1.8-2.6,5-1.9,8.4,1.9,3.7,4.1,4.8,2.1,2-3.9l-2.2-4.8,1.6-3.6c.9-2,2.7-4.6,3.9-5.7,3.4-3.1,2.9-4.3-1.6-4.3s-3.8-.4-3.8-1.1c0-1.4,8.6-21.4,13.4-31,3.8-7.7,8-13.1,10.2-13.1s2.4,1.3,4,3c3.6,3.7,4.4,3.8,3.6.2-2-9.5-1.3-12.1,3.8-14.7,3.7-1.9,3.1-3-1.7-3s-4.4-.2-5.1-2.3c-2.7-7.7-5.9-9.1-7-3-.9,5.1-1.1,5.3-5.8,5.3s-4.4.4-5.1,1.6c-.7,1.3-.4,2.1,2.1,4.2,4.2,3.7,4,7-.9,17-2.2,4.3-4.2,8.9-4.6,10.2-1.2,3.7-7.3,17.3-9.4,20.9l-1.9,3.2-2.1-3.1c-1.1-1.7-2.5-2.9-3.1-2.7ZM880.7,717.3c1.1-2.9,4.5-9.2,4.9-9.2,1.3,0,4.4,2.9,4,3.8-.2.6,0,1.9.5,2.9,1.2,2.3,0,2.3-2.1,0-2.4-2.7-4.5-2.2-4.9,1.1-.2,1.8-.8,2.9-1.8,3.1-1.2.2-1.4,0-.7-1.7ZM878.6,709c.7,0,1.3.4,1.3.8s-.4.9-.8.9-1-.4-1.3-.9c-.3-.5,0-.8.8-.8ZM867.3,645.2c-.6.6-1,1.7-1,2.6,0,1.2-.7,1.5-3.7,1.5s-3.9-.4-4.8-2.1c-.6-1.2-1-2.3-.8-2.4,1.3-1,6.8-2,7.2-1.4.3.4,1.3.8,2.3.8s1.6.2.8,1ZM1234.2,674.5c1.2-1.6,1.3-1.6,3,.3,1.4,1.5,2.4,1.8,4.3,1.5,3.1-.6,3.2.9,0,2.1-1.3.5-3.4,1.5-4.7,2.2-2.2,1.2-2.3,1.1-2.3-.8s-.4-2.4-.8-2.8c-.5-.5-.3-1.4.4-2.5ZM1122.5,558.6l1-2.5,1.4,2.7c.7,1.5,1.1,3.3.9,4-.7,1.7-3.4,1.5-3.9-.3-.2-.8,0-2.6.6-4ZM908.6,486.4c2.3,0,3.7-1.6,3.8-4.2,0-2.6,2.1-5.5,3.3-4.8.5.3.9,1.8.9,3.3,0,1.5.6,3.5,1.3,4.4,1,1.4,1.6,1.5,3.2.7,2-1,8.3-1.9,8.3-1.1s-1,1.4-2.2,2.7c-1.8,1.9-2.2,3.1-2.2,7.5,0,4.9-.1,5.2-1.6,4.4-.9-.5-2-1.6-2.5-2.6-1.4-2.6-3.5-2.1-7.5,1.7-2,1.9-4,3.4-4.5,3.4-1,0-.4-4.8,1-8.8.8-2,.6-2.7-1.1-4.5-1.9-2-1.9-2.1-.3-2.1ZM805.1,579.5c-3,2.9-4.2,4.7-3.7,5.3.4.5,1,2.2,1.3,3.7.6,3.3-.8,3.7-3.3,1.1-2.1-2.3-2.4-2.2-7,1.3-6.6,5-7.8,3.8-3.7-3.7,2.2-4,2.6-7,1-7s-5.3-4.2-4.8-5.1c.7-1.1,6.4-1.2,6.4,0s.6.8,1.2.8c1.5,0,3-2.6,3-5.1s2.1-1.4,3.7,3.3c1.7,4.7,2.6,5.4,3.3,2.7.3-1.3,1.2-1.7,3.7-1.7h3.3s-4.5,4.4-4.5,4.4ZM903.4,570.3c-.8,1.2-1.2,2.6-.8,3.2.4.7-.2.8-2.2.4-2.3-.5-3.1-.3-4.4,1.4l-1.6,2,.5-2.3c.4-1.9,0-2.7-2-4.2-2.8-2.1-2.7-3.3.4-3.3s2.1-.4,2.1-.9.4-.8,1-.8,1.5-.7,2.1-1.5c1.1-1.4,1.1-1.4,1.2,0,0,.8,1.1,2,2.4,2.5,1.3.6,2.5,1.1,2.6,1.2.2,0-.4,1.2-1.1,2.3ZM1124.3,630.1c2.5-.8,5-1.2,5.4-.9,1.3.8-.8,3.5-4.6,6.1-3.4,2.3-3.5,1.8,1.1,11.6,1.5,3.1,2.6,5.9,2.6,6.2,0,1.4-2.6,0-6.8-3.8-2.6-2.3-5.3-4.2-6-4.2-.7,0-2.7,1.5-4.4,3.4-1.7,1.9-3.5,3.4-3.9,3.4s-.6-2.1-.3-4.9l.4-5-4.8-2.9c-2.6-1.6-4.8-3.4-4.8-3.9s3.1-2.1,6.8-3.4c6.7-2.4,6.8-2.5,6.5-5.1-.5-4.2.6-5.1,2.7-2.3.9,1.3,1.9,3.4,2,4.6.4,2.7,2.4,3.1,8.1,1.3ZM1083.6,524.9c1.3-.7,4.1,1.8,17.7,15.3,13.9,13.9,15.8,16.2,13.9,16.2s-3.3,1.3-3.3,3.5,1.3,1.3,3,2c3.4,1.4,4,4.1,1.6,8.1-1.8,3.1-1,5.5,1.8,4.9,2.1-.4,2.1-.3,2.1,4.4,0,2.6-.4,6.3-.8,8.2-.4,1.9-1.2,7.8-1.7,13.2-1.7,17.4-2.3,19.2-4.2,12.8-1.4-4.6-3.3-4.5-6.3.2-.9,1.5-1.5,4-1.5,7s-.2,5.2-.5,6c-.6,1.5-1.8,1.7-3.7.6-.7-.4-4.9-1.7-9.4-2.9-4.5-1.2-13.5-3.8-20-5.8-18.3-5.4-25.7-7.5-34.1-9.8-12.4-3.4-15.9-4.4-21.7-6.2-3-1-10.2-2.9-15.8-4.4-5.7-1.4-12.4-3.4-15-4.3-4.7-1.6-12.5-3.8-36.9-10.4-7-1.9-18-4.9-24.3-6.7-17.8-5.1-18.6-5.6-13.7-8.4,4.6-2.6,2.9-5.3-3.2-5.1-3.7.1-4.8-1-6.1-6.1-.8-3.2-1.5-4.3-2.7-4.3s-2,.8-2.9,6.1c-.7,4-1.7,4.7-6.8,5.3-2.3.3-4.4.7-4.6.9-.3.2.4,1.9,1.4,3.7l1.9,3.3-2.8.5c-1.5.3-8.7.9-16,1.4-7.3.5-13.8,1.1-14.5,1.3-2.8.8-25.7,3.8-34.9,4.7-9.8.9-12.1.6-9-1.1,2.4-1.3,7.2-6.3,7.2-7.4s-1.5-.9-3.5-.9-3.4-.4-3.2-.9c.4-1.1,9.6-8.3,18.6-14.5,7.6-5.3,21.9-15.9,24.3-18.1.9-.9,5.2-3.9,9.4-6.8,8.4-5.6,15.2-10.8,25.1-18.9,7.5-6.1,14-10.7,15.3-10.7s.9,1.3.9,3c0,2.7.2,3,2.5,3s3.5-1,6-3.4c1.9-1.9,4-3.4,4.6-3.4.6,0,2.8,1.5,4.8,3.4,2.1,1.9,4.6,3.4,5.8,3.4,2.3,0,2.4-.2.7-5.6-1.3-4.4-.7-5.9,2.1-5.1,1.7.5,13.9,1.9,31.2,3.4,15.9,1.4,24.1,2.4,54.9,6.2,20.2,2.6,37.7,5,41.5,5.9,1.8.4,1.8.7,1.4,8-.4,6-.3,7.6.7,7.6,1.6,0,5-3.4,4.6-4.6-.2-.6.8-2.1,2.2-3.4,2.4-2.3,2.7-2.4,5.3-1.3,1.5.6,4.2,2.6,6,4.4,2.6,2.6,3.6,3.1,4.8,2.4ZM1081.1,503.5c0,.5-1.5,1.8-3.3,3-3.8,2.4-4.9,3.8-3.7,4.6.5.3,1,1.6,1.3,2.9l.4,2.4-2-1.8c-1.7-1.6-2.1-1.7-3.7-.6-1,.7-2.6,2.2-3.5,3.5-2.7,3.4-3.5,2.9-2.9-1.9.5-3.5.3-4.6-1.3-6.8-1-1.4-2.4-2.6-3-2.6-1.2,0-3.5-2.3-2.9-2.9.2-.2,1.8-.6,3.5-.9,2.6-.5,3.2-.3,3.2.8s.4,1.4.9,1.4c1.1,0,2.5-3.7,2.5-6.5s1.4-1.9,2.9,1.7c.6,1.5,1.7,3.4,2.3,4.3,1.1,1.4,1.4,1.4,3.7.2,2.9-1.5,5.5-1.7,5.5-.5ZM1083.6,456.8c-2.6,2.2-5,4-5.3,4-.9,0-.6-1.2.7-2.9.9-1.2,1-2.2.4-3.8-.6-1.6-.5-2.4.3-2.9.6-.4,1.1-1.6,1.1-2.6,0-3,1.7-2.8,2.1.4.3,2.3.9,2.9,2.9,3.2l2.5.4-4.7,4.1ZM1166.4,419.1c0,.5-.7.8-1.7.8s-1.9.4-2.2.8c-.3.5-1.3,1.3-2.3,1.8-1.6.9-1.7.7-1.2-1.7.6-2.9-.7-6.1-2.6-6.1s-1.3-.3-1.3-.6,2.9-.6,6.5-.4c4.8.2,6.8,0,7.7-1,.7-.7,1.9-1.3,2.7-1.3s.2,1.2-2.2,3.4c-2,1.9-3.6,3.8-3.6,4.3ZM1176.2,465.1c-1,.8-1.3.8-1.3-.3,0-1.6,1.4-2.6,2.1-1.5.3.4,0,1.2-.8,1.8ZM1180.2,460.6c-2.5,1.3-2.7,1.3-2.7-.2s-.8-1.7-1.7-2.1c-3.7-2-.9-5,3-3.3,1.6.7,2.4.7,3.2,0,1.1-1.1,5.8-1.4,5.8-.3s-4.5,4.3-7.6,5.9ZM1267.8,405.8c1.3,1.2,2,1.3,3.4.5,1-.5,2.6-.7,3.6-.4l1.7.6-1.7,1.8c-1,1-2.9,2.5-4.3,3.4l-2.6,1.5v-2.6c0-1.4-.4-2.8-.8-3.1-.5-.3-.9-1.1-.9-1.9,0-1.2.2-1.2,1.6.1ZM1245.1,465.4c2.8-.2,3,.6.6,2.7-1.4,1.3-1.6,2.2-1.2,4.9.5,3.1.4,3.3-1.1,2.9-.9-.3-2.4,0-3.3.7-2.5,1.9-2.9,1.6-2.9-1.7s-.6-3.6-2.6-5.2c-3-2.5-2.7-3.7.9-3.7s2.8-.6,3.5-2.1c1.2-2.6,1.8-2.7,2.9-.2.6,1.4,1.5,1.9,3.2,1.8Z"/>
</svg>