<?xml version="1.0" encoding="UTF-8"?>
<svg id="Layer_1" xmlns="http://www.w3.org/2000/svg" version="1.1" viewBox="0 0 1920 1080">
  <!-- Generator: Adobe Illustrator 30.3.0, SVG Export Plug-In . SVG Version: 2.1.3 Build 182)  -->
  <defs>
    <style>
      .st0 {
        fill: #dbb57f;
      }

      .st1 {
        fill: #ff7f00;
      }
    </style>
  </defs>
  <g>
    <path class="st0" d="M736.8,329.4c-9.4-1.6-9.1-1.6-9.1,0s2.9,2.7,8.6,4.3c3,.8,8.5.5,9.6-.5,1.3-1.1-2.6-2.6-9.3-3.8h.2Z"/>
    <path class="st0" d="M973.8,415.5c1.8-1.8,1.1-3.4-1.4-3.4s-3.2,1.4-2.6,3.4c.6,1.8,2.1,1.8,3.8,0h.2Z"/>
    <path class="st0" d="M913.9,355.6c-2.7.8-9.1,9.8-9.1,12.8s1.4,4.3,4,7.2c2.9,3.4,4.6,4.6,6.6,4.6,8.2,0,12.8-5.3,13-14.6,0-5.3,0-6.1-2.6-8.2-2.7-2.2-7.4-3-11.8-1.8v-.2ZM920.6,363.8c.8,0,1.4.5,1.4,1s-.5,1-1,1-1.1-.5-1.4-1c-.3-.5,0-1,1-1Z"/>
    <path class="st0" d="M977.1,361.7c-3.2-2.7-6.6-3-10.2-1.3-3.7,1.8-5.3,4.8-5.4,10.9-.2,4.5,1.9,7.5,6.6,9.6,1.6.6,4.5,1.3,6.4,1.3h3.7l.8-6.9c1-9.4.8-11.5-1.6-13.4l-.2-.2ZM970.9,369.7q-2.4,2.2-2.4.3c0-1.9,2.6-4.8,3.8-3.5s0,1.8-1.4,3.2Z"/>
    <path class="st0" d="M600.2,758.5c1.1-.3,1.9-.6,1.9-.8s-.8-.3-1.9-.3-1.9.3-1.9,1,1,.6,1.9.3v-.2Z"/>
    <path class="st0" d="M581.6,757.4c4.2.8,16.3,1.1,15.5.5-.5-.5-3.2-.8-13.9-1.9-7-.8-8.2.3-1.8,1.4h.2Z"/>
    <path class="st0" d="M606.1,758c1.3,0,1.9-.2,1.3-.5s-1.8-.3-2.4,0,0,.5,1.3.5h-.2Z"/>
    <path class="st0" d="M612.5,757.7c-.3-.3-1.1-.3-1.9,0s-.5.5.6.6c1,0,1.6-.2,1.3-.5v-.2Z"/>
    <path class="st0" d="M589.9,760.7c-3-.5-5.1-.3-5.6.3-.6,1,2.9,1.4,23,2.7,6.4.5,12.3.6,13.1.6s1.8-.2,2.2-.3c.5,0,.5-.5.2-1s-5.4-1-11.4-1c-11,0-13-.2-21.6-1.4h0Z"/>
    <path class="st0" d="M1477.6,857.9c-2.7-2.9-13.1-8-15.2-7.4-1.9.6-4.6-3.8-4.6-7.7s-4.5-8.6-7.7-11c-1.4-1-1.9-2.4-1.9-6.4,0-9.3-4.3-19-9.8-21.8-2.1-1.1-3.8-2.1-3.8-2.4s.5-2.6,1-5.3c1-4.3.8-5.3-1-8.3-1.1-1.9-2.7-3.4-3.5-3.4-2.9,0-5.3-3.7-5.3-8.3,0-7-1.9-12.2-5-13.3-2.7-1-3.7-2.9-4.3-7.4-.8-6.7-3.4-13.1-6.2-15.5-2.2-1.9-3-3.4-3.4-6.2-.6-9.1-1.6-11.5-5.1-14.6-3.4-2.9-3.5-3.5-4.2-10.6-.6-7.2-.8-7.5-4.5-11-4.2-3.8-6.1-8.3-6.1-14.9s-3.4-11.8-5.6-12.6c-2.7-.8-4.2-4.2-4.5-10.7-.5-6.4-2.2-10.6-5.3-11.5-1.6-.5-5-8.5-5-12.2s-2.6-8.2-4.3-9.6c-2.2-1.9-4.3-7.4-4.3-11.5s-1.8-9.8-4-11.8c-2.4-2.1-3.2-4.6-4.6-13-1-5.3-1.9-7.7-4.5-10.7-3.8-4.6-5.6-8.6-4.8-11,1-2.9-3.2-12.3-6.6-15-5.1-4.3-5.9-5.9-4.5-8.6,1.1-2.1.8-3.2-3.4-11.5-4.6-9.1-4.6-9.3-3-12.5,1.4-2.9,1.4-3.8,0-7.8-.8-2.6-2.9-6.6-4.8-9-4-5-4.2-7-1.3-11.2,4.6-6.4,6.1-10.4,6.1-17s0-6.4-4.6-11.4c-8.3-8.8-11.5-13.9-11-17.8.3-3.7-1.3-11.5-3.2-15.7-1.6-3.4-5.4-5.1-14.2-6.6-7.7-1.3-15.4-.8-22.1,1.4-2.2.8-5.4,1.6-7.2,1.8-1.8.3-6.4,1.6-10.2,3s-9,2.9-11.2,3.4c-2.2.5-6.1,1.3-8.5,1.9-4.3,1.1-8,.8-25-1.9-11.7-1.8-22.2-7-32.8-16.3-2.4-2.1-9-7.4-14.6-12-5.6-4.5-11.2-9-12.5-10.1-3.8-3.2-18.9-16.3-19.4-17-1-1.3-13.1-10.2-18.4-13.6-6.4-4-21.9-11.7-28-13.6-16.2-5.4-35.4-5.9-48.2-1.4-7.4,2.6-13.9,6.6-21.4,13.1l-4.3,3.8-5.6-1c-5.3-1-5.6-1.1-5.6-4s-1.6-5.8-3.4-9.1l-3.4-6.2,2.6-6.4c2.4-5.9,2.6-7.2,1.9-15.2-.5-7.7-1.1-9.6-4.6-16.5-5.3-10.2-6.4-13.8-7.7-25.1-1.3-11-.6-22.1,1.9-32.3,1.9-8,1.4-12.5-1.8-16-1.1-1.1-2.4-3.2-2.9-4.6-1-2.4-.6-2.7,2.7-5.1,1.9-1.4,4.5-2.6,5.4-2.6,2.2,0,14.6-12.3,18.7-18.7,2.6-4,3-5.8,3.7-13.8.6-8.3.5-9.6-1.9-15.7-1.4-3.7-2.6-7.2-2.6-7.8,0-2.4-11.2-12.5-16.6-15-11.2-5.3-25.3-6.6-33-2.9-2.6,1.1-5,2.2-5.4,2.2s-2.7,1.3-4.8,2.9c-2.2,1.6-4.3,2.9-4.8,2.9-1.3,0-8.6,10.2-10.7,14.9-1,2.2-2.4,8-3,12.8-1.1,7.5-1,9.4.5,14.9,2.4,9.6,5.3,14.6,10.7,18.7,5.8,4.5,14.2,8.5,17.8,8.5s3.4.5,4.2,1.3c1.4,1.1,1.4,1.8.2,7.2-1.3,5.3-1.3,6.6,0,9.9,1.9,5.4,2.9,25,1.6,34.6-1.1,8-2.4,12.2-9.9,32.2-3.5,9.3-4.2,12.2-4,17.6,0,6.7,1.4,10.1,5.6,15,2.4,2.9,2.4,3,1,6.6-1.3,3-1.8,3.5-3.8,3-5.9-1.4-7-2.4-7.7-6.1-1-4.8-6.4-13.8-11.5-18.6-8.2-7.8-11-9.9-20.5-14.6-15.7-7.7-28.3-9.9-57-10.1-22.4,0-28.5.6-56.3,7.2-4.3,1-10.1,1.9-12.8,1.9s-5.9.5-7.2,1c-1.3.5-5.6,1.3-9.4,1.6s-10.1,1-13.8,1.4c-7.5,1-18.4-.2-26.1-2.7-9.4-3-18.9-7.8-21.4-11.2-5.3-6.4-25-26.1-28.8-28.6-8-5.3-18.1-8.3-23.7-7-9.1,2.1-13.1,5.1-17.4,13.4l-3.2,6.1h-4.8c-4.8,0-10.4,2.1-10.4,3.8s-1.9,2.2-4.2,3.8c-12.5,9-15.2,13-15.2,22.6s3.7,14.4,7.8,16.6c3.5,1.8,3.4,3.5-.6,11.4-3.7,7-4.2,9.4-1.9,13.6,2.1,4.2,1.8,5.1-2.2,7.7-4.5,2.9-6.4,7.8-5,13.6,1.3,5.3,1.3,5.1-1.9,6.7-3.7,1.9-7.8,9.9-7.8,15.4s-.6,4.8-3.4,7.7c-3.8,4.3-6.7,12.2-5.9,16.2.5,2.2,0,3.5-2.7,6.4-6.4,6.9-9.4,12.2-8.8,16,.3,2.9,0,3.8-1.8,5.6-3,2.7-8.2,13-8.2,16.6s-.8,3.8-2.2,5.1c-4.2,4.2-5.4,7.2-6.1,14.2-.5,5.6-1.3,7.8-3.4,10.6-4,5.1-7.8,15.4-6.6,17.6.8,1.4.6,2.1-1,3.2-4,2.9-8.8,13.9-8.8,20.5s-1.1,3-2.4,4.2c-3.4,2.6-6.4,9-6.7,13.8,0,2.2-.3,4.6-.3,5.6s-1.6,2.6-3.5,3.7c-4.3,2.6-6.6,7.7-5.9,13.6.5,5-.8,8.5-3.4,9.4-1,.3-2.6,2.1-3.2,3.8-.8,1.8-1.8,3.5-2.2,3.8-1.8,1.1-3.4,10.7-2.2,12.8.8,1.6.6,2.2-.6,3.5-1,.8-2.4,1.6-3.4,1.6s-2.7,1.4-4,3.2c-1.9,2.6-2.6,4.8-3,11.4q-.6,8.2-4.8,12.2c-4.2,3.8-6.1,8-6.1,13.3s-4.5,11.2-7.4,12.5-6.4,8.5-7,14.2q-.5,4.3-4.3,4.5c-11.8.5-20.5,10.6-21,24.6-.2,5.3.2,6.9,2.7,11.5,3.2,5.6,9.3,9.9,13.3,9.4,1.1,0,3.8,1.1,6.4,2.7,2.4,1.8,10.2,5.9,17.4,9.6,7.2,3.5,13.6,7,14.4,7.8.8.6,5,2.4,9.1,3.7,4.3,1.3,11.4,3.8,16,5.4,13.4,5,24.3,8.5,29.9,9.4,18.2,3.5,37.1,5.8,53.6,6.6,6.9.3,15.4,1,18.9,1.3,3.5.5,17.1.5,30.4,0,21.6-.6,25.8-1,39.2-3.7,8.3-1.6,16.5-3.7,18.4-4.3s6.7-2.2,10.6-3.5c16.3-4.8,31-10.9,42.6-17.3,6.2-3.5,18.2-8.8,19.8-8.8s10.9-9.1,11.5-12.2c.3-1.3.6-3.4,1-4.8.3-1.3,0-4.6-.6-7.5-1.3-5.8-4.8-9.9-11.2-12.8l-4-1.8v-5.4c.2-6.6-1.9-11.2-6.1-13.4-3.5-1.9-4.2-3.8-2.9-8.6,1.8-6.4-1.4-14.7-5.8-14.7s-4-4.2-2.7-7.7c1.4-4,.5-6.7-3.8-11.7-4.6-5.3-5.4-7.7-5.1-14.1.5-8.6-.6-12.5-4.2-14.7-4.2-2.6-4.6-3.8-4.8-12.2-.2-8.5-1.8-12.3-5.4-13.9-2.2-1-2.9-1.9-3.4-4.6-1.8-12.5-2.6-15.2-5-17.3-1.3-1.1-3-2.2-3.8-2.2-1.6,0-1.8-1.8-.3-5.4,1.8-4.6.2-10.4-4-15.4-4.2-4.8-4.5-5.8-5-14.7-.3-5.9-.5-6.2-5-10.4-3.8-3.5-4.5-4.6-4-6.6,2.2-7,.6-12-5-15.7-1.9-1.3-2.4-2.1-1.9-3.8.3-1.3.2-2.6-.3-2.9-.5-.3-.3-1.8.5-3.4,1.3-2.6,1.3-3.2-.6-7.4-1.3-2.9-3.2-5.1-5.4-6.4-3-1.8-3.8-3.2-3.4-6.4,0-.6-.3-1.3-.8-1.3s-1-.5-1-1.1.6-.8,1.4-.5,1.4,0,1.4-.5c0-1.8-5-11-6.4-11.8-2.1-1.1-5.1-8.2-4.6-10.2,1-3.5-1.6-8.5-5.6-11.2-2.7-1.9-3.7-3.2-3.2-4.2,2.2-5.1,1.4-8-4.2-15-1.9-2.4-2.2-3.5-1.6-7.7.6-5.4-1.1-11-4.2-13.3-2.9-2.1-4.2-6.4-3.5-11.4.6-4.8-.3-8-3.7-10.7-1-.8-1.8-2.1-1.8-2.6s-.6-.8-1.4-.5-1.8-.3-2.4-1.4c-.8-1.6-.8-2.6.5-4.3,1.3-1.9,1.4-3,.5-5.8-.6-1.9-1.9-4.5-3-5.8-1-1.3-2.1-4-2.4-6.1-.5-3-.2-4.2,1.4-5.6,1.1-1,2.1-2.4,2.1-3s.6-1.8,1.6-2.4c.8-.6,2.2-2.6,3-4.2,1.4-2.7,1.3-3.4-1.1-11.2-1.4-4.6-2.7-10.7-2.9-13.4-.3-5-.2-5.1,4-8,2.2-1.6,5-2.9,6.1-2.9,5,0,12,4,17.4,10.2,6.9,7.8,24.8,25,28.5,27.2,2.2,1.4,5,3.4,6.1,4.3,4.8,4,22.9,9.6,39.5,12,1.6.2,3.5.6,4.3,1,6.1,1.8,60.6,2.2,68.8.5,2.9-.6,12.6-1.3,21.4-1.6,17.8-.5,24.8.6,32.2,5,8,4.8,15,13.1,15,17.8s3.7,12.2,6.7,16.3c1.9,2.6,4.8,5,9.1,7,5.6,2.7,7,3,11.4,2.6,6.2-.8,18.2-6.6,20.5-9.8,1.8-2.7,4.3-3,9.1-1.4,2.4.8,3.2,1.9,4.2,5.1.6,2.2,1.8,5.1,2.4,6.6,1.1,2.2,1.1,3,0,5.3-4.8,9.8-5.6,13.6-4,22.1,1.3,6.6,3.7,11,8,15.4,2.6,2.6,2.7,3,1.9,6.6-1.3,5.9.3,10.7,5.8,17,2.7,3,5.1,6.6,5.4,7.8.3,1.1,1,2.2,1.4,2.2s1.1.8,1.4,1.9c.5,1.6,1,1.8,2.4,1,1-.5,1.9-2.1,1.9-3.4s1.6-4.6,3.5-7.5c4.6-6.9,7.2-11.8,7.2-14.2s-.8-3.8-1.8-6.1l-1.8-4.2,2.4-2.9c3.8-4.6,6.4-10.2,7.5-16.6,1-5.1,1-6.6-.5-10.2-1-2.4-2.6-5.8-3.8-7.4-1.9-2.6-1.9-3.5-1.1-5.4,1-2.2,1.4-2.4,5.1-1.8,6.4,1.1,9.3,3,11.7,8,2.9,5.6,4.6,7.2,10.7,9.9,9.8,4.2,21.9,3.4,28-1.9,1.1-1,3.8-2.7,6.2-4.2,3.8-2.2,5.6-2.6,17.4-2.9,12.5-.5,13.4-.3,20.5,2.2,10.2,3.7,26.9,11.4,30.6,14.1,1.8,1.3,3.5,2.2,4,2.2s5.6,3.2,11.4,7c8.6,5.9,37.4,22.9,38.7,22.9s4.2,1.8,8.8,3.8c10.2,4.6,23.5,8.5,32.5,9.8,5.3.6,8.5.5,15.5-1.1,13.3-2.9,17.4-4.5,29.6-11,11.4-6.2,16.8-8,23.7-8.2,4.8,0,6.1.8,7.2,4.5.8,2.6.5,3.4-1.3,5-1.1,1.1-3.2,2.1-4.6,2.1-3,0-12,9.1-13,13.1-.3,1.6-.8,3.7-1,4.6s.2,4.3,1,7.5c.8,3,1.3,5.8,1.3,5.9,0,0,.5,1.3,1,2.7.8,2.1,2.9,4.2,8.2,8,1.6,1.1,1.4,1.6-.8,7-2.9,6.7-3.8,12.5-2.4,14.4,1,1.3-1.4,7.7-4.3,11.4-.6.8-1.4,3-1.8,4.8-1.4,7.8-5.9,21-7.7,22.2-2.1,1.8-4.8,10.6-4.6,14.9.2,4-1.6,8.6-4,10.9-3.2,2.7-6.6,11-6.6,15.7s-1,5.8-3.7,10.1c-5.3,8.6-6.1,10.9-5.4,15.5.5,3.8.3,4.5-3,8-4.6,4.8-5.8,7.2-7.5,15.2-1.3,5.8-2.1,7.2-6.4,11.5-5.3,5.3-7,9.8-6.7,16,.3,5.6-1,8.6-4.6,10.7-4,2.4-6.1,7-6.1,13s-1.9,10.1-5.6,12.3c-4.3,2.6-7.4,9-6.7,13.9.6,4.8-.5,7-5.8,11.7-5.3,4.5-9.3,12.6-8.5,17.1.8,3.8-1,7.7-4.8,10.6-1.4,1.1-3.8,4.8-5.4,8.2-2.2,4.8-2.7,6.9-2.2,9.9.8,4.5-1.6,9.9-4.3,9.9s-9,9.6-9.4,17.4c-.3,5.8-3.4,12.5-5.6,12.5s-6.1,4.8-9.1,9.3c-2.2,3.4-2.7,9.9-1,11.7s0,1.1-3.7,1.1-5.8.6-6.9,1.3c-3.2,1.8-8.8,8.6-10.9,13.4-3.8,8.6-1.6,23.8,4.5,29,2.4,1.9,7.7,3.8,11.2,3.8s4,.8,5.4,1.8c4.8,3.4,33.6,16.6,36.2,16.6s3.5,1,6.1,2.2c2.6,1.3,8,3.2,12,4.5,4,1.1,9.3,2.7,11.8,3.5s5.9,1.4,7.5,1.4,5.1.8,7.8,1.9c9.8,3.7,45,9.8,57.9,9.9,4.5,0,11,.5,14.6.8,9.6,1.1,45.8.2,53.6-1.4,3.7-.8,8.2-1.4,10.1-1.6,1.9,0,4.6-.5,5.9-.8,2.7-.8,12.8-2.6,18.9-3.4,4.3-.5,8.2-1.4,22.7-5.4,5.6-1.4,13-3.5,16.5-4.3,7-1.8,19.2-6.2,26.6-9.9,2.7-1.3,6.2-2.4,7.8-2.2,2.2,0,3.2-.3,3.5-1.8.5-1.6,1.3-1.9,5.1-1.9,10.6,0,16.5-4,21.4-14.1,2.7-5.6,3.2-7.2,2.7-11.4-.6-4.8-4-11.7-7.8-16l-.5-1ZM627.2,295.6c1.4-.3,3.7-1,5.3-1.4,2.4-.8,3.2-.5,5.6,1.9s3.5,5.3,1.9,6.2c-.5.3-1.3-.6-1.9-1.9-1.8-3.7-4.2-3-3.8,1,.3,5-1.4,6.2-5,3.5-3.5-2.6-4.8-2.1-4.8,1.9s-1.8,3.5-2.6-.6c-.8-4.6,1.8-9.8,5.3-10.6h0ZM614.2,309.7c.8,0,2.7,1.3,4.6,2.9,4,3.7,9,5.1,13.4,3.8,4.2-1.1,5.9.8,5.6,5.8-.3,4-1.6,4.6-3.8,1.8-1.3-1.8-1.9-1.9-2.9-1-1.9,1.8-6.2,1.4-10.7-.8s-4.3-1.8-5.8-1c-1.4.8-1.9.6-2.7-.8-2.1-3.8-.5-10.7,2.4-10.7h-.2ZM635.5,341.7c-.8,1.4-2.4,1.1-2.4-.5s-.3-2.7-.6-4.6l-.6-3.2,2.1,3.7c1.1,2.1,1.8,4.2,1.4,4.6h.2ZM627.8,431.5c1,0,1.4,1,1.4,2.9,0,3.4-2.4,4-3.4,1-.8-2.2,0-3.8,1.9-3.8h0ZM626.6,413.9c.2-1.1,1-2.2,1.8-2.2s1.6,1,1.8,2.2c.2,1.6-.2,2.2-1.8,2.2s-1.9-.5-1.8-2.2ZM629.1,455.9c-.6,1.1-1.1,2.4-1,2.7,0,.3-.2.6-.8.8-1.1.3-2.4-3.2-1.6-4.6.3-.5,1.4-1,2.6-1,1.8,0,1.8.3.8,2.2v-.2ZM623.8,393.9c-.6-1.1.2-2.9,1.4-2.9s1,.8,1,1.9c0,2.1-1.4,2.6-2.4,1h0ZM626.1,371.8c-.2,2.1-1,3.2-1.9,3.5-1.3.3-1.8-.3-1.8-3.2s.3-3.5,1.9-3.5,1.9.5,1.8,3.2ZM622.7,356.4c-1.9-.6-1.4-2.2.8-2.2s1.9.5,1.9,1c0,1.3-1.1,1.8-2.7,1.3ZM615.7,333.1c0,1.4-.6,4.3-1.4,6.6-.8,2.1-1.9,3.8-2.4,3.8-1.3,0-1.1-2.2.5-5.4s1.8-3.8,2.4-5.3l1.1-2.4v2.6l-.2.2ZM609.9,304.4c1.9-1.1,2.2.5.5,2.4-1,1.1-2.1,1.9-2.6,1.9-1,0,.8-3.5,2.2-4.3h-.2ZM605.4,324.6c-.3-1.8,0-3.2.5-3.5.6-.3,1.3.8,1.8,2.9.3,1.9,1.3,3.7,1.9,4,.8.3,1.3,1.1,1.3,1.9,0,3.7-4.5-.6-5.4-5.1v-.2ZM610.1,352.1c.8.8.8,1.8,0,3.5-1.8,3.7-4,3-4-1.1s2.4-4,4.2-2.4h-.2ZM604.2,371.6c1.9,0,2.2.8,1.3,3.4-.8,1.9-3.2,2.1-3.8,0-.8-1.9.3-3.4,2.6-3.4h0ZM594.9,393.4c.5,0,1.1,1,1.3,2.4,0,1.3-.3,3.4-1.1,4.3q-1.4,1.9-2.1,0c-.8-2.1.6-6.7,2.1-6.9l-.2.2ZM583.7,416.7c0-.3.6-.8,1.1-.8s.8,1,.5,2.7c-1.4,5.9-2.6,4.5-1.6-1.9ZM573.9,439.8c1.6-1,2.1,1.1,1,3.7-1.1,2.6-2.2,3.2-3,1.8-.5-1,1-4.8,2.1-5.4h0ZM565.8,461.4c.3.6,0,1.9-.6,3-1.3,1.9-2.7,2.7-2.7,1.3s2.7-5.3,3.2-4.3h.2ZM555.2,482.8c1.4,0,2.4.6,2.4,1.3,0,2.2-2.4,3.7-3.7,2.2-1.9-1.9-1.3-3.7,1.3-3.7v.2ZM545.6,506.3c2.2-.8,2.7,0,1.8,3.2-1.3,3.8-3.2,4-3.2.5s.6-3.2,1.4-3.5v-.2ZM537.6,527.3c1.8,0,1.9,2.7.2,6.4-2.1,4.3-4.2,5.4-4.2,2.4s2.7-8.6,4-8.6v-.2ZM526.7,555.6c.8,1,.8,1.6,0,2.1-.5.3-1.3,0-1.6-1-.8-2.1,0-2.7,1.4-1.1h.2ZM514.9,574.7c.3,0,1.3.3,1.9.8,1.1.6,1,1.3-.3,3.8-1.8,3.4-4.5,4-4.5,1s1.6-5.8,2.7-5.8l.2.2ZM504.3,601.2c3.4-4.8,4.2-2.4,1.3,3.4s-2.4,4-3,4c-1.8,0-1-3.4,1.8-7.2v-.2ZM492.6,627.5c.8-4.8,1-5.3,2.4-3.8.6.6.8,2.4.5,4.5s-1.3,3.5-2.1,3.5-1.3-.8-.8-4.2ZM483.8,650.2c2.6.5,2.7,3.2.5,5.6-2.7,2.7-4,2.6-3.8-.6,0-3.5,1.3-5.3,3.5-5h-.2ZM477.4,676.3c0-3.5,4-11.2,8.6-16.2,4.5-4.8,5.4-7.5,4.5-13.8-.6-4.3-.5-4.6,4.2-9.3,5.3-5.6,7.2-9.8,6.2-15-.5-2.9,0-4,1.6-5.9,4.2-4.6,7.7-9.9,7.7-11.5s.5-2.1,1.1-2.4c.6-.5.8-2.2.5-5.3-.5-4-.3-4.8,1.6-6.4,5.6-4.6,10.4-13.1,9.8-17.6-.5-2.9,0-3.8,4.2-7.8,3.7-3.7,4.8-5.6,5.4-9.3.5-2.6.6-5.8.3-7-.3-1.9.5-3.4,3.8-6.7,5-5,6.7-9.9,5.9-16.2-.5-3.8-.3-4.2,2.4-5.6,4.5-2.2,8-10.7,7.2-17-.3-2.9-.3-4.8.3-4.8,3.5,0,11.2-14.1,10.2-18.9s0-3.5,1.3-4.8c3-2.7,6.9-10.9,6.7-14.4-.3-4.5.8-7,3.4-8.2,3.4-1.4,6.7-9.3,6.6-15.4,0-4.3.3-5.4,2.7-7.4,4.2-3.5,6.7-9.4,6.7-15.4s0-5.1,3.5-7c5.8-3.2,7.5-6.2,7.2-13.3-.2-5.9,0-6.2,3.5-9.4,2.1-1.9,4.2-5.1,5-7.5,1.1-3.7,1.1-4.5-.3-7.7-1.6-3.4-1.6-3.5.3-4.8,1.1-.8,2.7-2.7,3.5-4.3l1.4-2.9,2.4,2.6c2.7,3,2.9,4.3.8,8.5-2.1,4-1.1,10.4,2.1,13.4,2.2,2.1,2.2,2.4.8,4-1.1,1.1-1.8,4-2.1,8.2-.3,5.3,0,6.7,1.6,9s1.9,3.4,1.1,6.4c-1.3,5.4-1.1,12,.3,14.9,1,1.9,1,3-.2,6.2-1.6,4.6-1,8,2.2,11.8l2.4,2.9-2.2,3.4c-4.6,6.9-4.3,12,.8,14.6l3.4,1.6-1.4,4.6c-1.9,6.6-1.8,8.6,1.4,12.3,2.7,3.2,2.9,3.4,1.4,7-2.1,5.6-1.8,11.7.6,16,1.9,3.5,1.9,3.8.5,6.1-2.1,3-2.1,5.8,0,10.9,1.4,3.8,1.4,4.3,0,7.4-2.1,4.5-1.9,10.1.5,16.2,1.9,4.6,1.9,5.3.5,9.4-1.9,5.8-1.9,6.2,1,9.8,2.6,2.9,2.6,3,1,7.5-2.2,6.7-1.9,10.4,1,12.6,2.7,2.2,3,3.4,1,5-2.7,2.2-1.4,12.5,1.6,14.6.5.3.3,4.6-.6,10.6-1.4,9.8-1.1,13.6,1.4,13.6s1.1,2.7-.6,5.4c-2.2,3.5-1.4,14.1,1.3,17.1,1.9,2.1,1.9,3,1.4,11.2-.5,8.3-.3,9.1,1.6,11.2l2.1,2.2-1.9,3.2c-1.3,2.2-1.9,5-1.9,8.2s.3,5.3,3.8,8.5c4.5,4,4.8,5.1,1.4,6.6-1.8.8-2.4,1.9-2.4,3.8v2.7h-7c-3.8,0-10.4.2-14.6.3h-7.8s-31.4-.3-69.4-.5c-66.1-.3-69.3-.3-69.3-2.1s-2.6-7.2-4.5-8.2c-1.4-.8-1.3-1.3.5-4.6,4.8-9.3,6.9-14.4,6.9-16.6l.2-.3ZM634.7,540.1c-1.3-1.3-.6-6.1.8-6.1s3.4,2.7,3.4,4.3-3.7,2.4-4.2,1.9v-.2ZM638.9,557.2c0,1.1-.6,1.9-1.4,1.9s-1.4-.6-1.4-1.3.6-1.6,1.4-1.9c1-.3,1.4,0,1.4,1.3ZM634.2,496.6c-1.9-.8-1.4-3.2.8-3.2s1.9.6,1.9,1.9c0,1.9-.5,2.2-2.7,1.3ZM632.6,476.3c-1,.3-1.4,0-1.4-1.4,0-2.1,1.9-2.1,2.7-.2.2.6-.3,1.3-1.1,1.6h-.2ZM640.8,595.9c1.1.6,1.1,1.1.2,2.1-1,1-1.3.8-1.8-.5-.8-2.1-.3-2.7,1.6-1.6ZM639.8,575c.6-.3,1.3-.5,1.6,0,.3.3.3,1.3.2,2.2-.3,1.4-.5,1.6-1.6,0-1-1.1-1-1.8-.2-2.2ZM642.6,617.7q-.5,1.8-1.1,0c-.8-1.8,0-3.4,1-2.4s.3,1.4.2,2.4h0ZM643.7,640.3c0,1.9-1,2.6-2.2,1.3-1.1-1.1-.6-3.2.8-3.2s1.4.8,1.4,1.9ZM646.1,685.7c.8,0,1.4.5,1.4,1s-.6,1-1.4,1-1.4-.5-1.4-1,.6-1,1.4-1ZM644.6,664.9c0-2.1.3-3.2,1-2.9.5.3,1,1.9,1,3.4s-.5,2.9-1,2.9-1-1.6-1-3.5v.2ZM648.8,719.8c2.2.8,1.8,3.4-1.1,6.7-1.6,1.8-3.7,5.6-4.5,8.3l-1.4,5.1h-5c-2.7,0-12.3.2-21.4.3-15.2.3-32-.6-53.1-3.2-4.8-.6-8.8-1.3-9.1-1.6-.8-.8,3.2-.6,10.9.5,3.7.5,15.8,1.1,27,1.4,17.3.5,20.6.5,22.2-.8s1.6-1.6.5-1.9c-.8-.3-12.2-1-25.1-1.6-13-.6-24.8-1.1-26.4-1.3-1.4,0-3.8-.3-5.3-.5-5.9-.3-.8-1.3,10.9-1.8,6.9-.3,12.6-.6,13-1,.3-.2,2.1,0,4,.6,2.7.8,4.8.6,9.8-.6,5.1-1.3,9-1.4,19.7-1,7.7.3,15,.2,17.1-.3l3.8-1h-3.8c-2.1-.3-5.1-.5-6.7-.6-1.6,0-3.7-.6-4.8-1.1-1.4-.8,1.8-1.1,12.8-1.8,12-.6,14.6-1,14.6-2.1s.5-1.3,1.1-1h.5ZM651,706c2.7,0,3.2,1.4,1,2.2q-1.9.8-2.7,0c-1.3-1.3-.6-2.2,1.8-2.2h0ZM505,715.1c-12.8,0-25.1.6-27.5,1.1-3.8.6-4.2.6-3.7-1,.3-1,.6-1.9.6-2.1,0-1,64.6-.3,65.3.6.3.6-1.8,1-5.4,1s-16.5.2-29.3.3h0ZM511.4,729.2c0,.5-.6,1-1.4,1s-1.4-.5-1.4-1,.6-1,1.4-1,1.4.5,1.4,1ZM548.5,723.3c7.4,0,15,.5,17,1,2.4.6-2.4,1-16.2,1s-19.7-.3-20.2-1c-.6-1.1,0-1.1,19.4-1ZM606.6,715s-12.2-.3-26.7-.3c-28.5,0-41.9-1.1-27.5-1.9,4.3-.3,26.6-.5,49.6-.3,37.4,0,42.1.3,43.4,1.8,1.4,1.4,0,1.6-18.4,1.4-11,0-20.2-.3-20.3-.5v-.2ZM616.2,724.4c-.3.5-3.7,1-7.5,1-8.6,0-7.8-1.1,1.3-1.6,4.6-.3,6.7,0,6.2.6ZM594.9,725.5c-2.1.8-5.3.8-15.5,0l-6.7-.6,6.7-.5c8.5-.6,18.2,0,15.5,1.1ZM464.8,680.1c1.3-4.8,2.4-5.6,5.4-4,2.7,1.4,2.9,2.9.8,6.7-1.4,2.9-3.7,3.5-6.1,1.9-1-.6-1.1-1.6-.2-4.8v.2ZM467.8,701.2c0,.5-.2,1-.5,1s-.6-.5-1-1c-.3-.5,0-1,.5-1s1,.5,1,1ZM463,691.6c2.7-3.4,4.5-1.4,2.4,2.7-1.6,3-2.6,3.7-3.8,2.4-1.1-1.1-.6-2.6,1.3-5.1h.2ZM462.4,704.9c2.1-.2,3,0,3.4,1.3.3,1.3-1.1,2.1-6.4,3.7-3.7,1.1-8,3-9.6,4.5-1.6,1.3-3,2.4-3.4,2.4-1.1,0-1.6-3.4-1.1-6.7.6-3.7,6.4-11.7,8.5-11.7s2.2,1.6,3.5,3.4c1.9,2.9,2.9,3.4,5.3,3.2h-.2ZM463.5,713.7c-.3.6-1.4,1-2.2,1-1.4,0-1.4-.2.2-1.4,1.9-1.4,3-1.3,2.1.5h0ZM447.2,730c-2.4-.6-4.2-1.9-5.3-3.7-1-1.6-1.9-2.7-2.2-2.7s-1.4-1.8-2.2-3.8c-1.3-2.7-1.4-4.3-.8-5.6.5-1,1.3-3.4,1.6-5.4,1.3-6.9,5.1-12.2,11-15.2,4.8-2.4,8-2.7,8-.6s-1,1.4-2.7,1.4-3.8,1.1-6.6,4.2c-5,5.3-6.2,8.2-6.2,14.9s1,8.3,6.1,13.1c2.1,1.9,3.7,3.8,3.5,4s-2.1,0-4-.5h-.2ZM507.8,754.3c-2.1,0-4.8-.6-5.8-1.3-2.4-1.8-1.3-1.8,5,0l4.8,1.3h-4ZM520.2,751.5c-.5,0-1.3-.5-1.6-1s0-1,.3-1,1.3.5,1.6,1,.2,1-.3,1ZM506.4,738.3c-17.1-2.4-49.4-11.4-53.9-15.2-1.9-1.6-1.4-4.3,1-6.1,2.9-2.1,3.7-1.9,3.7.6,0,5,13,10.4,32.8,13.8,5.1.8,11.4,1.9,14.1,2.4,26.7,5,26.6,4.8,76.8,9.8,22.6,2.2,78.2.6,81.9-2.2,1.6-1.3,2.6,1.4,1.8,4.6-.6,2.2-.8,2.4-2.2,1.1-1.3-1.1-3-1.3-9-.6-10.4,1.1-39.4,1.4-50.2.6-16-1.3-33.8-2.6-54.1-4-10.9-.8-22.4-1.9-25.6-2.4s-10.9-1.6-17-2.4h0ZM703.7,735.1c-1.3-.3-6.2-.3-11.2.2-6.6.6-9.3,1.3-10.6,2.7-2.9,3-7.5,1.8-7.5-2.1s-1.3-4.2-2.9-7c-1.6-3-2.6-5.4-2.2-5.6,3.7-.6,6.9-.2,9,1.3,1.9,1.4,4.8,1.9,12.6,2.2,9.4.5,20,1.8,21,2.7.2.2-6.4.3-14.6.3-13.4,0-17.4.3-16,1.8.3.3,7.8.6,16.8.8,16.2.3,22.4,1.4,20,3.7-1,1-18.4,1.4-19.4.5-.3-.3,1.1-.6,3.2-.6,3,0,3.4-.2,1.4-.8h.3ZM663,726.3c1.4,0,5.8,5,6.7,7.8.5,1.4.5,3.2,0,3.8-.6,1-1.3,0-2.7-3-1-2.4-2.6-5-3.4-5.6-1.8-1.4-2.1-3-.6-3ZM663,736.6c0,1.6-1.6,1.9-2.4.5-.8-1.3.3-3,1.6-2.4.5.3,1,1.1,1,1.9h-.2ZM669.8,742.8c.5,0,1,.5,1,1.3s-.5,1.9-1,2.7c-.8,1.1-1,.8-1-1.3s.5-2.7,1-2.7ZM685.1,721.9c.6-.3,1.6-.3,1.9,0s-.3.5-1.3.5-1.3-.3-.6-.6v.2ZM706.1,718.7c-13.3-1.6-17-1.9-27.5-2.4-13.3-.8-19.4-1.6-19.4-2.7s3-.8,9-.3c5,.5,10.7.8,12.8,1,23.2,1.3,37.1,2.7,49.3,4.8,4.3.8,9.8,1.6,12.2,1.9,7.2.8,10.6,1.8,10.6,2.6s0,.8-.3.8-30.6-3.7-46.6-5.6h0ZM663,751.3c0,.2-1,1.3-2.1,2.2-1.1,1-2.6,1.8-3.2,1.8-2.1,0-5.6-1.9-5.1-2.6.8-.8,10.2-2.1,10.2-1.4h.2ZM545.1,748.3c-2.4,0-3.4-.2-2.2-.5,1.1-.2,3.2-.2,4.3,0s.2.5-2.2.5h.2ZM530.1,753.5c-1.4.5-5.1-1.1-5.1-2.2s1.1-.8,2.7-.5c1.4.3,6.4,1,10.9,1.6,4.5.5,10.4,1.3,13.1,1.8,5.4.8,14.7.8,15.5,0s-.8-2.6-3.4-2.7c-1.4,0-5.3-.6-8.5-1.4l-5.8-1.4,9.1.5c5.1.3,13.8,1,19.4,1.4,21.4,2.1,38.7,2.7,50.7,2.2l12.5-.6v5.3c0,3,.8,6.6,1.9,8.5,1,1.8,1.4,3.5,1.1,3.8-1.1,1.1-31.5.6-37.1-.5-3-.6-13.3-2.1-22.9-3.2-9.6-1.1-19.8-2.6-22.7-3-4.5-1-5-1.3-2.9-1.8,1.3-.3,5.4-.5,9.1-.2,14.4,1,1.4-2.7-14.6-4.2-3.7-.3-10.2-1.3-14.6-1.9-4.3-.8-8.2-1.3-8.6-1.1v-.3ZM646.1,775.9c-11.4.3-24.8-.5-39.5-2.2-4.3-.5-13.1-1.3-19.8-1.9-6.6-.5-13.1-1.1-14.6-1.6-1.3-.3-4.3-.8-6.7-1-5.4-.3-25.9-4.3-28.5-5.4s2.9-.5,20.3,2.4c22.1,3.7,27.5,4.3,36.8,3.8,8.3-.5,15.8.6,18.6,2.7.6.5,11.2,1.1,23.5,1.4s22.1.6,21.9,1c-.2.2-5.6.5-11.8.6l-.2.2ZM658.1,768.7c-1.9-1.1-.3-4.2,2.1-4,11.8.8,19.4,1.6,19.4,2.2s-20.2,2.6-21.4,1.9v-.2ZM682.9,772.3c-3.2.8-9.3,1.8-13.6,2.1-6.7.6-7.7.6-7.4-.6.3-1.1,1.9-1.6,6.9-1.6s9.4-.3,13.3-.6l6.7-.5-5.8,1.3h-.2ZM706.6,759.1c-1.3.5-3.2.8-4.3.8-1.6,0-1.4,0,.5-.8,1.3-.5,3.4-.8,4.3-.8,1.6,0,1.4,0-.5.8ZM713.3,753.2c-2.1,1.3-20.2,3.4-29.9,3.5-6.6,0-8.2.3-8.2,1.6s1.1,1.4,4.3,1.6c11.8.3,13,.5,12,1.3-1,1-16,1.8-21.4,1.3l-3.2-.3,2.6-3.5c1.4-1.9,2.7-3.7,2.9-3.8,0-.2,6.7-.5,14.6-.6,7.8,0,17.4-.6,21.1-1,4.3-.5,6.2-.3,5.3.3v-.3ZM728.6,755.3c-.8.5-3.5,1.1-5.8,1.4l-4.3.5,3.4-1.4c4-1.6,9.3-2.1,6.7-.6v.2ZM763.5,736.6c-2.9.3-6.2,1.1-7.5,1.4-1.3.5-7,1.4-13.1,2.2-5.9.8-11.8,1.6-13.3,1.9-4.8.8-18.9,2.6-25.6,3-3.7.3-9.8.8-13.6,1.3-8,.8-15,.5-15-.8s1.4-1.1,3.2-1.3c4.3-.6,28.2-2.7,34.6-2.9,7.8-.3,25.4-2.4,34.2-3.8,4.3-.8,9.9-1.6,12.6-1.9s6.4-1.4,8-2.6c3.2-1.9,3.2-2.6,1.4-7-.6-1.6-.5-1.8,2.6-1.1,3.8.8,7.7,3.4,7.4,4.8-.5,1.8-10.7,6.1-16.2,6.9l.3-.2ZM758.2,719.6c.5-3,5.6-9.6,7.4-9.6s.8,3-1.4,5.9c-1.8,2.2-2.2,4.3-2.2,8.6s-.3,5.8-.6,5.8c-1.6,0-3.7-7.4-3.2-10.6l.2-.2ZM781.1,712.1c3.2,2.7,4.6,6.4,4.6,12.2s-.5,5.1-1,5.9c-.6,1-1,0-1-3.7,0-6.1-1.6-9.4-5.8-12.5-1.6-1.3-3-2.6-3-3.2,0-1.6,3.4-1,5.9,1.3h.2ZM780,721.2c0,1.3-.3,2.2-.8,2.2s-6.6-2.1-9.9-3.4c-1-.3.3-1.1,3.2-1.9,5.3-1.6,7.4-.6,7.4,3.2l.2-.2ZM767,693.7c2.2-2.1,2.4-2.1,3.4,0,.6,1.1.8,2.6.5,3.4-.6,1.8-5.1,1.8-5.8,0-.3-.6.6-2.2,1.8-3.4h.2ZM759,667.3c1.1,0,2.6,3.8,2.6,7.4s-1.9,1.4-2.9-1.1c-1.3-3.5-1.1-6.2.3-6.2h0ZM749.6,646.2c1-1,3.4,3,3.4,5.4s-.5,2.2-1,2.2c-1.1,0-3.2-6.9-2.4-7.7h0ZM740.8,618c2.1,0,3.5,3,3.5,7.2s-.5,3.5-1.4,3.5c-1.9,0-2.1-.6-3-6.1-.6-3.8-.5-4.6.8-4.6h.2ZM732.2,594.8c.8,0,1.8,1.1,2.1,2.4,1,3.8,0,5.1-1.8,2.4-2.1-2.9-2.1-4.8-.2-4.8h-.2ZM724.2,571.6c.5,1.9-1.4,4.3-2.6,3.2-.3-.3-.6-1.6-.6-2.9,0-2.7,2.4-3,3.2-.3ZM714.9,547.3c1.8,2.6,1.4,4.8-.3,2.9-.6-.6-1.1-2.1-1.1-3.2q0-1.9,1.4.2v.2ZM706.9,523c1,.3,1.6,1.4,1.4,2.7-.5,2.9-3.4,3.2-4,.5s.3-4,2.6-3v-.2ZM689.1,478.7c1-1,1.4-.8,2.6.8.8,1.1,1.3,2.6,1.1,3.4-.5,2.4-2.6,2.2-3.8-.3-1-1.9-.8-2.7,0-3.7l.2-.2ZM678.6,454.3c1.1-1.1,2.6.2,3,2.7.2,1-.2,2.1-1,2.2-1.4.5-3.2-3.7-2.1-5h0ZM670.1,436.3c.2-.6.8-1,1.3-1s1.1.5,1.3,1c.2.6-.3,1-1.3,1s-1.4-.5-1.3-1ZM657.3,398.7c.5,0,1,.5,1,1s-.5,1-1,1-1-.5-1-1,.5-1,1-1ZM646.1,381.2c.8.8,2.4,3,3.5,5.1,1.6,3.2,1.8,4.2.8,6.9-1.6,4.3-.6,7.2,3.7,11.5,3.4,3.5,3.7,4.3,4.2,10.9.5,5.9,1,7.7,3,9.8,1.6,1.6,2.7,4.2,3,6.6.8,5.8,2.2,9.3,5.4,12.2,2.4,2.2,2.9,3.4,2.9,7.5,0,6.2,1.4,9.4,5.6,13.3,3,2.7,3.4,3.7,4.2,10.4.8,7.4,2.7,12.5,5.1,13.9,2.2,1.3,4.5,6.7,4.5,10.9s1,5.6,2.2,7.8c1.1,2.2,2.9,5.3,3.8,7,1,1.6,1.6,5,1.8,7.2,0,4.8,2.2,9.4,5.4,12.3,1.9,1.6,2.4,3,2.7,8.2.5,8,2.7,14.9,5.6,18.4,1.8,1.9,2.4,4.5,2.9,9.3.8,7.5,2.4,10.9,6.6,13.3,2.6,1.4,2.9,2.1,2.4,5.1-.6,4,1.4,11.5,4.5,16,2.9,4.3,5.4,12,5.3,16.8,0,4,2.4,11,3.8,11s1.8,1,2.9,1.9c1.8,1.6,2.1,3,2.1,7.7,0,6.9,2.6,13.9,6.2,17.8,2.4,2.4,2.6,3.2,2.1,6.9-.5,3.2,0,5.4,1.4,9.1,1.1,2.7,2.7,5,3.4,5,2.1,0,4.5,4.5,3.7,6.9-1.3,4-.6,9.1,1.9,13.9,3,5.8,3,6.2.5,6.2s-9.6,7-9.6,8.8-4.8,1-17.4-1.1c-6.1-1-15-2.2-19.8-2.7-23-2.4-28.8-2.9-37.8-3.4-5.3-.3-10.6-.6-11.5-1-1.1-.3-3.4-.5-5.1-.5s-3.2-.5-3.2-1.8-1.4-2.9-3-4.5c-2.9-2.6-3-3-2.9-9.1,0-4.6-.3-8-1.9-12.2-1.9-5.1-2.1-6.2-1-10.1,1.6-5.9,1.4-11-.5-13.8-1.3-1.8-1.6-4.6-1.8-12.6,0-9-.3-10.7-1.9-12.5-1.4-1.6-1.6-2.4-.8-3.8.6-1,1.4-4.6,1.8-8.2.6-5.4.3-7-1.1-10.1-1.6-3.2-1.8-4-.6-6.6,2.1-4.6,1.8-11.7-.6-14.1s-1.9-2.2-.5-5.8c2.1-5.1,1.9-10.1-.3-13.9-1.6-2.6-1.8-3.7-1-6.4,1.4-4.8,1.1-10.9-.5-13-.8-1-1.4-2.7-1.4-3.8s.6-2.7,1.4-3.8c1.9-2.6,1.8-4-1-9.9-2.1-4.6-2.2-5.3-1-8.6,2.1-5.8,1.8-10.4-1-13.6-1.9-2.4-2.1-3-1.1-4.2,1.3-1.4,3.5-9,3.5-12.3s-1-2.9-2.2-4.2c-2.7-2.7-3.8-5.4-2.6-6.2,1.4-.8,1.1-12.2-.3-14.9-1-1.6-1-3.2-.3-5.8,1.3-4.8.2-10.1-2.7-13.4-2.7-3.2-3-6.1-1-7.8,1.9-1.6,1.9-9,0-12.6-1.3-2.6-1.3-3.2,0-5.9.8-1.8,1.6-5.1,1.8-7.8,0-3.8-.3-5.1-2.1-6.6-1.1-1-2.7-1.9-3.4-2.1-.8-.3-.6-1.4.5-4.5,2.2-5.6,2.1-11.2-.5-14.7l-2.1-2.7,2.1-4.3c3-6.4,2.7-11.5-.6-14.1l-2.7-2.1,2.1-1.6c2.2-1.8,4.2-6.7,4.3-10.7v-2.6l.8,2.4c1.1,3.8,4.8,10.6,5.8,10.6,1.4,0,3,4.8,3,8.8s1.8,8.5,4.3,10.6h.3ZM642.4,354.8c-.6,1.8-2.4,1.8-2.9.2-1.3-4-1.3-5.6,0-5.6s3.7,3.5,2.9,5.4ZM644,286.5c-2.4,3.7-4.2,5-4.2,3s4.8-6.9,5.9-6.9-.3,1.8-1.8,3.8h0ZM897,343.3c0-1.4,6.6-4,8.2-3.4,2.1.8,1.3,2.1-2.6,4-4,1.9-5.6,1.8-5.6-.6ZM892.2,338.3c0-.2,1.3-1.4,3-2.6,1.9-1.4,3.4-1.8,4-1.1s.2,1.4-1.3,2.6c-2.1,1.4-5.6,2.1-5.6,1.1h-.2ZM929.6,374.2c-1.8,2.6-4.8,5.6-7,6.9-4.5,2.6-8.8,2.7-15.4.5-7.8-2.6-9.9-8.2-6.9-18.2,1.8-5.9,3.5-7.7,9-9,2.2-.5,5-1.6,5.9-2.4,1-.8,2.2-1.6,2.7-1.6,2.1,0,1.9-1.8-.8-7.4-3-6.2-4.2-7.7-10.7-13.6-4.5-4-12.2-7.4-23.8-10.6-5.1-1.4-8.8-1.6-24.2-1.1-17.4.5-40.5,3.4-44.3,5.3-1,.5-4.8,1.4-8.6,2.1-3.7.6-8.5,1.8-10.6,2.4s-6.4,1.6-9.6,1.9-7.5.8-9.6,1.1-7.2.6-11.4.8c-4.2,0-7.8.5-8.2,1-3.4,3.4,19.2,4.2,35.5,1.3,23-4,61.9-4.5,73.4-1,16.5,5.1,20.5,6.9,24.3,10.9,5.4,5.8,6.9,9.1,5.4,11.5-.6,1.1-1.9,1.9-2.7,1.9-1.4,0-6.7-6.7-6.7-8.5,0-2.9-14.1-9.3-25.1-11.4-4.6-1-21.4-.6-38.9.5-28.6,1.9-71.5,1.3-82.9-1.3-3.5-.8-8.6-1.9-11.5-2.6-14.4-3-25-10.7-45.8-33.3-7.2-7.7-8-8.5-13.8-12.3-4.8-3.2-6.6-3.8-10.9-3.8s-5.1-.5-5.1-1-1-1-2.1-1c-1.8,0-1.9-.2-.8-1.4,2.4-2.9,4.5-3.4,10.7-2.2,10.9,1.9,13.3,3.7,28.3,22.2,9.4,11.4,21.9,20.6,31.4,23,14.7,3.8,37,4.5,49.9,1.6,11.4-2.6,22.6-4.5,25.9-4.5s5.3-.6,8-1.4c2.6-.8,9.9-2.6,16.3-4.2,10.4-2.4,13.4-2.7,29.9-2.7s33.6,1.4,44.8,5.4c16.5,5.8,21.8,9.1,28.2,17.8,7.2,9.8,10.6,18.6,10.7,27.2,0,5.1-.5,6.6-3.2,10.6v.5ZM890.7,332.9c-.8,1.3-2.1,1.3-2.9,0-.3-.5,0-1.3,1-1.6,1.9-.6,2.9,0,1.9,1.4v.2ZM883,330c-.8,1.3-2.1,1.3-2.9,0-.3-.5,0-1.3,1-1.6,1.9-.6,2.9,0,1.9,1.4v.2ZM875.7,327.6c0,1-1,1.4-2.9,1.4-3.2,0-4.6-1.6-3.2-3s5.9,0,5.9,1.6h.2ZM863.8,324.9c.3.8-.5,1.3-2.1,1.3s-2.6-.5-2.6-1.4c0-1.8,4-1.6,4.6.3v-.2ZM947,367.3c-1.3,7.4-1.9,8.5-4.3,7.5-1-.3-.8-1.1.2-3.2.8-1.6,1.4-4.6,1.4-6.9,0-4.8,1.3-7.5,2.9-5.9s.6,3.2-.2,8.6v-.2ZM996.2,177.2c.8-.8,4.3,4,3.7,5-1.1,1.8-3,.8-3.7-1.8-.3-1.4-.3-2.9,0-3.2ZM995.7,191.6c1-5.1,1.3-5.6,3.2-5.1,2.9,1,3,1.1,1.1,3.2-1,1.1-1.4,2.6-1.1,3.5s-.3,2.6-1.9,4c-2.1,2.1-2.4,2.9-1.4,4.2,1.3,1.9.6,2.9-1.9,2.9s-1.8.6-1.8,2.4-1.4,3.5-5,6.2c-5.1,4-8.6,5-8.6,2.4s1.1-1.9,2.7-2.6c3.7-1.4,5.8-3.5,10.1-9.9,2.2-3.5,4.2-7.8,4.8-11.4l-.2.2ZM964.8,156.1c1.4,0,2.7.6,3,1.4.6,1.9-1.3,1.9-3.8,0q-1.8-1.4.6-1.4h.2ZM950.7,217.4c-13.9-5.8-21.8-19.7-18.9-33.4.6-3.2,1.6-5.9,2.1-6.2.5-.3,1.4-2.1,2.2-3.8,1.4-3.4,6.6-10.7,8.6-12.2,4.2-3,9.8-5.6,12.6-5.6s3.8.2,2.4,2.9c-.6,1.1-2.1,1.9-3.7,1.9s-3.5,1-5,2.4c-1.3,1.3-3.2,2.6-4.5,2.9-5.3,1.3-13.1,20.5-9.9,24.3.5.6,1,3.2,1,5.6s.6,5.1,1.4,5.8c.8.8,1.3,2.2,1.3,3.2,0,2.6,2.6,5,5.3,5s2.7.8,3.4,1.9c.8,1.4,2.1,1.9,4.6,1.9s3.8.5,4.8,2.4c.6,1.3,1.1,2.7,1.1,2.9,0,1-3.8.2-9.1-2.1l.2.3ZM958.2,203.9c-.8,1.8-1.9,3.2-2.6,3.2-5.4-.3-10.6-6.7-11.2-14.1-.8-9.8,2.9-17.1,12.3-24.5,3.5-2.7,5.3-3.4,10.2-3.7,9.3-.6,14.9,3.2,19.5,13.3,3,6.7,2.7,12.8-1.6,20.5-4,7.4-5.6,8.5-6.7,5.3-1.3-3.5-5.3-5.8-10.1-5.8s-8.2,1.6-9.9,5.8h0ZM969.6,238.2c.3,1.9,0,2.6-1.6,2.7-3.8.5-4.5-1.8-2.2-9.8l1.9-7.4-2.4-7c-3.4-9.4-2.4-13.3,3.5-13.3s5,1.6,2.7,5.9c-1.6,3-1.9,5.8-2.1,15,0,6.2,0,12.5.3,13.8h-.2ZM975.5,443c-2.7.3-2.9,3.7-.2,4.5,1.9.6,2.7,3.4,1.1,3.4s-1.6.6-2.6,1.3c-1.6,1.1-1.6,1.6-.5,3.4s1.1,2.2-.2,3.7c-1.3,1.3-1.9,1-5.9-3.2-4.5-4.8-6.4-9.6-5.1-13.6.6-1.9,1.3-1.9,7.8-1.8,6.7.3,10.2,1.8,5.4,2.4h0ZM975.2,427.1c-2.4.3-5.3,1.1-6.2,1.9-1.6,1.1-1.6,1.6-.5,2.9s1.1,1.6-.2,1.6-1.8-.3-2.1-.8-1.9-1.1-3.8-1.4c-1.8-.3-3.8-1.4-4.8-2.2-4.2-4.8-6.6-14.9-4.6-19.8.8-2.2,1.4-2.6,4-2.1,3.4.6,3.7,0,1.3-2.7-2.9-3.2-.2-4.2,5-1.9,2.6,1.1,6.6,2.1,9.3,2.1s4.8.5,4.8,1,1.1,1.3,2.4,1.6c2.6.6,3.4,3.4,1.1,3.4s-1.9.6-2.6,1.4c-1,1.1-.6,1.9,1.4,3.8,3.2,2.9,2.1,3.8-4.5,3.7-5.4,0-6.7,1.1-3.8,3.8,1.9,1.9,2.1,1.9,3.5.3,1.9-1.9,1.4-1.9,5.1-.5,5.3,1.9,3.8,3-4.8,4.2v-.2ZM984,362.2c1.1.6,1.9,2.1,1.9,3.2s-.8,2.2-1.9,2.6-1.9,1-1.9,1.4.8,1.1,1.9,1.4c1.1.3,1.9,1.1,1.9,1.9s-1,1.8-1.9,2.1c-2.2.6-2.6,3.4-.5,3.4s1.4.8,1.4,1.8-1,1.9-2.9,2.4c-3.5.6-3.8,3.2-.8,4.5,1.9.8,1.8,1-1.4,1s-3.8.5-4.2,1c-.3.5-1.4,1-2.4,1s-2.1.6-2.4,1.4-1.1,1.4-1.8,1.3c-.6,0-2.7-.3-4.3-.5-4-.5-8.6-5.9-9.4-11.4-.3-2.2-1-5.3-1.6-6.9-.6-2.1-.5-5.3.8-11,1.6-7.8,1.9-8.3,5.6-10.4,2.9-1.6,5.4-2.2,9.8-2.2s6.1.2,7.8,2.6c1.4,2.1,2.6,2.6,5,2.4,3.5-.3,4.3,2.2,1.1,3.2-1.1.3-1.9,1-1.9,1.4s.8,1.4,1.9,2.1l.2.5ZM982.2,332.7c.3-2.4,2.1-2.7,2.6-.5,0,.8-.5,1.6-1.3,1.9-1.1.5-1.4,0-1.3-1.6v.2ZM985.9,325.5c-1.3,3.4-3.5,3.4-4.2,0-.8-3.7-3.8-7.4-8-9.4-4.3-2.1-6.9-2.1-10.9-.3-3,1.3-3.4,1.9-3,4.8,0,1.1-.6,1.8-2.4,1.9-3.5.5-3.8,2.1-.8,3.5,2.9,1.3,2.7,3.4-.3,3.8-1.1.2-2.1.5-2.1.8,0,1.4,4.5,6.2,5.9,6.2s2.4,1,3.5,2.1c1,1.1,3.2,2.7,5,3.4,3.7,1.6,5.6.8,10.6-3.8,2.7-2.6,3.2-2.7,3.2-1.1,0,3.7-3.4,6.4-8.3,7.2-10.7,1.8-14.1.8-17.8-5-4.3-6.7-5.1-11.4-3.4-18.6.8-3.2,1.9-6.4,2.2-6.9.5-.6,1.1-2.2,1.4-3.7s1.6-5,2.9-7.7c2.1-4.5,2.9-7.5,6.4-21,1-3.5,2.2-17.1,2.1-21.3,0-1.3-.3-5-.8-8l-.6-5.6h2.9c4,0,4.3.6,2.1,4.5-1.8,3-1.9,3.5-.5,5.1,1.9,2.1,1.9,3,0,3s-1.4.6-1.4,1.4.6,1.4,1.4,1.4c1.8,0,1.9,3,.5,4.5-.8.8-.6,1.6.2,3,1,1.4,1,2.2,0,3.4-.8,1-.8,1.9.3,4.2,1.3,2.6,1.3,2.9-.2,4-1.6,1.1-1.6,1.3,0,2.9,1,1.1,1.3,2.6,1,3.8-.3,1.4,0,2.4,1,2.7,2.2.8,1.9,4-.5,5.3-2.6,1.4-1.9,3.2,1.6,3.8,2.4.5,3.7,2.4,1.6,2.4s-5.1,1.8-5.1,2.9c0,1.8,2.4,2.6,5.9,1.8,1.9-.3,3.2,0,3.8.6,1.1,1.8.3,2.9-2.1,2.9s-1.9.5-1.6,1.8c.2,1.1,1.3,1.8,3.2,1.8,3,0,4.5,2.1,2.4,3.4-1.8,1.1-.3,4.2,1.4,3.5,1.9-.8,2.7,1.4,1.4,4.5h0ZM971.2,330c-.3,6.2-1.9,7-5.9,3.4-3.2-3-3.2-5.3-.2-10.2,4-6.4,6.7-3.5,6.1,6.9ZM1466.6,856.9c1.3,0,2.9.6,3.7,1.4,1,1.3.8,1.4-1.3,1.4s-3-.6-3.7-1.4c-1-1.3-.8-1.4,1.3-1.4ZM1458.7,857.9c.6,0,.8.5.5,1s-.8,1-1,1-.5-.5-.5-1,.5-1,1-1ZM1455.2,864.7c2.1,1,3.4,1,5.9,0,4.2-1.4,5-1,7.4,4.3,1,2.2,2.2,4.5,2.7,4.8.5.3,1,2.2,1,4.2s-.6,4.3-1.8,5.3c-1.8,1.6-1.8,1.4-2.4-4.2-.5-4.8-1.1-6.1-3.2-7.7-3.4-2.4-8.5-4-12-4s-3.5-1.1-1.4-2.9c1-.8,1.9-.8,3.8,0v.2ZM1447.5,844.3c.8,0,1.4.6,1.4,1.4,0,1.4-1.1,1.9-2.2.8-1.1-1.1-.6-2.2.8-2.2ZM1450.7,861.1c.2,1.1-.3,1.6-1.8,1.6s-1.9.6-1.9,1.3-.8,2.4-1.9,3.7c-1,1.3-2.1,3.5-2.6,5-.6,2.7-1.9,4-2.7,2.7-1-1.4,2.9-10.9,5.6-13.9s4.6-3.4,5.3-.6v.3ZM1437.3,811.5c1.3,0,3,2.7,2.4,3.8-.8,1.3-3,1.3-3.8,0-.6-1.1.3-4,1.4-4v.2ZM1428.8,791.5c2.1-2.1,3.7-.8,3.7,2.6s-1,3.5-3.4.8c-1.6-1.8-1.6-2.1-.2-3.5l-.2.2ZM1400.6,725.4c.5,0,1,.5,1,1s-.5,1-1,1-1-.5-1-1,.5-1,1-1ZM1372.2,657.1c.3.3.5,1.1.2,1.8-.3,1-.6,1-1.1,0-.8-1.3,0-2.7,1-1.8ZM1344.2,586.5c.3.3.3,1.4,0,2.4-.3,1.8-.5,1.8-1.1,0-.8-1.8,0-3.4,1-2.4h.2ZM1321.1,535c.5,0,1.3,1.1,1.9,2.4,1.3,2.9.2,3.2-1.6.5-1.4-2.2-1.4-2.9-.3-2.9ZM1318.4,543.1c4.3,4.8,6.9,10.2,6.9,14.4s1.1,4.8,3.7,8.2c3.5,4.6,4.6,7.7,8.5,20.8,1,3.2,3,7.4,5,9.4,1.8,2.2,3.4,4.2,3.4,4.6s0,3.7.2,7.4c.2,7.2,2.1,11,6.2,13,1.8.8,2.2,1.8,2.2,5.8s5.1,17.1,7.8,17.9c1.6.5,2.6,3,3.4,9.1.6,5.3,1.4,7,4.3,10.4,3.5,4,6.1,12,5.3,16.3-.6,3-.2,3.8,4.3,9.1,4.3,5,5,6.4,5.3,10.4.2,4.6,4.5,13.6,6.4,13.6s4,5.9,3.5,9c-.6,3.4,2.1,9.4,5.8,12.6,1.8,1.4,2.4,3,2.4,5.4,0,6.6,2.9,14.6,6.4,17.3,2.9,2.4,3.2,3,3.2,7.7s1.4,8.5,5.9,13c3.2,3.2,3,2.4,3.2,10.2.2,5.9.3,6.4,4.2,9.9s4,4,4,9.3,2.1,11.2,7.2,16.6c2.9,3,3.2,4.2,3.8,11.2.3,4.3,1.6,10.1,2.6,12.8l1.9,5.1-3,3.5c-1.8,1.9-3.7,5-4.5,6.7-1.3,3.2-2.6,3.8-5.1,2.4-.8-.5-8.6-1.3-17.4-1.9-8.8-.6-17.3-1.3-18.9-1.6-1.6-.2-10.2-.6-19.4-1-9-.3-21.1-.8-27-1.3l-10.6-.6-.8-3.7c-.5-1.9-1.8-5.3-3-7.2-3.7-5.6-3.8-8.2-1.1-11.8,1.3-1.8,2.4-4.6,2.4-6.2,0-3.2-3.2-9.3-4.8-9.3s-1-1.9-1-4.5.6-5.1,2.2-7.2c1.3-1.6,2.6-4.6,3-7.4.6-4,.3-5-2.1-8.6-2.2-3.2-2.9-5.3-3.4-11s-.2-6.9.2-6.9,1.3-1.9,1.8-4.3c1-4,1-4.6-1.4-8.3-3-4.8-3.4-10.6-1-15,2.4-4.5,2.1-9.3-.8-12.6-2.7-3.4-3-6.6-1-12.5,1.1-3.4,1.3-5,.3-9.1-.6-2.9-1.8-5.9-2.4-7-1.6-2.6-1.6-9.3,0-12.6,1.6-3,.8-7.2-2.2-11.4-2.4-3.2-2.6-9.1-.3-13.9,1.6-3.4,1.6-3.7,0-8-3.4-8.8-3.5-10.7-1.4-14.2,2.4-4,1.8-9.3-1.4-12.6-2.1-2.2-2.2-4.5-1.1-11.7.5-3,.2-4.8-1-6.7-3-4.8-3.5-8.2-1.6-12.3,3.2-6.7,3.2-9.6.3-13.8-2.7-4-3.4-10.6-1.8-17.9.6-3,.5-4.2-1.8-6.9-2.7-3.5-3.4-8.6-1.3-9.6,1-.3,1.1-2.4,1-7.5-.3-8.6-1-10.2-3.2-11-2.1-.6-3.2-5-2.6-9.9.6-4.6,1.8-5.3,5-2.7,2.4,1.9,2.7,2.6,1.6,3.8-2.2,2.7-.3,10.1,3.7,14.6v.5ZM1387,869.4c0-1.3,3-1.9,8-1.4,16.5,1.4,38.9,3.7,39,3.8,0,0,0,1-.3,1.8-.6,1.8-1.9,2.1-2.7.8-.5-.8-19.8-3-24.3-2.9-4.6.2-19.8-1.4-19.8-2.1h.2ZM1406.4,881.4c-1,1-13.9,1.8-13,.8.5-.5,2.1-1.1,3.4-1.1,3.7-.3,10.1,0,9.6.3ZM1340.6,911.9c7.4-.3,12.8-8.3,12.6-18.7,0-3.4.3-4.5,1.1-4.3.8.3,1.1,2.4,1,6.9-.2,6.9-3,12.8-7.2,15.5-3.2,1.9-5.8,2.6-8,1.6q-1.8-.8.5-1ZM1338.1,904.1c-3.4-1.3-2.2-2.2,3-2.6,3.7-.2,4.3,0,4.3,1.4s-.5,2.2-1.1,2.9c-1.4,1.4-3.7,1.6-3.7.2s-1.1-1.4-2.6-1.9ZM1316.6,665.4c.2-.6,1-1.4,1.8-1.8.8-.2,1.1,0,.8.8-.2.6-1,1.4-1.8,1.8-.8.3-1.1,0-.8-.8ZM1316.5,642.2c0-.5.5-1,1-1s1,.5,1,1-.5,1-1,1-1-.5-1-1ZM1318.7,690.2c.3-1,.6-1.8.6-2.1s.6-.3,1.6-.3,1.4.6,1.1,1.8c-.2,1-1.1,1.8-2.1,2.1-1.4.3-1.6,0-1.1-1.3l-.2-.2ZM1324.3,715.8c.5.8,1,2.4,1,3.7,0,3-2.7,2.7-3.5-.3s1.1-5.6,2.6-3.4ZM1327.2,742.3c0,2.2-1.8,2.6-2.9.6-.6-1.3-.6-2.1,0-2.6,1.3-.8,2.9.3,2.9,1.9h0ZM1328.3,767.1c1.3,2.1,1,5.4-.6,5.9-3.5,1.3-5.3.5-5.3-2.9s4.6-5.1,5.9-3.2v.2ZM1332,803.6c0,2.2-.5,3-1.8,3-2.6,0-3-.8-3-5.4s.3-4.2,1.4-4.2c1.9,0,3.4,3,3.4,6.7v-.2ZM1328.6,829.5c2.9-.6,4.2,1.4,2.4,3.7-1.6,1.9-4.8,1.9-5.4,0-.8-1.9.2-3,3-3.7ZM1328.2,854.5c.5.3,1,1.3,1,1.9s-.5,1.4-1,1.4-1-1-1-1.9.5-1.8,1-1.4ZM1328.8,871.3c.3-1.4.8-1.6,1.9-.8.8.6,1.3,1.8,1.3,2.4s-.3,1.3-.8,1.3c-2.1-.2-2.9-1.1-2.4-2.9ZM1333.6,880.4c.3.3-.2.5-1.3.5s-1.3-.3-.6-.6,1.6-.3,1.9,0v.2ZM1332.5,883.6c1-1.3,1.6-1.4,2.1-.6.5.6,2.1,1,4.3.6,3.4-.5,5.8.5,5.8,2.4s-3,.8-6.7.8c-7,0-7.5-.3-5.4-3.2ZM1343.5,877.5c0-1.1,4.2,2.1,6.4,5,1.4,1.8,2.4,3.8,2.1,4.6s-.5.8-.6,0c0-.6-1.8-2.9-4-5.1-2.1-2.2-3.8-4.3-3.8-4.5ZM1355.2,877.1c-1.9-1.6-2.2-2.1-1-2.7,1-.6,2.1-.3,3.5.5,1.1.8,4.3,1.6,7,2.1,5.9.8,6.7,2.7,2.7,6.4-3.7,3.5-5.6,3.4-7.8-.8-1-1.9-3-4.3-4.3-5.4h-.2ZM1360.8,867.8c.6-.3,1.8-.3,2.4,0s0,.5-1.3.5-1.9-.2-1.3-.5h.2ZM1366.6,867.8c.6-.3,1.6-.3,1.9,0s-.3.5-1.3.5-1.4-.3-.6-.6v.2ZM1313.1,596.3c1.1-.5,1.6,0,1.6,1.4s-.6,2.1-1.9,2.1-1.9-.6-1.9-1.4.2-1.4.5-1.4,1.1-.3,1.9-.6h-.2ZM1311.7,571.3c0-2.1.3-2.6,1-1.8.8.8.8,1.6,0,2.9-1,1.6-1,1.4-1.1-1.1h.2ZM1306.9,546.2c1.1-1.1,1.4-.8,2.4,2.1.5,1.6.3,2.2-.8,2.2-1.8,0-2.9-2.9-1.6-4.2v-.2ZM1305.4,498.3c-.6-1.9-.3-2.2,1.1-1.9,1.8.3,6.1,6.9,6.1,9.3s-.8,1.1-1.9,1.1c-1.9,0-3.4-2.4-5.3-8.5ZM1317.9,514.7c0,2.7-.5,3.4-1.9,3.7-2.6.3-4.8-5-2.9-6.6,2.6-2.1,4.8-.6,4.8,3v-.2ZM1312.5,465.4c.5,0,1.9,1.6,3.4,3.7,2.7,4,3.2,8.3,1.4,12.2-1.6,3.4-2.7,3-1.8-.5,1-3.2-.3-9.3-2.6-11.4-1.4-1.4-1.8-4.2-.5-4.2v.2ZM1047.2,377.7c.6-.6,5.4,4.3,5.4,5.4s-.5,1-1.3,1c-1.3,0-5-5.8-4.2-6.6v.2ZM1052.2,373.5c1.1,0,2.7.5,3.5,1.1,2.2,1.8,4.8,6.1,4,6.9-.6.6-3.2,1-3.4.5,0,0-.2-1.1-.5-2.1-.2-1-1.6-2.9-3-4-2.4-2.1-2.6-2.2-.8-2.2l.2-.2ZM1283.7,436.4c-8.2,0-10.9.8-23.2,6.2-18.4,8.2-27.5,11.8-33.6,13.4-6.9,1.8-9.9,1.8-19.2,0-16.3-3-44.3-16.3-71-33.8-17.3-11.4-29.3-17.8-43.4-23.2-14.7-5.8-23-7-38.2-6.1-4,.3-3.8-2.2.5-4.3,1.9-1,6.1-1.9,9.4-2.2,9.6-1.1,15.4,1,49.1,17.6,13.1,6.4,27.7,15,33,19.5,1.6,1.4,4.3,3.4,5.8,4.3,1.6,1,4.2,2.7,5.9,3.8,9,6.2,19.8,12.3,22.2,12.3s2.9.8,4.5,1.9c3.4,2.2,5.4,1.6,5.4-1.4s-1-2.7-3.4-3.7c-1.8-.8-3.7-1.6-4.3-1.6-1.3,0-12.5-6.6-13.3-7.8-.3-.5-3.7-3.4-7.5-6.2-7-5.4-13.6-10.7-22.4-18.4-2.7-2.2-6.6-5.3-8.6-6.7-3.7-2.6-8.8-6.6-18.2-14.7-13.6-11.7-24.8-16.6-47.7-21.1-13.1-2.6-26.1,0-34.7,6.6-6.4,5-7.4,8.5-2.2,8.5s3.8.6,4.8,1.6c1,.8,3,2.2,4.8,3.2,4,2.1,5.1,4,4.3,7.2-1,4.2-5.1,8-10.6,10.1-4.6,1.8-5.8,1.9-9.6,1-2.9-.8-5.3-2.2-7.4-4.6-5.4-6.2-6.2-11.2-3.2-19.4,3.5-9.4,8.8-14.1,21.4-19.5,6.4-2.7,8-3,16.3-2.9,11.2,0,24.5,2.2,33.6,5.6,10.9,4,26.2,13,35,20.8,2.9,2.6,7.5,6.6,10.2,8.8,4.6,4,11.7,10.2,26.1,23.2,16.3,14.7,28.5,21.8,49.8,29.1,7.4,2.6,10.6,3,16.5,3,14.9-.2,19.8-1.3,34.1-7.8,7-3.2,21.4-7.5,28-8.5,9-1.1,16.3,4.8,17.3,13.9.3,3-1.1,4.5-2.2,2.1-3.7-8.2-5.6-9.4-14.4-9.4l.3-.3ZM1061.1,370.7c1.8,0,5.1,5.8,4.6,7.7-.8,2.4-2.4,2.6-2.4.2s-.6-2.6-1.4-3.7c-1.6-2.1-1.9-4.3-.8-4.2ZM1072.3,373.1c1.1.5,1.6,1.8,1.6,4.3,0,5.3-2.6,5.1-3.4-.2-.8-4.5-.5-5.1,1.8-4.2ZM1078.6,379c.2-1.9.6-3.5,1-3.5,1.6,0,2.7,1.8,3.4,4.5.6,3.5,0,4.3-2.7,3.2-1.6-.6-1.9-1.4-1.6-4.2h0ZM1088.2,379.3c1.9,0,4,2.7,4.6,5.6.6,3.4-.5,4-3.7,2.1-1.8-1-2.6-7.7-1-7.7ZM1099.2,384.1c1,0,1.9.3,1.9.8s.2,2.1.3,3.8c.3,3.2-.6,3.8-3.5,2.2-2.2-1.3-1.3-6.7,1.1-6.7l.2-.2ZM1104.8,391c1.9-3.5,4.3-2.2,3.4,1.6-.6,2.2-1.1,2.6-3,1.3-1-.6-1.1-1.3-.2-2.9h-.2ZM1113.1,393.7c.8-1.1,5.3,2.9,5.3,4.6s-1.8,1.8-3.5.5c-1.4-1-2.4-4-1.8-5.3v.2ZM1124.2,403c0-1.8,2.1-1.4,2.7.3.2.6-.3,1.1-1.1,1.1s-1.6-.6-1.6-1.6v.2ZM1292,456.6c2.7-2.9,4.2-3.8,6.6-3.8s8.3,3.7,8.3,6.1-1.3,1.9-2.4-.6c-.5-1.1-1.8-2.2-2.7-2.6-1.3-.2-1.8.3-1.8,2.6s-.6,3.4-2.1,4c-1.4.8-1.9,1.8-1.6,3.4.6,3.5-2.9,3-5-.6-1-1.6-1.9-2.9-2.4-2.9-1.6,0-.6-2.1,2.7-5.8l.3.3ZM1283,471.6q1.4-1.9,5.6.3c6.1,3.2,12.5,3.8,17.3,1.6,3.4-1.4,4-1.6,4.8-.3,1.4,2.2,1.1,7-.6,9.4-1.8,2.6-2.9,2.7-4.2.5-.6-1.3-2.2-1.6-6.6-1.6s-6.7-.5-7.8-1c-1.8-.8-2.7-.8-4.2,0-4.5,2.9-7.8-4.3-4.3-9.1v.2ZM1301.9,516.1c2.1-.6,2.2-.5,1.9,2.1-.3,3.4-3.2,4.3-4.2,1.3q-.8-2.4,2.2-3.4ZM1298.2,507c-1.8-1-1.9-1.8-1.3-8.5.8-9.1,2.2-12.6,2.2-5.3s.6,6.4,1.4,7.8,1.6,4.6,1.8,6.9c.2,2.6,0,4.3-1,4.5-.8.3-1.1-.5-1.1-2.1s-.8-2.9-1.9-3.5l-.2.2ZM1289.3,501.1c-.5,1.6-1.4,2.9-1.9,2.9-1.1,0-1.1-1.1,0-4.3,1.3-3.5,3-2.2,1.8,1.4h.2ZM1281.3,511.8c1.4,0,6.2,3.4,6.2,4.5,0,1.9-1.3,2.1-4.2.6s-2.7-2.2-2.7-3.4.3-1.9.6-1.9v.2ZM1274.1,537.7c.2-1.3,1.1-2.4,2.1-2.6,1.4-.3,1.8.2,1.4,1.9-.2,1.3-1.1,2.4-2.1,2.6-1.4.3-1.8-.2-1.4-1.9ZM1268.6,563c1.1,0,1.3.3.5,1.9-.6,1.1-1.3,1.9-1.4,1.9s-.5-1-.5-1.9.6-1.9,1.4-1.9ZM1258.1,589.1c1.6,0,1.8,1.3.5,4-1.1,2.1-2.6,2.4-3.2.6s1.1-4.6,2.7-4.6ZM1247.5,612.7c.8-1.4,1.4-1.6,2.2-.8s.6,1.9-.5,4.6c-1.8,3.8-2.9,5-3.7,3.7-.6-1,.5-4.8,2.1-7.4l-.2-.2ZM1236.3,640.6c.6.2,1,.8,1,1.3s-.5,1.1-1,1.3c-.6.2-1-.3-1-1.3s.5-1.4,1-1.3ZM1221.8,665.4c2.1-3.8,6.4-1.3,4.6,2.6-.6,1.3-1.3,2.2-1.6,2.2-4.3-.8-4.6-1.6-2.9-4.8h-.2ZM1213.1,688.6c.5,0,.8,1.4.6,3-.3,3.4-2.4,4.8-3.2,2.4-.6-1.8,1.1-5.4,2.6-5.4ZM1199.2,715.9l1.8-2.7.3,2.7c.2,1.4,0,3.4-.2,4.2-.3.8-1,1.4-1.6,1.4-1.9,0-2.1-2.9-.3-5.6ZM1185.1,745.1c2.1-2.4,5-1,4.2,2.2-.8,2.9-2.7,3.4-4.2,1.1-1-1.4-1-2.2,0-3.2v-.2ZM1175.4,772.6c3.4.5,3.5,1,1.4,3.8-1.6,2.4-1.9,2.4-5,1.1-4.2-1.8-1.3-5.8,3.5-5h0ZM1158.4,800.9c.8-1.3,8.3-1.1,8.3.3,0,2.1-1.8,3.8-3.2,3.2-.8-.3-1.8-.2-2.1.3-.3.5-1,1-1.4,1-1.1,0-2.2-3.5-1.4-4.8h-.2ZM1153,840.9c1.1-1.9,2.6-6.4,3-9.9,1.9-12,2.6-13.6,6.9-16.3,5.6-3.7,7.8-8.6,8.6-19l.6-8.5,5-4.8c4-3.8,5.1-5.8,6.1-9.9,1-3.8,1-5.9,0-8.3-1.3-3.7.3-7.2,4.2-8.6,4.5-1.8,7.2-6.2,7.8-13.3,1-10.1,1.3-11,6.2-15.7,4-3.8,4.8-5,5.3-9.3,1.1-8.3,3.4-15,5-15s2.7-1.3,4.2-2.7c2.4-2.4,2.9-3.8,3.5-10.4.6-7.4.8-7.8,4.8-11.5,5.8-5.4,8.2-10.1,8.2-15.2s1.6-10.2,3.8-10.9c3.8-1.3,8.8-11.5,8.6-17.8,0-3.7,1.4-8,3-8s6.6-9,7.4-12.6c.3-1.9.2-4.5-.3-5.8-1.1-2.9,1-8.6,2.9-8.6s2.7-1.6,4.5-3.4c2.6-2.7,3.2-4.2,3.2-7.7s-.5-4.5-1.1-5c-2.4-1.4,0-7.4,5.3-12.3,4.3-4.2,5.3-5.6,5.8-9.8.6-4,.5-5-1-5.9-2.4-1.8-1.3-4.6,3.8-11,2.4-2.9,4.5-5.9,4.5-6.7s0-4,.2-7.2v-5.8l3.4-.3c2.1-.2,4.2.5,5.9,1.8,1.6,1.1,3.7,1.9,4.6,1.9s2.7,1.4,4,3.7l2.1,3.7-2.4,2.2c-1.6,1.4-2.4,3.4-2.4,5.3s2.6,10.4,4.8,15c1.6,3.2,1.9,7.4.6,9.4-1.4,2.4-.6,5.8,3.5,16.3,1.9,4.8,1.9,5.3.3,8.5-2.1,4.5-2.1,8,.2,11.5,2.1,3,1.8,8.3-.5,11.7-1.9,2.9-1.6,5.4,1.8,11.5,2.9,5.4,3,5.8,1.9,10.7-1.3,5.6-.2,11.8,2.4,13.9,1.9,1.6,1.8,3-.2,8.8-1.6,4.5-1.6,4.8.5,9.8,2.4,5.9,2.9,11.2,1.3,17-1.4,5-.5,8.8,3.2,14.2,2.2,3.4,2.4,4,1.1,5-.8.6-1.4,2.1-1.4,3.4s-.5,4-1,6.1c-1.1,4.2-.2,7.5,3.4,12.5,1.8,2.4,1.8,3,.6,5.8-.6,1.8-1.8,5-2.2,7.4-.8,3.7-.6,4.8,1.1,7.8,2.2,4,2.7,9.6.8,12.8-.6,1.1-1.4,4.3-1.9,6.9-.6,4.2-.3,5.3,1.8,8.5,1.3,1.9,2.9,3.7,3.4,3.7,1,0,.6,4.5-.8,19-.5,4.5-.2,6.7,1,9.1,2.2,4.5,2.1,11.2-.3,14.2-1.3,1.6-1.9,3.8-1.9,7s.5,5,2.9,7.4c3,3,3.8,7.5,1.6,9-2.2,1.3-3.5,4.8-3.5,9.8v4.8l-17.6.6c-18.7.8-135.2.3-140.8-.5-3-.5-3.5-1-4.6-4.8-.6-2.4-2.7-5.9-4.8-7.8l-3.5-3.7,2.1-3.5h-.2ZM1295,873.7c.3.3-.3.5-1.3.5s-1.3-.3-.6-.6,1.6-.3,1.9,0v.2ZM1294.7,867.3c-.3-.5,3.7-.8,8.8-.8s9.3,0,9,.3c-1,.8-17.4,1.3-17.9.5h.2ZM1295.5,881.9c5.1,0,9.4-.6,9.4-1.1s-1.8-.6-3.8-.3-4.2,0-4.5-.3c-.3-.5,1.3-1,3.7-1,5.3,0,8.8-1.1,9.3-2.6.3-.8-1.1-1.3-4.8-1.3h-5.1l3.8-.8c5.8-1.1,20.8,0,20.8,1.6s-.5,1.4-1,1.8c-.5.3-1.9,2.6-3,5-1.3,2.7-2.9,4.3-3.8,4.3s-2.4.3-3.2.6c-1.1.5-1.8,0-2.1-1.3-.8-2.7-2.7-3-14.1-2.1-9,.6-14.1.2-11.7-1.3.5-.3,5.1-.6,10.2-.8l-.2-.5ZM1315.5,866.5c0-.5,1.3-1,2.9-1s2.7.3,2.4,1c-.3.5-1.6,1-2.9,1s-2.4-.5-2.4-1ZM1261.4,867.3c-1.3,0-1.9-.2-1.3-.5.6-.3,1.8-.3,2.4,0s0,.5-1.3.5h.2ZM1251.7,867.3c-5.6,0-5.9,0-2.7-.8s4.8-.5,6.2,0c2.2.6,1.6.8-3.5.8h0ZM1225.4,867.5c-3.7,0-6.6-.5-6.6-1,0-1.3,9.6-1.3,11.5,0,1,.6-.5,1-5.1,1h.2ZM1142.9,831c2.1-4,2.6-4.2,5.8-1.8,2.2,1.8,2.6,2.7,2.1,4.8-.3,1.4-1.1,2.6-1.8,2.4-7-.8-8-1.8-6.1-5.4ZM1142.1,844.6l2.6-2.7-.5,2.4c-.3,1.3-.5,3.2-.6,4,0,1-.8,2.1-1.9,2.7-1.8,1-1.9.8-1.9-1.4s1.1-3.7,2.6-5.1l-.2.2ZM1118.4,862.8c0-2.7,4.6-10.4,7.8-13.1,3-2.6,7.2-4.2,8.3-3s0,1.4-3.2,1.9c-1.6.3-3.4,1.3-4.2,2.2-.6,1-2.1,2.7-3,3.8s-2.4,3.8-3,6.1c-1.3,4-2.7,5.3-2.7,2.1ZM1128.5,867.9v6.1c.3,3.4.3,6.1.2,6.1-2.2,0-4.6-5.3-4.6-10.1,0-7.4,4.8-17,8.5-17s2.6.8,3.8,1.9,3.8,1.9,5.6,1.9,3.5.6,4.2,1.9c1.6,3,1.1,3.7-3.7,4.2-2.6.3-6.9,1.6-9.4,2.9l-4.6,2.2.2-.2ZM1137,874.5c-5-2.4-4-4.3,3.7-7.2,6.2-2.2,6.7-2.4,6.7-.8s-.6,1.9-1.4,2.2-2.1,2.1-2.9,4c-1.6,3.8-1.8,3.8-6.1,1.8h0ZM1145.9,879.3c-1.1-.2-2.4-.8-2.9-1.3-1-.8,4.2,0,5.3.8.8.6-.5,1-2.4.5ZM1151.2,868.4c1.4-3.4,1.6-4.5.6-7.2-.6-1.8-2.1-4.3-3.2-5.6-1.3-1.4-1.9-2.9-1.6-3.8.8-1.9,1.3-1.9,4,0,4,2.7,5.4,14.1,2.4,18.6-.8,1.3-2.1,2.2-2.7,2.2-1,0-1-.8.5-3.8v-.3ZM1190.4,890.2c-11.5-1.3-37.9-7.5-39.5-9.3s8.8,0,13,1.9c1.9,1,7.2,2.2,11.7,2.9,8.6,1.1,29.8,4.8,31.4,5.4,1.9.8-5.9.3-16.5-1h0ZM1163,867.6c-1.1-.2-2.2-.8-2.2-1.3s11.7-.8,28.8-.8,28.2.3,27.2,1c-1.4.8-49,1.8-53.8,1.1ZM1216.5,892.6c-2.4-.6-2.2-.8,1.1-.3,8.2,1.1,121.3.3,128.3-.8,1.4-.2,1.9.2,1.9,1.6,0,2.7-3.8,3.2-33.8,3.4-14.2,0-26.9.3-28,.5s-2.7.2-3.5,0-12.2-.5-25.1-.8c-21.8-.3-33.6-1.4-41.1-3.7l.2.2ZM1270.1,902.3c-1.6,1-6.2,1-14.6,0-4.3-.5-3.4-.6,5.3-.8,7.2,0,10.2,0,9.1.8h.2ZM1224.3,901.4c-.8,0-1.4-.5-1.4-1s.5-1,1-1,1.1.5,1.4,1c.3.5,0,1-1,1ZM1229,917.7c-1.1,0-1.3-.3-.6-.6s1.6-.2,1.9,0c.3.3-.3.5-1.3.5v.2ZM1268.2,923.6c-.8.5-3.8,1-6.7.8-5.8,0-24.6-3.8-25.8-5.1-1.1-1.1,14.1.5,18.6,1.9,2.1.8,6.6,1.3,9.6,1.4,4.2,0,5.4.3,4.3,1ZM1282.2,923.3c-1.6,0-2.1-.2-1.1-.5,1-.2,2.2-.2,2.9,0,.6.3,0,.5-1.8.5h0ZM1378.6,917.5c-11,1.4-15,1.3-6.4-.3,12.2-2.2,15-2.6,15-1.6s-3.8,1.3-8.5,1.9h-.2ZM1418.4,905.1c-2.7,1.1-50.2,8.8-54.4,8.8s-2.9,1.8-1.1,3.5c1.4,1.4-7.7,3-27,4.6-23.2,1.9-46.1,2.7-46.7,1.8-.8-1.1,2.7-2.1,8.2-2.1s5.6-.6,7.2-1.4l2.9-1.3h-3.8c-40-.8-45.1-1.1-56.6-3-6.6-1.1-12.5-2.6-13.1-3-.6-.6.5-.8,3.4-.3,20.6,2.9,65.8,2.6,65.8-.5s-9-2.1-31.4-2.4c-20-.2-41.6-1.4-42.7-2.7-.2-.2,8.2-.3,18.7-.3,25,0,34.2-.6,37.8-2.9,2.4-1.6,5.1-1.9,23.7-2.1,13.1-.2,21,0,21,.6s-.6,2.2-1.4,3.7c-1.9,3.8-1.8,7.4.3,9.6,2.2,2.4,14.6,3.8,19.4,2.2,2.9-1,8.3-6.7,10.7-11.2,1.1-1.9,1.8-2.2,9.4-2.2s8.2.2,7,1.4c-.8,1-3,1.4-5.6,1.6-3.8,0-4.2.2-1.9.8,4.6,1.4,25.8,0,42.9-2.9,3.2-.5,6.7-1,7.7-1q1.9,0,0,.8v-.2ZM1362.4,900.3c.3-.5,1-1,1.6-1s.6.5.3,1c-.3.5-1,1-1.6,1s-.6-.5-.3-1ZM1423.2,894.5c-1.1.5-5.8,1.4-10.1,1.9-4.5.5-11,1.4-14.9,1.9-10.4,1.4-16.6,1.8-18.1,1-1-.6-.8-.8.6-1,1.1,0,3.2-.3,4.8-.5,1.6,0,8.3-1,15-1.8,19-2.2,25-2.7,22.6-1.6h0ZM1446.1,884.4c-1.9.3-5.9,1.3-9.1,2.1-6.1,1.6-8.8,1.9-35.2,5.1-21.1,2.6-38.2,3.5-39,2.2-.8-1.1,1.1-2.9,3.2-2.9,7.5,0,44.2-4.3,49.6-5.6,2.6-.6,25.6-3.4,28.2-3.4s3.7-1,5.8-2.2c3-1.8,3.8-2.7,3.8-4.8s.2-2.6,2.9-2.1c4,.8,6.4,2.2,6.4,3.7s-11.5,7-16.5,7.8h0ZM1480.3,877.5c-.6,5.4-4.2,12.2-8,14.9-3.2,2.2-11.7,3.5-13.8,2.1-1.6-1.1-1-1.3,3.5-1,3.8.2,10.4-3,12.6-6.4,1-1.4,2.7-5.3,3.8-8.5l2.2-5.9-.5,4.8Z"/>
    <path class="st0" d="M1217.9,448.9c-4,0-9.6-.5-12.5-1.3s-5.6-1.1-6.1-1c-2.4,1.4.8,3.7,8,5.8,2.7.8,7.2,1,12.2.6,8.6-.6,9.1-.8,9.1-2.7s-.3-1.6-10.6-1.4h-.2Z"/>
    <path class="st0" d="M1016.8,390.8c0,3,.6,4.3,3,6.4,2.1,1.8,4.2,2.6,6.6,2.6,5.1,0,7-1.8,7.5-6.9,1-8.6-4-13.1-11.8-10.6-4,1.3-5.3,3.4-5.3,8.5ZM1023.4,389.9c1.4-1.4,4.2-.5,4.2,1.4s-1.4,2.6-3.5,1.1c-1.4-1-1.6-1.6-.6-2.6h0Z"/>
  </g>
  <path class="st1" d="M986.7,189.2c-2.4-4.6-4.8-10.6-5.4-13.1-1.3-5.4-7.2-9.3-9.4-6.4-.8,1-1.8,5.6-2.4,10.1-1.3,11.7-3.4,13.4-17.1,15.2-8.6,1.1-13,2.6-16,5.3-2.2,2.1-16.6,8.8-32,14.7s-34.1,13.3-41.8,16.3c-17.8,7-48.2,18.4-70.1,26.4-9.3,3.4-24.2,9-33,12.5-8.8,3.4-18.1,6.6-20.6,7-2.6.5-6.9,2.4-9.6,4.3-3.4,2.2-6.9,3.2-10.6,2.7-5.6-.8-5.8-1-9.4-13.6-2.6-8.5-4.6-12.8-6.1-12.6-1.3,0-3,0-3.8-.3-1-.3-2.6,3.4-4,9-4.3,16.5-3.2,15.5-20,16-15.8.5-21.3,2.4-19.4,6.7.5,1.4,2.7,3,5,3.7,4,1.3,22.7,11.2,23.4,12.5.8,1.4-3.4,14.6-6.9,22.4-5,10.7-3,11.2,8.6,2.2,5-3.8,9.9-6.7,10.9-6.4s3,4.8,4.5,9.9c1.4,5.1,4.5,16.2,6.9,24.5,2.4,8.3,4.6,17.1,5,19.5.3,2.4,3.4,13.1,6.4,24,9.3,32,13,45.4,12.6,46.4-.3.8,5.4,22.1,8.3,31,2.9,9.1,14.9,54.6,18.6,70.6,3.7,16.3,3.4,20.8-1.8,19.2-3.8-1.1-14.1,1.8-14.9,4.3-1,3,3,6.7,9.3,8.6,9.1,2.7,9.4,3.7,6.6,16.8-1.8,8-1.9,12.3-.8,12.6,1,.3,5.4-2.4,9.9-6.1s8.5-6.1,9-5.4c.5.6.6,5.3.2,10.4-.5,5.1-1.1,17.6-1.6,27.7-.5,10.2-1.3,25.3-1.8,33.8-.5,8.3-1.1,20.6-1.3,27.4-.3,6.7-1.3,23.2-2.4,36.8-1.1,13.6-1.9,28.3-1.9,32.8s-1.4,14.1-3.2,21.3l-3.4,13.1h-5.3c-9,.5-17.3,6.4-11.2,8.3,4.6,1.4,2.7,4.3-3.4,5-5.3.5-40.5,2.2-50.4,2.4-1.9,0-3.5-2.4-5.4-8.2-2.4-7.2-3-8-5.6-6.7s-4.2,4.5-5.8,8c-3.2,7.2-3.7,7.5-14.7,7.5s-16.3,6.4-4.6,9.9c9.1,2.9,11.2,5.8,9.8,13.6-2.1,10.9-.3,12.3,7.2,5.6,6.1-5.4,6.6-5.6,12.2-3.2,3.2,1.4,6.6,3,7.7,3.7,3.2,1.9,5-3.5,2.7-8.3-2.6-5.1-1.1-7.8,6.2-12.3,3.5-2.2,11.2-3.2,28.2-4,12.8-.5,24.2-.6,25.3-.3s1.6,3.2,1.1,6.9c-1.1,8.6,2.4,9.1,11.5,1.9,4-3.2,7.8-5.8,8.5-5.6.6.2,3.2,2.1,5.8,4.2s5.8,4.2,6.9,4.6c4,1.3,4-4.3,0-10.2-2.1-3.2-3.5-7-3-8.5.5-1.6,4.2-4,8.2-5.6,5.3-2.1,7.2-3.7,7.4-6.1.2-4-1.8-4.6-9.1-2.7-12.8,3.2-18.7-6.1-17.9-27.7.8-20.6,2.9-54.2,4.6-78.4,1-12.3,2.6-38.1,3.7-57.4,2.2-38.7,2.9-43,6.6-40.6,1.3,1,4.5,1.8,7.2,1.8h4.8l-4-7-4-7.2,9.4-6.2c5.1-3.4,9.6-6.7,9.8-7.4,1-2.9-3.2-4.3-14.2-5l-12-.6-3.4-7.8c-3.5-8.5-8.2-11.5-10.9-7-1,1.4-2.1,2.6-2.6,2.4-1.1-.3-8.5-25-14.6-48.5-2.1-8.3-10.4-39.4-18.2-69.1-23.2-87.8-29.8-113.6-29.3-115.4.2-.6,5.4.5,11.7,2.6,6.7,2.2,11.7,3.4,12.3,2.6.5-.8-.8-3.8-3-7-6.2-8.8-3-9.4,18.9-4,22.4,5.6,89.1,20.6,109.3,24.8,8,1.6,19.4,4,25.3,5.3,16.5,3.7,49,11,63.2,14.4,7,1.8,19.2,4.3,26.7,5.8,7.5,1.4,24,5.1,36.6,8.2,12.5,2.9,32.6,7.7,44.8,10.4,12.2,2.9,44.5,10.6,72,17.1,27.5,6.6,50.6,12,51.2,11.7,2.6-.6,25.8,6.9,26.7,8.6.8,1.6-.5,9.8-3.5,21-1.6,5.9,1.6,6.1,10.6.2,5-3.2,8.2-4.3,8.8-3.2,1.1,2.1-1,29.8-4,52-1,7.7-2.2,19.8-2.7,26.9-.5,7-2.2,24.2-3.7,37.9-1.6,13.9-4.3,40.2-6.2,58.4-1.9,18.2-4.2,38.4-5,45-.8,6.4-2.4,21-3.5,32.3-1.1,11.4-2.9,26.6-3.8,33.9-1,7.4-2.1,16.8-2.7,21.1-1.3,11.2-4.5,21.3-7.2,22.7-1.3.6-3.8.8-5.6.3-4-1.3-15,2.1-16.5,5-1,1.8.5,2.9,6.9,5.4,4.5,1.8,8.6,4.2,9.3,5.3s0,6.6-1.1,12.2c-1.3,5.6-1.8,10.6-1.3,11.2.6.6,5.4-2.1,10.7-6.1,5.3-4,10.1-7.4,10.4-7.7,2.6-1.4,51,32.5,50.2,35-.2.6-2.2,1.4-4.6,1.8-2.2.3-4.6,1.8-5.1,3.2-.8,2.6.2,3.4,12,9.4,5.6,2.9,6.2,5.4,3.4,14.9-2.2,7.5-2.2,12.3.3,13.1,1.1.3,6.2-2.9,11-7.2l9-7.8,11.7,4.3c6.6,2.4,12.5,4.2,13.3,4h0c3.5-1,2.4-4.8-3.8-12.2-3.5-4.3-6.4-8.6-6.1-9.3.2-.8,4.8-3.8,10.1-7,8.8-5.1,11.8-9.1,8-10.2-.8-.3-5.4,0-10.2.8-14.6,1.9-14.1,2.1-18.6-7-2.2-4.6-4.6-9.8-5.1-11.5-1.4-4.2-7-4.6-8-.8-.3,1.6-1.3,6.7-2.1,11.2-1.1,7.8-1.4,8.2-4.6,7.2-5.8-1.8-37.9-26.1-44.6-33.6-2.2-2.4-3.7-5.1-3.5-5.9.3-.8,3.7-3.7,7.5-6.2,6.2-4.2,7-5.1,6.1-8-1-2.7-1.8-3.2-5.1-2.6-10.1,1.9-13.1,1-16.3-5.4-1.6-3.4-2.9-8.6-2.9-11.8.5-14.9,2.7-42.4,6.2-75.5,7.7-73.6,16.2-150.2,18.1-164.8,1.1-8.2,3.2-27.2,4.8-42.4s3.4-28.8,4.2-30.6c1-2.2,2.6-2.7,5.9-1.8,10.1,2.9,11.4,2.9,11,0,0-2.9-1.4-5.3-6.9-13.4-4-5.8-1.9-8.5,9.6-12.6,9.6-3.5,10.1-4,9-8.2-.6-2.2-1.4-2.6-6.6-1.8-3.2.5-9.1.3-13.3-.3q-7.4-1.1-11.7-10.1c-2.4-5-5.3-9-6.4-9s-3.7,3.4-5.8,8.3c-1.9,4.5-4,8.5-4.5,8.8-.6.3-4.8-2.6-9.3-6.4-7.7-6.4-15.4-13.3-52.6-47.8-8.3-7.7-18.1-16.6-21.6-19.7-6.6-5.8-87.2-81.6-106.7-100.2-5.9-5.6-10.6-11-10.7-12,0-1,2.4-3.4,5.3-5.3,4.3-2.7,5.1-4,4.6-6.9-.6-3.4-3.5-4.2-8.2-2.6-1,.3-5.4,0-9.8-.6-7.7-1.3-8-1.4-12.2-9.6l.8-.3ZM667.4,825.2h0c.6-.3,1.9,0,2.9.6,1.4,1,1.3,1.3-.5,1.8-2.4.6-4.3-1.3-2.2-2.4h-.2ZM681.3,820.1c-.6,2.9,2.7,8.2,5.3,8,1.3,0,2.2,0,2.1,0-2.7,4-6.1,5.9-8,4.6-1.3-.8-3-.8-3.8,0s-.6,0,.3-1.6c.8-1.8,1.1-3.5.5-4s0-2.6,1.6-5c1.4-2.2,2.6-3.2,2.2-2.2l-.2.2ZM774.7,808.4c2.2,5.3,2.2,5.8-2.1,9.1l-3.5,2.7-2.4-4.3c-1.8-3-3.5-4.3-6.1-4.3s-3.2-.5-2.1-1.3c.8-.8,2.2-1.1,3.2-.8s3.8-.8,6.4-2.6l4.6-3,1.9,4.5h0ZM779.2,567.6c3.4,7.7,5.6,9.1,11,7,1.9-.8,4.2-1.1,4.8-1,2.2.6.5,2.6-9.3,10.2-5.3,4.2-11.8,9.4-14.4,11.5-5.6,4.8-6.9,3.2-4.8-5.9,1.4-6.2,1.1-7-2.9-9.4-4.8-3-5.1-5.8-.6-5.8s8-1,9.1-3.7c4-11,3.5-10.7,7-3h0ZM1263.7,826.2l1-5.9,3,6.6c1.6,3.7,2.9,7.2,2.6,8-.2.8,2.1,1.8,5.1,2.1,6.1.8,6.4,1.8,1.8,5.1-1.6,1.3-3.2,2.7-3.4,3.2s1.4,3,3.5,5.6l3.8,4.6-5.9-2.1c-3.2-1.1-6.7-2.2-7.7-2.4-1-.2-4.2,2.2-7,5.6-2.9,3.4-5.4,5.4-5.8,4.8s0-4.8.8-9.4c1.3-7.5,1.1-8.5-2.9-11.4-4.8-3.4-3.8-5.1,1.8-3.4,4.3,1.3,8.2-3,9.4-11.2l-.2.2ZM1192.5,771.5c1.6,3.7,4,7.4,5.1,8,1.8,1.1,1.6,1.8-1.1,4.8-1.8,1.9-4.2,3.2-5.4,2.9-1.1-.3-4,1.6-6.4,4.5-4.5,5.4-7.8,4.8-4.8-.8,2.2-4.2.8-8.2-3.7-10.2-5.4-2.6-4.2-5.6,2.1-4.8,5.1.6,5.9,0,8.5-5.1l2.9-5.8,3,6.7-.2-.2ZM711.7,308.1c1.3,1,3.2,3.5,4.3,5.6q2.1,3.7-5.9.2c-8.3-3.7-13.6-3-15,1.8-.3,1.1-1.9,2.4-3.4,3-2.4,1-2.6.3-.8-5.4,2.6-8.5.8-11.7-10.1-17.3-4.5-2.4-8.5-4.8-8.8-5.3-1.1-2.1,3.7-3,13.9-2.4l10.7.6,5.8-18.1,2.2,4.8c1.1,2.7,3,7.2,4,10.2,1.8,5.1,2.1,5.4,7.4,5.1,7.5-.5,8.2,2.2,1.3,5.8-6.4,3.2-9.1,9-5.6,11.7v-.3ZM1218.4,398.8c.8-.2,2.9,2.2,4.5,5.4,2.1,4.3,3.8,5.9,6.6,6.1,4.5.2,4.2,1.6-1.1,4.6-4.6,2.7-5.3,7-1.3,8.5,1.4.5,3.8,2.7,5.4,5,2.6,3.8,2.6,4-.3,3.4-1.6-.3-4.3-1.1-5.9-1.8-3-1.1-12.3,2.6-17,6.9-2.4,2.2-2.6,2.1-3-2.7-.2-2.7.6-6.7,1.8-9,1.6-3,1.4-5-.6-8.6l-2.7-4.8,4.3-.3c3.7-.3,4.6-1.1,6.2-6.2,1-3.2,2.6-6.1,3.4-6.2l-.2-.2ZM1011.5,230c4.5,4.2,13.6,12.5,20.2,18.6,6.7,6.1,20.6,19,31,29,10.4,9.8,22.2,20.3,26.1,23.5,4,3,17,14.7,28.6,25.9,11.8,11.2,24.6,23,28.5,26.4s9.9,8.8,13.4,11.8c3.5,3.2,13.8,13.1,22.9,22.2,9.1,9.1,16.3,17.1,16.2,17.6-.5,1.6-15.5,3.2-21.1,2.4-2.6-.5-17-3.7-32-7.4-15-3.7-29.3-7-31.8-7.5-4.3-.8-49.8-11.4-95-21.9-11.2-2.7-29-7-39.4-9.6-19.4-5-21.6-5.4-48-10.7-19.8-4-30.1-6.2-49.4-11-8.8-2.1-25.9-5.9-38.1-8.5-12.2-2.6-39.4-8.6-60.2-13.6-20.8-5.1-42.2-10.2-47.5-11.4-7.2-1.8-9.6-2.9-9.8-4.6,0-2.6,10.7-11.5,19.5-16.2,6.1-3.2,58.6-24.2,83-33,31.2-11.4,73-27.2,85.1-32.3,6.9-2.9,16.6-6.7,21.9-8.5,9.4-3.2,9.6-3.2,17.3,1,4.3,2.2,8.2,5.1,8.5,6.4,1,3.7-1.8,10.4-8.6,21.9-7.8,13-8,13.3-5.1,14.1,1.3.3,4.5-1.6,7-4.5,2.7-2.7,9.1-7.4,14.2-10.2l9.3-5.1,7.8,3.4c4.3,1.8,9.6,4.5,11.7,6.1,2.1,1.4,4.8,2.9,5.8,3.2,3,1,3.7-5.4.8-8.3-4-4-8-13.8-7-17.1.6-2.1,6.2,1.4,13.8,8.3l.5-.3ZM987.7,202c1.3,3.2,2.2,3.7,7.4,3.7s7.2,2.4,0,6.1c-7,3.5-7.8,8.2-2.2,15,2.6,3.2,4.6,5.9,4.6,6.1-.5,1.6-4,1-11-1.9-8.3-3.5-8.5-3.5-15.4.5-4.2,2.4-6.7,3.2-6.4,1.9,4.6-18.9,4.2-21.3-4.5-24.3-16-5.4-13.8-13,2.7-9.1,6.9,1.6,9.6,0,11.5-7.7.8-3.4,2.1-5.8,2.6-5.6,1.4.5,9,11.2,10.7,15.4h0Z"/>
</svg>