<?xml version="1.0" encoding="UTF-8"?>
<svg id="Layer_1" xmlns="http://www.w3.org/2000/svg" version="1.1" viewBox="0 0 1920 1080">
  <!-- Generator: Adobe Illustrator 30.3.0, SVG Export Plug-In . SVG Version: 2.1.3 Build 182)  -->
  <defs>
    <style>
      .st0 {
        fill: #564a3c;
      }

      .st1 {
        fill: #dbb57f;
      }
    </style>
  </defs>
  <g>
    <path class="st1" d="M820.8,408.3c-5.9-1-5.7-1-5.7,0s1.8,1.7,5.4,2.7c1.9.5,5.3.3,6-.3.8-.7-1.6-1.6-5.8-2.4Z"/>
    <path class="st1" d="M968.9,462.1c1.1-1.1.7-2.1-.9-2.1s-2,.9-1.6,2.1c.4,1.1,1.3,1.1,2.4,0Z"/>
    <path class="st1" d="M931.5,424.7c-1.7.5-5.7,6.1-5.7,8s.9,2.7,2.5,4.5c1.8,2.1,2.9,2.9,4.1,2.9,5.1,0,8-3.3,8.1-9.1,0-3.3,0-3.8-1.6-5.1-1.7-1.4-4.6-1.9-7.4-1.1ZM935.7,429.8c.5,0,.9.3.9.6s-.3.6-.6.6-.7-.3-.9-.6c-.2-.3,0-.6.6-.6Z"/>
    <path class="st1" d="M971,428.5c-2-1.7-4.1-1.9-6.4-.8-2.3,1.1-3.3,3-3.4,6.8-.1,2.8,1.2,4.7,4.1,6,1,.4,2.8.8,4,.8h2.3s.5-4.3.5-4.3c.6-5.9.5-7.2-1-8.4ZM967.1,433.5c-1.5,1.4-1.5,1.4-1.5.2s1.6-3,2.4-2.2c.4.4,0,1.1-.9,2Z"/>
    <path class="st1" d="M735.4,676.5c.7-.2,1.2-.4,1.2-.5s-.5-.2-1.2-.2-1.2.2-1.2.6.6.4,1.2.2Z"/>
    <path class="st1" d="M723.8,675.8c2.6.5,10.2.7,9.7.3-.3-.3-2-.5-8.7-1.2-4.4-.5-5.1.2-1.1.9Z"/>
    <path class="st1" d="M739.1,676.2c.8,0,1.2-.1.8-.3-.4-.2-1.1-.2-1.5,0-.4.2,0,.3.8.3Z"/>
    <path class="st1" d="M743.1,676c-.2-.2-.7-.2-1.2,0-.5.2-.3.3.4.4.6,0,1-.1.8-.3Z"/>
    <path class="st1" d="M729,677.9c-1.9-.3-3.2-.2-3.5.2-.4.6,1.8.9,14.4,1.7,4,.3,7.7.4,8.2.4.5,0,1.1-.1,1.4-.2.3,0,.3-.3.1-.6-.2-.3-3.4-.6-7.1-.6-6.9,0-8.1-.1-13.5-.9Z"/>
    <path class="st1" d="M1283.8,738.6c-1.7-1.8-8.2-5-9.5-4.6-1.2.4-2.9-2.4-2.9-4.8s-2.8-5.4-4.8-6.9c-.9-.6-1.2-1.5-1.2-4,0-5.8-2.7-11.9-6.1-13.6-1.3-.7-2.4-1.3-2.4-1.5s.3-1.6.6-3.3c.6-2.7.5-3.3-.6-5.2-.7-1.2-1.7-2.1-2.2-2.1-1.8,0-3.3-2.3-3.3-5.2,0-4.4-1.2-7.6-3.1-8.3-1.7-.6-2.3-1.8-2.7-4.6-.5-4.2-2.1-8.2-3.9-9.7-1.4-1.2-1.9-2.1-2.1-3.9-.4-5.7-1-7.2-3.2-9.1-2.1-1.8-2.2-2.2-2.6-6.6-.4-4.5-.5-4.7-2.8-6.9-2.6-2.4-3.8-5.2-3.8-9.3,0-2.8-2.1-7.4-3.5-7.9-1.7-.5-2.6-2.6-2.8-6.7-.3-4-1.4-6.6-3.3-7.2-1-.3-3.1-5.3-3.1-7.6s-1.6-5.1-2.7-6c-1.4-1.2-2.7-4.6-2.7-7.2s-1.1-6.1-2.5-7.4c-1.5-1.3-2-2.9-2.9-8.1-.6-3.3-1.2-4.8-2.8-6.7-2.4-2.9-3.5-5.4-3-6.9.6-1.8-2-7.7-4.1-9.4-3.2-2.7-3.7-3.7-2.8-5.4.7-1.3.5-2-2.1-7.2-2.9-5.7-2.9-5.8-1.9-7.8.9-1.8.9-2.4,0-4.9-.5-1.6-1.8-4.1-3-5.6-2.5-3.1-2.6-4.4-.8-7,2.9-4,3.8-6.5,3.8-10.6s0-4-2.9-7.1c-5.2-5.5-7.2-8.7-6.9-11.1.2-2.3-.8-7.2-2-9.8-1-2.1-3.4-3.2-8.9-4.1-4.8-.8-9.6-.5-13.8.9-1.4.5-3.4,1-4.5,1.1-1.1.2-4,1-6.4,1.9-2.4.9-5.6,1.8-7,2.1-1.4.3-3.8.8-5.3,1.2-2.7.7-5,.5-15.6-1.2-7.3-1.1-13.9-4.4-20.5-10.2-1.5-1.3-5.6-4.6-9.1-7.5-3.5-2.8-7-5.6-7.8-6.3-2.4-2-11.8-10.2-12.1-10.6-.6-.8-8.2-6.4-11.5-8.5-4-2.5-13.7-7.3-17.5-8.5-10.1-3.4-22.1-3.7-30.1-.9-4.6,1.6-8.7,4.1-13.4,8.2l-2.7,2.4-3.5-.6c-3.3-.6-3.5-.7-3.5-2.5s-1-3.6-2.1-5.7l-2.1-3.9,1.6-4c1.5-3.7,1.6-4.5,1.2-9.5-.3-4.8-.7-6-2.9-10.3-3.3-6.4-4-8.6-4.8-15.7-.8-6.9-.4-13.8,1.2-20.2,1.2-5,.9-7.8-1.1-10-.7-.7-1.5-2-1.8-2.9-.6-1.5-.4-1.7,1.7-3.2,1.2-.9,2.8-1.6,3.4-1.6,1.4,0,9.1-7.7,11.7-11.7,1.6-2.5,1.9-3.6,2.3-8.6.4-5.2.3-6-1.2-9.8-.9-2.3-1.6-4.5-1.6-4.9,0-1.5-7-7.8-10.4-9.4-7-3.3-15.8-4.1-20.6-1.8-1.6.7-3.1,1.4-3.4,1.4s-1.7.8-3,1.8c-1.4,1-2.7,1.8-3,1.8-.8,0-5.4,6.4-6.7,9.3-.6,1.4-1.5,5-1.9,8-.7,4.7-.6,5.9.3,9.3,1.5,6,3.3,9.1,6.7,11.7,3.6,2.8,8.9,5.3,11.1,5.3s2.1.3,2.6.8c.9.7.9,1.1.1,4.5-.8,3.3-.8,4.1,0,6.2,1.2,3.4,1.8,15.6,1,21.6-.7,5-1.5,7.6-6.2,20.1-2.2,5.8-2.6,7.6-2.5,11,0,4.2.9,6.3,3.5,9.4,1.5,1.8,1.5,1.9.6,4.1-.8,1.9-1.1,2.2-2.4,1.9-3.7-.9-4.4-1.5-4.8-3.8-.6-3-4-8.6-7.2-11.6-5.1-4.9-6.9-6.2-12.8-9.1-9.8-4.8-17.7-6.2-35.6-6.3-14,0-17.8.4-35.2,4.5-2.7.6-6.3,1.2-8,1.2s-3.7.3-4.5.6c-.8.3-3.5.8-5.9,1-2.4.2-6.3.6-8.6.9-4.7.6-11.5-.1-16.3-1.7-5.9-1.9-11.8-4.9-13.4-7-3.3-4-15.6-16.3-18-17.9-5-3.3-11.3-5.2-14.8-4.4-5.7,1.3-8.2,3.2-10.9,8.4l-2,3.8h-3c-3,0-6.5,1.3-6.5,2.4s-1.2,1.4-2.6,2.4c-7.8,5.6-9.5,8.1-9.5,14.1,0,4.2,2.3,9,4.9,10.4,2.2,1.1,2.1,2.2-.4,7.1-2.3,4.4-2.6,5.9-1.2,8.5,1.3,2.6,1.1,3.2-1.4,4.8-2.8,1.8-4,4.9-3.1,8.5.8,3.3.8,3.2-1.2,4.2-2.3,1.2-4.9,6.2-4.9,9.6,0,2-.4,3-2.1,4.8-2.4,2.7-4.2,7.6-3.7,10.1.3,1.4,0,2.2-1.7,4-4,4.3-5.9,7.6-5.5,10,.2,1.8,0,2.4-1.1,3.5-1.9,1.7-5.1,8.1-5.1,10.4s-.5,2.4-1.4,3.2c-2.6,2.6-3.4,4.5-3.8,8.9-.3,3.5-.8,4.9-2.1,6.6-2.5,3.2-4.9,9.6-4.1,11,.5.9.4,1.3-.6,2-2.5,1.8-5.5,8.7-5.5,12.8,0,.8-.7,1.9-1.5,2.6-2.1,1.6-4,5.6-4.2,8.6,0,1.4-.2,2.9-.2,3.5,0,.5-1,1.6-2.2,2.3-2.7,1.6-4.1,4.8-3.7,8.5.3,3.1-.5,5.3-2.1,5.9-.6.2-1.6,1.3-2,2.4-.5,1.1-1.1,2.2-1.4,2.4-1.1.7-2.1,6.7-1.4,8,.5,1,.4,1.4-.4,2.2-.6.5-1.5,1-2.1,1s-1.7.9-2.5,2c-1.2,1.6-1.6,3-1.9,7.1-.4,5.1-.4,5.1-3,7.6-2.6,2.4-3.8,5-3.8,8.3s-2.8,7-4.6,7.8c-1.8.8-4,5.3-4.4,8.9-.3,2.7-.3,2.7-2.7,2.8-7.4.3-12.8,6.6-13.1,15.4-.1,3.3.1,4.3,1.7,7.2,2,3.5,5.8,6.2,8.3,5.9.7,0,2.4.7,4,1.7,1.5,1.1,6.4,3.7,10.9,6,4.5,2.2,8.5,4.4,9,4.9.5.4,3.1,1.5,5.7,2.3,2.7.8,7.1,2.4,10,3.4,8.4,3.1,15.2,5.3,18.7,5.9,11.4,2.2,23.2,3.6,33.5,4.1,4.3.2,9.6.6,11.8.8,2.2.3,10.7.3,19,0,13.5-.4,16.1-.6,24.5-2.3,5.2-1,10.3-2.3,11.5-2.7,1.2-.4,4.2-1.4,6.6-2.2,10.2-3,19.4-6.8,26.6-10.8,3.9-2.2,11.4-5.5,12.4-5.5s6.8-5.7,7.2-7.6c.2-.8.4-2.1.6-3,.2-.8,0-2.9-.4-4.7-.8-3.6-3-6.2-7-8l-2.5-1.1v-3.4c.1-4.1-1.2-7-3.8-8.4-2.2-1.2-2.6-2.4-1.8-5.4,1.1-4-.9-9.2-3.6-9.2s-2.5-2.6-1.7-4.8c.9-2.5.3-4.2-2.4-7.3-2.9-3.3-3.4-4.8-3.2-8.8.3-5.4-.4-7.8-2.6-9.2-2.6-1.6-2.9-2.4-3-7.6-.1-5.3-1.1-7.7-3.4-8.7-1.4-.6-1.8-1.2-2.1-2.9-1.1-7.8-1.6-9.5-3.1-10.8-.8-.7-1.9-1.4-2.4-1.4-1,0-1.1-1.1-.2-3.4,1.1-2.9.1-6.5-2.5-9.6-2.6-3-2.8-3.6-3.1-9.2-.2-3.7-.3-3.9-3.1-6.5-2.4-2.2-2.8-2.9-2.5-4.1,1.4-4.4.4-7.5-3.1-9.8-1.2-.8-1.5-1.3-1.2-2.4.2-.8.1-1.6-.2-1.8-.3-.2-.2-1.1.3-2.1.8-1.6.8-2-.4-4.6-.8-1.8-2-3.2-3.4-4-1.9-1.1-2.4-2-2.1-4,0-.4-.2-.8-.5-.8s-.6-.3-.6-.7.4-.5.9-.3c.5.2.9,0,.9-.3,0-1.1-3.1-6.9-4-7.4-1.3-.7-3.2-5.1-2.9-6.4.6-2.2-1-5.3-3.5-7-1.7-1.2-2.3-2-2-2.6,1.4-3.2.9-5-2.6-9.4-1.2-1.5-1.4-2.2-1-4.8.4-3.4-.7-6.9-2.6-8.3-1.8-1.3-2.6-4-2.2-7.1.4-3-.2-5-2.3-6.7-.6-.5-1.1-1.3-1.1-1.6s-.4-.5-.9-.3c-.5.2-1.1-.2-1.5-.9-.5-1-.5-1.6.3-2.7.8-1.2.9-1.9.3-3.6-.4-1.2-1.2-2.8-1.9-3.6-.6-.8-1.3-2.5-1.5-3.8-.3-1.9-.1-2.6.9-3.5.7-.6,1.3-1.5,1.3-1.9s.4-1.1,1-1.5c.5-.4,1.4-1.6,1.9-2.6.9-1.7.8-2.1-.7-7-.9-2.9-1.7-6.7-1.8-8.4-.2-3.1-.1-3.2,2.5-5,1.4-1,3.1-1.8,3.8-1.8,3.1,0,7.5,2.5,10.9,6.4,4.3,4.9,15.5,15.6,17.8,17,1.4.9,3.1,2.1,3.8,2.7,3,2.5,14.3,6,24.7,7.5,1,.1,2.2.4,2.7.6,3.8,1.1,37.9,1.4,43,.3,1.8-.4,7.9-.8,13.4-1,11.1-.3,15.5.4,20.1,3.1,5,3,9.4,8.2,9.4,11.1s2.3,7.6,4.2,10.2c1.2,1.6,3,3.1,5.7,4.4,3.5,1.7,4.4,1.9,7.1,1.6,3.9-.5,11.4-4.1,12.8-6.1,1.1-1.7,2.7-1.9,5.7-.9,1.5.5,2,1.2,2.6,3.2.4,1.4,1.1,3.2,1.5,4.1.7,1.4.7,1.9,0,3.3-3,6.1-3.5,8.5-2.5,13.8.8,4.1,2.3,6.9,5,9.6,1.6,1.6,1.7,1.9,1.2,4.1-.8,3.7.2,6.7,3.6,10.6,1.7,1.9,3.2,4.1,3.4,4.9.2.7.6,1.4.9,1.4s.7.5.9,1.2c.3,1,.6,1.1,1.5.6.6-.3,1.2-1.3,1.2-2.1s1-2.9,2.2-4.7c2.9-4.3,4.5-7.4,4.5-8.9s-.5-2.4-1.1-3.8l-1.1-2.6,1.5-1.8c2.4-2.9,4-6.4,4.7-10.4.6-3.2.6-4.1-.3-6.4-.6-1.5-1.6-3.6-2.4-4.6-1.2-1.6-1.2-2.2-.7-3.4.6-1.4.9-1.5,3.2-1.1,4,.7,5.8,1.9,7.3,5,1.8,3.5,2.9,4.5,6.7,6.2,6.1,2.6,13.7,2.1,17.5-1.2.7-.6,2.4-1.7,3.9-2.6,2.4-1.4,3.5-1.6,10.9-1.8,7.8-.3,8.4-.2,12.8,1.4,6.4,2.3,16.8,7.1,19.1,8.8,1.1.8,2.2,1.4,2.5,1.4s3.5,2,7.1,4.4c5.4,3.7,23.4,14.3,24.2,14.3s2.6,1.1,5.5,2.4c6.4,2.9,14.7,5.3,20.3,6.1,3.3.4,5.3.3,9.7-.7,8.3-1.8,10.9-2.8,18.5-6.9,7.1-3.9,10.5-5,14.8-5.1,3,0,3.8.5,4.5,2.8.5,1.6.3,2.1-.8,3.1-.7.7-2,1.3-2.9,1.3-1.9,0-7.5,5.7-8.1,8.2-.2,1-.5,2.3-.6,2.9-.1.6.1,2.7.6,4.7.5,1.9.8,3.6.8,3.7,0,0,.3.8.6,1.7.5,1.3,1.8,2.6,5.1,5,1,.7.9,1-.5,4.4-1.8,4.2-2.4,7.8-1.5,9,.6.8-.9,4.8-2.7,7.1-.4.5-.9,1.9-1.1,3-.9,4.9-3.7,13.1-4.8,13.9-1.3,1.1-3,6.6-2.9,9.3.1,2.5-1,5.4-2.5,6.8-2,1.7-4.1,6.9-4.1,9.8,0,2-.6,3.6-2.3,6.3-3.3,5.4-3.8,6.8-3.4,9.7.3,2.4.2,2.8-1.9,5-2.9,3-3.6,4.5-4.7,9.5-.8,3.6-1.3,4.5-4,7.2-3.3,3.3-4.4,6.1-4.2,10,.2,3.5-.6,5.4-2.9,6.7-2.5,1.5-3.8,4.4-3.8,8.1s-1.2,6.3-3.5,7.7c-2.7,1.6-4.6,5.6-4.2,8.7.4,3-.3,4.4-3.6,7.3-3.3,2.8-5.8,7.9-5.3,10.7.5,2.4-.6,4.8-3,6.6-.9.7-2.4,3-3.4,5.1-1.4,3-1.7,4.3-1.4,6.2.5,2.8-1,6.2-2.7,6.2s-5.6,6-5.9,10.9c-.2,3.6-2.1,7.8-3.5,7.8s-3.8,3-5.7,5.8c-1.4,2.1-1.7,6.2-.6,7.3.6.6,0,.7-2.3.7-1.6,0-3.6.4-4.3.8-2,1.1-5.5,5.4-6.8,8.4-2.4,5.4-1,14.9,2.8,18.1,1.5,1.2,4.8,2.4,7,2.4s2.5.5,3.4,1.1c3,2.1,21,10.4,22.6,10.4s2.2.6,3.8,1.4c1.6.8,5,2,7.5,2.8,2.5.7,5.8,1.7,7.4,2.2,1.6.5,3.7.9,4.7.9s3.2.5,4.9,1.2c6.1,2.3,28.1,6.1,36.2,6.2,2.8,0,6.9.3,9.1.5,6,.7,28.6.1,33.5-.9,2.3-.5,5.1-.9,6.3-1,1.2,0,2.9-.3,3.7-.5,1.7-.5,8-1.6,11.8-2.1,2.7-.3,5.1-.9,14.2-3.4,3.5-.9,8.1-2.2,10.3-2.7,4.4-1.1,12-3.9,16.6-6.2,1.7-.8,3.9-1.5,4.9-1.4,1.4,0,2-.2,2.2-1.1.3-1,.8-1.2,3.2-1.2,6.6,0,10.3-2.5,13.4-8.8,1.7-3.5,2-4.5,1.7-7.1-.4-3-2.5-7.3-4.9-10ZM752.3,387.2c.9-.2,2.3-.6,3.3-.9,1.5-.5,2-.3,3.5,1.2,1.7,1.7,2.2,3.3,1.2,3.9-.3.2-.8-.4-1.2-1.2-1.1-2.3-2.6-1.9-2.4.6.2,3.1-.9,3.9-3.1,2.2-2.2-1.6-3-1.3-3,1.2s-1.1,2.2-1.6-.4c-.5-2.9,1.1-6.1,3.3-6.6ZM744.2,396c.5,0,1.7.8,2.9,1.8,2.5,2.3,5.6,3.2,8.4,2.4,2.6-.7,3.7.5,3.5,3.6-.2,2.5-1,2.9-2.4,1.1-.8-1.1-1.2-1.2-1.8-.6-1.2,1.1-3.9.9-6.7-.5-2-1-2.7-1.1-3.6-.6-.9.5-1.2.4-1.7-.5-1.3-2.4-.3-6.7,1.5-6.7ZM757.5,416c-.5.9-1.5.7-1.5-.3s-.2-1.7-.4-2.9l-.4-2,1.3,2.3c.7,1.3,1.1,2.6.9,2.9ZM752.7,472.1c.6,0,.9.6.9,1.8,0,2.1-1.5,2.5-2.1.6-.5-1.4,0-2.4,1.2-2.4ZM751.9,461.1c.1-.7.6-1.4,1.1-1.4s1,.6,1.1,1.4c.1,1-.1,1.4-1.1,1.4s-1.2-.3-1.1-1.4ZM753.5,487.4c-.4.7-.7,1.5-.6,1.7,0,.2-.1.4-.5.5-.7.2-1.5-2-1-2.9.2-.3.9-.6,1.6-.6,1.1,0,1.1.2.5,1.4ZM750.2,448.6c-.4-.7.1-1.8.9-1.8s.6.5.6,1.2c0,1.3-.9,1.6-1.5.6ZM751.6,434.8c-.1,1.3-.6,2-1.2,2.2-.8.2-1.1-.2-1.1-2s.2-2.2,1.2-2.2,1.2.3,1.1,2ZM749.5,425.2c-1.2-.4-.9-1.4.5-1.4s1.2.3,1.2.6c0,.8-.7,1.1-1.7.8ZM745.1,410.6c0,.9-.4,2.7-.9,4.1-.5,1.3-1.2,2.4-1.5,2.4-.8,0-.7-1.4.3-3.4.5-1,1.1-2.4,1.5-3.3l.7-1.5v1.6ZM741.5,392.7c1.2-.7,1.4.3.3,1.5-.6.7-1.3,1.2-1.6,1.2-.6,0,.5-2.2,1.4-2.7ZM738.7,405.3c-.2-1.1,0-2,.3-2.2.4-.2.8.5,1.1,1.8.2,1.2.8,2.3,1.2,2.5.5.2.8.7.8,1.2,0,2.3-2.8-.4-3.4-3.2ZM741.6,422.5c.5.5.5,1.1,0,2.2-1.1,2.3-2.5,1.9-2.5-.7s1.5-2.5,2.6-1.5ZM737.9,434.7c1.2,0,1.4.5.8,2.1-.5,1.2-2,1.3-2.4,0-.5-1.2.2-2.1,1.6-2.1ZM732.1,448.3c.3,0,.7.6.8,1.5,0,.8-.2,2.1-.7,2.7-.9,1.2-.9,1.2-1.3,0-.5-1.3.4-4.2,1.3-4.3ZM725.1,462.9c0-.2.4-.5.7-.5s.5.6.3,1.7c-.9,3.7-1.6,2.8-1-1.2ZM719,477.3c1-.6,1.3.7.6,2.3-.7,1.6-1.4,2-1.9,1.1-.3-.6.6-3,1.3-3.4ZM713.9,490.8c.2.4,0,1.2-.4,1.9-.8,1.2-1.7,1.7-1.7.8,0-1.2,1.7-3.3,2-2.7ZM707.3,504.2c.9,0,1.5.4,1.5.8,0,1.4-1.5,2.3-2.3,1.4-1.2-1.2-.8-2.3.8-2.3ZM701.3,518.9c1.4-.5,1.7,0,1.1,2-.8,2.4-2,2.5-2,.3s.4-2,.9-2.2ZM696.3,532c1.1,0,1.2,1.7.1,4-1.3,2.7-2.6,3.4-2.6,1.5s1.7-5.4,2.5-5.4ZM689.5,549.7c.5.6.5,1,0,1.3-.3.2-.8,0-1-.6-.5-1.3,0-1.7.9-.7ZM682.1,561.6c.2,0,.8.2,1.2.5.7.4.6.8-.2,2.4-1.1,2.1-2.8,2.5-2.8.6s1-3.6,1.7-3.6ZM675.5,578.2c2.1-3,2.6-1.5.8,2.1-.7,1.4-1.5,2.5-1.9,2.5-1.1,0-.6-2.1,1.1-4.5ZM668.2,594.6c.5-3,.6-3.3,1.5-2.4.4.4.5,1.5.3,2.8-.2,1.3-.8,2.2-1.3,2.2s-.8-.5-.5-2.6ZM662.7,608.8c1.6.3,1.7,2,.3,3.5-1.7,1.7-2.5,1.6-2.4-.4,0-2.2.8-3.3,2.2-3.1ZM658.7,625.1c0-2.2,2.5-7,5.4-10.1,2.8-3,3.4-4.7,2.8-8.6-.4-2.7-.3-2.9,2.6-5.8,3.3-3.5,4.5-6.1,3.9-9.4-.3-1.8,0-2.5,1-3.7,2.6-2.9,4.8-6.2,4.8-7.2s.3-1.3.7-1.5c.4-.3.5-1.4.3-3.3-.3-2.5-.2-3,1-4,3.5-2.9,6.5-8.2,6.1-11-.3-1.8,0-2.4,2.6-4.9,2.3-2.3,3-3.5,3.4-5.8.3-1.6.4-3.6.2-4.4-.2-1.2.3-2.1,2.4-4.2,3.1-3.1,4.2-6.2,3.7-10.1-.3-2.4-.2-2.6,1.5-3.5,2.8-1.4,5-6.7,4.5-10.6-.2-1.8-.2-3,.2-3,2.2,0,7-8.8,6.4-11.8-.3-1.5,0-2.2.8-3,1.9-1.7,4.3-6.8,4.2-9-.2-2.8.5-4.4,2.1-5.1,2.1-.9,4.2-5.8,4.1-9.6,0-2.7.2-3.4,1.7-4.6,2.6-2.2,4.2-5.9,4.2-9.6s0-3.2,2.2-4.4c3.6-2,4.7-3.9,4.5-8.3-.1-3.7,0-3.9,2.2-5.9,1.3-1.2,2.6-3.2,3.1-4.7.7-2.3.7-2.8-.2-4.8-1-2.1-1-2.2.2-3,.7-.5,1.7-1.7,2.2-2.7l.9-1.8,1.5,1.6c1.7,1.9,1.8,2.7.5,5.3-1.3,2.5-.7,6.5,1.3,8.4,1.4,1.3,1.4,1.5.5,2.5-.7.7-1.1,2.5-1.3,5.1-.2,3.3,0,4.2,1,5.6,1,1.4,1.2,2.1.7,4-.8,3.4-.7,7.5.2,9.3.6,1.2.6,1.9-.1,3.9-1,2.9-.6,5,1.4,7.4l1.5,1.8-1.4,2.1c-2.9,4.3-2.7,7.5.5,9.1l2.1,1-.9,2.9c-1.2,4.1-1.1,5.4.9,7.7,1.7,2,1.8,2.1.9,4.4-1.3,3.5-1.1,7.3.4,10,1.2,2.2,1.2,2.4.3,3.8-1.3,1.9-1.3,3.6,0,6.8.9,2.4.9,2.7,0,4.6-1.3,2.8-1.2,6.3.3,10.1,1.2,2.9,1.2,3.3.3,5.9-1.2,3.6-1.2,3.9.6,6.1,1.6,1.8,1.6,1.9.6,4.7-1.4,4.2-1.2,6.5.6,7.9,1.7,1.4,1.9,2.1.6,3.1-1.7,1.4-.9,7.8,1,9.1.3.2.2,2.9-.4,6.6-.9,6.1-.7,8.5.9,8.5s.7,1.7-.4,3.4c-1.4,2.2-.9,8.8.8,10.7,1.2,1.3,1.2,1.9.9,7-.3,5.2-.2,5.7,1,7l1.3,1.4-1.2,2c-.8,1.4-1.2,3.1-1.2,5.1s.2,3.3,2.4,5.3c2.8,2.5,3,3.2.9,4.1-1.1.5-1.5,1.2-1.5,2.4v1.7h-4.4c-2.4,0-6.5.1-9.1.2-2.6,0-4.8,0-4.9,0,0,0-19.6-.2-43.4-.3-41.3-.2-43.3-.2-43.3-1.3,0-1.5-1.6-4.5-2.8-5.1-.9-.5-.8-.8.3-2.9,3-5.8,4.3-9,4.3-10.4ZM757,540c-.8-.8-.4-3.8.5-3.8s2.1,1.7,2.1,2.7-2.3,1.5-2.6,1.2ZM759.6,550.7c0,.7-.4,1.2-.9,1.2s-.9-.4-.9-.8.4-1,.9-1.2c.6-.2.9,0,.9.8ZM756.7,512.8c-1.2-.5-.9-2,.5-2s1.2.4,1.2,1.2c0,1.2-.3,1.4-1.7.8ZM755.7,500.1c-.6.2-.9,0-.9-.9,0-1.3,1.2-1.3,1.7-.1.1.4-.2.8-.7,1ZM760.8,574.9c.7.4.7.7.1,1.3-.6.6-.8.5-1.1-.3-.5-1.3-.2-1.7,1-1ZM760.2,561.8c.4-.2.8-.3,1,0,.2.2.2.8.1,1.4-.2.9-.3,1-1,0-.6-.7-.6-1.1-.1-1.4ZM761.9,588.5c-.3,1.1-.3,1.1-.7,0-.5-1.1,0-2.1.6-1.5.2.2.2.9.1,1.5ZM762.6,602.6c0,1.2-.6,1.6-1.4.8-.7-.7-.4-2,.5-2s.9.5.9,1.2ZM764.1,631c.5,0,.9.3.9.6s-.4.6-.9.6-.9-.3-.9-.6.4-.6.9-.6ZM763.2,618c0-1.3.2-2,.6-1.8.3.2.6,1.2.6,2.1s-.3,1.8-.6,1.8-.6-1-.6-2.2ZM765.8,652.3c1.4.5,1.1,2.1-.7,4.2-1,1.1-2.3,3.5-2.8,5.2l-.9,3.2h-3.1c-1.7,0-7.7.1-13.4.2-9.5.2-20-.4-33.2-2-3-.4-5.5-.8-5.7-1-.5-.5,2-.4,6.8.3,2.3.3,9.9.7,16.9.9,10.8.3,12.9.3,13.9-.5,1-.8,1-1,.3-1.2-.5-.2-7.6-.6-15.7-1-8.1-.4-15.5-.7-16.5-.8-.9,0-2.4-.2-3.3-.3-3.7-.2-.5-.8,6.8-1.1,4.3-.2,7.9-.4,8.1-.6.2-.1,1.3,0,2.5.4,1.7.5,3,.4,6.1-.4,3.2-.8,5.6-.9,12.3-.6,4.8.2,9.4.1,10.7-.2l2.4-.6h-2.4c-1.3-.2-3.2-.3-4.2-.4-1,0-2.3-.4-3-.7-.9-.5,1.1-.7,8-1.1,7.5-.4,9.1-.6,9.1-1.3s.3-.8.7-.6ZM767.2,643.7c1.7,0,2,.9.6,1.4-1.2.5-1.2.5-1.7,0-.8-.8-.4-1.4,1.1-1.4ZM675.9,649.4c-8,0-15.7.4-17.2.7-2.4.4-2.6.4-2.3-.6.2-.6.4-1.2.4-1.3,0-.6,40.4-.2,40.8.4.2.4-1.1.6-3.4.6-2.1,0-10.3.1-18.3.2ZM679.9,658.2c0,.3-.4.6-.9.6s-.9-.3-.9-.6.4-.6.9-.6.9.3.9.6ZM703.1,654.5c4.6,0,9.4.3,10.6.6,1.5.4-1.5.6-10.1.6-7.6,0-12.3-.2-12.6-.6-.4-.7,0-.7,12.1-.6ZM739.4,649.3c0,0-7.6-.2-16.7-.2-17.8,0-26.2-.7-17.2-1.2,2.7-.2,16.6-.3,31-.2,23.4,0,26.3.2,27.1,1.1.9.9,0,1-11.5.9-6.9,0-12.6-.2-12.7-.3ZM745.4,655.2c-.2.3-2.3.6-4.7.6-5.4,0-4.9-.7.8-1,2.9-.2,4.2,0,3.9.4ZM732.1,655.9c-1.3.5-3.3.5-9.7,0l-4.2-.4,4.2-.3c5.3-.4,11.4,0,9.7.7ZM650.8,627.5c.8-3,1.5-3.5,3.4-2.5,1.7.9,1.8,1.8.5,4.2-.9,1.8-2.3,2.2-3.8,1.2-.6-.4-.7-1-.1-3ZM652.7,640.7c0,.3-.1.6-.3.6s-.4-.3-.6-.6c-.2-.3,0-.6.3-.6s.6.3.6.6ZM649.7,634.7c1.7-2.1,2.8-.9,1.5,1.7-1,1.9-1.6,2.3-2.4,1.5-.7-.7-.4-1.6.8-3.2ZM649.3,643c1.3-.1,1.9,0,2.1.8.2.8-.7,1.3-4,2.3-2.3.7-5,1.9-6,2.8-1,.8-1.9,1.5-2.1,1.5-.7,0-1-2.1-.7-4.2.4-2.3,4-7.3,5.3-7.3.4,0,1.4,1,2.2,2.1,1.2,1.8,1.8,2.1,3.3,2ZM650,648.5c-.2.4-.9.6-1.4.6-.9,0-.9-.1.1-.9,1.2-.9,1.9-.8,1.3.3ZM639.8,658.7c-1.5-.4-2.6-1.2-3.3-2.3-.6-1-1.2-1.7-1.4-1.7s-.9-1.1-1.4-2.4c-.8-1.7-.9-2.7-.5-3.5.3-.6.8-2.1,1-3.4.8-4.3,3.2-7.6,6.9-9.5,3-1.5,5-1.7,5-.4s-.6.9-1.7.9-2.4.7-4.1,2.6c-3.1,3.3-3.9,5.1-3.9,9.3s.6,5.2,3.8,8.2c1.3,1.2,2.3,2.4,2.2,2.5-.1.1-1.3,0-2.5-.3ZM677.7,673.9c-1.3,0-3-.4-3.6-.8-1.5-1.1-.8-1.1,3.1,0l3,.8h-2.4ZM685.4,672.1c-.3,0-.8-.3-1-.6-.2-.3,0-.6.2-.6s.8.3,1,.6c.2.3.1.6-.2.6ZM676.8,663.9c-10.7-1.5-30.9-7.1-33.7-9.5-1.2-1-.9-2.7.6-3.8,1.8-1.3,2.3-1.2,2.3.4,0,3.1,8.1,6.5,20.5,8.6,3.2.5,7.1,1.2,8.8,1.5,16.7,3.1,16.6,3,48,6.1,14.1,1.4,48.9.4,51.2-1.4,1-.8,1.6.9,1.1,2.9-.4,1.4-.5,1.5-1.4.7-.8-.7-1.9-.8-5.6-.4-6.5.7-24.6.9-31.4.4-10-.8-21.1-1.6-33.8-2.5-6.8-.5-14-1.2-16-1.5-2-.3-6.8-1-10.6-1.5ZM800.1,661.9c-.8-.2-3.9-.2-7,.1-4.1.4-5.8.8-6.6,1.7-1.8,1.9-4.7,1.1-4.7-1.3s-.8-2.6-1.8-4.4c-1-1.9-1.6-3.4-1.4-3.5,2.3-.4,4.3-.1,5.6.8,1.2.9,3,1.2,7.9,1.4,5.9.3,12.5,1.1,13.1,1.7.1.1-4,.2-9.1.2-8.4,0-10.9.2-10,1.1.2.2,4.9.4,10.5.5,10.1.2,14,.9,12.5,2.3-.6.6-11.5.9-12.1.3-.2-.2.7-.4,2-.4,1.9,0,2.1-.1.9-.5ZM774.7,656.4c.9,0,3.6,3.1,4.2,4.9.3.9.3,2,0,2.4-.4.6-.8,0-1.7-1.9-.6-1.5-1.6-3.1-2.1-3.5-1.1-.9-1.3-1.9-.4-1.9ZM774.7,662.8c0,1-1,1.2-1.5.3-.5-.8.2-1.9,1-1.5.3.2.6.7.6,1.2ZM778.9,666.7c.3,0,.6.3.6.8,0,.4-.3,1.2-.6,1.7-.5.7-.6.5-.6-.8,0-.9.3-1.7.6-1.7ZM788.5,653.6c.4-.2,1-.2,1.2,0,.2.2-.2.3-.8.3-.7,0-.8-.2-.4-.4ZM801.6,651.6c-8.3-1-10.6-1.2-17.2-1.5-8.3-.5-12.1-1-12.1-1.7s1.9-.5,5.6-.2c3.1.3,6.7.5,8,.6,14.5.8,23.2,1.7,30.8,3,2.7.5,6.1,1,7.6,1.2,4.5.5,6.6,1.1,6.6,1.6s0,.5-.2.5c-.2,0-19.1-2.3-29.1-3.5ZM774.7,672c0,.1-.6.8-1.3,1.4-.7.6-1.6,1.1-2,1.1-1.3,0-3.5-1.2-3.2-1.6.5-.5,6.4-1.3,6.4-.9ZM701,670.1c-1.5,0-2.1-.1-1.4-.3.7-.1,2-.1,2.7,0,.7.1.1.3-1.4.3ZM691.6,673.4c-.9.3-3.2-.7-3.2-1.4s.7-.5,1.7-.3c.9.2,4,.6,6.8,1,2.8.3,6.5.8,8.2,1.1,3.4.5,9.2.5,9.7,0,.7-.7-.5-1.6-2.1-1.7-.9,0-3.3-.4-5.3-.9l-3.6-.9,5.7.3c3.2.2,8.6.6,12.1.9,13.4,1.3,24.2,1.7,31.7,1.4l7.8-.4v3.3c0,1.9.5,4.1,1.2,5.3.6,1.1.9,2.2.7,2.4-.7.7-19.7.4-23.2-.3-1.9-.4-8.3-1.3-14.3-2-6-.7-12.4-1.6-14.2-1.9-2.8-.6-3.1-.8-1.8-1.1.8-.2,3.4-.3,5.7-.1,9,.6.9-1.7-9.1-2.6-2.3-.2-6.4-.8-9.1-1.2-2.7-.5-5.1-.8-5.4-.7ZM764.1,687.4c-7.1.2-15.5-.3-24.7-1.4-2.7-.3-8.2-.8-12.4-1.2-4.1-.3-8.2-.7-9.1-1-.8-.2-2.7-.5-4.2-.6-3.4-.2-16.2-2.7-17.8-3.4-1.6-.7,1.8-.3,12.7,1.5,13.8,2.3,17.2,2.7,23,2.4,5.2-.3,9.9.4,11.6,1.7.4.3,7,.7,14.7.9,7.7.2,13.8.4,13.7.6-.1.1-3.5.3-7.4.4ZM771.6,682.9c-1.2-.7-.2-2.6,1.3-2.5,7.4.5,12.1,1,12.1,1.4,0,.5-12.6,1.6-13.4,1.2ZM787.1,685.1c-2,.5-5.8,1.1-8.5,1.3-4.2.4-4.8.4-4.6-.4.2-.7,1.2-1,4.3-1,2.2,0,5.9-.2,8.3-.4l4.2-.3-3.6.8ZM801.9,676.9c-.8.3-2,.5-2.7.5-1,0-.9,0,.3-.5.8-.3,2.1-.5,2.7-.5,1,0,.9,0-.3.5ZM806.1,673.2c-1.3.8-12.6,2.1-18.7,2.2-4.1,0-5.1.2-5.1,1s.7.9,2.7,1c7.4.2,8.1.3,7.5.8-.6.6-10,1.1-13.4.8l-2-.2,1.6-2.2c.9-1.2,1.7-2.3,1.8-2.4,0-.1,4.2-.3,9.1-.4,4.9,0,10.9-.4,13.2-.6,2.7-.3,3.9-.2,3.3.2ZM815.7,674.5c-.5.3-2.2.7-3.6.9l-2.7.3,2.1-.9c2.5-1,5.8-1.3,4.2-.4ZM837.5,662.8c-1.8.2-3.9.7-4.7.9-.8.3-4.4.9-8.2,1.4-3.7.5-7.4,1-8.3,1.2-3,.5-11.8,1.6-16,1.9-2.3.2-6.1.5-8.5.8-5,.5-9.4.3-9.4-.5s.9-.7,2-.8c2.7-.4,17.6-1.7,21.6-1.8,4.9-.2,15.9-1.5,21.4-2.4,2.7-.5,6.2-1,7.9-1.2,1.7-.2,4-.9,5-1.6,2-1.2,2-1.6.9-4.4-.4-1-.3-1.1,1.6-.7,2.4.5,4.8,2.1,4.6,3-.3,1.1-6.7,3.8-10.1,4.3ZM834.2,652.2c.3-1.9,3.5-6,4.6-6s.5,1.9-.9,3.7c-1.1,1.4-1.4,2.7-1.4,5.4s-.2,3.6-.4,3.6c-1,0-2.3-4.6-2-6.6ZM848.5,647.5c2,1.7,2.9,4,2.9,7.6,0,1.6-.3,3.2-.6,3.7-.4.6-.6,0-.6-2.3,0-3.8-1-5.9-3.6-7.8-1-.8-1.9-1.6-1.9-2,0-1,2.1-.6,3.7.8ZM847.8,653.2c0,.8-.2,1.4-.5,1.4-.4,0-4.1-1.3-6.2-2.1-.6-.2.2-.7,2-1.2,3.3-1,4.6-.4,4.6,2ZM839.7,636c1.4-1.3,1.5-1.3,2.1,0,.4.7.5,1.6.3,2.1-.4,1.1-3.2,1.1-3.6,0-.2-.4.4-1.4,1.1-2.1ZM834.7,619.5c.7,0,1.6,2.4,1.6,4.6s-1.2.9-1.8-.7c-.8-2.2-.7-3.9.2-3.9ZM828.8,606.3c.6-.6,2.1,1.9,2.1,3.4s-.3,1.4-.6,1.4c-.7,0-2-4.3-1.5-4.8ZM823.3,588.7c1.3,0,2.2,1.9,2.2,4.5s-.3,2.2-.9,2.2c-1.2,0-1.3-.4-1.9-3.8-.4-2.4-.3-2.9.5-2.9ZM817.9,574.2c.5,0,1.1.7,1.3,1.5.6,2.4,0,3.2-1.1,1.5-1.3-1.8-1.3-3-.1-3ZM812.9,559.7c.3,1.2-.9,2.7-1.6,2-.2-.2-.4-1-.4-1.8,0-1.7,1.5-1.9,2-.2ZM807.1,544.5c1.1,1.6.9,3-.2,1.8-.4-.4-.7-1.3-.7-2,0-1.2,0-1.2.9.1ZM802.1,529.3c.6.2,1,.9.9,1.7-.3,1.8-2.1,2-2.5.3-.4-1.7.2-2.5,1.6-1.9ZM791,501.6c.6-.6.9-.5,1.6.5.5.7.8,1.6.7,2.1-.3,1.5-1.6,1.4-2.4-.2-.6-1.2-.5-1.7,0-2.3ZM784.4,486.4c.7-.7,1.6.1,1.9,1.7.1.6-.1,1.3-.6,1.4-.9.3-2-2.3-1.3-3.1ZM779.1,475.1c.1-.4.5-.6.8-.6s.7.3.8.6c.1.4-.2.6-.8.6s-.9-.3-.8-.6ZM771.1,451.6c.3,0,.6.3.6.6s-.3.6-.6.6-.6-.3-.6-.6.3-.6.6-.6ZM764.1,440.7c.5.5,1.5,1.9,2.2,3.2,1,2,1.1,2.6.5,4.3-1,2.7-.4,4.5,2.3,7.2,2.1,2.2,2.3,2.7,2.6,6.8.3,3.7.6,4.8,1.9,6.1,1,1,1.7,2.6,1.9,4.1.5,3.6,1.4,5.8,3.4,7.6,1.5,1.4,1.8,2.1,1.8,4.7,0,3.9.9,5.9,3.5,8.3,1.9,1.7,2.1,2.3,2.6,6.5.5,4.6,1.7,7.8,3.2,8.7,1.4.8,2.8,4.2,2.8,6.8s.6,3.5,1.4,4.9c.7,1.4,1.8,3.3,2.4,4.4.6,1,1,3.1,1.1,4.5,0,3,1.4,5.9,3.4,7.7,1.2,1,1.5,1.9,1.7,5.1.3,5,1.7,9.3,3.5,11.5,1.1,1.2,1.5,2.8,1.8,5.8.5,4.7,1.5,6.8,4.1,8.3,1.6.9,1.8,1.3,1.5,3.2-.4,2.5.9,7.2,2.8,10,1.8,2.7,3.4,7.5,3.3,10.5,0,2.5,1.5,6.9,2.4,6.9s1.1.6,1.8,1.2c1.1,1,1.3,1.9,1.3,4.8,0,4.3,1.6,8.7,3.9,11.1,1.5,1.5,1.6,2,1.3,4.3-.3,2,0,3.4.9,5.7.7,1.7,1.7,3.1,2.1,3.1,1.3,0,2.8,2.8,2.3,4.3-.8,2.5-.4,5.7,1.2,8.7,1.9,3.6,1.9,3.9.3,3.9s-6,4.4-6,5.5-3,.6-10.9-.7c-3.8-.6-9.4-1.4-12.4-1.7-14.4-1.5-18-1.8-23.6-2.1-3.3-.2-6.6-.4-7.2-.6-.7-.2-2.1-.3-3.2-.3-1.5,0-2-.3-2-1.1s-.9-1.8-1.9-2.8c-1.8-1.6-1.9-1.9-1.8-5.7,0-2.9-.2-5-1.2-7.6-1.2-3.2-1.3-3.9-.6-6.3,1-3.7.9-6.9-.3-8.6-.8-1.1-1-2.9-1.1-7.9,0-5.6-.2-6.7-1.2-7.8-.9-1-1-1.5-.5-2.4.4-.6.9-2.9,1.1-5.1.4-3.4.2-4.4-.7-6.3-1-2-1.1-2.5-.4-4.1,1.3-2.9,1.1-7.3-.4-8.8-1.2-1.2-1.2-1.4-.3-3.6,1.3-3.2,1.2-6.3-.2-8.7-1-1.6-1.1-2.3-.6-4,.9-3,.7-6.8-.3-8.1-.5-.6-.9-1.7-.9-2.4s.4-1.7.9-2.4c1.2-1.6,1.1-2.5-.6-6.2-1.3-2.9-1.4-3.3-.6-5.4,1.3-3.6,1.1-6.5-.6-8.5-1.2-1.5-1.3-1.9-.7-2.6.8-.9,2.2-5.6,2.2-7.7s-.6-1.8-1.4-2.6c-1.7-1.7-2.4-3.4-1.6-3.9.9-.5.7-7.6-.2-9.3-.6-1-.6-2-.2-3.6.8-3,.1-6.3-1.7-8.4-1.7-2-1.9-3.8-.6-4.9,1.2-1,1.2-5.6,0-7.9-.8-1.6-.8-2,0-3.7.5-1.1,1-3.2,1.1-4.9,0-2.4-.2-3.2-1.3-4.1-.7-.6-1.7-1.2-2.1-1.3-.5-.2-.4-.9.3-2.8,1.4-3.5,1.3-7-.3-9.2l-1.3-1.7,1.3-2.7c1.9-4,1.7-7.2-.4-8.8l-1.7-1.3,1.3-1c1.4-1.1,2.6-4.2,2.7-6.7v-1.6s.5,1.5.5,1.5c.7,2.4,3,6.6,3.6,6.6.9,0,1.9,3,1.9,5.5s1.1,5.3,2.7,6.6ZM761.8,424.2c-.4,1.1-1.5,1.1-1.8.1-.8-2.5-.8-3.5,0-3.5s2.3,2.2,1.8,3.4ZM762.8,381.5c-1.5,2.3-2.6,3.1-2.6,1.9s3-4.3,3.7-4.3-.2,1.1-1.1,2.4ZM920.9,417c0-.9,4.1-2.5,5.1-2.1,1.3.5.8,1.3-1.6,2.5-2.5,1.2-3.5,1.1-3.5-.4ZM917.9,413.9c0-.1.8-.9,1.9-1.6,1.2-.9,2.1-1.1,2.5-.7.4.4.1.9-.8,1.6-1.3.9-3.5,1.3-3.5.7ZM941.3,436.3c-1.1,1.6-3,3.5-4.4,4.3-2.8,1.6-5.5,1.7-9.6.3-4.9-1.6-6.2-5.1-4.3-11.4,1.1-3.7,2.2-4.8,5.6-5.6,1.4-.3,3.1-1,3.7-1.5.6-.5,1.4-1,1.7-1,1.3,0,1.2-1.1-.5-4.6-1.9-3.9-2.6-4.8-6.7-8.5-2.8-2.5-7.6-4.6-14.9-6.6-3.2-.9-5.5-1-15.1-.7-10.9.3-25.3,2.1-27.7,3.3-.6.3-3,.9-5.4,1.3-2.3.4-5.3,1.1-6.6,1.5-1.3.4-4,1-6,1.2-2,.2-4.7.5-6,.7-1.3.2-4.5.4-7.1.5-2.6,0-4.9.3-5.1.6-2.1,2.1,12,2.6,22.2.8,14.4-2.5,38.7-2.8,45.9-.6,10.3,3.2,12.8,4.3,15.2,6.8,3.4,3.6,4.3,5.7,3.4,7.2-.4.7-1.2,1.2-1.7,1.2-.9,0-4.2-4.2-4.2-5.3,0-1.8-8.8-5.8-15.7-7.1-2.9-.6-13.4-.4-24.3.3-17.9,1.2-44.7.8-51.8-.8-2.2-.5-5.4-1.2-7.2-1.6-9-1.9-15.6-6.7-28.6-20.8-4.5-4.8-5-5.3-8.6-7.7-3-2-4.1-2.4-6.8-2.4s-3.2-.3-3.2-.6-.6-.6-1.3-.6c-1.1,0-1.2-.1-.5-.9,1.5-1.8,2.8-2.1,6.7-1.4,6.8,1.2,8.3,2.3,17.7,13.9,5.9,7.1,13.7,12.9,19.6,14.4,9.2,2.4,23.1,2.8,31.2,1,7.1-1.6,14.1-2.8,16.2-2.8s3.3-.4,5-.9c1.6-.5,6.2-1.6,10.2-2.6,6.5-1.5,8.4-1.7,18.7-1.7,13.4,0,21,.9,28,3.4,10.3,3.6,13.6,5.7,17.6,11.1,4.5,6.1,6.6,11.6,6.7,17,0,3.2-.3,4.1-2,6.6ZM917,410.5c-.5.8-1.3.8-1.8,0-.2-.3,0-.8.6-1,1.2-.4,1.8,0,1.2.9ZM912.2,408.7c-.5.8-1.3.8-1.8,0-.2-.3,0-.8.6-1,1.2-.4,1.8,0,1.2.9ZM907.6,407.2c0,.6-.6.9-1.8.9-2,0-2.9-1-2-1.9.9-.9,3.7,0,3.7,1ZM900.2,405.5c.2.5-.3.8-1.3.8s-1.6-.3-1.6-.9c0-1.1,2.5-1,2.9.2ZM952.2,432c-.8,4.6-1.2,5.3-2.7,4.7-.6-.2-.5-.7.1-2,.5-1,.9-2.9.9-4.3,0-3,.8-4.7,1.8-3.7.5.5.4,2-.1,5.4ZM982.9,313.2c.5-.5,2.7,2.5,2.3,3.1-.7,1.1-1.9.5-2.3-1.1-.2-.9-.2-1.8,0-2ZM982.6,322.2c.6-3.2.8-3.5,2-3.2,1.8.6,1.9.7.7,2-.6.7-.9,1.6-.7,2.2.2.6-.2,1.6-1.2,2.5-1.3,1.3-1.5,1.8-.9,2.6.8,1.2.4,1.8-1.2,1.8s-1.1.4-1.1,1.5-.9,2.2-3.1,3.9c-3.2,2.5-5.4,3.1-5.4,1.5s.7-1.2,1.7-1.6c2.3-.9,3.6-2.2,6.3-6.2,1.4-2.2,2.6-4.9,3-7.1ZM963.3,300c.9,0,1.7.4,1.9.9.4,1.2-.8,1.2-2.4,0-1.1-.9-1.1-.9.4-.9ZM954.5,338.3c-8.7-3.6-13.6-12.3-11.8-20.9.4-2,1-3.7,1.3-3.9.3-.2.9-1.3,1.4-2.4.9-2.1,4.1-6.7,5.4-7.6,2.6-1.9,6.1-3.5,7.9-3.5s2.4.1,1.5,1.8c-.4.7-1.3,1.2-2.3,1.2s-2.2.6-3.1,1.5c-.8.8-2,1.6-2.8,1.8-3.3.8-8.2,12.8-6.2,15.2.3.4.6,2,.6,3.5,0,1.6.4,3.2.9,3.6.5.5.8,1.4.8,2,0,1.6,1.6,3.1,3.3,3.1s1.7.5,2.1,1.2c.5.9,1.3,1.2,2.9,1.2s2.4.3,3,1.5c.4.8.7,1.7.7,1.8,0,.6-2.4.1-5.7-1.3ZM959.2,329.9c-.5,1.1-1.2,2-1.6,2-3.4-.2-6.6-4.2-7-8.8-.5-6.1,1.8-10.7,7.7-15.3,2.2-1.7,3.3-2.1,6.4-2.3,5.8-.4,9.3,2,12.2,8.3,1.9,4.2,1.7,8-1,12.8-2.5,4.6-3.5,5.3-4.2,3.3-.8-2.2-3.3-3.6-6.3-3.6s-5.1,1-6.2,3.6ZM966.3,351.3c.2,1.2,0,1.6-1,1.7-2.4.3-2.8-1.1-1.4-6.1l1.2-4.6-1.5-4.4c-2.1-5.9-1.5-8.3,2.2-8.3,2.6,0,3.1,1,1.7,3.7-1,1.9-1.2,3.6-1.3,9.4,0,3.9,0,7.8.2,8.6ZM970,479.3c-1.7.2-1.8,2.3-.1,2.8,1.2.4,1.7,2.1.7,2.1s-1,.4-1.6.8c-1,.7-1,1-.3,2.1.7,1.1.7,1.4-.1,2.3-.8.8-1.2.6-3.7-2-2.8-3-4-6-3.2-8.5.4-1.2.8-1.2,4.9-1.1,4.2.2,6.4,1.1,3.4,1.5ZM969.8,469.4c-1.5.2-3.3.7-3.9,1.2-1,.7-1,1-.3,1.8.7.8.7,1-.1,1s-1.1-.2-1.3-.5c-.2-.3-1.2-.7-2.4-.9-1.1-.2-2.4-.9-3-1.4-2.6-3-4.1-9.3-2.9-12.4.5-1.4.9-1.6,2.5-1.3,2.1.4,2.3,0,.8-1.7-1.8-2-.1-2.6,3.1-1.2,1.6.7,4.1,1.3,5.8,1.3s3,.3,3,.6.7.8,1.5,1c1.6.4,2.1,2.1.7,2.1s-1.2.4-1.6.9c-.6.7-.4,1.2.9,2.4,2,1.8,1.3,2.4-2.8,2.3-3.4,0-4.2.7-2.4,2.4,1.2,1.2,1.3,1.2,2.2.2,1.2-1.2.9-1.2,3.2-.3,3.3,1.2,2.4,1.9-3,2.6ZM975.3,428.8c.7.4,1.2,1.3,1.2,2s-.5,1.4-1.2,1.6c-.7.2-1.2.6-1.2.9s.5.7,1.2.9c.7.2,1.2.7,1.2,1.2s-.6,1.1-1.2,1.3c-1.4.4-1.6,2.1-.3,2.1s.9.5.9,1.1-.6,1.2-1.8,1.5c-2.2.4-2.4,2-.5,2.8,1.2.5,1.1.6-.9.6-1.2,0-2.4.3-2.6.6-.2.3-.9.6-1.5.6s-1.3.4-1.5.9c-.2.5-.7.9-1.1.8-.4,0-1.7-.2-2.7-.3-2.5-.3-5.4-3.7-5.9-7.1-.2-1.4-.6-3.3-1-4.3-.4-1.3-.3-3.3.5-6.9,1-4.9,1.2-5.2,3.5-6.5,1.8-1,3.4-1.4,6.1-1.4,3.4,0,3.8.1,4.9,1.6.9,1.3,1.6,1.6,3.1,1.5,2.2-.2,2.7,1.4.7,2-.7.2-1.2.6-1.2.9s.5.9,1.2,1.3ZM974.2,410.4c.2-1.5,1.3-1.7,1.6-.3,0,.5-.3,1-.8,1.2-.7.3-.9,0-.8-1ZM976.5,405.9c-.8,2.1-2.2,2.1-2.6,0-.5-2.3-2.4-4.6-5-5.9-2.7-1.3-4.3-1.3-6.8-.2-1.9.8-2.1,1.2-1.9,3,0,.7-.4,1.1-1.5,1.2-2.2.3-2.4,1.3-.5,2.2,1.8.8,1.7,2.1-.2,2.4-.7.1-1.3.3-1.3.5,0,.9,2.8,3.9,3.7,3.9s1.5.6,2.2,1.3c.6.7,2,1.7,3.1,2.1,2.3,1,3.5.5,6.6-2.4,1.7-1.6,2-1.7,2-.7,0,2.3-2.1,4-5.2,4.5-6.7,1.1-8.8.5-11.1-3.1-2.7-4.2-3.2-7.1-2.1-11.6.5-2,1.2-4,1.4-4.3.3-.4.7-1.4.9-2.3.2-.9,1-3.1,1.8-4.8,1.3-2.8,1.8-4.7,4-13.1.6-2.2,1.4-10.7,1.3-13.3,0-.8-.2-3.1-.5-5l-.4-3.5h1.8c2.5,0,2.7.4,1.3,2.8-1.1,1.9-1.2,2.2-.3,3.2,1.2,1.3,1.2,1.9,0,1.9s-.9.4-.9.9.4.9.9.9c1.1,0,1.2,1.9.3,2.8-.5.5-.4,1,.1,1.9.6.9.6,1.4,0,2.1-.5.6-.5,1.2.2,2.6.8,1.6.8,1.8-.1,2.5-1,.7-1,.8,0,1.8.6.7.8,1.6.6,2.4-.2.9,0,1.5.6,1.7,1.4.5,1.2,2.5-.3,3.3-1.6.9-1.2,2,1,2.4,1.5.3,2.3,1.5,1,1.5-1.4,0-3.2,1.1-3.2,1.8,0,1.1,1.5,1.6,3.7,1.1,1.2-.2,2,0,2.4.4.7,1.1.2,1.8-1.3,1.8s-1.2.3-1,1.1c.1.7.8,1.1,2,1.1,1.9,0,2.8,1.3,1.5,2.1-1.1.7-.2,2.6.9,2.2,1.2-.5,1.7.9.9,2.8ZM967.3,408.7c-.2,3.9-1.2,4.4-3.7,2.1-2-1.9-2-3.3-.1-6.4,2.5-4,4.2-2.2,3.8,4.3ZM1276.9,738c.8,0,1.8.4,2.3.9.6.8.5.9-.8.9s-1.9-.4-2.3-.9c-.6-.8-.5-.9.8-.9ZM1272,738.6c.4,0,.5.3.3.6-.2.3-.5.6-.6.6s-.3-.3-.3-.6.3-.6.6-.6ZM1269.8,742.9c1.3.6,2.1.6,3.7,0,2.6-.9,3.1-.6,4.6,2.7.6,1.4,1.4,2.8,1.7,3,.3.2.6,1.4.6,2.6s-.4,2.7-1.1,3.3c-1.1,1-1.1.9-1.5-2.6-.3-3-.7-3.8-2-4.8-2.1-1.5-5.3-2.5-7.5-2.5s-2.2-.7-.9-1.8c.6-.5,1.2-.5,2.4,0ZM1265,730.1c.5,0,.9.4.9.9,0,.9-.7,1.2-1.4.5-.7-.7-.4-1.4.5-1.4ZM1267,740.6c.1.7-.2,1-1.1,1s-1.2.4-1.2.8-.5,1.5-1.2,2.3c-.6.8-1.3,2.2-1.6,3.1-.4,1.7-1.2,2.5-1.7,1.7-.6-.9,1.8-6.8,3.5-8.7,1.7-1.9,2.9-2.1,3.3-.4ZM1258.6,709.6c.8,0,1.9,1.7,1.5,2.4-.5.8-1.9.8-2.4,0-.4-.7.2-2.5.9-2.5ZM1253.3,697.1c1.3-1.3,2.3-.5,2.3,1.6s-.6,2.2-2.1.5c-1-1.1-1-1.3-.1-2.2ZM1235.7,655.8c.3,0,.6.3.6.6s-.3.6-.6.6-.6-.3-.6-.6.3-.6.6-.6ZM1217.9,613.1c.2.2.3.7.1,1.1-.2.6-.4.6-.7,0-.5-.8,0-1.7.6-1.1ZM1200.4,569c.2.2.2.9,0,1.5-.2,1.1-.3,1.1-.7,0-.5-1.1,0-2.1.6-1.5ZM1186,536.8c.3,0,.8.7,1.2,1.5.8,1.8.1,2-1,.3-.9-1.4-.9-1.8-.2-1.8ZM1184.3,541.9c2.7,3,4.3,6.4,4.3,9s.7,3,2.3,5.1c2.2,2.9,2.9,4.8,5.3,13,.6,2,1.9,4.6,3.1,5.9,1.1,1.4,2.1,2.6,2.1,2.9,0,.2,0,2.3.1,4.6.1,4.5,1.3,6.9,3.9,8.1,1.1.5,1.4,1.1,1.4,3.6s3.2,10.7,4.9,11.2c1,.3,1.6,1.9,2.1,5.7.4,3.3.9,4.4,2.7,6.5,2.2,2.5,3.8,7.5,3.3,10.2-.4,1.9-.1,2.4,2.7,5.7,2.7,3.1,3.1,4,3.3,6.5.1,2.9,2.8,8.5,4,8.5s2.5,3.7,2.2,5.6c-.4,2.1,1.3,5.9,3.6,7.9,1.1.9,1.5,1.9,1.5,3.4,0,4.1,1.8,9.1,4,10.8,1.8,1.5,2,1.9,2,4.8s.9,5.3,3.7,8.1c2,2,1.9,1.5,2,6.4.1,3.7.2,4,2.6,6.2,2.4,2.2,2.5,2.5,2.5,5.8s1.3,7,4.5,10.4c1.8,1.9,2,2.6,2.4,7,.2,2.7,1,6.3,1.6,8l1.2,3.2-1.9,2.2c-1.1,1.2-2.3,3.1-2.8,4.2-.8,2-1.6,2.4-3.2,1.5-.5-.3-5.4-.8-10.9-1.2-5.5-.4-10.8-.8-11.8-1-1-.1-6.4-.4-12.1-.6-5.6-.2-13.2-.5-16.9-.8l-6.6-.4-.5-2.3c-.3-1.2-1.1-3.3-1.9-4.5-2.3-3.5-2.4-5.1-.7-7.4.8-1.1,1.5-2.9,1.5-3.9,0-2-2-5.8-3-5.8s-.6-1.2-.6-2.8.4-3.2,1.4-4.5c.8-1,1.6-2.9,1.9-4.6.4-2.5.2-3.1-1.3-5.4-1.4-2-1.8-3.3-2.1-6.9-.2-2.4-.1-4.3.1-4.3s.8-1.2,1.1-2.7c.6-2.5.6-2.9-.9-5.2-1.9-3-2.1-6.6-.6-9.4,1.5-2.8,1.3-5.8-.5-7.9-1.7-2.1-1.9-4.1-.6-7.8.7-2.1.8-3.1.2-5.7-.4-1.8-1.1-3.7-1.5-4.4-1-1.6-1-5.8,0-7.9,1-1.9.5-4.5-1.4-7.1-1.5-2-1.6-5.7-.2-8.7,1-2.1,1-2.3,0-5-2.1-5.5-2.2-6.7-.9-8.9,1.5-2.5,1.1-5.8-.9-7.9-1.3-1.4-1.4-2.8-.7-7.3.3-1.9.1-3-.6-4.2-1.9-3-2.2-5.1-1-7.7,2-4.2,2-6,.2-8.6-1.7-2.5-2.1-6.6-1.1-11.2.4-1.9.3-2.6-1.1-4.3-1.7-2.2-2.1-5.4-.8-6,.6-.2.7-1.5.6-4.7-.2-5.4-.6-6.4-2-6.9-1.3-.4-2-3.1-1.6-6.2.4-2.9,1.1-3.3,3.1-1.7,1.5,1.2,1.7,1.6,1,2.4-1.4,1.7-.2,6.3,2.3,9.1ZM1227.2,745.8c0-.8,1.9-1.2,5-.9,10.3.9,24.3,2.3,24.4,2.4,0,0,0,.6-.2,1.1-.4,1.1-1.2,1.3-1.7.5-.3-.5-12.4-1.9-15.2-1.8-2.9.1-12.4-.9-12.4-1.3ZM1239.3,753.3c-.6.6-8.7,1.1-8.1.5.3-.3,1.3-.7,2.1-.7,2.3-.2,6.3,0,6,.2ZM1198.2,772.4c4.6-.2,8-5.2,7.9-11.7,0-2.1.2-2.8.7-2.7.5.2.7,1.5.6,4.3-.1,4.3-1.9,8-4.5,9.7-2,1.2-3.6,1.6-5,1-1.1-.5-1.1-.5.3-.6ZM1196.6,767.5c-2.1-.8-1.4-1.4,1.9-1.6,2.3-.1,2.7,0,2.7.9s-.3,1.4-.7,1.8c-.9.9-2.3,1-2.3.1s-.7-.9-1.6-1.2ZM1183.2,618.3c.1-.4.6-.9,1.1-1.1.5-.1.7,0,.5.5-.1.4-.6.9-1.1,1.1-.5.2-.7,0-.5-.5ZM1183.1,603.8c0-.3.3-.6.6-.6s.6.3.6.6-.3.6-.6.6-.6-.3-.6-.6ZM1184.5,633.8c.2-.6.4-1.1.4-1.3s.4-.2,1-.2.9.4.7,1.1c-.1.6-.7,1.1-1.3,1.3-.9.2-1,0-.7-.8ZM1188,649.8c.3.5.6,1.5.6,2.3,0,1.9-1.7,1.7-2.2-.2-.5-1.9.7-3.5,1.6-2.1ZM1189.8,666.4c0,1.4-1.1,1.6-1.8.4-.4-.8-.4-1.3,0-1.6.8-.5,1.8.2,1.8,1.2ZM1190.5,681.9c.8,1.3.6,3.4-.4,3.7-2.2.8-3.3.3-3.3-1.8s2.9-3.2,3.7-2ZM1192.8,704.7c0,1.4-.3,1.9-1.1,1.9-1.6,0-1.9-.5-1.9-3.4s.2-2.6.9-2.6c1.2,0,2.1,1.9,2.1,4.2ZM1190.7,720.9c1.8-.4,2.6.9,1.5,2.3-1,1.2-3,1.2-3.4,0-.5-1.2.1-1.9,1.9-2.3ZM1190.4,736.5c.3.2.6.8.6,1.2s-.3.9-.6.9-.6-.6-.6-1.2.3-1.1.6-.9ZM1190.8,747c.2-.9.5-1,1.2-.5.5.4.8,1.1.8,1.5s-.2.8-.5.8c-1.3-.1-1.8-.7-1.5-1.8ZM1193.8,752.7c.2.2-.1.3-.8.3-.7,0-.8-.2-.4-.4.4-.2,1-.2,1.2,0ZM1193.1,754.7c.6-.8,1-.9,1.3-.4.3.4,1.3.6,2.7.4,2.1-.3,3.6.3,3.6,1.5s-1.9.5-4.2.5c-4.4,0-4.7-.2-3.4-2ZM1200,750.9c0-.7,2.6,1.3,4,3.1.9,1.1,1.5,2.4,1.3,2.9-.2.5-.3.5-.4,0,0-.4-1.1-1.8-2.5-3.2-1.3-1.4-2.4-2.7-2.4-2.8ZM1207.3,750.6c-1.2-1-1.4-1.3-.6-1.7.6-.4,1.3-.2,2.2.3.7.5,2.7,1,4.4,1.3,3.7.5,4.2,1.7,1.7,4-2.3,2.2-3.5,2.1-4.9-.5-.6-1.2-1.9-2.7-2.7-3.4ZM1210.8,744.8c.4-.2,1.1-.2,1.5,0,.4.2,0,.3-.8.3s-1.2-.1-.8-.3ZM1214.4,744.8c.4-.2,1-.2,1.2,0,.2.2-.2.3-.8.3-.7,0-.9-.2-.4-.4ZM1181,575.1c.7-.3,1,0,1,.9s-.4,1.3-1.2,1.3-1.2-.4-1.2-.9.1-.9.3-.9.7-.2,1.2-.4ZM1180.1,559.5c0-1.3.2-1.6.6-1.1.5.5.5,1,0,1.8-.6,1-.6.9-.7-.7ZM1177.1,543.8c.7-.7.9-.5,1.5,1.3.3,1,.2,1.4-.5,1.4-1.1,0-1.8-1.8-1-2.6ZM1176.2,513.9c-.4-1.2-.2-1.4.7-1.2,1.1.2,3.8,4.3,3.8,5.8,0,.4-.5.7-1.2.7-1.2,0-2.1-1.5-3.3-5.3ZM1184,524.1c0,1.7-.3,2.1-1.2,2.3-1.6.2-3-3.1-1.8-4.1,1.6-1.3,3-.4,3,1.9ZM1180.6,493.3c.3,0,1.2,1,2.1,2.3,1.7,2.5,2,5.2.9,7.6-1,2.1-1.7,1.9-1.1-.3.6-2-.2-5.8-1.6-7.1-.9-.9-1.1-2.6-.3-2.6ZM1014.8,438.5c.4-.4,3.4,2.7,3.4,3.4s-.3.6-.8.6c-.8,0-3.1-3.6-2.6-4.1ZM1017.9,435.9c.7,0,1.7.3,2.2.7,1.4,1.1,3,3.8,2.5,4.3-.4.4-2,.6-2.1.3,0,0-.1-.7-.3-1.3-.1-.6-1-1.8-1.9-2.5-1.5-1.3-1.6-1.4-.5-1.4ZM1162.6,475.2c-5.1,0-6.8.5-14.5,3.9-11.5,5.1-17.2,7.4-21,8.4-4.3,1.1-6.2,1.1-12,0-10.2-1.9-27.7-10.2-44.4-21.1-10.8-7.1-18.3-11.1-27.1-14.5-9.2-3.6-14.4-4.4-23.9-3.8-2.5.2-2.4-1.4.3-2.7,1.2-.6,3.8-1.2,5.9-1.4,6-.7,9.6.6,30.7,11,8.2,4,17.3,9.4,20.6,12.2,1,.9,2.7,2.1,3.6,2.7,1,.6,2.6,1.7,3.7,2.4,5.6,3.9,12.4,7.7,13.9,7.7s1.8.5,2.8,1.2c2.1,1.4,3.4,1,3.4-.9s-.6-1.7-2.1-2.3c-1.1-.5-2.3-1-2.7-1-.8,0-7.8-4.1-8.3-4.9-.2-.3-2.3-2.1-4.7-3.9-4.4-3.4-8.5-6.7-14-11.5-1.7-1.4-4.1-3.3-5.4-4.2-2.3-1.6-5.5-4.1-11.4-9.2-8.5-7.3-15.5-10.4-29.8-13.2-8.2-1.6-16.3,0-21.7,4.1-4,3.1-4.6,5.3-1.4,5.3s2.4.4,3,1c.6.5,1.9,1.4,3,2,2.5,1.3,3.2,2.5,2.7,4.5-.6,2.6-3.2,5-6.6,6.3-2.9,1.1-3.6,1.2-6,.6-1.8-.5-3.3-1.4-4.6-2.9-3.4-3.9-3.9-7-2-12.1,2.2-5.9,5.5-8.8,13.4-12.2,4-1.7,5-1.9,10.2-1.8,7,0,15.3,1.4,21,3.5,6.8,2.5,16.4,8.1,21.9,13,1.8,1.6,4.7,4.1,6.4,5.5,2.9,2.5,7.3,6.4,16.3,14.5,10.2,9.2,17.8,13.6,31.1,18.2,4.6,1.6,6.6,1.9,10.3,1.9,9.3-.1,12.4-.8,21.3-4.9,4.4-2,13.4-4.7,17.5-5.3,5.6-.7,10.2,3,10.8,8.7.2,1.9-.7,2.8-1.4,1.3-2.3-5.1-3.5-5.9-9-5.9ZM1023.5,434.1c1.1,0,3.2,3.6,2.9,4.8-.5,1.5-1.5,1.6-1.5.1s-.4-1.6-.9-2.3c-1-1.3-1.2-2.7-.5-2.6ZM1030.5,435.6c.7.3,1,1.1,1,2.7,0,3.3-1.6,3.2-2.1-.1-.5-2.8-.3-3.2,1.1-2.6ZM1034.4,439.3c.1-1.2.4-2.2.6-2.2,1,0,1.7,1.1,2.1,2.8.4,2.2,0,2.7-1.7,2-1-.4-1.2-.9-1-2.6ZM1040.4,439.5c1.2,0,2.5,1.7,2.9,3.5.4,2.1-.3,2.5-2.3,1.3-1.1-.6-1.6-4.8-.6-4.8ZM1047.3,442.5c.6,0,1.2.2,1.2.5,0,.2.1,1.3.2,2.4.2,2-.4,2.4-2.2,1.4-1.4-.8-.8-4.2.7-4.2ZM1050.8,446.8c1.2-2.2,2.7-1.4,2.1,1-.4,1.4-.7,1.6-1.9.8-.6-.4-.7-.8-.1-1.8ZM1056,448.5c.5-.7,3.3,1.8,3.3,2.9s-1.1,1.1-2.2.3c-.9-.6-1.5-2.5-1.1-3.3ZM1062.9,454.3c0-1.1,1.3-.9,1.7.2.1.4-.2.7-.7.7s-1-.4-1-1ZM1167.8,487.8c1.7-1.8,2.6-2.4,4.1-2.4,2.1,0,5.2,2.3,5.2,3.8s-.8,1.2-1.5-.4c-.3-.7-1.1-1.4-1.7-1.6-.8-.1-1.1.2-1.1,1.6s-.4,2.1-1.3,2.5c-.9.5-1.2,1.1-1,2.1.4,2.2-1.8,1.9-3.1-.4-.6-1-1.2-1.8-1.5-1.8-1,0-.4-1.3,1.7-3.6ZM1162.2,497.2c.9-1.2.9-1.2,3.5.2,3.8,2,7.8,2.4,10.8,1,2.1-.9,2.5-1,3-.2.9,1.4.7,4.4-.4,5.9-1.1,1.6-1.8,1.7-2.6.3-.4-.8-1.4-1-4.1-1-1.9,0-4.2-.3-4.9-.6-1.1-.5-1.7-.5-2.6,0-2.8,1.8-4.9-2.7-2.7-5.7ZM1174,525c1.3-.4,1.4-.3,1.2,1.3-.2,2.1-2,2.7-2.6.8-.5-1.5-.5-1.5,1.4-2.1ZM1171.7,519.3c-1.1-.6-1.2-1.1-.8-5.3.5-5.7,1.4-7.9,1.4-3.3,0,1.8.4,4,.9,4.9.5.9,1,2.9,1.1,4.3.1,1.6,0,2.7-.6,2.8-.5.2-.7-.3-.7-1.3s-.5-1.8-1.2-2.2ZM1166.1,515.6c-.3,1-.9,1.8-1.2,1.8-.7,0-.7-.7,0-2.7.8-2.2,1.9-1.4,1.1.9ZM1161.1,522.3c.9,0,3.9,2.1,3.9,2.8,0,1.2-.8,1.3-2.6.4-1-.5-1.7-1.4-1.7-2.1s.2-1.2.4-1.2ZM1156.6,538.5c.1-.8.7-1.5,1.3-1.6.9-.2,1.1.1.9,1.2-.1.8-.7,1.5-1.3,1.6-.9.2-1.1-.1-.9-1.2ZM1153.2,554.3c.7,0,.8.2.3,1.2-.4.7-.8,1.2-.9,1.2s-.3-.6-.3-1.2.4-1.2.9-1.2ZM1146.6,570.6c1,0,1.1.8.3,2.5-.7,1.3-1.6,1.5-2,.4-.4-1.1.7-2.9,1.7-2.9ZM1140,585.4c.5-.9.9-1,1.4-.5.5.5.4,1.2-.3,2.9-1.1,2.4-1.8,3.1-2.3,2.3-.4-.6.3-3,1.3-4.6ZM1133,602.8c.4.1.6.5.6.8s-.3.7-.6.8c-.4.1-.6-.2-.6-.8s.3-.9.6-.8ZM1123.9,618.3c1.3-2.4,4-.8,2.9,1.6-.4.8-.8,1.4-1,1.4-2.7-.5-2.9-1-1.8-3ZM1118.5,632.8c.3,0,.5.9.4,1.9-.2,2.1-1.5,3-2,1.5-.4-1.1.7-3.4,1.6-3.4ZM1109.8,649.9l1.1-1.7.2,1.7c.1.9,0,2.1-.1,2.6-.2.5-.6.9-1,.9-1.2,0-1.3-1.8-.2-3.5ZM1101,668.1c1.3-1.5,3.1-.6,2.6,1.4-.5,1.8-1.7,2.1-2.6.7-.6-.9-.6-1.4,0-2ZM1094.9,685.3c2.1.3,2.2.6.9,2.4-1,1.5-1.2,1.5-3.1.7-2.6-1.1-.8-3.6,2.2-3.1ZM1084.3,703c.5-.8,5.2-.7,5.2.2,0,1.3-1.1,2.4-2,2-.5-.2-1.1-.1-1.3.2-.2.3-.6.6-.9.6-.7,0-1.4-2.2-.9-3ZM1080.9,728c.7-1.2,1.6-4,1.9-6.2,1.2-7.5,1.6-8.5,4.3-10.2,3.5-2.3,4.9-5.4,5.4-11.9l.4-5.3,3.1-3c2.5-2.4,3.2-3.6,3.8-6.2.6-2.4.6-3.7,0-5.2-.8-2.3.2-4.5,2.6-5.4,2.8-1.1,4.5-3.9,4.9-8.3.6-6.3.8-6.9,3.9-9.8,2.5-2.4,3-3.1,3.3-5.8.7-5.2,2.1-9.4,3.1-9.4s1.7-.8,2.6-1.7c1.5-1.5,1.8-2.4,2.2-6.5.4-4.6.5-4.9,3-7.2,3.6-3.4,5.1-6.3,5.1-9.5s1-6.4,2.4-6.8c2.4-.8,5.5-7.2,5.4-11.1,0-2.3.9-5,1.9-5s4.1-5.6,4.6-7.9c.2-1.2.1-2.8-.2-3.6-.7-1.8.6-5.4,1.8-5.4s1.7-1,2.8-2.1c1.6-1.7,2-2.6,2-4.8s-.3-2.8-.7-3.1c-1.5-.9,0-4.6,3.3-7.7,2.7-2.6,3.3-3.5,3.6-6.1.4-2.5.3-3.1-.6-3.7-1.5-1.1-.8-2.9,2.4-6.9,1.5-1.8,2.8-3.7,2.8-4.2,0-.5,0-2.5.1-4.5v-3.6c0,0,2.1-.2,2.1-.2,1.3-.1,2.6.3,3.7,1.1,1,.7,2.3,1.2,2.9,1.2s1.7.9,2.5,2.3l1.3,2.3-1.5,1.4c-1,.9-1.5,2.1-1.5,3.3s1.6,6.5,3,9.4c1,2,1.2,4.6.4,5.9-.9,1.5-.4,3.6,2.2,10.2,1.2,3,1.2,3.3.2,5.3-1.3,2.8-1.3,5,.1,7.2,1.3,1.9,1.1,5.2-.3,7.3-1.2,1.8-1,3.4,1.1,7.2,1.8,3.4,1.9,3.6,1.2,6.7-.8,3.5-.1,7.4,1.5,8.7,1.2,1,1.1,1.9-.1,5.5-1,2.8-1,3,.3,6.1,1.5,3.7,1.8,7,.8,10.6-.9,3.1-.3,5.5,2,8.9,1.4,2.1,1.5,2.5.7,3.1-.5.4-.9,1.3-.9,2.1s-.3,2.5-.6,3.8c-.7,2.6-.1,4.7,2.1,7.8,1.1,1.5,1.1,1.9.4,3.6-.4,1.1-1.1,3.1-1.4,4.6-.5,2.3-.4,3,.7,4.9,1.4,2.5,1.7,6,.5,8-.4.7-.9,2.7-1.2,4.3-.4,2.6-.2,3.3,1.1,5.3.8,1.2,1.8,2.3,2.1,2.3.6,0,.4,2.8-.5,11.9-.3,2.8-.1,4.2.6,5.7,1.4,2.8,1.3,7-.2,8.9-.8,1-1.2,2.4-1.2,4.4s.3,3.1,1.8,4.6c1.9,1.9,2.4,4.7,1,5.6-1.4.8-2.2,3-2.2,6.1v3l-11,.4c-11.7.5-84.5.2-88-.3-1.9-.3-2.2-.6-2.9-3-.4-1.5-1.7-3.7-3-4.9l-2.2-2.3,1.3-2.2ZM1169.7,748.5c.2.2-.2.3-.8.3-.7,0-.8-.2-.4-.4.4-.2,1-.2,1.2,0ZM1169.5,744.5c-.2-.3,2.3-.5,5.5-.5s5.8,0,5.6.2c-.6.5-10.9.8-11.2.3ZM1170,753.6c3.2,0,5.9-.4,5.9-.7s-1.1-.4-2.4-.2c-1.3.2-2.6,0-2.8-.2-.2-.3.8-.6,2.3-.6,3.3,0,5.5-.7,5.8-1.6.2-.5-.7-.8-3-.8h-3.2c0,0,2.4-.5,2.4-.5,3.6-.7,13,0,13,1s-.3.9-.6,1.1c-.3.2-1.2,1.6-1.9,3.1-.8,1.7-1.8,2.7-2.4,2.7s-1.5.2-2,.4c-.7.3-1.1,0-1.3-.8-.5-1.7-1.7-1.9-8.8-1.3-5.6.4-8.8.1-7.3-.8.3-.2,3.2-.4,6.4-.5ZM1182.5,744c0-.3.8-.6,1.8-.6s1.7.2,1.5.6c-.2.3-1,.6-1.8.6s-1.5-.3-1.5-.6ZM1148.7,744.5c-.8,0-1.2-.1-.8-.3.4-.2,1.1-.2,1.5,0,.4.2,0,.3-.8.3ZM1142.6,744.5c-3.5,0-3.7,0-1.7-.5,1.2-.3,3-.3,3.9,0,1.4.4,1,.5-2.2.5ZM1126.2,744.6c-2.3,0-4.1-.3-4.1-.6,0-.8,6-.8,7.2,0,.6.4-.3.6-3.2.6ZM1074.6,721.8c1.3-2.5,1.6-2.6,3.6-1.1,1.4,1.1,1.6,1.7,1.3,3-.2.9-.7,1.6-1.1,1.5-4.4-.5-5-1.1-3.8-3.4ZM1074.1,730.3l1.6-1.7-.3,1.5c-.2.8-.3,2-.4,2.5,0,.6-.5,1.3-1.2,1.7-1.1.6-1.2.5-1.2-.9s.7-2.3,1.6-3.2ZM1059.3,741.7c0-1.7,2.9-6.5,4.9-8.2,1.9-1.6,4.5-2.6,5.2-1.9.6.6,0,.9-2,1.2-1,.2-2.1.8-2.6,1.4-.4.6-1.3,1.7-1.9,2.4-.6.7-1.5,2.4-1.9,3.8-.8,2.5-1.7,3.3-1.7,1.3ZM1065.6,744.9v3.8c.2,2.1.2,3.8.1,3.8-1.4,0-2.9-3.3-2.9-6.3,0-4.6,3-10.6,5.3-10.6s1.6.5,2.4,1.2c.8.7,2.4,1.2,3.5,1.2s2.2.4,2.6,1.2c1,1.9.7,2.3-2.3,2.6-1.6.2-4.3,1-5.9,1.8l-2.9,1.4ZM1070.9,749c-3.1-1.5-2.5-2.7,2.3-4.5,3.9-1.4,4.2-1.5,4.2-.5s-.4,1.2-.9,1.4c-.5.2-1.3,1.3-1.8,2.5-1,2.4-1.1,2.4-3.8,1.1ZM1076.5,752c-.7-.1-1.5-.5-1.8-.8-.6-.5,2.6,0,3.3.5.5.4-.3.6-1.5.3ZM1079.8,745.2c.9-2.1,1-2.8.4-4.5-.4-1.1-1.3-2.7-2-3.5-.8-.9-1.2-1.8-1-2.4.5-1.2.8-1.2,2.5,0,2.5,1.7,3.4,8.8,1.5,11.6-.5.8-1.3,1.4-1.7,1.4-.6,0-.6-.5.3-2.4ZM1104.3,758.8c-7.2-.8-23.7-4.7-24.7-5.8-1-1.1,5.5,0,8.1,1.2,1.2.6,4.5,1.4,7.3,1.8,5.4.7,18.6,3,19.6,3.4,1.2.5-3.7.2-10.3-.6ZM1087.2,744.7c-.7-.1-1.4-.5-1.4-.8s7.3-.5,18-.5c11.6,0,17.6.2,17,.6-.9.5-30.6,1.1-33.6.7ZM1120.6,760.3c-1.5-.4-1.4-.5.7-.2,5.1.7,75.8.2,80.2-.5.9-.1,1.2.1,1.2,1,0,1.7-2.4,2-21.1,2.1-8.9,0-16.8.2-17.5.3-.7.1-1.7.1-2.2,0-.5-.1-7.6-.3-15.7-.5-13.6-.2-21-.9-25.7-2.3ZM1154.1,766.4c-1,.6-3.9.6-9.1,0-2.7-.3-2.1-.4,3.3-.5,4.5,0,6.4,0,5.7.5ZM1125.5,765.8c-.5,0-.9-.3-.9-.6s.3-.6.6-.6.7.3.9.6c.2.3,0,.6-.6.6ZM1128.4,776c-.7,0-.8-.2-.4-.4.4-.2,1-.1,1.2,0,.2.2-.2.3-.8.3ZM1152.9,779.7c-.5.3-2.4.6-4.2.5-3.6,0-15.4-2.4-16.1-3.2-.7-.7,8.8.3,11.6,1.2,1.3.5,4.1.8,6,.9,2.6,0,3.4.2,2.7.6ZM1161.7,779.5c-1,0-1.3-.1-.7-.3.6-.1,1.4-.1,1.8,0,.4.2,0,.3-1.1.3ZM1221.9,775.9c-6.9.9-9.4.8-4-.2,7.6-1.4,9.4-1.6,9.4-1s-2.4.8-5.3,1.2ZM1246.8,768.1c-1.7.7-31.4,5.5-34,5.5s-1.8,1.1-.7,2.2c.9.9-4.8,1.9-16.9,2.9-14.5,1.2-28.8,1.7-29.2,1.1-.5-.7,1.7-1.3,5.1-1.3,1.5,0,3.5-.4,4.5-.9l1.8-.8h-2.4c-25-.5-28.2-.7-35.4-1.9-4.1-.7-7.8-1.6-8.2-1.9-.4-.4.3-.5,2.1-.2,12.9,1.8,41.1,1.6,41.1-.3s-5.6-1.3-19.6-1.5c-12.5-.1-26-.9-26.7-1.7-.1-.1,5.1-.2,11.7-.2,15.6,0,21.4-.4,23.6-1.8,1.5-1,3.2-1.2,14.8-1.3,8.2-.1,13.1,0,13.1.4s-.4,1.4-.9,2.3c-1.2,2.4-1.1,4.6.2,6,1.4,1.5,9.1,2.4,12.1,1.4,1.8-.6,5.2-4.2,6.7-7,.7-1.2,1.1-1.4,5.9-1.4s5.1.1,4.4.9c-.5.6-1.9.9-3.5,1-2.4,0-2.6.1-1.2.5,2.9.9,16.1,0,26.8-1.8,2-.3,4.2-.6,4.8-.6,1.2,0,1.2,0,0,.5ZM1211.8,765.1c.2-.3.6-.6,1-.6s.4.3.2.6c-.2.3-.6.6-1,.6s-.4-.3-.2-.6ZM1249.8,761.5c-.7.3-3.6.9-6.3,1.2-2.8.3-6.9.9-9.3,1.2-6.5.9-10.4,1.1-11.3.6-.6-.4-.5-.5.4-.6.7,0,2-.2,3-.3,1,0,5.2-.6,9.4-1.1,11.9-1.4,15.6-1.7,14.1-1ZM1264.1,755.2c-1.2.2-3.7.8-5.7,1.3-3.8,1-5.5,1.2-22,3.2-13.2,1.6-23.9,2.2-24.4,1.4-.5-.7.7-1.8,2-1.8,4.7,0,27.6-2.7,31-3.5,1.6-.4,16-2.1,17.6-2.1.7,0,2.3-.6,3.6-1.4,1.9-1.1,2.4-1.7,2.4-3,0-1.5.1-1.6,1.8-1.3,2.5.5,4,1.4,4,2.3s-7.2,4.4-10.3,4.9ZM1285.5,750.9c-.4,3.4-2.6,7.6-5,9.3-2,1.4-7.3,2.2-8.6,1.3-1-.7-.6-.8,2.2-.6,2.4.1,6.5-1.9,7.9-4,.6-.9,1.7-3.3,2.4-5.3l1.4-3.7-.3,3Z"/>
    <path class="st1" d="M1121.5,483c-2.5,0-6-.3-7.8-.8-1.8-.5-3.5-.7-3.8-.6-1.5.9.5,2.3,5,3.6,1.7.5,4.5.6,7.6.4,5.4-.4,5.7-.5,5.7-1.7s-.2-1-6.6-.9Z"/>
    <path class="st1" d="M995.8,446.7c0,1.9.4,2.7,1.9,4,1.3,1.1,2.6,1.6,4.1,1.6,3.2,0,4.4-1.1,4.7-4.3.6-5.4-2.5-8.2-7.4-6.6-2.5.8-3.3,2.1-3.3,5.3ZM999.9,446.1c.9-.9,2.6-.3,2.6.9s-.9,1.6-2.2.7c-.9-.6-1-1-.4-1.6Z"/>
  </g>
  <path class="st0" d="M977,320.7c-1.5-2.9-3-6.6-3.4-8.2-.8-3.4-4.5-5.8-5.9-4-.5.6-1.1,3.5-1.5,6.3-.8,7.3-2.1,8.4-10.7,9.5-5.4.7-8.1,1.6-10,3.3-1.4,1.3-10.4,5.5-20,9.2-9.6,3.7-21.3,8.3-26.1,10.2-11.1,4.4-30.1,11.5-43.8,16.5-5.8,2.1-15.1,5.6-20.6,7.8-5.5,2.1-11.3,4.1-12.9,4.4-1.6.3-4.3,1.5-6,2.7-2.1,1.4-4.3,2-6.6,1.7-3.5-.5-3.6-.6-5.9-8.5-1.6-5.3-2.9-8-3.8-7.9-.8,0-1.9,0-2.4-.2-.6-.2-1.6,2.1-2.5,5.6-2.7,10.3-2,9.7-12.5,10-9.9.3-13.3,1.5-12.1,4.2.3.9,1.7,1.9,3.1,2.3,2.5.8,14.2,7,14.6,7.8.5.9-2.1,9.1-4.3,14-3.1,6.7-1.9,7,5.4,1.4,3.1-2.4,6.2-4.2,6.8-4,.6.2,1.9,3,2.8,6.2.9,3.2,2.8,10.1,4.3,15.3,1.5,5.2,2.9,10.7,3.1,12.2.2,1.5,2.1,8.2,4,15,5.8,20,8.1,28.4,7.9,29-.2.5,3.4,13.8,5.2,19.4,1.8,5.7,9.3,34.1,11.6,44.1,2.3,10.2,2.1,13-1.1,12-2.4-.7-8.8,1.1-9.3,2.7-.6,1.9,1.9,4.2,5.8,5.4,5.7,1.7,5.9,2.3,4.1,10.5-1.1,5-1.2,7.7-.5,7.9.6.2,3.4-1.5,6.2-3.8,2.8-2.3,5.3-3.8,5.6-3.4.3.4.4,3.3.1,6.5-.3,3.2-.7,11-1,17.3-.3,6.4-.8,15.8-1.1,21.1-.3,5.2-.7,12.9-.8,17.1-.2,4.2-.8,14.5-1.5,23-.7,8.5-1.2,17.7-1.2,20.5,0,2.8-.9,8.8-2,13.3l-2.1,8.2h-3.3c-5.6.3-10.8,4-7,5.2,2.9.9,1.7,2.7-2.1,3.1-3.3.3-25.3,1.4-31.5,1.5-1.2,0-2.2-1.5-3.4-5.1-1.5-4.5-1.9-5-3.5-4.2-1,.5-2.6,2.8-3.6,5-2,4.5-2.3,4.7-9.2,4.7-8.3,0-10.2,4-2.9,6.2,5.7,1.8,7,3.6,6.1,8.5-1.3,6.8-.2,7.7,4.5,3.5,3.8-3.4,4.1-3.5,7.6-2,2,.9,4.1,1.9,4.8,2.3,2,1.2,3.1-2.2,1.7-5.2-1.6-3.2-.7-4.9,3.9-7.7,2.2-1.4,7-2,17.6-2.5,8-.3,15.1-.4,15.8-.2.7.2,1,2,.7,4.3-.7,5.4,1.5,5.7,7.2,1.2,2.5-2,4.9-3.6,5.3-3.5.4.1,2,1.3,3.6,2.6,1.6,1.3,3.6,2.6,4.3,2.9,2.5.8,2.5-2.7,0-6.4-1.3-2-2.2-4.4-1.9-5.3.3-1,2.6-2.5,5.1-3.5,3.3-1.3,4.5-2.3,4.6-3.8.1-2.5-1.1-2.9-5.7-1.7-8,2-11.7-3.8-11.2-17.3.5-12.9,1.8-33.9,2.9-49,.6-7.7,1.6-23.8,2.3-35.9,1.4-24.2,1.8-26.9,4.1-25.4.8.6,2.8,1.1,4.5,1.1h3c0,0-2.5-4.4-2.5-4.4l-2.5-4.5,5.9-3.9c3.2-2.1,6-4.2,6.1-4.6.6-1.8-2-2.7-8.9-3.1l-7.5-.4-2.1-4.9c-2.2-5.3-5.1-7.2-6.8-4.4-.6.9-1.3,1.6-1.6,1.5-.7-.2-5.3-15.6-9.1-30.3-1.3-5.2-6.5-24.6-11.4-43.2-14.5-54.9-18.6-71-18.3-72.1.1-.4,3.4.3,7.3,1.6,4.2,1.4,7.3,2.1,7.7,1.6.3-.5-.5-2.4-1.9-4.4-3.9-5.5-1.9-5.9,11.8-2.5,14,3.5,55.7,12.9,68.3,15.5,5,1,12.1,2.5,15.8,3.3,10.3,2.3,30.6,6.9,39.5,9,4.4,1.1,12,2.7,16.7,3.6,4.7.9,15,3.2,22.9,5.1,7.8,1.8,20.4,4.8,28,6.5,7.6,1.8,27.8,6.6,45,10.7,17.2,4.1,31.6,7.5,32,7.3,1.6-.4,16.1,4.3,16.7,5.4.5,1-.3,6.1-2.2,13.1-1,3.7,1,3.8,6.6.1,3.1-2,5.1-2.7,5.5-2,.7,1.3-.6,18.6-2.5,32.5-.6,4.8-1.4,12.4-1.7,16.8-.3,4.4-1.4,15.1-2.3,23.7-1,8.7-2.7,25.1-3.9,36.5-1.2,11.4-2.6,24-3.1,28.1-.5,4-1.5,13.1-2.2,20.2-.7,7.1-1.8,16.6-2.4,21.2-.6,4.6-1.3,10.5-1.7,13.2-.8,7-2.8,13.3-4.5,14.2-.8.4-2.4.5-3.5.2-2.5-.8-9.4,1.3-10.3,3.1-.6,1.1.3,1.8,4.3,3.4,2.8,1.1,5.4,2.6,5.8,3.3.4.7,0,4.1-.7,7.6-.8,3.5-1.1,6.6-.8,7,.4.4,3.4-1.3,6.7-3.8,3.3-2.5,6.3-4.6,6.5-4.8,1.6-.9,31.9,20.3,31.4,21.9-.1.4-1.4.9-2.9,1.1-1.4.2-2.9,1.1-3.2,2-.5,1.6.1,2.1,7.5,5.9,3.5,1.8,3.9,3.4,2.1,9.3-1.4,4.7-1.4,7.7.2,8.2.7.2,3.9-1.8,6.9-4.5l5.6-4.9,7.3,2.7c4.1,1.5,7.8,2.6,8.3,2.5h0c2.2-.6,1.5-3-2.4-7.6-2.2-2.7-4-5.4-3.8-5.8.1-.5,3-2.4,6.3-4.4,5.5-3.2,7.4-5.7,5-6.4-.5-.2-3.4,0-6.4.5-9.1,1.2-8.8,1.3-11.6-4.4-1.4-2.9-2.9-6.1-3.2-7.2-.9-2.6-4.4-2.9-5-.5-.2,1-.8,4.2-1.3,7-.7,4.9-.9,5.1-2.9,4.5-3.6-1.1-23.7-16.3-27.9-21-1.4-1.5-2.3-3.2-2.2-3.7.2-.5,2.3-2.3,4.7-3.9,3.9-2.6,4.4-3.2,3.8-5-.6-1.7-1.1-2-3.2-1.6-6.3,1.2-8.2.6-10.2-3.4-1-2.1-1.8-5.4-1.8-7.4.3-9.3,1.7-26.5,3.9-47.2,4.8-46,10.1-93.9,11.3-103,.7-5.1,2-17,3-26.5,1-9.5,2.1-18,2.6-19.1.6-1.4,1.6-1.7,3.7-1.1,6.3,1.8,7.1,1.8,6.9,0,0-1.8-.9-3.3-4.3-8.4-2.5-3.6-1.2-5.3,6-7.9,6-2.2,6.3-2.5,5.6-5.1-.4-1.4-.9-1.6-4.1-1.1-2,.3-5.7.2-8.3-.2-4.6-.7-4.6-.7-7.3-6.3-1.5-3.1-3.3-5.6-4-5.6-.8,0-2.3,2.1-3.6,5.2-1.2,2.8-2.5,5.3-2.8,5.5-.4.2-3-1.6-5.8-4-4.8-4-9.6-8.3-32.9-29.9-5.2-4.8-11.3-10.4-13.5-12.3-4.1-3.6-54.5-51-66.7-62.6-3.7-3.5-6.6-6.9-6.7-7.5,0-.6,1.5-2.1,3.3-3.3,2.7-1.7,3.2-2.5,2.9-4.3-.4-2.1-2.2-2.6-5.1-1.6-.6.2-3.4,0-6.1-.4-4.8-.8-5-.9-7.6-6ZM777.4,718.2h0c.4-.2,1.2,0,1.8.4.9.6.8.8-.3,1.1-1.5.4-2.7-.8-1.4-1.5ZM786.1,715c-.4,1.8,1.7,5.1,3.3,5,.8,0,1.4,0,1.3,0-1.7,2.5-3.8,3.7-5,2.9-.8-.5-1.9-.5-2.4,0-.5.5-.4,0,.2-1,.5-1.1.7-2.2.3-2.5-.4-.3,0-1.6,1-3.1.9-1.4,1.6-2,1.4-1.4ZM844.5,707.7c1.4,3.3,1.4,3.6-1.3,5.7l-2.2,1.7-1.5-2.7c-1.1-1.9-2.2-2.7-3.8-2.7-1.5,0-2-.3-1.3-.8.5-.5,1.4-.7,2-.5.6.2,2.4-.5,4-1.6l2.9-1.9,1.2,2.8ZM847.3,557.2c2.1,4.8,3.5,5.7,6.9,4.4,1.2-.5,2.6-.7,3-.6,1.4.4.3,1.6-5.8,6.4-3.3,2.6-7.4,5.9-9,7.2-3.5,3-4.3,2-3-3.7.9-3.9.7-4.4-1.8-5.9-3-1.9-3.2-3.6-.4-3.6,3.5,0,5-.6,5.7-2.3,2.5-6.9,2.2-6.7,4.4-1.9ZM1150.1,718.8l.6-3.7,1.9,4.1c1,2.3,1.8,4.5,1.6,5-.1.5,1.3,1.1,3.2,1.3,3.8.5,4,1.1,1.1,3.2-1,.8-2,1.7-2.1,2-.1.3.9,1.9,2.2,3.5l2.4,2.9-3.7-1.3c-2-.7-4.2-1.4-4.8-1.5-.6-.1-2.6,1.4-4.4,3.5-1.8,2.1-3.4,3.4-3.6,3-.2-.4,0-3,.5-5.9.8-4.7.7-5.3-1.8-7.1-3-2.1-2.4-3.2,1.1-2.1,2.7.8,5.1-1.9,5.9-7ZM1105.6,684.6c1,2.3,2.5,4.6,3.2,5,1.1.7,1,1.1-.7,3-1.1,1.2-2.6,2-3.4,1.8-.7-.2-2.5,1-4,2.8-2.8,3.4-4.9,3-3-.5,1.4-2.6.5-5.1-2.3-6.4-3.4-1.6-2.6-3.5,1.3-3,3.2.4,3.7,0,5.3-3.2l1.8-3.6,1.9,4.2ZM805.1,395c.8.6,2,2.2,2.7,3.5,1.3,2.3,1.3,2.3-3.7.1-5.2-2.3-8.5-1.9-9.4,1.1-.2.7-1.2,1.5-2.1,1.9-1.5.6-1.6.2-.5-3.4,1.6-5.3.5-7.3-6.3-10.8-2.8-1.5-5.3-3-5.5-3.3-.7-1.3,2.3-1.9,8.7-1.5l6.7.4,3.6-11.3,1.4,3c.7,1.7,1.9,4.5,2.5,6.4,1.1,3.2,1.3,3.4,4.6,3.2,4.7-.3,5.1,1.4.8,3.6-4,2-5.7,5.6-3.5,7.3ZM1121.8,451.7c.5-.1,1.8,1.4,2.8,3.4,1.3,2.7,2.4,3.7,4.1,3.8,2.8.1,2.6,1-.7,2.9-2.9,1.7-3.3,4.4-.8,5.3.9.3,2.4,1.7,3.4,3.1,1.6,2.4,1.6,2.5-.2,2.1-1-.2-2.7-.7-3.7-1.1-1.9-.7-7.7,1.6-10.6,4.3-1.5,1.4-1.6,1.3-1.9-1.7-.1-1.7.4-4.2,1.1-5.6,1-1.9.9-3.1-.4-5.4l-1.7-3,2.7-.2c2.3-.2,2.9-.7,3.9-3.9.6-2,1.6-3.8,2.1-3.9ZM992.5,346.2c2.8,2.6,8.5,7.8,12.6,11.6,4.2,3.8,12.9,11.9,19.4,18.1,6.5,6.1,13.9,12.7,16.3,14.7,2.5,1.9,10.6,9.2,17.9,16.2,7.4,7,15.4,14.4,17.8,16.5,2.4,2.1,6.2,5.5,8.4,7.4,2.2,2,8.6,8.2,14.3,13.9,5.7,5.7,10.2,10.7,10.1,11-.3,1-9.7,2-13.2,1.5-1.6-.3-10.6-2.3-20-4.6-9.4-2.3-18.3-4.4-19.9-4.7-2.7-.5-31.1-7.1-59.4-13.7-7-1.7-18.1-4.4-24.6-6-12.1-3.1-13.5-3.4-30-6.7-12.4-2.5-18.8-3.9-30.9-6.9-5.5-1.3-16.2-3.7-23.8-5.3-7.6-1.6-24.6-5.4-37.6-8.5-13-3.2-26.4-6.4-29.7-7.1-4.5-1.1-6-1.8-6.1-2.9,0-1.6,6.7-7.2,12.2-10.1,3.8-2,36.6-15.1,51.9-20.6,19.5-7.1,45.6-17,53.2-20.2,4.3-1.8,10.4-4.2,13.7-5.3,5.9-2,6-2,10.8.6,2.7,1.4,5.1,3.2,5.3,4,.6,2.3-1.1,6.5-5.4,13.7-4.9,8.1-5,8.3-3.2,8.8.8.2,2.8-1,4.4-2.8,1.7-1.7,5.7-4.6,8.9-6.4l5.8-3.2,4.9,2.1c2.7,1.1,6,2.8,7.3,3.8,1.3.9,3,1.8,3.6,2,1.9.6,2.3-3.4.5-5.2-2.5-2.5-5-8.6-4.4-10.7.4-1.3,3.9.9,8.6,5.2ZM977.6,328.7c.8,2,1.4,2.3,4.6,2.3,4.5,0,4.5,1.5,0,3.8-4.4,2.2-4.9,5.1-1.4,9.4,1.6,2,2.9,3.7,2.9,3.8-.3,1-2.5.6-6.9-1.2-5.2-2.2-5.3-2.2-9.6.3-2.6,1.5-4.2,2-4,1.2,2.9-11.8,2.6-13.3-2.8-15.2-10-3.4-8.6-8.1,1.7-5.7,4.3,1,6,0,7.2-4.8.5-2.1,1.3-3.6,1.6-3.5.9.3,5.6,7,6.7,9.6Z"/>
</svg>