<?xml version="1.0" encoding="UTF-8"?>
<svg id="Layer_1" xmlns="http://www.w3.org/2000/svg" version="1.1" viewBox="0 0 1920 1080">
  <!-- Generator: Adobe Illustrator 30.3.0, SVG Export Plug-In . SVG Version: 2.1.3 Build 182)  -->
  <defs>
    <style>
      .st0 {
        fill: #dbb57f;
      }

      .st1 {
        fill: #ff7f00;
      }
    </style>
  </defs>
  <g>
    <path class="st0" d="M1399.7,482.6c-.5.6-1.3,1.1-1.8,1.1-1.8,0-2.7-2.2-1.3-3,1.6-1,4,.5,3,1.9h0Z"/>
    <path class="st0" d="M1116.7,238.1c-8.8-6.7-11.2-10.1-11.2-15.4s3.2-4,4.5-.3c.5,1.6,2.1,4,3.7,5.4s3,3,3.2,3.7c.3.6,2.6,2.7,5.3,4.6,3.4,2.6,5.6,3.4,7.7,2.7,3.7-1,5,1,2.4,3.5-3.2,3.2-6.6,2.2-15.5-4.6v.3Z"/>
    <path class="st0" d="M1064.5,141.8c-6.7,3.5-7.4,3.7-8.3,2.1-1.4-2.4.8-4.6,6.6-6.7,7.2-2.6,7.7-2.6,7.7-.3s-2.7,3.2-5.9,5h0Z"/>
    <path class="st0" d="M1101.6,216.7c0-1,.8-1.9,1.9-1.9,1.9,0,2.4,1.4,1,2.9s-2.9,1-2.9-1h0Z"/>
    <path class="st0" d="M1039.4,210.5c0-5.1,2.4-10.9,4.3-10.2,1.4.5,1.3,4.3-.6,10.6-1.8,5.3-3.5,5.1-3.5-.2l-.2-.2Z"/>
    <path class="st0" d="M1093,159.9c-.5,0-2.7-1.6-5.1-3.7s-5-3.7-5.9-3.7-1.6-.6-1.6-1.3-1.8-1.9-3.8-2.6c-2.1-.8-3.7-1.6-3.4-1.8.8-.8,10.4,2.6,14.9,5.3,5.8,3.5,8,3.7,9.8,0,1-1.9,1.8-2.2,2.1-1.1.3,1-1,3.4-2.9,5.3-1.9,2.1-3.8,3.7-4.2,3.7l.2-.2Z"/>
    <path class="st0" d="M765,852.2c-1.3,0-2.2-1.6-2.7-4.6-.5-2.6-1-6.6-1.3-8.8-.6-4.3,1.1-5.4,3-1.9.6,1.1,1.6,5.1,2.1,8.6.8,5.4.6,6.6-1,6.6l-.2.2Z"/>
    <path class="st0" d="M1407.1,909.3c-.5,1.8-1.3,4-2.1,5-2.1,2.6-3.7-.3-2.7-5.1,1-5.1,7.5-14.6,10.1-14.6s3,3.4-.8,7.4c-2.1,2.2-4.2,5.6-4.6,7.4h.2Z"/>
    <path class="st0" d="M1033,319.9c-2.4-.8-3.2-4.3-1-4.3,3.7,0,12.8,7,11.7,9-1.1,1.8-3.7,1.1-6.1-1.4-1.3-1.3-3.4-2.7-4.6-3.2Z"/>
    <path class="st0" d="M1028.2,325.2c-3.7-2.6-1.9-5.8,2.1-3.5,4.6,2.6,10.7,9.9,9.9,12-.6,1.8-1.4,1.3-4.8-2.2-2.2-2.2-5.4-5.1-7-6.2h-.2Z"/>
    <path class="st0" d="M1019.2,327.1c11.8,8.6,20.2,15.4,20.2,16.2s-.5,1-1,1c-1.9,0-13.1-8.2-19.2-14.1-3-2.9-3-5.3,0-3.2v.2Z"/>
    <path class="st0" d="M1071.1,234.3c-.8,5,4.3,21.6,7.5,25.1,2.4,2.6,5,.5,2.7-2.1-2.2-2.6-5-19.8-3.8-24.3,1.6-6.1,2.9-3.2,3.7,8.6.8,10.6,2.7,16.2,4,12,.6-1.8,3.5-1.9,4.6-.3.5.6-.5,3.5-1.8,6.2-1.4,2.7-3.4,7.7-4.5,10.9-1.1,3.4-2.2,6.7-2.4,7.5-.6,1.8-1.8,1.9-4,.5-1.1-.6-1.6-4.2-1.8-10.2,0-7.8-.8-10.6-4.3-18.1-4.5-9.4-5-12-3-17.1,1.9-5,3.8-4,3,1.4v-.2Z"/>
    <path class="st0" d="M1048,551.6c1.8.5,3.5-.2,5.9-2.4,1.9-1.8,7.5-5.4,12.5-8.2,8.6-4.8,9.1-5.3,10.9-11.5,2.1-7.2,6.2-14.6,8-14.6s1.3-1.3,1.6-2.7c.5-2.7,6.4-6.1,8-4.5.5.5-.5,2.9-1.8,5.6-4.3,8-10.4,23.2-11.2,27.8-.6,4-1.1,4.3-4.6,4-2.9-.2-4,.3-4.5,2.2-.6,2.6-4.2,4.3-13.3,6.9-4.8,1.3-6.1,2.4-8.6,7.2-1.8,3.2-3.7,6.1-4.6,6.2-1,.5-1-.5.3-2.7,2.1-4,2.2-6.4.3-6.4s-9.6,6.1-10.4,8.8c-1,3.2-3.5,2.6-4.2-1.1-.8-5.8,10.7-16.2,15.8-14.6l-.2-.2Z"/>
    <path class="st0" d="M738.3,880.9c1.3,0,1.4,6.7.2,7.8-1.1,1.1-1.6,1.1-3.8-1.1s-1.8-2.1.3-4.3c1.3-1.3,2.7-2.4,3.2-2.4h.2Z"/>
    <path class="st0" d="M1130.9,679.3c2.4,0,3.4,4.5,1.9,9-1.8,5.3-2.1,9.6-.8,13.1.8,2.4.6,2.9-1.3,2.6-3.7-.6-4.8-6.7-3-16.2,1-5.3,2.2-8.5,3.2-8.5h0Z"/>
    <path class="st0" d="M903.7,515.4c.6.5,1.1,2.9,1,5.3,0,2.6.2,6.4.8,8.6.6,3.2.5,4-1.1,4s-2.6-1.9-3.7-9.9c-.6-4.8,1.1-9.3,2.9-8h.2Z"/>
    <path class="st0" d="M809.3,590.9c-3.2-2.7-7.5-5.6-9.6-6.4-2.7-1-3.2-1.8-2.2-2.7,1-1,2.6-.6,6.1,1.8,5.4,3.7,11.5,9.6,11.5,11.2s-2.7-1.1-5.9-3.8h.2Z"/>
    <path class="st0" d="M942.9,529.2c-1.1,2.7-2.6,4.3-3.5,4.2-2.1-.6-1.3-5.9,1.3-8.8,3-3.5,4.5-.6,2.2,4.6Z"/>
    <path class="st0" d="M894.9,521.2c-1.8,3.4-3.2,3-4.2-1-.5-2.2-.2-4,1-5.1,3.5-3.5,5.9,1,3.2,6.1Z"/>
    <path class="st0" d="M1132,442.3c2.4.3,4.5,1,4.5,1.6,0,1.3-7.8,1.6-9.1.3-1.6-1.6.3-2.4,4.6-1.9h0Z"/>
    <path class="st0" d="M806.6,654.3c6.4,6.2,12,11.2,12.3,11.2,1,0,11.2,9.6,11.2,10.4,0,2.2-5.1.2-8.6-3.5-2.4-2.4-5-4.3-5.8-4.3s-2.4-1.4-3.5-3.2c-3.7-5.8-11-13.3-15.8-16.3-2.6-1.6-4.6-3.5-4.6-4.2,0-3.2,4.3-.3,15,9.9h-.2Z"/>
    <path class="st0" d="M1121.5,680.4c1.8,0,2.6,5.1,1.3,8.2-1,2.7-5,4.3-5,2.1s2.7-10.2,3.7-10.2h0Z"/>
    <path class="st0" d="M1112.2,420.2c1.4-2.2,3-1.1,4.8,3,1.4,3.5,2.6,4.3,5.9,4.6,3.2.3,4.2,1,4,2.9,0,1.3.6,3,1.9,4,1.9,1.4,1.9,1.6,0,2.4-1.1.5-1.9,1.3-1.4,1.9,1.4,2.4-3,1-6.1-1.9-3.8-3.5-10.1-15.4-9-17h-.2Z"/>
    <path class="st0" d="M1109.9,680.7c3.2,3,3.8,6.7,1.3,7.7-.8.3-1.8.6-1.9.6-.3,0-5.3-9.6-5.3-10.4,0-1.6,3.2-.5,5.8,2.1h.2Z"/>
    <path class="st0" d="M835.5,522.1c.5-1.8-.2-2.9-2.4-3.7-3.4-1.3-4-2.4-1.3-2.4s2.9,1.1,4.5,2.4,5.8,3.4,9.4,4.3c6.6,1.9,13.1,7.5,13.1,11.4s-1.8,2.2-5.8-1.1c-4.2-3.5-9.8-6.4-14.6-7.5-2.7-.6-3.4-1.4-2.9-3.4h-.2Z"/>
    <path class="st0" d="M833.1,532.1c6.2,0,9.4,1.3,9.4,4.2s-.6,2.4-2.2,1.9c-1.3-.3-4.8-1-8.2-1.4-8.3-1.1-7.7-4.6,1-4.6h0Z"/>
    <path class="st0" d="M800.8,666.1c3.7,3,7.5,5.6,8.8,5.6,2.7,0,10.6,7.2,10.6,9.8s-.3,1.6-1.4.3c-.8-.8-2.6-1.4-3.8-1.4-2.6,0-21.3-15.7-21.9-18.2-.6-2.7,1-1.9,7.8,4h0Z"/>
    <path class="st0" d="M849.5,520.4c-4.6-2.7-10.9-10.6-8.3-10.6s3.7,1.8,6.9,3.8c3.2,2.1,6.7,3.7,8,3.4,1.8-.3,1.3-1.3-2.7-5.1-2.7-2.6-6.2-5.3-7.8-5.8-2.6-1.1-4-6.2-1.8-6.2s17.4,14.9,18.2,17.6c.5,1.4,0,3.4-.8,4.3-1.1,1.4-1.1,2.2,0,3.4.8.8,1.4,1.9,1.4,2.4,0,1.9-3.4,1-5.8-1.6-1.3-1.4-4.6-4-7.4-5.6h0Z"/>
    <path class="st0" d="M812.8,643.1c2.2,0,11,8.5,11,10.7s-.3,1.8-.8,2.2c-1.1,1.1-1.3,1.1-5.8-1.9-9-6.2-25.6-23.8-24-25.4s2.6,1,4.8,3c8.2,7.8,12.8,11.4,14.9,11.4h-.2Z"/>
    <path class="st0" d="M809.5,617.7c-3.2-3.7-6.9-7.2-8.2-7.5-2.4-.8-3.2-4.3-1-4.3s18.7,15,18.7,16.8c0,3.7-3.7,1.6-9.4-5h-.2Z"/>
    <path class="st0" d="M824.3,645.7c-1.4,0-11-9.1-13.1-12.3-1.1-1.8-5.8-6.9-10.2-11.2-8.2-8-9.6-9.9-6.9-9.9s31,29.9,31,32-.3,1.8-.8,1.8v-.3Z"/>
    <path class="st0" d="M812,608.2c-1.9-2.7-5.8-6.6-8.5-8.5-6.7-4.6-7.7-7.5-1.3-4.2,7.2,3.7,16.8,13.1,15.8,15.7-1.1,3-2.4,2.6-6.1-3h0Z"/>
    <path class="st0" d="M481.5,613.5c-8.6-11.4-17-30.4-18.1-41.4-.8-8.5,3.5-19.4,9.6-23.2,4.6-3,8.6-3.5,8.8-1.1,0,.6-1.6,2.1-3.5,3.2-4.2,2.2-9.9,12.2-11,18.6-1,5.9,8,31.8,11.8,34.2,1.4,1,1.6,1.3-1.4-8-1.4-4.5-2.9-12-3.2-16.8-.6-7.5-.3-9.4,1.9-12.8,2.6-4,6.4-5.4,6.2-2.6,0,.8-1.1,3-2.4,4.6-4.2,5.4-2.9,21,3,37.3,1.9,5.4,11.4,25.6,15,32.6,1,1.8,1.8,5,1.8,7.2s-.6,3.8-1.6,3.8-1.4-1.3-1.1-4.3c.5-3.5-.6-6.1-5.3-13.6-3.2-5.1-5.8-9.8-5.8-10.2s-2.2-4-5-7.7l.2.2Z"/>
    <path class="st0" d="M713.6,728.1l-3.7-.5c-2.2-.3-4.2-1.4-5.1-3.2-.8-1.4-3.4-4.6-5.9-6.9-4.5-4.2-5.9-7.2-3.2-7.2s8.5,6.9,15.4,14.9l2.4,2.9h.2Z"/>
    <path class="st0" d="M483.1,630.8c6.9,9.3,8.5,12,8.3,15.8v4.6l-3.4-7.5c-3.5-7.7-5.9-11.5-11.8-18.4-1.9-2.2-3.4-4.5-3.4-5,0-2.6,2.6,0,10.2,10.4h0Z"/>
    <path class="st0" d="M696.2,488.9c1.9-.3,2.1,0,1.4,3-.5,1.9-2.2,4.5-3.8,5.8s-3.5,4.5-4,7l-1,4.6-.5-4.2c-.5-5.1,4.5-15.5,7.8-16.2v-.2Z"/>
    <path class="st0" d="M755.1,477.7c5.8-2.9,8.6-3.7,9.6-2.7,1.9,1.9-.3,3.7-8.6,6.2-8.6,2.7-9.3,2.9-9.3,1.6s3.7-2.7,8.3-5.1h0Z"/>
    <path class="st0" d="M449.6,539.3c-2.6,5.9-3,28.5-.8,32.2,1.1,2.1,1.6,2.1,2.1.6.3-1,1.6-4.8,2.6-8.3,1.9-6.4,5.8-11.2,7.4-9.6s1,4.5-1,6.6c-3,3.4-5.6,18.1-4.2,23.5s5.8,13.8,10.9,21.4c2.1,3,3.8,6.6,3.8,7.8,0,3.4-2.4,2.6-4-1.3-.8-1.9-3.8-7.5-6.9-12.5-2.9-5-5.3-9.4-5.3-9.9s-.8-1.8-1.8-2.7c-1-1.1-3.4-6.4-5.3-11.8-3-8.5-3.5-11.8-3.5-22.4s.5-13.4,2.7-17.8c4.6-9,7.2-5.4,3.2,4.2h0Z"/>
    <path class="st0" d="M708.2,713.8c0-5.1,2.4-3.4,12.3,9.3,1.6,1.9,1.4,2.2-1,2.2s-11.4-8.3-11.4-11.5h0Z"/>
    <path class="st0" d="M713.1,479.4c1.9,1.3,1.4,2.6-3.8,8.8-2.7,3.4-5,6.9-5,7.8s-.3,1.4-.8,1c-.5-.5-.3-2.9,0-5.6.8-5,7.4-13.4,9.4-12.2l.2.2Z"/>
    <path class="st0" d="M721.8,481.8c0-.6,1.8-2.9,4-5.1,3.2-3.2,4.3-3.8,6.2-2.9s3.5.6,6.6-.6c2.4-1,6.4-1.9,9.1-2.2,4-.3,4.8,0,4.8,1.9s-1.8,2.9-7.5,4.5c-4.2,1.1-8.6,2.7-10.2,3.5-1.4.8-3.8,1.4-5.1,1.4-3.2,0-10.1,5.8-10.2,8.5,0,1.1-.5.8-.6-.8-.3-1.6.3-3.8,1.4-5.1,1.1-1.1,1.9-2.7,1.9-3.2l-.3.2Z"/>
    <path class="st0" d="M657.1,494.9c3.2,0,2.1,4.2-2.6,10.6-5.1,7-10.1,9.3-10.1,4.8s10.6-15.2,12.6-15.2v-.2Z"/>
    <path class="st0" d="M389.8,498.6c-10.1,21.9-9.4,47.8,1.8,67.2,4.8,8.5,15.8,21.6,22.9,27.7,25.6,21.6,37.3,33,44.2,43.2,10.9,16.5,10.4,27.8-1.8,39.5-3.7,3.7-7.5,6.6-8.3,6.6s-2.4.8-3.7,1.6c-1.9,1.4-2.1,2.1-.8,4.5,1.4,2.7,2.1,2.9,11.2,2.2,10.2-.6,16.8-3.2,22.7-9,1.9-1.8,4-3.2,4.8-3.2,1.6,0,14.7-9.4,16.2-11.5.5-.6,1.4-.8,2.1-.3.8.5,2.7,0,4.5-1.3,2.1-1.4,3.7-1.8,4.6-.8,2.7,2.2,8.8-.6,12.2-5.6,8.2-12.2,9.9-16,10.7-23.4,1-9.4-.8-14.1-8.3-21.9-5.3-5.6-13.1-16.8-17.6-25.4-3.5-6.6-4-12.5-1.6-18.6,1.8-4.3,3.4-6.1,8.6-9,8.6-4.6,15.5-5.4,36.6-4.2,11.7.8,21.8.6,29.9-.2,6.7-.8,20-1.8,29.6-2.4s19.8-1.6,22.7-2.2,5.4-.8,5.8-.5c.8,1.4,2.6,15.7,2.2,18.2-.5,3.5,3.4,23,5.3,27.5,1,2.1,1.9,5.1,2.2,6.9,1.1,5.3,6.6,20.3,9.3,25.6,1.4,2.7,4.5,7.2,7,9.9,2.4,2.7,4.5,5.3,4.5,5.6s-2.9,2.2-6.6,4.3c-3.5,2.1-11,8.3-16.5,14.1-9.4,9.9-10.4,10.6-16.6,11.5-8.3,1.3-17.4,7-22.1,13.9-1.9,2.9-5.4,7.5-7.7,10.4-2.2,2.9-4,6.2-4,7.7s3.2,6.1,7,10.2l7,7.7-1.6,8.6c-1.6,8.3-1.4,9,1.8,17.9,3.7,10.2,8.6,16.6,19.2,25.3,3.8,3.2,9.6,8,12.6,10.9s7.4,6.7,9.8,8.5c2.2,1.9,5.9,5.8,8,8.6,2.1,3,4.3,5.6,4.8,6.1,2.7,1.8,7.5,16.5,9.9,30.1,1.4,8.3,2.9,15.5,3.2,15.8s2.4.5,4.8.2c4-.3,4.2-.2,6.1,6.2,1,3.7,2.2,8.5,2.7,10.7.6,2.7,1.6,4,3,4,3.2,0,4.8,2.4,5.3,8.2.5,5.1.3,5.1,7.7,5.4,1.8,0,2.1.6,1.4,2.9-.5,1.6-1.3,6.2-1.8,10.2-.8,6.4-.5,8.3,1.9,13.3,1.6,3.2,6.6,9.3,10.9,13.8,6.6,6.4,10.4,9,20.3,13.4,6.7,3,14.6,5.9,17.3,6.4s5.9,1.3,6.9,1.8c1.1.5,2.2.3,2.7,0,.5-.5,3.8-1.4,7.4-2.2l6.6-1.4.3-5.9c.5-6.6-2.2-19-5.9-27.2-1.3-2.9-5-8.8-8.3-13.1-9.1-12-10.4-14.2-10.4-17.9s.3-3.4.6-3.4,4,2.6,8.2,5.8c8.5,6.4,24.6,12.2,40.3,14.2,7.5,1,9.6.8,16.6-1.4,6.1-2.1,8.6-3.7,10.2-6.4,2.2-3.7,2.2-3.8-.3-8.3-9.9-17.1-27.2-33.4-47.2-44.3-7.2-3.8-8-4.8-9.9-10.9-1.3-3.7-2.2-6.7-2.2-6.9,0-.6-18.7-12.5-24.2-15.4-15-7.8-33.1-19-35.2-22.1-1.3-1.8-3.2-4.2-4.3-5.4-3.4-3.5-13.4-19-13.4-20.6s2.7-2.4,5.9-3.4c7.7-2.6,25.1-5.9,26.2-5.3.5.3,4.8,0,9.6-.6s15.4-1.9,23.7-3c30.4-3.7,38.6-6.4,56-18.7,5.4-3.8,14.1-9.8,19.4-13.1,5.1-3.4,10.4-7.8,11.8-9.9,3.5-5.1,4.5-5.3,10.7-1.1,3,1.9,6.2,3.7,7,3.7,2.4,0,24,8.6,28.3,11.2,2.1,1.3,8.2,3.5,13.8,5,5.4,1.4,10.2,3,10.6,3.5,1,1.3,17.3,7.4,29.3,10.7,6.1,1.8,12.3,3.7,13.8,4.3,1.3.6,4.5,1.4,6.9,1.8,2.4.3,9.6,1.9,16.2,3.4,6.6,1.4,15.2,2.9,19.4,3,4.2.2,10.2,1,13.6,1.6,3.4.8,17.6,1.4,31.4,1.4,20,0,28-.3,39.2-2.2,7.7-1.3,19-3.2,25.3-4,6.1-.8,16-3,21.8-5.1,5.8-1.9,11.5-3.5,12.8-3.5,2.4,0,8.3,5.9,8.3,8.5s9.9,9,13.4,9,6.6-1,10.7-2.1c5-1.3,9.9-1.8,13.9-1.3,13.4,1.6,24,3.2,29.9,4.5,14.2,3,40.2.5,66.6-6.9,7.4-2.1,21.1-3.8,21.1-2.7s-1.3,3.4-2.7,6.7c-2.6,5.4-2.7,8-2.7,27.8s.2,22.2,2.7,27.7c1.6,3.2,3.2,6.1,3.8,6.6.6.3,5-.5,9.6-1.9,11.7-3.5,20-11.4,24.8-23.8,2.7-7,5.1-10.4,11.4-16.6,4.5-4.5,7.8-8.8,7.8-10.2s.5-2.7,1.1-3.2c2.6-1.6,14.1,14.9,19,27.5,3.5,8.6,3.7,10.1,2.7,17.6-1.3,10.7-.8,15,2.1,17.4,1.8,1.4,2.4,3.7,2.6,8.2,0,3.4,1,7.2,1.9,8.3,1.1,1.3,1.6,4.2,1.3,7.5-.3,4.8,0,5.4,2.4,5.8,1.6.2,4.2-.5,5.9-1.6,4.5-2.9,6.9-2.6,6.9,1.3s-3.5,7.2-15.5,17.3c-5.4,4.6-9,16-6.7,21.6.8,1.9,2.1,7.5,3,12.6s3.4,12.6,5.6,16.8c5.9,11.5,18.1,25.6,22.4,25.6s4.8-2.7,7.8-6.1c5.4-5.9,8.3-12.3,8.3-18.7s4.2-12.3,9.3-18.4c5.4-6.4,7.2-13.4,5.6-23.8-1.3-9.4-.8-11.5,6.9-26.1l5.9-11.4-1.8-7c-1.8-7.4-5-12.8-23-39.2-14.1-20.5-17.3-26.1-29.3-49.3-6.2-12.3-10.6-22.4-12.3-29.1-3.5-13.8-6.1-17.4-17.6-25.1l-9.9-6.6.6-6.9c.3-3.8,2.1-11.2,3.7-16.3,3.4-10.9,4-23.4,1.6-29.3-1-2.1-7.4-9.3-14.2-15.8l-12.6-12h-10.4c-11.5-.5-17.3,1.1-30.1,8-4.3,2.2-12.5,5.8-18.2,7.7-9.3,3-12.6,3.5-27.4,3.8-9.3,0-20.2.6-24.2,1.1-6.7.8-7.2.6-6.4-1.4.5-1.3,1.1-12.8,1.3-25.6.3-20,0-24.8-2.1-32.8-1.3-5.1-2.7-13.1-3.2-17.8-.5-4.6-1.6-9.3-2.6-10.4-1.6-1.8-1.6-2.6,0-5.6,3.2-6.2,3.5-13.6,1.3-22.9-1.9-8.3-1.9-8.8,0-11.2,3.8-4.3,4.5-12,1.8-23-3.7-15-11.2-38.4-13.1-40.6-2.2-2.6-2.1-4.5.3-5.3,1.1-.5,2.7-2.7,3.7-5.1,1-2.4,2.1-4.3,2.6-4.3.8,0,22.9,22.6,33.6,34.2,10.2,11.2,28.8,29.4,41.1,40.5,2.7,2.4,8.6,8.5,13.1,13.6,4.5,5,9,10.1,10.1,11.2,1.3,1.3,2.4,5.1,3,10.7.5,4.8,2.2,11.5,3.7,15,2.2,5.1,3.7,6.7,7,7.7,8.5,2.6,13.1,2.9,14.7,1,2.1-2.6.6-10.4-3.8-18.9-3.5-6.7-3.5-7.2-1.4-9.4,3.8-4.2,15.4-11.4,30.9-18.9,8.2-4,17.9-9.3,21.4-11.5,8.8-5.8,18.7-16,19.7-20.3.5-1.9,1.4-4,2.1-4.5,1.8-1.1,9.8-18.4,9.8-21.1s1.1-6.6,2.6-11.7c1.4-5.1,3-15.2,3.5-22.4.6-8.8,1.4-13.1,2.6-13.6,1-.3,3.4-2.1,5.4-4,3.5-3.2,3.8-4,4-12.8.2-5.4,1.3-12,2.6-15.2,1.9-5,1.9-6.4.6-9.8-.8-2.1-2.4-6.6-3.4-9.8-1.3-4.3-2.9-6.6-6.2-8.5-4.3-2.7-4.8-5.4-.8-4.6,1.1.3,2.6-.3,3.4-1.1,1-1.3,2.6-1.3,8.2,0,3.8,1,8.3,2.1,10.2,2.4,3,.6,3.2,1,1.9,4.5-1.1,3-1.1,4.2.6,5.8,1.8,1.8,2.6,1.9,5.4.5,2.4-1.1,7.8-1.3,19.7-.8,24.6,1.3,29.4,1.4,36.8,2.4,7.4,1,14.2-.8,13.4-3.4-.3-.8-6.4-3.5-13.4-6.1-7.2-2.6-20-7.8-28.5-12-18.1-8.8-20.6-9.6-21.8-7.8-.5.8-2.4,1.1-4.3.6-1.9-.5-3.8-.2-4.2.5-.6,1.1,4.5,6.2,9,8.8,3.8,2.1.3,3-6.2,1.6-3.7-.8-9.9-1.8-14.1-2.2-4.2-.5-8.8-1.3-10.4-1.9-2.7-1.1-2.9-1.4-2.1-8.6.5-4.2,1.6-9.1,2.6-10.9,1-1.8,1.8-4.2,1.8-5.3s1.8-6.7,3.8-12.5c3.5-9.4,3.8-12,4-25.4,0-16.8-2.2-26.4-9.6-38.6-9.8-16-42.7-39.4-63.4-44.6-13.1-3.4-16.8-7.5-11.8-13,4.3-4.8,7.5-13.9,7-21l-.3-5.9-5.1-.3c-4.2-.3-6.4.5-12.8,4.8-8.8,5.9-12.6,11.8-13,20.5-.2,5.1-.5,5.6-3.4,5.6s-10.1,3.4-18.4,7.5-15.5,7.5-15.7,7.5c-.6,0-15.4,6.9-34.2,15.8-7.8,3.7-17,7.8-20.5,9.3-3.5,1.4-9,3.8-12,5.4s-14.1,6.9-24.3,11.8c-10.2,4.8-24.2,11.5-30.7,14.9l-12.2,6.1-3.4-6.1c-1.9-3.4-3.8-6.1-4.3-6.1s-2.1-1.6-3.5-3.7l-2.6-3.7,4.8-2.2c6.1-2.9,6.9-7.2,2.2-11.5-4.3-4-4-5.8,1.3-7.5,4.3-1.4,4.5-1.6,3.8-6.2-.6-5.3-3-8.8-13.4-20.3-7.4-8.2-9.9-14.2-9.6-24.2,0-5.8-4.3-13.6-9.8-17.1-1.6-1.1-3-2.7-3-3.5s-1.6-2.4-3.4-3.4c-1.9-1-3.5-1.8-3.8-1.9-.2,0,.8-2.4,2.2-5,3.4-6.2,3.2-8.3-.5-12.5-1.8-1.9-3-3.8-3-4.3s-2.4-1.9-5.3-3c-4.3-1.6-7-1.8-15.5-.8-6.1.6-12.6.6-16.2,0-3.8-.6-9.8-.6-16.6.3-12.6,1.6-14.6,2.4-18.7,6.2-3.7,3.5-7.5,5.9-17.3,11.2-8.6,4.6-11,6.7-12.2,10.1-1.4,5-5.6,13-7.7,14.7-6.2,5.3-12.5,21.6-11.2,29.8.6,3.7,0,6.6-1.8,10.6-2.7,6.1-3.2,13.1-1.1,17.3.8,1.4,3.4,5,5.4,7.5,2.4,2.9,4.5,6.9,5,9.9.5,2.9,1.6,6.6,2.4,8.3,7.2,14.6,8.5,17.6,7.8,18.1-.3.3-10.2,1-22.1,1.3-11.8.3-23.8,1.1-26.6,1.8-14.6,3-26.7,6.9-32.8,10.4-3.7,2.2-8.8,5.1-11.4,6.7-2.6,1.4-5.4,2.7-6.4,2.7-3.7.2-22.7,10.6-24.5,13.3-3.8,5.8-1.3,19.4,6.9,36.6,2.6,5.4,9.9,12.3,13.3,12.5,1.4,0,5.1,1.4,8.3,3,9.6,5.1,28.6,13,34.9,14.2,3.2.6,7.4,1.9,9.3,2.6,5.1,1.9,24,1.6,30.1-.6l5.3-1.9,7,13.9c6.1,12,8.2,14.9,14.9,20.8l7.8,6.9v7.8c0,4.3.6,10.4,1.4,13.8,2.9,12.2,5.3,19.7,7.2,22.7,1.1,1.8,4.5,8.2,7.4,14.4s6.6,13.9,8.2,17.1l2.9,5.9-3,3c-1.6,1.6-3,3.8-3,4.8s-2.2,4.5-5,7.8c-6.1,7.4-12.8,22.7-12.2,28.2.3,3.5,0,4-4,4.8-5,1.1-27-1.4-44.2-5.1-12.3-2.6-24.3-4.6-36.8-6.2-4.5-.6-16-2.7-25.4-4.8-9.6-2.1-20.2-4-23.4-4.5-3.4-.5-11.4-2.2-17.9-3.8-6.6-1.6-13.4-3-15.2-3s-5.3-1.8-8.3-4.5c-2.7-2.4-7.2-6.2-10.1-8.3-2.9-2.1-8-6.2-11.5-9.1-3.5-2.9-13.3-8.6-21.8-12.6-13.6-6.7-22.1-9.8-46.1-16.8-10.7-3-36.6-4-48.3-1.6-29.4,6.1-40.6,10.2-56.2,21.1-4.3,3-10.6,7-13.8,8.8-3.2,1.9-12.2,9.4-20,16.6-15.2,14.4-20.3,17.9-35,23.7-28,11-65.1,2.9-109.8-24.2-9.8-5.9-28.6-13.3-41.3-16.3-12.3-2.9-34.9-3-39.8-.2-2.2,1.1-5.3,2.2-6.7,2.2-5.6,0-15,9-19.4,18.7l.3-.3ZM1483.7,329.3l4,1.4c2.2.8,5.4,2.1,7.2,3s4.3,1.6,5.9,1.6,2.7.8,2.7,1.8,1.6,2.1,3.4,2.6c3.7,1,6.6,2.9,6.6,4.3s-20.8,1.6-21.8,0c-.5-.6.3-1.3,1.8-1.3s2.9-.5,3.2-1.1c1-1.6-2.7-5.1-5.6-5.1s-3.5-1.6-5-3.7l-2.6-3.7.2.2ZM1475.5,341c.5-.5,1.4-.5,2.4,0,1,.3.6.6-.8.8-1.3,0-2.1-.3-1.6-.6v-.2ZM525.1,632.2c0-1.1.6-3.5,1.1-5.3.8-2.6,1-2.2,1.1,2.2,0,2.9-.5,5.3-1.1,5.3s-1.1-1-1.1-2.2ZM1060,513.8c2.1-.5,2.1-.2.6,1.6-1.9,2.4-4.3,2.7-3.5.5.3-.8,1.6-1.8,2.9-2.1ZM953.3,340.5c2.7,3,5.1,6.1,5.1,6.6,0,1.3-2.2,1.1-5.1-.3-1.3-.6-2.4-2.4-2.4-3.8s-.6-3.7-1.3-5.3c-.6-1.4,1-.2,3.7,2.9ZM941,327.9c-4-5.6-5.3-10.1-1.9-7.4,2.6,2.1,8.2,12.5,6.9,12.5s-2.9-2.2-5-5.1h0ZM914.1,313.3c.6-.6,6.9,13.3,6.9,15s-5-5.8-6.2-10.4c-.6-2.4-1-4.5-.8-4.8l.2.2ZM951.1,279.6c3.4,3,3.8,4,2.4,5-1.1.8-3.5,0-6.9-1.8-2.7-1.6-5.8-2.6-6.6-2.2-1.9.6-2.1,4.2-.3,4.2,2.9,0,1,2.1-3.7,4-9.3,3.8-5.1,6.9,6.7,4.6,16.2-2.9,31.8-1.3,31.8,3.2s-1.6,2.7-3.4,4.2c-3.8,2.9-1.8,3.5,3.8,1.4,2.7-1,3.2-.8,3.5,1.6.6,4.6,3.8,3,5.9-2.9,2.6-7.2,3.5-8.6,5.9-8.6s1.8.8,1.1,3c-.8,3.4,0,6.9,1.9,6.9s1.4-1.4,1.9-3.4c.8-2.9,1-3,2.4-1.3,2.2,3,4.2,2.6,5-1.3,2.1-9.9,6.2-13,5-3.5-1.4,9.6,3,8.8,5.9-1.1,1.3-4.6,2.4-6.2,4.2-6.2s2.4.5,1,8.5c-1,5,2.7,4.5,5.3-.5l2.1-4,3,6.6c3.5,7.4,7,9.6,11.2,6.9q2.7-1.8,2.6,4.3c0,3.4.3,6.7.6,7.5,1.1,1.8,6.6,1.8,7.5,0,1.3-2.2,2.7-1.3,4.3,2.4,2.1,5,5.3,5.8,10.6,2.6,2.7-1.8,5.3-2.4,6.9-1.9,3.5,1.1,1.1,3.8-4.3,4.8-3.8.8-4.2,1.1-5,6.7-.5,3.2-.2,9.6.5,13.9,1.6,11.4.8,30.7-1.8,36.6-1.1,2.7-3.2,5.6-4.5,6.6s-2.4,3.2-2.4,4.8c0,3,.3,3,5.8,2.6,5.1-.5,7.8-2.2,7.8-4.8s.6-1,1.3-1,1.3,2.2,1.3,5,.5,7.7,1.1,10.9c.6,3.4,1.4,9.8,1.9,14.2,1.1,13.6,5,27.5,9.1,32.3,1,1.1,2.9,4.2,4.2,6.7,1.9,3.7,2.1,5,.8,5.8-1.1.8-1,1.4.8,2.7,1.9,1.4,2.1,2.4,1.1,5.1-1.1,3.4-2.6,4.6-6.9,5.9-1.1.3-3.2,2.7-4.3,5.1-3.2,6.7-5,5.6-4.8-3,0-6.6.3-7.4,2.2-6.7,3,1,7.2-.5,7.2-2.6s-2.7-3.2-8.6-3.2-5-.6-6.1-3.2c-2.1-4.5-1.9-4.6,2.2-2.4,4.6,2.4,7.5,2.4,7.5,0s-3-3.2-6.7-5c-3.7-1.8-7.5-4.2-8.5-5.3-1.4-1.8-1.3-1.9,1.6-1.4,8,1.4,7.8-3.8-.2-6.4-3.4-1.1-5.6-2.7-6.4-4.6q-1.6-4,2.7-4c4.3,0,4.5-3.7-1-5.4-5-1.8-7.4-4.2-8.5-8.5-.8-3.4,1-4.8,2.6-2.2,1.1,1.8,5.9,1.6,5.3-.3-.3-.8-2.6-2.6-5.1-3.7-4.5-2.2-6.7-5.8-2.4-4,4.2,1.8,7.5,2.1,8.3.8,1.4-2.4-1.8-6.2-5.8-7.4-3.2-.8-4-1.8-4.2-4.5,0-2.4-1.8-5-6.6-9-3.5-3.2-6.6-6.2-6.6-6.7s1.8-.8,3.7-.3c5.4,1.1,4.6-.3-3.2-5.3-5.6-3.7-9.3-8-9.3-11.2s2.6-.3,7.7,3.2c5.4,3.7,9.1,4.8,8.3,2.6-.3-.6-5-4.2-10.4-7.8-9-5.9-18.4-16-16.6-17.8.3-.3,3.5,1.9,7.2,5,6.4,5.4,11.4,7.2,11.2,4,0-1.8-18.9-15.8-21.1-15.8s-3.8-2.2-7-5c-6.2-5.4-12.5-7.7-14.2-5-1.6,2.6-1.4,3.2,2.2,5.6,5.3,3.5,10.4,9.1,10.4,11.4s-3.7-1.8-9.3-7.2c-5.8-5.8-9.3-8.5-9.3-7.2s.6,2.4,1.3,2.9c1.1.8,9.4,11.5,11.7,15.2,4,6.9-15.4-10.1-19.8-17.3-1.6-2.6-3.7-4.8-4.3-4.8-2.6,0,.2,6.6,5.3,12.5,2.7,3.2,5,6.2,5,6.9s1.3,2.2,2.7,3.8c1.8,1.9,2.1,2.9,1.1,2.9-3.7,0-25.1-23.5-28.8-31.7-1.6-3.5-4.8-4.5-4.8-1.3s10.2,18.1,16.8,25c5.1,5.4,6.1,8,3,8s-3.8-2.6-7-5.6-6.2-5.6-6.7-5.6c-1.4,0-14.7-17.3-18.7-24.3-2.1-3.7-4.3-6.9-4.8-6.9s-1.3,1.4-1.8,3.2c-1,4-2.1,3.8-5.1-1-2.9-4.6-5.3-5.6-5.8-2.6-.5,2.6,6.2,16.2,12.2,24.5,2.4,3.2,3.8,5.9,3.5,5.9s-3.8-3-7.4-6.9c-6.2-6.6-14.2-20.8-14.2-25.4s-6.1-5.8-7-3.2c-1,2.6-2.9,1-2.9-2.4s-.8-3.2-1.9-3.7c-1-.5-1.9-1.8-1.9-3,0-4.6,9.8-10.7,24.2-15.2,4.3-1.3,8.6-3.2,9.4-4.3,2.4-2.9,5.3-2.2,10.1,1.9h-.2ZM1072,331.7c-.2,0-1-1.1-1.8-2.6-1.6-3,0-4.8,5-4.8s4-.8,5.1-1.9c2.6-2.4,6.1-1.3,5.3,1.8-.5,1.6-9.4,6.6-13.8,7.7l.2-.2ZM1049.9,274.3c4-7.5,5.8-2.6,2.2,5.9l-2.1,4.8-1-3.7c-.6-2.4-.5-4.8.8-7.2v.2ZM1045,272.1c-1,.8-1.9,2.7-1.9,4.2q0,2.6-1.4-.2c-1-2.1-1-3.7,0-5.9.8-1.8,1.4-4.6,1.4-6.6s1.1-4.8,2.4-6.4l2.4-3,1,3.5c1,4.2-1.1,12.3-3.8,14.6v-.2ZM1039.4,292.9c-1.3,2.9-3.2,3.7-4.3,1.8-.3-.6-1-3.4-1.4-6.2-.8-4.8-.6-5.1,1.9-5.1s5.8,5.6,4,9.6h-.2ZM956.5,270.8c2.4.8,4.5,1.9,4.5,2.6s1.8,3,3.7,5.3c2.1,2.4,3.7,5,3.7,5.8,0,1.8.2,1.8-11.4-6.1-7.2-5-8.3-6.2-6.9-7.5,1.4-1.1,2.9-1.1,6.2,0h.2ZM988.8,274.9c5.6,8.2,3.7,9.8-3,2.6-4.6-5-13.4-11.7-15-11.7-2.6,0-.6,4.2,4,8.3,6.2,5.8,10.2,11.2,9.3,12.8-1,1.6-4.3,1.6-4.3,0s-4.8-5.1-10.6-10.1c-5.8-5-10.2-9.4-9.9-10.1.3-.5,3.4-1.9,6.9-3,10.2-3.4,14.6-1.3,22.9,11l-.2.2ZM1014.4,277.2c0,2.2-2.4.8-8.3-5-3.4-3.4-7.8-7-10.1-8.2-6.4-3.2-6.2,0,0,6.1,5.6,5.3,7,8,4.5,8s-17.6-16.2-16.8-17.4c1.1-1.9,15.5-1.6,15.5.3s1.6,2.2,3.7,2.9c3.4,1.3,11.4,10.6,11.4,13.1l.2.2ZM1007.2,260.1c1-1,11.7,7.5,12.6,10.1,1,2.4,0,2.2-3.2-.6-1.6-1.3-4.5-3.8-6.6-5.6s-3.4-3.5-2.9-4v.2ZM1028.8,265.7c-1.3,2.1-3,1.6-7.4-1.9l-4-3.4,5,.8c5.4.8,7.7,2.4,6.4,4.5h0ZM1042.4,134.3c-1.3,1-3,2.4-3.7,3-1.6,1.6-3.5,1.8-2.6,0,.5-.6,2.6-2.1,4.8-3.2,3.4-1.6,3.7-1.6,1.4,0v.2ZM1118.1,125.5c2.6,2.1,2.7,4.6.6,6.7-2.1,2.1-2.4,1.9-6.9-2.2-2.2-2.1-4-4.6-4-5.4s-1.6-1.9-4-2.1c-4.3-.5-6.1-2.7-2.7-4,2.1-.8,12.6,3.7,17,7.2v-.2ZM1119.7,120.7c-3.4-1.8-6.9-3.2-7.8-3.2s-1.4-.6-1.3-1.6c.6-1.8,6.4-1.4,10.2.6,1.4.8,3.5,1.4,4.8,1.4s2.2.5,2.2,1c0,5.8.2,5.8-8,1.6l-.2.2ZM1168.8,259.6c0,4.5-.6,5.4-5.1,8.8-6.7,4.8-7.7,3.7-1.9-2.2,2.6-2.6,4.6-5.4,4.6-6.2,0-3-3.7-1.3-7.4,3.4-3.5,4.3-4.3,4.8-8.5,4.5-2.6-.2-4.8-.5-5-.5s.6-1.6,1.8-3.2c3-4.6,1.3-5.1-3.4-.6-2.2,2.2-5.3,3.8-7.2,3.8-2.9,0-3,0-1.1-2.2,1.1-1.3,2.1-3,2.1-3.8,0-2.4-3.8-1.1-5.4,1.8-.8,1.4-1.4,2.7-1.6,3-.2.3-1.8-1-3.4-2.7-1.8-1.8-4.2-3.4-5.6-3.4s-2.6-.8-2.6-1.8c0-2.6-2.4-3.7-4.5-1.9-1.4,1.3-1.8,1-1.8-2.2s-.8-5.8-1.9-8.2c-1-2.4-1.9-5.9-1.9-7.7s-1.4-4.6-3.4-6.6c-7-7-10.9-17.1-7.2-18.6,1-.5,1.9-1.6,1.9-2.7s1.1-3,2.6-4.2l2.6-2.1-2.9-5.1c-1.6-2.9-3.5-6.4-4.5-8-.8-1.6-2.7-3.2-4-3.7-3.4-1.1-3-4.2.3-4.6,1.6-.2,3-1.4,3.2-2.7.5-2.1-.2-2.2-5.1-1.8-4.2.5-6.2,0-8.3-1.8q-2.9-2.2-.2-2.2c2.7,0,3.7-3,1.4-4.3-.6-.5-1.3-1.3-1.3-1.9s2.4,0,5.3,1.3c6.2,2.9,8.5,3,8.3,1,0-1.4-8.6-8.3-10.6-8.3s-3.7-1.9-7.2-4.3-6.9-4-7.4-3.7c-2.4,1.4-.8,4.2,4.5,7.5l5.6,3.5h-10.9c-9.1,0-10.9.3-11.2,2.1-.3,1.8.8,2.2,7.4,2.6,7.8.3,10.9,2.6,4.5,3.2-5.1.6-9.8,6.7-8.8,12,.5,2.9,0,5.3-1.3,7.2-2.2,3.2-2.7,7.4-.8,7.4s1.6-.6,1.9-1.3c1.1-1.8,3.4-1.4,6.1.6,2.2,1.6,2.2,1.9-.5,5.4-2.1,2.9-2.6,4.6-1.9,7.7,1,4.2,3.5,4.6,4.2.6.5-3,2.9-8,3.8-8s.8,2.7,1,6.1c.3,11.5,6.9,24.8,11,22.4,1-.5,4.2,5.1,4.3,7.5,0,1,1.1,3.2,2.4,5,4,5.6,5.6,12.5,3.8,14.7-1,1.1-1.6,4.5-1.4,7.7.3,6.7-.6,8.6-2.7,5.8-2.4-3.2-6.4-1.8-5.9,1.9.3,1.8.5,6.6.6,10.9.2,5.3.8,8.2,2.1,9,2.2,1.4.5,3.4-3.7,3.8-2.4.3-3.4,1.6-4.5,5.3-.8,2.6-2.2,5.3-3.5,5.9-2.7,1.6-2.7,0,.3-4.5,1.8-2.7,2.4-5.8,2.4-11.5s-.5-8-1-8.3c-2.4-1.4-4.3,1.9-5.1,8.8-1,7.7-4.2,13.8-9.9,18.7-4.6,4-6.2,1.4-2.2-3.4,3.7-4.3,3.7-4.5,3.4-12.8-.2-4.2.5-7,2.4-10.2,2.2-3.7,2.6-5.6,2.1-11.5-1.1-13.1-4.8-21.1-7.5-16.6-.6,1,1.6,8.3,3.4,11.2,1.6,2.4-.3,11.7-3.4,15.7-2.1,2.9-2.6,5.3-2.4,11.5.2,7.4-1.1,10.2-2.7,6.1-1-2.4-4.3-2.4-7.2.2-2.7,2.6-2.9,1-.3-4,4-7.5,8.2-21.9,8-27.7-.3-13.8-.5-14.6-2.7-15-1.1-.2-2.2-1-2.2-1.4s-.3-1.9-.8-3c-.5-1.1,0-1.9.6-1.9s1.4.8,1.4,1.9c0,2.9,2.1,2.2,3-1.1.8-2.9-1.1-10.2-3.2-12.5-.6-.6-1.1-2.7-1.1-4.6,0-4.6-1.1-7.4-3.2-7.4-3,0-3.2,3.2-.6,8.5,2.7,5.3,2.4,6.6-1.4,6.6s-2.4.6-1.8,5.6c.5,3.5.3,5.4-.5,5-.6-.5-1.3-4.2-1.3-8.3,0-7-.2-7.5-2.7-7-2.6.3-2.9,1.1-3,9.9,0,5.3-.8,10.7-1.6,12-.8,1.4-1.4,4.3-1.4,6.4s-.6,3.8-1.4,3.8-1.1-1.6-.6-4.6c.5-2.6.8-10.9.6-18.4,0-15.8,1-18.9,4.8-14.2l2.6,3v-4.2c0-2.2,1-5.8,1.9-7.7,1-1.9,1.4-3.8.8-4.3-1.4-.8-4.6,2.9-5.8,6.6-.8,2.9-1,2.9-3,.6-1.1-1.3-2.9-4.5-3.7-7-1.4-4.2-1.3-5.1,1-9.1,2.7-4.6,3.4-8,1.6-8s-11.2,7.5-12,9.9c-.8,2.6-2.1,3.2-3.5,1.8-.8-.8,3.4-9.9,5.3-11,.6-.3.8-2.9.5-5.4-.5-4-.2-4.8,2.2-5.9,1.6-.6,3.8-3.2,5-5.4,1.1-2.2,2.9-4.6,4-5.3,1.9-1.1,3-4.8,1.3-4.8s-8,5.3-8,6.6c0,2.2-6.4,10.9-8,10.9s-2.4,1.9-3.5,4.3-2.7,4.3-3.4,4.3c-1.4,0,1.8-6.9,3.7-8.2,2.4-1.4,1.4-4.2-1.3-3.5-2.9.8-3.4-1.1-.6-3.4,1-.8,1.9-2.4,1.9-3.4s2.6-3.5,5.6-5.8c7-5,7.8-8.8,1-4.6-2.6,1.6-5.6,3.5-6.6,4.5-2.6,2.1-3.7,2.1-3.7,0s6.1-7.8,9.6-8.8c3.2-1,4.6-4.2,2.9-6.2-1-1.1-.5-2.1,1.8-3.5,1.8-1.1,3.8-2.1,4.6-2.1s3-1.4,5-3.2c1.9-1.8,4.6-3.8,6.1-4.6,3.5-1.8,3.5-3.5,0-5.4l-2.9-1.4,3-1.3c1.6-.6,5.1-2.1,7.8-3.2,4.2-1.6,4.6-2.2,4-5-.6-2.2,0-3.5,2.4-5,1.9-1.3,3-3.2,3-5.1,0-3.7,1.8-4.2,15.8-4.6,7.8-.3,10.2,0,10.2,1.3s-2.2,1.6-7.7,1.6-7.8.2-13.3,5.6-5.4,5.6-2.2,5.6,5.4-1.1,8-2.6c9.1-5,25.3-2.6,32.8,4.6,4.5,4.5,4.3,6.6-.3,3.7-1.6-1-7-2.1-12-2.6-7.4-.6-9-.3-9,1.1s-1.1,1.8-2.6,1.8c-5,0-2.4,3.5,4.5,6.1,3.8,1.4,7.8,2.7,8.8,2.7,3,0,1.3-4.2-1.8-4.3-3.4-.3-6.9-3.2-4-3,2.2,0,9.6,2.6,13.4,4.8,2.6,1.4,3.7,1.3,8.2-1,2.9-1.4,6.2-3.5,7.7-4.5,2.2-1.6,3-1.4,8,2.9,3.8,3.4,6.4,4.6,8.3,4.2,3-.6,4,1.6,1.3,2.7-.8.3-.5.6,1,.8,3,0,8.6,9.1,7.5,12.2-.6,1.8-1,1.6-2.7-.6-2.1-3-7.7-3.7-12.2-1.3-1.4.8-5,3.7-7.8,6.6-2.9,2.9-6.4,5.3-8,5.3-3.2.3-5.1,2.4-4.2,5,.8,2.1,2.9,2.1,5.9-.3,3.7-2.7,4.8-2.2,4,1.8-.5,2.6,0,4.2,1.4,5.4,5,4.3,17.4,6.7,21,4.2,2.1-1.6,2.1-1.9.3-4-2.2-2.7-2.4-9.3-.2-10.1.8-.3,2.9,2.2,4.5,5.4,1.8,3.4,4.8,8,7,10.4,12,13.3,12.8,17.3,3.7,19-3,.6-6.1,1.6-6.7,2.2-2.1,1.9-3,1.3-4.2-2.9-1.1-4.5-3.5-5.3-5.6-1.9-.8,1.4-1,3.7,0,6.9,1,3.8,1.8,4.8,4.3,4.8s6.2,1.4,6.2,3-2.2,2.7-5,4.6c-5.1,3.7-7.5,7.5-7.5,11.7s1.1,3,7-2.9c11.4-11.5,12.5-12.2,14.9-10.2,2.2,1.6,2.1,1.8-1.1,3.2-1.9.8-3.4,2.2-3.4,3s-.8,1.9-1.8,2.2c-1,.3-2.7,2.2-4,4-2.4,3.7-1,5.8,3.5,4.6,3-.8,9.4,5,11.8,10.6,1,2.2,1.8,6.2,1.8,9l.5-.6ZM1137.5,169.2c-11.4,2.4-11.2,2.4-9.4-.5.8-1.3,3-3.4,5.1-4.5,2.9-1.6,4-1.8,5.4-.6,2.7,2.2,2.2,4.8-1,5.4l-.2.2ZM1077.9,189.2c0,3.7,5.1,6.7,7.7,4.6,1-.6,4-1.3,7-1.4,4.6-.2,5.3,0,3.8,1.8-.8,1-2.6,1.9-4,1.9s-2.6.8-2.9,1.9c-2.1,6.6-1.9,6.4-4.2,3.7-1.1-1.4-5.3-4.3-9.1-6.6-4.3-2.4-7.4-5.1-7.8-6.7-1.4-5.1-.8-8.3,1.8-9.6,2.1-1.1,3.2-.8,6.4,1.8,2.1,1.8,4.3,3.2,5,3.2s1.1.5,1.1,1.3-1.1,1.3-2.6,1.3-2.6.8-2.6,3.2l.3-.3ZM1084.5,213.5c2.6,0,2.7.6,2.7,6.7s-2.1,7.5-4.3-.3c-1.8-6.2-1.6-6.4,1.6-6.4ZM1092,222c.3-.8.6-.2.6,1.6s-.3,2.4-.6,1.6c-.3-.8-.3-2.2,0-3v-.2ZM1095.4,235.9c.8,0,1.3.6,1.3,1.3s-.3,1.3-.5,1.3-1-.6-1.3-1.3c-.5-.6-.2-1.3.5-1.3ZM1097.6,208.2c-.8-.3-1.8-1.8-1.9-3.4q-.3-2.7,1.6-1c2.4,2.4,2.6,5.1.5,4.3h-.2ZM1113.8,265.8c1.6,0,2.2.8,2.1,3.4,0,1.9-.3,3.7-.5,4-.3,1.1-3.8-4.2-3.8-5.8s1-1.6,2.2-1.6ZM1142.7,278.9c.8-1,2.4-1.9,3.4-1.9,1.6,0,1.6.3.3,1.9-.8,1-2.4,1.9-3.4,1.9-1.6,0-1.6-.3-.3-1.9ZM1387.7,210.9c14.6,7.4,29.6,22.1,35.7,34.9,4.2,8.8,4.5,10.1,4.5,22.4s-.5,18.4-5.9,34.2c-2.1,6.1-4.5,13.9-5.3,17.3l-1.6,6.1-7.5-1c-4.2-.5-9.3-1.1-11.4-1.3-2.1-.2-10.1-1-17.9-1.8-7.8-.8-15.4-1.6-16.8-1.9-2.4-.6-25.6-3.7-50.6-6.9-5.1-.6-16-2.2-24.3-3.7-8.2-1.4-20.8-3.4-28-4.3-7.2-1-17.3-2.7-22.4-3.7-21.9-4.3-29.8-5.9-37.3-7.2-4.5-.8-9.4-2.2-11.2-3.4-5.1-3.4-12.5-5.9-23.4-8.3-5.6-1.3-10.1-2.7-9.9-3.4.2-.6,3-2.2,6.4-3.5,8-3.2,12.2-6.6,13.8-11.4,1.1-3.4,3.5-5,19.4-13,30.1-15,75.8-36.6,77.8-36.6s10.1-4.6,21.6-10.2c24.5-12,44.6-21.3,51.7-23.7,1.4-.5,2.4,0,2.9,1.8,1.9,6.1,17.3,17,40.2,28.5h-.3ZM1206.3,302c1.4,1,1.3,1.3-1,1.3s-2.9-.5-2.9-1.3c0-1.6,1.3-1.6,3.7,0h.2ZM1248.8,316.2c.8-1,30.9,2.1,45.3,4.5,4.2.6,11.2,1.4,15.5,1.8,11.4.6,23.5,2.6,40.6,6.2,15.2,3.4,38.2,7.7,44.3,8.3l3.5.5-5.1,5.6q-5.1,5.6-15.4,6.4c-8.5.6-13.1,0-27.7-2.9-17.8-3.7-44.8-5.8-53.1-4.3-2.4.5-6.1,2.7-8.5,5-4.8,4.8-6.2,5.3-6.2,2.6s-1.6-2.7-3.4-3.7c-1.9-1-6.6-5.3-10.2-9.6-9.1-10.4-11-12.3-16.2-16.3-2.4-1.8-4-3.7-3.5-4.2v.2ZM1405.8,340.2c.3-.8,2.1-1.8,4.2-1.9q3.5-.3,1.1,1.6c-3,2.4-5.9,2.6-5.3.5v-.2ZM1424.8,326.8c-1.8,0-3.2-.5-3.2-1.3s1.1-1.3,2.4-1.3,2.7.6,3.2,1.3-.6,1.3-2.4,1.3ZM1429.5,334.3c1.9,0,3.4.5,3.4,1.3,0,1.6-2.6,1.6-5,0-1.4-1-1.1-1.1,1.6-1.3ZM1353.9,180.5c0-.6,1.3-1.4,3.2-1.6s3.4.2,3.4.8c0,2.6-6.1,3.2-6.6.8ZM1353.8,170.8c1,.5,1.9,1.3,1.9,1.8s-.8,1.1-1.9,1.1-1.9-.8-1.9-1.8.8-1.6,1.9-1.1ZM1356.8,165.5c-4.6-2.4-4.6-3.5-.3-7.7,3.4-3.2,6.4-4.6,12.2-6.1s3-.3,3,1.8-1.3,5.1-2.7,8.2c-3,6.2-5.8,7-12.3,3.7l.2.2ZM1436.2,315.6c-1.4,0-3.5-1.1-4.3-2.6h0c-.8-1.3-2.4-2.4-3.4-2.4s-1.9-.6-1.9-1.3,1.4-1.3,3.2-1.3c3.5,0,4.3-3.4,1.3-4.5-2.9-1.1-2.2-3.8,1.3-4.6,3.5-.8,4.2-2.9,1.3-4-2.6-1-2.4-6.7,0-6.7s3.7-3.5,1.3-6.2c-1.9-2.2-1.9-2.6,0-5.6,1.8-2.6,1.8-3.5.6-5.1-1.3-1.6-1.1-2.4.6-4.3,2.1-2.2,2.1-2.6.2-4.8-2.2-2.6-2.7-5.9-.8-7,1.9-1.1,1.4-4.3-.6-4.3s-1.9-1.1-1.9-3-.8-3.2-1.8-3.7c-1-.3-3-3-4.5-5.9-1.4-2.9-7.5-10.1-13.6-16-8.8-8.6-13.3-12-23.8-17.4-15.7-8-28.6-16.5-28-18.2.6-2.1,4.5-2.2,8.6-.2,2.2,1,7.7,2.7,12,4,18.4,4.6,33.4,14.1,51,31.7,6.9,6.9,8.6,9.6,11.7,18.1,4,10.7,6.2,25.8,5.1,33.6-1.1,8-5.6,25.9-7.4,29.3-.8,1.8-1.9,5.3-2.4,7.8-.6,3.7-1.4,4.6-3.7,4.6l-.2.2ZM1429.1,395.3c-.6,0-1.3-.5-1.3-1.1s.6-1.4,1.3-1.9c.6-.5,1.3,0,1.3,1.1s-.6,1.9-1.3,1.9ZM1414.1,399.7c2.2-2.1,2.7-2.1,8,0,5.4,2.2,8,5.1,3.5,3.7-1.1-.3-3.7-1-5.6-1.4s-4.2-.2-5.1.6c-2.7,2.2-3.5-.6-.8-3v.2ZM1411.4,395.3c-.8,0-.8-.6.3-1.9.8-1.1,1.9-1.6,2.1-1.3.8.8-1,3.2-2.4,3.2ZM1426.4,387.9c.6,0,1.6.5,2.1,1.3.5.6.2,1.3-.5,1.3s-1.6-.6-2.1-1.3-.2-1.3.5-1.3ZM1344.3,508.7l12.5-6.2c6.9-3.4,15.2-7.4,18.7-8.6,7.8-3,15.2-8.8,20.2-15.8,2.7-3.8,4.6-5.4,6.7-5.4,3.8,0,5.3-2.4,2.7-4.3-2.7-2.1-2.6-2.9.8-3.4,2.2-.3,2.7-1.1,2.6-3.8-.2-2.7.5-3.5,2.7-4.2,3.5-.8,3.8-2.1,1.1-4.2-2.9-2.4-2.2-6.6,1.6-9.6,3.4-2.7,3.4-2.9,1-4.6s-2.4-1.9.5-5.8c2.1-2.9,2.6-4.3,1.6-5.3-1.8-1.8-1.8-6.7,0-7.7,2.1-1.3,1.4-4-1.3-4.8-3.4-.8-3.2-2.4.5-5.8,2.9-2.7,3.2-2.7,7.8-1,4.5,1.8,4.8,2.1,5.1,8.3.3,6.2-1,17-3.5,29.1-1.1,5.3-5.3,14.9-11.2,25.6-5.9,10.9-18.1,20.5-38.6,30.6-6.6,3.2-14.4,7.5-17.4,9.4-6.9,4.3-8.8,4.5-11.5.6l-2.2-3-.3-.2ZM1330.7,533.5q0-2.4,3.7.2c7.4,5.4,14.9,18.9,9.3,16.8-1.1-.5-3-.8-4.5-.8s-3.4-1.9-5.4-6.9c-1.8-3.8-3-8-3-9.4v.2ZM1338.7,517.3c-1.8-2.1-1.9-2.9-.8-4,1.3-1.1,1.9-1,3.4,1,3.7,5,1.4,7.7-2.6,3.2v-.2ZM1335.9,524.9c-.6,0-1.8-.8-2.6-1.9-1.3-1.6-1.1-1.9.3-1.9s2.2.8,2.6,1.9c.3,1,.3,1.9-.3,1.9ZM1223.7,391.4l8.3,4.6c6.9,3.8,10.4,5,20.8,6.2,10.2,1.3,13.6,2.2,18.7,5.6,4.5,2.9,8.2,4.2,13.1,4.5,6.1.5,7.7,0,13.3-3.4,6.2-3.8,6.7-4,12.8-2.6,3.5.8,9.1,1.4,12.5,1.4,7.2,0,28.2-3.5,31.4-5.1,1.3-.6,5.6-2.2,9.9-3.7,4.2-1.3,8.5-3.2,9.6-4.2,4-3.5,10.2-4.2,15.7-1.8,2.7,1.3,6.2,2.2,7.7,2.2,3.4,0,5.1,3,8,14.4,2.6,10.1,2.9,16.6,1,30.1-1.1,7.7-2.7,12.3-8.2,22.9-10.1,19.4-13.9,23-34.1,31.4-4.5,1.9-11.2,5.1-14.9,7.2-5,2.7-7.8,3.5-10.4,3-2.9-.6-3.4-.3-2.7,1,1.4,2.4-9.3,11.4-11.8,9.9-1.1-.6-4.5-4-7.5-7.5-6.2-7.2-16.2-17.3-33.8-34.2-6.4-6.2-15.8-15.7-20.8-21.1-5-5.4-11.2-12.2-13.8-14.9-2.6-2.7-9.3-9.9-14.9-15.8l-10.1-10.9v-18.7l.2-.6ZM1228.7,668.1c-.6-1-1.1-2.7-1.1-3.7s.5-1,1.1.6c1.4,3.4,1.4,5.4,0,3.2v-.2ZM1236.2,662.3c1.8,4.5,2.9,8.5,2.7,8.8-1.8,1.8-4.2-1.6-5.4-7.4-2.2-9.9-.8-10.6,2.7-1.4h0ZM1241.9,665.2c-3.4-9.3-6.6-29.4-5-31s1.8-1.1,2.1-.8c.3.3,1.8,7.7,3,16.2,1.3,8.5,2.7,16.6,3.2,18.2,1.6,5.1-1.6,2.9-3.5-2.4l.2-.2ZM1248.5,637.8c0,4.3-.3,5.4-1.3,4-.6-1-1.3-3.7-1.3-5.9s.5-4,1.3-4,1.3,2.7,1.3,5.9ZM1252.2,651.7c.8,2.7,3.2,8.6,5.1,13,4.3,9.6,3.8,11-2.9,8-2.4-1.1-3.2-2.6-3.8-7.2-.5-3.2-1.3-8.5-1.9-11.7-.6-3.4-1.1-6.9-1.1-8,0-3.5,3.2.3,4.8,5.8l-.2.2ZM1270.4,668.9c3.5,6.1,3.8,8.5,1,7.4-1.1-.5-2.6-.8-3.2-.8-1.4,0-8.5-15-12.2-26.6-2.9-9-2.7-16.2.5-17.4,2.7-1,4.5,2.1,4.3,7.4-.2,5.6,5.1,22.4,9.6,29.9v.2ZM1270.3,635.9c2.7,14.2,4,18.7,7,24.8,1.9,3.8,4,7.2,4.5,7.5s2.2,2.4,4,4.6c2.4,3.4,2.6,4.3,1.3,5.3-2.6,1.6-3.2,1.4-5.6-1.8-1.3-1.6-3.8-6.6-5.8-10.9s-4.6-10.2-5.8-13c-3-6.6-4-12-3-16s2.7-4.3,3.5-.5l-.2-.2ZM1281,636.7c0,5.4,5.8,17.4,13.3,28.2,4.2,5.8,4.3,6.2,2.1,7.8-3.2,2.4-4.3,1.8-10.1-6.4-8.5-12.2-13.1-33-7.7-34.1,1.8-.3,2.2.5,2.2,4.6l.2-.2ZM1296.3,680.4c2.2-3,22.4-13.6,25.9-13.6s4.6,1.1,6.4,2.6c2.9,2.2,3.4,3.4,3.4,10.4s-.3,8.2-.8,8.6c-1.4,1.4-10.4,1-20.6-1.1-12.6-2.6-16.2-4.3-14.2-6.9h0ZM1295.1,645.7c1,1.8,2.6,5.1,3.4,7.4,1,2.4,3.2,6.1,5.1,8.3s3.2,4.6,2.7,5.4c-1.3,1.9-2.4,1.6-5.9-2.1-5.4-5.8-13.8-21.6-15-28.6-1.1-6.1,2.4-5.3,5.4,1.3,1.3,2.9,3.2,6.7,4.2,8.5l.2-.2ZM1370.4,661.3c-3.7,10.2-6.1,24-4.3,25.1,1.9,1.1-10.9,3.7-19.5,3.8-4,0-7.2-.3-7.2-1s2.9-1.6,6.6-2.2c4.5-.6,6.6-1.6,6.6-2.9s-1.4-1.8-6.7-1.4c-8.5.5-7.5-1.8,1.1-3,6.9-1,8.3-1.9,5.6-4.2-1.3-1-3.7-1.3-7.7-.6-5,.8-5.6.6-4.5-.8.8-1,4.3-3,7.7-4.6,3.5-1.6,6.2-3.4,6.2-4,0-2.6-4.5-2.4-9.3.2-7.5,4.2-9.3,2.2-3.7-3.8,2.4-2.7,4.3-5.6,4-6.4-1-3-4.5-2.2-6.7,1.6-2.6,4.5-5,5.1-3.7,1,2.9-9.3,1.1-14.1-3.2-8.3l-2.2,2.9-.5-3c-.3-2.1-1.3-3-2.9-3s-2.6,1.1-3.4,6.2c-1,6.4-2.9,8.8-8.3,10.2-2.4.6-3.7,0-6.4-3.4-3.4-4-13.6-27-13.6-30.6s3.7-.8,8.6,9.8c3.7,7.7,6.6,12,8.6,13,4.2,2.1,4.8,1,1.8-3-4.2-5.8-8.2-15.4-7.7-18.7.3-2.9.8-2.4,4.2,4,2.1,4,4.8,7.8,5.9,8.5,3,1.6,2.7,0-1-7.8-1.8-3.7-3-8.3-3-10.4v-3.7l3,3.5c1.8,1.9,3,4.3,3,5.3s1.3,1.8,3.2,1.8c3.5,0,4-1.9,1.4-5.6-1-1.3-2.1-4-2.6-5.8-1-4,.6-5.1,9.8-7.2,9.3-2.1,16.2-.5,22.2,5.1,2.9,2.7,7.8,6.9,11,9.4,3.2,2.6,6.7,6.6,7.8,8.8,2.7,5.8,2.6,17.1-.6,25.9l.2-.5ZM1396.7,892.1c.8,0,1.3.6,1.3,1.3s-.3,1.3-.5,1.3-1-.6-1.3-1.3c-.5-.6-.2-1.3.5-1.3ZM1399.2,878.6c0,2.6-1.8,4.2-2.2,2.2-.3-.8,0-2.1,1-2.9,1-1,1.4-1,1.4.5l-.2.2ZM1407.1,883.7c-2.9.6-3.4-.6-1.6-4,.8-1.4,1.9-2.2,2.6-1.9,2.1,1.3,1.3,5.4-1,5.8v.2ZM1415.4,893.5c2.1,2.9,3.8,6.1,3.8,7.2s2.7,4.6,6.1,8c3.4,3.2,6.6,7.5,6.9,9.4,1.1,5.1-1.4,13.6-5.8,19-4,5.1-6.1,5.8-8.5,2.9-1.1-1.4-.8-3.2,1.8-8.8,3.8-8.3,3.7-8,1.4-8s-3.4,2.2-5.1,5c-1.8,2.7-3.8,4.6-4.3,4.3-2.1-1.3-1.1-8.3,2.2-14.4,1.8-3.4,3-6.4,2.6-6.9-1.8-1.8-5.9,1.3-8.3,6.4-1.4,3-3.2,5.6-3.8,5.6-1.3,0-5.6-8.8-6.9-14.4-.5-2.1.2-4.2,2.4-7,1.8-2.2,3.5-5.4,4-6.9.5-1.6,2.6-3.7,4.5-4.6,3.5-1.9,3.7-1.8,7.4,3.4l-.3-.2ZM1349.3,752.7c-4.3-4.2-7.5-7.7-7.2-8s3.4.5,6.7,1.6c4.3,1.6,6.7,3.4,8.3,6.6,5.1,9.6,2.4,9.6-7.8,0v-.2ZM1336.2,782.3c-2.7-2.9-6.2-7-7.8-9.3-1.6-2.2-3.7-4.2-4.8-4.2s-.8-.5,1-1c2.2-.6,3-1.6,2.7-3.4-.3-1.3-.6-4.2-.8-6.4s-1-4.8-1.9-5.9c-1.3-1.6-1.1-1.9.8-2.1h4.6c1.3,0,4-.6,6.1-1.8,2.1-1.1,3.8-1.8,4-1.6,0,.2,2.1,3,4.3,6.2,4.6,6.7,3,8.2-3.2,2.9-2.7-2.2-4-2.7-5-1.8-1.9,1.9,0,5.1,7,11.8,3.2,2.9,5.4,5.6,5.1,5.9-1.6,1.6-9.4-4.3-13.3-9.9-3-4.5-4.2-5.3-3.7-3,1.1,5.4,4,11.7,7.4,16.8,3.5,5.3,5.8,11.8,3.8,11.8s-3.4-2.4-6.1-5.3h-.3ZM1323.9,775.1l-2.9,2.6c-3.7,3.2-6.7,3.4-6.2.3.3-1.4,1.8-2.2,4.8-2.6l4.3-.3h0ZM1330.7,803.3c0-.3.5-1,1.3-1.3.6-.5,1.3-.2,1.3.5s-.5,1.3-1.3,1.3-1.3-.3-1.3-.5ZM1316.3,803.3c0-1.4,1.8-2.7,5-3.8,6.6-2.2,7.2-1.1,1.9,3.4-4.6,3.8-6.9,4-6.9.6v-.2ZM1315.2,792.7c1.4-1.3,14.4-5.4,15-4.8.3.3-2.7,2.2-6.7,4.3-4.5,2.4-7.7,3.4-8.3,2.7-.8-.8-.8-1.6,0-2.2h0ZM1288.7,744.4c.5-.5,1.4-.5,2.4,0s.6.6-.8.8c-1.3,0-2.1-.2-1.6-.6v-.2ZM1185.1,715.6c1.4,2.2,1.4,12.6,0,11.7-.6-.3-1.4-2.6-1.9-5-1-5.1.3-9.4,1.9-6.9v.2ZM1184.3,711.3c-.5-.5-.5-1.4,0-2.4s.6-.6.8.8c0,1.3-.3,2.1-.6,1.6h-.2ZM1113.6,738c3-2.6,10.4-13.1,10.4-15.2s.8-1.3,1.9-1.3c2.4,0,2.4,4.8,0,11.2-1.8,4.2-2.7,5.1-6.6,5.8-2.6.5-5.1,1-5.8,1.1-2.4.8-2.4.5,0-1.6ZM918.4,719.1c.6,0,1.6.6,2.1,1.3.5.6.2,1.3-.5,1.3s-1.6-.6-2.1-1.3c-.5-.6-.2-1.3.5-1.3ZM889.8,709c.6,0,1.6.6,2.1,1.3.5.6.2,1.3-.5,1.3s-1.6-.5-2.1-1.3c-.5-.6-.2-1.3.5-1.3ZM878.1,696.7c3,5.8,4,9.4,2.1,8.2-.6-.3-2.1-2.6-3-5-3.2-6.9-2.2-9.6,1.1-3.2h-.2ZM872.5,686.6c0-.6.3-1.3.5-1.3s1,.6,1.3,1.3c.5.6.2,1.3-.5,1.3s-1.3-.6-1.3-1.3ZM860.2,670.1c-1.8-6.1-1.3-14.7.5-10.2.5,1.4,1.6,4.2,2.6,6.2,1,2.1,2.1,5.6,2.6,7.8.8,3.8.8,4-1.6,2.9-1.3-.8-3-3.7-4-6.7h0ZM858.7,691.4c0-1.6,2.9-.6,3.5,1.3.3,1-.3,1.1-1.4.8-1.1-.5-1.9-1.3-1.9-1.9l-.2-.2ZM854.4,696.7c.5-.6,1.3-1.3,1.9-1.3s1.1.5,1.1,1.3-.8,1.3-1.9,1.3-1.6-.5-1.1-1.3ZM708.2,796.1c-1.8,0-2.4-.3-1.6-.6s2.2-.3,3,0,.2.6-1.6.6h.2ZM715.2,803.3c-4.6,1.6-7.4,1.4-8-.6-.3-.8.5-1.4,1.8-1.4s4.5-.3,7.2-.8c5.6-1,5.1.6-1,2.9h0ZM731.7,807.6c0,1.9-2.9,2.9-8.3,2.6-4.2-.2-5.6.3-6.7,2.2-1.6,3-4.2,3.4-6.2.8-2.2-2.6-.8-4,4.5-4.2,2.6,0,6.4-1,8.6-2.1,3.8-1.9,8-1.4,8,.6h.2ZM745.5,814.9l-4.6,4.2c-4.3,3.8-7.2,5.1-13.3,5.6-1.4,0-1.9-.3-1.3-1,.6-.6,3.8-2.1,7.2-3.4,6.7-2.6,8.5-5.1,5.1-7.7-3-2.2-1.3-2.1,3.2.2l3.7,1.9v.2ZM727.2,831.6c.5-.5,1.4-.5,2.4,0s.6.6-.8.8c-1.3,0-2.1-.3-1.6-.6v-.2ZM759.2,823.4c0,1.9-3.7,2.7-6.1,1.3-1.8-1.1-3.2-.8-7,1.9-5.6,3.8-5.1,3.7-6.1,2.2-.3-.6,1.6-2.6,4.3-4.5s5-4.2,5-5.1.5-1.8,1-1.8c1.8,0,9.1,5,9.1,6.1l-.2-.2ZM802.4,888.1c.8-1.4,4.2,2.6,4.2,5s-3.4,1.8-4.2-1.1c-.3-1.4-.3-3.2,0-3.8h0ZM791.4,879.7c2.9,0,6.4,6.1,6.4,11.2s-1.1,3-4,.8c-1.9-1.6-4-12.2-2.4-12.2v.2ZM784.8,858.8c-1.8-1.8-2.4-1.8-4.8-.3-9.1,5.8-14.1,7.5-19,6.7-7.2-1.1-8.5-3-2.1-3s6.9-.8,8.6-1.8c3.7-1.9,8.5-4,11.8-5,3.2-1.1,1.8-4-1.8-3.4-1.6.3-4.2,1.6-5.6,2.9-1.9,1.8-2.9,2.1-3.5,1-.5-.8-2.4-1.1-4.5-.8-2.9.6-3.5.3-3.5-1.8,0-4-2.7-8.8-5.1-8.8s-2.1-.8-1.9-2.1c.3-3-3.2-3.4-6.4-.3-3.4,3.2-6.6,3.2-6.6.2s3.4-4.5,13-7.8c2.6-1,6.1-3.2,7.7-5.1,3.7-4.5,4.3-4.3,4.3.8s.5,4.6,1.3,5.1c.6.5,1.3,3,1.3,5.6s.5,5,1.3,5,1.3-.6,1.3-1.3c0-2.1,2.2-1.4,13.3,3.7,7.2,3.4,12.8,7,17.3,11.5s9.4,9,13,12c3.4,3,6.2,5.9,6.2,6.6s1.8,3.5,3.8,6.7c2.1,3.2,3.7,5.9,3.4,6.2-1.6,1.6-9.6,4.2-13,4.3-3.2,0-4.2-.6-5.1-3.4-.6-1.9-1.6-5.3-2.1-7.5-1.1-6.6-5.4-15.2-7.5-15.2s-1.9.8-1.9,1.8c0,1.4-.5,1.4-3.7,0-2.1-1-3.7-2.4-3.7-3.2s-1.3-1-2.9-.6c-1.9.5-3.4,0-4.3-1.8-1.3-2.1-1.1-2.6,1.1-3.8,2.4-1.3,2.4-1.6.6-3.4l-.3.3ZM741.1,851.1c.5-.6,1.3-1.3,2.1-1.3s1,.6.5,1.3c-.5.6-1.3,1.3-2.1,1.3s-1-.6-.5-1.3ZM745.5,854.8c.8,0,1.3.5,1.3,1.3s-.3,1.3-.5,1.3-1-.6-1.3-1.3c-.5-.6-.2-1.3.5-1.3ZM757.6,869.8c1.9.6,3.5,1.1,3.8.8s1.8,1.9,3.5,5c1.8,2.9,2.9,5.3,2.6,5.3s-3.4-2.7-6.9-6.1c-5.1-5-5.8-5.9-3-5ZM729.8,908.1c.3-.8.6,0,.6,1.6s-.3,2.4-.6,1.6-.3-2.2,0-3v-.2ZM721.8,909.5c1,0,2.6,5.9,2.6,9.4s-2.2,2.1-3.7-.8c-1.3-2.6-.5-8.8,1.1-8.8v.2ZM706.3,869.7c2.1,2.2,2.1,2.6.2,2.6s-2.4-.8-2.9-1.9c-1.1-3,.2-3.4,2.7-.6h0ZM675.7,817.5c.6,0,1.3.5,1.3,1.3s-.3,1.3-.6,1.3-1-.6-1.3-1.3c-.5-.6-.2-1.3.6-1.3ZM673.3,814.5c0-1,.6-2.1,1.3-2.6.6-.5,1.3.3,1.3,1.8s-.6,2.6-1.3,2.6-1.3-.8-1.3-1.8ZM613.8,712.7c2.1,1.6,2.7,2.7,1.8,2.7s-1.3-1-2.2-2.2c-1.6-1.9-1.4-2.1.5-.5h0ZM616.8,704.4c1.9,2.2,5.6,5.6,8.2,7.5,4.5,3.4,5.9,5.8,3.4,5.8s-3.4-1.9-5.9-4.2c-2.6-2.2-6.6-5.8-8.6-7.7-2.2-1.9-4-4-4-4.6,0-2.4,3.7-.8,7,3v.2ZM624.2,697.2c1,.3,1.8,1.6,1.8,2.6s.6,1.9,1.4,1.9c1.8,0,14.7,12.5,14.7,14.1s-9.3-.3-11.2-2.7c-12.8-15.8-15.8-21.4-11.8-21.4s2.1,1.1,2.6,2.4,1.6,2.7,2.6,3v.2ZM641.6,698c.6,1.1,3.2,3.5,5.8,5.4,5,3.7,5.6,5.4,3.2,8-2.4,2.4-5.3,1.8-9.4-2.6-2.2-2.2-6.6-7-9.6-10.6-8.6-10.1-9.4-12.8-4.3-12.8s12,8.6,14.2,12.5h.2ZM641.6,683.7c17,15.2,20.6,19,19.8,20.3-1.4,2.4-5.1,1.6-9.6-2.1-6.7-5.4-16-16.3-16-19s1.4-3,5.8.8ZM664.7,688.4c5.6,5.1,5.6,5.3,2.9,8.3-2.6,2.9-4.2,2.1-13.9-8-4.3-4.5-7.8-8.8-7.8-9.4,0-4.8,7.4-1.1,18.7,9.1h.2ZM657,666.8c1.4.8,2.6,1.8,2.6,2.4s2.7,2.9,5.9,5.1,8,6.4,10.6,9.1l4.6,5.1-2.9,1.6c-3.8,2.1-4,2.1-8.6-1.8-2.2-1.9-7.2-6.2-10.9-9.9-6.2-6.1-6.6-6.7-5.3-9.8,1.3-2.7,1.8-3,4-1.9h0ZM678.7,671.7c5.6,6.4,11,11.2,12.6,11.2s2.1.8,2.9,1.8c1.1,1.3,1.1,1.9-.2,2.4-2.7,1.1-6.1,1-8.8-.6-1.4-.8-4.2-2.9-5.9-4.6s-7.2-7-12.2-11.8-8.8-9.1-8.8-9.6,1.1-1.3,2.6-1.8c2.7-.8,11.2,5.3,17.9,13.1h-.2ZM694.7,679.3c-.6,0-1.9-.8-2.7-1.9s-1-1.9-.3-1.9,1.9.8,2.7,1.9,1,1.9.3,1.9ZM675.2,658c-.3,0-1-.5-1.3-1.3-.5-.6-.2-1.3.5-1.3s1.3.6,1.3,1.3-.3,1.3-.5,1.3ZM620.2,535.7c0-3.5,1.6-4.6,6.2-4.6s3.7,0,1.3,2.6c-1.3,1.4-3.5,3-4.8,3.7-1.4.6-2.6,1.1-2.6,1.1v-2.7h-.2ZM503.1,554c-3-.8-5.4,2.6-8.2,12-2.9,9.6-3.8,17.9-2.4,20.6.6,1.3,1.6,4,2.1,6.1l.8,3.7-2.1-2.9c-1.1-1.6-2.9-5.4-3.8-8.6-1.3-4.3-1.4-7.5-.5-13.4,1.6-9.8,2.1-11,6.4-17.6,4.3-6.4,8.6-7.8,22.9-7.8,20.3,0,24.5,3,5.4,4-8.2.5-13.4,1.3-15.4,2.6-1.6,1.1-4,1.6-5.3,1.3v.2ZM496.8,580.5c.5-1,.6-.6.8.8,0,1.3-.2,2.1-.6,1.6-.5-.5-.5-1.4,0-2.4h-.2ZM503.9,609.5c-1.3-2.4-2.4-5.4-2.4-6.9s.8-.8,2.4,2.6c3,6.6,3,9.9,0,4.3ZM510.9,621.3c1.8,4.2,2.4,12.8,1,11.4s-1.8-4.5-3-9c-2.2-8.3-1.1-9.8,1.9-2.4h.2ZM502.7,661.8c0-.6,1.6-3,3.5-5.3,1.9-2.2,4.2-6.1,5-8.6.8-2.7,2.4-4.8,3.8-5.1,3.7-1,3.4-14.1-.6-23.8-3.4-8.2-3.2-9.8.8-6.2,5.8,5.3,7.8,13.3,5.9,22.9-1.9,9.6-8.3,23-12.2,25.3-3.7,2.2-6.2,2.6-6.2.8v.2ZM461.6,625.8c1,.3,1.9,1.3,2.2,2.2.3,1-.2,1.4-1.1,1.1-1-.3-1.9-1.3-2.2-2.2-.3-1,0-1.4,1.1-1.1ZM455.9,619.4c1.1,0,2.1.8,2.1,1.9s-.2,1.9-.5,1.9-1.1-.8-2.1-1.9c-1.3-1.6-1.1-1.9.5-1.9ZM398.1,551.7c2.1,5.4,8.8,18.1,12,22.4,2.9,3.7,20.3,17.6,31.2,24.8,5.8,3.8,6.4,5.1,3,5.9-1.1.3-2.4.6-2.6.8-.2,0-4-2.4-8.5-5.6s-10.1-8.2-12.6-11.2c-2.6-3-5.3-5.4-6.1-5.4-3.5,0-13.4-16.2-17.3-27.8-2.1-6.6-1.6-9.8.6-3.7l.2-.2ZM417.1,577.3c-5.6-5.6-13.9-19.5-12.6-21,.3-.3,1.9,1.6,3.5,4.2,2.9,4.6,7,10.2,14.1,18.6,5.3,6.2,2.1,5.1-5-1.8ZM394.9,521.8c.5-5.6,1-12.2,1.1-14.6.3-5.1,9.3-18.1,13.8-19.7,8-3,10.9-3.5,11.5-2.4.5.6,0,2.2-1.3,3.4-3.7,4.2-2.2,5.3,3.2,2.4,2.9-1.6,6.6-3.7,8.3-4.6,2.7-1.4,5-1.4,14.4-.2,12.5,1.8,25.3,6.1,40,13.6,5.4,2.7,12,5.6,14.7,6.6,2.7.8,8.5,3.5,12.6,5.8,4.2,2.4,11.8,5.6,16.8,7.4,11.8,4.2,14.1,5.4,9.4,5.4s-31.4-7.8-44.8-13.3c-5.9-2.4-11.5-4.2-12.3-3.8s2.4,2.1,7.2,4c4.8,1.9,10.2,4.3,12.3,5.3,6.2,3,34.4,11.4,41.3,12.3,4.2.5,6.7.3,7.2-.6,1.1-1.9,6.6-1.8,13.8.6,3.7,1.1,12,2.1,20.5,2.4,14.9.5,17.9-.3,31.2-7.5,5.1-2.9,10.2-5.3,16.5-7.8,4.5-1.9,6.4-3.5,7.7-6.6,1-2.2,5-7.2,9-10.9,6.7-6.2,11.8-10.2,30.9-24.5,9.4-7,22.2-12.3,37.4-15.4,20.3-4.2,28.8-5.1,39.8-4.5,10.7.6,17.4,2.7,21.1,6.9,1.3,1.4,2.9,2.6,3.7,2.6s-.3-1.6-2.2-3.4c-1.9-1.9-3-3.5-2.2-3.8,1.9-.6,17.6,3.7,29.6,8.2,22.4,8.3,36.5,17.1,56.3,35.7,7.7,7.2,15.2,13.8,16.5,14.4,3,1.6,4.8.6,4.8-2.6s.8-2.4,3-2.4,3.4.6,3.8,1.3c.5.6,2.2,1.3,4,1.3s6.9.6,11.2,1.4c7.2,1.3,8,1.6,7.4,4-2.2,9.1-2.2,12-.5,12s4.6-6.1,4.6-10.9.5-3,4.6-2.6c3.4.3,4.6,1,4.3,2.2-.2,1-.8,4.5-1.1,7.8-.6,5.4-.5,5.9,1.9,5.9s2.9-1,3.4-3.2c.3-1.8,1-4.5,1.3-6.2.6-2.9,3.4-4.2,7.4-3,.6.2,4.8,1,9,1.8,4.3.8,8,1.8,8.3,2.1s0,2.7-.8,5.3c-1.1,3.8-1.1,5,.5,6.6s2.2,1.1,4.8-4.5l3-6.4,5,.8c2.7.5,5.1,1,5.4,1.3s-.5,2.4-1.8,4.8c-2.1,4.2-1.8,8.3.5,8.3s1.8-1.3,2.4-3c1.6-3.7,5.4-8.2,6.7-8.2s.8,2.7.6,5.9c-.3,7.7,2.6,8,5,.6,1.4-4.5,2.2-5.3,5.1-5.3,5,0,6.2,1.3,5.9,6.7-.2,5.9,2.4,7.4,4.2,2.4.8-1.9,1.9-4.2,2.6-5,2.1-2.4,5.6-.5,6.9,3.7,1.4,4.8,5.1,6.1,5.8,1.9.3-2.7,1-2.9,8.5-2.9s10.4.5,13.1,1c4.6,1,5.6.5,13.1-4.5,12.3-8.3,19.2-15.8,16.3-17.6-.6-.3-.8-2.1-.5-3.8.6-3,.3-3.2-4.5-3.2s-5.6,0-3.8-4.5c1.1-3,1.8-3.2,5.3-2.6,7.7,1.6,10.1,1.4,10.6-.8.5-2.1-.5-2.6-7.5-4-3-.6-3.4-1.1-2.1-3.4,1.6-3,6.9-2.9,6.9.3s4,5.9,6.2,5.9,5.6-7.8,5.6-10.4.8-2.4,1.6-3.4,3.2-4.3,5-7.5c3-5.3,3.8-5.8,7-5.1,5.6,1.1,6.2-1.8,1.3-5.9-3.7-3-3.8-3.5-1.6-3.5s2.9-.3,3.4-.8c1.4-1.4-1.4-5.1-4.5-5.9-1.6-.5-4.5-2.7-6.4-5.1-2.9-3.8-3-4.3-1.1-4.3s3.5.8,5.1,1.9c2.6,1.8,5.3,1.6,5.3-.6s-2.1-2.1-4.6-3.4c-9.8-5-12.3-9.4-5-9,5.8.5,5.3-2.7-1-5.9-5.8-3-7.7-7.4-2.7-6.1,1.9.5,3.5,0,4.6-1.1,1.4-1.6.8-2.1-4.2-3.5-4.6-1.3-5.8-2.1-5.4-4,.2-1.6,1.4-2.7,3.2-2.9,1.6-.2,2.7-1.1,2.7-2.1s-1.3-1.9-2.7-2.1c-1.8-.3-2.9-1.4-3.2-3.2-.3-2.4.2-2.7,3.2-2.7s4-.3,4.5-.8c1.3-1.3-1.8-4.2-4.3-4.2s-2.4-1.1-2.6-6.9c0-3.7-.3-7.8-.3-9-.2-4.5,4-2.6,16,7.5,18.4,15.4,25,19.5,30.6,19.5s8.6-2.4,8.6-5-3.4-3.5-8.2-3.4c-6.1,0-15.8-5.9-24-14.6-2.9-3.2-5.8-5.8-6.4-5.8-1.8,0-8.6-7.7-10.6-11.8-1.6-3.4-1.8-6.1-.8-15.2.6-6.1,1.9-13,3-15.4,1-2.4,2.6-7,3.4-10.4,1.3-4.8,2.4-6.6,5.8-8.5,3-1.8,4.2-3.2,3.8-5.1-.6-4.2-7.2-4.2-13.1-.3-2.6,1.8-5.8,3.2-7,3.2-3.5,0-2.1-4.3,1.6-4.8,1.8-.3,3.4-1,3.8-1.6.6-1,3-1.8,6.4-2.2,1.8-.2,1-3.8-1-3.8s-1.9-.6-1.9-1.3,1.9-1.1,4.6-1c3.5.3,4.6,0,4.6-1.4s-1.3-2.1-2.9-2.2-2.7-1-2.7-1.6,2.2-1,6.1-.5c5.8.8,6.2.6,8.8-3l2.7-3.8-2.7-1c-2.4-1-2.4-1.1-.6-2.6,1.1-1,1.9-2.4,1.9-3.4s.8-1.8,1.9-1.8,2.2-.8,2.6-1.8,2.1-2.7,3.8-3.8c2.9-1.9,3-1.9,1.9.3-.6,1.3-2.4,3.4-3.8,4.6s-2.6,3-2.6,4c0,2.9,5.9,1.8,9.4-1.8,2.2-2.2,3.5-2.9,3.8-1.9.8,2.4-.6,5.3-2.9,5.3-4.6,0-20.6,15.7-18.4,17.9s6.2.6,8.5-1.9c4.6-5.1,17.3-11,23.4-11s6.6-.8,8.3-2.6c2.6-2.6,9.9-3.5,9.9-1.3s-1.4,1.9-3,2.7c-1.8.8-3,1.9-3,2.4,0,3.4,9.1,2.6,13.6-1.3,2.6-2.2,6.2-2.2,6.2,0s-2.2,2.1-5,3.7c-4.8,2.7-6.1,4.3-4,5.6,1.9,1.3,13.4-2.6,13.8-4.6.5-2.6,1.8-2.6,5.3.3,3.2,2.6,2.4,5.1-1.6,5.1s-11,2.9-10.6,4.3c.3.8,2.2,1.1,4.5,1,3.4-.3,4,0,3.4,1.4-1.1,2.9,1.4,3.8,9.6,3.5,7.2-.3,7.5-.2,12.3,5l5,5.3,5.1-1.9c7-2.6,9-1.8,5.8,2.7-4.2,5.8-2.7,8.8,1.9,3.7,1.3-1.4,4.2-3.7,6.4-5,3.8-2.4,4.2-2.4,8.3-.5,4.8,2.2,8.5,6.9,6.1,7.7-2.1.6-1.8,4,.3,4s2.7-1,3.8-1.9c2.2-2.2,6.2-1.4,5.3,1.1-2.2,5.8-2.4,5.9-.3,5.9s3-.6,4.5-1.4c1.9-1.3,2.9-1.1,5.1,1,4.3,4,6.6,9.1,4.8,11.2-1.1,1.4-1,2.2.8,4.3,1.3,1.3,3.2,2.4,4.2,2.4s3.5.8,5.6,1.9c1.9,1,4.3,1.9,5.1,1.9s2.2.8,3,1.8,4,2.6,7,3.7c4.8,1.6,5.6,1.6,6.2,0,.3-1-.5-3.2-1.9-5.1-1.9-2.4-2.2-3.8-1.4-5.4,2.1-4,4.3-4.8,15-5.6,11-1,27.7,1.1,43,5.1,4.3,1.1,13.3,2.1,21.6,2.2,13.6.2,14.2.3,16.8,3.4,2.2,2.7,3.4,3,7.4,2.6,2.6-.3,5.4,0,6.4.8,1.3,1.1,2.4,1.1,4.3,0,2.7-1.4,3.4-4.3,1.3-5.8-.8-.5-1.1-1.6-.8-2.4,1.3-3.5-1.9-4.3-6.7-1.9s-5.4,2.4-6.4,2.4c-3,0,5.8-5,12.2-6.9,3.5-1,7.4-2.7,8.6-3.7,2.7-2.1,9-2.4,13.1-.8s11.2,8.6,10.2,10.1c-1.1,1.9.5,7.4,2.1,7.4s5.9,4,5.9,6.4-2.6,2.9-5.6-1c-1.8-2.2-3.2-2.9-4.8-2.4-3,1.1-2.7,3.8,1,7.5,1.8,1.8,3,3.4,3,3.5s-1.8.8-3.7,1.1c-4.3.8-4.6,2.4-1.3,5.8s6.6,9.8,5.1,10.6c-.6.3-1.9-.3-2.7-1.4-3.7-4.5-11.5-9.1-15.2-9.1s-6.7,1.4-10.1,3c-3.5,1.8-8.5,3-11.5,3-5.1,0-7.8-1.6-5.4-3,1.9-1.1,1.6-5.6-.5-6.4s-8,1.8-20.2,9c-4.8,2.9-10.7,5.6-13.1,6.1s-5.8,1.8-7.7,2.6c-1.8,1-9.4,2.6-16.8,3.7-10.7,1.6-15.4,1.6-22.6.5-7.5-1.1-10.2-1-15.7.6-3.7,1.1-7.4,2.7-8.2,3.8-2.4,2.9-4,2.2-8.6-3.8-3.8-5-4.8-5.4-8.3-4.8s-4.2.3-5.9-3.4c-1.1-2.2-2.1-5.6-2.1-7.5,0-3.2-2.6-5.6-4.2-4s-.8,11,.8,12.5c.8.8,1.1,1.9.6,2.4-.5.5-1.8-.3-2.9-1.9-1.1-1.6-3.4-4.2-5.1-5.8-1.9-1.8-3.5-5-4-7.7-1-5.8-3.4-6.9-4.3-1.8-.5,2.1-1.4,3.8-2.4,3.8s-4-3.7-7-8.2c-7.2-11.2-9.6-9.1-3.4,3,2.4,4.8,4,8.8,3.4,8.8-1.4,0-14.4-19.4-16.3-24.2-.6-1.8-1.8-3.4-2.6-3.4-2.4,0-1.3,3.8,2.9,10.4,7.8,12.3,6.4,16-2.7,7-3.2-3.2-5.6-7-6.6-10.2-.8-2.9-1.6-5.9-1.9-6.7-.6-2.6-3.8-1.8-4.6,1.1-.3,1.4,0,3.8.6,5.1,1,1.8,1,2.9,0,3.8s-1.4,1.1-1.4.8c-.8-5.1-1.4-7-2.9-8.5-2.4-2.4-4.8-.5-3.8,3,.6,2.4.3,3-1.9,3-3.7,0-17.1,7.7-21.4,12.3-3.8,4-3.7,6.6.5,8.8,2.2,1.1,3,.8,5.9-2.4,1.9-2.1,4.2-3.8,5.3-3.8,1.9,0,15.5,13,21.8,20.6,3,3.8,6.2,10.4,5,10.4s-12.2-9.3-21.4-17.8c-4.3-4-8.2-6.9-8.6-6.6-.5.3,3.5,5.1,8.8,10.4s10.7,11.5,12.2,13.9,3.8,5.6,5.1,7.2c5.3,5.8,0,2.4-6.6-4-3.8-3.7-8.6-7.7-10.9-8.8s-4-2.6-4-3.4-.3-1-.8-.5c-.5.5,1.8,3.5,4.8,6.7,3.2,3.2,8.3,9.8,11.4,14.4,3.2,4.8,6.9,9.4,8.2,10.2,2.4,1.8,5.9,11.2,4.6,12.5-.3.3-4.3-2.6-9-6.4-4.5-3.8-8.8-6.7-9.4-6.2-1.6,1-.2,3,2.1,3s4.8,4.6,3.8,7,11.4,15.4,14.6,15.4,5.9,5.6,5.9,8-4.6,0-9.6-5c-3.2-3-6.7-5.6-8-5.6s-2.9-.8-3.7-1.9c-.8-1-2.1-1.9-2.9-1.9s4.3,5.6,11,12.5c11.4,11.5,14.9,16.2,12,16.2s-3.5-2.6-6.6-5.6-6.4-5.6-7.7-5.6-2.6-.6-2.9-1.3c-.5-.6-1.9-1.3-3.4-1.3-3.4,0-2.2,3,1.3,3.5,1.6.2,3.5,2.1,4.6,4.2l1.9,3.8-3.8-.8c-3-.6-3.8-.3-3.8,1.1,0,2.7-7,1.3-14.7-2.9-9.9-5.6-12-6.6-13.9-6.6s-3.5-1.1-5.6-2.6c-6.6-4.3-6.2-2.7.6,3.7,3.7,3.4,7.4,6.2,8.2,6.2,3.2,0,20.5,12.6,20.5,14.9s1.1,2.7,2.6,3.2,6.2,4.5,10.6,8.8c5.8,5.8,8,9,8,11.2s0,3.2-3.4,1.1c-1.9-1.1-4.6-3.2-5.9-4.5-1.4-1.3-3.4-2.2-4.3-2.2s-1.1.5.6,1.9c3.7,2.9,14.4,13,14.4,13.6,0,1.8-3,.2-9.6-4.8-5-3.7-11.7-7-21.9-10.7-17-6.1-22.9-6.4-10.7-.6,8.8,4.2,11.8,6.9,10.9,9.6s.6,4.3,7.8,7.7c7.7,3.5,9.3,4.8,18.4,14.9,5.9,6.7,8.3,12,5.3,12s-1.4,4.5.6,6.2c2.9,2.4,2.4,6.1-.6,5.3-4-1-3,2.9,1.6,7,4.8,4.3,3.7,6.6-1.6,3.4-3.5-2.1-3.7-2.1-3.7,0s2.6,4.5,5.6,7.4,5.6,5.8,5.6,6.6c0,1.8-3.4,1.9-4.3.2-.5-.6-1.9-1.3-3.4-1.3-2.1,0-2.4.6-1.9,3,.3,1.8,0,3-.5,3-2.4,0-.8,4.3,3.2,8.8,5.6,6.2,7,9,5.6,11.2-1,1.4-1.8,1-4.5-2.4-3.5-4.2-13.3-11.4-15.5-11.4s-1.1.6-1.1,1.3.6,1.3,1.4,1.3c4.5,0,18.2,18.1,16.8,22.1-.5,1.3-3.4-1.1-9.6-7.7-4.8-5.3-9.3-9.4-9.9-9.4-2.2,0-1,3.4,2.7,6.9,5.8,5.4,11,13.6,11.8,18.2l.6,4.2-2.2-3c-4-5.6-13.9-14.9-16-14.9-3,0-2.2,1.9,3.2,8.2,2.7,3.2,4.6,6.2,4.3,6.6-.8.8-11.7-10.9-11.7-12.6s-1-1-1.9-1-1.6.6-1.1,1.3c.5.6.2,2.1-.5,2.9-1,1.1.6,5.4,6.1,16.5,7.8,15.7,9,21.4,5.4,26.4-1.8,2.6-9,4.2-7.8,1.9.3-.5,1.3-2.4,2.1-4.3,1-1.8,1.3-4.3.8-5.4-.6-1.9-1.1-1.9-2.6-.3-2.7,2.9-8.2,13.3-7.2,14.1.5.5,3.5.8,6.7.8s7.4.6,9.3,1.3c2.4,1,3.8.8,5.1,0,3.5-2.9,36.2-1.6,50.9,2.1,4.2,1,11,2.9,15.5,4.2,21.6,6.4,41.9,11,51,12,8,.8,6.6.8,26.1-.6l15.5-1.1,6.9,4.3c10.9,6.9,12,8.8,17.3,26.6,3,10.4,19.8,44.3,23.5,47.4,1,.8,1.8,1.9,1.8,2.4,0,1.1,24.2,37.3,30.4,45.4,5.6,7.4,9.9,18.4,8.8,23.2-.5,1.9-3.4,7.8-6.4,13l-5.6,9.4.6,10.1c.5,5.9,0,12.5-.6,15.8-1.4,6.1-9,17.4-11.4,17.4s-3.4-2.4-5.4-5.3c-4-5.1-4-5.3-1.4-6.2,4.2-1.6,2.6-5.3-2.6-5.9-2.9-.5-3.8-1-2.7-1.6,2.1-1.3,5.3-9.1,5.3-12.8s-1.1-3.5-4.6-3c-1,0-1.3-1.1-.8-4.2.6-3.8.3-4.5-2.7-5.6-3.2-1.3-3.4-1.6-2.4-7.2.5-3.2,1.6-7,2.6-8.3,2.6-3.7,2.1-4.8-2.9-7.4-4.3-2.2-4.6-2.2-6.2,0-1,1.3-1.6,2.7-1.6,3.2s-1.1,1-2.7,1c-2.4,0-2.6-.5-1.8-5.1.5-2.9,1.6-6.2,2.7-7.7,1-1.4,1.8-3.7,1.8-5,0-1.9-.6-2.2-3.7-1.6-2.2.5-3.8.2-4.2-.8-.6-1.8,1.9-14.7,3.4-17,1.6-2.6-1.8-5.1-5.3-4.3-2.1.5-2.9-1.4-2.4-5.8,1.3-10.2,3.2-10.7,7.8-1.8,1.4,2.7,3,6.7,3.5,8.6,1.3,5.9,9.9,22.9,11.7,23,.8,0,1.6,1.1,1.6,2.6,0,2.9,4,5.3,6.7,4.3,4.3-1.6,1.3-8.8-4.6-10.9-2.9-1-2.7-3.7.3-6.4,2.9-2.6,3.2-5.9.8-8-1.3-1.1-2.4-.8-4.8,1.1-3.8,3-5.4.8-2.7-3.8,3.2-5.6,3.4-6.2,1.9-7.7-1.1-1.1-2.1-1.1-3.8,0-3.2,1.9-4,.3-3.5-6.2.3-4.6,0-5.3-2.1-5-3.4.3-4.2-1.4-3.4-7.8.3-3.4,0-5.4-.6-5.4s-1.6.6-1.8,1.4c-.3.8-1.1,1.1-2.1.5-1.1-.6-1.3-2.6-.8-6.4.6-4.3.5-5.4-1.1-5.4s-2.2.6-2.7,1.3c-1.6,2.6-4.6-1.6-3.8-5.6.3-2.1.8-5,1-6.2.3-1.4-.3-2.6-1.6-2.9-1.4-.3-2.7,1.3-4.3,5.4-2.2,5.8-2.2,5.9.6,11,5.9,10.2,9.8,18.9,8.6,19.2-2.6,1-4.8-1.1-4.8-4.6s-.8-3.8-2.6-4.5c-1.8-.5-2.6-1.9-2.6-4.3s-.8-4.2-1.9-5.1c-1-.8-1.9-1.1-1.9-.6s-.8.2-1.9-.6c-1-.8-1.9-3.5-1.9-6.2s-.6-5-2.7-5.9c-1.9-.8-2.7-2.4-2.7-4.8s-.5-3.5-2.9-3.4c-3,.3-12.8-6.6-12.5-9,.5-4-.2-4.8-4-4-2.1.5-4.8,0-6.2-.8-1.9-1.3-2.9-1.1-4.5.6-1.9,1.9-2.4,1.9-6.6-.2-3.5-1.8-6.9-2.2-16.3-1.9-10.2.2-12,0-13.4-2.1-1.6-2.4-5.3-3.2-5.3-1.1s.8,1.8,1.9,2.7c1.6,1.3,1.6,1.8.3,2.6-2.2,1.4-7.2,1.3-7.2,0s-7.7-6.4-9-5.6c-1.4,1,2.6,6.6,5,7,1.1.2-.8.8-4.5,1.3-5.6.8-7,.5-9.8-1.6-3.2-2.6-6.6-3.4-6.6-1.6,0,3.7,1.9,6.6,4,6.6s6.1,2.7,6.1,4.6-6.6,2.7-14.6,4.8c-18.1,4.5-31.2,4.8-45.8.8-5.4-1.4-15.2-3.4-21.8-4.2-10.2-1.3-11.4-1.8-9.4-3.2,2.9-2.1,12-2.1,24.8,0,11.7,1.9,53.6,1.9,55.4,0,1.6-1.6-12-15.8-14.4-14.9-1.9.8-1.3,3.8,1.6,7,1,1.1,1.3,2.4.8,2.9-2.1,2.1-5.3.3-9-4.8-5.4-7.7-8.3-5.4-4.6,3.5,1.9,4.5-3.8,2.2-9.8-4-5.9-6.1-9.4-7-9.4-2.6s1.4,3.2,3,4.3c3.8,2.6,4,4.5.5,4.5s-4.6-1.4-8-6.6c-1.6-2.4-2.7-3-3.5-2.2s-.5,2.4,1,4.6l2.2,3.4-4.2-.8c-4.2-.8-8.5-5-8.5-8s-1.3-1.9-2.9-2.2c-2.4-.6-3.2-2.1-4.5-8.2-1.4-7-3.8-10.1-4-5.3,0,1.1-.2,4.2-.3,6.4-.3,7.7-2.9,5.6-5.1-4-1.9-9-6.6-17-7.8-13.6-1,2.9-2.9,1.6-2.9-2.1s-.5-4-1.1-4.3c-2.6-1.6-5.3,5.6-6.2,17-.6,6.4-1.4,13.3-1.9,15.4-1.1,5.1,1.4,14.2,3.8,14.2s0,4.8-3.8,6.6c-4.2,1.9-8.6-.2-11.2-5.4-5.6-10.9-16.5-20.3-33.8-29.6-11.2-5.9-14.1-8.8-14.1-14.7s-.8-5.4-4-8.2c-4.6-4-7.8-3.8-8,.5,0,3.4-.2,3.4-9.9,1.4-10.4-2.1-11,.3-1.6,5.4,6.7,3.7,13.6,8.6,20.2,14.4,2.1,1.9,5,3.7,6.6,4.2s2.7,1.3,2.7,1.9c0,2.6-6.2,12-9.1,13.6-1.8,1-4.6,3.7-6.4,5.9s-4.2,4-5.3,4c-1.6,0-1.4-.5.8-2.9,1.4-1.6,2.7-3.7,2.7-4.6s1.1-3.7,2.6-5.9c3.2-5.1,2.4-9.1-1.1-5.9-1.3,1.1-3.2,4.2-4.5,6.9-1.4,3-3.7,5.4-6.4,6.7-3.2,1.6-4.3,2.7-4.3,5.3s-.5,3.2-2.7,2.6c-1.6-.5-4.5-.8-6.6-.8h-3.7l3-2.2c4.6-3.4,11.4-10.6,11.4-12.2,0-3.2-2.7-3-5.9.5-5.6,5.9-16,12.6-19.7,12.8-6.7.5-7,0-2.6-3.5,5-3.7,6.9-7.4,4.8-9.3-.8-.8-2.1-.5-3.5,1.1-5.1,5.1-17.8,12.8-21.1,12.8s0-3.2,3.2-5.8c3.5-3,5.1-7.8,2.6-7.8s-5.1,3.7-11,10.6c-1.8,2.1-3.7,3-4.8,2.6-1.1-.5-3-.8-4.5-.8-2.4,0-2.1-.5,1.9-4.8,2.6-2.6,4.6-5.1,4.6-5.6,0-2.4-4.3-.3-9.1,4.5-5.8,5.8-8.3,6.2-8.3,1.3s-.8-3-1.9-3-1.8-1-1.1-4.5c.8-4,.6-4.5-1.4-4-1.3.3-3.4,2.4-4.5,4.8-2.2,4.5-5.1,5.8-5.4,2.6-1.1-8.6-1.9-11.2-3.5-11.2s-3.5,4.5-2.9,9c.3,2.4,0,2.9-2.4,2.6-1.8-.3-3,.3-3.5,1.6-1.1,3-3,2.4-3-1.1s-.6-3.4-1.3-3.8c-.6-.5-1.3-2.9-1.3-5.4,0-4.6-2.2-9-4.6-9s-2.9,2.2-1.4,8.2c2.2,10.1-2.6,10.6-7.8.8-1.8-3.2-3.5-8.5-4-11.7s-1.3-5.9-1.9-5.9c-1.9,0-2.6,8.3-1.1,13.6.8,2.9,1.1,5.6.8,5.9-1,1-4.2-1.9-6.1-5.4-3.8-7-14.6-29-16-32.3-1.4-3.7-1.6-3.7-2.1-.8-.6,3.7,4.6,18.6,11,31.7,2.7,5.4,4.5,10.2,4.2,10.9-.8,1.3-4.3,0-4.3-1.6s-5.1-7.7-11.5-14.6c-1.6-1.8-4.2-6.6-5.9-10.6-1.6-4.2-5.8-11-9.1-15.5-6.7-9-6.9-7.2,0,7.2,2.4,5,4.2,9.6,4.2,10.4s1.9,5.3,4.3,10.1c3.3,6.5,4.3,9.8,2.9,9.8s-12.2-15.8-16.3-24.8c-6.9-15.7-10.9-23.4-12.5-24.8-2.7-2.2-3.7.5-1.6,4.5,1,1.9,3.2,9.1,5,16.2,1.8,7,3.7,13.9,4.5,15.2,1.1,1.9,1,2.4-.5,1.8-2.4-1-10.9-17.6-15-29.8-1.9-5.4-4.5-12.2-5.6-14.9-1.3-2.7-2.6-6.1-3-7.4-.5-1.3-1-2.1-1.3-1.8-1.1,1.1,2.2,17,6.2,29.6,2.4,7.2,4,13.3,3.7,13.6-2.1,2.1-8.8-11.4-11.7-24-1.4-6.2-6.9-19.8-9.1-22.7-3.8-5.1-4.5,2.2-1,11.5,4.8,12.8,4.5,20-.6,12.5-1.1-1.8-2.7-3.2-3.7-3.2-2.1,0-7.2-16-7.4-23.7-.3-9.3-.5-9.9-2.6-9.9s-2.4,1.4-3.2,3.2c-1.1,3.2-1.3,3.2-3.7,1.1-1.3-1.3-2.4-3.4-2.4-4.8,0-3.4,7.4-18.2,9.4-19,1-.3,1.9-1.4,2.4-2.6,1-2.6-.5-7.8-2.2-7.8-2.9,0-8.5,7.7-10.9,14.9-2.7,8-2.7,6.2-.3,44.8l.6,11.8-4.5,6.7c-2.4,3.7-4.5,7.4-4.5,8.3,0,2.1-5.9,6.9-8.3,6.9s-16,9.8-24.6,17.1c-2.7,2.2-9,6.1-13.8,8.5-9.1,4.5-8.6,4.3-56,9.3-7.5.8-17.1,2.2-21.1,3.2-4.2,1-9.3,1.8-11.5,1.8-3.7,0-4-.3-4-3.7s-1.6-4.8-4.3-1c-1.3,1.9-1.6,3.2-.6,4.3,1.8,2.2-10.2,3.5-21.9,2.4-9-.8-15.5,0-15.5,1.6s3.5,5.1,7.4,5.8c5.1.8,7.5,2.6,7.5,5.6s1.6,5.1,3.5,8.8,4,8.2,4.5,9.8c1,3.2,9.3,20.3,15.7,31.7,1.9,3.4,4,8.2,4.8,10.6,1.8,5.4,15.8,22.1,22.6,26.7,2.7,1.9,6.6,5.4,8.3,8,1.9,2.6,5.3,6.6,7.5,9.1,3.2,3.5,4.2,5.8,4.2,9.4s-.5,4.8-2.7,4.6c-1.9,0-3,1-3.8,3.4-1.4,4.3-.3,5.6,2.9,3.5,1.9-1.3,2.4-1.1,2.4.3s-.6,2.1-1.3,2.6c-1.9,1.1-1.4,2.4,1.3,4.2,2.2,1.3,2.9,1.3,4-.3,1.3-1.6,1.9-1.3,4.2,3,2.6,4.8,2.6,5,.3,6.2-1.3.6-3.2,1.3-4.2,1.3-2.9,0-3.4,1.9-1.1,4.2,6.9,6.6,11,9.1,13.1,8.5,1.9-.6,2.1-1,.3-3.2-2.9-3.8-2.6-6.4.6-3.7,4.5,4,9.6,14.7,11.2,23.4,1.8,9.9,1.3,11.8-3.4,12.5-5.1.6-5.9,0-7.8-5-2.1-6.1-3.5-7.7-5.9-6.9-1.1.5-2.6-.3-3.7-1.9-2.1-3-4.2-3.5-4.2-.8s-.8,1.9-1.8,1.9c-1.8,0-2.6-2.7-3.5-11.2-.2-1.8-1.1-3-2.2-3s-1.9,1.4-1.9,5.3-.5,5.6-.8,5.9c-1.3,1.4-3.5-7.4-3.5-14.4s-.6-8.6-1.3-10.4c-1-2.7-1.6-3-3.5-2.1-1.9,1-2.6.6-3.7-1.8-.8-1.8-2.2-3-3.4-3-5.8,0-13.4-11.4-11.2-17,.6-1.8,1.6-1.1,4.6,3,3,4.3,4.2,5,5.6,3.7,2.4-1.9,2.2-3.8-.3-6.9-2.9-3.4-7.8-10.2-7.8-11s-.8-1.6-1.9-2.9c-2.9-3.2-10.6-13.9-10.6-14.6s.8-.6,1.9-.6,1.9,1.1,1.9,2.4,1.9,3.5,5,5.3c2.7,1.6,5,3.7,5,4.6s.3,1.4.8,1c.5-.5,1.6-.2,2.4.5,2.1,1.8,4.3.3,3.4-2.2-1.3-3.5-6.9-8.6-7.5-7-.8,2.4-2.9,1.8-2.9-1s-.8-2.9-1.8-3.2-2.1-2.9-2.6-5.6c-.6-3.7-1.3-4.8-2.9-4.5-1.1.2-2.2,1.6-2.4,3.2s-1.3,3.2-2.2,3.5c-1,.3-2.7,2.2-3.7,4.3-1,1.9-2.2,3.5-2.7,3.5-1.3,0-5.6-13.8-4.6-14.7.5-.5,1.4.2,2.4,1.4.8,1.1,2.7,2.2,4.3,2.2s2.7-.8,2.7-3.7c0-5.1-1.1-7.5-3.7-7.5s-5.6-6.6-5.3-10.1c.3-3-1.9-3.8-4.3-1.4s-1.9,3.4-1.4,7.4c.6,4,.3,5.4-1.3,5.9-3,1.1-3.8,0-4.8-6.2-.8-5.4-.6-5.9,3.5-9.8,6.7-6.1,5.8-8.3-2.1-5-2.1.8-2.1.6-.2-3.8,1.8-4.3,1.8-4.8,0-5.8-1.1-.6-1.9-2.2-1.9-3.5,0-3.4-3.4-3-5.8.6-2.6,3.8-4.6,2.9-2.9-1.3,2.1-5.3,1.3-8.5-3.2-13.3-5.4-5.8-6.9-5.9-5.9-.5.8,4.6-1.1,6.9-3.8,4.6-1.6-1.3-1.1-5.9,1.1-11.7,1.6-3.8-2.6-7-9.1-6.9-3.2,0-6.4.6-7.4,1.4-1.1,1-2.4.5-4.6-1.6-4.2-4-4-6.2.6-6.2s4.8-1.1,6.2-2.4c3-3,3.4-9.4.5-10.4-3.4-1.3-4.3-.8-4.3,2.4s-.6,3.2-1.9,3.2-1.9-1-1.9-2.2-.6-3.2-1.6-4.5c-1.4-1.9-1.9-1.9-5.6,1.1-2.2,1.9-4,4.2-4,5,0,2.9-1.8,1.9-4.2-2.1-3.4-5.6-4.6-11.2-3.4-13.6.6-1.1,1.8-5.8,2.4-10.1,1.4-9.1,3.4-11,10.6-11.2,9,0,20.3-3.2,25.3-6.9,2.6-1.9,8-5.8,12.2-8.5s9.1-5.9,11-7.4c5.3-3.7,20.3-5.1,34.6-3.5,17.1,2.1,18.9,2.1,19.4.5.3-.8-2.6-2.9-6.1-4.8-8.6-4.3-12.6-8-10.9-10.1,1.4-1.8-2.7-5.3-10.1-8.3-4.3-1.8-8.3-5.4-7.2-6.6.3-.3,2.7.3,5.3,1.3,3.5,1.4,5.1,1.6,6.1.5s.8-1.8-1-2.9c-1.3-.8-4.3-2.7-6.9-4.5-2.6-1.6-6.4-3.2-8.8-3.4-3.7-.2-4.6-1-7.2-6.1-1.6-3.2-2.7-6.1-2.6-6.4.3-.2,3.7,1.8,7.7,4.5,6.7,4.5,11.7,6.4,10.1,3.8-.3-.6-5.8-4.6-11.8-9-10.2-7.2-13-9.9-10.2-9.9s1.6.5,2.2,1.1c2.1,2.1,18.9,10.1,21,10.1,4.2,0,1.8-2.4-7-6.7-11.5-5.9-19.7-10.4-22.1-12.5-1-.8-2.9-1.9-4-2.4-2.7-1-5.4-5.9-3.4-5.9s2.4.8,3.5,1.8c6.7,5.9,22.6,10.9,22.6,7.2s-3.5-2.9-7.8-5-10.4-6.1-13.4-8.8-6.9-5.1-8.5-5.3c-2.1-.3-3.4-1.6-3.8-3.8-.5-1.9-.6-3.7-.2-4,.3-.3,3.5,1.4,7,3.8,3.5,2.6,8.3,5,10.7,5.4,2.4.5,5.4,1.3,6.7,1.9,1.8.8,2.2.5,1.8-.8-.3-1-4-3.7-8-6.1-10.9-6.4-21.6-15.2-21.6-17.8s.3-2.2.6-2.2,5.9,2.6,12.5,5.8c17.4,8.5,17.3,5.6-.6-6.9-3.8-2.6-8.2-6.2-9.9-8-1.6-1.8-3.8-3.2-4.6-3.2s-1.6-1-1.6-2.1.6-1.8,2.2-1.1c1.1.5,3.8,1.4,5.9,2.1,2.1.6,6.1,3,9,5.4,5,4.3,7.8,5.4,7.8,3.2s-2.7-3.2-5.9-5.8c-6.9-5.4-21.4-20.3-21.4-21.8s3,.6,6.6,2.6c3.5,1.9,7.2,3.7,8.2,3.7,3.2,0,1.4-4.8-2.6-7.4-2.2-1.4-5.1-3.7-6.4-5.1s-3.4-2.6-4.6-2.6c-2.7,0-3-3.5-.5-5.4,2.9-2.1,3-10.7.2-12.5-1.9-1.1-2.6-1-3.7,1-3.4,5.4-9.4,10.7-12.5,10.7s-4-.5,1.1-3.7c4.5-2.7,5.6-5.6,2.9-6.6-1.3-.5-1.1-1,0-2.6,4-4.8-2.1-7.7-8-3.8-1.8,1.1-5.1,2.7-7.7,3.7-3,1-4.6,2.4-4.6,3.8,0,2.7-2.6,3.7-5,1.8-1.3-1.1-3.5-1-9,.6-4,1.1-8.5,2.4-10.1,2.7-3.8,1-3.5,2.9.6,2.9s2.6,1.6-7.5,5.6c-5.8,2.2-9.6,3-11.8,2.6-4.5-1.1-33-3.2-54.4-3.8-15.8-.5-17.8-.3-21.3,1.9-9,5.6-13,15.4-13,32s1.6,14.4,8.3,23.7c1.6,2.1,2.9,4.3,2.9,5s1.1,3.4,2.4,6.1,2.4,5.8,2.4,6.7,1.4,4.5,3.2,7.8c3,6.1,4.3,17,1.9,15.4-.6-.5-1.3-1.9-1.3-3.2s-.6-2.4-1.4-2.4-1.1,1.1-.6,2.7c1.1,4.3-1.4,15-4.2,17.6-3,2.9-6.1,2.1-6.2-1.9,0-2.1-.5-1.8-1.4,1.4-3.5,12.3-11.5,21.9-22.7,27.8-6.2,3.2-11.8,4.3-11.8,2.1s1.3-1.9,2.9-2.7c5-2.7,17-16.6,17.8-20.5.5-2.1,0-6.9-.6-10.7-1.6-8.3-13.4-33.3-18.9-39.5-2.1-2.4-3.8-4.8-3.8-5.4,0-1.1-14.4-19.2-17-21.4-2.9-2.4-17.9-24.8-20.6-30.4-1.9-4.2-2.7-9.1-3.2-19-.6-13-.5-13.6,2.7-18.1,6.1-8.6,2.6-12.8-3.7-4.5-3.4,4.3-3.4,4.5-2.6,18.9.6,12.6,1.3,15.5,4.8,23.4,3.8,8.5,11.5,19.5,21.9,31.8,6.7,8,1.3,4.3-7.8-5.1-8.2-8.5-13.9-16.2-20.2-27.4-3.8-6.6-4-7.7-4-19.7s1.6-22.7,7.7-29.1c2.6-2.7,4.8-5.8,4.8-6.7,0-3.2-3.5-1.6-8.3,3.7-6.9,7.5-8.3,13.8-7.5,32.3.5,13.3.5,14.9-1.1,12.8-3.8-5.1-5.8-15.5-4.8-25.9l-.2-.3ZM1202.4,732.2c.6.5,1,1.3.5,1.9-1.1,1.8-1.8,1.4-1.8-.8s.6-1.6,1.3-1.1h0ZM1224,602.1c-2.2-1.6-4-3.4-4-4,0-2.4,2.1-1,6.2,4.3,1.6,2.1,1.3,2.1-2.2-.5v.2ZM1220.5,491.1c-.8,0-3.2-1.9-5.4-4.3-5.8-5.9-4.3-6.2,1.9-.5,2.7,2.6,4.3,4.8,3.7,4.8h-.2ZM1200,377.2c0-.3,1.1-.5,2.7-.5,2.6,0,11,7.7,11,10.1s-3-1.1-6.9-4-6.9-5.4-6.9-5.6h0ZM1212.5,398.1c0,1.3-12.5-7.8-19-13.8-2.6-2.4-4.6-4.8-4.6-5.3,0-2.1,4.3-2.4,7-.5,3.2,2.1,16.6,17.9,16.6,19.5h0Z"/>
    <path class="st0" d="M429.1,514.6c-3.7,6.9-3.8,7.5-3.4,20.8.3,11.4,1,14.7,3.2,19,1.6,2.9,2.7,5.6,2.7,5.9,0,1.8-1.4,0-4.5-5.1-4.2-7-5.6-14.2-5.6-27.7s.5-11.2,2.6-14.6c6.2-10.1,10.4-8.8,5,1.6h0Z"/>
    <path class="st0" d="M443.5,488.2c5.9,0,17.3,3.5,19.4,6.1,2.1,2.4,0,2.2-2.7-.2-3.4-3-12.3-3.7-19.2-1.3-3.4,1.1-6.6,1.6-7.7,1-2.9-1.6,4.3-5.6,10.2-5.6Z"/>
    <path class="st0" d="M453,502.5c9.6,0,13.9,2.2,5,2.2s-13.4,2.9-17,8.2c-2.4,3.7-4.3,3.2-4.3-1.1s8-9.4,16.3-9.3Z"/>
    <path class="st0" d="M639.1,739.7c0-3.4,4-5.8,5.6-3.4.6,1.1.6,2.7,0,4.2-1.6,2.9-5.4,2.2-5.4-.8h-.2Z"/>
    <path class="st0" d="M657,748.7c-2.4.2-4.8,1-5.4,1.6-1.8,1.8-3.8.6-3.8-1.9s1.1-2.2,7.2-2.4c7.8-.3,9.6,2.1,2.1,2.9v-.2Z"/>
    <path class="st0" d="M674.4,745.2c-1,.6-2.9,1.1-4.3,1.1q-2.4,0,.3-2.7c2.2-2.2,3-2.4,4.3-1.1s1.1,1.8-.3,2.7Z"/>
    <path class="st0" d="M670.6,730c-3-.3-4-1.1-4.3-3.2-.3-1.9.2-2.7,1.6-2.7,2.2,0,6.6,3.5,6.6,5.3s-1.8,1-4,.8l.2-.2Z"/>
    <path class="st0" d="M665.3,734.8c-1,.3-3,0-4.5-.8-1.9-1.1-2.6-1.1-1.9,0,.5.8.2,2.2-.6,3.2-1.1,1.3-2.1,1.4-3.8.5-2.9-1.6-3-4.3-.5-5.4,1.1-.5,1.6-1.3,1.3-1.9-1.3-1.9,2.4-2.4,7.2-1,4.6,1.4,6.1,4.2,2.7,5.3l.2.2Z"/>
    <path class="st0" d="M682.6,729c-2.6,0-3-.5-2.4-2.4.5-1.4,0-2.6-1.1-3-2.2-.8-2.6-4.5-.5-4.5s7.2,5.1,7.2,7.7-1,2.2-3.2,2.2Z"/>
    <path class="st0" d="M691.9,739.6c1.8,0,4.2,7.4,2.9,8.6-1.3,1.3-4-.8-4.3-3,0-1.3-.3-3-.3-4s.6-1.6,1.8-1.6h0Z"/>
    <path class="st0" d="M680.7,739.6c1.9-1.1,3.7.5,2.9,2.6-.3,1-1.4,1.9-2.4,1.9-1.9,0-2.4-3.2-.5-4.3v-.2Z"/>
    <path class="st0" d="M656.5,760.9c3-1.1,13.1,10.4,11.5,13.3-1.6,3-3.7,2.7-7.5-1.3-5.9-6.1-7.5-10.7-4.2-12h.2Z"/>
    <path class="st0" d="M698.1,726.3c0,2.9-8,1.4-8.5-1.6-.3-1.3-1.6-3.7-3-5.3-2.4-2.6-2.4-2.9-.5-3.5,2.4-1,11.8,7.4,11.8,10.4h.2Z"/>
    <path class="st0" d="M1188.8,661.7c0-2.9,4.8-6.9,6.2-5.4.8.8-.3,3-3.4,6.6-2.4,2.9-4.8,5-5.3,4.6s0-1.3.8-2.2,1.4-2.4,1.4-3.5h.2Z"/>
    <path class="st0" d="M1141,688.5c1.9,2.6,2.2,8.3,1,16-.8,4.8-1.3,5.3-3.8,3.7-1.1-.6-1.4-3.8-1.1-10.6.5-10.6,1.4-12.6,4-9v-.2Z"/>
    <path class="st0" d="M1351.5,384.1c1.1,0,4.2-.3,6.9-.8,3-.5,4.6-.3,4.6.6,0,1.9-5.4,5.3-10.2,6.4-5.6,1.3-6.9,1.3-7.7,0-1-1.6,4-6.4,6.4-6.4v.2Z"/>
    <path class="st0" d="M1339.5,363.4c-3-3.8-3.2-5.4-.8-5.4s5.8,5.1,5.8,7.5-2.2,1.4-5-2.1h0Z"/>
    <path class="st0" d="M1335.7,365c0,3.5-4.6,1.6-7.2-3-1.3-2.4-1.3-2.9.5-2.9,2.6,0,6.7,3.5,6.7,5.8v.2Z"/>
    <path class="st0" d="M1342.9,389.5c.3,1.9-1.4,2.7-8.5,3.7-4,.5-6.2-.2-6.2-2.1,0-4.2,13.9-5.6,14.7-1.6h0Z"/>
    <path class="st0" d="M1354.1,365.8c-2.7,1.1-3.5.8-4.3-1.1-.8-2.1,1.4-4.2,4.3-4.2s1.6,1.1,1.6,2.4-.6,2.7-1.6,3v-.2Z"/>
    <path class="st0" d="M1144,453.2c0,2.2-2.6,2.6-4.8.5-2.1-2.1-1.9-7.2.3-7.2s4.5,3.7,4.5,6.7Z"/>
    <path class="st0" d="M1185.8,529.8c1.4,0,6.1,3,9.1,5.9,1.8,1.6,6.2,5,9.8,7.5,5.9,4,9,8,9,11.7s-6.2,0-16.8-10.2c-10.2-9.8-13.9-14.7-11.2-14.7l.2-.2Z"/>
    <path class="st0" d="M1176.3,640.4c0,1.3-.6,2.7-1.6,3-2.9,1.1-3.5.8-3.2-1.9.5-3.7,4.8-4.6,4.8-1.1Z"/>
    <path class="st0" d="M1189.3,557.5c.3-.5,2.6,1,4.6,3.2,2.2,2.1,5,4.2,6.2,4.6,1.3.3,2.2,1.3,2.2,1.9,0,1.9-1.9,1.3-7.2-2.6-5.4-3.8-7.2-6.1-6.1-7.2h.2Z"/>
    <path class="st0" d="M1195.5,577.5c-1-1-1.9-2.6-1.8-3.4,0-2.1,6.2,5.1,6.2,7.4s-.5,1.4-1.3,1.1c-.6-.5-1.3-1.3-1.3-2.1s-.8-2.1-1.9-3.2v.2Z"/>
    <path class="st0" d="M1181.1,580.9c1.8,0,16.3,12.3,16.3,13.8s-.8.8-1.8.3c-3.2-1.8-15.8-14.1-14.6-14.1Z"/>
    <path class="st0" d="M1182.7,641.5c1.1,1.1.8,2.2-1.4,4.6-3.2,3.5-4.5,3.8-5.8,1.8-.5-.8.6-2.9,2.4-4.6,2.6-2.6,3.5-2.9,4.8-1.8Z"/>
    <path class="st0" d="M1161.9,711.7c1.8,1.6,3.2,3.8,3.2,5s1.1,5.3,2.6,9.1c1.3,4,2.2,7.7,1.8,8.3-1.3,2.1-5,1.1-6.1-1.8-.6-1.6-2.7-3.5-4.6-4.5-2.6-1.3-3.5-2.6-3.7-5.6-.5-7,0-9.9,1.9-11.8,1.6-1.6,2.2-1.4,5,1.1v.2Z"/>
    <path class="st0" d="M1148,695.7c1.3.5,4.3,12.6,4.6,18.1,0,1.9-.6,2.7-2.2,2.7s-2.7-1.6-3.8-6.9c-1.6-7.2-.8-14.7,1.4-13.9Z"/>
    <path class="st0" d="M1136.3,320.2c-3.2-1.6-6.9-3.2-8.3-3.7-2.9-.8-3.7-3.4-1.1-3.4s5,.8,9,1.9c7.8,2.1,11.4,4.5,9.9,6.7-1.3,1.9-3.2,1.8-9.6-1.6h.2Z"/>
    <path class="st0" d="M1129.3,500.4c1.8-1.8,3.4-1.8,12.2-.6,5.6.8,12.5,2.1,15,2.9,5.4,1.6,11.5,6.6,10.4,8.5-1.1,1.8-1.9,1.6-5-1.1-1.9-1.8-6.2-2.6-17.4-3.7-15.8-1.4-18.7-2.7-15.5-6.1l.3.2Z"/>
    <path class="st0" d="M1122.9,338c10.9,4.3,13.6,5.4,13.6,6.6,0,2.4-7,.5-14.4-3.7-9.3-5.3-9-6.6.8-2.7v-.2Z"/>
    <path class="st0" d="M1123.4,350.5c-.5.8-1.8,1.1-2.7.8s-3.2-1.1-5-1.4c-4.3-1.1-2.9-3.7,1.9-3.4,4.6.2,7,2.1,5.6,4.2l.2-.2Z"/>
    <path class="st0" d="M1142.4,330.5c.3.8-.6,1.4-2.1,1.4-3.2,0-22.6-8.6-22.6-10.1s2.9-1.3,4.5,0c.6.6,5.4,2.6,10.4,4.2,5.1,1.6,9.4,3.7,9.8,4.5Z"/>
    <path class="st0" d="M1135.2,338c0,2.4-3.2,1.3-13.1-4.3-6.4-3.7-8.5-5.4-6.1-4.8,5.8,1.3,19.4,7.7,19.4,9.3l-.2-.2Z"/>
    <path class="st0" d="M1187.4,650c.8.5.6,1.8-.8,3.8-2.4,3.4-5.3,4-5.3,1.4s4.5-6.2,6.1-5.3h0Z"/>
    <path class="st0" d="M1318.7,362.8c-3.7-5.8-3.5-6.9,1-4.8,3.4,1.6,5.9,5.8,5,8.3-1,2.7-2.7,1.8-6.1-3.5h.2Z"/>
    <path class="st0" d="M1323.2,387.3c1.9,1.1,1.4,4.2-1,5.4-3.4,1.9-5.3,1.6-5.3-.8s4.5-5.8,6.2-4.6Z"/>
    <path class="st0" d="M1200,555.6c0,2.1-3.5.5-6.2-2.9-1-1.1-3.8-3.5-6.4-5.1-6.9-4.3-5.8-6.2,1.3-2.2,7.2,4.2,11.5,8,11.5,10.2h-.2Z"/>
    <path class="st0" d="M1361.5,718.1c1.8-.5,2.1,3.4.8,8.2-.8,2.7-4.6,3.8-5.9,1.8-.8-1.4,3.2-9.3,5.1-9.9h0Z"/>
    <path class="st0" d="M1308.2,357.7c1.1-1.1,2.2-.6,5.1,2.9,1.9,2.4,3.7,5.3,3.7,6.6,0,3.7-3.2,2.4-6.9-2.9-2.7-4-3.2-5.3-1.9-6.6Z"/>
    <path class="st0" d="M1334.7,718c.5,2.6.6,2.4,2.9-1.8,2.6-5,5-5.6,5.1-1.1.2,4-3,8-5.8,7-1.9-.6-2.4-.2-2.4,1.9s-.5,2.4-2.4,1.3c-2.6-1.4-4.5-8.6-2.7-10.4,1.8-1.8,4.8,0,5.4,3.2l-.2-.2Z"/>
    <path class="st0" d="M1431.1,850.5c-.6,2.7-.5,3.2,1,2.7,1-.5,2.7,0,3.8,1.1,1.4,1.4,2.4,1.6,4.5.5,5.3-2.9,6.4.8,2.2,7-2.6,3.8-7.2,5.6-7.2,2.9s-1.4-1.3-3-1.3c-3.8,0-4.8-1.4-3.4-5.3,1.1-2.9,1-2.9-3.4-2.4l-4.5.5,3.2-4.2c1.8-2.2,4.2-4.5,5.4-4.6,1.8-.3,2.1.2,1.3,2.9v.2Z"/>
    <path class="st0" d="M1371.4,727.9c5.3-3.7,8.6-1.9,4.3,2.2-2.7,2.7-4.8,3.2-7.2,1.6-1-.6,0-1.9,2.9-3.8Z"/>
    <path class="st0" d="M1184.3,330.6c1.9,0,2.7,6.2,1.1,7.8-1.9,1.9-2.9.6-2.9-3.5s.6-4.3,1.9-4.3h-.2Z"/>
    <path class="st0" d="M1307.1,385.3c1.6,0,4,6.1,3,7.5-1,1.6-4,1.4-5-.2-1.1-1.8.5-7.4,1.9-7.4Z"/>
    <path class="st0" d="M1232.7,321.8c1.9,0,.8,4.3-1.9,7.2-2.2,2.4-2.9,2.6-3.2,1.1-.5-1.9,3.4-8.2,5.1-8.2v-.2Z"/>
  </g>
  <path class="st1" d="M667.7,815.4c1,3.2,3.7,12.6,5.9,20.8,2.2,8.2,5.6,20,7.4,26.1,5,17.8,5.9,21.6,5.8,27.7,0,7.4-1.8,9.1-9.1,9.4-8.5.5-8.6,2.9-.3,8l6.6,4v6.4c0,5.4.3,6.4,2.2,6.4s3.7-1.8,5.3-3.8l3-3.8,3.7,4c4.6,5,7.7,4.5,6.6-1.3-.5-2.1-1-4.3-1-5-.3-2.6,5.8-1.8,19.7,2.4,26.7,8,37,11,69.3,21.3,17.6,5.4,34.1,10.4,36.6,10.9,2.4.5,4.8,1.3,5.1,1.8.3.6,0,4.5-.8,9-1.1,6.6-1.1,8,0,8.8,1.8,1.1,5-.6,12.6-6.7,2.7-2.2,5.4-4,5.9-4s3.7,2.2,7,4.8c6.1,4.8,13.6,8,13.6,5.9s-1.3-5.1-2.9-10.2c-1.6-5-3-10.1-3-11s2.1-4.2,4.8-6.6c2.9-2.7,4.8-5.8,4.8-7.4,0-2.6-.5-2.7-7.4-2.7s-8.2-.5-9-1-2.7-4.2-4.2-8c-2.1-5.4-3.4-7.2-5.4-7.5-3.2-.5-4.8,1.4-4.8,6.1,0,6.7-1.8,8-10.6,8s-14.4,1.9-14.4,4.3,1.3,3,3,5c1.6,1.9,3,3.8,3,4.3,0,2.7-22.7-3.5-88-24.3-14.7-4.6-27.7-8.8-29-9.1-3.2-1-2.1-5.1,2.4-8.2,5.1-3.5,21.8-10.1,68.2-27.4,34.1-12.6,54.9-19.7,55.7-18.9s-.8,7.2-2.9,14.6c-1.3,4.6,2.7,3.2,10.6-3.8l7.2-6.4,4.3,2.4c2.4,1.3,6.6,4,9.3,5.9,3.7,2.7,5.9,3.4,8,2.9,3.7-1,3.7-1.6-.6-8-1.9-2.9-4.3-7.5-5.4-10.4l-2.1-5.1,5.4-5c5.9-5.4,7.8-9.9,3.8-9.4-1.3.2-5.3.6-9,1l-6.6.6-3.5-6.9c-2.6-5-4.3-7-6.2-7.4-1.9-.3-2.7.2-2.7,1.8s-.8,3.5-1.6,5.3c-.8,1.6-1.9,4.5-2.4,6.2-.8,3-1.1,3.2-8.5,3.2s-9,.5-10.7,1.1c-2.7,1-2.9,1.6-1.8,3.5.6,1.3,3.4,3.5,5.9,4.8,5.1,2.6,5.9,4,2.6,5.3-1.1.5-8.5,3.2-16.3,6.2-18.1,6.9-36,13.8-51,19.5-6.4,2.6-12.3,4.6-13.1,4.6s-2.9.8-4.6,1.8c-1.8,1-9,3.7-16,6.1s-13.8,4.8-14.9,5.4-4.8,1.4-8.3,1.8l-6.2.8-2.1-4.6c-1.1-2.6-3-6.4-4.3-8.8-2.2-4.2-9-26.6-16.2-53-2.1-7.8-5.6-19.8-7.7-26.7s-6.1-21.1-9-31.5-5.4-19.8-5.9-21c-.6-1.3.5-3,3.5-5.4,5.9-5,5.3-8.2-1.4-7.7q-5,.3-8.2-5.8c-4.6-9.1-6.1-15-9.4-37.9-1.8-11.5-3.8-24.6-4.8-29.1-1.8-9.1-11-61.8-12.5-71.4s-2.4-13.4-4-22.6c-3.7-19.7-5-31.5-3.4-31.5s1.8.6,2.6,1.4c1.3,1.1,1.8,1.1,3.2-.6,1.4-1.9,1.3-2.9-.6-6.6-2.9-5.3-2.9-6.4-.2-8.8,2.9-2.6,19-8.5,20.5-7.5.8.5,1,3,.5,6.6-.6,5.3-.5,5.9,1.4,5.9s2.7-1.4,3.8-4.2c1.9-5.3,4.6-5.3,8.3,0,3,4.5,3.4,4.6,6.1,3,1.4-1,1.6-1.8.3-5.1-2.7-7.4-2.1-8.5,6.6-13,4.5-2.2,17.1-9.3,28.3-15.5,21.1-11.8,28.6-16,58.7-31.8,10.1-5.3,19.5-10.6,21.1-11.7,4.6-3,6.1-.6,3.7,5.8-1.1,2.7-1.8,5.1-1.6,5.4,1,1,8.8-3.4,12-6.7,1.9-2.1,4-3.7,4.6-3.7s3.2,1.9,5.6,4.3c3.8,3.7,4.6,4.2,6.7,2.7,1.9-1.1,2.1-1.9,1.1-3.5-.8-1.1-1-2.4-.5-2.9,1.1-1.1,14.4-.6,27,.6,5.6.6,17.4,1.8,26.4,2.4,24.5,1.9,46.9,4.3,48.6,5.4,1,.6,1.3,3.2.8,9-.6,7.5-.5,8,1.6,7.4,1.3-.3,2.6-1.4,3-2.6.3-1.1,2.2-3.2,4.3-4.8l3.5-2.7,4.5,4.8c2.4,2.7,5,4.8,5.8,4.8,1.4,0,6.1,4.8,8.2,8.2,2.2,4,13,19.5,16.5,24,3,3.8,3.2,4.5,1.9,8.8-1.6,5-4.3,6.7-11,6.7s-5.8,4,0,6.1c5.3,1.9,5.8,3.2,3.5,10.6-1,3.4-1.4,6.6-1.1,7.2.8,1.3,4.6-.3,8.5-3.8,5.4-5,10.7.5,19,19.5,5.6,13.1,5.6,13.9-1.3,14.2-3.5.2-6.9.5-9.8.8-3.7.5-.8,3.8,6.4,7.5l7.8,4-.8,7.2c-.5,4-1.1,8.6-1.4,10.4-.8,4.3,1.4,3.8,7.8-1.6,2.9-2.4,6.7-4.8,8.6-5.1,3-.6,4.3,0,8.5,4.2s6.1,4.8,8.2,4.8c3.5,0,4-1.1,1.8-5.1-2.1-3.7-4.5-10.6-4.5-12.8s1.3-2.2,2.9-2.7c3.5-1,10.2-7,10.2-9.4s-1.4-1.9-4.5-2.2c-4.3-.3-4-.6,18.1-15.4,28.6-19,30.4-19.8,30.4-16s4.6,1,6.7-2.4c2.4-3.7,3.7-3.5,9.6.8,4.3,3.2,5.3,3.5,7.2,2.1,2.1-1.4,2.1-1.9.6-3.8-3.7-5-2.4-6.2,8.8-8.2,5.8-1,16.6-2.7,24.2-3.7s17.6-2.4,22.4-3,9.1-1,9.8-.6c.6.3,1.1,2.4,1.1,4.6,0,3.5.3,3.8,2.9,3.4,1.6-.3,3.8-1.6,5-2.9,4-4.3,4.6-3.2,7.2,13.9,1,6.2,2.6,16.5,3.5,22.9,3.2,19.4,3.4,21.4,1.1,23.7-1.1,1.1-1.9,3.4-1.8,5.1.5,7.4.6,7.2-8.3,7.2s-10.9,1.4-1.4,7.5c2.7,1.8,5.1,3.8,5.1,4.5s-1.6,5-3.5,9.4c-4.2,9.4-4.2,9.9-1.4,9.1,1.1-.3,2.9-.2,3.8.5,1.4,1,1.4,1.9-.8,6.9-1.4,3.2-5.9,13.8-9.9,23.5-4,9.8-8.8,20.8-10.7,24.3-2.9,5.6-3.4,6.2-4.2,4.2-.5-1.3-1.9-4-3.4-5.8l-2.4-3.5-2.2,2.7c-1.1,1.4-2.2,3.5-2.2,4.6s-.6,4-1.3,6.6c-1.4,5.3-4.8,7.2-15,8.5-3.4.5-6.7,1.6-7.5,2.6-1.1,1.3-.5,2.1,3.8,4,2.9,1.3,7.4,4.2,9.8,6.4,4.5,3.8,4.6,4.2,3.4,8.2-.6,2.2-1.6,6.9-2.1,10.4-1.1,8.3.6,8.2,9.1-.3,3.5-3.5,6.9-6.6,7.5-6.6s3.7,2.2,7.2,5c3.4,2.7,7,5.9,8.3,6.9,1.1,1,3.5,4.2,5,7.2,1.6,3,3.7,6.2,4.8,7,2.4,1.9,9.3,15.4,8,15.7-.5,0-3.4.2-6.2.3-7.7.2-7.5,2.9.6,7.8l6.7,4-.6,7.5c-.6,6.7-.5,7.4,1.3,6.7,1.1-.5,2.6-1.3,3.2-1.8.6-.6,3-2.4,5.4-4l4.2-3,2.6,3c1.4,1.6,3.4,4,4.3,5.4,1.1,1.6,2.4,2.2,3.7,1.8,2.6-1,2.4-1.9-.5-7.7-3-5.9-3-6.6.5-11,1.6-2.1,3.2-5.3,3.7-7q.8-3.4-5.3-3c-3.4,0-6.2,0-6.4-.3-.3-.3-1.8-3.2-3.2-6.4-3.4-7.2-5.3-8-7.4-3.2l-1.6,3.7-2.4-2.7c-2.4-2.7-7.7-10.1-11.4-16.2-3-4.8-10.1-19.4-11.5-24q-1.3-4.2,5.8-10.7c4.3-4,7.4-8,7.8-9.9q.8-3.4-3.7-2.6c-2.6.5-6.6,1.1-9.1,1.6l-4.6.6.6-4.2c.6-4.3,27.2-66.9,30.4-72.2l1.8-2.9,6.2,6.7c5.8,6.2,6.2,6.6,8,4.5,1.1-1.1,1.9-2.7,1.9-3.5,0-3.4,5.9,0,19,10.2,3.5,2.9,8.8,6.2,11.7,7.7,6.7,3.2,7.5,4.8,5.9,12.6-1,4.8-1,6.7.2,7.7,1.1,1.1,1.8,1,2.6-.6.6-1.1,2.2-2.1,3.5-2.1s2.4-.5,2.4-1,1.3-2.6,2.9-4.5l2.9-3.5,5.3,5.3c4.5,4.3,5.6,5,7,3.8,1.6-1.3,1.3-2.2-1.8-7-1.9-3-3.5-6.4-3.5-7.4,0-3.2,7.4-6.9,19-9.4,6.2-1.4,13-3,14.9-3.7,3.4-1,23.5-4.8,25.6-4.8s.6,2.7.3,5.9c-.5,3.8-.3,5.9.6,5.9s2.1.3,3,.6c1.1.5,2.1-.2,2.6-1.6.5-1.3,2.1-3.7,3.7-5.4l2.9-3.2,4.3,4.8c3.4,3.7,5,4.8,7.5,4.3q3.4-.5,1.4-10.2c-1.1-5.8-1.1-6.7,1-9,1.3-1.3,2.6-3.8,3-5.6.8-3.5-.6-4.6-7-4.6s-4.3-.5-6.7-5.6c-3.8-8.2-6.7-9.6-8-3.8-.3,1.6-1.4,2.9-2.4,2.9s-1.8,1.1-1.8,2.4q-.3,7.2-7.4,9.4c-3.7,1.3-7.5,2.4-8.5,2.6-2.4.6-1,3.2,2.1,4,5.9,1.4,2.4,3.2-11.7,5.6-8.2,1.4-19.7,3.4-25.4,4.5-12.2,2.2-14.9,1.8-14.9-2.2s-7.5-11.4-9.6-11.4-1.3,2.6-1.8,5.6c-.8,4.5-1.9,6.2-5.1,8.3-8,5.3-11.7,3.8-32.2-12.6l-11.2-9,4-3.4c3.4-2.7,3.7-3.7,2.7-5.4-.6-1.1-3.7-2.6-6.6-3-5.8-1.1-10.2-6.1-10.4-11.5,0-1.6-.6-5.6-1.3-9-3.2-15.2-8.5-47.7-8.2-50.4.5-3.8,2.2-4.3,5.6-1.4,3,2.6,3.7,2.7,6.6,1.8,2.7-1.1,2.4-3-2.2-9.4-2.2-3.2-4.2-6.6-4.2-7.2s2.4-3.4,5.4-5.9c5-4.2,5.4-4.8,4.8-8.6-.6-3.5,0-5.3,5.3-12.5,7.7-10.7,22.6-32.5,32.2-47,4.2-6.2,9.4-13.1,11.8-15.5s5.8-6.6,7.5-9.3c1.8-2.7,4-5.1,5-5.1s2.9,2.1,4.6,4.8c3.5,5.6,5,5.9,6.6,1.6.8-2.2.8-4.8-.5-9l-1.8-5.8,4-3c2.6-1.9,4-4.2,4-5.9,0-2.6-.5-2.9-5.6-2.9h-5.6l-4-8.3c-5.1-10.9-8.5-10.9-8.6,0,0,8.2-1.3,13.3-3.4,13.3s-1.6-.2-.3-1.1c2.7-1.8-.3-2.4-5.8-1.1-10.6,2.4-11.7,5-3.8,9,6.7,3.4,8.6,5.3,8.6,8.6s-4.2,9.4-11,19.7c-24.8,37.3-34.4,51.2-43.8,63.5-5.4,7.2-11,9-14.2,4.6-5.6-7.5-7.2-9.3-8.2-9.3s-1.3,0-4,9.9c-2.1,7.4-3.5,8.5-13,10.2-2.6.5-4.6,1.3-4.6,1.9s1.9,2.4,4.5,3.8c3.2,1.8,4,2.9,2.9,3.2-6.9,2.4-60,9-61.3,7.5-.3-.3.2-2.1,1.3-3.7,1.9-2.9,1.8-3-.5-4.3-1.3-.6-3.4-1.3-4.5-1.3s-3.7-1.9-5.8-4.3c-4-4.6-5.9-4.6-7.8.5-.6,1.6-1.4,2.7-1.9,2.4-.5-.3-5.4-2.7-11-5.4-14.1-6.7-14.2-7-7.7-14.4,8-9,7.5-10.1-4-9l-9.3.8-3.2-5.8c-5.4-9.8-11.5-23.2-11.5-25.3s-.5-2.6-1-3c-.6-.6-3-6.2-5.4-12.5s-5.1-13-6.1-14.9c-.8-1.9-3.7-9.1-6.4-15.8-4-10.4-4.6-12.6-3.4-14.6,1.1-1.9,1.1-3-.6-5.8-2.1-3.4-1.9-3.5,1-7,4.5-5.3,4-8.3-1.4-8.8-4-.3-4.6-1-7.2-6.1-3.2-6.7-6.2-7.5-6.2-1.8s-.3,4.3-.8,4.6c-1,1-13.8-5.4-15.7-7.8-1.9-2.2.8-6.1,7-9.9,4.6-2.9,6.2-6.9,3.2-8-.8-.3-4-.3-7,0-8.8,1-11.2,0-14.1-6.6-3.4-7-6.9-12.2-8.3-12.2s-1.4,2.6-1.8,5.8c-1.1,8.5-2.4,9.8-5.6,5.6-1.4-1.9-4.6-5.6-7-8.3-10.4-11.4-36.5-48.5-36.5-51.8s2.7-4.5,5.9-7.8c6.7-6.7,7.8-9.8,2.7-8.2-1.8.5-5.9,1-9,1h-5.8l-2.4-7c-4-12-7.2-11.5-10.1,1.9l-2.1,9.3-9.6.3c-11.8.5-12.3,2.1-2.9,7.8l6.7,4,.8,8.2c.8,7.2,1.1,8.2,3.4,8.2s4-1.9,6.4-5.3c2.1-2.9,4.8-5.3,6.1-5.3,2.2,0,14.7,12.6,21.6,21.8,2.2,3,5.8,7.7,7.7,10.2s6.2,8.2,9.6,12.5c3.2,4.3,7.2,9.4,8.6,11.4s2.7,4,2.7,4.6c0,1.3-1.9,1.8-10.1,1.8s-7,3.2-.5,6.6c2.9,1.4,6.4,3.5,8.2,4.8l2.9,2.2-1.9,9.3c-1.1,5.1-2.1,10.1-2.4,11-.2,1,.6,1.9,1.9,2.2,1.8.3,4.2-1.4,9.1-7,6.4-7.2,6.9-7.5,9.6-5.9,1.6.8,3.7,3.4,4.8,5.6,2.1,4.3,7.2,8.3,9.1,7.2.6-.5,3.7.3,6.7,1.6q5.4,2.4,4.6,7.2c-.5,2.6-.5,5.3,0,5.9,1.1,1.8,5.1,0,5.9-2.4,1.3-5,4-.3,13.3,22.9,3,7.5,5.9,14.7,6.6,16,.6,1.3,3.8,9.3,7.2,17.9,6.1,15,6.2,15.7,6.4,28.2v12.6l-5.8,1.3c-3.2.6-7.2,1.4-9,1.6-5.6.6-4.3,4.2,2.2,6.4,3.4,1.1,6.1,2.4,6.1,2.7,0,.6-21.6,10.1-25.8,11.2-1.4.5-3,0-3.4-.6-.8-1.3-6.4-.8-10.6.8-1.6.6-10.1-10.1-10.2-12.8,0-1-2.6-4.6-5.8-8.3s-8-10.7-10.6-15.5c-2.7-4.8-7.4-11.7-10.2-15.2-3-3.5-5.4-7.4-5.4-8.5s1.3-3.2,3-4.8c4.2-3.8,3.5-7.7-1.3-7.8-1.9,0-4.5-.2-5.6-.3-1.1,0-2.1-1.1-2.1-2.2s-1.6-3.8-3.4-6.1c-2.9-3.5-3.7-3.8-5.9-2.6-1.8,1-2.6,2.6-2.7,5.3-.3,8.2-1.3,9.8-7.7,10.9-7.4,1.3-36.3,1.1-48.2-.5-5-.6-16.6-1.8-26.2-2.4-20.3-1.6-27.4-3-27.4-5.8s1-2.6,2.2-3.4c1.6-1,2.1-2.2,1.6-4.6-.6-2.9-1-3.2-5.3-2.4-4.3.6-4.8.5-6.7-3-3.4-6.2-7-10.1-8.3-8.8-.6.6-1.4,4-1.8,7.4-.3,3.4-1,6.7-1.3,7.2s-4.5,1.1-9.3,1.3c-4.8.2-9.1.6-9.6,1-2.1,1.3-.8,3.8,2.7,5.3,1.9.8,3.8,1.9,4.2,2.4.5.8-19.8,13.6-28.6,17.8-1.9,1-6.2,3.4-9.6,5.4-3.2,2.1-8.5,4.8-11.5,6.2s-8.2,3.7-11.4,5.1c-3,1.4-7.5,3.7-9.8,5.1-12.8,7.8-34.2,17.9-38.7,18.2-2.6,0-5.8.3-7,.5-1.9.3-2.9-1.1-4.8-6.9-1.9-5.4-3-7.2-4.8-7.2s-2.6,1.3-3.5,6.2c-1.4,7.2-2.4,8.2-10.4,9.3-5.9.8-6.7,1.4-4.3,3.8s1,2.6-4.6,3.8c-8.6,2.1-9.8,1.6-12.5-4.2-2.1-4.8-6.4-8.8-7.8-7.4s-1,3.2-1.4,6.4l-.8,5.8h-8.3c-4.5.2-8.5.8-8.6,1.3-.2.6,2.9,3,6.9,5.6q7.2,4.6,6.6,9.3c-.5,2.6-1.1,6.7-1.4,9.3-.6,3.8-.5,4.8,1.1,4.8s2.7-1.6,3.7-3.4c1.6-3,5.1-5.6,6.1-4.6s1.8,6.9,2.4,12.8c.3,2.9,1.6,10.7,2.9,17.3,5.9,30.7,8.3,44,10.7,58.9,2.7,17.3,6.6,39.5,9,53,3.8,20.6,6.7,44.8,5.9,50.1-1,6.9-4.6,10.4-12.6,12.5-7.4,1.9-7.4,4.2,0,6.9l5.3,1.9v6.6c0,3.5.5,7,1,7.8,1,1.3,5.6.8,5.8-.6,0-.5,1.6-2.6,3.5-4.8,3.4-4,3.5-4,5.9-1.9,1.3,1.1,2.4,2.9,2.4,3.8s1.1,2.7,2.6,4.2c3.2,3.2,5.9,10.7,11,29.6,2.2,8.2,4.8,17.6,5.8,20.8l-1.4-.5ZM825.8,931.9c.5-.5,1.4-.5,2.1,0,1.8,1.1,15.5,1.9,18.1,1.1,1.1-.3,2.2-2.4,2.7-4.8,1-5.1,3-4.8,4.8.6,1.6,4.5,2.9,5.4,9.3,6.6,5.4.8,5.6,2.2,1,5-4.2,2.4-4.2,2.6-1.8,10.4,2.9,9.4,2.2,9.9-4.3,3.7-2.4-2.2-5.1-4.2-6.1-4.2s-3.7,2.4-6.1,5.3c-6.4,7.8-7.5,7.4-5.4-3l1.1-5.4-8-7.4c-4.3-4-7.5-7.7-7.2-8.2l-.2.3ZM838.1,840.9c5.3-.3,9-1.8,9-3.5s1-2.1,2.1-3.4c2.1-2.1,2.2-2.1,4.2.6,1.3,1.8,3.4,2.7,5.4,2.7,5,0,5.3,1.8,1.1,5.3l-3.7,3,2.7,4.6c1.4,2.6,2.2,5.1,1.8,5.6-.5.5-3.4-.3-6.4-1.9l-5.4-2.9-2.7,3.2c-3.8,4.5-4.5,4-3.5-1.9l.8-5.1-5.6-2.7c-3-1.4-5.3-2.9-5-3.2s2.6-.6,5.1-.8l.2.3ZM690.1,901.8c2.4-3.4,2.6-3.4,4.6-1.3,1.3,1.3,3,1.9,4.6,1.6,3-.8,3.2.8,0,3.5-1.3,1.1-2.4,2.9-2.4,3.8s-1.3,1.8-4,1.8c-5.4,0-6.7-4.3-3-9.4h.2ZM1175.4,781.2c6.7-4,8.6-4.5,10.6-2.7,1.1,1,3,1.8,4.2,1.8,1.8,0,1.9.3.6,1.8-.8,1-1.9,1.8-2.6,1.8s-2.9,1.3-5,3c-4.5,3.4-5.6,3.7-4.6,1.1.3-1-.3-2.9-1.4-4.2-1.1-1.3-1.9-2.4-1.6-2.6h-.2ZM1122.7,717.2c-3-1.8-2.6-3,1.1-4,3.7-1,5.6.5,4.5,3.4-.8,2.2-2.6,2.4-5.6.6ZM1147.9,709.3c6.4-.8,6.4,1.6,0,6.9-5.4,4.6-5.8,5.8-2.2,10.6s1.9,5.8-3.5,1.9c-2.6-1.8-5.1-3.2-5.9-3.2s-2.4,1.9-3.5,4.3c-2.7,5.6-5.8,7-4.6,2.1.5-1.9,1.6-4,2.4-4.6s2.2-6.1,3-11.8c1.9-14.1,2.4-14.9,6.4-9.8,2.9,3.8,3.5,4.2,8,3.5v.2ZM1319.9,626.3c5.8-2.4,14.9-2.6,14.9-.2s-2.6,3-7.2,3-3.5.5-3.5,1.1c0,1.6-2.2,1.3-5.8-.6l-2.9-1.6,4.5-1.9v.2ZM1238.9,647.1c1.6,0,3.5-1.1,4.6-2.7l1.8-2.7,2.6,2.7c2.6,2.7,2.6,6.2,0,6.2h0c-.6,0-2.2,1-3.4,2.2-1.9,2.1-2.1,2.1-5.3-1-4-3.8-4.2-4.8-.5-4.8h.2ZM1182.3,607.9c.8,1.3,2.4,2.2,3.7,2.2,3.2,0,4.3,2.4,1.9,4.3-1.4,1-1.8,2.4-1.3,4,1,3,.6,3-2.6,0-2.2-2.2-2.9-2.4-4.5-1-1.6,1.3-2.2,1.1-3.7-.6-2.2-3-2.2-3.2,1.6-7.4,3.2-3.4,3.4-3.5,4.8-1.3v-.3ZM1245.5,402.8c2.4-1.4,3.5-3,3.5-5s.5-2.9,1.1-2.9,1.1,1.1,1.1,2.2,1,3.2,1.9,4.3c1.6,1.6,1.6,2.2.5,2.9-.8.5-2.4.6-3.7.3-1.1-.3-2.4,0-2.9.8-1,1.6-1.9,1.6-3.8.3-1-.6-.3-1.6,2.1-3h.2ZM1157.5,515.3c1.9-.6,3.8-2.2,4.3-3.4.3-1.1,1.1-3.5,1.9-5.1l1.1-3,2.2,4.5c1.8,3.4,3,4.5,5.4,4.5s3,0,1.1,2.2c-1.1,1.1-1.9,3-1.9,4.2s-1,1.9-2.1,1.9-3.5,1.4-5.4,3.2c-3,2.9-3.4,3-3.4.8s-3.8-6.4-5.9-6.4-1-2.2,2.4-3.4h.2ZM1072,526.8c2.9-2.7,4.2-3.2,5.4-2.1,2.1,1.6,2.1,6.1.2,8-1.9,1.9-5.1,1.8-7.4-.5-1.8-1.8-1.6-2.2,1.9-5.4h-.2ZM886.1,281.8c-1.1,0-3.2,1.9-4.5,4.2-3.4,5.6-5.1,5.3-4.8-.8.3-4.5,0-5.1-3.5-6.9-4.2-2.1-4-3.7.5-3.7s3.4-1.1,4-2.4,2.1-2.4,2.9-2.4,1.9-.6,2.4-1.4c.5-1.1.8-1.1,1.4,0,1.6,3.5,5.1,5.9,7.5,5.3,1.3-.3,2.4-.2,2.4.3,0,1.8-6.4,7.7-8.5,7.7l.2.2ZM953,366.6h0c-1.8,0-4.6,1.9-7,4.5l-4,4.3.6-3.8c.3-2.1,1-5.4,1.3-7.2.6-2.7,0-3.7-2.4-5-4-2.1-4-3.7,0-3.7s7.7-2.1,7.7-5.9,1.9-4.5,4.8,1.3c2.4,4.6,3.7,5.3,9.3,4.8,1.4,0,2.7.2,2.7.6,0,2.1-10.2,10.1-13,10.2v-.2ZM974.9,379.4c-1.1,1.8-5.3,1.4-6.1-.6-.3-1-.3-2.2,0-2.6,1.1-1.1,6.9,1.9,6.1,3.2ZM989.5,384.9c-1.4,1.4-9,1.9-9.8.6-.5-.8-.6-1.4-.5-1.4s1.8-.3,3.4-.6c1.6-.3,3.2-1.1,3.7-1.8.5-.8,1.3-.5,2.2.6.8,1,1.3,2.1,1,2.4v.2ZM1003.7,587.1c-4.3,2.1-5.9,5.6-3.2,7.2.6.3,1.1,1.3,1.1,1.9s-1.1.3-2.7-.6c-3.8-2.7-5.1-2.4-8,2.4-2.7,4.3-6.6,7.2-7.5,5.6-1-1.4.3-8.8,1.8-10.6,1.6-1.9-1.6-7.5-4.3-7.5s-1.8-.5-1.8-1.1c0-1.4,4.3-2.9,6.1-1.8,2.6,1.6,6.9-.6,8.2-4.3,1.4-4.2,1.9-4.2,4.6,1.6,1.4,3,2.9,4.2,6.1,4.6l4.2.6-4.5,2.2v-.3ZM1019.5,502c3.2,0,3.5-.3,3.7-3.8,0-2.1.6-5.4,1.6-7.4l1.4-3.5,3.5,5.3c3.4,4.8,4,5.3,8,5,2.4-.2,4.3,0,4.3.6,0,1.8-8.2,9.9-10.1,9.9s-3.2,2.1-4.8,4.8c-1.6,2.6-3.2,4.8-3.5,4.8-1.4,0-1.9-2.9-1.3-6.1,1-4.2-1-7-4.3-7s-2.2-.5-2.2-1.1,1.6-1.1,3.5-1.1l.2-.3ZM973.8,536.4c.5-3.2,1.8-5.4,3.5-6.6,5.1-3.4,37.6-16,39.4-15.4,1.1.5,1.4,1.8,1,4.2-2.2,11.4-2.2,10.6.6,10.4,1.6,0,4.3-2.6,7.4-6.6,2.6-3.5,5.4-6.7,6.4-7s4.6,1.6,8.3,4.2c5.8,4.2,7,4.6,9,3.4,1.4-.8,2.1-2.2,1.6-3.5-.8-2.7.3-2.6,5.1.3,4.5,2.7,4.8,4.3,1.4,5.4-3.7,1.1-2.9,3.8,2.4,7.2,2.7,1.8,4.6,3.5,4.5,4-.5,1.3-43.8,30.4-49.9,33.4-2.7,1.3-6.1,3.8-7.5,5.4-2.4,2.6-2.9,2.7-4.5,1.1s-2.1-3.4-2.6-5.1c-.3-1.8-2.1-5-3.7-6.9-2.9-3.5-3-3.5-4.8-1.3-1,1.3-1.8,3.4-1.8,4.8s-.5,3.2-1.1,4c-1.1,1.9-2.2.8-4.5-5.1-.8-1.9-3.5-8.5-6.2-14.6-4.2-9.3-4.8-11.8-4.2-15.8h.2ZM965.8,521.7c.2,1.3,1.3,3,2.4,3.8,1.8,1.3,1.6,1.9-1.9,5-5.6,5.1-8.2,5.6-9.1,1.6-.6-2.2-.3-3.7.8-4.5,1-.6,2.2-2.9,2.9-4.8,1.3-4,4.3-4.8,5-1.1h0ZM913.9,452.9c1.1-2.1,2.1-4.8,2.4-6.1.2-1.3,1.1-2.4,2.1-2.4s1.9,1.1,2.1,2.4c1.1,7,1.4,7.7,4.8,7.7h3.2l-3.2,3c-1.8,1.6-4,3-5,3s-2.4,1.1-3,2.4h0c-1.8,3.2-4,3-3,0,.5-1.3,0-3.2-.8-4.3-1.3-1.4-1.1-2.6.5-5.6v-.2ZM784.5,441.3c2.2-.8,4.5-2.4,4.8-3.4.6-1.4,1-1.4,2.4.5,2.6,3.4,2.2,4.8-1.3,5.8-1.6.5-2.9,1.3-2.9,1.9,0,1.9-3,1.3-5.1-1-1.9-2.1-1.8-2.2,2.1-3.8ZM644,509.2c1.6,0,3.4.6,3.7,1.3.5.6,1.9,1.8,3.2,2.2,1.8.6,2.1,1.1.8,1.4-1.9.6-8.8-1.9-9.9-3.7-.5-.6.5-1.3,2.2-1.3h0ZM611.5,525c-1,1.1-2.6,1.6-3.8,1.3-1.6-.5-2.6,0-3.5,2.4-.8,1.8-1.9,3-2.4,3-1.4,0-.6-9.9.8-11,1.9-1.4,5.9-1.1,8.3.8,1.9,1.4,2.1,1.9.6,3.7v-.2ZM647.7,746.8c-1.8,1.4-4.2,2.6-5.4,2.6s-2.6.5-2.9,1.1c-1.1,1.8-3,1.4-3-.5s-.8-1.9-1.8-2.4c-3.2-1.1-1.9-4.3,2.4-6.2,3.4-1.4,4.2-2.4,4.2-5.3,0-4.5,2.1-4.6,3-.3.5,1.8,2.1,4.5,3.7,5.8l2.9,2.6-3.2,2.6.2.2Z"/>
</svg>