<?xml version="1.0" encoding="UTF-8"?>
<svg id="Layer_1" xmlns="http://www.w3.org/2000/svg" version="1.1" viewBox="0 0 1920 1080">
  <!-- Generator: Adobe Illustrator 30.3.0, SVG Export Plug-In . SVG Version: 2.1.3 Build 182)  -->
  <defs>
    <style>
      .st0 {
        fill: #564a3c;
      }

      .st1 {
        fill: #dbb57f;
      }
    </style>
  </defs>
  <g>
    <path class="st1" d="M1235.2,503.9c-.3.4-.8.7-1.1.7-1.1,0-1.7-1.4-.8-1.9,1-.6,2.5.3,1.9,1.2Z"/>
    <path class="st1" d="M1058.3,351.1c-5.5-4.2-7-6.3-7-9.6s2-2.5,2.8-.2c.3,1,1.3,2.5,2.3,3.4,1,.9,1.9,1.9,2,2.3.2.4,1.6,1.7,3.3,2.9,2.1,1.6,3.5,2.1,4.8,1.7,2.3-.6,3.1.6,1.5,2.2-2,2-4.1,1.4-9.7-2.9Z"/>
    <path class="st1" d="M1025.7,290.9c-4.2,2.2-4.6,2.3-5.2,1.3-.9-1.5.5-2.9,4.1-4.2,4.5-1.6,4.8-1.6,4.8-.2s-1.7,2-3.7,3.1Z"/>
    <path class="st1" d="M1048.9,337.7c0-.6.5-1.2,1.2-1.2,1.2,0,1.5.9.6,1.8-.9.9-1.8.6-1.8-.6Z"/>
    <path class="st1" d="M1010,333.8c0-3.2,1.5-6.8,2.7-6.4.9.3.8,2.7-.4,6.6-1.1,3.3-2.2,3.2-2.2-.1Z"/>
    <path class="st1" d="M1043.5,302.2c-.3,0-1.7-1-3.2-2.3-1.5-1.3-3.1-2.3-3.7-2.3-.5,0-1-.4-1-.8s-1.1-1.2-2.4-1.6c-1.3-.5-2.3-1-2.1-1.1.5-.5,6.5,1.6,9.3,3.3,3.6,2.2,5,2.3,6.1,0,.6-1.2,1.1-1.4,1.3-.7.2.6-.6,2.1-1.8,3.3-1.2,1.3-2.4,2.3-2.6,2.3Z"/>
    <path class="st1" d="M838.5,734.9c-.8,0-1.4-1-1.7-2.9-.3-1.6-.6-4.1-.8-5.5-.4-2.7.7-3.4,1.9-1.2.4.7,1,3.2,1.3,5.4.5,3.4.4,4.1-.6,4.1Z"/>
    <path class="st1" d="M1239.8,770.6c-.3,1.1-.8,2.5-1.3,3.1-1.3,1.6-2.3-.2-1.7-3.2.6-3.2,4.7-9.1,6.3-9.1s1.9,2.1-.5,4.6c-1.3,1.4-2.6,3.5-2.9,4.6Z"/>
    <path class="st1" d="M1006,402.2c-1.5-.5-2-2.7-.6-2.7,2.3,0,8,4.4,7.3,5.6-.7,1.1-2.3.7-3.8-.9-.8-.8-2.1-1.7-2.9-2Z"/>
    <path class="st1" d="M1003,405.5c-2.3-1.6-1.2-3.6,1.3-2.2,2.9,1.6,6.7,6.2,6.2,7.5-.4,1.1-.9.8-3-1.4-1.4-1.4-3.4-3.2-4.4-3.9Z"/>
    <path class="st1" d="M997.4,406.7c7.4,5.4,12.6,9.6,12.6,10.1s-.3.6-.6.6c-1.2,0-8.2-5.1-12-8.8-1.9-1.8-1.9-3.3,0-2Z"/>
    <path class="st1" d="M1029.8,348.7c-.5,3.1,2.7,13.5,4.7,15.7,1.5,1.6,3.1.3,1.7-1.3-1.4-1.6-3.1-12.4-2.4-15.2,1-3.8,1.8-2,2.3,5.4.5,6.6,1.7,10.1,2.5,7.5.4-1.1,2.2-1.2,2.9-.2.3.4-.3,2.2-1.1,3.9-.9,1.7-2.1,4.8-2.8,6.8-.7,2.1-1.4,4.2-1.5,4.7-.4,1.1-1.1,1.2-2.5.3-.7-.4-1-2.6-1.1-6.4,0-4.9-.5-6.6-2.7-11.3-2.8-5.9-3.1-7.5-1.9-10.7,1.2-3.1,2.4-2.5,1.9.9Z"/>
    <path class="st1" d="M1015.4,547c1.1.3,2.2-.1,3.7-1.5,1.2-1.1,4.7-3.4,7.8-5.1,5.4-3,5.7-3.3,6.8-7.2,1.3-4.5,3.9-9.1,5-9.1s.8-.8,1-1.7c.3-1.7,4-3.8,5-2.8.3.3-.3,1.8-1.1,3.5-2.7,5-6.5,14.5-7,17.4-.4,2.5-.7,2.7-2.9,2.5-1.8-.1-2.5.2-2.8,1.4-.4,1.6-2.6,2.7-8.3,4.3-3,.8-3.8,1.5-5.4,4.5-1.1,2-2.3,3.8-2.9,3.9-.6.3-.6-.3.2-1.7,1.3-2.5,1.4-4,.2-4s-6,3.8-6.5,5.5c-.6,2-2.2,1.6-2.6-.7-.5-3.6,6.7-10.1,9.9-9.1Z"/>
    <path class="st1" d="M821.8,752.8c.8,0,.9,4.2.1,4.9-.7.7-1,.7-2.4-.7-1.1-1.1-1.1-1.3.2-2.7.8-.8,1.7-1.5,2-1.5Z"/>
    <path class="st1" d="M1067.2,626.8c1.5,0,2.1,2.8,1.2,5.6-1.1,3.3-1.3,6-.5,8.2.5,1.5.4,1.8-.8,1.6-2.3-.4-3-4.2-1.9-10.1.6-3.3,1.4-5.3,2-5.3Z"/>
    <path class="st1" d="M925.2,524.4c.4.3.7,1.8.6,3.3,0,1.6.1,4,.5,5.4.4,2,.3,2.5-.7,2.5s-1.6-1.2-2.3-6.2c-.4-3,.7-5.8,1.8-5Z"/>
    <path class="st1" d="M866.2,571.6c-2-1.7-4.7-3.5-6-4-1.7-.6-2-1.1-1.4-1.7.6-.6,1.6-.4,3.8,1.1,3.4,2.3,7.2,6,7.2,7s-1.7-.7-3.7-2.4Z"/>
    <path class="st1" d="M949.7,533c-.7,1.7-1.6,2.7-2.2,2.6-1.3-.4-.8-3.7.8-5.5,1.9-2.2,2.8-.4,1.4,2.9Z"/>
    <path class="st1" d="M919.7,528c-1.1,2.1-2,1.9-2.6-.6-.3-1.4-.1-2.5.6-3.2,2.2-2.2,3.7.6,2,3.8Z"/>
    <path class="st1" d="M1067.9,478.7c1.5.2,2.8.6,2.8,1,0,.8-4.9,1-5.7.2-1-1,.2-1.5,2.9-1.2Z"/>
    <path class="st1" d="M864.5,611.2c4,3.9,7.5,7,7.7,7,.6,0,7,6,7,6.5,0,1.4-3.2.1-5.4-2.2-1.5-1.5-3.1-2.7-3.6-2.7s-1.5-.9-2.2-2c-2.3-3.6-6.9-8.3-9.9-10.2-1.6-1-2.9-2.2-2.9-2.6,0-2,2.7-.2,9.4,6.2Z"/>
    <path class="st1" d="M1061.3,627.5c1.1,0,1.6,3.2.8,5.1-.6,1.7-3.1,2.7-3.1,1.3,0-1.6,1.7-6.4,2.3-6.4Z"/>
    <path class="st1" d="M1055.5,464.9c.9-1.4,1.9-.7,3,1.9.9,2.2,1.6,2.7,3.7,2.9,2,.2,2.6.6,2.5,1.8,0,.8.4,1.9,1.2,2.5,1.2.9,1.2,1,0,1.5-.7.3-1.2.8-.9,1.2.9,1.5-1.9.6-3.8-1.2-2.4-2.2-6.3-9.6-5.6-10.6Z"/>
    <path class="st1" d="M1054.1,627.7c2,1.9,2.4,4.2.8,4.8-.5.2-1.1.4-1.2.4-.2,0-3.3-6-3.3-6.5,0-1,2-.3,3.6,1.3Z"/>
    <path class="st1" d="M882.6,528.6c.3-1.1-.1-1.8-1.5-2.3-2.1-.8-2.5-1.5-.8-1.5s1.8.7,2.8,1.5c1,.8,3.6,2.1,5.9,2.7,4.1,1.2,8.2,4.7,8.2,7.1s-1.1,1.4-3.6-.7c-2.6-2.2-6.1-4-9.1-4.7-1.7-.4-2.1-.9-1.8-2.1Z"/>
    <path class="st1" d="M881.1,534.8c3.9,0,5.9.8,5.9,2.6s-.4,1.5-1.4,1.2c-.8-.2-3-.6-5.1-.9-5.2-.7-4.8-2.9.6-2.9Z"/>
    <path class="st1" d="M860.9,618.6c2.3,1.9,4.7,3.5,5.5,3.5,1.7,0,6.6,4.5,6.6,6.1s-.2,1-.9.2c-.5-.5-1.6-.9-2.4-.9-1.6,0-13.3-9.8-13.7-11.4-.4-1.7.6-1.2,4.9,2.5Z"/>
    <path class="st1" d="M891.3,527.5c-2.9-1.7-6.8-6.6-5.2-6.6s2.3,1.1,4.3,2.4c2,1.3,4.2,2.3,5,2.1,1.1-.2.8-.8-1.7-3.2-1.7-1.6-3.9-3.3-4.9-3.6-1.6-.7-2.5-3.9-1.1-3.9s10.9,9.3,11.4,11c.3.9,0,2.1-.5,2.7-.7.9-.7,1.4,0,2.1.5.5.9,1.2.9,1.5,0,1.2-2.1.6-3.6-1-.8-.9-2.9-2.5-4.6-3.5Z"/>
    <path class="st1" d="M868.4,604.2c1.4,0,6.9,5.3,6.9,6.7s-.2,1.1-.5,1.4c-.7.7-.8.7-3.6-1.2-5.6-3.9-16-14.9-15-15.9.3-.3,1.6.6,3,1.9,5.1,4.9,8,7.1,9.3,7.1Z"/>
    <path class="st1" d="M866.3,588.3c-2-2.3-4.3-4.5-5.1-4.7-1.5-.5-2-2.7-.6-2.7s11.7,9.4,11.7,10.5c0,2.3-2.3,1-5.9-3.1Z"/>
    <path class="st1" d="M875.6,605.8c-.9,0-6.9-5.7-8.2-7.7-.7-1.1-3.6-4.3-6.4-7-5.1-5-6-6.2-4.3-6.2s19.4,18.7,19.4,20-.2,1.1-.5,1.1Z"/>
    <path class="st1" d="M867.9,582.4c-1.2-1.7-3.6-4.1-5.3-5.3-4.2-2.9-4.8-4.7-.8-2.6,4.5,2.3,10.5,8.2,9.9,9.8-.7,1.9-1.5,1.6-3.8-1.9Z"/>
    <path class="st1" d="M661.3,585.7c-5.4-7.1-10.6-19-11.3-25.9-.5-5.3,2.2-12.1,6-14.5,2.9-1.9,5.4-2.2,5.5-.7,0,.4-1,1.3-2.2,2-2.6,1.4-6.2,7.6-6.9,11.6-.6,3.7,5,19.9,7.4,21.4.9.6,1,.8-.9-5-.9-2.8-1.8-7.5-2-10.5-.4-4.7-.2-5.9,1.2-8,1.6-2.5,4-3.4,3.9-1.6,0,.5-.7,1.9-1.5,2.9-2.6,3.4-1.8,13.1,1.9,23.3,1.2,3.4,7.1,16,9.4,20.4.6,1.1,1.1,3.1,1.1,4.5s-.4,2.4-1,2.4-.9-.8-.7-2.7c.3-2.2-.4-3.8-3.3-8.5-2-3.2-3.6-6.1-3.6-6.4s-1.4-2.5-3.1-4.8Z"/>
    <path class="st1" d="M806.4,657.3l-2.3-.3c-1.4-.2-2.6-.9-3.2-2-.5-.9-2.1-2.9-3.7-4.3-2.8-2.6-3.7-4.5-2-4.5s5.3,4.3,9.6,9.3l1.5,1.8Z"/>
    <path class="st1" d="M662.3,596.5c4.3,5.8,5.3,7.5,5.2,9.9v2.9s-2.1-4.7-2.1-4.7c-2.2-4.8-3.7-7.2-7.4-11.5-1.2-1.4-2.1-2.8-2.1-3.1,0-1.6,1.6,0,6.4,6.5Z"/>
    <path class="st1" d="M795.5,507.8c1.2-.2,1.3,0,.9,1.9-.3,1.2-1.4,2.8-2.4,3.6-1,.8-2.2,2.8-2.5,4.4l-.6,2.9-.3-2.6c-.3-3.2,2.8-9.7,4.9-10.1Z"/>
    <path class="st1" d="M832.3,500.8c3.6-1.8,5.4-2.3,6-1.7,1.2,1.2-.2,2.3-5.4,3.9-5.4,1.7-5.8,1.8-5.8,1s2.3-1.7,5.2-3.2Z"/>
    <path class="st1" d="M641.4,539.3c-1.6,3.7-1.9,17.8-.5,20.1.7,1.3,1,1.3,1.3.4.2-.6,1-3,1.6-5.2,1.2-4,3.6-7,4.6-6,.9.9.6,2.8-.6,4.1-1.9,2.1-3.5,11.3-2.6,14.7.9,3.4,3.6,8.6,6.8,13.4,1.3,1.9,2.4,4.1,2.4,4.9,0,2.1-1.5,1.6-2.5-.8-.5-1.2-2.4-4.7-4.3-7.8-1.8-3.1-3.3-5.9-3.3-6.2s-.5-1.1-1.1-1.7c-.6-.7-2.1-4-3.3-7.4-1.9-5.3-2.2-7.4-2.2-14,0-6.4.3-8.4,1.7-11.1,2.9-5.6,4.5-3.4,2,2.6Z"/>
    <path class="st1" d="M803,648.4c0-3.2,1.5-2.1,7.7,5.8,1,1.2.9,1.4-.6,1.4s-7.1-5.2-7.1-7.2Z"/>
    <path class="st1" d="M806.1,501.9c1.2.8.9,1.6-2.4,5.5-1.7,2.1-3.1,4.3-3.1,4.9s-.2.9-.5.6c-.3-.3-.2-1.8,0-3.5.5-3.1,4.6-8.4,5.9-7.6Z"/>
    <path class="st1" d="M811.5,503.4c0-.4,1.1-1.8,2.5-3.2,2-2,2.7-2.4,3.9-1.8,1,.5,2.2.4,4.1-.4,1.5-.6,4-1.2,5.7-1.4,2.5-.2,3,0,3,1.2s-1.1,1.8-4.7,2.8c-2.6.7-5.4,1.7-6.4,2.2-.9.5-2.4.9-3.2.9-2,0-6.3,3.6-6.4,5.3,0,.7-.3.5-.4-.5-.2-1,.2-2.4.9-3.2.7-.7,1.2-1.7,1.2-2Z"/>
    <path class="st1" d="M771.1,511.6c2,0,1.3,2.6-1.6,6.6-3.2,4.4-6.3,5.8-6.3,3s6.6-9.5,7.9-9.5Z"/>
    <path class="st1" d="M604,513.9c-6.3,13.7-5.9,29.9,1.1,42,3,5.3,9.9,13.5,14.3,17.3,16,13.5,23.3,20.6,27.6,27,6.8,10.3,6.5,17.4-1.1,24.7-2.3,2.3-4.7,4.1-5.2,4.1s-1.5.5-2.3,1c-1.2.9-1.3,1.3-.5,2.8.9,1.7,1.3,1.8,7,1.4,6.4-.4,10.5-2,14.2-5.6,1.2-1.1,2.5-2,3-2,1,0,9.2-5.9,10.1-7.2.3-.4.9-.5,1.3-.2.5.3,1.7,0,2.8-.8,1.3-.9,2.3-1.1,2.9-.5,1.7,1.4,5.5-.4,7.6-3.5,5.1-7.6,6.2-10,6.7-14.6.6-5.9-.5-8.8-5.2-13.7-3.3-3.5-8.2-10.5-11-15.9-2.2-4.1-2.5-7.8-1-11.6,1.1-2.7,2.1-3.8,5.4-5.6,5.4-2.9,9.7-3.4,22.9-2.6,7.3.5,13.6.4,18.7-.1,4.2-.5,12.5-1.1,18.5-1.5,6-.4,12.4-1,14.2-1.4,1.8-.4,3.4-.5,3.6-.3.5.9,1.6,9.8,1.4,11.4-.3,2.2,2.1,14.4,3.3,17.2.6,1.3,1.2,3.2,1.4,4.3.7,3.3,4.1,12.7,5.8,16,.9,1.7,2.8,4.5,4.4,6.2,1.5,1.7,2.8,3.3,2.8,3.5s-1.8,1.4-4.1,2.7c-2.2,1.3-6.9,5.2-10.3,8.8-5.9,6.2-6.5,6.6-10.4,7.2-5.2.8-10.9,4.4-13.8,8.7-1.2,1.8-3.4,4.7-4.8,6.5-1.4,1.8-2.5,3.9-2.5,4.8s2,3.8,4.4,6.4l4.4,4.8-1,5.4c-1,5.2-.9,5.6,1.1,11.2,2.3,6.4,5.4,10.4,12,15.8,2.4,2,6,5,7.9,6.8,1.9,1.8,4.6,4.2,6.1,5.3,1.4,1.2,3.7,3.6,5,5.4,1.3,1.9,2.7,3.5,3,3.8,1.7,1.1,4.7,10.3,6.2,18.8.9,5.2,1.8,9.7,2,9.9.2.2,1.5.3,3,.1,2.5-.2,2.6-.1,3.8,3.9.6,2.3,1.4,5.3,1.7,6.7.4,1.7,1,2.5,1.9,2.5,2,0,3,1.5,3.3,5.1.3,3.2.2,3.2,4.8,3.4,1.1,0,1.3.4.9,1.8-.3,1-.8,3.9-1.1,6.4-.5,4-.3,5.2,1.2,8.3,1,2,4.1,5.8,6.8,8.6,4.1,4,6.5,5.6,12.7,8.4,4.2,1.9,9.1,3.7,10.8,4,1.7.3,3.7.8,4.3,1.1.7.3,1.4.2,1.7,0,.3-.3,2.4-.9,4.6-1.4l4.1-.9.2-3.7c.3-4.1-1.4-11.9-3.7-17-.8-1.8-3.1-5.5-5.2-8.2-5.7-7.5-6.5-8.9-6.5-11.2s.2-2.1.4-2.1,2.5,1.6,5.1,3.6c5.3,4,15.4,7.6,25.2,8.9,4.7.6,6,.5,10.4-.9,3.8-1.3,5.4-2.3,6.4-4,1.4-2.3,1.4-2.4-.2-5.2-6.2-10.7-17-20.9-29.5-27.7-4.5-2.4-5-3-6.2-6.8-.8-2.3-1.4-4.2-1.4-4.3,0-.4-11.7-7.8-15.1-9.6-9.4-4.9-20.7-11.9-22-13.8-.8-1.1-2-2.6-2.7-3.4-2.1-2.2-8.4-11.9-8.4-12.9s1.7-1.5,3.7-2.1c4.8-1.6,15.7-3.7,16.4-3.3.3.2,3,0,6-.4,3-.4,9.6-1.2,14.8-1.9,19-2.3,24.1-4,35-11.7,3.4-2.4,8.8-6.1,12.1-8.2,3.2-2.1,6.5-4.9,7.4-6.2,2.2-3.2,2.8-3.3,6.7-.7,1.9,1.2,3.9,2.3,4.4,2.3,1.5,0,15,5.4,17.7,7,1.3.8,5.1,2.2,8.6,3.1,3.4.9,6.4,1.9,6.6,2.2.6.8,10.8,4.6,18.3,6.7,3.8,1.1,7.7,2.3,8.6,2.7.8.4,2.8.9,4.3,1.1,1.5.2,6,1.2,10.1,2.1,4.1.9,9.5,1.8,12.1,1.9,2.6.1,6.4.6,8.5,1,2.1.5,11,.9,19.6.9,12.5,0,17.5-.2,24.5-1.4,4.8-.8,11.9-2,15.8-2.5,3.8-.5,10-1.9,13.6-3.2,3.6-1.2,7.2-2.2,8-2.2,1.5,0,5.2,3.7,5.2,5.3,0,1.5,6.2,5.6,8.4,5.6s4.1-.6,6.7-1.3c3.1-.8,6.2-1.1,8.7-.8,8.4,1,15,2,18.7,2.8,8.9,1.9,25.1.3,41.6-4.3,4.6-1.3,13.2-2.4,13.2-1.7s-.8,2.1-1.7,4.2c-1.6,3.4-1.7,5-1.7,17.4,0,12.5.1,13.9,1.7,17.3,1,2,2,3.8,2.4,4.1.4.2,3.1-.3,6-1.2,7.3-2.2,12.5-7.1,15.5-14.9,1.7-4.4,3.2-6.5,7.1-10.4,2.8-2.8,4.9-5.5,4.9-6.4s.3-1.7.7-2c1.6-1,8.8,9.3,11.9,17.2,2.2,5.4,2.3,6.3,1.7,11-.8,6.7-.5,9.4,1.3,10.9,1.1.9,1.5,2.3,1.6,5.1,0,2.1.6,4.5,1.2,5.2.7.8,1,2.6.8,4.7-.2,3,0,3.4,1.5,3.6,1,.1,2.6-.3,3.7-1,2.8-1.8,4.3-1.6,4.3.8s-2.2,4.5-9.7,10.8c-3.4,2.9-5.6,10-4.2,13.5.5,1.2,1.3,4.7,1.9,7.9.6,3.2,2.1,7.9,3.5,10.5,3.7,7.2,11.3,16,14,16s3-1.7,4.9-3.8c3.4-3.7,5.2-7.7,5.2-11.7,0-2.6,2.6-7.7,5.8-11.5,3.4-4,4.5-8.4,3.5-14.9-.8-5.9-.5-7.2,4.3-16.3l3.7-7.1-1.1-4.4c-1.1-4.6-3.1-8-14.4-24.5-8.8-12.8-10.8-16.3-18.3-30.8-3.9-7.7-6.6-14-7.7-18.2-2.2-8.6-3.8-10.9-11-15.7l-6.2-4.1.4-4.3c.2-2.4,1.3-7,2.3-10.2,2.1-6.8,2.5-14.6,1-18.3-.6-1.3-4.6-5.8-8.9-9.9l-7.9-7.5h-6.5c-7.2-.3-10.8.7-18.8,5-2.7,1.4-7.8,3.6-11.4,4.8-5.8,1.9-7.9,2.2-17.1,2.4-5.8,0-12.6.4-15.1.7-4.2.5-4.5.4-4-.9.3-.8.7-8,.8-16,.2-12.5,0-15.5-1.3-20.5-.8-3.2-1.7-8.2-2-11.1-.3-2.9-1-5.8-1.6-6.5-1-1.1-1-1.6,0-3.5,2-3.9,2.2-8.5.8-14.3-1.2-5.2-1.2-5.5,0-7,2.4-2.7,2.8-7.5,1.1-14.4-2.3-9.4-7-24-8.2-25.4-1.4-1.6-1.3-2.8.2-3.3.7-.3,1.7-1.7,2.3-3.2.6-1.5,1.3-2.7,1.6-2.7.5,0,14.3,14.1,21,21.4,6.4,7,18,18.4,25.7,25.3,1.7,1.5,5.4,5.3,8.2,8.5,2.8,3.1,5.6,6.3,6.3,7,.8.8,1.5,3.2,1.9,6.7.3,3,1.4,7.2,2.3,9.4,1.4,3.2,2.3,4.2,4.4,4.8,5.3,1.6,8.2,1.8,9.2.6,1.3-1.6.4-6.5-2.4-11.8-2.2-4.2-2.2-4.5-.9-5.9,2.4-2.6,9.6-7.1,19.3-11.8,5.1-2.5,11.2-5.8,13.4-7.2,5.5-3.6,11.7-10,12.3-12.7.3-1.2.9-2.5,1.3-2.8,1.1-.7,6.1-11.5,6.1-13.2,0-.8.7-4.1,1.6-7.3.9-3.2,1.9-9.5,2.2-14,.4-5.5.9-8.2,1.6-8.5.6-.2,2.1-1.3,3.4-2.5,2.2-2,2.4-2.5,2.5-8,.1-3.4.8-7.5,1.6-9.5,1.2-3.1,1.2-4,.4-6.1-.5-1.3-1.5-4.1-2.1-6.1-.8-2.7-1.8-4.1-3.9-5.3-2.7-1.7-3-3.4-.5-2.9.7.2,1.6-.2,2.1-.7.6-.8,1.6-.8,5.1,0,2.4.6,5.2,1.3,6.4,1.5,1.9.4,2,.6,1.2,2.8-.7,1.9-.7,2.6.4,3.6,1.1,1.1,1.6,1.2,3.4.3,1.5-.7,4.9-.8,12.3-.5,15.4.8,18.4.9,23,1.5,4.6.6,8.9-.5,8.4-2.1-.2-.5-4-2.2-8.4-3.8-4.5-1.6-12.5-4.9-17.8-7.5-11.3-5.5-12.9-6-13.6-4.9-.3.5-1.5.7-2.7.4-1.2-.3-2.4-.1-2.6.3-.4.7,2.8,3.9,5.6,5.5,2.4,1.3.2,1.9-3.9,1-2.3-.5-6.2-1.1-8.8-1.4-2.6-.3-5.5-.8-6.5-1.2-1.7-.7-1.8-.9-1.3-5.4.3-2.6,1-5.7,1.6-6.8.6-1.1,1.1-2.6,1.1-3.3s1.1-4.2,2.4-7.8c2.2-5.9,2.4-7.5,2.5-15.9,0-10.5-1.4-16.5-6-24.1-6.1-10-26.7-24.6-39.6-27.9-8.2-2.1-10.5-4.7-7.4-8.1,2.7-3,4.7-8.7,4.4-13.1l-.2-3.7-3.2-.2c-2.6-.2-4,.3-8,3-5.5,3.7-7.9,7.4-8.1,12.8-.1,3.2-.3,3.5-2.1,3.5s-6.3,2.1-11.5,4.7c-5.2,2.6-9.7,4.7-9.8,4.7-.4,0-9.6,4.3-21.4,9.9-4.9,2.3-10.6,4.9-12.8,5.8-2.2.9-5.6,2.4-7.5,3.4-1.9,1-8.8,4.3-15.2,7.4-6.4,3-15.1,7.2-19.2,9.3l-7.6,3.8-2.1-3.8c-1.2-2.1-2.4-3.8-2.7-3.8s-1.3-1-2.2-2.3l-1.6-2.3,3-1.4c3.8-1.8,4.3-4.5,1.4-7.2-2.7-2.5-2.5-3.6.8-4.7,2.7-.9,2.8-1,2.4-3.9-.4-3.3-1.9-5.5-8.4-12.7-4.6-5.1-6.2-8.9-6-15.1,0-3.6-2.7-8.5-6.1-10.7-1-.7-1.9-1.7-1.9-2.2s-1-1.5-2.1-2.1c-1.2-.6-2.2-1.1-2.4-1.2-.1,0,.5-1.5,1.4-3.1,2.1-3.9,2-5.2-.3-7.8-1.1-1.2-1.9-2.4-1.9-2.7s-1.5-1.2-3.3-1.9c-2.7-1-4.4-1.1-9.7-.5-3.8.4-7.9.4-10.1,0-2.4-.4-6.1-.4-10.4.2-7.9,1-9.1,1.5-11.7,3.9-2.3,2.2-4.7,3.7-10.8,7-5.4,2.9-6.9,4.2-7.6,6.3-.9,3.1-3.5,8.1-4.8,9.2-3.9,3.3-7.8,13.5-7,18.6.4,2.3,0,4.1-1.1,6.6-1.7,3.8-2,8.2-.7,10.8.5.9,2.1,3.1,3.4,4.7,1.5,1.8,2.8,4.3,3.1,6.2.3,1.8,1,4.1,1.5,5.2,4.5,9.1,5.3,11,4.9,11.3-.2.2-6.4.6-13.8.8-7.4.2-14.9.7-16.6,1.1-9.1,1.9-16.7,4.3-20.5,6.5-2.3,1.4-5.5,3.2-7.1,4.2-1.6.9-3.4,1.7-4,1.7-2.3.1-14.2,6.6-15.3,8.3-2.4,3.6-.8,12.1,4.3,22.9,1.6,3.4,6.2,7.7,8.3,7.8.9,0,3.2.9,5.2,1.9,6,3.2,17.9,8.1,21.8,8.9,2,.4,4.6,1.2,5.8,1.6,3.2,1.2,15,1,18.8-.4l3.3-1.2,4.4,8.7c3.8,7.5,5.1,9.3,9.3,13l4.9,4.3v4.9c0,2.7.4,6.5.9,8.6,1.8,7.6,3.3,12.3,4.5,14.2.7,1.1,2.8,5.1,4.6,9,1.8,3.9,4.1,8.7,5.1,10.7l1.8,3.7-1.9,1.9c-1,1-1.9,2.4-1.9,3s-1.4,2.8-3.1,4.9c-3.8,4.6-8,14.2-7.6,17.6.2,2.2,0,2.5-2.5,3-3.1.7-16.9-.9-27.6-3.2-7.7-1.6-15.2-2.9-23-3.9-2.8-.4-10-1.7-15.9-3-6-1.3-12.6-2.5-14.6-2.8-2.1-.3-7.1-1.4-11.2-2.4-4.1-1-8.4-1.9-9.5-1.9-1.2,0-3.3-1.1-5.2-2.8-1.7-1.5-4.5-3.9-6.3-5.2-1.8-1.3-5-3.9-7.2-5.7-2.2-1.8-8.3-5.4-13.6-7.9-8.5-4.2-13.8-6.1-28.8-10.5-6.7-1.9-22.9-2.5-30.2-1-18.4,3.8-25.4,6.4-35.1,13.2-2.7,1.9-6.6,4.4-8.6,5.5-2,1.2-7.6,5.9-12.5,10.4-9.5,9-12.7,11.2-21.9,14.8-17.5,6.9-40.7,1.8-68.6-15.1-6.1-3.7-17.9-8.3-25.8-10.2-7.7-1.8-21.8-1.9-24.9-.1-1.4.7-3.3,1.4-4.2,1.4-3.5,0-9.4,5.6-12.1,11.7ZM1287.7,408.1l2.5.9c1.4.5,3.4,1.3,4.5,1.9,1.1.6,2.7,1,3.7,1s1.7.5,1.7,1.1,1,1.3,2.1,1.6c2.3.6,4.1,1.8,4.1,2.7s-13,1-13.6,0c-.3-.4.2-.8,1.1-.8s1.8-.3,2-.7c.6-1-1.7-3.2-3.5-3.2s-2.2-1-3.1-2.3l-1.6-2.3ZM1282.6,415.4c.3-.3.9-.3,1.5,0,.6.2.4.4-.5.5-.8,0-1.3-.2-1-.4ZM688.6,597.4c0-.7.4-2.2.7-3.3.5-1.6.6-1.4.7,1.4,0,1.8-.3,3.3-.7,3.3s-.7-.6-.7-1.4ZM1022.9,523.4c1.3-.3,1.3-.1.4,1-1.2,1.5-2.7,1.7-2.2.3.2-.5,1-1.1,1.8-1.3ZM956.2,415.1c1.7,1.9,3.2,3.8,3.2,4.1,0,.8-1.4.7-3.2-.2-.8-.4-1.5-1.5-1.5-2.4s-.4-2.3-.8-3.3c-.4-.9.6-.1,2.3,1.8ZM948.5,407.2c-2.5-3.5-3.3-6.3-1.2-4.6,1.6,1.3,5.1,7.8,4.3,7.8s-1.8-1.4-3.1-3.2ZM931.7,398.1c.4-.4,4.3,8.3,4.3,9.4,0,1.5-3.1-3.6-3.9-6.5-.4-1.5-.6-2.8-.5-3ZM954.8,377c2.1,1.9,2.4,2.5,1.5,3.1-.7.5-2.2,0-4.3-1.1-1.7-1-3.6-1.6-4.1-1.4-1.2.4-1.3,2.6-.2,2.6,1.8,0,.6,1.3-2.3,2.5-5.8,2.4-3.2,4.3,4.2,2.9,10.1-1.8,19.9-.8,19.9,2s-1,1.7-2.1,2.6c-2.4,1.8-1.1,2.2,2.4.9,1.7-.6,2-.5,2.2,1,.4,2.9,2.4,1.9,3.7-1.8,1.6-4.5,2.2-5.4,3.7-5.4s1.1.5.7,1.9c-.5,2.1,0,4.3,1.2,4.3s.9-.9,1.2-2.1c.5-1.8.6-1.9,1.5-.8,1.4,1.9,2.6,1.6,3.1-.8,1.3-6.2,3.9-8.1,3.1-2.2-.9,6,1.9,5.5,3.7-.7.8-2.9,1.5-3.9,2.6-3.9s1.5.3.6,5.3c-.6,3.1,1.7,2.8,3.3-.3l1.3-2.5,1.9,4.1c2.2,4.6,4.4,6,7,4.3,1.7-1.1,1.7-1.1,1.6,2.7,0,2.1.2,4.2.4,4.7.7,1.1,4.1,1.1,4.7,0,.8-1.4,1.7-.8,2.7,1.5,1.3,3.1,3.3,3.6,6.6,1.6,1.7-1.1,3.3-1.5,4.3-1.2,2.2.7.7,2.4-2.7,3-2.4.5-2.6.7-3.1,4.2-.3,2-.1,6,.3,8.7,1,7.1.5,19.2-1.1,22.9-.7,1.7-2,3.5-2.8,4.1-.8.6-1.5,2-1.5,3,0,1.9.2,1.9,3.6,1.6,3.2-.3,4.9-1.4,4.9-3,0-.3.4-.6.8-.6s.8,1.4.8,3.1.3,4.8.7,6.8c.4,2.1.9,6.1,1.2,8.9.7,8.5,3.1,17.2,5.7,20.2.6.7,1.8,2.6,2.6,4.2,1.2,2.3,1.3,3.1.5,3.6-.7.5-.6.9.5,1.7,1.2.9,1.3,1.5.7,3.2-.7,2.1-1.6,2.9-4.3,3.7-.7.2-2,1.7-2.7,3.2-2,4.2-3.1,3.5-3-1.9,0-4.1.2-4.6,1.4-4.2,1.9.6,4.5-.3,4.5-1.6s-1.7-2-5.4-2-3.1-.4-3.8-2c-1.3-2.8-1.2-2.9,1.4-1.5,2.9,1.5,4.7,1.5,4.7,0s-1.9-2-4.2-3.1c-2.3-1.1-4.7-2.6-5.3-3.3-.9-1.1-.8-1.2,1-.9,5,.9,4.9-2.4-.1-4-2.1-.7-3.5-1.7-4-2.9-1-2.5-1-2.5,1.7-2.5s2.8-2.3-.6-3.4c-3.1-1.1-4.6-2.6-5.3-5.3-.5-2.1.6-3,1.6-1.4.7,1.1,3.7,1,3.3-.2-.2-.5-1.6-1.6-3.2-2.3-2.8-1.4-4.2-3.6-1.5-2.5,2.6,1.1,4.7,1.3,5.2.5.9-1.5-1.1-3.9-3.6-4.6-2-.5-2.5-1.1-2.6-2.8,0-1.5-1.1-3.1-4.1-5.6-2.2-2-4.1-3.9-4.1-4.2s1.1-.5,2.3-.2c3.4.7,2.9-.2-2-3.3-3.5-2.3-5.8-5-5.8-7s1.6-.2,4.8,2c3.4,2.3,5.7,3,5.2,1.6-.2-.4-3.1-2.6-6.5-4.9-5.6-3.7-11.5-10-10.4-11.1.2-.2,2.2,1.2,4.5,3.1,4,3.4,7.1,4.5,7,2.5,0-1.1-11.8-9.9-13.2-9.9s-2.4-1.4-4.4-3.1c-3.9-3.4-7.8-4.8-8.9-3.1-1,1.6-.9,2,1.4,3.5,3.3,2.2,6.5,5.7,6.5,7.1s-2.3-1.1-5.8-4.5c-3.6-3.6-5.8-5.3-5.8-4.5s.4,1.5.8,1.8c.7.5,5.9,7.2,7.3,9.5,2.5,4.3-9.6-6.3-12.4-10.8-1-1.6-2.3-3-2.7-3-1.6,0,.1,4.1,3.3,7.8,1.7,2,3.1,3.9,3.1,4.3s.8,1.4,1.7,2.4c1.1,1.2,1.3,1.8.7,1.8-2.3,0-15.7-14.7-18-19.8-1-2.2-3-2.8-3-.8s6.4,11.3,10.5,15.6c3.2,3.4,3.8,5,1.9,5s-2.4-1.6-4.4-3.5c-2-1.9-3.9-3.5-4.2-3.5-.9,0-9.2-10.8-11.7-15.2-1.3-2.3-2.7-4.3-3-4.3s-.8.9-1.1,2c-.6,2.5-1.3,2.4-3.2-.6-1.8-2.9-3.3-3.5-3.6-1.6-.3,1.6,3.9,10.1,7.6,15.3,1.5,2,2.4,3.7,2.2,3.7s-2.4-1.9-4.6-4.3c-3.9-4.1-8.9-13-8.9-15.9s-3.8-3.6-4.4-2c-.6,1.6-1.8.6-1.8-1.5s-.5-2-1.2-2.3c-.6-.3-1.2-1.1-1.2-1.9,0-2.9,6.1-6.7,15.1-9.5,2.7-.8,5.4-2,5.9-2.7,1.5-1.8,3.3-1.4,6.3,1.2ZM1030.4,409.6c-.1,0-.6-.7-1.1-1.6-1-1.9,0-3,3.1-3,1,0,2.5-.5,3.2-1.2,1.6-1.5,3.8-.8,3.3,1.1-.3,1-5.9,4.1-8.6,4.8ZM1016.6,373.7c2.5-4.7,3.6-1.6,1.4,3.7l-1.3,3-.6-2.3c-.4-1.5-.3-3,.5-4.5ZM1013.5,372.3c-.6.5-1.2,1.7-1.2,2.6,0,1.6,0,1.6-.9-.1-.6-1.3-.6-2.3,0-3.7.5-1.1.9-2.9.9-4.1,0-1.2.7-3,1.5-4l1.5-1.9.6,2.2c.6,2.6-.7,7.7-2.4,9.1ZM1010,385.3c-.8,1.8-2,2.3-2.7,1.1-.2-.4-.6-2.1-.9-3.9-.5-3-.4-3.2,1.2-3.2,2.2,0,3.6,3.5,2.5,6ZM958.2,371.5c1.5.5,2.8,1.2,2.8,1.6s1.1,1.9,2.3,3.3c1.3,1.5,2.3,3.1,2.3,3.6,0,1.1.1,1.1-7.1-3.8-4.5-3.1-5.2-3.9-4.3-4.7.9-.7,1.8-.7,3.9,0ZM978.4,374.1c3.5,5.1,2.3,6.1-1.9,1.6-2.9-3.1-8.4-7.3-9.4-7.3-1.6,0-.4,2.6,2.5,5.2,3.9,3.6,6.4,7,5.8,8-.6,1-2.7,1-2.7,0s-3-3.2-6.6-6.3c-3.6-3.1-6.4-5.9-6.2-6.3.2-.3,2.1-1.2,4.3-1.9,6.4-2.1,9.1-.8,14.3,6.9ZM994.4,375.5c0,1.4-1.5.5-5.2-3.1-2.1-2.1-4.9-4.4-6.3-5.1-4-2-3.9,0,0,3.8,3.5,3.3,4.4,5,2.8,5s-11-10.1-10.5-10.9c.7-1.2,9.7-1,9.7.2s1,1.4,2.3,1.8c2.1.8,7.1,6.6,7.1,8.2ZM989.9,364.8c.6-.6,7.3,4.7,7.9,6.3.6,1.5,0,1.4-2-.4-1-.8-2.8-2.4-4.1-3.5-1.3-1.1-2.1-2.2-1.8-2.5ZM1003.4,368.3c-.8,1.3-1.9,1-4.6-1.2l-2.5-2.1,3.1.5c3.4.5,4.8,1.5,4,2.8ZM1011.9,286.2c-.8.6-1.9,1.5-2.3,1.9-1,1-2.2,1.1-1.6,0,.3-.4,1.6-1.3,3-2,2.1-1,2.3-1,.9,0ZM1059.2,280.7c1.6,1.3,1.7,2.9.4,4.2-1.3,1.3-1.5,1.2-4.3-1.4-1.4-1.3-2.5-2.9-2.5-3.4s-1-1.2-2.5-1.3c-2.7-.3-3.8-1.7-1.7-2.5,1.3-.5,7.9,2.3,10.6,4.5ZM1060.2,277.7c-2.1-1.1-4.3-2-4.9-2s-.9-.4-.8-1c.4-1.1,4-.9,6.4.4.9.5,2.2.9,3,.9.7,0,1.4.3,1.4.6,0,3.6.1,3.6-5,1ZM1090.9,364.5c0,2.8-.4,3.4-3.2,5.5-4.2,3-4.8,2.3-1.2-1.4,1.6-1.6,2.9-3.4,2.9-3.9,0-1.9-2.3-.8-4.6,2.1-2.2,2.7-2.7,3-5.3,2.8-1.6-.1-3-.3-3.1-.3-.1,0,.4-1,1.1-2,1.9-2.9.8-3.2-2.1-.4-1.4,1.4-3.3,2.4-4.5,2.4-1.8,0-1.9,0-.7-1.4.7-.8,1.3-1.9,1.3-2.4,0-1.5-2.4-.7-3.4,1.1-.5.9-.9,1.7-1,1.9-.1.2-1.1-.6-2.1-1.7-1.1-1.1-2.6-2.1-3.5-2.1s-1.6-.5-1.6-1.1c0-1.6-1.5-2.3-2.8-1.2-.9.8-1.1.6-1.1-1.4s-.5-3.6-1.2-5.1c-.6-1.5-1.2-3.7-1.2-4.8s-.9-2.9-2.1-4.1c-4.4-4.4-6.8-10.7-4.5-11.6.6-.3,1.2-1,1.2-1.7s.7-1.9,1.6-2.6l1.6-1.3-1.8-3.2c-1-1.8-2.2-4-2.8-5-.5-1-1.7-2-2.5-2.3-2.1-.7-1.9-2.6.2-2.9,1-.1,1.9-.9,2-1.7.3-1.3-.1-1.4-3.2-1.1-2.6.3-3.9,0-5.2-1.1-1.8-1.4-1.8-1.4-.1-1.4s2.3-1.9.9-2.7c-.4-.3-.8-.8-.8-1.2s1.5,0,3.3.8c3.9,1.8,5.3,1.9,5.2.6,0-.9-5.4-5.2-6.6-5.2s-2.3-1.2-4.5-2.7c-2.2-1.5-4.3-2.5-4.6-2.3-1.5.9-.5,2.6,2.8,4.7l3.5,2.2h-6.8c-5.7,0-6.8.2-7,1.3-.2,1.1.5,1.4,4.6,1.6,4.9.2,6.8,1.6,2.8,2-3.2.4-6.1,4.2-5.5,7.5.3,1.8,0,3.3-.8,4.5-1.4,2-1.7,4.6-.5,4.6s1-.4,1.2-.8c.7-1.1,2.1-.9,3.8.4,1.4,1,1.4,1.2-.3,3.4-1.3,1.8-1.6,2.9-1.2,4.8.6,2.6,2.2,2.9,2.6.4.3-1.9,1.8-5,2.4-5s.5,1.7.6,3.8c.2,7.2,4.3,15.5,6.9,14,.6-.3,2.6,3.2,2.7,4.7,0,.6.7,2,1.5,3.1,2.5,3.5,3.5,7.8,2.4,9.2-.6.7-1,2.8-.9,4.8.2,4.2-.4,5.4-1.7,3.6-1.5-2-4-1.1-3.7,1.2.2,1.1.3,4.1.4,6.8.1,3.3.5,5.1,1.3,5.6,1.4.9.3,2.1-2.3,2.4-1.5.2-2.1,1-2.8,3.3-.5,1.6-1.4,3.3-2.2,3.7-1.7,1-1.7,0,.2-2.8,1.1-1.7,1.5-3.6,1.5-7.2s-.3-5-.6-5.2c-1.5-.9-2.7,1.2-3.2,5.5-.6,4.8-2.6,8.6-6.2,11.7-2.9,2.5-3.9.9-1.4-2.1,2.3-2.7,2.3-2.8,2.1-8-.1-2.6.3-4.4,1.5-6.4,1.4-2.3,1.6-3.5,1.3-7.2-.7-8.2-3-13.2-4.7-10.4-.4.6,1,5.2,2.1,7,1,1.5-.2,7.3-2.1,9.8-1.3,1.8-1.6,3.3-1.5,7.2.1,4.6-.7,6.4-1.7,3.8-.6-1.5-2.7-1.5-4.5.1-1.7,1.6-1.8.6-.2-2.5,2.5-4.7,5.1-13.7,5-17.3-.2-8.6-.3-9.1-1.7-9.4-.7-.1-1.4-.6-1.4-.9s-.2-1.2-.5-1.9c-.3-.7,0-1.2.4-1.2s.9.5.9,1.2c0,1.8,1.3,1.4,1.9-.7.5-1.8-.7-6.4-2-7.8-.4-.4-.7-1.7-.7-2.9,0-2.9-.7-4.6-2-4.6-1.9,0-2,2-.4,5.3,1.7,3.3,1.5,4.1-.9,4.1s-1.5.4-1.1,3.5c.3,2.2.2,3.4-.3,3.1-.4-.3-.8-2.6-.8-5.2,0-4.4-.1-4.7-1.7-4.4-1.6.2-1.8.7-1.9,6.2,0,3.3-.5,6.7-1,7.5-.5.9-.9,2.7-.9,4s-.4,2.4-.9,2.4-.7-1-.4-2.9c.3-1.6.5-6.8.4-11.5,0-9.9.6-11.8,3-8.9l1.6,1.9v-2.6c0-1.4.6-3.6,1.2-4.8.6-1.2.9-2.4.5-2.7-.9-.5-2.9,1.8-3.6,4.1-.5,1.8-.6,1.8-1.9.4-.7-.8-1.8-2.8-2.3-4.4-.9-2.6-.8-3.2.6-5.7,1.7-2.9,2.1-5,1-5s-7,4.7-7.5,6.2c-.5,1.6-1.3,2-2.2,1.1-.5-.5,2.1-6.2,3.3-6.9.4-.2.5-1.8.3-3.4-.3-2.5-.1-3,1.4-3.7,1-.4,2.4-2,3.1-3.4.7-1.4,1.8-2.9,2.5-3.3,1.2-.7,1.9-3,.8-3s-5,3.3-5,4.1c0,1.4-4,6.8-5,6.8s-1.5,1.2-2.2,2.7c-.7,1.5-1.7,2.7-2.1,2.7-.9,0,1.1-4.3,2.3-5.1,1.5-.9.9-2.6-.8-2.2-1.8.5-2.1-.7-.4-2.1.6-.5,1.2-1.5,1.2-2.1s1.6-2.2,3.5-3.6c4.4-3.1,4.9-5.5.6-2.9-1.6,1-3.5,2.2-4.1,2.8-1.6,1.3-2.3,1.3-2.3,0s3.8-4.9,6-5.5c2-.6,2.9-2.6,1.8-3.9-.6-.7-.3-1.3,1.1-2.2,1.1-.7,2.4-1.3,2.9-1.3s1.9-.9,3.1-2c1.2-1.1,2.9-2.4,3.8-2.9,2.2-1.1,2.2-2.2,0-3.4l-1.8-.9,1.9-.8c1-.4,3.2-1.3,4.9-2,2.6-1,2.9-1.4,2.5-3.1-.4-1.4,0-2.2,1.5-3.1,1.2-.8,1.9-2,1.9-3.2,0-2.3,1.1-2.6,9.9-2.9,4.9-.2,6.4,0,6.4.8s-1.4,1-4.8,1-4.9.1-8.3,3.5c-3.4,3.4-3.4,3.5-1.4,3.5s3.4-.7,5-1.6c5.7-3.1,15.8-1.6,20.5,2.9,2.8,2.8,2.7,4.1-.2,2.3-1-.6-4.4-1.3-7.5-1.6-4.6-.4-5.6-.2-5.6.7s-.7,1.1-1.6,1.1c-3.1,0-1.5,2.2,2.8,3.8,2.4.9,4.9,1.7,5.5,1.7,1.9,0,.8-2.6-1.1-2.7-2.1-.2-4.3-2-2.5-1.9,1.4,0,6,1.6,8.4,3,1.6.9,2.3.8,5.1-.6,1.8-.9,3.9-2.2,4.8-2.8,1.4-1,1.9-.9,5,1.8,2.4,2.1,4,2.9,5.2,2.6,1.9-.4,2.5,1,.8,1.7-.5.2-.3.4.6.5,1.9,0,5.4,5.7,4.7,7.6-.4,1.1-.6,1-1.7-.4-1.3-1.9-4.8-2.3-7.6-.8-.9.5-3.1,2.3-4.9,4.1-1.8,1.8-4,3.3-5,3.3-2,.2-3.2,1.5-2.6,3.1.5,1.3,1.8,1.3,3.7-.2,2.3-1.7,3-1.4,2.5,1.1-.3,1.6,0,2.6.9,3.4,3.1,2.7,10.9,4.2,13.1,2.6,1.3-1,1.3-1.2.2-2.5-1.4-1.7-1.5-5.8-.1-6.3.5-.2,1.8,1.4,2.8,3.4,1.1,2.1,3,5,4.4,6.5,7.5,8.3,8,10.8,2.3,11.9-1.9.4-3.8,1-4.2,1.4-1.3,1.2-1.9.8-2.6-1.8-.7-2.8-2.2-3.3-3.5-1.2-.5.9-.6,2.3,0,4.3.6,2.4,1.1,3,2.7,3,2.2,0,3.9.9,3.9,1.9s-1.4,1.7-3.1,2.9c-3.2,2.3-4.7,4.7-4.7,7.3s.7,1.9,4.4-1.8c7.1-7.2,7.8-7.6,9.3-6.4,1.4,1,1.3,1.1-.7,2-1.2.5-2.1,1.4-2.1,1.9s-.5,1.2-1.1,1.4c-.6.2-1.7,1.4-2.5,2.5-1.5,2.3-.6,3.6,2.2,2.9,1.9-.5,5.9,3.1,7.4,6.6.6,1.4,1.1,3.9,1.1,5.6ZM1071.3,308c-7.1,1.5-7,1.5-5.9-.3.5-.8,1.9-2.1,3.2-2.8,1.8-1,2.5-1.1,3.4-.4,1.7,1.4,1.4,3-.6,3.4ZM1034.1,320.5c0,2.3,3.2,4.2,4.8,2.9.6-.4,2.5-.8,4.4-.9,2.9-.1,3.3,0,2.4,1.1-.5.6-1.6,1.2-2.5,1.2s-1.6.5-1.8,1.2c-1.3,4.1-1.2,4-2.6,2.3-.7-.9-3.3-2.7-5.7-4.1-2.7-1.5-4.6-3.2-4.9-4.2-.9-3.2-.5-5.2,1.1-6,1.3-.7,2-.5,4,1.1,1.3,1.1,2.7,2,3.1,2s.7.3.7.8-.7.8-1.6.8-1.6.5-1.6,2ZM1038.2,335.7c1.6,0,1.7.4,1.7,4.2s-1.3,4.7-2.7-.2c-1.1-3.9-1-4,1-4ZM1042.9,341c.2-.5.4-.1.4,1s-.2,1.5-.4,1c-.2-.5-.2-1.4,0-1.9ZM1045,349.7c.5,0,.8.4.8.8s-.2.8-.3.8-.6-.4-.8-.8c-.3-.4-.1-.8.3-.8ZM1046.4,332.4c-.5-.2-1.1-1.1-1.2-2.1-.2-1.7-.2-1.7,1-.6,1.5,1.5,1.6,3.2.3,2.7ZM1056.5,368.4c1,0,1.4.5,1.3,2.1,0,1.2-.2,2.3-.3,2.5-.2.7-2.4-2.6-2.4-3.6s.6-1,1.4-1ZM1074.6,376.6c.5-.6,1.5-1.2,2.1-1.2,1,0,1,.2.2,1.2-.5.6-1.5,1.2-2.1,1.2-1,0-1-.2-.2-1.2ZM1227.7,334.1c9.1,4.6,18.5,13.8,22.3,21.8,2.6,5.5,2.8,6.3,2.8,14,0,9.2-.3,11.5-3.7,21.4-1.3,3.8-2.8,8.7-3.3,10.8l-1,3.8-4.7-.6c-2.6-.3-5.8-.7-7.1-.8-1.3-.1-6.3-.6-11.2-1.1-4.9-.5-9.6-1-10.5-1.2-1.5-.4-16-2.3-31.6-4.3-3.2-.4-10-1.4-15.2-2.3-5.1-.9-13-2.1-17.5-2.7-4.5-.6-10.8-1.7-14-2.3-13.7-2.7-18.6-3.7-23.3-4.5-2.8-.5-5.9-1.4-7-2.1-3.2-2.1-7.8-3.7-14.6-5.2-3.5-.8-6.3-1.7-6.2-2.1.1-.4,1.9-1.4,4-2.2,5-2,7.6-4.1,8.6-7.1.7-2.1,2.2-3.1,12.1-8.1,18.8-9.4,47.4-22.9,48.6-22.9s6.3-2.9,13.5-6.4c15.3-7.5,27.9-13.3,32.3-14.8.9-.3,1.5,0,1.8,1.1,1.2,3.8,10.8,10.6,25.1,17.8ZM1114.3,391c.9.6.8.8-.6.8-1,0-1.8-.3-1.8-.8,0-1,.8-1,2.3,0ZM1140.9,399.9c.5-.6,19.3,1.3,28.3,2.8,2.6.4,7,.9,9.7,1.1,7.1.4,14.7,1.6,25.4,3.9,9.5,2.1,23.9,4.8,27.7,5.2l2.2.3-3.2,3.5c-3.2,3.5-3.2,3.5-9.6,4-5.3.4-8.2,0-17.3-1.8-11.1-2.3-28-3.6-33.2-2.7-1.5.3-3.8,1.7-5.3,3.1-3,3-3.9,3.3-3.9,1.6s-1-1.7-2.1-2.3c-1.2-.6-4.1-3.3-6.4-6-5.7-6.5-6.9-7.7-10.1-10.2-1.5-1.1-2.5-2.3-2.2-2.6ZM1239,414.9c.2-.5,1.3-1.1,2.6-1.2,2.2-.2,2.2-.2.7,1-1.9,1.5-3.7,1.6-3.3.3ZM1250.9,406.5c-1.1,0-2-.3-2-.8s.7-.8,1.5-.8,1.7.4,2,.8c.3.4-.4.8-1.5.8ZM1253.8,411.2c1.2,0,2.1.3,2.1.8,0,1-1.6,1-3.1,0-.9-.6-.7-.7,1-.8ZM1206.6,315.1c0-.4.8-.9,2-1,1.2-.1,2.1.1,2.1.5,0,1.6-3.8,2-4.1.5ZM1206.5,309c.6.3,1.2.8,1.2,1.1s-.5.7-1.2.7-1.2-.5-1.2-1.1.5-1,1.2-.7ZM1208.4,305.7c-2.9-1.5-2.9-2.2-.2-4.8,2.1-2,4-2.9,7.6-3.8,1.6-.4,1.9-.2,1.9,1.1s-.8,3.2-1.7,5.1c-1.9,3.9-3.6,4.4-7.7,2.3ZM1258,399.5c-.9,0-2.2-.7-2.7-1.6h0c-.5-.8-1.5-1.5-2.1-1.5s-1.2-.4-1.2-.8.9-.8,2-.8c2.2,0,2.7-2.1.8-2.8-1.8-.7-1.4-2.4.8-2.9,2.2-.5,2.6-1.8.8-2.5-1.6-.6-1.5-4.2,0-4.2s2.3-2.2.8-3.9c-1.2-1.4-1.2-1.6,0-3.5,1.1-1.6,1.1-2.2.4-3.2-.8-1-.7-1.5.4-2.7,1.3-1.4,1.3-1.6.1-3-1.4-1.6-1.7-3.7-.5-4.4,1.2-.7.9-2.7-.4-2.7s-1.2-.7-1.2-1.9-.5-2-1.1-2.3c-.6-.2-1.9-1.9-2.8-3.7-.9-1.8-4.7-6.3-8.5-10-5.5-5.4-8.3-7.5-14.9-10.9-9.8-5-17.9-10.3-17.5-11.4.4-1.3,2.8-1.4,5.4-.1,1.4.6,4.8,1.7,7.5,2.5,11.5,2.9,20.9,8.8,31.9,19.8,4.3,4.3,5.4,6,7.3,11.3,2.5,6.7,3.9,16.1,3.2,21-.7,5-3.5,16.2-4.6,18.3-.5,1.1-1.2,3.3-1.5,4.9-.4,2.3-.9,2.9-2.3,2.9ZM1253.6,449.3c-.4,0-.8-.3-.8-.7s.4-.9.8-1.2c.4-.3.8,0,.8.7s-.4,1.2-.8,1.2ZM1244.2,452.1c1.4-1.3,1.7-1.3,5,0,3.4,1.4,5,3.2,2.2,2.3-.7-.2-2.3-.6-3.5-.9-1.2-.3-2.6-.1-3.2.4-1.7,1.4-2.2-.4-.5-1.9ZM1242.5,449.3c-.5,0-.5-.4.2-1.2.5-.7,1.2-1,1.3-.8.5.5-.6,2-1.5,2ZM1251.9,444.7c.4,0,1,.3,1.3.8.3.4.1.8-.3.8s-1-.4-1.3-.8c-.3-.4-.1-.8.3-.8ZM1200.6,520.2l7.8-3.9c4.3-2.1,9.5-4.6,11.7-5.4,4.9-1.9,9.5-5.5,12.6-9.9,1.7-2.4,2.9-3.4,4.2-3.4,2.4,0,3.3-1.5,1.7-2.7-1.7-1.3-1.6-1.8.5-2.1,1.4-.2,1.7-.7,1.6-2.4-.1-1.7.3-2.2,1.7-2.6,2.2-.5,2.4-1.3.7-2.6-1.8-1.5-1.4-4.1,1-6,2.1-1.7,2.1-1.8.6-2.9-1.5-1.1-1.5-1.2.3-3.6,1.3-1.8,1.6-2.7,1-3.3-1.1-1.1-1.1-4.2,0-4.8,1.3-.8.9-2.5-.8-3-2.1-.5-2-1.5.3-3.6,1.8-1.7,2-1.7,4.9-.6,2.8,1.1,3,1.3,3.2,5.2.2,3.9-.6,10.6-2.2,18.2-.7,3.3-3.3,9.3-7,16-3.7,6.8-11.3,12.8-24.1,19.1-4.1,2-9,4.7-10.9,5.9-4.3,2.7-5.5,2.8-7.2.4l-1.4-1.9ZM1192.1,535.7c0-1.5,0-1.5,2.3.1,4.6,3.4,9.3,11.8,5.8,10.5-.7-.3-1.9-.5-2.8-.5s-2.1-1.2-3.4-4.3c-1.1-2.4-1.9-5-1.9-5.9ZM1197.1,525.6c-1.1-1.3-1.2-1.8-.5-2.5.8-.7,1.2-.6,2.1.6,2.3,3.1.9,4.8-1.6,2ZM1195.3,530.3c-.4,0-1.1-.5-1.6-1.2-.8-1-.7-1.2.2-1.2s1.4.5,1.6,1.2c.2.6.2,1.2-.2,1.2ZM1125.2,446.9l5.2,2.9c4.3,2.4,6.5,3.1,13,3.9,6.4.8,8.5,1.4,11.7,3.5,2.8,1.8,5.1,2.6,8.2,2.8,3.8.3,4.8,0,8.3-2.1,3.9-2.4,4.2-2.5,8-1.6,2.2.5,5.7.9,7.8.9,4.5,0,17.6-2.2,19.6-3.2.8-.4,3.5-1.4,6.2-2.3,2.6-.8,5.3-2,6-2.6,2.5-2.2,6.4-2.6,9.8-1.1,1.7.8,3.9,1.4,4.8,1.4,2.1,0,3.2,1.9,5,9,1.6,6.3,1.8,10.4.6,18.8-.7,4.8-1.7,7.7-5.1,14.3-6.3,12.1-8.7,14.4-21.3,19.6-2.8,1.2-7,3.2-9.3,4.5-3.1,1.7-4.9,2.2-6.5,1.9-1.8-.4-2.1-.2-1.7.6.9,1.5-5.8,7.1-7.4,6.2-.7-.4-2.8-2.5-4.7-4.7-3.9-4.5-10.1-10.8-21.1-21.4-4-3.9-9.9-9.8-13-13.2-3.1-3.4-7-7.6-8.6-9.3-1.6-1.7-5.8-6.2-9.3-9.9l-6.3-6.8v-11.7ZM1128.3,619.8c-.4-.6-.7-1.7-.7-2.3,0-.8.3-.6.7.4.9,2.1.9,3.4,0,2ZM1133,616.2c1.1,2.8,1.8,5.3,1.7,5.5-1.1,1.1-2.6-1-3.4-4.6-1.4-6.2-.5-6.6,1.7-.9ZM1136.6,618c-2.1-5.8-4.1-18.4-3.1-19.4.5-.5,1.1-.7,1.3-.5.2.2,1.1,4.8,1.9,10.1.8,5.3,1.7,10.4,2,11.4,1,3.2-1,1.8-2.2-1.5ZM1140.7,600.9c0,2.7-.2,3.4-.8,2.5-.4-.6-.8-2.3-.8-3.7,0-1.4.3-2.5.8-2.5s.8,1.7.8,3.7ZM1143,609.6c.5,1.7,2,5.4,3.2,8.1,2.7,6,2.4,6.9-1.8,5-1.5-.7-2-1.6-2.4-4.5-.3-2-.8-5.3-1.2-7.3-.4-2.1-.7-4.3-.7-5,0-2.2,2,.2,3,3.6ZM1154.4,620.3c2.2,3.8,2.4,5.3.6,4.6-.7-.3-1.6-.5-2-.5-.9,0-5.3-9.4-7.6-16.6-1.8-5.6-1.7-10.1.3-10.9,1.7-.6,2.8,1.3,2.7,4.6-.1,3.5,3.2,14,6,18.7ZM1154.3,599.7c1.7,8.9,2.5,11.7,4.4,15.5,1.2,2.4,2.5,4.5,2.8,4.7.3.2,1.4,1.5,2.5,2.9,1.5,2.1,1.6,2.7.8,3.3-1.6,1-2,.9-3.5-1.1-.8-1-2.4-4.1-3.6-6.8-1.2-2.7-2.9-6.4-3.6-8.1-1.9-4.1-2.5-7.5-1.9-10,.6-2.5,1.7-2.7,2.2-.3ZM1161,600.2c0,3.4,3.6,10.9,8.3,17.6,2.6,3.6,2.7,3.9,1.3,4.9-2,1.5-2.7,1.1-6.3-4-5.3-7.6-8.2-20.6-4.8-21.3,1.1-.2,1.4.3,1.4,2.9ZM1170.6,627.5c1.4-1.9,14-8.5,16.2-8.5s2.9.7,4,1.6c1.8,1.4,2.1,2.1,2.1,6.5s-.2,5.1-.5,5.4c-.9.9-6.5.6-12.9-.7-7.9-1.6-10.1-2.7-8.9-4.3ZM1169.8,605.8c.6,1.1,1.6,3.2,2.1,4.6.6,1.5,2,3.8,3.2,5.2,1.2,1.4,2,2.9,1.7,3.4-.8,1.2-1.5,1-3.7-1.3-3.4-3.6-8.6-13.5-9.4-17.9-.7-3.8,1.5-3.3,3.4.8.8,1.8,2,4.2,2.6,5.3ZM1216.9,615.6c-2.3,6.4-3.8,15-2.7,15.7,1.2.7-6.8,2.3-12.2,2.4-2.5,0-4.5-.2-4.5-.6s1.8-1,4.1-1.4c2.8-.4,4.1-1,4.1-1.8s-.9-1.1-4.2-.9c-5.3.3-4.7-1.1.7-1.9,4.3-.6,5.2-1.2,3.5-2.6-.8-.6-2.3-.8-4.8-.4-3.1.5-3.5.4-2.8-.5.5-.6,2.7-1.9,4.8-2.9,2.2-1,3.9-2.1,3.9-2.5,0-1.6-2.8-1.5-5.8.1-4.7,2.6-5.8,1.4-2.3-2.4,1.5-1.7,2.7-3.5,2.5-4-.6-1.9-2.8-1.4-4.2,1-1.6,2.8-3.1,3.2-2.3.6,1.8-5.8.7-8.8-2-5.2l-1.4,1.8-.3-1.9c-.2-1.3-.8-1.9-1.8-1.9s-1.6.7-2.1,3.9c-.6,4-1.8,5.5-5.2,6.4-1.5.4-2.3,0-4-2.1-2.1-2.5-8.5-16.9-8.5-19.1s2.3-.5,5.4,6.1c2.3,4.8,4.1,7.5,5.4,8.1,2.6,1.3,3,.6,1.1-1.9-2.6-3.6-5.1-9.6-4.8-11.7.2-1.8.5-1.5,2.6,2.5,1.3,2.5,3,4.9,3.7,5.3,1.9,1,1.7,0-.6-4.9-1.1-2.3-1.9-5.2-1.9-6.5v-2.3s1.9,2.2,1.9,2.2c1.1,1.2,1.9,2.7,1.9,3.3s.8,1.1,2,1.1c2.2,0,2.5-1.2.9-3.5-.6-.8-1.3-2.5-1.6-3.6-.6-2.5.4-3.2,6.1-4.5,5.8-1.3,10.1-.3,13.9,3.2,1.8,1.7,4.9,4.3,6.9,5.9,2,1.6,4.2,4.1,4.9,5.5,1.7,3.6,1.6,10.7-.4,16.2ZM1233.3,759.8c.5,0,.8.4.8.8s-.2.8-.3.8-.6-.4-.8-.8c-.3-.4-.1-.8.3-.8ZM1234.9,751.4c0,1.6-1.1,2.6-1.4,1.4-.2-.5,0-1.3.6-1.8.6-.6.9-.6.9.3ZM1239.8,754.6c-1.8.4-2.1-.4-1-2.5.5-.9,1.2-1.4,1.6-1.2,1.3.8.8,3.4-.6,3.6ZM1245,760.7c1.3,1.8,2.4,3.8,2.4,4.5s1.7,2.9,3.8,5c2.1,2,4.1,4.7,4.3,5.9.7,3.2-.9,8.5-3.6,11.9-2.5,3.2-3.8,3.6-5.3,1.8-.7-.9-.5-2,1.1-5.5,2.4-5.2,2.3-5,.9-5s-2.1,1.4-3.2,3.1c-1.1,1.7-2.4,2.9-2.7,2.7-1.3-.8-.7-5.2,1.4-9,1.1-2.1,1.9-4,1.6-4.3-1.1-1.1-3.7.8-5.2,4-.9,1.9-2,3.5-2.4,3.5-.8,0-3.5-5.5-4.3-9-.3-1.3.1-2.6,1.5-4.4,1.1-1.4,2.2-3.4,2.5-4.3.3-1,1.6-2.3,2.8-2.9,2.2-1.2,2.3-1.1,4.6,2.1ZM1203.7,672.7c-2.7-2.6-4.7-4.8-4.5-5,.2-.2,2.1.3,4.2,1,2.7,1,4.2,2.1,5.2,4.1,3.2,6,1.5,6-4.9,0ZM1195.5,691.2c-1.7-1.8-3.9-4.4-4.9-5.8-1-1.4-2.3-2.6-3-2.6-.8,0-.5-.3.6-.6,1.4-.4,1.9-1,1.7-2.1-.2-.8-.4-2.6-.5-4-.1-1.4-.6-3-1.2-3.7-.8-1-.7-1.2.5-1.3.8,0,2.1,0,2.9,0,.8,0,2.5-.4,3.8-1.1,1.3-.7,2.4-1.1,2.5-1,0,.1,1.3,1.9,2.7,3.9,2.9,4.2,1.9,5.1-2,1.8-1.7-1.4-2.5-1.7-3.1-1.1-1.2,1.2,0,3.2,4.4,7.4,2,1.8,3.4,3.5,3.2,3.7-1,1-5.9-2.7-8.3-6.2-1.9-2.8-2.6-3.3-2.3-1.9.7,3.4,2.5,7.3,4.6,10.5,2.2,3.3,3.6,7.4,2.4,7.4s-2.1-1.5-3.8-3.3ZM1187.8,686.7l-1.8,1.6c-2.3,2-4.2,2.1-3.9.2.2-.9,1.1-1.4,3-1.6l2.7-.2ZM1192.1,704.3c0-.2.3-.6.8-.8.4-.3.8-.1.8.3s-.3.8-.8.8-.8-.2-.8-.3ZM1183.1,704.3c0-.9,1.1-1.7,3.1-2.4,4.1-1.4,4.5-.7,1.2,2.1-2.9,2.4-4.3,2.5-4.3.4ZM1182.4,697.7c.9-.8,9-3.4,9.4-3,.2.2-1.7,1.4-4.2,2.7-2.8,1.5-4.8,2.1-5.2,1.7-.5-.5-.5-1,0-1.4ZM1165.8,667.5c.3-.3.9-.3,1.5,0,.6.3.4.4-.5.5-.8,0-1.3-.1-1-.4ZM1101.1,649.5c.9,1.4.9,7.9,0,7.3-.4-.2-.9-1.6-1.2-3.1-.6-3.2.2-5.9,1.2-4.3ZM1100.6,646.8c-.3-.3-.3-.9,0-1.5.3-.6.4-.4.5.5,0,.8-.2,1.3-.4,1ZM1056.4,663.5c1.9-1.6,6.5-8.2,6.5-9.5s.5-.8,1.2-.8c1.5,0,1.5,3,0,7-1.1,2.6-1.7,3.2-4.1,3.6-1.6.3-3.2.6-3.6.7-1.5.5-1.5.3,0-1ZM934.4,651.7c.4,0,1,.4,1.3.8.3.4.1.8-.3.8s-1-.4-1.3-.8c-.3-.4-.1-.8.3-.8ZM916.5,645.4c.4,0,1,.4,1.3.8.3.4.1.8-.3.8s-1-.3-1.3-.8c-.3-.4-.1-.8.3-.8ZM909.2,637.7c1.9,3.6,2.5,5.9,1.3,5.1-.4-.2-1.3-1.6-1.9-3.1-2-4.3-1.4-6,.7-2ZM905.7,631.4c0-.4.2-.8.3-.8s.6.4.8.8c.3.4.1.8-.3.8s-.8-.4-.8-.8ZM898,621.1c-1.1-3.8-.8-9.2.3-6.4.3.9,1,2.6,1.6,3.9.6,1.3,1.3,3.5,1.6,4.9.5,2.4.5,2.5-1,1.8-.8-.5-1.9-2.3-2.5-4.2ZM897.1,634.4c0-1,1.8-.4,2.2.8.2.6-.2.7-.9.5-.7-.3-1.2-.8-1.2-1.2ZM894.4,637.7c.3-.4.8-.8,1.2-.8s.7.3.7.8-.5.8-1.2.8-1-.3-.7-.8ZM803,699.8c-1.1,0-1.5-.2-1-.4.5-.2,1.4-.2,1.9,0,.5.2.1.4-1,.4ZM807.4,704.3c-2.9,1-4.6.9-5-.4-.2-.5.3-.9,1.1-.9.8,0,2.8-.2,4.5-.5,3.5-.6,3.2.4-.6,1.8ZM817.7,707c0,1.2-1.8,1.8-5.2,1.6-2.6-.1-3.5.2-4.2,1.4-1,1.9-2.6,2.1-3.9.5-1.4-1.6-.5-2.5,2.8-2.6,1.6,0,4-.6,5.4-1.3,2.4-1.2,5-.9,5,.4ZM826.3,711.6l-2.9,2.6c-2.7,2.4-4.5,3.2-8.3,3.5-.9,0-1.2-.2-.8-.6.4-.4,2.4-1.3,4.5-2.1,4.2-1.6,5.3-3.2,3.2-4.8-1.9-1.4-.8-1.3,2,.1l2.3,1.2ZM814.9,722c.3-.3.9-.3,1.5,0,.6.3.4.4-.5.5-.8,0-1.3-.2-1-.4ZM834.9,716.9c0,1.2-2.3,1.7-3.8.8-1.1-.7-2-.5-4.4,1.2-3.5,2.4-3.2,2.3-3.8,1.4-.2-.4,1-1.6,2.7-2.8,1.7-1.2,3.1-2.6,3.1-3.2s.3-1.1.6-1.1c1.1,0,5.7,3.1,5.7,3.8ZM861.9,757.3c.5-.9,2.6,1.6,2.6,3.1s-2.1,1.1-2.6-.7c-.2-.9-.2-2,0-2.4ZM855,752.1c1.8,0,4,3.8,4,7s-.7,1.9-2.5.5c-1.2-1-2.5-7.6-1.5-7.6ZM850.9,739c-1.1-1.1-1.5-1.1-3-.2-5.7,3.6-8.8,4.7-11.9,4.2-4.5-.7-5.3-1.9-1.3-1.9s4.3-.5,5.4-1.1c2.3-1.2,5.3-2.5,7.4-3.1,2-.7,1.1-2.5-1.1-2.1-1,.2-2.6,1-3.5,1.8-1.2,1.1-1.8,1.3-2.2.6-.3-.5-1.5-.7-2.8-.5-1.8.4-2.2.2-2.2-1.1,0-2.5-1.7-5.5-3.2-5.5s-1.3-.5-1.2-1.3c.2-1.9-2-2.1-4-.2-2.1,2-4.1,2-4.1.1s2.1-2.8,8.1-4.9c1.6-.6,3.8-2,4.8-3.2,2.3-2.8,2.7-2.7,2.7.5s.3,2.9.8,3.2c.4.3.8,1.9.8,3.5s.3,3.1.8,3.1.8-.4.8-.8c0-1.3,1.4-.9,8.3,2.3,4.5,2.1,8,4.4,10.8,7.2,2.3,2.3,5.9,5.6,8.1,7.5,2.1,1.9,3.9,3.7,3.9,4.1s1.1,2.2,2.4,4.2c1.3,2,2.3,3.7,2.1,3.9-1,1-6,2.6-8.1,2.7-2,0-2.6-.4-3.2-2.1-.4-1.2-1-3.3-1.3-4.7-.7-4.1-3.4-9.5-4.7-9.5s-1.2.5-1.2,1.1c0,.9-.3.9-2.3,0-1.3-.6-2.3-1.5-2.3-2s-.8-.6-1.8-.4c-1.2.3-2.1,0-2.7-1.1-.8-1.3-.7-1.6.7-2.4,1.5-.8,1.5-1,.4-2.1ZM823.6,734.2c.3-.4.8-.8,1.3-.8s.6.4.3.8c-.3.4-.8.8-1.3.8s-.6-.4-.3-.8ZM826.3,736.5c.5,0,.8.3.8.8s-.2.8-.3.8-.6-.4-.8-.8c-.3-.4-.1-.8.3-.8ZM833.9,745.9c1.2.4,2.2.7,2.4.5.1-.1,1.1,1.2,2.2,3.1,1.1,1.8,1.8,3.3,1.6,3.3s-2.1-1.7-4.3-3.8c-3.2-3.1-3.6-3.7-1.9-3.1ZM816.5,769.8c.2-.5.4,0,.4,1s-.2,1.5-.4,1c-.2-.5-.2-1.4,0-1.9ZM811.5,770.7c.6,0,1.6,3.7,1.6,5.9s-1.4,1.3-2.3-.5c-.8-1.6-.3-5.5.7-5.5ZM801.8,745.8c1.3,1.4,1.3,1.6.1,1.6s-1.5-.5-1.8-1.2c-.7-1.9.1-2.1,1.7-.4ZM782.7,713.2c.4,0,.8.3.8.8s-.2.8-.4.8-.6-.4-.8-.8c-.3-.4-.1-.8.4-.8ZM781.2,711.3c0-.6.4-1.3.8-1.6.4-.3.8.2.8,1.1s-.4,1.6-.8,1.6-.8-.5-.8-1.1ZM744,647.7c1.3,1,1.7,1.7,1.1,1.7s-.8-.6-1.4-1.4c-1-1.2-.9-1.3.3-.3ZM745.9,642.5c1.2,1.4,3.5,3.5,5.1,4.7,2.8,2.1,3.7,3.6,2.1,3.6s-2.1-1.2-3.7-2.6c-1.6-1.4-4.1-3.6-5.4-4.8-1.4-1.2-2.5-2.5-2.5-2.9,0-1.5,2.3-.5,4.4,1.9ZM750.5,638c.6.2,1.1,1,1.1,1.6s.4,1.2.9,1.2c1.1,0,9.2,7.8,9.2,8.8s-5.8-.2-7-1.7c-8-9.9-9.9-13.4-7.4-13.4s1.3.7,1.6,1.5c.3.8,1,1.7,1.6,1.9ZM761.4,638.5c.4.7,2,2.2,3.6,3.4,3.1,2.3,3.5,3.4,2,5-1.5,1.5-3.3,1.1-5.9-1.6-1.4-1.4-4.1-4.4-6-6.6-5.4-6.3-5.9-8-2.7-8s7.5,5.4,8.9,7.8ZM761.4,629.6c10.6,9.5,12.9,11.9,12.4,12.7-.9,1.5-3.2,1-6-1.3-4.2-3.4-10-10.2-10-11.9s.9-1.9,3.6.5ZM775.8,632.5c3.5,3.2,3.5,3.3,1.8,5.2-1.6,1.8-2.6,1.3-8.7-5-2.7-2.8-4.9-5.5-4.9-5.9,0-3,4.6-.7,11.7,5.7ZM771,619c.9.5,1.6,1.1,1.6,1.5s1.7,1.8,3.7,3.2c2,1.4,5,4,6.6,5.7l2.9,3.2-1.8,1c-2.4,1.3-2.5,1.3-5.4-1.1-1.4-1.2-4.5-3.9-6.8-6.2-3.9-3.8-4.1-4.2-3.3-6.1.8-1.7,1.1-1.9,2.5-1.2ZM784.6,622.1c3.5,4,6.9,7,7.9,7s1.3.5,1.8,1.1c.7.8.7,1.2-.1,1.5-1.7.7-3.8.6-5.5-.4-.9-.5-2.6-1.8-3.7-2.9-1.1-1.1-4.5-4.4-7.6-7.4-3.1-3-5.5-5.7-5.5-6s.7-.8,1.6-1.1c1.7-.5,7,3.3,11.2,8.2ZM794.6,626.8c-.4,0-1.2-.5-1.7-1.2-.5-.7-.6-1.2-.2-1.2s1.2.5,1.7,1.2.6,1.2.2,1.2ZM782.4,613.5c-.2,0-.6-.3-.8-.8-.3-.4-.1-.8.3-.8s.8.4.8.8-.2.8-.3.8ZM748,537.1c0-2.2,1-2.9,3.9-2.9,2.3,0,2.3,0,.8,1.6-.8.9-2.2,1.9-3,2.3-.9.4-1.6.7-1.6.7,0,0,0-.7,0-1.7ZM674.8,548.5c-1.9-.5-3.4,1.6-5.1,7.5-1.8,6-2.4,11.2-1.5,12.9.4.8,1,2.5,1.3,3.8l.5,2.3-1.3-1.8c-.7-1-1.8-3.4-2.4-5.4-.8-2.7-.9-4.7-.3-8.4,1-6.1,1.3-6.9,4-11,2.7-4,5.4-4.9,14.3-4.9,12.7,0,15.3,1.9,3.4,2.5-5.1.3-8.4.8-9.6,1.6-1,.7-2.5,1-3.3.8ZM670.9,565.1c.3-.6.4-.4.5.5,0,.8-.1,1.3-.4,1-.3-.3-.3-.9,0-1.5ZM675.3,583.2c-.8-1.5-1.5-3.4-1.5-4.3,0-1,.5-.5,1.5,1.6,1.9,4.1,1.9,6.2,0,2.7ZM679.7,590.6c1.1,2.6,1.5,8,.6,7.1-.3-.3-1.1-2.8-1.9-5.6-1.4-5.2-.7-6.1,1.2-1.5ZM674.6,615.9c0-.4,1-1.9,2.2-3.3,1.2-1.4,2.6-3.8,3.1-5.4.5-1.7,1.5-3,2.4-3.2,2.3-.6,2.1-8.8-.4-14.9-2.1-5.1-2-6.1.5-3.9,3.6,3.3,4.9,8.3,3.7,14.3-1.2,6-5.2,14.4-7.6,15.8-2.3,1.4-3.9,1.6-3.9.5ZM648.9,593.4c.6.2,1.2.8,1.4,1.4.2.6-.1.9-.7.7-.6-.2-1.2-.8-1.4-1.4-.2-.6,0-.9.7-.7ZM645.3,589.4c.7,0,1.3.5,1.3,1.2s-.1,1.2-.3,1.2-.7-.5-1.3-1.2c-.8-1-.7-1.2.3-1.2ZM609.2,547.1c1.3,3.4,5.5,11.3,7.5,14,1.8,2.3,12.7,11,19.5,15.5,3.6,2.4,4,3.2,1.9,3.7-.7.2-1.5.4-1.6.5-.1,0-2.5-1.5-5.3-3.5-2.8-2-6.3-5.1-7.9-7-1.6-1.9-3.3-3.4-3.8-3.4-2.2,0-8.4-10.1-10.8-17.4-1.3-4.1-1-6.1.4-2.3ZM621.1,563.1c-3.5-3.5-8.7-12.2-7.9-13.1.2-.2,1.2,1,2.2,2.6,1.8,2.9,4.4,6.4,8.8,11.6,3.3,3.9,1.3,3.2-3.1-1.1ZM607.2,528.4c.3-3.5.6-7.6.7-9.1.2-3.2,5.8-11.3,8.6-12.3,5-1.9,6.8-2.2,7.2-1.5.3.4,0,1.4-.8,2.1-2.3,2.6-1.4,3.3,2,1.5,1.8-1,4.1-2.3,5.2-2.9,1.7-.9,3.1-.9,9-.1,7.8,1.1,15.8,3.8,25,8.5,3.4,1.7,7.5,3.5,9.2,4.1,1.7.5,5.3,2.2,7.9,3.6,2.6,1.5,7.4,3.5,10.5,4.6,7.4,2.6,8.8,3.4,5.9,3.4-2.9,0-19.6-4.9-28-8.3-3.7-1.5-7.2-2.6-7.7-2.4s1.5,1.3,4.5,2.5c3,1.2,6.4,2.7,7.7,3.3,3.9,1.9,21.5,7.1,25.8,7.7,2.6.3,4.2.2,4.5-.4.7-1.2,4.1-1.1,8.6.4,2.3.7,7.5,1.3,12.8,1.5,9.3.3,11.2-.2,19.5-4.7,3.2-1.8,6.4-3.3,10.3-4.9,2.8-1.2,4-2.2,4.8-4.1.6-1.4,3.1-4.5,5.6-6.8,4.2-3.9,7.4-6.4,19.3-15.3,5.9-4.4,13.9-7.7,23.4-9.6,12.7-2.6,18-3.2,24.9-2.8,6.7.4,10.9,1.7,13.2,4.3.8.9,1.8,1.6,2.3,1.6s-.2-1-1.4-2.1c-1.2-1.2-1.9-2.2-1.4-2.4,1.2-.4,11,2.3,18.5,5.1,14,5.2,22.8,10.7,35.2,22.3,4.8,4.5,9.5,8.6,10.3,9,1.9,1,3,.4,3-1.6s.5-1.5,1.9-1.5,2.1.4,2.4.8c.3.4,1.4.8,2.5.8s4.3.4,7,.9c4.5.8,5,1,4.6,2.5-1.4,5.7-1.4,7.5-.3,7.5s2.9-3.8,2.9-6.8.3-1.9,2.9-1.6c2.1.2,2.9.6,2.7,1.4-.1.6-.5,2.8-.7,4.9-.4,3.4-.3,3.7,1.2,3.7s1.8-.6,2.1-2c.2-1.1.6-2.8.8-3.9.4-1.8,2.1-2.6,4.6-1.9.4.1,3,.6,5.6,1.1,2.7.5,5,1.1,5.2,1.3.2.2,0,1.7-.5,3.3-.7,2.4-.7,3.1.3,4.1,1,1,1.4.7,3-2.8l1.9-4,3.1.5c1.7.3,3.2.6,3.4.8.1.1-.3,1.5-1.1,3-1.3,2.6-1.1,5.2.3,5.2s1.1-.8,1.5-1.9c1-2.3,3.4-5.1,4.2-5.1s.5,1.7.4,3.7c-.2,4.8,1.6,5,3.1.4.9-2.8,1.4-3.3,3.2-3.3,3.1,0,3.9.8,3.7,4.2-.1,3.7,1.5,4.6,2.6,1.5.5-1.2,1.2-2.6,1.6-3.1,1.3-1.5,3.5-.3,4.3,2.3.9,3,3.2,3.8,3.6,1.2.2-1.7.6-1.8,5.3-1.8,2.8,0,6.5.3,8.2.6,2.9.6,3.5.3,8.2-2.8,7.7-5.2,12-9.9,10.2-11-.4-.2-.5-1.3-.3-2.4.4-1.9.2-2-2.8-2s-3.5,0-2.4-2.8c.7-1.9,1.1-2,3.3-1.6,4.8,1,6.3.9,6.6-.5.3-1.3-.3-1.6-4.7-2.5-1.9-.4-2.1-.7-1.3-2.1,1-1.9,4.3-1.8,4.3.2s2.5,3.7,3.9,3.7c.9,0,3.5-4.9,3.5-6.5s.5-1.5,1-2.1c.5-.6,2-2.7,3.1-4.7,1.9-3.3,2.4-3.6,4.4-3.2,3.5.7,3.9-1.1.8-3.7-2.3-1.9-2.4-2.2-1-2.2.9,0,1.8-.2,2.1-.5.9-.9-.9-3.2-2.8-3.7-1-.3-2.8-1.7-4-3.2-1.8-2.4-1.9-2.7-.7-2.7s2.2.5,3.2,1.2c1.6,1.1,3.3,1,3.3-.4s-1.3-1.3-2.9-2.1c-6.1-3.1-7.7-5.9-3.1-5.6,3.6.3,3.3-1.7-.6-3.7-3.6-1.9-4.8-4.6-1.7-3.8,1.2.3,2.2,0,2.9-.7.9-1,.5-1.3-2.6-2.2-2.9-.8-3.6-1.3-3.4-2.5.1-1,.9-1.7,2-1.8,1-.1,1.7-.7,1.7-1.3s-.8-1.2-1.7-1.3c-1.1-.2-1.8-.9-2-2-.2-1.5.1-1.7,2-1.7s2.5-.2,2.8-.5c.8-.8-1.1-2.6-2.7-2.6s-1.5-.7-1.6-4.3c0-2.3-.2-4.9-.2-5.6-.1-2.8,2.5-1.6,10,4.7,11.5,9.6,15.6,12.2,19.1,12.2s5.4-1.5,5.4-3.1-2.1-2.2-5.1-2.1c-3.8,0-9.9-3.7-15-9.1-1.8-2-3.6-3.6-4-3.6-1.1,0-5.4-4.8-6.6-7.4-1-2.1-1.1-3.8-.5-9.5.4-3.8,1.2-8.1,1.9-9.6.6-1.5,1.6-4.4,2.1-6.5.8-3,1.5-4.1,3.6-5.3,1.9-1.1,2.6-2,2.4-3.2-.4-2.6-4.5-2.6-8.2-.2-1.6,1.1-3.6,2-4.4,2-2.2,0-1.3-2.7,1-3,1.1-.2,2.1-.6,2.4-1,.4-.6,1.9-1.1,4-1.4,1.1-.1.6-2.4-.6-2.4s-1.2-.4-1.2-.8,1.2-.7,2.9-.6c2.2.2,2.9,0,2.9-.9s-.8-1.3-1.8-1.4c-1-.1-1.7-.6-1.7-1s1.4-.6,3.8-.3c3.6.5,3.9.4,5.5-1.9l1.7-2.4-1.7-.6c-1.5-.6-1.5-.7-.4-1.6.7-.6,1.2-1.5,1.2-2.1s.5-1.1,1.2-1.1,1.4-.5,1.6-1.1c.2-.6,1.3-1.7,2.4-2.4,1.8-1.2,1.9-1.2,1.2.2-.4.8-1.5,2.1-2.4,2.9-.9.8-1.6,1.9-1.6,2.5,0,1.8,3.7,1.1,5.9-1.1,1.4-1.4,2.2-1.8,2.4-1.2.5,1.5-.4,3.3-1.8,3.3-2.9,0-12.9,9.8-11.5,11.2,1,1,3.9.4,5.3-1.2,2.9-3.2,10.8-6.9,14.6-6.9s4.1-.5,5.2-1.6c1.6-1.6,6.2-2.2,6.2-.8s-.9,1.2-1.9,1.7c-1.1.5-1.9,1.2-1.9,1.5,0,2.1,5.7,1.6,8.5-.8,1.6-1.4,3.9-1.4,3.9,0s-1.4,1.3-3.1,2.3c-3,1.7-3.8,2.7-2.5,3.5,1.2.8,8.4-1.6,8.6-2.9.3-1.6,1.1-1.6,3.3.2,2,1.6,1.5,3.2-1,3.2s-6.9,1.8-6.6,2.7c.2.5,1.4.7,2.8.6,2.1-.2,2.5,0,2.1.9-.7,1.8.9,2.4,6,2.2,4.5-.2,4.7-.1,7.7,3.1l3.1,3.3,3.2-1.2c4.4-1.6,5.6-1.1,3.6,1.7-2.6,3.6-1.7,5.5,1.2,2.3.8-.9,2.6-2.3,4-3.1,2.4-1.5,2.6-1.5,5.2-.3,3,1.4,5.3,4.3,3.8,4.8-1.3.4-1.1,2.5.2,2.5s1.7-.6,2.4-1.2c1.4-1.4,3.9-.9,3.3.7-1.4,3.6-1.5,3.7-.2,3.7s1.9-.4,2.8-.9c1.2-.8,1.8-.7,3.2.6,2.7,2.5,4.1,5.7,3,7-.7.9-.6,1.4.5,2.7.8.8,2,1.5,2.6,1.5s2.2.5,3.5,1.2c1.2.6,2.7,1.2,3.2,1.2s1.4.5,1.9,1.1c.5.6,2.5,1.6,4.4,2.3,3,1,3.5,1,3.9,0,.2-.6-.3-2-1.2-3.2-1.2-1.5-1.4-2.4-.9-3.4,1.3-2.5,2.7-3,9.4-3.5,6.9-.6,17.3.7,26.9,3.2,2.7.7,8.3,1.3,13.5,1.4,8.5.1,8.9.2,10.5,2.1,1.4,1.7,2.1,1.9,4.6,1.6,1.6-.2,3.4,0,4,.5.8.7,1.5.7,2.7,0,1.7-.9,2.1-2.7.8-3.6-.5-.3-.7-1-.5-1.5.8-2.2-1.2-2.7-4.2-1.2-1.6.8-3.4,1.5-4,1.5-1.9,0,3.6-3.1,7.6-4.3,2.2-.6,4.6-1.7,5.4-2.3,1.7-1.3,5.6-1.5,8.2-.5,2.6,1,7,5.4,6.4,6.3-.7,1.2.3,4.6,1.3,4.6s3.7,2.5,3.7,4-1.6,1.8-3.5-.6c-1.1-1.4-2-1.8-3-1.5-1.9.7-1.7,2.4.6,4.7,1.1,1.1,1.9,2.1,1.9,2.2s-1.1.5-2.3.7c-2.7.5-2.9,1.5-.8,3.6,2.1,2.1,4.1,6.1,3.2,6.6-.4.2-1.2-.2-1.7-.9-2.3-2.8-7.2-5.7-9.5-5.7-1.3,0-4.2.9-6.3,1.9-2.2,1.1-5.3,1.9-7.2,1.9-3.2,0-4.9-1-3.4-1.9,1.2-.7,1-3.5-.3-4-1.3-.5-5,1.1-12.6,5.6-3,1.8-6.7,3.5-8.2,3.8-1.5.3-3.6,1.1-4.8,1.6-1.1.6-5.9,1.6-10.5,2.3-6.7,1-9.6,1-14.1.3-4.7-.7-6.4-.6-9.8.4-2.3.7-4.6,1.7-5.1,2.4-1.5,1.8-2.5,1.4-5.4-2.4-2.4-3.1-3-3.4-5.2-3-2.2.4-2.6.2-3.7-2.1-.7-1.4-1.3-3.5-1.3-4.7,0-2-1.6-3.5-2.6-2.5s-.5,6.9.5,7.8c.5.5.7,1.2.4,1.5-.3.3-1.1-.2-1.8-1.2-.7-1-2.1-2.6-3.2-3.6-1.2-1.1-2.2-3.1-2.5-4.8-.6-3.6-2.1-4.3-2.7-1.1-.3,1.3-.9,2.4-1.5,2.4s-2.5-2.3-4.4-5.1c-4.5-7-6-5.7-2.1,1.9,1.5,3,2.5,5.5,2.1,5.5-.9,0-9-12.1-10.2-15.1-.4-1.1-1.1-2.1-1.6-2.1-1.5,0-.8,2.4,1.8,6.5,4.9,7.7,4,10-1.7,4.4-2-2-3.5-4.4-4.1-6.4-.5-1.8-1-3.7-1.2-4.2-.4-1.6-2.4-1.1-2.9.7-.2.9,0,2.4.4,3.2.6,1.1.6,1.8,0,2.4s-.9.7-.9.5c-.5-3.2-.9-4.4-1.8-5.3-1.5-1.5-3-.3-2.4,1.9.4,1.5.2,1.9-1.2,1.9-2.3,0-10.7,4.8-13.4,7.7-2.4,2.5-2.3,4.1.3,5.5,1.4.7,1.9.5,3.7-1.5,1.2-1.3,2.6-2.4,3.3-2.4,1.2,0,9.7,8.1,13.6,12.9,1.9,2.4,3.9,6.5,3.1,6.5s-7.6-5.8-13.4-11.1c-2.7-2.5-5.1-4.3-5.4-4.1-.3.2,2.2,3.2,5.5,6.5,3.3,3.3,6.7,7.2,7.6,8.7.9,1.5,2.4,3.5,3.2,4.5,3.3,3.6,0,1.5-4.1-2.5-2.4-2.3-5.4-4.8-6.8-5.5-1.4-.7-2.5-1.6-2.5-2.1s-.2-.6-.5-.3c-.3.3,1.1,2.2,3,4.2,2,2,5.2,6.1,7.1,9,2,3,4.3,5.9,5.1,6.4,1.5,1.1,3.7,7,2.9,7.8-.2.2-2.7-1.6-5.6-4-2.8-2.4-5.5-4.2-5.9-3.9-1,.6-.1,1.9,1.3,1.9s3,2.9,2.4,4.4c-.6,1.5,7.1,9.6,9.1,9.6s3.7,3.5,3.7,5-2.9,0-6-3.1c-2-1.9-4.2-3.5-5-3.5s-1.8-.5-2.3-1.2c-.5-.6-1.3-1.2-1.8-1.2s2.7,3.5,6.9,7.8c7.1,7.2,9.3,10.1,7.5,10.1s-2.2-1.6-4.1-3.5c-1.9-1.9-4-3.5-4.8-3.5s-1.6-.4-1.8-.8c-.3-.4-1.2-.8-2.1-.8-2.1,0-1.4,1.9.8,2.2,1,.1,2.2,1.3,2.9,2.6l1.2,2.4-2.4-.5c-1.9-.4-2.4-.2-2.4.7,0,1.7-4.4.8-9.2-1.8-6.2-3.5-7.5-4.1-8.7-4.1-.6,0-2.2-.7-3.5-1.6-4.1-2.7-3.9-1.7.4,2.3,2.3,2.1,4.6,3.9,5.1,3.9,2,0,12.8,7.9,12.8,9.3s.7,1.7,1.6,2c.9.3,3.9,2.8,6.6,5.5,3.6,3.6,5,5.6,5,7s0,2-2.1.7c-1.2-.7-2.9-2-3.7-2.8-.9-.8-2.1-1.4-2.7-1.4-.8,0-.7.3.4,1.2,2.3,1.8,9,8.1,9,8.5,0,1.1-1.9.1-6-3-3.1-2.3-7.3-4.4-13.7-6.7-10.6-3.8-14.3-4-6.7-.4,5.5,2.6,7.4,4.3,6.8,6-.6,1.7.4,2.7,4.9,4.8,4.8,2.2,5.8,3,11.5,9.3,3.7,4.2,5.2,7.5,3.3,7.5s-.9,2.8.4,3.9c1.8,1.5,1.5,3.8-.4,3.3-2.5-.6-1.9,1.8,1,4.4,3,2.7,2.3,4.1-1,2.1-2.2-1.3-2.3-1.3-2.3,0s1.6,2.8,3.5,4.6c1.9,1.8,3.5,3.6,3.5,4.1,0,1.1-2.1,1.2-2.7.1-.3-.4-1.2-.8-2.1-.8-1.3,0-1.5.4-1.2,1.9.2,1.1,0,1.9-.3,1.9-1.5,0-.5,2.7,2,5.5,3.5,3.9,4.4,5.6,3.5,7-.6.9-1.1.6-2.8-1.5-2.2-2.6-8.3-7.1-9.7-7.1s-.7.4-.7.8.4.8.9.8c2.8,0,11.4,11.3,10.5,13.8-.3.8-2.1-.7-6-4.8-3-3.3-5.8-5.9-6.2-5.9-1.4,0-.6,2.1,1.7,4.3,3.6,3.4,6.9,8.5,7.4,11.4l.4,2.6-1.4-1.9c-2.5-3.5-8.7-9.3-10-9.3-1.9,0-1.4,1.2,2,5.1,1.7,2,2.9,3.9,2.7,4.1-.5.5-7.3-6.8-7.3-7.9,0-.3-.6-.6-1.2-.6s-1,.4-.7.8c.3.4.1,1.3-.3,1.8-.6.7.4,3.4,3.8,10.3,4.9,9.8,5.6,13.4,3.4,16.5-1.1,1.6-5.6,2.6-4.9,1.2.2-.3.8-1.5,1.3-2.7.6-1.1.8-2.7.5-3.4-.4-1.2-.7-1.2-1.6-.2-1.7,1.8-5.1,8.3-4.5,8.8.3.3,2.2.5,4.2.5s4.6.4,5.8.8c1.5.6,2.4.5,3.2,0,2.2-1.8,22.6-1,31.8,1.3,2.6.6,6.9,1.8,9.7,2.6,13.5,4,26.2,6.9,31.9,7.5,5,.5,4.1.5,16.3-.4l9.7-.7,4.3,2.7c6.8,4.3,7.5,5.5,10.8,16.6,1.9,6.5,12.4,27.7,14.7,29.6.6.5,1.1,1.2,1.1,1.5,0,.7,15.1,23.3,19,28.4,3.5,4.6,6.2,11.5,5.5,14.5-.3,1.2-2.1,4.9-4,8.1l-3.5,5.9.4,6.3c.3,3.7,0,7.8-.4,9.9-.9,3.8-5.6,10.9-7.1,10.9s-2.1-1.5-3.4-3.3c-2.5-3.2-2.5-3.3-.9-3.9,2.6-1,1.6-3.3-1.6-3.7-1.8-.3-2.4-.6-1.7-1,1.3-.8,3.3-5.7,3.3-8s-.7-2.2-2.9-1.9c-.6,0-.8-.7-.5-2.6.4-2.4.2-2.8-1.7-3.5-2-.8-2.1-1-1.5-4.5.3-2,1-4.4,1.6-5.2,1.6-2.3,1.3-3-1.8-4.6-2.7-1.4-2.9-1.4-3.9,0-.6.8-1,1.7-1,2s-.7.6-1.7.6c-1.5,0-1.6-.3-1.1-3.2.3-1.8,1-3.9,1.7-4.8.6-.9,1.1-2.3,1.1-3.1,0-1.2-.4-1.4-2.3-1-1.4.3-2.4.1-2.6-.5-.4-1.1,1.2-9.2,2.1-10.6,1-1.6-1.1-3.2-3.3-2.7q-2,.5-1.5-3.6c.8-6.4,2-6.7,4.9-1.1.9,1.7,1.9,4.2,2.2,5.4.8,3.7,6.2,14.3,7.3,14.4.5,0,1,.7,1,1.6,0,1.8,2.5,3.3,4.2,2.7,2.7-1,.8-5.5-2.9-6.8-1.8-.6-1.7-2.3.2-4,1.8-1.6,2-3.7.5-5-.8-.7-1.5-.5-3,.7-2.4,1.9-3.4.5-1.7-2.4,2-3.5,2.1-3.9,1.2-4.8-.7-.7-1.3-.7-2.4,0-2,1.2-2.5.2-2.2-3.9.2-2.9,0-3.3-1.3-3.1-2.1.2-2.6-.9-2.1-4.9.2-2.1,0-3.4-.4-3.4s-1,.4-1.1.9c-.2.5-.7.7-1.3.3-.7-.4-.8-1.6-.5-4,.4-2.7.3-3.4-.7-3.4s-1.4.4-1.7.8c-1,1.6-2.9-1-2.4-3.5.2-1.3.5-3.1.6-3.9.2-.9-.2-1.6-1-1.8-.9-.2-1.7.8-2.7,3.4-1.4,3.6-1.4,3.7.4,6.9,3.7,6.4,6.1,11.8,5.4,12-1.6.6-3-.7-3-2.9s-.5-2.4-1.6-2.8c-1.1-.3-1.6-1.2-1.6-2.7s-.5-2.6-1.2-3.2c-.6-.5-1.2-.7-1.2-.4s-.5.1-1.2-.4c-.6-.5-1.2-2.2-1.2-3.9s-.4-3.1-1.7-3.7c-1.2-.5-1.7-1.5-1.7-3,0-1.9-.3-2.2-1.8-2.1-1.9.2-8-4.1-7.8-5.6.3-2.5-.1-3-2.5-2.5-1.3.3-3,0-3.9-.5-1.2-.8-1.8-.7-2.8.4-1.2,1.2-1.5,1.2-4.1-.1-2.2-1.1-4.3-1.4-10.2-1.2-6.4.1-7.5,0-8.4-1.3-1-1.5-3.3-2-3.3-.7s.5,1.1,1.2,1.7c1,.8,1,1.1.2,1.6-1.4.9-4.5.8-4.5,0s-4.8-4-5.6-3.5c-.9.6,1.6,4.1,3.1,4.4.7.1-.5.5-2.8.8-3.5.5-4.4.3-6.1-1-2-1.6-4.1-2.1-4.1-1,0,2.3,1.2,4.1,2.5,4.1s3.8,1.7,3.8,2.9-4.1,1.7-9.1,3c-11.3,2.8-19.5,3-28.6.5-3.4-.9-9.5-2.1-13.6-2.6-6.4-.8-7.1-1.1-5.9-2,1.8-1.3,7.5-1.3,15.5,0,7.3,1.2,33.5,1.2,34.6,0,1-1-7.5-9.9-9-9.3-1.2.5-.8,2.4,1,4.4.6.7.8,1.5.5,1.8-1.3,1.3-3.3.2-5.6-3-3.4-4.8-5.2-3.4-2.9,2.2,1.2,2.8-2.4,1.4-6.1-2.5-3.7-3.8-5.9-4.4-5.9-1.6s.9,2,1.9,2.7c2.4,1.6,2.5,2.8.3,2.8s-2.9-.9-5-4.1c-1-1.5-1.7-1.9-2.2-1.4-.5.5-.3,1.5.6,2.9l1.4,2.1-2.6-.5c-2.6-.5-5.3-3.1-5.3-5,0-.5-.8-1.2-1.8-1.4-1.5-.4-2-1.3-2.8-5.1-.9-4.4-2.4-6.3-2.5-3.3,0,.7-.1,2.6-.2,4-.2,4.8-1.8,3.5-3.2-2.5-1.2-5.6-4.1-10.6-4.9-8.5-.6,1.8-1.8,1-1.8-1.3s-.3-2.5-.7-2.7c-1.6-1-3.3,3.5-3.9,10.6-.4,4-.9,8.3-1.2,9.6-.7,3.2.9,8.9,2.4,8.9s0,3-2.4,4.1c-2.6,1.2-5.4-.1-7-3.4-3.5-6.8-10.3-12.7-21.1-18.5-7-3.7-8.8-5.5-8.8-9.2s-.5-3.4-2.5-5.1c-2.9-2.5-4.9-2.4-5,.3,0,2.1-.1,2.1-6.2.9-6.5-1.3-6.9.2-1,3.4,4.2,2.3,8.5,5.4,12.6,9,1.3,1.2,3.1,2.3,4.1,2.6,1,.3,1.7.8,1.7,1.2,0,1.6-3.9,7.5-5.7,8.5-1.1.6-2.9,2.3-4,3.7-1.1,1.4-2.6,2.5-3.3,2.5-1,0-.9-.3.5-1.8.9-1,1.7-2.3,1.7-2.9s.7-2.3,1.6-3.7c2-3.2,1.5-5.7-.7-3.7-.8.7-2,2.6-2.8,4.3-.9,1.9-2.3,3.4-4,4.2-2,1-2.7,1.7-2.7,3.3s-.3,2-1.7,1.6c-1-.3-2.8-.5-4.1-.5h-2.3c0,0,1.9-1.4,1.9-1.4,2.9-2.1,7.1-6.6,7.1-7.6,0-2-1.7-1.9-3.7.3-3.5,3.7-10,7.9-12.3,8-4.2.3-4.4,0-1.6-2.2,3.1-2.3,4.3-4.6,3-5.8-.5-.5-1.3-.3-2.2.7-3.2,3.2-11.1,8-13.2,8s0-2,2-3.6c2.2-1.9,3.2-4.9,1.6-4.9s-3.2,2.3-6.9,6.6c-1.1,1.3-2.3,1.9-3,1.6-.7-.3-1.9-.5-2.8-.5-1.5,0-1.3-.3,1.2-3,1.6-1.6,2.9-3.2,2.9-3.5,0-1.5-2.7-.2-5.7,2.8-3.6,3.6-5.2,3.9-5.2.8s-.5-1.9-1.2-1.9-1.1-.6-.7-2.8c.5-2.5.4-2.8-.9-2.5-.8.2-2.1,1.5-2.8,3-1.4,2.8-3.2,3.6-3.4,1.6-.7-5.4-1.2-7-2.2-7s-2.2,2.8-1.8,5.6c.2,1.5,0,1.8-1.5,1.6-1.1-.2-1.9.2-2.2,1-.7,1.9-1.9,1.5-1.9-.7s-.4-2.1-.8-2.4c-.4-.3-.8-1.8-.8-3.4,0-2.9-1.4-5.6-2.9-5.6s-1.8,1.4-.9,5.1c1.4,6.3-1.6,6.6-4.9.5-1.1-2-2.2-5.3-2.5-7.3-.3-2-.8-3.7-1.2-3.7-1.2,0-1.6,5.2-.7,8.5.5,1.8.7,3.5.5,3.7-.6.6-2.6-1.2-3.8-3.4-2.4-4.4-9.1-18.1-10-20.2-.9-2.3-1-2.3-1.3-.5-.4,2.3,2.9,11.6,6.9,19.8,1.7,3.4,2.8,6.4,2.6,6.8-.5.8-2.7,0-2.7-1s-3.2-4.8-7.2-9.1c-1-1.1-2.6-4.1-3.7-6.6-1-2.6-3.6-6.9-5.7-9.7-4.2-5.6-4.3-4.5,0,4.5,1.5,3.1,2.6,6,2.6,6.5s1.2,3.3,2.7,6.3q3.1,6.1,1.8,6.1c-1.2,0-7.6-9.9-10.2-15.5-4.3-9.8-6.8-14.6-7.8-15.5-1.7-1.4-2.3.3-1,2.8.6,1.2,2,5.7,3.1,10.1,1.1,4.4,2.3,8.7,2.8,9.5.7,1.2.6,1.5-.3,1.1-1.5-.6-6.8-11-9.4-18.6-1.2-3.4-2.8-7.6-3.5-9.3-.8-1.7-1.6-3.8-1.9-4.6-.3-.8-.6-1.3-.8-1.1-.7.7,1.4,10.6,3.9,18.5,1.5,4.5,2.5,8.3,2.3,8.5-1.3,1.3-5.5-7.1-7.3-15-.9-3.9-4.3-12.4-5.7-14.2-2.4-3.2-2.8,1.4-.6,7.2,3,8,2.8,12.5-.4,7.8-.7-1.1-1.7-2-2.3-2-1.3,0-4.5-10-4.6-14.8-.2-5.8-.3-6.2-1.6-6.2s-1.5.9-2,2c-.7,2-.8,2-2.3.7-.8-.8-1.5-2.1-1.5-3,0-2.1,4.6-11.4,5.9-11.9.6-.2,1.2-.9,1.5-1.6.6-1.6-.3-4.9-1.4-4.9-1.8,0-5.3,4.8-6.8,9.3-1.7,5-1.7,3.9-.2,28l.4,7.4-2.8,4.2c-1.5,2.3-2.8,4.6-2.8,5.2,0,1.3-3.7,4.3-5.2,4.3s-10,6.1-15.4,10.7c-1.7,1.4-5.6,3.8-8.6,5.3-5.7,2.8-5.4,2.7-35,5.8-4.7.5-10.7,1.4-13.2,2-2.6.6-5.8,1.1-7.2,1.1-2.3,0-2.5-.2-2.5-2.3s-1-3-2.7-.6c-.8,1.2-1,2-.4,2.7,1.1,1.4-6.4,2.2-13.7,1.5-5.6-.5-9.7,0-9.7,1s2.2,3.2,4.6,3.6c3.2.5,4.7,1.6,4.7,3.5s1,3.2,2.2,5.5c1.2,2.3,2.5,5.1,2.8,6.1.6,2,5.8,12.7,9.8,19.8,1.2,2.1,2.5,5.1,3,6.6,1.1,3.4,9.9,13.8,14.1,16.7,1.7,1.2,4.1,3.4,5.2,5,1.2,1.6,3.3,4.1,4.7,5.7,2,2.2,2.6,3.6,2.6,5.9s-.3,3-1.7,2.9c-1.2,0-1.9.6-2.4,2.1-.9,2.7-.2,3.5,1.8,2.2,1.2-.8,1.5-.7,1.5.2s-.4,1.3-.8,1.6c-1.2.7-.9,1.5.8,2.6,1.4.8,1.8.8,2.5-.2.8-1,1.2-.8,2.6,1.9,1.6,3,1.6,3.1.2,3.9-.8.4-2,.8-2.6.8-1.8,0-2.1,1.2-.7,2.6,4.3,4.1,6.9,5.7,8.2,5.3,1.2-.4,1.3-.6.2-2-1.8-2.4-1.6-4,.4-2.3,2.8,2.5,6,9.2,7,14.6,1.1,6.2.8,7.4-2.1,7.8-3.2.4-3.7,0-4.9-3.1-1.3-3.8-2.2-4.8-3.7-4.3-.7.3-1.6-.2-2.3-1.2-1.3-1.9-2.6-2.2-2.6-.5s-.5,1.2-1.1,1.2c-1.1,0-1.6-1.7-2.2-7-.1-1.1-.7-1.9-1.4-1.9s-1.2.9-1.2,3.3c0,1.8-.3,3.5-.5,3.7-.8.9-2.2-4.6-2.2-9s-.4-5.4-.8-6.5c-.6-1.7-1-1.9-2.2-1.3-1.2.6-1.6.4-2.3-1.1-.5-1.1-1.4-1.9-2.1-1.9-3.6,0-8.4-7.1-7-10.6.4-1.1,1-.7,2.9,1.9,1.9,2.7,2.6,3.1,3.5,2.3,1.5-1.2,1.4-2.4-.2-4.3-1.8-2.1-4.9-6.4-4.9-6.9s-.5-1-1.2-1.8c-1.8-2-6.6-8.7-6.6-9.1s.5-.4,1.2-.4,1.2.7,1.2,1.5,1.2,2.2,3.1,3.3c1.7,1,3.1,2.3,3.1,2.9s.2.9.5.6c.3-.3,1-.1,1.5.3,1.3,1.1,2.7.2,2.1-1.4-.8-2.2-4.3-5.4-4.7-4.4-.5,1.5-1.8,1.1-1.8-.6s-.5-1.8-1.1-2c-.6-.2-1.3-1.8-1.6-3.5-.4-2.3-.8-3-1.8-2.8-.7.1-1.4,1-1.5,2-.1,1-.8,2-1.4,2.2-.6.2-1.7,1.4-2.3,2.7-.6,1.2-1.4,2.2-1.7,2.2-.8,0-3.5-8.6-2.9-9.2.3-.3.9.1,1.5.9.5.7,1.7,1.4,2.7,1.4,1.3,0,1.7-.5,1.7-2.3,0-3.2-.7-4.7-2.3-4.7s-3.5-4.1-3.3-6.3c.2-1.9-1.2-2.4-2.7-.9-1,1-1.2,2.1-.9,4.6.4,2.5.2,3.4-.8,3.7-1.9.7-2.4,0-3-3.9-.5-3.4-.4-3.7,2.2-6.1,4.2-3.8,3.6-5.2-1.3-3.1-1.3.5-1.3.4-.1-2.4,1.1-2.7,1.1-3,0-3.6-.7-.4-1.2-1.4-1.2-2.2,0-2.1-2.1-1.9-3.6.4-1.6,2.4-2.9,1.8-1.8-.8,1.3-3.3.8-5.3-2-8.3-3.4-3.6-4.3-3.7-3.7-.3.5,2.9-.7,4.3-2.4,2.9-1-.8-.7-3.7.7-7.3,1-2.4-1.6-4.4-5.7-4.3-2,0-4,.4-4.6.9-.7.6-1.5.3-2.9-1-2.6-2.5-2.5-3.9.4-3.9s3-.7,3.9-1.5c1.9-1.9,2.1-5.9.3-6.5-2.1-.8-2.7-.5-2.7,1.5s-.4,2-1.2,2-1.2-.6-1.2-1.4-.4-2-1-2.8c-.9-1.2-1.2-1.2-3.5.7-1.4,1.2-2.5,2.6-2.5,3.1,0,1.8-1.1,1.2-2.6-1.3-2.1-3.5-2.9-7-2.1-8.5.4-.7,1.1-3.6,1.5-6.3.9-5.7,2.1-6.9,6.6-7,5.6,0,12.7-2,15.8-4.3,1.6-1.2,5-3.6,7.6-5.3,2.6-1.7,5.7-3.7,6.9-4.6,3.3-2.3,12.7-3.2,21.6-2.2,10.7,1.3,11.8,1.3,12.1.3.2-.5-1.6-1.8-3.8-3-5.4-2.7-7.9-5-6.8-6.3.9-1.1-1.7-3.3-6.3-5.2-2.7-1.1-5.2-3.4-4.5-4.1.2-.2,1.7.2,3.3.8,2.2.9,3.2,1,3.8.3.6-.7.5-1.1-.6-1.8-.8-.5-2.7-1.7-4.3-2.8-1.6-1-4-2-5.5-2.1-2.3-.1-2.9-.6-4.5-3.8-1-2-1.7-3.8-1.6-4,.2-.1,2.3,1.1,4.8,2.8,4.2,2.8,7.3,4,6.3,2.4-.2-.4-3.6-2.9-7.4-5.6-6.4-4.5-8.1-6.2-6.4-6.2s1,.3,1.4.7c1.3,1.3,11.8,6.3,13.1,6.3,2.6,0,1.1-1.5-4.4-4.2-7.2-3.7-12.3-6.5-13.8-7.8-.6-.5-1.8-1.2-2.5-1.5-1.7-.6-3.4-3.7-2.1-3.7s1.5.5,2.2,1.1c4.2,3.7,14.1,6.8,14.1,4.5s-2.2-1.8-4.9-3.1c-2.7-1.3-6.5-3.8-8.4-5.5-1.9-1.7-4.3-3.2-5.3-3.3-1.3-.2-2.1-1-2.4-2.4-.3-1.2-.4-2.3-.1-2.5.2-.2,2.2.9,4.4,2.4,2.2,1.6,5.2,3.1,6.7,3.4,1.5.3,3.4.8,4.2,1.2,1.1.5,1.4.3,1.1-.5-.2-.6-2.5-2.3-5-3.8-6.8-4-13.5-9.5-13.5-11.1s.2-1.4.4-1.4,3.7,1.6,7.8,3.6c10.9,5.3,10.8,3.5-.4-4.3-2.4-1.6-5.1-3.9-6.2-5-1-1.1-2.4-2-2.9-2s-1-.6-1-1.3.4-1.1,1.4-.7c.7.3,2.4.9,3.7,1.3,1.3.4,3.8,1.9,5.6,3.4,3.1,2.7,4.9,3.4,4.9,2s-1.7-2-3.7-3.6c-4.3-3.4-13.4-12.7-13.4-13.6s1.9.4,4.1,1.6c2.2,1.2,4.5,2.3,5.1,2.3,2,0,.9-3-1.6-4.6-1.4-.9-3.2-2.3-4-3.2-.8-.9-2.1-1.6-2.9-1.6-1.7,0-1.9-2.2-.3-3.4,1.8-1.3,1.9-6.7.1-7.8-1.2-.7-1.6-.6-2.3.6-2.1,3.4-5.9,6.7-7.8,6.7s-2.5-.3.7-2.3c2.8-1.7,3.5-3.5,1.8-4.1-.8-.3-.7-.6,0-1.6,2.5-3-1.3-4.8-5-2.4-1.1.7-3.2,1.7-4.8,2.3-1.9.6-2.9,1.5-2.9,2.4,0,1.7-1.6,2.3-3.1,1.1-.8-.7-2.2-.6-5.6.4-2.5.7-5.3,1.5-6.3,1.7-2.4.6-2.2,1.8.4,1.8s1.6,1-4.7,3.5c-3.6,1.4-6,1.9-7.4,1.6-2.8-.7-20.6-2-34-2.4-9.9-.3-11.1-.2-13.3,1.2-5.6,3.5-8.1,9.6-8.1,20s1,9,5.2,14.8c1,1.3,1.8,2.7,1.8,3.1,0,.4.7,2.1,1.5,3.8.8,1.7,1.5,3.6,1.5,4.2,0,.6.9,2.8,2,4.9,1.9,3.8,2.7,10.6,1.2,9.6-.4-.3-.8-1.2-.8-2s-.4-1.5-.9-1.5-.7.7-.4,1.7c.7,2.7-.9,9.4-2.6,11-1.9,1.8-3.8,1.3-3.9-1.2,0-1.3-.3-1.1-.9.9-2.2,7.7-7.2,13.7-14.2,17.4-3.9,2-7.4,2.7-7.4,1.3s.8-1.2,1.8-1.7c3.1-1.7,10.6-10.4,11.1-12.8.3-1.3,0-4.3-.4-6.7-1-5.2-8.4-20.8-11.8-24.7-1.3-1.5-2.4-3-2.4-3.4,0-.7-9-12-10.6-13.4-1.8-1.5-11.2-15.5-12.9-19-1.2-2.6-1.7-5.7-2-11.9-.4-8.1-.3-8.5,1.7-11.3,3.8-5.4,1.6-8-2.3-2.8-2.1,2.7-2.1,2.8-1.6,11.8.4,7.9.8,9.7,3,14.6,2.4,5.3,7.2,12.2,13.7,19.9,4.2,5,.8,2.7-4.9-3.2-5.1-5.3-8.7-10.1-12.6-17.1-2.4-4.1-2.5-4.8-2.5-12.3s1-14.2,4.8-18.2c1.6-1.7,3-3.6,3-4.2,0-2-2.2-1-5.2,2.3-4.3,4.7-5.2,8.6-4.7,20.2.3,8.3.3,9.3-.7,8-2.4-3.2-3.6-9.7-3-16.2ZM1111.9,659.9c.4.3.6.8.3,1.2-.7,1.1-1.1.9-1.1-.5s.4-1,.8-.7ZM1125.4,578.6c-1.4-1-2.5-2.1-2.5-2.5,0-1.5,1.3-.6,3.9,2.7,1,1.3.8,1.3-1.4-.3ZM1123.2,509.2c-.5,0-2-1.2-3.4-2.7-3.6-3.7-2.7-3.9,1.2-.3,1.7,1.6,2.7,3,2.3,3ZM1110.4,438c0-.2.7-.3,1.7-.3,1.6,0,6.9,4.8,6.9,6.3s-1.9-.7-4.3-2.5c-2.4-1.8-4.3-3.4-4.3-3.5ZM1118.2,451.1c0,.8-7.8-4.9-11.9-8.6-1.6-1.5-2.9-3-2.9-3.3,0-1.3,2.7-1.5,4.4-.3,2,1.3,10.4,11.2,10.4,12.2Z"/>
    <path class="st1" d="M628.6,523.9c-2.3,4.3-2.4,4.7-2.1,13,.2,7.1.6,9.2,2,11.9,1,1.8,1.7,3.5,1.7,3.7,0,1.1-.9,0-2.8-3.2-2.6-4.4-3.5-8.9-3.5-17.3,0-5.2.3-7,1.6-9.1,3.9-6.3,6.5-5.5,3.1,1Z"/>
    <path class="st1" d="M637.6,507.4c3.7,0,10.8,2.2,12.1,3.8,1.3,1.5,0,1.4-1.7-.1-2.1-1.9-7.7-2.3-12-.8-2.1.7-4.1,1-4.8.6-1.8-1,2.7-3.5,6.4-3.5Z"/>
    <path class="st1" d="M643.5,516.3c6,0,8.7,1.4,3.1,1.4-4.8,0-8.4,1.8-10.6,5.1-1.5,2.3-2.7,2-2.7-.7s5-5.9,10.2-5.8Z"/>
    <path class="st1" d="M759.8,664.6c0-2.1,2.5-3.6,3.5-2.1.4.7.4,1.7,0,2.6-1,1.8-3.4,1.4-3.4-.5Z"/>
    <path class="st1" d="M771,670.2c-1.5.1-3,.6-3.4,1-1.1,1.1-2.4.4-2.4-1.2s.7-1.4,4.5-1.5c4.9-.2,6,1.3,1.3,1.8Z"/>
    <path class="st1" d="M781.9,668c-.6.4-1.8.7-2.7.7-1.5,0-1.5,0,.2-1.7,1.4-1.4,1.9-1.5,2.7-.7.8.8.7,1.1-.2,1.7Z"/>
    <path class="st1" d="M779.5,658.5c-1.9-.2-2.5-.7-2.7-2-.2-1.2.1-1.7,1-1.7,1.4,0,4.1,2.2,4.1,3.3s-1.1.6-2.5.5Z"/>
    <path class="st1" d="M776.2,661.5c-.6.2-1.9,0-2.8-.5-1.2-.7-1.6-.7-1.2,0,.3.5.1,1.4-.4,2-.7.8-1.3.9-2.4.3-1.8-1-1.9-2.7-.3-3.4.7-.3,1-.8.8-1.2-.8-1.2,1.5-1.5,4.5-.6,2.9.9,3.8,2.6,1.7,3.3Z"/>
    <path class="st1" d="M787,657.9c-1.6,0-1.9-.3-1.5-1.5.3-.9,0-1.6-.7-1.9-1.4-.5-1.6-2.8-.3-2.8s4.5,3.2,4.5,4.8-.6,1.4-2,1.4Z"/>
    <path class="st1" d="M792.8,664.5c1.1,0,2.6,4.6,1.8,5.4-.8.8-2.5-.5-2.7-1.9,0-.8-.2-1.9-.2-2.5,0-.5.4-1,1.1-1Z"/>
    <path class="st1" d="M785.8,664.5c1.2-.7,2.3.3,1.8,1.6-.2.6-.9,1.2-1.5,1.2-1.2,0-1.5-2-.3-2.7Z"/>
    <path class="st1" d="M770.7,677.8c1.9-.7,8.2,6.5,7.2,8.3-1,1.9-2.3,1.7-4.7-.8-3.7-3.8-4.7-6.7-2.6-7.5Z"/>
    <path class="st1" d="M796.7,656.2c0,1.8-5,.9-5.3-1-.2-.8-1-2.3-1.9-3.3-1.5-1.6-1.5-1.8-.3-2.2,1.5-.6,7.4,4.6,7.4,6.5Z"/>
    <path class="st1" d="M1103.4,615.8c0-1.8,3-4.3,3.9-3.4.5.5-.2,1.9-2.1,4.1-1.5,1.8-3,3.1-3.3,2.9s0-.8.5-1.4.9-1.5.9-2.2Z"/>
    <path class="st1" d="M1073.5,632.6c1.2,1.6,1.4,5.2.6,10-.5,3-.8,3.3-2.4,2.3-.7-.4-.9-2.4-.7-6.6.3-6.6.9-7.9,2.5-5.6Z"/>
    <path class="st1" d="M1205.1,442.3c.7,0,2.6-.2,4.3-.5,1.9-.3,2.9-.2,2.9.4,0,1.2-3.4,3.3-6.4,4-3.5.8-4.3.8-4.8,0-.6-1,2.5-4,4-4Z"/>
    <path class="st1" d="M1197.6,429.4c-1.9-2.4-2-3.4-.5-3.4s3.6,3.2,3.6,4.7-1.4.9-3.1-1.3Z"/>
    <path class="st1" d="M1195.2,430.4c0,2.2-2.9,1-4.5-1.9-.8-1.5-.8-1.8.3-1.8,1.6,0,4.2,2.2,4.2,3.6Z"/>
    <path class="st1" d="M1199.7,445.7c.2,1.2-.9,1.7-5.3,2.3-2.5.3-3.9-.1-3.9-1.3,0-2.6,8.7-3.5,9.2-1Z"/>
    <path class="st1" d="M1206.7,430.9c-1.7.7-2.2.5-2.7-.7-.5-1.3.9-2.6,2.7-2.6.5,0,1,.7,1,1.5s-.4,1.7-1,1.9Z"/>
    <path class="st1" d="M1075.4,485.5c0,1.4-1.6,1.6-3,.3-1.3-1.3-1.2-4.5.2-4.5s2.8,2.3,2.8,4.2Z"/>
    <path class="st1" d="M1101.5,533.4c.9,0,3.8,1.9,5.7,3.7,1.1,1,3.9,3.1,6.1,4.7,3.7,2.5,5.6,5,5.6,7.3s-3.9,0-10.5-6.4c-6.4-6.1-8.7-9.2-7-9.2Z"/>
    <path class="st1" d="M1095.6,602.5c0,.8-.4,1.7-1,1.9-1.8.7-2.2.5-2-1.2.3-2.3,3-2.9,3-.7Z"/>
    <path class="st1" d="M1103.7,550.7c.2-.3,1.6.6,2.9,2,1.4,1.3,3.1,2.6,3.9,2.9.8.2,1.4.8,1.4,1.2,0,1.2-1.2.8-4.5-1.6-3.4-2.4-4.5-3.8-3.8-4.5Z"/>
    <path class="st1" d="M1107.6,563.2c-.6-.6-1.2-1.6-1.1-2.1,0-1.3,3.9,3.2,3.9,4.6s-.3.9-.8.7c-.4-.3-.8-.8-.8-1.3s-.5-1.3-1.2-2Z"/>
    <path class="st1" d="M1098.6,565.3c1.1,0,10.2,7.7,10.2,8.6s-.5.5-1.1.2c-2-1.1-9.9-8.8-9.1-8.8Z"/>
    <path class="st1" d="M1099.6,603.2c.7.7.5,1.4-.9,2.9-2,2.2-2.8,2.4-3.6,1.1-.3-.5.4-1.8,1.5-2.9,1.6-1.6,2.2-1.8,3-1.1Z"/>
    <path class="st1" d="M1086.6,647.1c1.1,1,2,2.4,2,3.1,0,.7.7,3.3,1.6,5.7.8,2.5,1.4,4.8,1.1,5.2-.8,1.3-3.1.7-3.8-1.1-.4-1-1.7-2.2-2.9-2.8-1.6-.8-2.2-1.6-2.3-3.5-.3-4.4,0-6.2,1.2-7.4,1-1,1.4-.9,3.1.7Z"/>
    <path class="st1" d="M1077.9,637.1c.8.3,2.7,7.9,2.9,11.3,0,1.2-.4,1.7-1.4,1.7s-1.7-1-2.4-4.3c-1-4.5-.5-9.2.9-8.7Z"/>
    <path class="st1" d="M1070.6,402.4c-2-1-4.3-2-5.2-2.3-1.8-.5-2.3-2.1-.7-2.1s3.1.5,5.6,1.2c4.9,1.3,7.1,2.8,6.2,4.2-.8,1.2-2,1.1-6-1Z"/>
    <path class="st1" d="M1066.2,515c1.1-1.1,2.1-1.1,7.6-.4,3.5.5,7.8,1.3,9.4,1.8,3.4,1,7.2,4.1,6.5,5.3-.7,1.1-1.2,1-3.1-.7-1.2-1.1-3.9-1.6-10.9-2.3-9.9-.9-11.7-1.7-9.7-3.8Z"/>
    <path class="st1" d="M1062.2,413.5c6.8,2.7,8.5,3.4,8.5,4.1,0,1.5-4.4.3-9-2.3-5.8-3.3-5.6-4.1.5-1.7Z"/>
    <path class="st1" d="M1062.5,421.3c-.3.5-1.1.7-1.7.5-.6-.2-2-.7-3.1-.9-2.7-.7-1.8-2.3,1.2-2.1,2.9.1,4.4,1.3,3.5,2.6Z"/>
    <path class="st1" d="M1074.4,408.8c.2.5-.4.9-1.3.9-2,0-14.1-5.4-14.1-6.3s1.8-.8,2.8,0c.4.4,3.4,1.6,6.5,2.6,3.2,1,5.9,2.3,6.1,2.8Z"/>
    <path class="st1" d="M1069.9,413.5c0,1.5-2,.8-8.2-2.7-4-2.3-5.3-3.4-3.8-3,3.6.8,12.1,4.8,12.1,5.8Z"/>
    <path class="st1" d="M1102.5,608.5c.5.3.4,1.1-.5,2.4-1.5,2.1-3.3,2.5-3.3.9s2.8-3.9,3.8-3.3Z"/>
    <path class="st1" d="M1184.6,429c-2.3-3.6-2.2-4.3.6-3,2.1,1,3.7,3.6,3.1,5.2-.6,1.7-1.7,1.1-3.8-2.2Z"/>
    <path class="st1" d="M1187.4,444.3c1.2.7.9,2.6-.6,3.4-2.1,1.2-3.3,1-3.3-.5s2.8-3.6,3.9-2.9Z"/>
    <path class="st1" d="M1110.4,549.5c0,1.3-2.2.3-3.9-1.8-.6-.7-2.4-2.2-4-3.2-4.3-2.7-3.6-3.9.8-1.4,4.5,2.6,7.2,5,7.2,6.4Z"/>
    <path class="st1" d="M1211.3,651.1c1.1-.3,1.3,2.1.5,5.1-.5,1.7-2.9,2.4-3.7,1.1-.5-.9,2-5.8,3.2-6.2Z"/>
    <path class="st1" d="M1178,425.8c.7-.7,1.4-.4,3.2,1.8,1.2,1.5,2.3,3.3,2.3,4.1,0,2.3-2,1.5-4.3-1.8-1.7-2.5-2-3.3-1.2-4.1Z"/>
    <path class="st1" d="M1194.6,651c.3,1.6.4,1.5,1.8-1.1,1.6-3.1,3.1-3.5,3.2-.7.1,2.5-1.9,5-3.6,4.4-1.2-.4-1.5-.1-1.5,1.2s-.3,1.5-1.5.8c-1.6-.9-2.8-5.4-1.7-6.5,1.1-1.1,3,0,3.4,2Z"/>
    <path class="st1" d="M1254.8,733.8c-.4,1.7-.3,2,.6,1.7.6-.3,1.7,0,2.4.7.9.9,1.5,1,2.8.3,3.3-1.8,4,.5,1.4,4.4-1.6,2.4-4.5,3.5-4.5,1.8s-.9-.8-1.9-.8c-2.4,0-3-.9-2.1-3.3.7-1.8.6-1.8-2.1-1.5l-2.8.3,2-2.6c1.1-1.4,2.6-2.8,3.4-2.9,1.1-.2,1.3.1.8,1.8Z"/>
    <path class="st1" d="M1217.5,657.2c3.3-2.3,5.4-1.2,2.7,1.4-1.7,1.7-3,2-4.5,1-.6-.4,0-1.2,1.8-2.4Z"/>
    <path class="st1" d="M1100.6,408.9c1.2,0,1.7,3.9.7,4.9-1.2,1.2-1.8.4-1.8-2.2s.4-2.7,1.2-2.7Z"/>
    <path class="st1" d="M1177.3,443.1c1,0,2.5,3.8,1.9,4.7-.6,1-2.5.9-3.1-.1-.7-1.1.3-4.6,1.2-4.6Z"/>
    <path class="st1" d="M1130.8,403.4c1.2,0,.5,2.7-1.2,4.5-1.4,1.5-1.8,1.6-2,.7-.3-1.2,2.1-5.1,3.2-5.1Z"/>
  </g>
  <path class="st0" d="M777.7,711.9c.6,2,2.3,7.9,3.7,13,1.4,5.1,3.5,12.5,4.6,16.3,3.1,11.1,3.7,13.5,3.6,17.3,0,4.6-1.1,5.7-5.7,5.9-5.3.3-5.4,1.8-.2,5l4.1,2.5v4c0,3.4.2,4,1.4,4s2.3-1.1,3.3-2.4l1.9-2.4,2.3,2.5c2.9,3.1,4.8,2.8,4.1-.8-.3-1.3-.6-2.7-.6-3.1-.2-1.6,3.6-1.1,12.3,1.5,16.7,5,23.1,6.9,43.3,13.3,11,3.4,21.3,6.5,22.9,6.8,1.5.3,3,.8,3.2,1.1.2.4,0,2.8-.5,5.6-.7,4.1-.7,5,0,5.5,1.1.7,3.1-.4,7.9-4.2,1.7-1.4,3.4-2.5,3.7-2.5s2.3,1.4,4.4,3c3.8,3,8.5,5,8.5,3.7s-.8-3.2-1.8-6.4c-1-3.1-1.9-6.3-1.9-6.9s1.3-2.6,3-4.1c1.8-1.7,3-3.6,3-4.6,0-1.6-.3-1.7-4.6-1.7-2.6,0-5.1-.3-5.6-.6-.5-.3-1.7-2.6-2.6-5-1.3-3.4-2.1-4.5-3.4-4.7-2-.3-3,.9-3,3.8,0,4.2-1.1,5-6.6,5s-9,1.2-9,2.7c0,.5.8,1.9,1.9,3.1,1,1.2,1.9,2.4,1.9,2.7,0,1.7-14.2-2.2-55-15.2-9.2-2.9-17.3-5.5-18.1-5.7-2-.6-1.3-3.2,1.5-5.1,3.2-2.2,13.6-6.3,42.6-17.1,21.3-7.9,34.3-12.3,34.8-11.8.3.3-.5,4.5-1.8,9.1-.8,2.9,1.7,2,6.6-2.4l4.5-4,2.7,1.5c1.5.8,4.1,2.5,5.8,3.7,2.3,1.7,3.7,2.1,5,1.8,2.3-.6,2.3-1-.4-5-1.2-1.8-2.7-4.7-3.4-6.5l-1.3-3.2,3.4-3.1c3.7-3.4,4.9-6.2,2.4-5.9-.8.1-3.3.4-5.6.6l-4.1.4-2.2-4.3c-1.6-3.1-2.7-4.4-3.9-4.6-1.2-.2-1.7.1-1.7,1.1s-.5,2.2-1,3.3c-.5,1-1.2,2.8-1.5,3.9-.5,1.9-.7,2-5.3,2s-5.6.3-6.7.7c-1.7.6-1.8,1-1.1,2.2.4.8,2.1,2.2,3.7,3,3.2,1.6,3.7,2.5,1.6,3.3-.7.3-5.3,2-10.2,3.9-11.3,4.3-22.5,8.6-31.9,12.2-4,1.6-7.7,2.9-8.2,2.9s-1.8.5-2.9,1.1c-1.1.6-5.6,2.3-10,3.8-4.4,1.5-8.6,3-9.3,3.4-.7.4-3,.9-5.2,1.1l-3.9.5-1.3-2.9c-.7-1.6-1.9-4-2.7-5.5-1.4-2.6-5.6-16.6-10.1-33.1-1.3-4.9-3.5-12.4-4.8-16.7-1.3-4.3-3.8-13.2-5.6-19.7-1.8-6.5-3.4-12.4-3.7-13.1-.4-.8.3-1.9,2.2-3.4,3.7-3.1,3.3-5.1-.9-4.8-3.1.2-3.1.2-5.1-3.6-2.9-5.7-3.8-9.4-5.9-23.7-1.1-7.2-2.4-15.4-3-18.2-1.1-5.7-6.9-38.6-7.8-44.6-.3-2-1.5-8.4-2.5-14.1-2.3-12.3-3.1-19.7-2.1-19.7s1.1.4,1.6.9c.8.7,1.1.7,2-.4.9-1.2.8-1.8-.4-4.1-1.8-3.3-1.8-4-.1-5.5,1.8-1.6,11.9-5.3,12.8-4.7.5.3.6,1.9.3,4.1-.4,3.3-.3,3.7.9,3.7s1.7-.9,2.4-2.6c1.2-3.3,2.9-3.3,5.2,0,1.9,2.8,2.1,2.9,3.8,1.9.9-.6,1-1.1.2-3.2-1.7-4.6-1.3-5.3,4.1-8.1,2.8-1.4,10.7-5.8,17.7-9.7,13.2-7.4,17.9-10,36.7-19.9,6.3-3.3,12.2-6.6,13.2-7.3,2.9-1.9,3.8-.4,2.3,3.6-.7,1.7-1.1,3.2-1,3.4.6.6,5.5-2.1,7.5-4.2,1.2-1.3,2.5-2.3,2.9-2.3s2,1.2,3.5,2.7c2.4,2.3,2.9,2.6,4.2,1.7,1.2-.7,1.3-1.2.7-2.2-.5-.7-.6-1.5-.3-1.8.7-.7,9-.4,16.9.4,3.5.4,10.9,1.1,16.5,1.5,15.3,1.2,29.3,2.7,30.4,3.4.6.4.8,2,.5,5.6-.4,4.7-.3,5,1,4.6.8-.2,1.6-.9,1.9-1.6.2-.7,1.4-2,2.7-3l2.2-1.7,2.8,3c1.5,1.7,3.1,3,3.6,3,.9,0,3.8,3,5.1,5.1,1.4,2.5,8.1,12.2,10.3,15,1.9,2.4,2,2.8,1.2,5.5-1,3.1-2.7,4.2-6.9,4.2s-3.6,2.5,0,3.8c3.3,1.2,3.6,2,2.2,6.6-.6,2.1-.9,4.1-.7,4.5.5.8,2.9-.2,5.3-2.4,3.4-3.1,6.7.3,11.9,12.2,3.5,8.2,3.5,8.7-.8,8.9-2.2.1-4.3.3-6.1.5-2.3.3-.5,2.4,4,4.7l4.9,2.5-.5,4.5c-.3,2.5-.7,5.4-.9,6.5-.5,2.7.9,2.4,4.9-1,1.8-1.5,4.2-3,5.4-3.2,1.9-.4,2.7,0,5.3,2.6,2.1,2.1,3.8,3,5.1,3,2.2,0,2.5-.7,1.1-3.2-1.3-2.3-2.8-6.6-2.8-8,0-.7.8-1.4,1.8-1.7,2.2-.6,6.4-4.4,6.4-5.9s-.9-1.2-2.8-1.4c-2.7-.2-2.5-.4,11.3-9.6,17.9-11.9,19-12.4,19-10s2.9.6,4.2-1.5c1.5-2.3,2.3-2.2,6,.5,2.7,2,3.3,2.2,4.5,1.3,1.3-.9,1.3-1.2.4-2.4-2.3-3.1-1.5-3.9,5.5-5.1,3.6-.6,10.4-1.7,15.1-2.3,4.7-.6,11-1.5,14-1.9,3-.4,5.7-.6,6.1-.4.4.2.7,1.5.7,2.9,0,2.2.2,2.4,1.8,2.1,1-.2,2.4-1,3.1-1.8,2.5-2.7,2.9-2,4.5,8.7.6,3.9,1.6,10.3,2.2,14.3,2,12.1,2.1,13.4.7,14.8-.7.7-1.2,2.1-1.1,3.2.3,4.6.4,4.5-5.2,4.5s-6.8.9-.9,4.7c1.7,1.1,3.2,2.4,3.2,2.8s-1,3.1-2.2,5.9c-2.6,5.9-2.6,6.2-.9,5.7.7-.2,1.8-.1,2.4.3.9.6.9,1.2-.5,4.3-.9,2-3.7,8.6-6.2,14.7-2.5,6.1-5.5,13-6.7,15.2-1.8,3.5-2.1,3.9-2.6,2.6-.3-.8-1.2-2.5-2.1-3.6l-1.5-2.2-1.4,1.7c-.7.9-1.4,2.2-1.4,2.9,0,.7-.4,2.5-.8,4.1-.9,3.3-3,4.5-9.4,5.3-2.1.3-4.2,1-4.7,1.6-.7.8-.3,1.3,2.4,2.5,1.8.8,4.6,2.6,6.1,4,2.8,2.4,2.9,2.6,2.1,5.1-.4,1.4-1,4.3-1.3,6.5-.7,5.2.4,5.1,5.7-.2,2.2-2.2,4.3-4.1,4.7-4.1s2.3,1.4,4.5,3.1c2.1,1.7,4.4,3.7,5.2,4.3.7.6,2.2,2.6,3.1,4.5,1,1.9,2.3,3.9,3,4.4,1.5,1.2,5.8,9.6,5,9.8-.3,0-2.1.1-3.9.2-4.8.1-4.7,1.8.4,4.9l4.2,2.5-.4,4.7c-.4,4.2-.3,4.6.8,4.2.7-.3,1.6-.8,2-1.1.4-.4,1.9-1.5,3.4-2.5l2.6-1.9,1.6,1.9c.9,1,2.1,2.5,2.7,3.4.7,1,1.5,1.4,2.3,1.1,1.6-.6,1.5-1.2-.3-4.8-1.9-3.7-1.9-4.1.3-6.9,1-1.3,2-3.3,2.3-4.4.5-2.1.5-2.1-3.3-1.9-2.1,0-3.9,0-4-.2-.2-.2-1.1-2-2-4-2.1-4.5-3.3-5-4.6-2l-1,2.3-1.5-1.7c-1.5-1.7-4.8-6.3-7.1-10.1-1.9-3-6.3-12.1-7.2-15-.8-2.6-.8-2.6,3.6-6.7,2.7-2.5,4.6-5,4.9-6.2.5-2.1.5-2.1-2.3-1.6-1.6.3-4.1.7-5.7,1l-2.9.4.4-2.6c.4-2.7,17-41.8,19-45.1l1.1-1.8,3.9,4.2c3.6,3.9,3.9,4.1,5,2.8.7-.7,1.2-1.7,1.2-2.2,0-2.1,3.7,0,11.9,6.4,2.2,1.8,5.5,3.9,7.3,4.8,4.2,2,4.7,3,3.7,7.9-.6,3-.6,4.2.1,4.8.7.7,1.1.6,1.6-.4.4-.7,1.4-1.3,2.2-1.3s1.5-.3,1.5-.6c0-.3.8-1.6,1.8-2.8l1.8-2.2,3.3,3.3c2.8,2.7,3.5,3.1,4.4,2.4,1-.8.8-1.4-1.1-4.4-1.2-1.9-2.2-4-2.2-4.6,0-2,4.6-4.3,11.9-5.9,3.9-.9,8.1-1.9,9.3-2.3,2.1-.6,14.7-3,16-3s.4,1.7.2,3.7c-.3,2.4-.2,3.7.4,3.7s1.3.2,1.9.4c.7.3,1.3-.1,1.6-1,.3-.8,1.3-2.3,2.3-3.4l1.8-2,2.7,3c2.1,2.3,3.1,3,4.7,2.7,2.1-.3,2.1-.3.9-6.4-.7-3.6-.7-4.2.6-5.6.8-.8,1.6-2.4,1.9-3.5.5-2.2-.4-2.9-4.4-2.9s-2.7-.3-4.2-3.5c-2.4-5.1-4.2-6-5-2.4-.2,1-.9,1.8-1.5,1.8s-1.1.7-1.1,1.5c-.2,4.5-.2,4.5-4.6,5.9-2.3.8-4.7,1.5-5.3,1.6-1.5.4-.6,2,1.3,2.5,3.7.9,1.5,2-7.3,3.5-5.1.9-12.3,2.1-15.9,2.8-7.6,1.4-9.3,1.1-9.3-1.4s-4.7-7.1-6-7.1-.8,1.6-1.1,3.5c-.5,2.8-1.2,3.9-3.2,5.2-5,3.3-7.3,2.4-20.1-7.9l-7-5.6,2.5-2.1c2.1-1.7,2.3-2.3,1.7-3.4-.4-.7-2.3-1.6-4.1-1.9-3.6-.7-6.4-3.8-6.5-7.2,0-1-.4-3.5-.8-5.6-2-9.5-5.3-29.8-5.1-31.5.3-2.4,1.4-2.7,3.5-.9,1.9,1.6,2.3,1.7,4.1,1.1,1.7-.7,1.5-1.9-1.4-5.9-1.4-2-2.6-4.1-2.6-4.5s1.5-2.1,3.4-3.7c3.1-2.6,3.4-3,3-5.4-.4-2.2,0-3.3,3.3-7.8,4.8-6.7,14.1-20.3,20.1-29.4,2.6-3.9,5.9-8.2,7.4-9.7,1.5-1.5,3.6-4.1,4.7-5.8,1.1-1.7,2.5-3.2,3.1-3.2s1.8,1.3,2.9,3c2.2,3.5,3.1,3.7,4.1,1,.5-1.4.5-3-.3-5.6l-1.1-3.6,2.5-1.9c1.6-1.2,2.5-2.6,2.5-3.7,0-1.6-.3-1.8-3.5-1.8h-3.5s-2.5-5.2-2.5-5.2c-3.2-6.8-5.3-6.8-5.4,0,0,5.1-.8,8.3-2.1,8.3-1,0-1-.1-.2-.7,1.7-1.1-.2-1.5-3.6-.7-6.6,1.5-7.3,3.1-2.4,5.6,4.2,2.1,5.4,3.3,5.4,5.4s-2.6,5.9-6.9,12.3c-15.5,23.3-21.5,32-27.4,39.7-3.4,4.5-6.9,5.6-8.9,2.9-3.5-4.7-4.5-5.8-5.1-5.8s-.8,0-2.5,6.2c-1.3,4.6-2.2,5.3-8.1,6.4-1.6.3-2.9.8-2.9,1.2,0,.4,1.2,1.5,2.8,2.4,2,1.1,2.5,1.8,1.8,2-4.3,1.5-37.5,5.6-38.3,4.7-.2-.2.1-1.3.8-2.3,1.2-1.8,1.1-1.9-.3-2.7-.8-.4-2.1-.8-2.8-.8s-2.3-1.2-3.6-2.7c-2.5-2.9-3.7-2.9-4.9.3-.4,1-.9,1.7-1.2,1.5-.3-.2-3.4-1.7-6.9-3.4-8.8-4.2-8.9-4.4-4.8-9,5-5.6,4.7-6.3-2.5-5.6l-5.8.5-2-3.6c-3.4-6.1-7.2-14.5-7.2-15.8s-.3-1.6-.6-1.9c-.4-.4-1.9-3.9-3.4-7.8-1.5-3.9-3.2-8.1-3.8-9.3-.5-1.2-2.3-5.7-4-9.9-2.5-6.5-2.9-7.9-2.1-9.1.7-1.2.7-1.9-.4-3.6-1.3-2.1-1.2-2.2.6-4.4,2.8-3.3,2.5-5.2-.9-5.5-2.5-.2-2.9-.6-4.5-3.8-2-4.2-3.9-4.7-3.9-1.1s-.2,2.7-.5,2.9c-.6.6-8.6-3.4-9.8-4.9-1.2-1.4.5-3.8,4.4-6.2,2.9-1.8,3.9-4.3,2-5-.5-.2-2.5-.2-4.4,0-5.5.6-7,0-8.8-4.1-2.1-4.4-4.3-7.6-5.2-7.6s-.9,1.6-1.1,3.6c-.7,5.3-1.5,6.1-3.5,3.5-.9-1.2-2.9-3.5-4.4-5.2-6.5-7.1-22.8-30.3-22.8-32.4s1.7-2.8,3.7-4.9c4.2-4.2,4.9-6.1,1.7-5.1-1.1.3-3.7.6-5.6.6h-3.6s-1.5-4.4-1.5-4.4c-2.5-7.5-4.5-7.2-6.3,1.2l-1.3,5.8-6,.2c-7.4.3-7.7,1.3-1.8,4.9l4.2,2.5.5,5.1c.5,4.5.7,5.1,2.1,5.1,1,0,2.5-1.2,4-3.3,1.3-1.8,3-3.3,3.8-3.3,1.4,0,9.2,7.9,13.5,13.6,1.4,1.9,3.6,4.8,4.8,6.4,1.2,1.6,3.9,5.1,6,7.8,2,2.7,4.5,5.9,5.4,7.1s1.7,2.5,1.7,2.9c0,.8-1.2,1.1-6.3,1.1-4.3,0-4.4,2-.3,4.1,1.8.9,4,2.2,5.1,3l1.8,1.4-1.2,5.8c-.7,3.2-1.3,6.3-1.5,6.9-.1.6.4,1.2,1.2,1.4,1.1.2,2.6-.9,5.7-4.4,4-4.5,4.3-4.7,6-3.7,1,.5,2.3,2.1,3,3.5,1.3,2.7,4.5,5.2,5.7,4.5.4-.3,2.3.2,4.2,1,3.4,1.5,3.4,1.5,2.9,4.5-.3,1.6-.3,3.3,0,3.7.7,1.1,3.2,0,3.7-1.5.8-3.1,2.5-.2,8.3,14.3,1.9,4.7,3.7,9.2,4.1,10,.4.8,2.4,5.8,4.5,11.2,3.8,9.4,3.9,9.8,4,17.6v7.9c0,0-3.6.8-3.6.8-2,.4-4.5.9-5.6,1-3.5.4-2.7,2.6,1.4,4,2.1.7,3.8,1.5,3.8,1.7,0,.4-13.5,6.3-16.1,7-.9.3-1.9,0-2.1-.4-.5-.8-4-.5-6.6.5-1,.4-6.3-6.3-6.4-8,0-.6-1.6-2.9-3.6-5.2-2-2.3-5-6.7-6.6-9.7-1.7-3-4.6-7.3-6.4-9.5-1.9-2.2-3.4-4.6-3.4-5.3s.8-2,1.9-3c2.6-2.4,2.2-4.8-.8-4.9-1.2,0-2.8-.1-3.5-.2-.7,0-1.3-.7-1.3-1.4,0-.7-1-2.4-2.1-3.8-1.8-2.2-2.3-2.4-3.7-1.6-1.1.6-1.6,1.6-1.7,3.3-.2,5.1-.8,6.1-4.8,6.8-4.6.8-22.7.7-30.1-.3-3.1-.4-10.4-1.1-16.4-1.5-12.7-1-17.1-1.9-17.1-3.6s.6-1.6,1.4-2.1c1-.6,1.3-1.4,1-2.9-.4-1.8-.6-2-3.3-1.5-2.7.4-3,.3-4.2-1.9-2.1-3.9-4.4-6.3-5.2-5.5-.4.4-.9,2.5-1.1,4.6-.2,2.1-.6,4.2-.8,4.5-.2.3-2.8.7-5.8.8-3,.1-5.7.4-6,.6-1.3.8-.5,2.4,1.7,3.3,1.2.5,2.4,1.2,2.6,1.5.3.5-12.4,8.5-17.9,11.1-1.2.6-3.9,2.1-6,3.4-2,1.3-5.3,3-7.2,3.9-1.9.9-5.1,2.3-7.1,3.2-1.9.9-4.7,2.3-6.1,3.2-8,4.9-21.4,11.2-24.2,11.4-1.6,0-3.6.2-4.4.3-1.2.2-1.8-.7-3-4.3-1.2-3.4-1.9-4.5-3-4.5s-1.6.8-2.2,3.9c-.9,4.5-1.5,5.1-6.5,5.8-3.7.5-4.2.9-2.7,2.4s.6,1.6-2.9,2.4c-5.4,1.3-6.1,1-7.8-2.6-1.3-3-4-5.5-4.9-4.6-.2.2-.6,2-.9,4l-.5,3.6h-5.2c-2.8.1-5.3.5-5.4.8-.1.4,1.8,1.9,4.3,3.5,4.5,2.9,4.5,2.9,4.1,5.8-.3,1.6-.7,4.2-.9,5.8-.4,2.4-.3,3,.7,3s1.7-1,2.3-2.1c1-1.9,3.2-3.5,3.8-2.9.3.3,1.1,4.3,1.5,8,.2,1.8,1,6.7,1.8,10.8,3.7,19.2,5.2,27.5,6.7,36.8,1.7,10.8,4.1,24.7,5.6,33.1,2.4,12.9,4.2,28,3.7,31.3-.6,4.3-2.9,6.5-7.9,7.8-4.6,1.2-4.6,2.6,0,4.3l3.3,1.2v4.1c0,2.2.3,4.4.6,4.9.6.8,3.5.5,3.6-.4,0-.3,1-1.6,2.2-3,2.1-2.5,2.2-2.5,3.7-1.2.8.7,1.5,1.8,1.5,2.4s.7,1.7,1.6,2.6c2,2,3.7,6.7,6.9,18.5,1.4,5.1,3,11,3.6,13ZM876.5,784.7c.3-.3.9-.3,1.3,0,1.1.7,9.7,1.2,11.3.7.7-.2,1.4-1.5,1.7-3,.6-3.2,1.9-3,3,.4,1,2.8,1.8,3.4,5.8,4.1,3.4.5,3.5,1.4.6,3.1-2.6,1.5-2.6,1.6-1.1,6.5,1.8,5.9,1.4,6.2-2.7,2.3-1.5-1.4-3.2-2.6-3.8-2.6s-2.3,1.5-3.8,3.3c-4,4.9-4.7,4.6-3.4-1.9l.7-3.4-5-4.6c-2.7-2.5-4.7-4.8-4.5-5.1ZM884.2,727.8c3.3-.2,5.6-1.1,5.6-2.2s.6-1.3,1.3-2.1c1.3-1.3,1.4-1.3,2.6.4.8,1.1,2.1,1.7,3.4,1.7,3.1,0,3.3,1.1.7,3.3l-2.3,1.9,1.7,2.9c.9,1.6,1.4,3.2,1.1,3.5-.3.3-2.1-.2-4-1.2l-3.4-1.8-1.7,2c-2.4,2.8-2.8,2.5-2.2-1.2l.5-3.2-3.5-1.7c-1.9-.9-3.3-1.8-3.1-2,.2-.2,1.6-.4,3.2-.5ZM791.7,765.9c1.5-2.1,1.6-2.1,2.9-.8.8.8,1.9,1.2,2.9,1,1.9-.5,2,.5,0,2.2-.8.7-1.5,1.8-1.5,2.4s-.8,1.1-2.5,1.1c-3.4,0-4.2-2.7-1.9-5.9ZM1095,690.5c4.2-2.5,5.4-2.8,6.6-1.7.7.6,1.9,1.1,2.6,1.1,1.1,0,1.2.2.4,1.1-.5.6-1.2,1.1-1.6,1.1s-1.8.8-3.1,1.9c-2.8,2.1-3.5,2.3-2.9.7.2-.6-.2-1.8-.9-2.6-.7-.8-1.2-1.5-1-1.6ZM1062.1,650.5c-1.9-1.1-1.6-1.9.7-2.5,2.3-.6,3.5.3,2.8,2.1-.5,1.4-1.6,1.5-3.5.4ZM1077.8,645.6c4-.5,4,1,0,4.3-3.4,2.9-3.6,3.6-1.4,6.6,2.2,3,1.2,3.6-2.2,1.2-1.6-1.1-3.2-2-3.7-2s-1.5,1.2-2.2,2.7c-1.7,3.5-3.6,4.4-2.9,1.3.3-1.2,1-2.5,1.5-2.9.5-.4,1.4-3.8,1.9-7.4,1.2-8.8,1.5-9.3,4-6.1,1.8,2.4,2.2,2.6,5,2.2ZM1185.3,593.7c3.6-1.5,9.3-1.6,9.3-.1s-1.6,1.9-4.5,1.9-2.2.3-2.2.7c0,1-1.4.8-3.6-.4l-1.8-1,2.8-1.2ZM1134.7,606.7c1,0,2.2-.7,2.9-1.7l1.1-1.7,1.6,1.7c1.6,1.7,1.6,3.9,0,3.9h0c-.4,0-1.4.6-2.1,1.4-1.2,1.3-1.3,1.3-3.3-.6-2.5-2.4-2.6-3-.3-3ZM1099.3,582.2c.5.8,1.5,1.4,2.3,1.4,2,0,2.7,1.5,1.2,2.7-.9.6-1.1,1.5-.8,2.5.6,1.9.4,1.9-1.6,0-1.4-1.4-1.8-1.5-2.8-.6-1,.8-1.4.7-2.3-.4-1.4-1.9-1.4-2,1-4.6,2-2.1,2.1-2.2,3-.8ZM1138.8,454c1.5-.9,2.2-1.9,2.2-3.1s.3-1.8.7-1.8.7.7.7,1.4.6,2,1.2,2.7c1,1,1,1.4.3,1.8-.5.3-1.5.4-2.3.2-.7-.2-1.5,0-1.8.5-.6,1-1.2,1-2.4.2-.6-.4-.2-1,1.3-1.9ZM1083.8,524.3c1.2-.4,2.4-1.4,2.7-2.1.2-.7.7-2.2,1.2-3.2l.7-1.9,1.4,2.8c1.1,2.1,1.9,2.8,3.4,2.8s1.9,0,.7,1.4c-.7.7-1.2,1.9-1.2,2.6s-.6,1.2-1.3,1.2-2.2.9-3.4,2c-1.9,1.8-2.1,1.9-2.1.5s-2.4-4-3.7-4-.6-1.4,1.5-2.1ZM1030.4,531.5c1.8-1.7,2.6-2,3.4-1.3,1.3,1,1.3,3.8.1,5-1.2,1.2-3.2,1.1-4.6-.3-1.1-1.1-1-1.4,1.2-3.4ZM914.2,378.4c-.7,0-2,1.2-2.8,2.6-2.1,3.5-3.2,3.3-3-.5.2-2.8,0-3.2-2.2-4.3-2.6-1.3-2.5-2.3.3-2.3s2.1-.7,2.5-1.5c.4-.8,1.3-1.5,1.8-1.5s1.2-.4,1.5-.9c.3-.7.5-.7.9,0,1,2.2,3.2,3.7,4.7,3.3.8-.2,1.5-.1,1.5.2,0,1.1-4,4.8-5.3,4.8ZM956,431.4h0c-1.1,0-2.9,1.2-4.4,2.8l-2.5,2.7.4-2.4c.2-1.3.6-3.4.8-4.5.4-1.7,0-2.3-1.5-3.1-2.5-1.3-2.5-2.3,0-2.3s4.8-1.3,4.8-3.7,1.2-2.8,3,.8c1.5,2.9,2.3,3.3,5.8,3,.9,0,1.7.1,1.7.4,0,1.3-6.4,6.3-8.1,6.4ZM969.7,439.4c-.7,1.1-3.3.9-3.8-.4-.2-.6-.2-1.4,0-1.6.7-.7,4.3,1.2,3.8,2ZM978.8,442.8c-.9.9-5.6,1.2-6.1.4-.3-.5-.4-.9-.3-.9.1,0,1.1-.2,2.1-.4,1-.2,2-.7,2.3-1.1.3-.5.8-.3,1.4.4.5.6.8,1.3.6,1.5ZM987.7,569.2c-2.7,1.3-3.7,3.5-2,4.5.4.2.7.8.7,1.2s-.7.2-1.7-.4c-2.4-1.7-3.2-1.5-5,1.5-1.7,2.7-4.1,4.5-4.7,3.5-.6-.9.2-5.5,1.1-6.6,1-1.2-1-4.7-2.7-4.7s-1.1-.3-1.1-.7c0-.9,2.7-1.8,3.8-1.1,1.6,1,4.3-.4,5.1-2.7.9-2.6,1.2-2.6,2.9,1,.9,1.9,1.8,2.6,3.8,2.9l2.6.4-2.8,1.4ZM997.6,516c2,0,2.2-.2,2.3-2.4,0-1.3.4-3.4,1-4.6l.9-2.2,2.2,3.3c2.1,3,2.5,3.3,5,3.1,1.5-.1,2.7,0,2.7.4,0,1.1-5.1,6.2-6.3,6.2s-2,1.3-3,3c-1,1.6-2,3-2.2,3-.9,0-1.2-1.8-.8-3.8.6-2.6-.6-4.4-2.7-4.4s-1.4-.3-1.4-.7,1-.7,2.2-.7ZM969,537.5c.3-2,1.1-3.4,2.2-4.1,3.2-2.1,23.5-10,24.6-9.6.7.3.9,1.1.6,2.6-1.4,7.1-1.4,6.6.4,6.5,1,0,2.7-1.6,4.6-4.1,1.6-2.2,3.4-4.2,4-4.4.6-.2,2.9,1,5.2,2.6,3.6,2.6,4.4,2.9,5.6,2.1.9-.5,1.3-1.4,1-2.2-.5-1.7.2-1.6,3.2.2,2.8,1.7,3,2.7.9,3.4-2.3.7-1.8,2.4,1.5,4.5,1.7,1.1,2.9,2.2,2.8,2.5-.3.8-27.4,19-31.2,20.9-1.7.8-3.8,2.4-4.7,3.4-1.5,1.6-1.8,1.7-2.8.7-.6-.6-1.3-2.1-1.6-3.2-.2-1.1-1.3-3.1-2.3-4.3-1.8-2.2-1.9-2.2-3-.8-.6.8-1.1,2.1-1.1,3,0,.8-.3,2-.7,2.5-.7,1.2-1.4.5-2.8-3.2-.5-1.2-2.2-5.3-3.9-9.1-2.6-5.8-3-7.4-2.6-9.9ZM964,528.3c.1.8.8,1.9,1.5,2.4,1.1.8,1,1.2-1.2,3.1-3.5,3.2-5.1,3.5-5.7,1-.4-1.4-.2-2.3.5-2.8.6-.4,1.4-1.8,1.8-3,.8-2.5,2.7-3,3.1-.7ZM931.6,485.3c.7-1.3,1.3-3,1.5-3.8.1-.8.7-1.5,1.3-1.5s1.2.7,1.3,1.5c.7,4.4.9,4.8,3,4.8h2l-2,1.9c-1.1,1-2.5,1.9-3.1,1.9s-1.5.7-1.9,1.5h0c-1.1,2-2.5,1.9-1.9,0,.3-.8,0-2-.5-2.7-.8-.9-.7-1.6.3-3.5ZM850.7,478.1c1.4-.5,2.8-1.5,3-2.1.4-.9.6-.9,1.5.3,1.6,2.1,1.4,3-.8,3.6-1,.3-1.8.8-1.8,1.2,0,1.2-1.9.8-3.2-.6-1.2-1.3-1.1-1.4,1.3-2.4ZM762.9,520.5c1,0,2.1.4,2.3.8.3.4,1.2,1.1,2,1.4,1.1.4,1.3.7.5.9-1.2.4-5.5-1.2-6.2-2.3-.3-.4.3-.8,1.4-.8ZM742.6,530.4c-.6.7-1.6,1-2.4.8-1-.3-1.6,0-2.2,1.5-.5,1.1-1.2,1.9-1.5,1.9-.9,0-.4-6.2.5-6.9,1.2-.9,3.7-.7,5.2.5,1.2.9,1.3,1.2.4,2.3ZM765.2,669c-1.1.9-2.6,1.6-3.4,1.6s-1.6.3-1.8.7c-.7,1.1-1.9.9-1.9-.3s-.5-1.2-1.1-1.5c-2-.7-1.2-2.7,1.5-3.9,2.1-.9,2.6-1.5,2.6-3.3,0-2.8,1.3-2.9,1.9-.2.3,1.1,1.3,2.8,2.3,3.6l1.8,1.6-2,1.6Z"/>
</svg>