<?xml version="1.0" encoding="UTF-8"?>
<svg id="Layer_1" xmlns="http://www.w3.org/2000/svg" version="1.1" viewBox="0 0 1920 1080">
  <!-- Generator: Adobe Illustrator 30.3.0, SVG Export Plug-In . SVG Version: 2.1.3 Build 182)  -->
  <defs>
    <style>
      .st0 {
        fill: #dbb57f;
      }

      .st1 {
        fill: #ff7f00;
      }
    </style>
  </defs>
  <g>
    <path class="st0" d="M764.8,383.5c-1.9,1.1-4.8.5-4.8-1s-1.4-1.8-3.4-2.7c-4-2.1-3.8-4.3.5-6.9,2.9-1.8,3.2-1.8,4.5,0s1.8,1.8,3.7.6c1.6-1,2.6-1.1,3.4-.3,1.4,1.4-1.4,8.6-4,10.1l.2.2Z"/>
    <path class="st0" d="M738.9,366.5c-.8-1.9,4-5.4,5.8-4.5,1.6,1,1.4,3.2-.2,4.8-1.8,1.8-5,1.6-5.6-.3Z"/>
    <path class="st0" d="M728.6,355.5c-.8-2.1,2.2-5.4,4-4.3,1.3.8,1.6,4.2.5,5.4-1.3,1.3-3.7.8-4.3-1l-.2-.2Z"/>
    <path class="st0" d="M1379.5,662q1.8-1.3.5.5c-1.4,1.8-2.4,2.4-2.4,1.4s.8-1.1,1.9-1.9Z"/>
    <path class="st0" d="M960,445.4c7.5-2.1,10.6-1.9,11.4.2,1,2.7-1.8,4.5-9,5.8-3.7.6-6.7,1.8-6.9,2.4-.8,2.1-4.6,1.1-4.6-1.1,0-3.4,2.7-5.4,9.1-7.2Z"/>
    <path class="st0" d="M917.4,417.9c6.4-.6,24.3,14.4,21.3,17.9-2.2,2.6-3.5,1.9-10.9-5.6-4-4-8.5-7.5-10.4-8-4.3-1.1-4.3-3.8,0-4.3Z"/>
    <path class="st0" d="M943.2,422c4.8-2.6,7,3.7,3,8.5-2.2,2.6-4.6,1-5-3.2-.3-3.2,0-4.3,1.9-5.3h0Z"/>
    <path class="st0" d="M975.8,463.1c.8,1,1.1,2.2.8,2.9-1,1.6-5.3.5-5.6-1.4-.5-2.6,3.2-3.7,5-1.4h-.2Z"/>
    <path class="st0" d="M974.2,373.5c-2.1-2.1-1.6-5.3.6-5.3s4.6,2.1,4.6,4.6-3.2,2.7-5.3.6h0Z"/>
    <path class="st0" d="M917.4,465.1c1.6.6,2.2,4.2,1,5.4-1.4,1.4-4.5.6-5.1-1.4-.6-2.6,1.8-5,4.2-4h0Z"/>
    <path class="st0" d="M977.9,412.1c2.2,1.8,1.9,4-.5,5.6-1.8,1.1-1.8,1.6-.8,3.4,1.9,3-.3,5.6-5.4,6.1-5,.5-9.3,2.9-9.3,5.3s.6,1.4,2.9.5c4.5-1.8,7-1.3,7,1.1s-.8,3-8.8,6.4c-3.4,1.3-6.6,3.2-7.2,4.2-1.3,1.9-1,1.9-3.2,1-2.6-1-2.1-4,1-7,1.4-1.4,2.7-3.5,2.7-4.6,0-2.7,3-8.6,5.4-10.7,1-1,2.1-2.7,2.2-3.8.3-1.3,2.7-3.5,6.2-5.3,4.6-2.6,6.1-2.9,7.4-1.8l.3-.2Z"/>
    <path class="st0" d="M971.8,452.7c0-2.4,3-4.5,5.3-3.7,1.4.5,1.9,3.8.6,5.1-.3.5-1.9.8-3.4.8s-2.6-.6-2.6-2.1v-.2Z"/>
    <path class="st0" d="M964.3,415.1c4.5-3.4,5-22.1.6-23.4-6.7-2.1-13.4,3-14.7,11-.3,2.1-1,3.8-1.3,3.8s-1.6-1.9-2.6-4.2c-1.8-4-1.8-4.2.2-5.8,2.6-1.9,7.7-9.4,7.7-11.2s4.5-10.9,6.2-13.1c1.6-2.1,1-5-1.4-5.8-.8-.3-3.4,1-5.4,2.7-2.7,2.4-3.8,2.9-3.8,1.8s.8-1.9,1.6-2.2c1-.3,1.6-1.8,1.6-3s1.3-3.5,2.9-4.8c3-2.6,2.7-5-.8-5s-3.7-2.2,0-3.4c4.5-1.6,4.2-4.2-.6-7.4-3.7-2.4-4.3-2.4-9.3-1.1-6.7,1.8-8.6,3.7-5.8,5.9,1.1.8,3.2,1.6,4.5,1.6,4,0,4,2.1-.2,3.8-4.8,1.9-5,3.7-.6,5.3,7.2,2.7,2.2,3.7-6.2,1.3-2.1-.6-2.4-.3-2.4,1.9s1.4,7.4,3.2,13c4.3,13.4,4.2,14.2-.3,14.2s-8.2,3.5-9.1,12l-.8,7-5.4-4.5c-3-2.6-6.4-4.5-7.4-4.5-3.4,0-2.1,3.2,2.2,5.9,2.2,1.4,6.7,5.8,10.1,9.3,6.2,6.9,7.5,7.7,8.5,5,.3-1,.3-2.4,0-3.4-.5-1.4-.2-1.6,1.6-1.1,3,.8,6.7-.6,9.6-3.7l2.2-2.4,1.9,2.2c2.4,2.9,11,4.2,13.8,2.2l-.2-.3ZM938.1,408.6c-1.1-.2-2.2-1.3-2.4-2.4-.3-1.4.2-1.9,1.6-1.6,1.1.2,2.2,1.3,2.4,2.4.3,1.4-.2,1.9-1.6,1.6ZM943.3,372.6c-1.3,0-2.2-.5-2.2-1.1s.6-1.1,1.6-1.1,1.9.5,2.2,1.1c.3.6-.3,1.1-1.6,1.1ZM958.4,408.7c-.5,0-1-1-1-2.1,0-2.2,2.9-4,3.8-2.2.8,1.1-1.4,4.3-2.9,4.3h0Z"/>
    <path class="st0" d="M977.3,438.5c1.3,2.1,1.3,3.7-.2,5.1-1.6,1.6-4.3.5-4.3-1.9s.8-2.6,1.8-3.4c1.4-1.1,1.9-1.1,2.7,0v.2Z"/>
    <path class="st0" d="M985.4,405.5c1.3,1,1.3,1.9.5,3.5-1.4,2.7-4.8,2.1-5.1-1-.5-2.9,2.4-4.5,4.8-2.4l-.2-.2Z"/>
    <path class="st0" d="M944.8,828.7c1.9,0,1.9-.3-.6-1.1-3-1.1-3.7-2.6-2.2-4.8.5-.6,3.8-1.4,7.7-1.8l6.9-.6,2.7,4.5c1.8,2.9,2.4,5,1.8,5.6-1.8,1.8-1.1,5.4,1.1,6.9,3,1.9,2.7,3-2.2,8.3l-4.5,4.6,3,.5c2.2.5,3.2,1.3,3.4,3.4.3,2.4-.3,3-3.8,4-7.8,2.2-16.8-.6-13.6-4.5,1.1-1.3,1-2.2-.6-5-1.6-2.6-1.8-3.8-.8-5.3,1-1.6.8-2.4-1.4-4.5-1.9-1.8-2.4-3.2-1.9-4.8,1.1-3.5,2.7-5.1,5.3-5.1v-.3Z"/>
    <path class="st0" d="M952.1,863.6c2.4-.5,4.2-.2,5.1.8,2.1,2.1,1,4.8-2.2,5.3-4.5.8-5,.8-6.4-.8-1.9-2.4-.6-4.5,3.4-5.3h.2Z"/>
    <path class="st0" d="M966.1,712.1c11.2.8,13,1.6,9.9,4.8-.8.8-2.9,1.1-4.6.8-3.4-.5-17.1-2.1-29.9-3.4-4.5-.5-6.7-1.1-6.6-1.9.5-1.4,12.3-1.4,31.2-.2v-.2Z"/>
    <path class="st0" d="M944.8,922.3c4,1.1,5.8,1.1,9,0,3-1.1,4.3-1.1,5.4,0,1.9,1.6,1,4.3-2.1,5.4-5.4,2.2-14.7.3-17.9-3.5-2.1-2.6,0-3.2,5.8-1.8l-.2-.2Z"/>
    <path class="st0" d="M937.6,779.5c1.8,1.4,2.4,2.9,1.9,4.3-.5,1.8,0,2.6,2.2,3.4,2.9,1.1,2.9,1.3,1,2.6-1.8,1.3-1.8,1.8-.6,3.2,1.4,1.8,8.8,2.6,10.4,1s3.5-.8,6.9-1c6.9-.3,9.9-2.7,8-6.2-.8-1.6-.5-2.4,1.8-4.2,1.6-1.3,2.6-2.9,2.2-3.8-.3-1,.5-2.6,1.9-3.7,3.8-3.2,2.2-5.9-3-5-2.2.5-5.3,1.6-6.9,2.6-3.7,2.4-12.3,4.5-14.2,3.4-3.8-1.9-9.4-2.2-11.5-.6s-2.1,1.8.5,3.8l-.5.3ZM950.1,781.2c1.1-.5,3.2.2,5.1,1.6,1.8,1.3,4.2,2.4,5.3,2.4s.5.5-1.4,1.1c-1.9.5-4,1.8-4.8,2.7-2.2,2.6-3.7,1.9-2.9-1.1.5-2.1.2-3.2-1.3-4.3-1.8-1.3-1.8-1.4,0-2.2v-.2Z"/>
    <path class="st0" d="M956.9,722.5c4.2,0,5.9.5,5.9,1.4s-.3,1.9-.8,2.2c-.8.8-6.1.2-10.4-1.1-3.7-1.1-.6-2.6,5.3-2.6h0Z"/>
    <path class="st0" d="M948.8,931.9c7,1.4,9.3,3,7.5,5.1q-1.6,1.9-9.3,0c-7.5-1.9-8-2.2-5.8-4.5,1.4-1.4,2.6-1.6,7.5-.5v-.2Z"/>
    <path class="st0" d="M950.1,797.1c2.6,0,5.8-.2,6.9-.6,3-1,5.8,2.2,4.2,4.6-.6,1-2.4,2.1-3.8,2.6-4.6,1.3-12-1.9-12-5.1s1.1-1.6,4.6-1.6l.2.2Z"/>
    <path class="st0" d="M981.6,378.7c-1.4-1.8-.8-5,1-5s4.5,3.4,3.8,5c-.8,2.1-3,2.1-4.8,0Z"/>
    <path class="st0" d="M921.4,522.7c12.5,0,71,1.4,73.1,1.9,1.3.3,2.4,1,2.4,1.6s-5.9,1.1-14.6,1.1-16,.5-17.8,1c-5.9,1.3-47.2-1.3-49.1-3-1.4-1.4.8-2.4,5.9-2.6h0Z"/>
    <path class="st0" d="M842.5,1000.4h0c-3.8,2.1-4.6,2.1-5.4,0-1-2.4,4.2-7.4,6.6-6.4,2.9,1.1,2.2,4.6-1.1,6.4h0Z"/>
    <path class="st0" d="M955.7,895c-4.6,1.9-12,1.3-14.6-1-1.4-1.4-1.4-1.6,0-2.6,1-.6,3.4-1.1,5.3-1.1s5.1-.8,7-1.8c3.2-1.6,3.5-1.6,5,.2,2.2,3.2,1.8,4.5-2.7,6.2h0Z"/>
    <path class="st0" d="M943.2,979.8c-1.3-2.1-2.7-3.8-3-3.8s-1.4-1.1-2.2-2.4c-1.1-1.8-1.1-3,0-5.4,1.8-4.2,5-4.2,9.8,0,3.4,2.7,3.5,3.4,2.2,5-1.1,1.4-1.3,2.4-.3,4.5.6,1.4,1,3.5.6,4.3h0c-1.1,2.9-4.5,1.8-7-2.2v.2Z"/>
    <path class="st0" d="M951.7,899.9c2.7-1,4-1,4.8,0,1.6,1.6.3,5.6-2.1,6.2-4.3,1.1-11,.6-12.3-.8-1.8-2.2-.5-3.8,3-3.8s4.5-.6,6.6-1.3v-.3Z"/>
    <path class="st0" d="M936.1,990.8c1.8,2.2,3.4,3.5,3.5,2.7.2-.8-1-3.2-2.7-5.4-4.8-6.2-5.9-8.8-4.3-9.4s2.7.3,4.3,1.4c7.2,4.6,11,14.9,6.1,16.2-1.8.5-2.1,1.4-1.9,4,0,1.9,0,4-.6,4.8-.5.8-1.8,1.3-3,1.3s-2.1-.8-2.1-3-1.8-5.6-4-8.8-3.7-6.2-3.2-6.9c1.4-2.2,4.8-1.1,7.8,2.9l.2.3Z"/>
    <path class="st0" d="M941.4,911.1c3.4,1.1,4.5,1,8.8-1.1,4.2-2.1,5.3-2.2,6.7-1,2.6,2.1,2.1,3-2.4,5.4-5.3,2.9-10.9,2.9-15.5,0-4.8-2.9-3.2-5.1,2.4-3.4h0Z"/>
    <path class="st0" d="M976.1,432.1c0-2.6,2.1-4.6,4.6-4.6s2.6,3.8,0,5.4c-2.9,1.8-4.6,1.4-4.6-.8Z"/>
    <path class="st0" d="M1052.3,339.3c0-3,3.2-4.8,5.3-3,1.3,1.1,1.4,1.8.3,3.5-1.6,2.7-5.8,2.2-5.8-.5h.2Z"/>
    <path class="st0" d="M855.5,338.2c-1.4.8-3,2.4-3.5,3.5-1.8,4.6-7.2,1.3-5.9-3.7,1-3.7,7.8-7.7,10.7-6.1,2.9,1.4,2.2,4.5-1.1,6.1l-.2.2Z"/>
    <path class="st0" d="M841.1,354.5c-1.6-.5-2.1,0-2.1,1.6s-1,2.7-2.1,3.4-1.9,1.8-1.6,2.6-.2,2.2-1.3,3.4c-1,1-2.2,1.8-2.7,1.8-1.9,0-4.2-3.4-3.7-5.3.3-1.1-.5-4.5-1.8-7.4-2.7-6.6-3.4-10.4-1.4-11,.8-.3,2.2,1.6,3.7,4.6,3.2,7.4,5.3,5.3,2.4-2.4-1.1-2.9,3.2-1.3,5,1.9,1,1.8,2.2,3.4,2.9,3.4,1.1,0-.2-7.7-1.6-9.4s0-5,2.1-4.6c1.9.3,3.7,3.7,5.8,10.4,1.6,5.3,0,8.5-3.5,7.4v-.2Z"/>
    <path class="st0" d="M1060.6,348.4c0-3.5,2.1-6.6,4.5-6.6s2.9,3.2,1,6.7c-1.6,2.9-5.4,2.9-5.4,0v-.2Z"/>
    <path class="st0" d="M1078.4,369.1c-1.4-.3-1.8-1.3-1.6-5.1q.3-4.6-2.1-3.4c-2.1,1.3-2.6,1.1-3.8-.5-.8-1.1-2.2-1.9-3.2-1.9-2.6,0-2.2-4.2.5-8.6,2.6-4.2,5.6-4.3,6.6-.5.3,1.4,1,2.6,1.4,2.4,2.6-.2,3,0,3,2.1s1,2.4,2.2,2.9c2.4.8,2.4,3,0,9.6-.8,2.1-1.8,3-3,2.7v.3Z"/>
    <path class="st0" d="M522.2,652.6c-3.2,6.4-2.6,8.5,2.6,8.5s3.8-.3,3.8-3.2.8-3.8,1.8-4.6c2.7-2.2,4.3.3,5,8,.5,6.2.8,6.7,3.5,7.5s3.2.3,5.4-3.7c5.6-11,16-17.3,29.1-17.4,8.3,0,9.8.6,7.5,4.2-3.5,5.3-.6,6.6,5.8,2.7,4.6-2.9,6.7-1.8,3.4,1.8-3.8,4.2-1.4,5.6,5.4,3,5.6-2.1,7.5-1.9,23,1.3l2.6.5-2.6,2.7c-2.4,2.6-2.4,2.7-.5,3.4,1.1.5,4.2,0,7-1.1,5.9-2.2,7.5-2.4,14.9-.8,5.4,1.1,25.3,2.9,31.8,2.9s8-2.2,13.8-5.1c6.4-3,10.9-4.6,11.5-4,1.8,1.8,3.2,1.1,15.2-6.1,8.3-5,13.6-7.4,18.1-8.2,18.1-3.4,23.5-5.8,35.7-16,10.2-8.6,16.5-12.2,21.4-12.2s4.5-.3,8.5-11c3.7-9.9,7.8-17.9,10.7-21.4,4.6-5.3,6.9-12,9-26.9,2.6-18.9,3.5-23,5.9-27.5,4-7.5,5.8-9,9.8-8.3l3.7.6-.6,7.8c-.6,7.7-.3,9.6,4.3,20.6.6,1.4,0,2.1-3.5,3-6.4,1.8-9.6,4.8-13.9,13.4-3,6.1-3.8,9.1-3.8,13.8s-.5,6.9-1,7.8c-.6,1.1-1.3,9-1.4,17.6l-.5,15.7-3.7,3-3.7,3,3.8,1.3c4.8,1.6,8.8,9,4.8,9s-3.4,2.1-2.1,3.4,2.7,1.1,4.8,1.4c2.9.3,4.3,1.3,6.2,4.3l2.4,3.8-3.7,4c-4.6,4.8-7.4,6.2-21.1,11-6.1,2.1-13,5-15.4,6.2-4.2,2.4-4.6,2.4-11.4,1-3.8-.8-8-1.8-9.4-2.1-3.7-.8-2.9,1.6,1,2.9,4.6,1.6,10.7,6.4,10.7,8.3s-1.9,2.4-4.3,3.4c-5.1,2.1-5.4,2.9-1.4,4.5l3,1.1-4,1.9c-2.7,1.3-4.8,3.5-6.2,6.7l-2.4,4.8h-13.6c-11.2,0-14.7.5-20,2.4-4.6,1.8-8.8,2.4-16,2.4s-12.2,1.1-6.4,3.2c5.9,2.1,3.5,4.8-3.7,4.3l-4.5-.3,2.6,2.7,2.6,2.7-2.6,1.8c-3.4,2.4-14.1,2.2-21.8-.3-7.2-2.4-8.6-1-3.5,3l3.5,2.7-2.2,1.9c-1.3,1.1-4.3,2.2-6.9,2.7-6.6,1.1-11.4,3.4-16.8,7.7-5.1,4.2-11.4,12.5-11.4,15s-1.8,5.8-3.8,10.7c-3.4,7.7-3.8,10.4-3.8,16.8,0,12.3,5.4,21.3,12.2,19.8,1.8-.5,3.5-1.1,3.8-1.4.3-.5-.5-3.7-1.8-7.2-2.1-6.2-2.1-9.4,0-9.4s1.6,1.6,2.4,3.5,2.2,4.5,3,5.4c2.9,3.4,12.3,1.8,12.3-2.1s-1.4-3-3.2-4.6c-4.5-4.2-5.4-7.4-4.3-14.4,1.4-9,6.1-17.3,13.3-23.4l6.2-5.3,14.1-.5c7.7-.3,18.6-.6,24-.8,10.1-.3,10.9-.5,31.2-9.8,1.4-.6,3.2-1.3,3.8-1.3,1.3,0,9.4-2.6,13.9-4.2,1.6-.6,3-1.9,3-2.7s.8-1.4,2.6-1c1.9.5,5.9-1.1,14.4-5.9,6.6-3.5,12.2-6.6,12.6-6.6s3.4-1.1,6.2-2.4c6.9-3,15-9.4,21.3-17,2.7-3.2,7.5-7.8,10.6-10.2,5.3-4.2,8.2-9.3,8.2-14.7s1-1.8,2.6-1.8c4.3,0,7-2.9,8.3-8.8.6-3,1-5.9.6-6.4-.3-.5-1.4-4.6-2.7-9.4-2.1-7.8-2.1-9.6-1-16.6,1.3-8.2.3-24-2.6-42.7-1-6.7-1-8.6.5-12,1-2.2,2.1-5.6,2.4-7.7.5-2.2,1.9-4.5,4-5.9,1.8-1.3,4.3-4.6,5.4-7.4,4.2-9.8,12.2-25.3,13-25.3s-.8,6.2-3.8,14.9c-1.8,5-3.4,16.2-2.9,20.5.2,1.6-.5,5.3-1.4,8.2-1.9,5.6-2.1,11.8-1.4,55.7l.3,24.2,2.7.6q2.7.6,3,14.6c.2,8.6.8,16,1.9,19.7,1.9,6.7,2.6,7.8,5.4,9.3,2.1,1.1,5,8.2,11.5,27.7,4.6,13.8,8.3,21.3,11.5,23,2.1,1.1,2.9,2.4,2.9,4.6,0,4,7.8,27.4,11.7,35,1.6,3.2,5,9.1,7.4,13.3l4.3,7.5-3,6.4c-3.2,6.7-3,9.8.5,9.8s2.7,1.3.3,5.8c-2.9,5.4-2.2,28.8,1,35.4,1.3,2.7,2.7,4.8,3.2,4.8,1.3,0,5.4,7,5.4,9.3s-2.4,4.2-5.3,7c-9.6,9.4-12.5,22.9-10.2,48.3,1,11,1.6,14.4,4,18.6,1.6,2.7,2.7,5.6,2.7,6.2,0,2.2-11,16.2-20.3,25.3-4.8,4.8-10.1,10.9-11.5,13.4-2.4,4-3.2,4.6-6.6,4.6s-17.8-4.6-31.4-10.2c-12.3-5.1-23.8-5.9-32.3-2.4-1.1.5-2.1,0-2.9-1.8-1.1-2.4-6.7-9.8-16.6-21.6-2.2-2.7-5-6.4-6.1-8.2-1.1-1.9-5.3-7.5-9.1-12.5-6.2-8-7.2-9.8-7.4-14.2-.3-5.9-5.9-20.5-10.7-27.4-1.8-2.6-6.9-7.7-11.4-11.5-4.5-3.7-8.2-7-8.2-7.4s3.5-1.8,7.7-3.4c5.4-1.9,9.9-4.5,14.7-8.6,6.4-5.3,7.2-6.7,9.4-13.3,2.1-6.4,2.2-8.3,1.3-14.6-1-6.7-.8-9,1.6-17.3.5-1.4,3-5.3,5.6-8.5,2.7-3.2,4.6-5.8,4.3-5.8s1.6-4,4.3-9.1c2.7-5,5.3-11,5.8-13.4,1.1-6.1-2.1-15.8-6.9-21.9-5.1-6.2-16-12.8-21.9-13.3-2.6-.2-7-.8-9.9-1.4-5.9-1.3-10.7-.6-14.2,1.8-1.1.8-4.5,1.6-7.4,1.6s-5.3.5-5.3,1.4,3,1.6,12.3,2.2c12.3.6,23.7,3.7,30.1,7.8,7.5,5,7.8,20,.5,28.3-2.1,2.4-16.2,9.1-26.4,12.6-12,4.2-18.1,8.3-24.3,17.1-9.1,12.5-11.7,31.7-6.4,48.2,2.7,8.3,5.6,13,8.8,14.1,1.3.5,1.3,1.1,0,4-.8,2.1-1.1,5.6-.8,8.6,2.7,24,9.8,42.9,18.6,50.1,2.2,1.8,4.2,4,4.2,4.8s1,1.9,2.1,2.6c1.1.6,2.9,3.5,4,6.4s3.2,7,4.8,9.1c4,5.4,19.2,21.9,20.2,21.9s2.6,1.6,4.8,3.5c5.1,4.6,9.4,6.4,16,6.4s5.3.3,5.3,2.1,4.3,8,9.6,13.6c5.4,5.9,35,16.2,54.2,18.9,7.4,1.1,15.7-1.3,20.6-5.6l4-3.7,2.7,4c1.4,2.2,3.8,4.6,5.4,5.4,4.6,2.4,14.1,1.6,22.1-1.6,8.6-3.5,10.1-4.6,16-11.7,3.4-4,6.1-9.6,10.2-20.3,3.2-8.2,6.4-16.5,7.4-18.6s1.9-7.8,2.2-13c.6-7.8.3-9.4-1.3-11.4-2.1-2.4-1.9-2.9,1.9-4.8s7.7-10.6,8.6-24c1.9-26.7,1.1-37.1-3.5-48l-2.2-5,2.7-4c1.4-2.2,4.3-9.6,6.1-16.3,4-14.6,3.8-15.7-5-33-3-6.1-3.2-7-1-5.1,1.3,1.1,2.2,1.1,4.5,0,2.7-1.3,2.9-1.6,2.1-6.7-.6-5.3-.5-5.8,4.2-12.3,6.2-8.8,8-13,15-34.9,5.4-17,6.1-18.4,9.3-20.2,6.4-3.4,7.4-5.4,15-31.5,2.1-7,2.9-8.5,4.8-8.5,3.7,0,5.6-3.2,7.5-13.1,1-5.1,2.6-11.8,3.5-14.9,1-3,1.4-8.5,1.4-12.2s.3-7.5,1.6-9.3c2.9-4.3,4.3-28.6,2.4-39q-2.1-10.7,1.1-12.3c3.4-1.6,3.4-2.2,0-10.9-4.6-11.5-5.6-35.2-1.4-32.5.5.3,2.1,3.2,3.5,6.2,1.4,3.2,3.4,6.4,4.3,7.2,1.3,1.1,1.8,3.4,1.9,8.8,0,4,.8,9.8,1.6,12.8,1.3,4.2,1.6,10.7,1.6,26.9s.5,24,1.4,29.1c.8,4.2,1.9,10.1,2.2,13,.6,4.2,1.6,6.2,5.1,9.8s5.1,4.2,6.6,3.8c2.2-.6,3.8,2.1,6.6,10.6.6,2.2,2.1,4.5,2.9,4.8s4.3,4.8,7.8,10.1c6.4,9.6,15.7,19.5,21,22.2,2.9,1.4,5.3,3,23,14.7,5,3.4,10.2,8,13.6,12.3,3,3.8,6.7,7.2,8,7.5s4.6,3.8,7.5,8.2c8.5,12.3,25,25.8,35.7,29.1,1.4.5,4.2,2.4,6.1,4.3,1.9,1.9,5.9,5.6,9.1,8.3,5.1,4.5,5.6,5.1,5.4,9.3-.2,3.8,0,4.5,1.9,4.2,1.1-.2,2.7-1.1,3.7-1.9,1.8-1.8,2.2-1.4,7.7,2.7,2.7,2.1,3.2,3.2,2.4,4.6-1.8,3.4-1.1,5.3,1.6,5.3s3-.5,3.4-1.1c1.1-1.9,3.8,0,6.6,4.8,2.2,4,2.6,5.6,2.2,14.9-.2,5.8-1.1,12.3-2.1,14.6-2.2,5.6-2.1,9.1.5,11.8,2.7,2.7,3.5,2.7,6.1,0,1.3-1.4,2.2-4.8,2.7-9.4.8-7.4,2.1-9.4,5.9-8.8,3.4.5,6.2,6.6,7.5,16.3,1.3,8.5,1.4,9,4.2,9.3,2.6.3,3,0,3.7-3.2.5-1.9.8-7.7.6-12.6,0-7.5-.8-10.9-4-18.7-5.3-13.6-12.6-26.4-24-41.6-5.6-7.4-6.1-8.5-4.2-8.8,5-.8-2.2-9.4-8.8-10.6-2.4-.3-4.3-1.1-4.3-1.8s-1.6-2.9-3.7-5.1-4.6-5.8-5.8-8c-2.9-5.3-11.5-11-16.8-11s-5.3-.8-6.7-2.1c-3.4-2.6-15.5-9.6-21-11.8-3.5-1.4-4-2.2-4.5-5.9q-.3-4.2,3.5-4.5c2.9-.3,3.8-.8,3.8-2.2s-1.9-2.7-6.6-4.6c-9.4-3.8-13.8-9.6-6.9-9,2.6.2,3.7-.2,3.8-1.6.3-1.3-1.1-2.6-4.8-4.3-3.2-1.6-6.1-4-7.5-6.2-4-6.6-11.4-14.1-16.8-16.6-2.9-1.4-6.4-3.4-8-4.3-1.4-1-6.4-3-10.7-4.6-5.4-1.9-9-4-10.9-6.4-1.6-1.9-6.6-5.1-10.9-7.2-4.5-2.1-8-4.2-8-4.5,0-.5.8-1.9,1.9-3.2,1.8-2.2,2.2-2.4,5.4-1.1,2.9,1.1,3.8,1.1,5,0s.8-1.9-1.8-4.2c-2.1-1.8-3.5-4.3-4-7.4-.8-4.2-.6-4.8,1.9-6.7,3-2.4,3.5-1.4-4.3-8.6-3.7-3.4-3.8-4.6-.8-5.4,2.2-.6,2.1-.8-1.6-6.4-2.2-3.2-3.8-6.6-3.8-7.7s-1.4-6.2-3.2-11.5c-1.8-5.4-3.8-13.1-4.5-17.1-.8-4.2-2.4-9.1-3.8-11.4-2.1-3-2.6-4.8-1.9-8,.5-3.5,0-4.6-3.2-8.5-3.7-4.3-3.8-4.5-4.3-17.3-.5-11.5-.3-12.8,1.3-12.2,1,.5,3,.6,4.5.6,2.7,0,2.9.3,5.3,11.4,1.4,7.2,3.4,13,5.1,15.5,1.4,2.2,2.7,5.1,2.7,6.4s.6,3,1.6,3.7c.8.6,1.8,2.4,2.2,3.8,1.1,4.8,9.1,21,12.3,25,1.8,2.2,5,6.6,7,9.8,6.6,9.8,11.8,14.9,19,18.4,4.2,2.1,8.5,5.3,10.9,8.2,4.5,5.3,17,14.4,28.3,20.8,4,2.2,11.4,6.4,16.5,9.4,5.1,3,9.8,5.4,10.2,5.4s3.8,1.3,7.2,2.9,7,3.4,8.3,3.8c1.1.5,4.2,1.8,6.6,2.7,11.2,4.6,35.5,8,45.3,6.1,3.5-.6,10.7-1.8,16.2-2.4s12.6-2.2,16-3.2c10.1-3.4,41.3-3,47.8.5,1.9,1,4.6,1.9,6.1,1.9s8,.2,14.6.3q12,.2,12.5,2.9c.2,1.4,1,3.4,1.6,4.2,1,1.3,1.4,1.1,2.7-.5.8-1.1,1.4-3,1.4-4.5,0-4.2,2.9-2.9,5.4,2.2,1.3,2.6,2.2,5.3,2.2,5.9,0,2.1,3.2,3.8,5.4,3,2.7-.8,2.4-1.9-1.9-11.8-3-6.7-11.5-15.7-16.3-16.8-1.4-.3-2.6-1-2.6-1.4,0-1.8-6.6-2.7-20.8-2.7s-28-1.6-30.9-3.4c-.8-.5-7.5-.8-14.9-.6-13,.3-13.6.2-15.5-2.2s-2.2-2.4-5.1-.8c-4.5,2.4-10.6,1.6-12-1.4-.8-1.9-1.8-2.4-5-2.1-2.1.2-6.9.6-10.4.8-3.7.3-13.1-.2-21.3-1-14.1-1.4-14.7-1.6-18.4-5.1-2.1-1.9-3.7-4.2-3.7-4.6s2.9-.8,7-.3c5.4.5,7.4.3,8.5-1,2.6-3.2-1.3-5.1-10.4-5.4-9.3-.3-10.6-.8-10.6-4s-.5-2.4,9.4,0c1.6.3,2.7-.2,3.7-1.9,1.8-3.2.3-4.5-5.1-5.1-2.2-.3-5.9-1-8.2-1.4-2.2-.6-5.9-1-8.3-.8-5.9.2-6.9-.6-6.1-5.1.5-3.4.3-3.8-1.9-3.8s-4.3.6-6.7,1.3c-3.4,1-5.4,1-10.6-.5-3.5-1-9.6-1.8-13.6-1.8-13.1,0-19-4-13-8.6,3.4-2.4,3.4-3,1.3-8.8-.5-1.1.2-1.3,2.9-.8,1.9.5,3.8.5,4.5,0,2.2-1.3-.3-3.7-6.9-6.7-9-3.8-11.8-7.4-7.4-8.5,3.8-1,2.7-4.6-2.2-6.2-4.5-1.4-6.9-3.7-10.2-9-1.8-2.9-1.8-3,.3-3.7,1.1-.3,2.2-1.1,2.2-1.4,0-1.3-4.8-5.3-7.2-6.1-1.3-.3-3.5-2.4-5-4.5s-6.2-7.5-10.6-12c-5.6-5.8-8-9.1-8-11s.3-2.7.6-2.7,3,1.6,5.8,3.7c7.2,5.1,13.4,7.8,14.4,6.2s10.2.2,17,3.2c8.6,4,27.7,6.9,41.8,6.2,8.3-.3,13.6-1.1,27.8-4.3,7-1.6,21.1-1.8,29.3-.3,5.3.8,5.8.8,6.4-1.4.5-1.3.2-3-.5-3.8-2.2-2.7,7.7-14.9,23.8-29,8-7,14.6-13,14.6-13.4s3.4-4.5,7.5-9.1c5.8-6.2,8.5-10.4,11-16.8,1.9-4.6,5.4-11.5,7.8-15.2,4.2-6.6,4.5-6.7,10.1-7.5,15.7-2.1,14.4-2.2,21.4,2.6,3.7,2.4,6.9,5,7.4,5.6,1,1.8,5,1.3,5.6-.5.3-1,0-3-.5-4.8-.8-2.2-.8-3.5,0-4.5,1-1,.8-1.3,0-1.3-1.9,0-10.2-8.2-9.3-9.1.5-.5,3-.8,5.9-.8,4.5,0,5.4.5,7.5,3.4,1.3,1.8,2.1,3.7,1.8,4.3-.8,1.3,2.9,7.8,4.5,7.8,2.4,0,4-3.2,3.4-6.7-1-5.1-4-11-7.2-14.2l-2.9-2.9-9.3,1.6c-5.1.8-14.9,1.4-21.4,1.4-11.2,0-12.5,0-18.7,3-3.7,1.8-7.4,3.8-8.2,4.8-.8.8-4,3.2-6.9,5.3s-5.1,4.2-5.1,4.6c0,1.9-2.6.8-6.2-2.9-5.1-5.1-8.2-5.1-4.2,0,1,1.1,1.6,3.5,1.6,5.1s.8,3.4,1.6,3.7c1.8.6,1.1,4.2-1.3,6.2-1.3,1.1-1.8,1.1-2.2,0-.6-1.9-4.3-1.8-5.1.3-.3,1-.6,3.2-.6,5.1,0,3.7-3.5,10.1-6.1,11.2-1,.3-2.1-.5-3-2.4-1.8-3.5-3.5-3.5-3.8,0-.8,6.2-2.7,9.6-7.2,12.5-6.2,4.2-16.8,15.2-17.8,18.2-1.1,3.7-7.2,11.7-9.3,12.3-1.1.3-3.2.3-4.8,0-2.1-.5-2.9-1.4-2.9-3.7s-1-4.5-2.2-6.6c-1.8-2.9-2.9-3.5-5.8-3.5s-4.8-.2-6.2-.6c-2.4-.6-3,0-4.8,3.2-2.4,4.6-5.6,5.8-10.9,4-3.7-1.3-3.8-1.3-2.2-4.2,1.9-3.8,1.9-5.1-.2-6.9-1.4-1.3-2.1-1.1-3.8,1.3-5.4,6.9-6.2,7.4-13.1,7.8-5.4.3-6.9,0-7.7-1.6-1.8-3.2-4.3-2.2-9.8,3.8-4.8,5.3-5.6,5.6-10.4,5.8-4.6,0-5.4-.3-7.2-3.2-3.4-5.3-3.5-5.9-2.1-7.7,1.1-1.3,1-2.1-1.1-4.3-1.4-1.4-3-2.7-3.8-2.7-2.6,0-3.7-2.4-2.6-5.1,1-2.2.8-3-1.4-5.4-1.4-1.4-3.8-3-5.4-3.5-1.6-.5-6.7-5-11.5-10.1-10.1-10.7-17.4-17.3-25.3-22.6-4.8-3.2-5.6-4.2-5.8-7.8-.3-4.8-5.4-10.7-15.5-18.1-3.4-2.4-7.7-6.1-9.9-8-5.6-5.1-13.3-7.7-21.9-7.4l-7.2.3,3.8-3.4c2.1-1.9,4.6-3,5.4-2.7,1,.3,3.4.8,5.4,1,2.2.2,4.5,1.3,5.6,2.7,1,1.3,3.8,2.9,6.6,3.4,3.7.8,7.2,3.4,16.5,11.7,17.1,15.5,21.8,19.5,24.5,21,1.3.6,4.2,2.2,6.2,3.4s5.4,2.1,7.4,2.1,3.5.5,3.5,1.8c0,2.2,2.1,4,9,7.5,2.9,1.4,5.8,3.7,6.4,5,.8,1.6,1.9,2.1,3.7,1.6,1.4-.3,4.8.3,7.8,1.4,13,5.3,21.1,7.2,28.2,6.4,3.7-.5,9-1,11.7-1.3,20.8-1.9,25.6-2.7,27.5-4.5,1.1-1,2.1-2.6,2.1-3.4s6.6-8,14.4-16c17.1-17.3,21.6-22.9,34.9-42.9,7.5-11.4,10.4-14.9,11.7-14.4,1,.5,2.7-.3,4-1.8,1.3-1.3,4.5-3.5,7.2-4.6,4.3-1.9,5.4-2.1,9.9-.8,2.9.8,6.7,3,9.3,5.4,3.8,3.7,4.6,4,7,2.9,3.2-1.4,3.2-1.6.5-6.1s-2.7-4.6,0-4.6,2.7-1.1,3.5-2.7c1.1-2.4,1-3.2-1-5.8-4.5-6.1-7.4-7.4-18.2-7.8-15.7-.6-17.1,0-32.6,15.2-7.4,7.2-13.9,13.1-14.4,13.1s-2.6-1.1-4.3-2.4c-2.4-1.8-3.5-2.1-4.5-1.1-1,1-.8,1.9.5,4,1.9,3,2.2,6.9.8,9.3-.6,1.1-2.1,1.3-5.1.8-3.4-.6-4-.5-3.5.8,1.3,3.4-1.6,10.9-5.1,13-3,1.8-3.7,1.9-5.8.5-4-2.6-5.1-2.1-4.3,2.2.6,3.7,0,4.5-9.3,14.7-10.1,10.9-13.4,12.6-14.2,7.5-.2-1.3-1.1-2.7-2.2-3.5-1.6-1-2.4-.6-4.5,1.9-1.9,2.4-3,3-5,2.4-3.4-1-3-3,1-7.2,6.9-7.2,1.3-10.4-5.9-3.4-3.5,3.4-5.1,4.3-7,3.8-1.4-.3-2.4-1.4-2.4-2.7,0-2.7-1.6-2.6-5.6.3-4.8,3.4-16.2,4.5-25.1,2.6-6.6-1.4-7.8-2.2-14.1-8.6-4.8-4.8-6.7-7.5-6.2-8.8,1.3-3.5,3.8-3,7.8,1.1,3.7,3.8,4.2,4,9.3,3.5,9.9-1.1,22.2-8.6,34.2-21,5.6-5.8,8.6-10.1,13-18.7,3-6.2,5.9-13.1,6.6-15.5s2.4-9,3.8-14.7c1.6-5.8,3.5-15,4.5-20.8,2.2-14.1,3.4-16.5,8.3-16.5s5.4-.5,7.2-1c1.8-.5,5.9-1.6,9.3-2.4,11.7-2.7,19.2-11.2,27.4-31.2,7.2-17.8,7.8-21.4,8-50.6.2-21.1-.2-29.8-1.6-38.2-1-6.1-2.4-16.6-2.9-23.4-.6-6.9-1.6-15.2-2.2-18.7-3.8-20.6-4.3-25-4.2-44.8,0-18.2-.3-21.6-1.9-24.5-2.1-3.5-4.8-4.3-7-1.6-1,1.1-1.1,3.4-.3,8,.5,3.5.8,13,.3,21.1-.6,14.2-.6,14.9-3,15.2-3,.5-3.2,2.1-.3,5.1,1.8,1.9,1.9,3,1.1,7.7-1.4,7.8-4.8,19.8-6.1,21.6-1.3,1.6-1.3,2.6,0,5.9,1.4,4.3-2.9,11.4-6.9,11.4s-.6-3-.3-6.9c.3-5.1,1-7.2,2.6-8.3,2.6-1.8,2.7-4.8.5-6.7-1-.8-1.6-3.2-1.6-5.9s.6-5.1,2.7-7c3.5-3,3.5-4.3,0-5.9-3.2-1.4-3.7-5.1-1-9.1,1.6-2.6,1.6-2.7-1.1-4.5-3.5-2.2-3.8-7.5-.6-9.3,3-1.6,2.9-5.3-.3-6.6-3.2-1.3-4.8-7.2-2.6-9.8,1.6-1.9,1.1-4.3-1.1-6.1-1.4-1.1-3-6.6-8.6-27.4-3.8-14.2-7-19.4-9-13.9-.3,1.1-1.1,2.2-1.6,2.6-.5.3-.2,2.9.6,5.4,6.6,21.1,8.8,48.8,5.6,69-2.4,14.7-3,17.6-7,29-1.3,3.5-2.2,7.4-2.2,8.3s-.6,2.7-1.4,4c-.8,1.1-3,6.1-5.1,10.9-2.1,4.8-4.5,10.1-5.6,11.5-1,1.4-5,8-8.6,14.2-20.8,35-23.2,40.2-23.4,51.7,0,4.5.2,9.1.6,10.6.8,2.1.3,2.7-2.2,3.8-8.3,3.5-8.2,7.5.2,7.5s7.2,2.4,1.3,6.7c-6.4,4.6-6.1,6.1,1.4,5.6,5.6-.3,6.2,0,7.7,2.6.8,1.6,4.2,5.3,7.5,8.2,5.8,5.1,5.8,5.3,4.8,9-.6,2.1-1.6,7.7-2.4,12.5-1.3,8.6-3,14.7-4.2,14.7s-2.1-1.3-3.7-2.9c-2.4-2.4-3.4-2.7-4.5-1.6-1.1,1.1-.6,2.6,1.8,6.7,2.9,5.1,2.9,5.6,1.4,8.5-1,1.6-2.4,4-3.4,5.1-1.6,2.1-1.8,2.1-4.3-.3-3.4-3.2-5.4-2.1-4.6,2.6.3,1.9,0,4.3-.5,5.3-1.4,2.9-13.6,9.8-16.5,9.4-2.2-.3-2.6.2-2.9,4.2-.6,12-1.9,17.8-5,21.1-1.6,1.9-3.4,3.5-3.8,3.5-1.3,0-8-6.6-8-7.7s.6-1.3,4.6,1.1c5.3,3.2,7.4,2.9,7.4-1.1s-.8-3.8-3.5-5.4c-1.9-1.1-6.4-5-9.9-8.3-5.9-5.8-6.2-6.2-4.6-8,2.4-2.7,2.1-4.3-1-5.6-3.5-1.3-6.2-6.6-5.8-11.2.3-3.2,0-3.7-2.9-4.2-3.4-.6-4.5-2.1-5.6-6.9-.5-2.1-1.3-3-2.9-3-3.5,0-8.6-4.2-8.6-7.2s-1.8-4.5-4.8-4c-1.1.2-5-1-8.6-2.6-5.3-2.4-7.5-2.7-11.2-2.2l-4.6.6-1.3-5c-2.1-8.5-9.1-11.2-17.3-6.7-4,2.2-5.3,2.6-6.1,1.4-.5-.8-3.2-1.4-6.9-1.3-5.4,0-6.6.5-10.1,3.8-3.8,3.7-4,3.7-5.3,1.6-.6-1.1-3.5-4.5-6.4-7.2-4.2-4-6.6-5.3-12.8-6.9-4.2-1.1-8.2-1.6-8.8-1.3-2.4,1.4-1.1,5.9,2.2,7.8,4,2.4,4.2,4,.5,6.4-1.9,1.3-2.7,2.6-2.2,4,1.3,4.8-2.1,1-4.3-5.1l-2.4-6.6h-4.8c-2.6,0-5.4-.5-6.1-1-2.6-1.6-5.8.3-5.8,3.4s-1,5.1-2.1,7.7c-1.8,3.7-2.7,4.6-5,4.6s-2.7,0-1.3-2.2c1.4-1.9,1.4-2.7,0-5.6q-1.6-3.4,2.9-7.7c2.6-2.4,4.5-4.8,4.5-5.3,0-2.7-3.8-4.3-9.6-4.3s-7.4.8-12.3,3.5c-9.6,5.4-13.1,8.5-13.9,12-1,4.2-1.9,4-5.6-.6-3.7-4.8-8.3-5.3-12.6-1l-3,2.9-1.9-3c-1.8-2.7-2.4-2.9-7.4-2.4-5.4.5-10.2,3.2-12.3,6.9-.6,1.1-1.1,2.2-1.1,2.4,0,0-4.3.8-9.6,1.4-9.3,1.3-9.8,1.3-12.3-1.1-3-2.9-5-2.1-5,2.2s-.8,3.7-4.5,5.4l-4.5,2.2-2.6-2.4c-3.5-3.2-5.3-1.9-4.3,3.4.6,3.7.3,4.6-2.1,7s-5.6,3.5-6.6,1.1c-.8-2.1-3.5-2.1-4.3,0-.3,1,0,3.2.6,5.1,1,2.7.8,4.2-.6,7.2-1.9,4.2-3.4,4.6-5,1.8s-1.4-1.6-2.2-.6c-.8.8-.8,2.6.3,6.1.8,2.7,1.6,8.8,1.6,13.8v9l-8.8,4.6c-4.8,2.6-9,4.3-9.3,4.2-.3-.3,0-2.7.8-5.4,1.8-6.7.2-10.1-5.6-12.5-3-1.3-4.5-2.4-4.5-4s-.5-2.1-4.5-1.4c-5.3.8-8.5-.6-9-3.8s-2.4-3.7-4.8-1.3c-1.8,1.8-2.1,1.8-4.8,0-1.9-1.1-3-3-3.5-5.3-.3-2.4-1.3-3.8-2.7-4.2-2.2-.6-10.1-5.9-16.2-11-3.2-2.7-3.2-2.9-2.1-7.4,1.1-4,1.6-4.6,4.3-4.6s3.8-.8,4.6-1.8c1.3-1.6,1.1-2.1-1.4-4.2-2.6-2.1-2.9-2.9-2.2-6.4.6-4.2,1.8-5,4.8-3,2.1,1.3,4.5-.5,4.5-3.2s-1.6-2.9-3.7-4.2c-3-1.8-3.8-3-5-8.3-2.2-11.4-14.2-31.5-24.6-41.9s-16.2-20-16.2-22.4-.5-2.1-1.1-3.2-2.6-6.4-4.5-11.8c-3-8.6-3.5-11.8-4-24.8-.5-14.6-.5-15,2.4-21.6,2.6-5.6,2.7-7,1.6-8.5-4.6-5.6-13,4.6-16,19.8-1.6,7.7-1.6,8.8,0,11.4,3.2,5.4,3.4,10.7.6,14.4-2.7,3.7-1.9,6.9,2.1,7.4,2.9.5,5.3,8,3.7,11-1.8,3.4-1.3,6.7,1.1,8.6,2.1,1.8,2.2,2.4,1.1,9-.6,3.8-1.4,8.8-1.8,10.9-1.1,7.2-1.6,8.8-2.7,8.8s-1.4-.8-1.9-1.9-2.2-4.3-4-7.4c-1.9-3.4-3.2-6.6-2.9-8.5.3-2.4-.2-3.2-2.2-3.7-3.4-.8-5.4-6.2-4.5-11.7.5-3.4.3-4.2-1.6-5.3-2.9-1.6-3-4.8,0-8.8,2.9-4,2.4-8.2-1-8.6-2.1-.3-2.6-1-2.6-5s.6-5.1,2.2-6.6c2.6-2.2,2.7-5,.6-7.7-1.6-2.1-1.1-5.3,2.1-14.6,2.4-6.4,1.6-9.3-2.1-9.3s-3.4,1.3-5.9,5.8c-5.3,9.3-6.9,18.1-6.6,35.5.2,14.7-1.8,41.1-3.4,44.2-.5.8-.3,5.6,0,10.4.5,5,.6,10.2.3,12s0,4.2,1,5.4c.8,1.3,2.1,5.1,2.9,8.5,1.6,7.8,16.2,37.6,22.4,45.9,5.6,7.5,11.8,12.8,19.7,17,4.5,2.4,7,2.9,13.1,2.9h7.7l5.3,10.7c2.9,5.9,5.8,12.2,6.2,13.8,1,2.6,1.6,3,3.5,2.6,4-1,5.3.6,5.9,7.7.8,8.3,1.9,9.9,5.6,7.5,3.2-2.1,4.5-1,4.8,4.5.2,5.3,1.4,8.8,3.4,9.1s1.9-.6,2.4-2.1c.5-2.1,1-2.2,2.4-1,1,.8,1.8,2.7,1.8,4.5,0,4,2.6,6.2,5,4.3,1.3-1.1,2.2-1,4.3.3,2.4,1.4,4.8,5.9,3.7,6.6-1.9,1.3-25.3,7.5-32.2,8.5-13.1,1.8-20.2.6-27.7-4.8-3.5-2.4-7.5-5.4-9.1-6.9-4.6-4-13.8-9.3-19.5-11.4-4.2-1.4-7.4-3.8-12.3-9-3.7-3.8-9.3-9.8-12.3-13-3.2-3.2-7.8-6.9-10.6-8.2-2.7-1.1-5.8-3.2-6.9-4.6-2.7-3.4-9.3-6.4-12.5-5.6-1.4.3-4.5,0-6.6-1-5.3-2.2-19.2-2.2-23.5,0-3.2,1.6-10.9,12.3-10.9,15.2s3.4,6.2,5.1,6.2,1.9-1,2.2-2.2c1-3.7,2.6-1.3,2.6,3.8s.3,5.1,2.9,5.9c4.5,1.8,4.8,1.3,4.8-3.8s2.7-9.3,8.5-9.3,8.5,0,13.9-.2h9.8c0-.2,1.9,5.8,1.9,5.8,2.6,8.2,6.6,13.8,14.4,20.3,3.7,3,7.7,7,8.8,9s4,4.8,6.2,6.6,5.4,4.5,7.2,6.1c5.4,5.4,18.2,13.8,30.4,19.7,3.7,1.9,6.4,3.8,6.7,5.3.8,3.4,3.8,4,9.3,1.9,6.6-2.4,10.4-.8,6.4,2.6-4.5,3.7.5,5.9,6.1,2.7,3.5-2.1,7.7-2.1,7.7,0s-1.4,2.1-3.4,2.9c-2.9,1.1-5.4,4-5.4,5.9s16.2-3.8,20.8-7.7c1-.8,5.6-1.6,10.4-1.9,8.5-.5,19-4,25.4-8.2,4.3-2.9,9.4-3.7,13.1-2.4,3,1.1,4.2,1,8.5-1.1,2.7-1.3,6.2-2.7,7.8-3l2.9-.8-1.8,4.3c-3,7-9.6,13.8-20.8,20.8-9.6,6.1-11,6.7-15.2,6.2l-4.6-.5,2.7,2.2c3.4,2.7,2.2,4.3-4,5.1-9.6,1.3-11.4,1.8-11.4,2.6s1.4,1.3,3.2,1.6c3.4.8,6.2,3.4,4.8,4.2-.5.3-3.5.8-6.7,1.3-5.9.8-6.6,2.1-1.8,4s2.7,1.4,2.1,5.1c-.3,2.2-1.1,4.3-1.9,4.8-2.4,1.4-20.3-3.4-24.8-6.9-.6-.5-5.9-1.1-11.7-1.4-5.8-.3-11.8-1-13.4-1.6-4.3-1.6-9.3-1.3-9.9.6-1,2.4-3.4,2.1-15-2.2-11.8-4.3-15.7-4.5-9-.3,6.2,3.8,8,6.2,5.9,7.5-2.1,1.4-9.3,0-14.4-2.4-4.2-2.1-8.5-2.7-8.5-1.1s1.9,1.9,4.3,3.2c4.5,2.6,7.4,5.4,6.4,6.4s-2.6.6-5.1.8c-4.5.2-4.6,0-7.7-5.3-2.2-4-6.7-8.5-17.4-17.3-10.4-8.5-15.2-13.3-17.4-17.1-1.8-3.2-4.3-5.9-6.1-6.7s-3.7-2.6-4.3-3.8c-2.1-4.5-24.2-22.6-31-25.3-1.3-.5-5-1.3-8.2-1.6-3.4-.5-10.7-1.4-16.6-2.2l-10.6-1.4-8.6,3.2c-7.5,2.9-8.8,3.7-10.6,7.2-1.1,2.2-2.2,5.8-2.6,7.8-.5,3.5-.3,4,2.4,5.3,2.6,1.1,3.2,1.1,4.3-.5.8-1,2.4-1.9,3.7-1.9,1.9,0,2.4.6,2.4,3.8s3,8.2,6.1,8.2,1.6-1.1,1.6-3.5c0-7.5,5.9-11.7,17.8-12.3,5-.3,8.3-1,9.4-2.1,2.2-2.1,3.4-1.4,6.6,4,2.6,4.3,2.4,4.8-3,5.4-5,.6-3.5,2.6,4,5.3,9,3.4,10.2,5.4,3.2,5.4s-6.6,1.6-1.9,3.4c1.6.6,3.8,1.6,5,2.2,1.1.6,3.4,1.1,5.1,1.1,2.7,0,3.7,1,6.4,5.3,1.8,2.9,3.4,5.8,3.7,6.4s1.9,3.4,3.7,5.9c1.9,3,2.7,5,1.9,5.3-2.4.8-1.3,3,2.9,5.1,2.2,1.1,9.1,7.2,15.2,13.4,12.2,12.2,20.2,17.9,25.3,17.9s10.7,1.8,15.4,3.8c1.9.8,7.5,1.8,12.6,2.2,5.1.3,12.6,1.8,17,3,6.2,1.9,10.7,2.4,24.2,2.4s29.3-1.8,39.5-6.7c3-1.4,7.4-2.7,9.6-2.7,9,0,26.6-11.7,41.3-27.2,9.4-9.9,9.9-10.2,7-5.3-1.6,3-3.7,7.7-4.3,10.4-1,3.5-1.9,5.1-3.4,5.3-1.1.2-3.5,2.6-5.1,5.1-1.8,2.9-4.5,5.4-6.6,6.4-4.8,2.1-10.2,8.2-13.1,14.4-2.7,6.1-9.1,13.4-13,14.9-3,1.1-2.1,2.9,1.8,3.5,1.3.2,2.7.6,3,1,1,1-1.6,10.1-3.2,11-.6.5-4.6.8-8.6.8s-7.4.5-7.4,1,3.5,2.1,8,3.5c10.2,3.2,10.9,3.8,7,7.2-2.2,1.9-3.8,2.4-6.2,1.9-1.9-.3-3.5,0-4,.6-1,1.6,1,3,5.3,4,4,.8,4.5,1.9,2.7,5.4-1.4,2.9-1.8,2.9-12.5,3-9.9,0-11.7.5-18.1,3.5-3.8,1.9-8.6,5-10.7,6.9-3.8,3.7-4.8,3.8-12.3,2.4-7.4-1.4-8.6,0-3.4,3.7,6.1,4,5.8,5.4-1,4.6-5.6-.8-6.9,0-3.8,2.7,1,.8,1.6,1.8,1.6,2.1,0,1.6-5.9,3.4-11.5,3.4s-7,.3-4.2,3.5c1.8,1.9,1.8,2.4-.8,6.9-3,5.4-4.6,5.9-15,3.8-2.9-.6-10.4-1.8-16.8-2.9-10.4-1.6-12.3-1.6-19.5,0-4.5,1-8.5,1.4-8.8,1.3-.5-.3-6.2-1-12.8-1.8-6.6-.6-14.7-1.9-18.1-2.9-13.1-3.8-31-1.3-57,8.2-12.2,4.3-17.6,8.3-20.8,14.7l-2.6-1.9ZM558.5,432.9c-4,0-8,.8-10.7,2.1-4,1.9-8.6,2.1-13.4.5-1-.3-1.1-1-.3-2.4,1.8-3.2,13-5.1,22.2-4,9.9,1.3,11.5,3.7,2.4,3.7l-.2.2ZM603.7,463c-1.1,2.7-1.9,2.1-7.2-5.1-2.7-3.8-6.1-8.8-7.4-11.2s-3.2-5.6-4.2-7l-1.9-2.6,3.4,1.8c1.9,1,6.7,4.8,10.6,8.6,7.4,7,8.6,10.1,6.6,15.5h.2ZM648.5,505.2c-1.1,1.8-2.7,3.4-3.7,3.4s-2.4.8-3.2,1.6c-1.6,1.9-2.4,2.1-4,.5s-1-3.5-.6-7.2c.5-5.4.5-5.9-1.6-5.9s-2.6,1-3,2.2c-.3,1.3-1.1,2.2-1.8,2.2-1.3,0-1.3-1.9,0-2.7,1.6-1,1.3-3-.5-5.6-1.6-2.1-1.8-2.1-3.7.6l-2.1,2.7-2.2-2.7c-1.6-1.9-1.9-3.5-1.4-5.4,1.4-5.8,1-8.2-1.8-8.6-1.8-.3-2.7.3-3.2,1.9-.6,2.2-.6,2.1-2.9-.6-2.4-3-3.4-9-2.4-13.9.8-4,2.7-3.8,5.1.3,2.2,3.7,15,15.5,21.9,20.2,6.2,4.2,9.4,7.4,11.4,10.9,1.3,2.6,1.3,3.4-.3,6.2ZM754.5,512.6c0,.8-.8,1.6-1.8,1.6-1.4,0-1.6.8-1.1,4.3q.8,4.6-6.7,6.1c-3.4.6-3.5.5-4.6-4-1.9-7.4-2.1-7.7-4.2-7.2s-2.2,2.1-1.1,8.8c.5,3,.3,4.2-.8,4.2s-1.8-2.1-2.2-6.4c-1-8.8-1.6-10.2-3.7-9.9-1.4.3-1.8,1.8-1.9,8,0,9.9,0,9.4-3.4,9.1-2.7-.3-3.2-1.1-5.6-10.6-2.2-8.2-3-10.1-4.8-10.1-3.2,0-3.5,2.9-1,10.9,2.4,7.7,2.2,11.2-.5,8.8-.8-.6-1.8-4.3-2.2-8.2-.8-7-2.6-10.2-5.1-8.8-1,.5-1.1,3.2-.6,9,.6,7.4.5,8.2-1.1,7.8-1.3-.2-2.1-1.9-2.7-4.8-1.3-7.2-2.9-10.6-5.1-10.2-2.1.5-2.2,4-.8,10.1.6,2.9.5,3-1.8,2.7-2.4-.3-2.6-.8-2.2-5.6.3-5,.2-5.3-2.2-5-1.8.3-2.9,1.4-3.7,4.5-.6,2.2-1.6,4.2-1.9,4.2h-1.8c-.5,0-1.1-1.3-1.4-3-.5-3.8-4.5-4.3-5.1-.5-.6,5-7.7,2.2-9.4-3.8-.8-2.7,1.8-4.8,5.9-4.8s11.2-4.5,14.4-7.2c2.6-2.2,13.6-4,20.6-3.2,3.4.3,9.3.6,13.3.5,6.9,0,18.4,2.7,25.6,6.2,1.8.8,4,1.4,5.1,1.4,2.4,0,5.4,2.9,5.4,5l.3.2ZM605.1,367.9c-13.1.3-14.2,0-12.3-1.4,2.6-2.1,17.9-2.1,23.4-.2,3,1.1,1.6,1.3-10.9,1.6h-.2ZM660.6,399.1c-.3.5-2.9.8-5.8.8-4.3,0-5.8-.5-8-3-3.5-3.7-9.6-15.2-9.6-17.9s.8-2.1,1.8-2.1c2.1,0,22.4,20.8,21.6,22.2ZM699.2,429.4c-1.8.2-3.8.8-4.3,1.4-1.4,1.3-2.6,1.3-3.4-.2-.3-.6-.2-1.8.5-2.4.6-.6,1.3-2.1,1.3-3.2,0-2.6-4-2.7-6.7-.2-2.7,2.4-5.6.2-4.6-3.5,1-4-.5-5.3-3.5-3.4-3.5,2.2-3.7,2.2-5-1.6-.8-2.2-1.9-3.4-3.4-3.4-2.4,0-8.6-4-8.6-5.4s1.8-1.3,3.7-1.6c6.1-1.1,18.4,4.5,27,12.3,1.6,1.4,4.5,3.5,6.6,4.6,4.8,2.6,5,5.9.5,6.6v-.2ZM707.8,434.5c-.8,1.9-3.7,2.4-3.7.6s.2-1.1.5-1.1,1.3-.3,2.2-.6c1.3-.5,1.6-.2,1.1,1.1h-.2ZM699.7,337.7c0-.5,1.3-2.2,2.9-4.2q2.7-3.2,2.1-.5c-.5,1.4-1.3,3.4-1.8,4.2-1.3,1.4-3,1.8-3,.5h-.2ZM654.7,237.9c0,1.6-3.4,1.1-4-.6-.3-1-.3-2.1,0-2.4.8-.8,4,1.8,4,3ZM656.9,244.3c0,.6-.5,1.1-1.1,1.1s-1.1-.2-1.1-.5.5-.8,1.1-1.1,1.1,0,1.1.5ZM688.8,289.4c0,3.5.5,4.5,2.7,5.3,1.4.5,4.2,3.2,5.9,5.8,4.5,6.6,11.2,19.7,11.2,21.9s.5,2.2,1.1,2.7c.8.5.8,1.1,0,1.9s-1.6.5-2.9-1.3c-1-1.3-2.4-2.4-3-2.4-1.9,0-5.6,4.2-8.3,9.6-2.4,4.6-5.4,5.4-5.4,1.4s3.4-12.3,4.5-13.8c1.3-1.4,1.1-4.6,0-5.6-2.1-1.3-5.8,1.9-8,6.9-1.3,2.9-2.4,5.8-2.4,6.7s-.6,1.8-1.4,2.1c-1.8.6-1.8-4,0-16.2,1-7.5,1-9.3-.3-10.1-.8-.5-1.8-1-2.2-1-1.8,0-3.5,5.3-3.8,11.4-.2,3.5-.6,6.7-1,7-1.1,1.1-3.5-2.7-4.8-7.5-1.1-4.5-1-5.4,1.6-10.6,3-6.1,2.9-9.1-.6-9.1s-3,1.4-4.6,5c-3.8,8-5.4,6.1-4-4.8.5-3.8,1.8-8.2,2.6-9.6,3.7-5.6-2.1-8.2-6.1-2.6-1.3,1.8-2.9,3-3.4,2.7-1.1-.8-.6-3.5,2.6-13.9,1.8-5.8,2.1-7.7,1-8.6-1-1-2.1-.8-4.5,1.1-2.9,2.1-3.4,2.2-3.8.6-3-8,8.8-18.4,12.6-11,3.5,6.9,11.5,17.6,17.9,24.3,6.2,6.7,7.2,8.2,7.2,11.8l-.2-.3ZM706.5,298.7c-.3,1.6-1,2.4-1.4,1.8-.5-.5-.6-1.8-.3-2.9,1.1-2.9,2.4-2.1,1.8,1v.2ZM726.2,301.5c-.2,7.2-.3,7.4-3.2,7.7-2.1.2-2.9,1-2.6,1.9,1,3.8.6,9.8-.6,11.2-.8,1-2.7,1.6-4.5,1.4-2.7,0-3-.5-2.6-2.9h0c.3-1.4,1.4-3.5,2.7-4.5,1.6-1.3,2.2-3.2,2.2-6.6s-.2-5-2.2-5.1c-1.8-.3-2.6.3-3.2,2.4-1,3.7-3.8,3.7-3.8,0s.5-2.7,1-2.7c1.3,0,4.8-9.6,4-10.9-.3-.6-2.1-1.1-3.7-1.1-2.7,0-3-.3-2.6-3.4.3-2.4,0-3.4-1.3-3.4s-4.6,2.4-5.4,4.6c-.3,1.1-.8,1.1-1.9,0s-1.1-2.2,0-6.2c.8-2.7,1-5.4.6-6.1-1.1-1.8-3.8-1.4-3.8.5s-.5,1.6-1,1.6c-1.8,0-2.6-2.4-1.3-3.7.6-.6,1.3-2.4,1.3-3.7,0-3-3.5-5.3-5.3-3.4-1,1-1.6,1-2.4-.3-1.6-2.7-1.3-3.7,2.2-5.8,4.3-2.6,4.2-6.7-.3-7.2-3.5-.5-4-3-1-4,2.7-.8,3.8-3.7,2.2-5.6-1-1.1-.6-1.8,1.4-2.7,2.6-1.1,3.4-.6,12.3,8.6,9.9,10.2,14.4,16.8,19.5,28.2,3.2,7.2,3.5,9.3,3.2,20.5l-.2.5ZM777.6,372.6c0,.6-1,3.5-2.1,6.6-1.6,4.5-1.9,6.2-1,8.3.6,1.4,1.6,2.7,2.1,2.7,1.4,0,1.1,2.1-.8,5-1.4,2.4-2.6,2.6-8.2,2.6h-6.4v-3.5c0-2.9-.5-3.7-4.2-5.4-3.8-1.8-4.5-1.9-6.1-.3-1.8,1.6-2.1,1.4-4.3-1.6-1.9-2.6-2.2-3.7-1.3-5.4,2.2-4.3,1.4-5.9-2.7-5.3-3.5.6-3.8.3-5-3.2-.6-2.1-1.8-3.8-2.6-3.8-1.4,0-8-8.6-9.4-12.5-.5-1.4-1.6-3-2.2-3.4s-1.1-1.9-1.1-3.5-.8-4.2-1.8-5.8c-1.8-2.9-1.6-3.2,1-5.8l2.9-2.9,3.7,4.5c2.1,2.4,5,6.1,6.7,8,1.6,1.9,3,4.3,3,5.3s.6,1.8,1.4,1.8,3.8,2.2,6.9,5l5.4,5-3.2,2.6c-3.7,3-3.2,6.1.8,6.1s5.8-4.2,4.6-7.5c-.6-2.1-.5-2.2,2.4-1.6,4.3,1.1,4.8,1.4,4.8,4s.5,2.2,4.2,1.6c4.5-.8,12.3,1,12.3,2.6v.2ZM781.9,401.7c-1.4,1.8-3.2,2.1-3.2.6s.6-1.8,1.4-2.9c1.1-1.4,1.8-1.6,2.2-.6.5.6.2,2.1-.5,2.9h0ZM786.4,424.6c0,4.2-1,5.8-3.7,6.4-1.3.3-2.4,1.8-3,4-1.1,4.6-4.3,4.8-6.1.3-.6-1.8-1.8-3.4-2.4-3.4-1.4,0-2.7,5-1.9,7.2.6,1.8-1,4.8-2.7,4.8s-1.3-1.9-1.6-4.2c-1.1-6.9-1.6-8-4-8s-2.2.6-2.1,6.2c.1,5.4-.4,8-1.4,7.7-.8-.3-1.8-2.7-2.4-5.6-.8-4.5-1.3-5.1-3.4-4.8-2.2.3-2.6,1-2.7,7.8,0,2.4-.6,3-2.1,2.7-1.4-.3-1.9-1.4-2.1-5,0-5.4-1-6.7-3.5-5-1.1.8-2.1,2.9-2.2,5.8-.5,6.6-5,5.8-5.9-1-.5-3.7-4.8-4.5-5.9-1.1-.5,1.6-1.3,2.1-2.6,1.6-1-.5-3.4-1-5.4-1.3-2.4-.3-3.5-1.1-3.5-2.4,0-4.3,2.6-5.4,13.4-6.7,7-.8,14.7-2.6,21.8-5.1,6.6-2.2,12-3.7,13.4-3.2,1.4.3,4,0,5.6-.8,2.1-1,5.3-1.3,9.4-1,6.2.5,6.2.6,6.2,4l.8-.2ZM790.7,404.4c0,1.4-.8,2.2-2.2,2.2s-2.2-.2-2.2-.5.3-1.3.6-2.2c1-2.6,3.7-2.1,3.7.5h.2ZM1201.3,155.5c1.1,0,1.9.5,1.9,1,0,1.6-5.8-.3-6.4-2.1-.3-1.3-.2-1.3,1-.2.8.8,2.4,1.4,3.4,1.4l.2-.2ZM1201.7,166c1-1,3.7,1.6,3,2.7-1,1.4-2.4,1.1-3-.6-.3-.8-.3-1.8,0-2.2v.2ZM1206.5,124.7c0,1.1-.5,2.2-1.1,2.2s-1.1-1-1.1-2.2.5-2.2,1.1-2.2,1.1,1,1.1,2.2ZM1206.5,136.3c0,2.1-3.4,1.8-4.2-.3-.3-.8.5-1.3,1.9-1.3s2.2.6,2.2,1.8v-.2ZM1206.4,148.4c-1.4,1.4-4.8.6-6.6-1.4-1.9-2.2,0-3.5,4.3-2.9,3.7.6,4.5,2.2,2.4,4.3h-.2ZM1213.1,176.9c0,2.9-1.4,4.5-2.1,2.1-.2-1,.2-2.4.8-3,.8-.8,1.1-.6,1.1,1h.2ZM1223.5,180.6c-1,0-1.8-.5-1.8-1.1s.5-1.1,1-1.1,1.3.5,1.8,1.1c.3.6,0,1.1-1,1.1ZM1230.2,168.6c.3,0,.5.5.5,1,0,.8-1.6,1.6-4.6,2.1-.3,0-.5-.8,0-2.1.3-1.4,1.1-2.1,2.2-1.6.8.3,1.8.6,2.1.6h-.2ZM1232.8,148.4c0,1-.5,1.4-1.1,1-.6-.3-1.1-1.1-1.1-1.8s.5-1,1.1-1,1.1.8,1.1,1.8ZM1235.5,160.9c-.8,1.3-5.9-1.1-5.9-3s5.1-1.8,5.9.3c.3,1,.3,2.2,0,2.7h0ZM1187.7,284.1c-.8-.8-2.2-1.4-3.5-1.4s-1.9-.6-1.8-2.4c.3-1.9,1.1-2.6,3.7-2.6,4.3,0,5.1-3.4,1.1-5-1.6-.6-2.9-1.4-2.9-1.8s1.3-3.5,2.9-6.7c1.6-3.4,3.5-9.8,4.3-14.4,3.5-20.6,7-32.5,10.2-34.6.5-.3,2.4,0,4,.5,2.1.8,3.4.8,4.5,0,2.1-1.8.2-5-3.4-5.8-3-.8-3.4-1.4-1.8-4,.8-1.3,1.6-1.4,4.3-.3,2.6,1,3.7,1,5.3-.3,1.9-1.4,1.9-1.6-.5-3.7-1.3-1.1-3-2.4-3.8-2.6-1-.3-.8-1,.5-2.4,1.4-1.6,2.2-1.6,4.2-.6,2.7,1.4,6.2.6,7-1.4.8-1.9-.5-3.7-3.4-4.8-1.8-.6-2.1-1.3-1.4-2.6.8-1.3,1.6-1.4,4.5-.3,3,1.1,4,1.1,6.2-.3,1.6-1,3.4-1.4,4.5-.8,1,.5,2.9.8,4,1,1.6,0,2.4,1.1,3.2,4.8,1.1,5.3.5,6.7-2.1,4.6-1.4-1.1-2.1-1.1-3.4.2-1.4,1.4-1.4,1.9.5,4.3,1.1,1.4,3,4.6,4.2,7s2.2,4.8,2.4,5.3c.3.5-1-.2-2.9-1.4-4-3-6.2-2.2-4.5,1.6.6,1.4,1.6,2.7,2.1,2.7,1,0,4.6,6.6,4,7.2-.3.2-1.3-.5-2.4-1.8-1.9-2.1-5-2.9-6.2-1.6s4.6,9.3,8.3,13.3c1.4,1.6,1.9,3,1.4,4.3-.6,1.8-1.3,1.4-4.3-2.2-2.6-3-4.2-4-5.4-3.5-1.8.6-1.8,1,0,3.2,1,1.3,2.9,4.6,4,7.4,1.3,2.7,2.9,5.6,3.7,6.6,1.6,1.9,1.8,5.8,0,6.2-.6.2-2.2-1.3-3.5-3.5-4.3-6.6-7.7-4.2-4.2,2.7,1.4,2.9,1.4,3.2-.5,3.8-1.1.3-2.2,1.3-2.2,2.1,0,2.1,3.4,9.8,4.6,10.6s0,5.3-1.3,5.3-1.3-.5-1.6-1.1c-.3-.6-1.6-1.1-2.9-1.1-2.4,0-2.9,4.2-1,7.8,1.8,3.2.3,7.5-2.4,7.5s-2.4,1-2.9,3.4c-1,4.6-3.2,5.1-6.9,1.8-3.5-3.4-5.1-3.7-6.7-.8s-1.9,1.9-3.4,1.6c-1.8-.5-2.2,0-2.4,2.1v3.4c0,.5-.3.8-1,.8s-1.4-2.1-1.8-4.5-1.4-5.1-2.2-6.1c-1.3-1.4-1.3-2.1.6-4.8,4.3-6.1-1.4-9.6-6.1-3.7-1.9,2.4-2.7,2.7-3.8,1.6v.3ZM1184.5,303.5c0-.6.5-1.1,1.1-1.1s1.1.5,1.1,1.1-.5,1.1-1.1,1.1-1.1-.5-1.1-1.1ZM1182.9,289.2q3.8-1.4,3.8,1c0,3.7-3,4.8-5.4,1.9-1.1-1.3-.8-1.8,1.6-2.7v-.2ZM1179,260.7c-3.5-1.9-5,0-2.9,4.2,1.3,2.4,1.4,4.2.6,7-.5,2.1-1.3,6.2-1.6,9.1-1,9-1.1,9.8-2.2,10.6-1.8,1.3-3.7-.2-3.2-2.4.3-1.3-.3-2.6-1.8-3.5-3-1.9-2.9-2.7,1-4.8,6.4-3.4,2.9-7.5-4-5-4.3,1.6-6.1.8-3.2-1.4,3-2.2,1.8-5.6-2.1-6.1-1.8-.2-4-1-4.8-1.6-1.1-1-.8-1.4,1.4-2.7,3-1.6,3.5-3,1.8-4.2-.6-.3-1.1-1.6-1.1-2.9s-1.4-4.3-3.4-7c-2.1-3-2.9-5.1-2.1-5.4,1.4-.8,4.3,1.4,4.3,3.4s4.3,3.2,5.6,1.8-1.3-7.8-4.5-10.6c-1.3-1.1-2.4-2.7-2.4-3.5,0-2.9,2.1-2.6,5.9,1.3,2.2,2.1,4.5,3.8,5.1,3.8,2.6,0,1.9-3.4-1.8-8.8-4.2-6.4-4.8-9.1-2.2-10.2,1-.3,3.2,1.3,5.9,4.5,4.2,5,6.7,5.6,6.7,1.6s-1.8-4.5-4-7.7c-4.3-6.6-3.8-9.4,1-5.6,5.3,4.2,7.2-.6,2.7-6.7-2.9-3.8-1.8-7,2.6-7.2,1.4,0,3.2-.2,4-.3,1.6-.2,1.8-4.3.3-6.7-1.6-2.6.5-5.3,3.7-4.8,3.7.6,4.5-1.3,2.9-6.6-1.4-4.3-1.4-4.5,1.8-7,2.1-1.8,4-2.4,5.4-1.9,1.1.3,3.5.8,5.1.8s3.2.3,3.5.6c.3.3-.3,5.4-1.4,11.5-1.4,7.8-3.7,14.9-8,24.8-3.4,7.7-6.4,16.3-6.9,19.2s-1.4,6.4-2.4,7.8c-1.1,1.8-1.4,4-.8,7.4.6,3.8.3,4.8-.8,4.8s-2.1-.5-2.7-1.3c-.6-.6-1.8-1-2.4-.5-.8.5-.2,2.6,1.8,6.1,3.2,5.8,3,7.5-.8,5.4l.3.8ZM1118.7,400.9c0-1.6,1.1-4,2.7-5.4,4.3-4,5.9-8,5.9-14.6s.5-6.4,1.1-6.7c.6-.3,1.1.3,1.1,1.4,0,2.6,2.7,5,4.8,4.3,1.4-.6,3-5.4,3-10.4s.5-2.4,1-2.4,1.1,1.1,1.3,2.4c.3,1.8,1.1,2.4,3,2.4s2.7-.5,3.4-6.1c.3-4.5,1-6.1,2.2-6.4,2.1-.3,3.5,4,2.6,6.9-.5,1.1,0,2.1,1.3,2.4,2.6,1,5-2.4,4.3-6.4-.3-1.8-.6-4.5-1-6.2-.3-2.2.5-4.8,3.4-9.1,4.8-7.5,9.8-17.9,10.9-22.9,1-4.6,5.9-15.4,7.2-15.4s1.8,1.6.8,10.4c-.6,6.1-.6,9.6.3,11.7,1,2.6.8,3.5-1.1,6.7-1.6,2.6-2.2,5.6-2.2,9.3s-.6,5.9-1.6,6.9c-1,.8-1.6,2.2-1.6,3.5s-1.1,2.6-2.7,3.2c-2.4,1-2.7,1.6-2.6,5,0,2.1-.3,4.5-1,5.1-.6.6-1,2.7-.6,4.5.5,2.1,0,3.8-1.3,5.3q-1.9,2.1-4-.3c-1.9-2.2-2.1-2.4-3.8-.5-1.6,1.6-1.8,2.6-.8,5.8.6,2.2.8,3.8.2,3.8s-1-.6-1-1.6-.5-1.9-1.1-2.4c-2.1-1.3-3.5,1.4-3.5,6.6s-.5,5.1-1.4,5.4c-1.8.6-1.9.5-3.7-5.1-.8-2.2-1.9-4.2-2.7-4.2-2.9,0-3.7,2.6-2.7,8.8,1,5.9-.3,10.2-1.6,5.3-1-3.7-8.6-10.9-10.4-9.8-1.1.6-1,1.9.8,5.8,1.3,2.7,2.2,6.1,2.2,7.5q0,2.7-2.4-.8c-1.3-1.9-3.2-3.5-4.2-3.5s-2.2.6-3,1.3c-1,1-1.3.6-1.3-1.6l-.2.2ZM1299.2,369.7c1,.3,2.1.6,2.4.6s.5.8.5,1.6c0,2.4-1.9,2.1-3.4-.6-1.1-2.1-1-2.2.6-1.6h-.2ZM1264.6,378c0-2.7,5-7.8,9.6-9.9,6.6-2.7,14.1-2.9,15.5,0,1.6,2.9.5,3.5-6.4,3.5s-7,.6-11.7,3.8c-5.9,4.2-7,4.5-7,2.7v-.2ZM1211.2,435.1c-2.6,0-5-.5-5.3-1-.3-.6,1.3-2.4,3.5-4.2,2.2-1.8,5.3-4.3,6.9-5.9,1.4-1.6,6.4-4.8,10.7-7,5.6-2.9,7.8-4.6,7.4-5.8-.3-.8,0-2.6.6-3.8,2.4-4.5,12-16,15.7-18.9l3.8-2.9-1,2.7c-.6,1.4-4.2,7.4-8.2,13.1-3.8,5.8-6.9,10.7-6.6,11,.3.3-1,1.4-2.9,2.6-1.9,1.1-3.8,3.2-4.3,4.8-.5,1.6-2.7,4.3-5,6.1-2.2,1.8-5.6,4.6-7.5,6.2-2.6,2.2-4.8,3-8.2,3l.2-.2ZM1198.9,440.7c1.3-1.4,3-2.2,4-1.9,1,.3,2.4.6,3.2.6,1.9,0,2.1,3.5.3,5.3-1.8,1.8-5.4,1.6-7.8,0-1.8-1.3-1.8-1.6.5-4h-.2ZM1124.6,438.3c4.8,0,11.7,2.1,11.7,3.5s-1,1-2.2.6-2.4,0-2.9.5c-.3.5.6,1,2.1,1s3-.5,3.4-1c.3-.5,3.2-1.3,6.4-1.6s8.2-1.1,10.9-1.6c5.4-1,5.6-1,18.4,5.9,2.1,1.1,5.4,1.9,7.4,1.8,2.7-.2,4.3.6,6.9,3.4,4,4.3,4.2,5.9,1,6.7-5.6,1.4-10.2.8-13-2.1-4.2-4.3-6.1-3.7-5.6,2.2.2,2.1,0,2.1-1.4,0-1-1.1-1.6-2.6-1.6-3,0-2.2-4.2-.6-4.8,1.9-.5,1.9-1.4,2.7-3.4,2.7s-2.9-.5-4.3-6.9c-.5-2.4-1.3-3-3.2-2.7-1.9.3-2.6,1.1-2.7,4-.3,4-2.9,4.3-3,.5-.3-5-3.5-6.2-6.2-2.4-1.6,2.2-1.8,2.2-5,.5-2.1-1.1-3.4-2.6-3.4-4,0-2.7-2.4-3.8-5.4-2.2-1.8,1-3,.8-5.3-.2-6.4-3-3-7.5,5.6-7.4l-.2-.2ZM1320.6,432.7c.8-.5,4-1,7-.8h5.4l-6.1,1.4c-6.1,1.4-9.1,1.1-6.4-.6ZM1235,517.2c0-.6,1.9-3.4,4.3-6.2,2.4-2.9,5.6-7.4,7.2-10.1,2.9-5.1,8.5-10.2,14.4-13.4,5.1-2.6,16.5-6.2,19.7-6.2s7-4.8,5-7.2c-.8-1-2.1-1.6-2.9-1.6-2.2,0-1.9-1.4,1.4-5.8,1.6-2.1,5-6.7,7.4-10.2,6.7-9.6,9.8-12.8,14.7-15.7,3.8-2.2,4.6-2.2,5.1-.8.3,1-.8,4-2.4,6.9-1.8,2.9-4,7-5,9.1-1,2.2-2.4,4.3-2.9,4.6-.6.3-1.4,2.2-1.8,4-.5,2.2-1.9,3.8-4.5,5.1-2.4,1.1-4,2.9-4.5,4.6-.3,1.6-3.2,5.9-6.2,9.8-4.5,5.6-6.2,7-9.9,7.7-3.8.8-4.5,1.3-4.2,3.4.3,2.2,0,2.4-2.9,1.8-4-.8-6.7,1.8-4.5,4.3,1.9,2.2.6,3.2-2.2,1.6-1.8-1-2.7-1-4,0-1.4,1.1-1.3,1.6.3,3.4,2.6,2.9.5,5.1-3.4,3.4-2.1-1-3.2-.8-4.6.3-1.9,1.4-1.9,1.6.5,3.8,2.9,2.6,2.6,6.1-.6,5-1.1-.3-2.6-.2-3.4.3-1.8,1.1-10.1-.8-10.1-2.2l-.2.5ZM1207.3,508.7c-1.6-.6-1.4-1.3,1.3-4.5l3-3.7,1.9,2.9c3.2,4.8-.2,7.7-6.2,5.3ZM1136.8,522.3c.8-4.2,3.7-5.8,6.9-3.7,1.8,1.1,3.7.6,11.4-2.6,5.1-2.1,11-4.5,13.3-5.1,5.4-1.8,16.5-.5,28.3,2.9,14.9,4.5,20.6,5.8,24.5,5.8s4.2.8,5.9,3.2c1.3,1.8,2.4,4.2,2.4,5.3,0,1.8-1,2.2-6.9,2.7-5,.5-7.2.2-8-1-1.8-2.2-5-1.9-5.6.6-.6,2.2-3.2,3.8-4.8,2.7-.5-.3-1-1.9-1-3.4,0-3-2.7-4.6-4.6-2.9-.6.6-1.3,2.9-1.3,4.8,0,2.9-.6,3.7-2.4,4-1.8.2-2.6-.5-3-2.6-.3-1.6-.5-3.4,0-4,1.1-1.8-.5-6.6-2.2-6.6-2.6,0-3.7,3.5-3,8.6.5,4.2.3,4.6-1.8,4.6s-2.4-.6-2.4-6.6-.5-6.7-1.8-7.2c-2.9-1.1-4.2,1.4-3.8,8.5.2,5.9,0,6.7-1.8,6.2-1.1-.2-1.8-1.1-1.6-2.1,1-4,.5-14.2-.6-15.5-2.4-2.4-4,.8-4.2,7.8,0,6.4-1.4,9.8-3.8,8.3-.6-.5-1.1-3.7-1.1-7.4q0-6.6-3-6.2c-2.9.3-3,.5-2.7,6.2.3,5.1,0,5.8-1.4,5.3-1-.3-2.2-.6-2.9-.6s-2.1-2.2-3.2-5c-1.1-2.7-2.4-5-2.7-5-1.9,0-5,2.6-5,4.3s-.6,1.9-2.7,1.4c-3.5-.6-4.2-1.8-3.4-6.2h.2ZM1344.6,673.9c0-1.8,24.6-2.2,28.6-.6s3.5,3.5-1.4,4.5c-5.1,1-20.6,0-24.3-1.4-1.6-.6-3-1.8-3-2.4h.2ZM1297.6,668.4c.3-.3,5.9-.6,12.6-.6,11.4-.2,24.5,1.6,26.4,3.5,1.8,1.8-2.1,2.7-6.6,1.6-2.6-.6-10.4-1-17.6-.6-11.4.3-13.3,0-14.2-1.4-.6-1-1-2.1-.6-2.4h0ZM1231.7,663.6c1.9-2.4,2.4-2.4,10.7-1.4,4.8.6,13.1,1.3,18.4,1.6,13.3.8,26.4,3.7,28.6,6.2,1.8,1.9,1.8,2.1-.5,2.1s-2.4.8-2.7,2.4c-.5,3.2-5.3,3.8-8.8,1.4-3.4-2.2-5.3-2.1-5.3.3s-1.9,3.4-5.1,3.4-3-1.4-4.8-3.4c-1.8-1.9-3.7-3-4.3-2.7-1.4,1-1.4,4.6,0,5.4.6.3.8,1.1.5,1.8-1.3,2.1-3.4.8-6.2-4-2.2-3.5-3.5-4.6-4.8-4.2-1.3.5-1.6,1.4-1.1,3.8.5,2.6.3,3.2-1.4,3.2s-4.5-3-4.5-6.9-.6-3-1.6-3.4c-2.4-1-5.3,2.4-4.5,5.4,1,3.7-2.4,3.5-3.8-.2-1.6-4.3-1.3-8.5,1.1-11.2l.2.2ZM1260.1,836.3c3.5,5.3,8.6,15.7,8.8,17.6,0,1.1-.8,1.3-3.4.8-1.9-.3-4.6-.6-6.1-.6-2.4,0-2.6-.5-2.6-6.1s-.8-7.8-1.6-9.9c-2.9-6.9.6-8.2,5-1.8h-.2ZM1213.1,800.9c0-.3,2.9-.3,6.4,0,4.8.5,7.2.3,9.8-1l3.4-1.8,5,5.9c2.7,3.2,5,6.2,5,6.7s1.4,2.6,3.2,4.8,3.5,5.9,3.8,8.2c.6,3.5.5,4.2-1.3,4.2s-3.4-1.3-5.1-2.9c-2.4-2.1-2.9-3-1.9-4,1.4-1.4,1.6-5.1.2-5.1s-2.2.6-3.8,1.3c-3,1.4-6.1,0-6.1-3s-1.3-2.7-2.7-4.3c-2.1-2.2-3.4-2.7-5.8-2.2-2.6.5-3.8,0-6.7-2.7-1.9-1.9-3.5-3.7-3.5-4h.3ZM1174.7,763.5c2.7-4.5,3.7-4.3,14.7,2.2,4.2,2.6,9.9,5.8,12.6,7.2,2.7,1.4,5.8,3.4,6.7,4.2s2.2,1.4,2.7,1.4c3.4,0,14.7,11.4,14.7,14.7s-2.2.8-9.6,0c-4.6-.6-5.8-1.1-6.1-3-.3-2.6-2.6-2.9-9.4-1.1-3.5.8-3.7.8-2.4-1.6,1.9-3.5,0-5.3-3.8-3.5-4.2,1.9-5.6,1.6-3.5-.6,2.6-2.9,2.2-4.5-1-5.6-1.4-.6-2.7-1.6-2.7-2.2,0-1.8-3.5-1.3-5.8.8-1.9,1.8-2.2,1.8-3.5,0-.8-1.1-1.1-3.2-.8-4.6.5-2.7-.3-3.2-3.8-2.9-1.9.3-1.8-.8,1-5v-.3ZM796.3,780.1c0-.3.5-.8,1.1-1.1s1.1,0,1.1.5-.5,1.1-1.1,1.1-1.1-.2-1.1-.5ZM786.4,801.5c0-.6.5-1.1,1.1-1.1s1.1.5,1.1,1.1-.5,1.1-1.1,1.1-1.1-.5-1.1-1.1ZM779.8,805.9c0-.6.5-1.1,1.1-1.1s1.1.5,1.1,1.1-.5,1.1-1.1,1.1-1.1-.5-1.1-1.1ZM750.7,863.3c-1.9.3-5,0-6.6-.6-4.2-1.9-5.9,0-3.5,4,1.4,2.2,1.6,2.7.3,2.7s-1.9-1.3-2.2-2.7c-.5-1.8-1.8-3-3.5-3.5l-2.9-.8,4.2-3.5c3.7-3.2,4-3.8,2.7-5.3-1.1-1.3-2.6-1.6-5.3-1.1-3,.6-3.7.3-3.4-.8.3-1,2.4-1.6,5.8-1.9,3.5-.2,5.4-1,5.8-2.1.8-2.2-2.4-4.6-6.2-4.6s-3.2-.3-3.7-.6c-1.3-1.3,1.4-4.8,3.7-4.8,3.4,0,7.5-2.4,8.3-4.5,1-3.2-.5-4.5-4.2-3.7l-3.4.8,1.9-3.2c5.3-8.5,11.5-12.5,15.8-10.2,2.6,1.4,5.4,0,5.4-2.9s2.7-1.9,4.3,0c.8,1,2.4,1.6,3.5,1.6,1.8,0,2.1-.5,1.4-3.4-1-4.5,1.9-5.6,5.6-2.1,3,2.9,3.5,5.4,1,5.4s-1.6.8-1,4c.6,3,.3,4.5-1.1,6.1-1.8,1.9-1.8,2.4,0,5.9l1.8,3.8-3.5,2.7-3.5,2.7,2.4,3.4c3.2,4.3,4.6,8.5,3.8,10.4-1,2.6-2.4,1.9-4.2-1.6-1.4-2.9-6.4-5.6-7.8-4.2s.5,3.4,1.9,6.7c1.3,3.4,2.1,6.6,1.6,6.9-.5.5-2.4-.8-4.3-2.7s-4.5-3.5-5.4-3.5c-2.2,0-2.2.2-.3,5,1.4,3.5.6,5.4-1.1,2.6-.5-.6-2.2-1-4.3-.5l.2.2ZM774.4,926.5c0,1.9-.3,2.1-2.1,1.1-1.1-.6-2.4-1.6-2.9-2.2-.3-.6,0-1.9.6-2.9,1.1-1.4,1.1-1.9-.6-3.2-1.1-.8-1.8-2.2-1.4-3.2.3-1-.5-3-1.9-4.6-1.4-1.8-2.9-4.5-3.2-6.2l-.6-3.2,1.9,2.6c1.9,2.6,4.2,6.9,6.7,12.8.8,1.8,1.8,4.2,2.4,5.1.5,1.1,1,2.9,1,4.2l.2-.2ZM775.3,931.9c0,.5-1.1,1.3-2.7,1.6-1.4.3-4.5,2.9-6.9,5.6-4.2,4.8-6.2,5.9-7.5,3.8-.3-.6,0-2.1.5-3.2,1.6-2.9-1.3-5.4-3.8-3.4-1.3,1-2.1,1.1-2.9.2-1.3-1.3-.8-2.7,1.6-5.9,2.1-2.9-.5-5.1-3.5-3.4-2.4,1.6-2.9.3-1-3.2,1.4-2.6-.3-6.6-2.9-6.6s-1.6-.8-1-4.8c.5-3,.3-5.1-.5-5.6-.6-.3-1.1-1.9-1.1-3.5s-.8-3.7-1.6-4.6c-2.6-2.7-1-8.6,2.6-9.9,2.9-1.1,7,1.1,13.8,7.4,3.5,3.4,3.2,4.8-.5,2.2-1.8-1.3-2.9-1.4-3.8-.5-1.9,1.6-1.8,2.9.6,5.9,1.1,1.4,1.9,3.5,1.6,4.8s.3,2.6,1.8,3.4c1.4.8,2.2,2.2,2.2,4.2s.8,3.8,1.9,5.1c1.4,1.6,1.6,2.2.5,2.7-2.7,1-1.3,3.5,3.2,6.4,3.8,2.4,5,2.7,7.2,1.6,1.4-.6,2.6-.8,2.6-.2l-.3-.2ZM777.9,950.7c-.5,2.2,8.5,15.7,14.9,22.2,4.2,4.3,4.8,5.4,3.5,6.2-1,.6-1.9,1-2.4,1.1-.5,0-1.1,1-1.4,2.2-.8,2.7-2.9,2.7-5.4,0h0c-1.4-1.4-1.8-3.2-1.3-5.4.8-3.8-1.8-6.9-3.8-4.6-3.4,3.4-6.4-.6-3.5-4.5,1-1.3,1.6-3,1.6-3.7,0-1.8-3.5-1.8-5.3,0s-2.9,0-1.3-3.5c1.1-2.9,1.1-3.5,0-4.5-.8-.5-2.1-.8-2.9-.5-2.1.8-4-2.4-3.2-5.4.8-3.4,6.1-9.1,8.3-9.4,4-.5,5.4.5,10.9,7.7,6.9,9,7,12.3.3,5-4.6-5.1-8-6.1-8.6-2.7l-.3-.2ZM805.1,975c0,.5-1,.3-2.2-.3-1.3-.6-2.2-1.8-2.2-2.6s-1.3-2.6-2.7-4-2.7-3-2.7-3.7c0-1.3,9.8,9.3,9.8,10.6h.2ZM816,989.1c0,2.2-2.4,5.1-5,5.6-3.8,1-4,.8-3.4-1.9,1-4-2.2-5-5-1.6-1.9,2.4-2.1,2.4-4.8.6-3.2-2.1-3.4-2.9-1.1-7.2,1.4-2.9,2.1-3,6.1-2.6,2.9.3,4.5.2,4.5-.6s.6-1.3,1.6-1.3c1.9,0,7.2,6.6,7.2,8.8l-.2.2ZM666.5,747.1c-7.5,3.2-12.8,11.8-16.8,27.7-.5,2.1-7,4.5-7,2.6,0-3.5,8-22.9,10.6-25.6,4-4.2,12.3-9.6,14.9-9.6s2.2,3.4-1.6,5h0ZM696.8,738c-5,1-14.4.8-15.2-.3-.5-.6-.5-1.4-.2-1.8,1.4-1.4,12.2-4.6,13.8-4,3.7,1.3,4.8,5.3,1.6,5.9v.2ZM765.6,722.2c0,.3-1.9.2-4.3,0-2.7-.5-4.3-.3-4.3.5,0,1.8-2.9,1.3-4.5-.6-.8-1-2.4-1.6-3.7-1.4-1.8.3-2.2,1-1.9,3.4.2,2.1-.2,3-1.3,3s-1.8-.6-1.8-1.4-.8-2.1-1.6-2.9c-2.4-1.9-5.3.6-4.5,4s-.2,3.2-4-.5c-2.9-2.7-3.2-2.9-4.8-1.3s-1.4,2.1-.3,4c2.1,3.4.5,4-3.4,1.1-2.7-1.9-3.7-2.2-4.6-1.1-1.1,1.1-1.1,1.8,0,3.5,2.9,4.6.6,6.2-2.4,1.6-2.1-3.4-4.5-3.5-6.4-.5-1.6,2.6-3.4,2.7-5.1.6-1-1.3-1-2.1.2-3.8,1.8-2.6,10.2-8.5,20.5-14.1,6.9-3.8,8-4.2,18.9-4.5,7.5-.3,12.5,0,13.9.8,1.9,1,5.6,7.4,5.6,9.6h-.2ZM818.9,447.8c2.6-6.2,5.8-9.4,8.2-8.2,1.1.6,4.6,1.3,8.2,1.8,4.6.5,6.6,1.3,7.4,2.9,1,1.8.8,2.6-1,4-1.1,1-2.6,2.7-2.9,3.8-.5,1.4-1.3,1.8-2.6,1.3-6.4-2.7-8.8-1.3-5,3,1.8,1.9,1.8,2.2,0,3.8-1.8,1.8-2.1,1.8-5,0-4.6-2.7-5.9-2.4-5.3,1.4.6,3.5-.2,4-3.8,2.1-1.8-1-2.6-.8-3.8.5-1.4,1.4-1.1,1.9,2.4,4.6,5.1,3.8,5,5.1-.3,4.3-4.6-.8-6.6.6-4,2.9,2.1,1.8,2.1,4.3,0,4.3s-2.1-.8-2.9-1.6c-.8-1-2.6-1.6-4-1.6-3.5,0-3.4,2.9.3,6.7,3.7,4,1.3,4-3.8.2-5.3-4-7.2-1.9-3.2,3.4,3.2,4.2,3.7,6.7,1.6,7.8-.8.5-2.6-.8-4.5-3.2-1.8-2.2-3.8-4-4.8-4-2.2,0-1.9,4.2.8,8.5,1.8,2.7,2.1,4.2,1.1,5-1,1-1.9.5-4-1.4-3.8-3.5-5.9-1.6-3.8,3.4,1.3,3,1.1,3.7-.3,5.3-1.4,1.4-2.1,1.4-3.2.5-2.1-2.1-4.2-1.6-4.2,1.1s-2.9,6.4-4.3,6.4-1.4-2.9-2.6-6.6c-2.7-9.4-2.6-12.5,1.4-16.2,1.8-1.8,3.4-3.8,3.4-4.8,0-1.9,10.6-12.3,11.8-11.7.5.2,2.1,1.1,3.8,1.9,2.4,1.3,3.4,1.3,4.6,0,2.1-1.8,2.1-2.7,0-5-1.1-1.1-1.4-2.1-.8-2.6,11.4-7.8,14.9-10.6,18.7-14.6,2.6-2.6,5.4-6.7,6.4-9.1l-.2-.5ZM868.8,474.3c1.1,2.9.3,5-1.3,4-.6-.3-2.6-3.2-4.3-6.4-5-8.5-3.8-12.8,2.6-11,1.6.5,3,0,4.5-1.6,2.4-2.7,5-2.9,5-.5s1,3.7,2.2,5.9c2.4,4.6,2.9,8.3,1.1,7.2-.6-.3-1.1-1.6-1.1-2.7s-.8-2.7-1.8-3.4c-1.4-1.1-2.2-.8-4.8,2.4-2.6,3-2.9,4.3-2.1,6.2v-.2ZM869.1,381.5c2.1-1.8,8.6-3.5,13.3-3.8q3.2,0,3.5,6.2c.2,5.6,0,6.2-1.3,4.3-2.2-2.9-5.6-.6-5.1,3.5.5,3.8-.6,6.7-1.9,5.4-.5-.5-1.1-3-1.3-5.4-.3-3.8-.6-4.3-3-4.3s-2.9.6-3,2.6c-.5,3-3,3.2-4,.5-.8-2.6.8-6.9,3-8.8l-.2-.2ZM873.9,403c6.1,2.7,5.1,3.5-4.2,3.5h-8.8l1.8-3.4c1.9-3.7,3.8-3.7,11.2-.3v.2ZM882.2,421.1c-.3,1.9-1.8,6.1-3.2,9.1l-2.4,5.4-1.8-4.2c-2.6-5.9-7-5.1-6.2,1.1.5,3.4-1.8,3.2-3.4-.3-.8-1.9-1.9-2.7-3.5-2.6-1.9.3-2.2,1-2.1,4.5.2,4,0,4-2.9,3.5-2.6-.5-3.4-.2-3.8,1.8-.5,1.3-.5,2.9,0,3.4,1.4,2.2-1.1,1-2.7-1.4-2.9-4.3-4.5-7.7-4.5-9.1,0-2.6,11.4-13.9,15.8-16,5.3-2.4,12.5-2.6,17.6-.5,3.5,1.4,3.7,1.9,3,5.3h0ZM853.9,456.9c-1,1.1-1.8,3.5-1.8,5.4,0,2.9-.5,3.5-2.6,3.5s-5.8,1.4-9.6,3.2c-8.2,3.8-7.5,3.5-7.5,2.4,0-1.8,11-11.7,13.1-11.7s6.1-3.5,11-8c8.6-7.7,11.4-9,15.8-7.4,2.1.8,2.4,4.8.3,5.3-9.4,2.6-17.4,5.6-18.9,7.2h0ZM836.3,433.1c-.8,1.3-3.5,1.3-4.3,0-.8-1.1,2.4-2.6,3.8-1.8.5.3.8,1.1.3,1.6l.2.2ZM796.3,390.8c0,.8-.5,1.6-1.1,1.6s-1.1-1-1.1-2.2.5-1.9,1.1-1.6,1.1,1.4,1.1,2.2ZM804,406c0,2.1-2.9,6.1-4.5,6.1s-1.4-.8-2.2-1.6c-1.6-2.1-.6-8.8,1.6-9.8,1.9-.8,5,2.6,5,5.3h.2ZM804,391.3c-2.4-4.3-2.7-8.8-.6-9.4,1.3-.5,3.7,4.6,4.6,9.9.8,5.1-.8,5-4-.5h0ZM811.2,413.1c1.4-2.9,3.7-3.7,7.8-3.2.8,0,3-1.6,5.3-3.7,2.1-2.1,4.8-3.8,5.8-3.8s4.8-1.6,8.5-3.5c5.9-3.2,17.3-5.9,19.4-4.6,1.4,1-5.1,13.6-7,13.6s-.6-1-.2-2.2c1-3.4-2.4-4.2-5.3-1.3-2.2,2.2-2.2,2.4-.5,6.1,1.6,3.5,1.6,3.8,0,5.4-2.7,2.6-3.2,2.2-4-2.4-1.1-6.2-1.4-6.9-3.4-6.1-3.4,1.3-4,5.8-1.8,10.4,1.8,3.5,1.8,4.3.5,4.8-2.9,1.1-3.5.6-3.5-2.7s-.5-3.4-2.2-3.4-4.5,4-4.6,8.5c0,4.2-1.8,2.7-2.6-1.9-.6-3.7-1.1-4.3-3-4.2-1.9.3-2.4,1.1-2.7,5.6-.5,6.2-3.2,7.4-3.7,1.6-.3-3-.8-3.5-3-3.5s-2.7.5-2.9,3.4c0,1.8-.2,3.8-.3,4.6,0,.8-1.1,1.4-2.2,1.4s-2.2.5-2.2,1.1-.2,1.1-.3,1.1-.3-3.4,0-7.4c.3-6.9.5-7.4,3.7-9s4.2-3,5-4.8h-.3ZM861.9,341.1c-.5,1-1,4.3-1,7.4,0,6.4-1.4,8-3.5,3.7-.8-1.8-2.4-3-3.7-3s-2.2,1-2.7,4.3c-.5,3.8-1,4.3-3.4,4.3s-2.7.3-2.7,6.4-.3,6.6-2.2,7.2c-1.1.5-3,.3-4.2-.2-2.6-1.3-4.2-.3-4.2,3s-1.4,6.4-7.2,13c-2.6,3-5.1,6.6-5.9,8-1.4,2.7-4.5,3.4-4.5,1s-.3-3-.6-5c-.6-3-.5-3.4,2.1-3.4s4-1.8,4.2-5.9c0-1.3.8-3.4,1.6-4.5,3.5-4.6.3-18.1-4.2-18.1s-2.1.5-1.3,5.8c.6,5.1.6,5.6-1,4.3-3.8-3.2-4.8,1.3-2.2,10.6,1,3.7-1.3,3-3.4-1.1-2.1-4-2.4-18.1-.6-19.8.6-.6,1.1-2.1,1.1-3.4,0-6.1,10.4-21.4,14.6-21.4s3.2-1.3,4.5-2.9c2.7-3.5,8.3-6.1,11.5-5.1s3.5-.3,5.8-2.2c2.9-2.4,4.3-2.9,9-2.6,5.4.3,5.6.5,6.4,4.2.8,3.7-.5,11.7-2.6,15.7l.3-.2ZM852.1,359.5c.6,0,1.1.8,1.1,1.8s-.5,1.4-1.1,1c-.6-.3-1.1-1.1-1.1-1.8s.5-1,1.1-1ZM877.9,338.7c.3,0,.8.5,1.1,1.1.3.6,0,1.1-.5,1.1s-1.1-.5-1.1-1.1.2-1.1.5-1.1ZM880.1,331.8c-.6,1.3-1.1-.2-1.8-5.1-.6-4.3-.6-7.4,0-8,1.3-1.3,2.9,10.6,1.8,13.1ZM889.4,352.9c1,4.8,1,7.2,0,8-.6.6-1.1,2.6-1.1,4.3s-.6,3.4-1.4,3.5c-1.3.3-10.4,2.2-17,3.5-4.2.8-9,5.9-11,11.5-1.6,4.6-2.2,5.3-4.2,4.6-3-1-12.5-.6-14.6.6-4.8,2.7-1.9-1,8.8-11.2,12.5-12,18.4-19.7,20.6-26.9,1.3-4.3,1.4-4.3,4.5-3.4,3,1.1,6.4.8,11.5-.8,2.1-.6,2.4,0,3.7,6.1h.2ZM892.8,334.2c0,6.9-.5,6.9-2.4,0-1.4-5.1-1.3-10.9.2-10.9s2.2,4.2,2.2,10.9ZM903.7,337.2c0,3.7-3.4,7.2-6.1,6.2-1.1-.5-1-1.1.6-3.5,1.8-2.4,1.9-3.7,1.1-7.4-.6-2.4-1.1-6.1-1.1-8.2s-.8-5.8-1.6-8.2-1.3-4.5-1.1-4.8c1.9-1.9,8.2,17.9,8.3,25.8h-.2ZM908.6,359.1c-.6,1.6-.8,1.6-1.3.3-.3-1-1-2.6-1.6-3.5-.8-1.4-.5-1.9.8-1.9,2.1,0,3.2,2.7,2.2,5.1h-.2ZM913.6,339.6c0,1.3-.6,2.2-1.8,2.2s-1.6-.8-1.4-1.9c.5-2.7,3-3.2,3-.5l.2.2ZM922.4,320.3c0,1.6-.5,3-1.1,3s-1.1-.6-1.1-1.4.5-2.1,1.1-3c.8-1.3,1.1-1,1.1,1.4ZM923.8,312.6l-1.9,3.8-.3-3.4c-.2-1.9.2-3.5.8-3.8.6-.2,1.1-1.6,1.1-3s.5-2.7,1.1-2.7c1.8,0,1.3,5-.8,9.1ZM937.7,333.2c-2.7,0-6.2.5-7.7,1-3.5,1.1-6.6,1.3-6.6.3,0-1.6,3.7-4.8,5.6-4.8s2.6-1,3.2-2.2c1.9-3.5,9.3-3,11.7.6,2.4,3.5,1,4.8-6.2,5v.2ZM959.2,319.8c-1.1,1.8-1.8,1.4-1.8-1.3s.3-2.1,1.3-1.1c.6.6,1,1.8.5,2.4ZM969.1,335.8c-4.5-2.7-8.3-5.4-8.3-5.9,0-1.6,4.6-4.3,7.4-4.3s7.7,4.6,9.8,9.6c3.2,7.4,2.1,7.4-8.8.8v-.2ZM983.2,313.9c-.6,3.2-1,3.7-2.2,2.7-.8-.6-1.4-1.8-1.4-2.6,0-1.8,3-5.6,3.8-4.8s.3,2.4,0,4.6h-.2ZM992.5,359.1c1.3,2.9-.5,3.5-3.4,1.1-1.9-1.6-5.3-6.4-5.3-7.7s7.5,4,8.6,6.6h0ZM1000.5,350.5c-1.8,1.9-2.1,1.9-5-.2-1.6-1.3-3-2.6-3-3,0-1.3,1.9-1.1,2.7.3.5.6,2.1.8,3.8.5,3.7-.8,4-.2,1.3,2.6l.2-.2ZM1003.3,324.4c0,1.4-.3,2.1-.5,1.3-.3-.8-.3-1.9,0-2.7s.5,0,.5,1.4h0ZM1014.4,323.1c-.3,7.4-1.9,11-4.5,11s-2.1-.5-1.6-3.5c.3-1.9,1-6.2,1.4-9.4.6-5.3.5-5.9-1.6-6.4-3.5-1-2.9-2.6,1-2.6s5.8,3.5,5.3,10.9h0ZM1025.1,329.5c-.6,10.6-2.2,13.8-6.1,11.4s-1.1-1.4,0-4.2c1-1.8,2.1-7,2.4-11.8.8-8,1-8.5,2.4-6.6,1.3,1.6,1.4,4.3,1.1,11.2h.2ZM1035.7,325.9c-.6,1.9-1.1,5.1-1.1,7.4,0,5.1-2.1,10.1-3.7,9.4-.8-.3-1.3-1.9-1.1-3.7,0-1.8.5-7.5,1-12.8.5-6.9.3-10.6-.6-13-1.6-3.7-1.1-4.8,1.4-3.7,2.7,1.1,5.6,12.2,4.2,16.3h0ZM1094.4,389.9c-1.1,1.4-1.4,1.3-2.2-.6-.6-1.9-1.8-2.2-5.8-2.2s-5.3.5-5.6,1.1c-1,1.6-2.2,0-3.8-5-1.6-5.1-2.9-6.2-6.2-5.3-2.1.5-2.6,0-3.7-4.5-1.1-4.3-1.8-5.1-4.6-5.9-3-.8-3.5-1.4-3.8-5-.3-3.2-.8-4-2.6-4s-2.9.8-3.7,1.9c-2.1,2.9-2.6,1.4-1.4-4.6,1.3-6.7.6-8.6-2.6-7.8-1.8.5-3.2-.2-5-1.9-2.4-2.4-2.4-2.9-1.1-9.6,1.3-6.1,1.8-7,4.2-7.4,1.4-.2,3.5-1.3,4.3-2.4,1.6-2.1,1.8-2.1,7.2.5,3,1.4,5.9,3.4,6.2,4.3s1.4,1.8,2.2,1.8,2.7,1.6,4.2,3.4c3,3.8,3.5,4.5,8,7.8,4.8,3.7,8.6,13,11.7,28.3.5,2.7,1.9,7.4,3.2,10.2,1.9,4.3,2.1,5.6,1,6.9h0ZM1099.2,398.2c-.6,4.8-2.6,5.6-2.4,1.1,0-3,1.6-6.7,2.6-5.8.3.3.2,2.4,0,4.6h-.2ZM1107.5,405.9c-2.6,1-3,.8-3-1.8s.5-3.2,1.1-4.2c1-1.4,1.3-1.4,2.1,0,1.4,2.2,1.4,5.1-.3,5.9h.2ZM1054.4,393.1c1.3-1.8,1.9-1.8,6.9-.5,7.2,1.9,11.8,4.5,13.9,7.7s12.5,10.2,16.8,11.4c3.4.8,19,16.3,19,18.9s-2.7,5.8-5.6,5.8-5-1.4-7.7-3.2c-4-2.7-4.8-3.8-4.8-6.9s-.3-3.5-2.9-3.4c-1.9,0-3-.5-3.4-1.6-.2-1.1-1.4-1.8-3.7-1.9-3,0-3.2-.3-3.2-3.8s-1.9-5.4-4.5-3.4c-2.6,2.1-5.4-1.3-5-6.1.3-4.5-2.4-6.4-4.6-3.4-1.3,1.8-1.8,1.6-7-1.1-5.9-3-6.9-5-4.3-8.5h0ZM1044.8,379.1c-8.2-7.2-14.6-9.4-20.6-7.7-2.6.8-5.9,2.1-7.5,2.9q-3.8,2.1-5.3-2.1c-1-2.9-.8-4.5.3-7.5.8-2.1,1.9-7,2.2-10.9.6-7.7,2.2-10.4,4.3-7.5s5.3,3.8,12.5,3.7c5.9,0,6.9.2,6.9,1.9,0,3.5,8.6,16.6,16.5,24.8,4.2,4.3,7.7,8.2,7.7,8.5,0,.6-2.1.5-6.9-.3-2.7-.5-6.1-2.4-10.1-5.9v.2ZM1023.5,384.7c-.8,6.6-2.7,7.2-3,1-.2-2.7.3-3.7,3.4-5.1,5.4-2.6,11-1.1,16.6,4.5,2.6,2.6,4.6,5.4,4.6,6.6q0,2.1-4.2.6c-2.1-.8-3.7-2.2-4.2-3.8-.8-3-3.4-4.3-5.3-2.7-1,.8-1.8.3-2.6-1.8-1.6-3.5-5-3.2-5.4.6v.2ZM1023.3,395.6c-.6,0-1.1-.8-1.1-1.8s.5-1.4,1.1-1c.6.3,1.1,1.1,1.1,1.8s-.5,1-1.1,1ZM1024.5,444.3c0,1.6-.5,2.9-1,2.9-1.4,0-10.4-6.6-12.3-9.1-1-1.3-2.4-1.9-3-1.4-2.6,1.6-1.1,5.6,3.8,10.7,4.2,4.2,5.9,5.3,8.8,5.3s3.7.3,3.5,3c0,6.4-1.3,6.4-11.2,0-14.6-9.6-18.4-8-7.7,3.2,6.7,6.9,6.6,8.6-.5,5.1s-9-2.1-9,.5,2.1,2.6,4.5,4c10.4,5.8,13.6,8.6,12.5,11.5-.6,1.8-1,1.6-2.2-1-1-1.6-3.5-3.7-6.2-4.8-2.6-1-5-2.4-5.3-2.9-1.1-1.9-4.3.3-4.3,2.9s1.3,3,5.3,5c6.6,3,6.6,3.2,4.6,4.3-2.7,1.6-3.5,1.3-8.5-3.8-5.4-5.6-6.4-5.9-7.8-2.4-.5,1.3-1,1.8-1.1,1,0-.8-1.1-1.3-2.6-1.1-1.8.3-2.4,1.1-2.4,2.9s-.5,2.4-2.7,2.2c-2.2-.3-2.7-.8-2.4-3,.2-1.4,1.3-3.4,2.6-4.3,1.9-1.6,2.1-1.9.5-4-1.4-1.9-1.8-2.1-3-.5-.8,1-2.2,2.1-3.4,2.4-1.1.3-2.6,2.1-3.2,3.8l-1.3,3-1.4-4.8c-.8-2.7-1.1-5.9-.8-7.4.5-2.1,0-2.9-2.9-4l-3.5-1.4,3.2-.6c3.2-.6,5.3-3.4,4-5.3-.3-.5-2.7-1-5.3-1-5.4,0-12.8,3.8-14.4,7.4-.8,1.9-1.9,2.4-5.3,2.4s-4.2-.3-4.2-.5,1.4-2.1,3-4c4-4.5,3.8-5.9-1.1-6.2-2.2-.2-4.2-.8-4.2-1.4v-1.8c0-.5.8-.8,1.9-.8,3,0,2.7-4.2-.6-7.8-5.9-6.6-12.3-11.4-15.7-11.4s-5.4,2.2-2.7,3.8c3.4,1.9,14.4,13,12,12-1.1-.5-4.2-1-6.6-1-3.7,0-4.3.3-4.3,2.1s.8,2.2,3,2.6c1.8.2,4.3,1.9,6.4,4.2,3.7,4.2,3.7,5.6,0,3.7-4-2.1-5.6-1.4-5.6,2.2s-.8,4-1.8,4.8c-1.6,1.3-1.6,1.6,1.1,5.1,3.4,4.5,3.8,6.9,1,5.4-1.1-.5-4.8-.8-8.3-.5-5.1.3-6.2.8-6.1,2.2.3,2.2-.5,2.6-4,1.8-3.4-.8-3.5-2.2-.5-3s2.7-3.7-.5-5.8c-3.4-2.2-3.5-3.4-.5-4,1.6-.5,2.2-1.3,1.9-3.2-.5-3-4.2-4-5.9-1.6-1.6,2.2-5.3,1.1-4.3-1.3.3-.8.6-2.1.6-2.6s1-1,2.2-1c2.6,0,4.6-3.4,3.4-5.4-.8-1.3-1.4-1.3-3.8-.2-1.6.6-2.9,1.9-2.9,2.7,0,1.4-10.7,8-11.7,7-1.1-1.1,2.9-6.9,5.8-8.2,1.6-.8,2.7-1.9,2.4-2.7-.6-1.9-6.1-2.4-8-.8-.8.8-1.9,1-2.2.6-1.3-1.3,1.9-6.2,4.8-7.4,1.6-.6,3.4-1.8,3.8-2.4,1-1.6-1-4-3-4s-1.6-3.4,1.1-4.3c3.7-1.4,4.6-3.4,2.4-5-2.6-1.9-2.2-2.6,1.8-3.5,4.5-1.1,5.3-4.3,1.4-5.3-1.6-.3-2.9-1.3-2.7-1.9,0-2.4,1.9-4.3,3.7-3.7,5.8,2.2,6.9-4,1.3-6.4-4.5-1.9-5-3.8-1-3.8s3.8-.5,5-1.1c3-1.6,1-5-3.7-6.1l-3.7-.8,3.4-.5c4.8-.6,6.2-2.2,4.8-5-1-1.8-1.9-2.1-4.3-1.6-4.5,1-4.2-1.8.5-3.8,3-1.4,3.8-1.4,4.6-.2.5.8,2.2,1.6,3.8,1.8s3.7.8,4.3,1.4c3.5,2.9,11.8-2.6,11.8-7.7s-3.7-3.2-6.6.3c-3,3.7-5.9,4.3-7,1.6-.5-1.3-1.6-1.6-3.8-1.1s-3.4.2-3.8-1c-.3-.8-1.9-1.6-3.4-1.6-4,0-3.5-3,.8-4.8,1.9-.8,6.7-2.6,10.4-4,5.9-2.1,7.2-3,8.5-6.2.8-2.1,1.6-5.1,1.6-6.9,0-3.7,1.8-8.6,3-8.6s1.4,1.4,2.1,3.4c2.4,6.2,6.9,2.7,5.1-4-.8-3-.6-3,1.4-1.1,3.2,2.9,5.9,2.4,5.9-.8s.6-2.9,4.2-3.5c2.2-.5,7.4-.8,11.2-.8,6.6,0,7.2,0,7.5,2.6.5,2.9,3,4.3,4.8,2.6,2.2-2.2,3-1.3,2.4,3.2-.5,3.5-.3,4.5,1.1,5.1,1,.3,2.6,0,3.5-.6,2.2-1.8,3.2-.8,7.5,7.4,2.1,3.8,4.8,7,6.9,8.3,3.7,2.2,10.1,2.7,14.1,1.4,1.9-.6,2.6-.2,3.7,2.7,1.9,4.5,0,6.7-6.4,7-5.4.3-7.7,2.1-5.8,4.3,2.4,2.9,8,3.2,11.2.8,2.6-1.9,3.2-1.9,4.3-.6.8.8.8,1.6.3,1.6s-1.9.6-3,1.4c-1.9,1.4-1.9,1.6.6,2.9,1.4.8,3.5,1.4,4.8,1.4s2.6,1.3,3,2.6c.8,2.1.5,2.7-1.8,3.5-1.4.6-2.7,1.4-2.7,2.1,0,1.4,3.7,3.4,6.6,3.4s2.2.6,2.2,2.7-.3,2.6-2.2,1.6-2.9-.8-4.3,0c-3.4,1.8-2.7,3.7,2.1,5.9s4.6,3,5,4.3c1.1,4.2.6,7.4-.8,7.4s-1.8,1-2.1,2.2c-.5,1.6,1,4.2,4.8,8.6,3.4,4.2,5.4,7.5,5.4,9.3l-.5-.6ZM897.9,526.5c-5.1.3-10.6,1.1-12.2,1.8-2.9,1.1-4.5.2-3-1.6,1.9-2.7,6.2-4,12.6-3.7q6.7.3,6.7-2.6v-2.9l14.6-.8c9.3-.5,18.2-.3,24.8.5,5.6.6,21.9,1.8,36.5,2.4,14.4.6,29.6,1.8,33.8,2.6,7.8,1.6,11.4,3.4,5.8,2.9-6.9-.6-17,0-17,1.1s7.8,3.5,10.1,3.2c2.4-.3,8.5,1.4,8.5,2.4s-1.9.6-4.2.3c-8.6-1.3-12.3-1-12.3.6s3.2,2.6,13,5.1c4,1,7.8,2.4,8.5,2.9.6.6,0,.8-1.6.3-25.1-6.6-26.4-6.7-26.4-4.6s1.1,2.2,2.6,2.9c1.8.8-1.1,1-9.1.5-12-.6-51.2-1.9-56-1.9s-19,3-21.4,4.3c-1.1.6-5,1.4-8.2,1.9-3.4.5-9.4,1.9-13.8,3.4-7.7,2.6-9.6,2.7-7.5.6s5.6-2.4,11.2-3.8c11.5-3,14.4-4.3,14.4-6.6s-2.2-2.6-11-.5c-4.5,1.1-10.4,2.6-13,3.2-5.3,1.3-5.9,1.1-5.1-1.3.8-2.2,6.4-4.5,17.6-7,7.8-1.8,9.9-2.6,10.2-4.3.3-1.9,0-2.1-9-1.4v.2ZM883.2,562.5c1.8,0,1.3.6-1.9,2.1-5.3,2.4-6.1,2.6-6.1,1.1s4.8-3.4,8-3.2ZM1028.1,535.3c-2.6-1.6-2.6-1.9-.8-3.2,1.6-1.3,2.1-1.1,3.2,1,1.8,3.4.6,4.3-2.4,2.2ZM1031,541.5c.6,0,1.1.5,1.1,1.1s-.5,1.1-1.1,1.1-1.1-.5-1.1-1.1.5-1.1,1.1-1.1ZM1033.9,493.4l2.6,2.4-2.4,1.3c-2.9,1.4-3.5,1.1-4.5-3-.8-3.7,1-4,4.5-.6h-.2ZM1033.7,552.6c-.5.8-9.4-2.1-13.6-4.5-2.9-1.8.3-1.1,7.4,1.3,3.7,1.3,6.6,2.7,6.2,3.2ZM1013.1,468.6q-.6-3.2,4.6-1.4c5.1,1.4,4.6,4.3-.6,4.3s-3.7-.5-4.2-2.7l.2-.2ZM1017.3,488.3c2.7-2.1,3.8-2.1,3.8,0s-1,1.6-3,1.6-2.9,0-1-1.6h.2ZM1023.3,502.2c0,.6-1.3.8-3.4.5-1.9-.3-5.3-.6-7.7-.6s-4.3-.3-4.3-.8,3.5-.6,7.7-.5c4.3.2,7.7.8,7.7,1.4ZM1020.3,532.1c.3-.3,1.3-.3,2.1,0s.6.6-.6.6-1.8-.2-1.4-.6h0ZM1001.6,515.1c-2.4,0-4.8-.5-5.1-1.1-.5-.8,1-.8,4-.3,6.2,1,6.7,1.4,1.1,1.4ZM989.9,494.5c-4.2.3-8,.6-8.5.8-.5,0-1-.2-1.3-.6-.3-.5,0-1.6.3-2.4.6-1.1,2.6-1.3,7.7-.8,9.8,1,10.4,2.2,1.6,3h.2ZM989.3,483.3c-.6,0-1.1-.8-1.1-1.8s.5-1.4,1.1-1c.6.3,1.1,1.1,1.1,1.8s-.5,1-1.1,1ZM961.9,497.1c0,1,3.8,1.6,14.2,2.2,8.3.5,14.2,1.3,14.2,1.9s-2.4.8-6.2.3c-3.5-.3-22.2-.8-41.8-1-31.2-.2-35.4-.5-35.4-1.9s-.6-2.2-1.3-3c-1-1-.6-1.3,1.4-1.4h3.5c.5,0,7.7.3,16.2.6,12.8.3,15.5,0,17.8-1.4,2.6-1.9,13.1-2.4,22.1-1.1,5.3.8,6.6,2.1,2.2,2.1s-6.9,1-6.9,2.7h-.2ZM947.3,470.2c.6,0,1.3-1,1.3-2.2s.5-2.2,1.1-2.2,1.1,1,1.1,2.2c0,2.7,2.9,4,4.6,2.2.6-.6,2.1-1.3,2.9-1.3s1,.6-1,2.2c-2.7,2.2-8,2.1-10.4,0-.6-.6-.5-1,.3-1h0ZM948.3,483.8c3.7-2.6,4-2.6,6.6-.8,3.5,2.2,2.1,3.2-5,3.4h-5.4l3.8-2.6ZM940.5,488.9c-.3.6-2.7,1-5.3,1-4.3,0-4.5-.2-1.3-1,4.8-1.3,7.4-1.3,6.6,0ZM938.1,478.3c-1.1,1-2.6,1-2.6-.3s.8-1.3,1.6-1.6c1.6-.6,2.2.5,1,1.9ZM908.3,490c-1.1,0-2.6-.5-2.9-1.1-.3-.6.3-1.1,1.4-1.1s2.6.5,2.9,1.1c.3.6-.3,1.1-1.4,1.1ZM948.8,509.2c.6.3,3.5,1.1,6.2,1.6l5.1.8h-4.6c-2.6.2-5.3,0-6.2-.3-1-.3-1.8-1.1-1.8-1.8s.5-.8,1.1-.3h.2ZM965.1,510.8c.6,0,1.1.5,1.1,1.1s-.5,1.1-1.1,1.1-1.1-.5-1.1-1.1.5-1.1,1.1-1.1ZM886.2,499.3c.8-.8,2.1-1.6,3-1.6s1.1.5-.6,1.8c-1.3,1-2.6,2.6-2.6,3.5,0,1.6-.2,1.6-.6,0-.3-1.1,0-2.7.8-3.5v-.2ZM886.2,515.1c.6,0,1.1.5,1.1,1.1s-.5,1.1-1.1,1.1-1.1-.5-1.1-1.1.5-1.1,1.1-1.1ZM889.1,466c1.4-2.2,4.8-3.2,4.8-1.3s-.8,2.2-1.8,3.4c-2.4,2.6-4.8.8-2.9-2.2l-.2.2ZM896.1,472.4c2.4,0,3.7,1.6,2.7,3.4-.8,1.4-1.3,1.4-4,0-2.6-1.3-1.8-3.2,1.1-3.2l.2-.2ZM901.3,485.2c1.6.6,1.4,1-1.3,1.4-5.8,1.3-7,1.1-6.4-.6s4.3-2.2,7.7-.8ZM900.9,495.6c-2.6,1-7,1.3-7,.5s5.6-2.7,7.4-1.9c1.6.6,1.6.8-.3,1.6v-.2ZM1028,526c1.1,1.1,1,1.3-.6.6-1.1-.5-1.8-1-1.3-1.3.3-.3,1.3,0,1.9.8v-.2ZM1030.4,474.2c1.9-3.8,4-9.4,4.3-12.6.8-6.4,2.1-6.7,5.8-1.3,2.7,4,3.2,9.6,1.3,13.6-2.9,5.6-11.8,10.4-14.4,7.8-.3-.3,1-3.7,3-7.5ZM1069.4,437.5c0,.3-1.3,3.4-2.7,6.7-2.9,6.6-4.5,7.5-7.7,4-1.3-1.4-1.8-3-1.3-5.3,1-4.3-.6-6.2-4.2-5.4-3.2.8-3.8-1-1.8-4.8.8-1.6.6-2.4-1.1-3.4-1.8-1-2.7-.8-4.5.6-1.1,1.1-2.1,2.6-2.1,3.4s-.8,1.4-1.6,1.4c-1.3,0-1.6-1.4-1.6-5.9s-.5-6.2-1-6.6c-2.1-1.3-4.5.8-4.5,3.8s-.5,3.4-1.1,3.8c-1.8,1.1-6.7-10.9-6.4-15,.3-3,.8-3.7,3.5-4,4.3-.5,12.2,2.7,18.7,7.5,5.3,4,19.2,17.6,19.2,18.9v.2ZM1068.9,476.9c-1.4-.6-5.9-2.6-9.9-4.3-6.7-3.2-7.2-3.7-7.2-6.9s-6.2-13.3-11.5-16.3c-2.4-1.4-3.7-3-3.5-4.3.3-4.5,9-1,14.1,5.8,1.9,2.6,6.6,7.2,10.1,10.2,6.6,5.4,8.6,8.5,9.9,13.9.6,2.9.5,2.9-1.9,1.9ZM1106.1,501.5c-2.4,3-3.2,3.5-4.5,2.6-2.1-1.8-2.1-2.1,2.9-9.6,4.8-7.5,5.4-9.9,2.2-9.9s-3.5,2.1-6.1,6.1c-2.2,3.4-4.5,5.8-5,5.4-1.1-.6,0-3.5,3.5-8.3,5-7,1-8.6-4.5-1.9-1.9,2.4-3.8,4.3-4,4-.2-.2.8-3,2.2-6.1s2.7-6.4,2.7-7.4c0-3-4.2-1.8-7.7,2.4-3.4,4-3.4,3.2.5-3.8,1.9-3.8,1.6-7-.6-6.6-.8,0-1.6-.8-1.8-2.2-.5-3.4-2.7-4-6.2-1.8-3.4,2.2-3.2,2.4-5.9-4.2-2.2-5-2.1-9.4.2-11,5-3.4,44.6,35.4,44.6,43.5s.8,3.2,2.7,3.8c1.8.6,3.8,3.2,5.6,7l2.9,6.1-2.6,2.1c-2.2,1.8-2.4,2.4-1.1,3.8s1.1,2.2-1,5.1c-2.7,3.7-3.5,4-5.4,1.8-1-1.1-.8-2.4.6-5.4,2.9-5.9,0-9.9-4.3-5.6s-1.6,1.3-1-2.2c.5-3.4.3-3.8-1.8-3.8s-2.2-.3-1.3-2.1c3.4-6.2-1.6-7.7-6.1-1.8h0ZM1172.5,645.2c3.2-3.4,4.6-3.5,3-.3-2.7,5-3.2,5.4-4.3,4.2-.8-.8-.5-1.9,1.4-4l-.2.2ZM1144.6,619.8c1.4-2.1,2.4-2.7,4.2-2.1,5.4,1.8,12.6,2.9,19.2,3.2,7.5.3,17.1,3.2,26.7,8s12.3,7.5,15.4,13.9c1.6,3.4,5,8.3,7.5,11l4.5,5.1-2.7,2.9c-1.4,1.6-3.7,4.3-4.6,5.9-2.2,3.5-1.8,3.4-5.4,1.9l-2.9-1.1,2.7-4c4.5-6.6.6-8.5-5.1-2.7-3.7,3.7-5.9,4.2-6.9,1.6-1.1-2.9-.8-4.8,1.6-8.2,2.9-3.8,2.1-6.9-1.4-6.4-1.6.2-3.4,2.1-5,5-1.4,2.6-3.2,4.6-4.2,4.6-1.8,0-2.1-1.8-.5-2.7,1.4-1,5.4-8.8,5.4-10.9,0-4.8-8.5,1.6-9.6,7.4-.6,3.4-1.3,3.7-4,1.6-1.8-1.3-1.8-1.6.5-5.8,2.7-4.8,2.2-8.2-1.1-8.2s-2.1-.6-1.9-1.9c.3-3.4-4.2-2.9-7.4.8-1.6,1.9-2.9,3.8-2.9,4.5,0,1.8-4.5,1.1-5.1-.8-.3-1,.2-3.2,1.3-5,1.1-1.8,1.6-4,1.3-4.8-1-2.7-4-1.8-5.9,1.8s-2.4,3-3,2.9c-1.3-.5-.8-6.2.8-8,1.4-1.8.3-4.6-1.8-4.6s-2.6,1.3-3.5,2.7c-2.2,3-3.4,2.7-6.2-1.9-1.8-2.9-1.8-3.2,0-5.8h.2ZM1090.7,533.2c1.3-1.8,1.8-1.9,6.2-.3,2.6.8,6.7,3,9.1,5,8.3,6.4,24.6,28.8,24.6,33.9s1,3.4,2.6,4.5c1.4,1,4.2,5,6.2,9.1,2.1,4.2,4.6,8.8,5.8,10.4s1.9,3.4,1.9,4-2.7,2.9-5.9,5c-5.3,3.5-9.4,9.1-9.4,12.6s-1.6,1.4-4.3-1.4l-2.6-2.7,2.9-2.2c1.8-1.3,2.9-3.4,2.9-5,0-3.2-1-3.4-4.6-.5-3.4,2.7-4.8,2.7-6.2.3-.8-1.6-.2-2.7,3.4-6.1,6.4-5.9,3.4-8.8-4.3-4.2-3.5,2.1-3.8,2.1-5.8.3-3-2.7-2.6-4,1.8-6.4,4.2-2.2,6.6-5.4,5.4-7.2s-3.5-1.3-7.8,1.8c-2.9,1.9-4.5,2.4-5.3,1.6s0-2.1,2.4-4c3.8-3,4-3.5,2.6-5.8-.8-1.3-1.4-1.3-4.3,0-4.2,2.1-5.1,1.4-6.1-3.8-.5-3.4-.3-4.2,1.4-4.8,2.7-.8,4.5-4,3.2-6.1-.8-1.3-1.6-1.3-4.5-.3-5.3,2.1-7.2-.3-3.7-4.2,2.6-2.7,1.1-5.3-2.9-5.3s-4.5-2.6-1.1-4.5c3-1.6,2.4-5.8-1.1-6.6-3.4-.8-4.8-4.6-2.9-7.2h.5ZM1088.6,516.3c-1.8-1.9-3.4-2.2-11.5-2.2s-9.8-.3-10.2-1.6c-.8-2.2.2-2.9,5.3-2.9,7.8,0,9.3-5.3,1.9-7-2.1-.5-2.6-1-1.6-1.9.6-.6,1.3-1.9,1.3-2.7,0-1.9-6.6-3.5-9.6-2.4-3.8,1.4-5.3,1.3-3.7-.3s1.3-2.2,1.3-3.4c0-2.4-4.3-2.7-8-.8-3.2,1.8-9.9-1.8-8.6-4.3,4.6-9.8,5.4-10.1,13.3-6.9,6.7,2.9,11.4,5.9,21.9,13.9,11.8,9.1,17.9,17.6,18.7,26.7.3,3,0,3.7-1.3,3.4-5.3-1.4-15.4-1.3-18.2.2-3.7,1.9-7,.8-7-2.6s2.9-3.5,9.9-2.2c7,1.3,9.1.2,6.1-3.2l.2.3ZM1052.3,502c.3,0,.8.5,1.1,1.1s0,1.1-.5,1.1-1.1-.5-1.1-1.1.2-1.1.5-1.1ZM1069.1,501.5c1.6.6,1.4,1-1,1.6-3.2,1-4.5.8-4.6-.6,0-1.4,3.2-2.1,5.6-1ZM1088.5,682c1.1-2.1,2.7-3.5,3.8-3.5,3.4,0,12.2,5,18.6,10.4s7,5,8.3,5c3.4,0,19.8,8.3,25.6,13,3.2,2.6,5,5.1,5.8,7.8.6,2.2,1.9,4.5,2.7,4.8,1,.3,1.6,1.3,1.6,2.1,0,1.9,5.4,12.8,9.8,19.5,3.4,5.1,3.5,5.8,1.8,7.5-1,1.1-1.8,2.4-1.8,3,0,1.4-2.4,3.7-3.8,3.7s-3.2-2.4-5.6-5.3c-6.1-7.2-6.2-7.5-4.2-11.2,1.6-3,1.6-3.4,0-4-1-.3-2.6,0-3.7.6-3.2,2.2-4.6,2.7-5.8,1.4-.8-.8-.3-2.2,1.8-5,1.6-2.1,2.9-4.3,2.9-5,0-2.2-3.8-1.3-7.8,1.9-2.9,2.4-4.3,2.9-5.4,2.1-1.3-1-1.3-1.3.5-2.4,4.8-3.2,7.4-5.4,7.4-6.9,0-2.6-4.6-1.8-10.4,1.8-4.6,3-5.4,3.2-6.9,1.8-2.1-2.1-1-4.8,2.4-6.1,5-1.9,8.5-9.9,4.3-9.9s-4.6,2.7-8,6.1c-5.6,5.6-6.2,5.9-7.7,4.3-1.3-1.6-1.1-2.1,1.1-3.8,6.1-4.5,6.7-5.4,5.3-7.2-.8-1-2.4-1.4-3.8-1-1.9.5-2.7,0-3.2-1.6-.8-2.7-1.8-2.7-7.2,0s-4.3,1.9-4.3.6.5-1.9,1.1-2.2c.6-.3,1.1-1.8,1.1-2.9,0-1.9-.5-2.2-4-1.4l-4,.8.8-3.8c.8-3.8.6-3.8-3.2-3.8s-4.2-.5-5.6-3.7c-1.6-3.4-1.6-4,0-7.2l-.2-.3ZM1061.7,583.1c0-3.7,2.7-9.9,4.3-9.9s3.2,2.1,5.9,4.6c4,3.8,5,5.8,6.1,11.2.6,3.7,2.2,10.2,3.5,14.9,2.9,10.4,6.2,24.2,7.5,31.4.6,3,1.8,7.4,2.7,9.6,2.9,6.7,0,18.7-5,21.4-1.1.6-3.7,1.1-5.8,1.3-2.1,0-4.6.5-5.8,1-3,1.3-5,1.3-5.1,0-.5-3.4,0-3.8,2.9-4.3,2.4-.5,3.4-1.1,3.4-2.7s-.8-2.2-4.2-2.6c-4-.3-4.2-.5-4.2-5.4s2.4-.6,5.3-.5c4.2.3,5.4,0,6.1-1.4,1.1-2.9,0-3.8-5-3.8s-8.6-1.6-8.6-3.8,1.8-1.6,6.2-1.9c5.6-.3,6.4-.6,6.7-2.9.3-2.6,0-2.7-5.8-2.7s-7.2-.8-7.2-3.2.8-2.1,5.3-2.1,8.6-1.9,7.4-5c-.5-1.4-1.9-1.6-6.4-1.4-5.1.3-5.8,0-5.8-1.8s1-2.4,3.7-2.7c4.5-.6,7-3.8,4.5-5.4-1-.6-3-.8-4.6-.5-4.5,1-4-2.1.5-3.4,2.6-.8,3.7-1.8,4-3.7.3-2.4,0-2.6-4.2-1.8q-4.5.8-4.5-2.7c0-3.5.6-3.7,1.6-4,2.2-.8,2.1-3.7-.3-5.4-1.4-1.1-1.6-1.8-.6-2.7,2.1-2.1-.3-5.8-3-4.8-1.8.6-2.1,0-2.1-2.7h.5ZM1041.1,517.2c1.8-2.6,2.1-3.5,1-4.5-1.1-1.1-1.8-1-3.7,0-2.7,1.8-4.2.6-4.5-3.5-.2-2.6.3-3.2,4-4.5l4.3-1.4,5.8,5.8c4,4,7.2,8.8,10.7,16.2,5.6,11.8,6.6,16,5.6,26.9-.6,6.9-1,8-3.5,9.6-3.8,2.4-4.3,2.2-5.8-.8-1-2.2-.8-3.2.5-5.4,1.4-2.2,1.6-2.9.2-4-.8-.6-2.6-1-3.8-.6-2.9,1-2.9,0,0-4.8,3.5-5.8,1.1-6.7-4.8-1.9-2.7,2.2-5.1,4-5.6,4s-.6-1.4-.6-3.4.6-3.4,1.6-3.4c2.7,0,9.4-8.8,9.4-12.3s-3-3.5-6.9,2.2c-3,4.5-5.1,5.9-5.1,3.4s1.4-4,3.4-7.2c3.5-6.4,3.2-9.1-1-6.9-3.2,1.8-3.7.3-1.1-3.4h0ZM1031,667.1c-1.1-1.3-1-1.8.5-2.4,1.8-.6,3.8,1,3.8,3.2s-2.9.8-4.3-.8ZM1023.8,692.9c1.3,0,2.9.5,3.8,1.1,1.3.8,1.3,1.1-.5,1.1s-2.9-.5-3.8-1.1c-1.3-.8-1.3-1.1.5-1.1ZM900.9,1013.2q1.4,3.5-4.5,9.4c-6.6,6.6-9.4,7.2-9.9,2.2-.3-2.4-1-3-3-3s-2.9.8-3.4,3c-1.6,6.4-3.2,6.4-4.2-.3-.6-3.8-1.1-5-2.9-5s-2.4,1.1-3,3.5c-1.3,5.1-4,4.6-4.5-.8-.6-6.9-3.4-7.5-6.2-1.3l-1.4,3.5v-2.9c-.3-6.1-6.2-8-7-2.2-.2,1.8-1,2.9-1.9,2.9s-1.6-1-1.3-2.7c.6-6.1-.3-7.2-6.6-7.4-4,0-6.1.5-7,1.6-1.1,1.6-1.6,1.6-4.2,0-1.6-1-3.7-3.2-4.8-4.8s-2.6-3.7-3.4-4.5c-1.8-1.8-1-7,1.1-9.8,3.7-4.3,11.5-5.6,21.3-3.2,6.2,1.4,6.9,2.2,4,5.4-2.2,2.6-1.1,5.8,1.6,4.8,1.1-.3,2.6,0,3.4,1s2.7,1.6,4.5,1.6,3.4.6,3.7,1.4c1.3,3.2,16.2,2.7,16.2-.6s1-1,2.2-1c3,0,2.7,1.6-.8,3.4-1.6.8-3.2,1.6-3.5,1.8s.2,1,1,1.9c3,3.7,14.4,1,12.8-3-1-2.6,1.8-2.2,4.2.5,1.3,1.4,2.7,1.9,4,1.6,1.6-.5,2.4.2,3.5,2.9h.2ZM926.5,971.6c-.3-1.4.3-2.7,2.1-3.8,1.4-1,2.6-2.4,2.4-3,0-.6.6-2.9,1.6-4.8,1.3-2.4,2.9-3.7,5.4-4,9.4-1.6,14.2-2.1,17.8-1.4l3.7.6.6,8.2c.8,9-1.3,22.1-4.8,29.6-1.1,2.4-3.5,8.3-5.4,13.1-4.3,10.9-7,14.6-14.4,19.4-9,5.9-19.2,8-23,5-1.1-1-1.9-3.8-2.4-9.1-.6-9-2.6-13.9-7.2-19q-3.4-3.7-1.3-6.6c3.8-5.4,6.2-7,8.6-5.8,1.3.6,3.2,1.1,4.5,1.1,4.2,0,11,8.2,11,13.1s-3.2.8-5.1-3c-1.9-4.2-5.1-5.8-7-3.8-.6.6,0,3,1.8,6.4,2.2,4.2,2.7,6.4,2.2,9.9-.5,3.2-.2,4.8,1,5.1,2.2,1,6.1-2.4,6.1-5.3s.8-2.7,3.2-3.2c4.3-.8,6.2-6.1,4-11-1.6-3.7-9-10.6-11.4-10.6s-8-4.5-8-5.8,2.4-.8,5.1-.6c4.5.3,5.3,0,5.6-1.8.2-1.1-.3-2.7-1.4-3.5-1.6-1.1-1.4-1.4,1.6-2.6,2.7-1,3.4-1.8,2.9-3.4l.3.6ZM935.7,887c1.9,0,5.1-1.4,7.8-3.4,4.2-3,5.3-3.4,9.4-2.7,5.3.8,10.7,3.4,13.9,6.6,2.6,2.6,5,12.2,3.8,15.2-.5,1.3-.6,4.3-.3,6.6.3,3,0,4.3-1.3,4.8-1.9.8-2.4,4.3-.6,5.4.6.3,1.1,1.9,1.1,3.4,0,2.2-.3,2.6-2.6,2.1-4.2-1-4.5,1.4-.8,5.6,3.8,4.3,4,5.6,1.6,9.1-1,1.3-1.4,3.2-1.1,4,.3,1,.3,2.4,0,3.4-.5,1.4-1.8,1.6-6.9,1-3.4-.5-7.4-.8-9-.8s-6.4.3-11,.8c-8,.8-8.2.8-6.4-1.1,2.7-3,.8-6.2-3.2-5.3-3.2.8-2.7-.3,1.1-2.2,1.3-.6,2.7-2.1,2.9-3.2.3-1.4-.5-1.9-3.4-1.9s-4-.6-4.5-1.6c-.6-1.6.6-2.6,6.1-4.2,1.1-.3,1.9-1.3,1.9-2.2s-1.1-1.6-4.3-1.6-4.3-.5-4.3-1.6,1-1.6,2.6-1.6c3,0,5.1-1.9,5.1-4.6s-.8-1.9-3.8-1.9-5.1-1.6-1.8-2.7c2.2-.6,3.8-3.5,2.9-5s-1.3-.6-2.1-.3-1.8,0-2.2-.6c-.3-.6.5-1.6,2.1-2.2,3.2-1.3,3.7-3.8,1-5.4-1.8-1-1.6-1.1,1.1-2.2,3-1.1,4.2-5,1.8-5.8s.3-3,3.5-3l-.2-.5ZM933.4,848.4l-2.7-2.1,2.6-1.8,2.6-1.8-2.6-2.1c-2.2-1.9-2.4-2.4-1.1-4.8,1-1.9,1.1-3,.3-3.8-1.6-1.6,1-9.1,4.6-13.4l2.6-3.2,7,1.3c3.8.6,8.2,1.3,9.4,1.3,5.1,0,13.1,8.6,13.8,14.9,0,1.4,1.3,3.4,2.4,4.3,1.8,1.3,1.9,1.8.5,4.5s-1.4,3,.3,4.3c2.9,2.1,2.2,3.8-1.3,3.8s-3.4.6-3.8,1.6c-.6,1.6,2.4,5,4.6,5s1.6.5-.3,4.3c-1.1,2.4-2.2,3-3.8,2.6-3.2-.8-4.3,2.9-1.6,4.8,2.1,1.4,2.1,1.6-.5,3.7-2.1,1.8-4.2,2.1-13.4,1.9-10.4-.2-10.9-.3-10.9-2.6s-1.3-3.8-2.7-5.6-2.7-4.3-2.7-5.6-.8-2.6-2.2-3c-2.7-.6-2.7-1.3-.3-3.8,1.8-2.1,1.8-2.2-.8-4.2l.2-.5ZM929.1,756.1c5.6.8,9.9,3.7,5.4,3.7s-4.3,3.2-2.2,4.5c.8.5,1.4,2.1,1.4,3.4,0,1.9,1.3,2.9,6.4,4.5,5.9,2.1,6.6,2.1,8.3.3,1.3-1.1,3.7-1.8,6.7-1.6,6.1,0,13.6-1.8,18.2-4.5,2.9-1.8,3.5-2.7,3-4.8-.6-2.2,0-2.6,3.8-3.2,3.4-.5,5.3-.2,8.3,1.6,5.8,3.4,5.1,5.4-1.6,5.4s-7,1.4-1.6,4.5c4.6,2.7,5,4.3.6,4.3s-5,1.4-2.2,3.8c3,2.7,2.7,5.6-.6,6.4-2.9.8-3.7,3.2-1.4,4.6,1,.6.3,1.1-1.9,1.4-3,.5-3.2,1-3,4.3.3,2.9-.5,4.5-3.2,7.4-1.9,2.1-4.6,3.7-6.1,3.7s-2.7.5-3.2,1.1c-2.6,4-17.1,4-24.3,0-3.5-1.9-5-3.8-6.6-8-1.1-3-2.9-5.8-3.8-5.9-1-.3-2.4-1.9-3.2-3.7-1.1-2.7-1.1-3.5.5-5.1,1-1.1,1.8-2.9,1.8-4,0-1.6-.6-1.8-3.8-1.3-3,.6-3.8.3-3.8-1s1.1-1.8,2.4-1.9c2.6-.3,5.1-3.7,3.8-5s-2.9-1.1-5.4-1.4c-5-.6-5.8-2.4-1.6-3.4,1.4-.3,2.7-1.6,2.9-3,.3-2.1-.3-2.6-4-3-11-1.8-1.6-5.8,9.9-4.2h.2ZM956.5,765.1c-5-.2-6.1-.6-6.9-2.7-1-2.4-.8-2.6,9-2.6s9.8.3,9.8.8c0,2.2-6.4,4.6-12,4.3l.2.2ZM910.9,744.4c1,0,1.8.5,1.8,1.1s-.5,1.1-1,1.1-1.3-.5-1.8-1.1c-.3-.6,0-1.1,1-1.1ZM908.6,721.2l8.8-.3v-3c0-1.8,1-3.5,1.9-4.2,2.9-1.6,2.2-4.2-1.6-5.8-4.3-1.8-2.6-3,2.4-1.8,3.7,1,14.1,1.8,40.6,2.9,12.3.5,13.9.5,14.6-1.1.3-1,.5-2.2,0-2.9-.3-.5,0-1,.5-1s1.4.5,1.8,1.1c.3.6,3.2,1.1,6.4,1.1h5.8l-3.8,1.8c-4.6,2.1-2.9,3.7,4,3.7s5,.5,5.3,1.1-.5,1.1-1.9,1.1-3,.3-3.4.8c-1.1,1.1,9.1,5.8,13,5.9,1.8,0,4.3.5,5.4,1,2.1,1-1.6,1.3-13.1,1.6-7.5,0-7.2,4.8.5,5.1h4l-3.7,1c-2.1.5-3.8,1.1-4.3,1.4-1.3,1.3.6,4,2.9,4s2.9,1.9-.2,2.4c-1.8.3-2.4,1-2.2,2.9s-.3,2.6-2.2,2.6-8.8.5-16.6,1-16,.8-18.1,1c-2.1,0-8-.5-13.1-1.4-5.1-.8-13.3-2.4-18.1-3.4s-10.7-2.2-13.1-2.6c-9.4-1.6-9.1-4.5.5-4.5s6.9-.5,7.7-1.6c2.1-2.4-1.9-3.8-10.7-3.8s-8-.5-9-1.8c-2.2-2.7,0-3.7,9.4-4l-.2-.3ZM998.7,713.7c-1.1,0-1.8-.2-1.4-.6.3-.3,1.3-.5,2.1,0,.8.3.6.6-.6.6h0ZM902.7,714.8c-1.4.5-2.9,1-2.9,1,0,0-.5-.3-1-1-.5-.6.8-1.1,2.9-1,3.4,0,3.5,0,1,1ZM893.1,705.5c.8-2.2,9.4-2.2,15,0,4.2,1.6,3.2,1.9-5.4,1.8-2.7,0-5.6.3-6.6,1-2.1,1.3-3.8-.3-2.9-2.6l-.2-.2ZM903.8,662.7c-5.4-1.3-11-1.6-16.8-1.3-4.6.3-8.5,0-8.5-.3,0-2.9,13.6-5.1,16.8-2.9,1.4,1.1,4.2,1.3,11.5.5,5.3-.5,12-1,15-1.1,3,0,6.6-1,7.8-1.8,2.1-1.3,4.2-1.3,13.8-.2,6.2.8,14.1,2.1,17.3,3,3.7,1,10.4,1.6,17,1.4,17.6,0,17.3-.2,16.6,1.8-.5,1.1,0,1.9,1.8,2.4,2.1.6,1.8.8-1.6,1.3-7.8,1.1-4.8,2.7,6.4,3.5,17.1,1.1,33.4,4.3,33.4,6.4s-.6,1.3-1.4,1.9c-1.1,1-3,.6-7.4-1.1-4-1.6-9.6-2.4-17.1-2.9-9.9-.5-11.2-.3-11.2,1.3s1,1.8,2.4,1.8c5.1,0,22.6,4.2,26.9,6.4,5,2.6,6.2,5.1,2.1,4.2-1.3-.3-8.3-1.1-15.5-1.9-11.5-1.1-13.3-1.1-14.7.5-2.1,2.1-1.9,2.2,9.4,4,8.6,1.3,10.4,1.9,9.4,3.2-.8,1.3-55.5.6-68.6-.8-6.2-.6-17.4-1.6-24.6-1.8-13.3-.5-40.3-4.8-42.2-6.7-.5-.6-1.3-2.6-1.8-4.5-.6-3.2-.5-3.4,3.7-4,2.4-.3,8.2-.5,12.8,0,7.7.5,8.5.5,8.2-1.3-.5-2.2-8.5-4.6-15.7-4.8-4,0-4.2-.2-1.4-1,2.9-.8,8.6-.8,19.7.5,4.3.5,6.4.3,7-.6,1.1-1.9-1-2.9-10.4-5v-.2ZM907,653.2c-1.4,0-2.1-.3-1.4-.5.8-.3,1.9-.3,2.7,0s0,.5-1.4.5h.2ZM900.3,617.5c-2.6.3-9.3,2.2-14.6,4.2-14.4,5-13.8,4.8-13.8,2.9s4.8-5.8,9.6-8.3c1.3-.6,6.2-1.6,11-1.9,9.4-.8,12.2-1.9,10.1-4.3-1.9-2.4-16.2-1.9-23.5.6-4.5,1.6-5.9,1.8-5.9.8,0-1.9,5.9-3.5,19.7-5.6,16.2-2.4,16.5-2.6,16.5-4.3s-1.8-1.6-8.5-1.8q-8.5,0-4.5-1.6c4.8-1.8,24.6-2.1,34.4-.6,3.7.6,11.2,2.1,17,3.4,13.3,2.9,37.4,4.3,46.4,2.9,15.8-2.6,30.9-1,37.3,4.3,5.6,4.5,10.4,28.5,5.3,26.2-8.8-3.7-33.9-6.1-35.4-3.4-.3.6,3,1.6,7.7,2.4,9.8,1.6,22.7,5.4,23.7,6.9.3.6,1.6,1.1,2.9,1.1s2.1.5,2.1,1.3c0,1.9-10.6.5-13-1.6-1.6-1.4-4.5-1.8-13.9-1.8s-13.9-.5-16.2-1c-2.4-.5-12.2-.6-22.4,0-13.8.6-19.8.5-24.3-.6-3.4-.8-9.8-2.4-14.2-3.4-6.1-1.4-12.3-1.9-23.5-1.9s-16.5.5-24.8,3c-11.2,3.5-13.1,3.7-13.1.8s5.9-5.8,20.8-11.2c8-2.9,11.7-4.6,11.8-6.1.3-1.6-.2-1.8-4.3-1.3l-.3-.2ZM875.8,572.1c1.8-.3,5.1-1.4,7.2-2.4s6.6-2.1,9.6-2.4c5.3-.6,9.1-2.9,7.5-4.5s-3.5-.6-7-.5c-8.8.3-5.3-1.6,5.9-3.2,4.6-.6,9.3-1.6,10.2-2.1,5.1-2.7,47.7-3.2,59-.6,4.5,1,10.6,1.8,13.8,1.8s8.2.8,11.2,1.8,10.7,2.9,17.1,4.2c6.4,1.3,12.2,2.9,12.5,3.2,1,1-11.4,1-16-.2-2.1-.5-5.1-.5-6.6,0l-2.7.8,2.7,1.1c1.4.6,7.4,1.9,13.1,3,16.6,3,20.8,4,20.8,5.3s-1,.8-2.4.3c-7-2.2-29.1-6.1-31.4-5.6-4.6,1.1-1.8,3.4,7,5.1,17.8,3.7,28.8,8.3,29,12.3,0,1.1-3.5,0-8-2.2-3.8-1.9-28.2-3.5-54.6-3.5s-21.3-.6-27.4-1.8c-7.2-1.4-13.6-1.6-30.1-1.1-22.1.6-29.3,1.9-39,6.7-5.4,2.7-6.6,2.7-6.6-.8s.6-1.9,2.1-1.6c1.3.3,2.9-.3,4.2-1.6,3-3.4,8-5.1,17-5.9,14.4-1.3,17.1-4,5.1-5.1-9.1-.8-17.9.8-23.2,4.2l-4.3,2.9.3-3c.3-2.4,1.1-3.2,3.7-3.8l.2-.6ZM874.1,491.1c0-.6,1-1.3,2.2-1.8,1.3-.3,2.2-1.3,2.2-2.1s1-1.9,2.2-2.7c2.7-1.8,2.7-1,0,3.7-2.1,3.4-6.6,5.1-6.6,2.7l-.2.2ZM868.3,502.8c-2.6-1.9-5.6-4-6.7-4.6-1.8-1-1.8-1.3,1-3,5.6-3.7,11.7,1.1,11.7,9.1s-.3,2.9-5.9-1.3v-.2ZM849.1,540.4c-2.7-1.6-4-1.9-5.1-1-1.1,1-1.6.5-2.2-2.7-1-5.1,0-9.8,3.8-19.2,3.4-8,7.8-14.9,10.4-15.8,1.9-.6,9.9,6.2,10.7,9.1s0,2.7-5.1-.6c-6.2-4.3-7.4-1.9-1.9,4.5,6.2,7.2,5.9,11.8-.5,7.7-4.6-3-4.8,2.2,0,6.1,2.1,1.8,2.2,5.4.2,6.2-.8.3-2.9-.6-4.6-2.2-3-2.9-7.7-4.6-8.8-3.5s.6,3.2,5.4,8.3c2.2,2.4,4.2,4.6,4.2,5,0,1.3-2.9.5-6.4-1.6v-.2ZM847,549.4c-1.9-1.1-4.2-7.2-2.2-6.2,2.4,1.3,6.2,5.1,6.2,6.1s-2.2,1.1-4,0v.2ZM833.1,668.1c2.4,4.6,1.1,6.9-4.2,7.5-2.9.3-3.5.8-3.2,2.7.2,2.1-.3,2.2-4.5,2.2s-5.6-1-7-2.2c-1.3-1.1-3-1.8-4-1.3-1.6.6-1.6,1,0,3.7,4,6.2,5.4,7.8,6.9,7.8s1.1.5,0,2.1c-1.3,2.1-1.4,2.1-5.8-1.1-3.8-2.9-4.6-3-6.1-1.6-1.4,1.4-1.3,1.9,1.3,4.8,3.4,3.5,3.7,4.8,1.1,6.9-1.4,1.3-2.2,1-4.6-2.1-4.8-5.8-9.8-3.8-5.3,2.1,2.6,3.4,1.8,5.3-1.9,5.3s-2.9.5-3.4,1.1c-.3.6-2.6,1.1-4.8,1.1s-4.8.6-5.4,1.6c-.8,1-2.9,1.4-5.3,1.3-3.2-.2-4.2-.8-5.1-3.2-1.3-3.5.3-5.8,4.6-6.7,1.8-.3,4-1.9,5.1-3.7s3.4-4.5,5.1-6.1c2.7-2.6,3-3.4,1.9-5.3s-.8-2.7,1.3-5c1.4-1.4,3.4-2.6,4.2-2.2,1,.2,3.2-.5,5-1.4,1.8-1,5.9-2.6,9.3-3.2,6.4-1.4,9-2.9,15.7-8,4.6-3.7,5.8-3.2,9.1,3v-.2ZM838.1,570c-3.4,0-3.5,1.3-1.1,5.1,2.7,4.5,2.2,5.4-2.4,3.8-2.9-1-3.5-1-4,.6-.5,1.1.8,3,4.2,5.8,2.7,2.2,5.3,4,5.9,4s1.3.6,1.6,1.4c.3,1.1-.6,1.3-4.6.6-5.1-.8-6.6.3-3.7,2.7.8.6,3,2.4,5,4,1.9,1.6,4.2,3.8,4.8,5.1,1.1,2.1.8,2.1-4,1.8-7.2-.5-7.4,1.6-.3,5.3l5.8,3-5.8.3c-6.2.3-6.7.6-4,3.7,1.8,1.9,1.6,1.9-1.1,1.9-4.5,0-3.5,2.6,2.1,5.3,3.4,1.6,5,3,5,4.6s-.6,2.2-1.6,2.2c-3,0-2.9,1.9.5,5.1,1.8,1.8,3.7,4.5,4.3,6.2,1.1,2.9,1,3-1,2.4-4.5-1.4-4.5.8,0,5.6,2.7,3,4.2,5.4,3.8,6.6-1.1,2.9-3.4,1.9-6.1-2.4-1.4-2.2-3-5.1-3.7-6.2-.6-1.3-2.2-2.4-3.5-2.6-1.6-.2-4-3-7.4-8.8-5.4-9.1-5.4-9.6-5.3-30.4.2-16.8,2.1-28.6,5.8-35.7,4-7.7,6.7-9.6,10.4-7.2,3.2,2.1,3.5,6.1.6,6.1l-.2-.2ZM816.9,511.3c-1.8-1.1-1.1-3.5,2.4-10.6,5.1-10.2,13.4-20.2,19-22.7,6.2-2.9,7.7-2.9,11.8,0,4.8,3.4,5.8,4.5,6.7,7.2q1,3-6.1-.3c-3.2-1.4-6.2-2.4-6.9-2.1-.6.3,1,2.4,3.5,4.6,2.6,2.2,4.6,4.5,4.6,5.1,0,1.8-2.7,2.6-4.5,1.4-2.1-1.3-9.8-1.3-9.8,0s1,1.8,2.2,2.4c4.2,2.6,2.7,4.5-2.7,3.7-6.6-1-8,0-4.8,3.4,2.1,2.2,2.2,3,1.1,5.8-1.3,3.2-1.4,3.2-8.5,2.7-4-.2-7.7-.6-8.2-1l-.2.3ZM776.6,589.9c0-1.6,1-5,2.2-7.7,1.1-2.7,1.9-5.6,1.6-6.6-1.1-3.7-.6-14.1.8-19.5,4.3-15.4,13.1-28.3,21-30.7,1.8-.6,3.8-2.1,4.5-3.5,1.8-3.5,2.2-3.7,4.5-2.6,1.1.6,2.9,1.3,4,1.8,1.6.5,1.8,1,.6,3.7-1.8,4-2.7,4.6-6.2,3.7-3.4-1-7.8-.3-7.8,1s2.1,2.1,4.6,3.5c5.6,3.2,7.2,7.2,2.4,5.9-11-2.9-15.4.6-5.6,4.3,3.2,1.3,5.6,2.7,5.4,3.4-.2.6-1.1,1-2.2.6-4.3-1.1-7.4-.6-7.7,1.3-.2,1.1.5,2.2,1.6,2.6,6.1,1.9,8,3,8,4.5s-1.1,1.9-6.6-.3c-4.6-1.9-9.9-1.3-9.9,1s2.2,1.9,4.8,2.7c4.8,1.3,12.5,6.7,9.6,6.9-.8,0-3.8-.8-6.9-1.9-4.2-1.4-5.6-1.6-6.6-.6-1.8,1.8.3,4.2,4.3,5,1.6.3,4.2,1.4,5.6,2.6,2.4,1.9,2.4,2.1.5,4.5l-2.1,2.4-4.2-2.9c-2.2-1.6-4.6-2.6-5.3-2.1-2.1,1.3-1,4.5,2.4,6.2,4.8,2.7,3.5,4.6-2.7,4.5-2.9,0-5.1,0-5.1.3s1.3,1.4,2.7,2.7c3.2,2.4,3.4,4.8,1.1,10.2l-1.6,3.8-6.1-4c-4.8-3.2-6.1-4.5-6.1-6.9l.3.3ZM696.5,636.9c0-3.7,17.4-14.1,23.7-14.1s6.2-1.8,4.8-4.5c-.8-1.6,0-3.2,4.6-7.8,8.8-9.1,20.5-12.6,33-9.6,5.1,1.1,9,4.3,7.4,5.9s-1.4,5.9.3,6.4c1.8.6-2.1,5.1-4.3,5.1s-3.8-1.4-6.7-3.4c-4.6-2.9-5.4-3-6.9-1.6-1.4,1.4-1.3,1.9,1,4.5,3,3.2,2.7,3.4-2.7,1.1-6.7-2.9-11.4,0-5.3,3.2,1.6.8,4.2,2.9,5.8,4.5,2.2,2.4,2.4,3,1.1,4-2.4,1.4-2.9,1.3-4.8-1.8-1.4-2.2-2.4-2.7-4.8-2.2-1.8.5-3.8,0-5.1-1-3-2.4-6.9-2.1-8.2.5-.6,1.1-2.1,2.2-3.4,2.2-3.2,0-2.6,3,1.1,5,1.8,1,3.4,2.2,3.4,2.7,0,1.9-6.2,1.1-8.2-1.1-1.1-1.1-3-2.2-4.2-2.2-1.9,0-2.1.5-1.6,3.7.6,4.2-.5,5.8-6.4,8.8-4.6,2.4-5.3,2.2-9.8-2.7-2.2-2.4-4-5-4-5.6h.2ZM624.1,648.7c2.7-2.1,7.4-5.3,10.7-6.9,5.4-2.7,6.6-2.9,16.5-2.4,5.8.3,13.6,1,17.1,1.6,3.7.6,9.4,1.4,12.8,1.9,6.6.8,7.7,1.6,9,5.6.5,1.8.3,2.4-1,2.4s-1.9-1-2.2-2.1c-.8-2.6-3.5-3.7-4.6-1.9-.5.8-.8,3.4-.8,5.8,0,3.8-.5,4.6-3.8,6.2-2.1,1.1-4.2,1.9-4.5,1.9s-1.6-1.8-2.9-4c-2.7-5.1-5.4-7-6.9-4.8-.6,1-.8,2.7-.3,3.8,1.1,3.7,1,4.3-.6,4.3s-2.1-2.1-2.9-5.3c-1.6-6.1-3-7.8-5.4-7-1.3.5-1.6,1.8-1,6.2.5,4.5.3,5.6-1,5.6s-1.9-1.8-2.6-4.6c-.8-3.5-1.6-4.6-3.2-4.6s-2.2.8-2.6,4.2c-.3,4-.5,4.2-3.8,3.8-2.7-.3-3.7-1-4.2-3-.8-3.2-4.3-4.3-5.8-1.8-1.1,2.1-6.2,2.2-9,.3-1.9-1.3-1.6-1.8,2.9-5.3h0ZM579.3,637.7c1-2.7,9.4-3.4,17.6-1.4,4.3,1,10.9,2.1,14.7,2.6,3.8.3,7.2,1.1,7.5,1.8.8,1.3-2.7,5.3-4.6,5.3s-2.1,1.3-2.7,2.7c-1.8,4-5.3,3.7-5.3-.6s-2.9-5.6-5-2.9c-1.9,2.6-3.2,2.2-5.4-1-1.4-2.1-2.2-2.6-3-1.6-.6.6-2.1,1.3-3.2,1.3-3.2,0-10.9-4.3-10.4-5.8l-.2-.3ZM539.8,646.7c2.9-1.8,25.6-8.6,29-8.6s1.6.6,1.6,1.6-2.1,1.9-5.4,2.7c-5,1.1-16.6,6.6-19.2,9-1.8,1.8-4.3,1.1-5.9-1.3-1.3-1.9-1.3-2.6,0-3.4h0Z"/>
    <path class="st0" d="M1020.5,618.3c10.4,2.2,14.9,4.3,14.9,7.2s-1.6,1.8-14.2-1.6c-4.5-1.3-9.6-2.2-11.2-2.2s-4.8-.8-7-1.6c-3.4-1.4-3.7-1.9-2.6-3.4,1.6-1.9,4.3-1.6,20.2,1.8v-.2Z"/>
    <path class="st0" d="M1005.3,607c9.4-1,22.4.6,23.7,2.9.5.6.8,2.2.8,3.4q0,2.2-10.9-.3c-2.7-.6-7.8-1.1-11.5-1.1-14.1,0-15.5-3.4-2.1-4.6v-.2Z"/>
    <path class="st0" d="M950.1,663.6c5,1,13.6,2.1,19.2,2.6,7.5.5,10.1,1.1,10.1,2.2,0,1.8-5.1,1.9-18.7.5-9.8-1-16.8-2.6-19.5-4.3-3.4-2.2.3-2.6,9-.8v-.2Z"/>
    <path class="st0" d="M928.6,604.6c2.9.5,7.2,1,9.6,1.3s10.1,1.3,17,2.2c14.4,2.1,16.3,2.2,23,2.4,5.4,0,9.1,1.8,7,3.2-2.7,1.8-51.7-3.2-58.2-5.8-5.6-2.2-4.6-4.2,1.6-3.2v-.2Z"/>
    <path class="st0" d="M956.6,568.6c11,.8,11.8,1,11.8,3.4s-1,1.8-8.8,1.1c-10.1-.8-12.2-1.4-12.2-3.5s1.9-1.4,9.1-1h0Z"/>
    <path class="st0" d="M964.6,561.4c2.4.6,8.8,1.4,14.2,1.9,7,.5,9.9,1.1,10.2,2.2.5,1.6-6.2,1.4-34.9-1-6.9-.6-19.4-.8-27.5-.3-14.7.6-21.9,0-20-1.8,2.7-2.6,49.3-3.4,58.1-1l-.2-.2Z"/>
    <path class="st0" d="M949.6,616.6c2.9.5,9.8.8,15.4,1,8.3,0,10.1.5,9.9,1.8-.2,1-1.6,1.9-3,2.4-4.3,1.1-6.1,1.1-15.2-.6-11.2-2.2-12.3-2.6-12.3-4s1.8-1,5.3-.3v-.2Z"/>
    <path class="st0" d="M967.5,672.9c.6.6,1,1.6.5,2.2-.3.5-4,.6-8.3,0-9-1-12.2-1.8-12.2-3.2s18.4-.6,20,1Z"/>
  </g>
  <path class="st1" d="M745.9,943.3c6.6,6.6,7.7,7.2,9.6,5.8,2.1-1.4,2.1-1.9-.3-9.1-1.6-5.1-1.9-8-1.1-8.8,1.3-1.3,83.7-1.3,89.9,0,3,.6,3.4,1.1,3.4,6.6s2.9,9.3,5.9,4.6c1-1.6,2.9-4.2,4.3-5.8l2.4-2.9,3.2,2.6c4.2,3.4,8,2.4,7.2-1.8-.3-1.6-1.1-3.4-1.6-3.7-3.7-2.2,5.4-8.8,9.3-6.7,2.4,1.3,5.8.5,34.4-7.7,12.5-3.5,23.4-6.6,24.3-6.6s1.4.8,1,2.1c-.3,1.1-1,4.2-1.3,6.6-.6,4.2-.5,4.5,2.1,4.5s5-2.2,9.6-7.2l6.7-7.2,4.5,3.4c2.6,1.8,5.9,5,7.7,6.9,2.7,3,3.4,3.4,5.1,1.9,2.6-2.2,2.4-3.5-1.1-11.2-1.6-3.7-2.7-7.4-2.4-8.2.3-1,2.6-2.9,5-4.3,4-2.6,4.2-2.9,2.6-5.4-1.3-1.9-3.2-2.7-7.2-3-5.3-.3-5.8-.6-9.9-7l-4.3-6.6-.6-28.6c-.5-19.8-.2-28.6.6-28.6s2.9,1.4,5,3.2c5.4,4.6,6.9,2.6,4.3-6.4-2.7-9.4-2.6-9.6,2.9-11,2.6-.6,4.8-1.6,4.8-2.1,0-1.4-7.7-6.2-9.9-6.2s-2.9-1.8-4.2-3.8c-1.9-3.5-2.1-7.5-1.9-41.6.2-45,1.1-59.7,3.5-60.6,1-.3,3.7,1.3,6.6,4.3,4.2,4.2,5.1,4.8,7.2,3.7,1.6-.8,2.1-1.9,1.6-3.4-.5-1.1-1.3-4.6-1.9-7.8s-1.3-6.2-1.6-6.6c-.8-1.3.6-2.9,4.8-5.9,4.2-2.9,4.3-7.4.3-7.4s-2.2-.8-2.2-2.4c0-2.6,6.1-19,12-32.3,3.4-7.5,9.6-23,20.8-51.4,16.8-42.4,27.4-63.4,32.2-63.4s3.5,1.9,5.4,4.2c3,3.8,3.4,4,5.4,2.2,1.1-1.1,1.9-2.7,1.6-3.8-.3-1-.8-3.8-1.3-6.4-.6-4.2-.5-4.6,2.7-5.8,4.8-1.6,5.8-4.6,2.4-7-2.4-1.8-2.6-2.1-.8-5.6,1-1.9,4-6.2,6.4-9.4,2.6-3.2,5.8-7.8,7.2-10.1,1.4-2.4,3.7-5.3,5-6.4,2.4-2.1,2.6-2.1,6.9,1.3,2.6,1.9,4.8,3.7,5.1,4.2.3.5,2.9,2.2,5.6,4,3.5,2.2,5.9,2.9,8.2,2.4,3.2-.8,3.7-1.6,1.9-3.5-2.1-2.2-9.8-17.3-9.8-19,0-3.4,20.2-16,22.9-14.2.5.3,1,2.4,1,4.6,0,5.9,2.9,5.3,6.4-1.6,1.1-2.1,2.4-3.8,3-3.8s2.7,1.9,4.5,4.2c2.2,2.7,4.2,4,5.3,3.5,1.6-.6,1.6-1.3,0-6.6-2.2-7-2.1-7.5,9.9-15.5,4.6-3.2,11.7-8.3,15.8-11.5,4-3.2,12.5-9.1,18.6-13.3,27.5-18.6,45.4-30.1,46.4-30.1s1.1,2.7,1.1,5.9c0,5.4.3,5.9,2.7,5.9s3.8-1.4,5.3-3.4,2.9-2.9,3.4-2.6c.5.5-.5,5-1.8,10.2-1.4,5.1-3.4,12.6-4.3,16.6-2.1,8.8-5.9,20-9,25.9-2.2,4.5-5.6,5.8-15.7,5.8s-5,.8-5.8,1.8c-1.1,1.4-.5,2.2,3.7,4.3,2.9,1.4,6.7,3.7,8.5,5q3.4,2.4,2.6,11.8c-.8,9.1-.6,9.4,1.8,9.4s3.4-1.3,4.5-3c1.1-1.6,2.4-3,2.9-3,2.4,0,4.2,12.3,4.2,29.9v18.6h-5.3c-7.2,0-8,3-1.4,5.8,2.6,1.1,5,2.4,5.3,2.9.3.5-.2,4.2-1.3,7.8-1,3.8-1.4,7.2-1.3,7.5,1.3,1.3,4.6-1.3,6.4-4.5,1.4-2.9,2.1-3.2,4-2.2s3.4,2.9,4.8,4.8c2.1,2.9,3,3.4,4.8,2.4,1.9-1,2.1-1.8,1-5.1-2.6-8.2-2.6-8.6,1.3-10.2,2.9-1.3,3.7-2.4,3.7-5.1s-.3-3.5-5.3-3.5-5.8-.6-6.7-1.8c-3.4-4.2-8.5-41.1-6.1-44.8,1-1.4,1.4-1.4,3.4.3,2.4,2.1,6.2,1.6,6.2-.8s-.8-4-1.8-7.2c-1.8-5.6-1.6-6.1.8-8.6,1.4-1.4,4-3.4,5.9-4,1.9-.8,3.5-2.6,3.8-4.2.5-2.7,0-2.9-6.6-3.7-6.9-.8-7.2-1-9.3-5.8-1.3-2.7-2.2-6.9-2.2-9.4,0-4.8,9-43.4,10.7-46.4.8-1.4,1.9-.8,5.6,2.7,4.2,4,8.3,5.6,10.1,3.8.3-.3-.6-3.8-2.2-7.8-3.4-8.2-3.2-11.8.3-13.6s6.1-4.5,7-7.5c.8-2.4.5-2.6-3.8-2.6-9.4,0-11.7-1-14.6-6.9-5.1-10.6-12-29.9-12-33.9s.8-2.2,1.8-2.4c1.6-.3,1.4-1.1-.6-5-1.3-2.6-2.7-6.9-3.2-9.6q-.6-5.1,5.6-9c4.5-2.7,6.1-4.3,5.4-5.8-.3-1-.8-2.4-.8-3.2s-2.7-1-8.3-.6c-9.4.8-9.9.5-11.2-8-.8-4.8-3.7-9.1-6.2-9.1s-1.9,3.4-2.7,8.6c-.6,4.6-1.9,9-2.9,9.6-.8.6-5.4.8-10.2.3-8.3-.6-35.2-5.9-37.4-7.2-1.9-1.1-1.1-4,1.3-4.6,1.6-.5,2.2-1.6,2.1-3.4-.2-2.2-1.3-2.7-6.2-3.2l-5.9-.6-2.1-7.2c-2.1-6.9-4-9.4-5.9-8.3-.5.3-1,1.4-1,2.6,0,3.7-2.4,10.9-4.3,12.8-1.4,1.4-3.2,1.6-7.7,1.1-5.3-.6-5.9-.6-5.9,1.6s1.3,2.9,3.5,3.8c5.8,2.4,9,6.6,8,10.7-.5,2.1-1.1,5.3-1.4,7.2-1.1,5.1,1.4,4.6,7.2-1.8,2.7-2.9,5.4-5.4,6.1-5.4s3,1.9,5.6,4.2c5,4.8,8.8,4.6,7.8-.2-.3-1.6-.2-3,.2-3.4.5-.3,6.1.5,12.6,1.6,8.5,1.4,12.3,2.7,13.8,4.3,1.1,1.3,4.6,4.3,7.8,6.9l5.9,4.5.6,9.8c.5,9,.8,9.8,3.4,9.9,1.9,0,2.7-.5,2.7-1.9s.5-2.2,1.3-2.2,2.9-2.4,5.1-5.4l3.8-5.4,2.7,3.4c4.2,5.3,8.8,19.2,9.4,28.5.5,7.4.2,9.1-2.4,13.8-2.7,5.1-3.4,5.4-9.3,6.2-15.5,2.1-17,2.9-10.9,5.6,4.2,1.9,12.3,8.3,12.3,9.8s-9.3,7.2-20.6,14.9c-11.4,7.5-24.3,16.3-28.8,19.5-24.6,17.4-38.9,26.6-42.2,27.2s-4,.2-7.7-5c-2.2-3.2-4.6-6.1-5.3-6.6-2.1-1.4-4.3,1.9-4.6,6.6-.3,5.4-1,5.9-8.3,7.5-7.8,1.4-8.5,3.7-2.2,6.2,2.7,1.1,5,2.4,5,2.9,0,2.4-15.8,5.1-21,3.7-3.8-1.1-10.6-10.7-12.3-17.6-.6-2.4-1.8-3.5-3.2-3.5s-2.6,1.4-3.5,8c-.8,4.3-1.8,8.3-2.1,8.8-.5.5-4.2,1-8.3,1-9.9.3-10.2,2.2-1.6,8.5,7.5,5.4,7.7,6.1,4.8,20.5-2.1,10.1-5,16-11.8,24-4.8,5.6-6.9,5.4-8.2-.6-.6-2.9-5.1-7.2-6.2-6.1-.2.2-.6,2.9-1,6.1-.8,7.2-1.4,8.2-5.3,8.2s-5.3.3-7.7.8c-5.6,1-5.6,3.7-.2,6.4,2.1,1,5,2.7,6.4,3.8l2.9,2.1-4.8,9.9c-2.7,5.4-6.2,14.2-8.2,19.5-1.8,5.3-3.7,10.1-4.2,10.7-1.1,1.4-11.5,25.4-13.8,32-.8,2.4-2.4,6.2-3.4,8.3s-3.4,8.6-5.3,14.6c-8.6,26.2-23,57.3-25.4,54.7-1.9-2.1-5.9-10.6-5.9-12.6s-.8-2.6-1.9-2.9c-3.5-1.3-5.8,1.4-6.6,8-.5,3.5-1.3,6.7-1.8,7.4-.6.6-4.5,1.1-8.5,1.3-4.2,0-7.8.8-8.3,1.4s2.6,4.3,6.4,7.8l7.2,6.7-2.6,5.6c-1.4,3-3.4,6.4-4.2,7.5-.8,1-1.3,2.7-.8,3.7.5,1.4,1.4,1.4,4.2.5,1.9-.6,3.8-2.1,4.2-2.9.3-1,1.3-1.8,2.1-1.8s1.3,10.2.6,42.9c-.6,35.7-1.1,44.3-3,51.4-1.1,4.6-2.7,9-3.2,9.6-.6.6-3.8,1.3-7,1.4-7.7.5-8,3.2-.6,5.9,2.9,1.1,5.6,2.9,5.8,3.8.2,1.1-1,5-2.7,8.6-1.8,3.7-3,6.9-3,7.2,0,1.3,7.4-.8,9.1-2.6,2.1-2.1,2.2-1.9,3,5,1.4,11.2.3,50.6-1.6,56.2l-1.6,4.8-8.6.3c-6.7.3-8.6.8-8.6,2.1,0,2.1,3.8,6.2,9.3,9.9,4,2.7,5.1,5.8,2.4,6.6-.8.2-8.2,2.2-16.5,4.6-8.2,2.4-21.6,5.9-29.6,8-13.1,3.4-14.9,3.5-16.5,1.9s-3-1.8-4.6-1.8c-5,0-6.6-1.3-9.8-7.4-3.8-7.7-6.4-7.4-8.6,1l-1.6,6.1-7,.8c-7.4.8-9.3,2.1-7.2,4.8.6.8,1,1.9.5,2.4-1,1-68.8,1-74.9,0-2.4-.5-4.5-1.1-4.5-1.6s1.8-2.9,4-5.3c2.7-3,3.8-5.1,3.5-6.9-.6-2.1-1.4-2.4-7.5-2.1-4.6.2-7.5-.2-9-1.4-3.7-3-9-12.2-9-15.7,0-5.9-6.6-7.5-7.7-1.9-.3,1.4-1,5-1.4,7.8-.5,2.9-1.6,5.4-2.2,5.8-1.6.5-37.9-36.5-45.9-46.7-2.7-3.5-7-11.4-7-12.8s1.9-1.9,4.2-3.4c4.5-2.7,4.5-4.3-.2-6.2-2.6-1-2.7-1.4-1.6-3.8,3-6.1,11.4-17.6,12.8-17.6s4.3,2.9,7.7,6.6c6.1,6.4,6.1,6.6,8.2,4s2.2-5.1.6-16c-1-6.9-.6-7.4,8.3-10.7,7.4-2.7,7-2.2,5.1-5.3-1.3-1.9-2.7-2.6-7.4-2.6h-5.8l2.7-3.8c5.3-7.8,24.3-25.9,27-25.9s4-1.8,7-5.9c2.4-3.4,4.6-5.9,5.1-5.9s2.7,1.9,5,4.2c3.7,3.5,4.6,4,6.2,2.7,1.8-1.4,1.8-1.9,0-6.9s-1.8-5.4.3-6.6c3.2-1.8,7.7-6.4,7.7-7.7s-2.7-1.3-6.6-1.3h-6.6l-3-5.9c-1.6-3.2-3-6.7-3-7.8s-.6-1.8-1.4-1.4c-1.3.5-3.4,5.4-5.3,12.6-.6,2.6-3.7-.5-5.3-5.3-1.8-5.3.3-8.6,8.2-13.1,3.2-1.8,5.9-3.4,6.1-3.5.2,0-.3-1.3-1.1-2.7-1.1-1.8-3.4-2.6-8.2-3.2-6.1-.8-7.2-1.4-12.5-7l-5.8-6.2.8,4.8c1,5.6,2.9,8,8.8,11.5,2.4,1.4,4.5,2.7,4.8,2.9,1,.8-2.9,4.3-5.6,5.3-2.6,1-2.7,1.6-2.1,5.9.5,2.6.3,4.8,0,4.8-.5,0-3.2-2.1-6.1-4.8-5.8-5.3-6.9-5.8-8-2.7-1,2.7-5.3,8-6.1,7.2s2.7-7.8,4.3-8.8c1.3-.8-4.3-9.6-6.7-10.6-3.5-1.3-1.8-3.4,2.2-2.7,5.3,1,9.3-1.8,9.3-6.6s1.9-8.2,4.6-10.2c1.8-1.3,1.8-1.8,0-4.8-2.7-5-5.1-4.3-6.2,2.1-2.1,12.8-2.6,13.8-6.6,14.1-2.1.2-6.9-.2-10.6-.8-6.4-1.3-11.4-.3-11.4,2.1s2.7,2.2,5.9,4.2c3.2,1.8,6.4,4.3,7,5.4,1.1,2.1.6,2.2-5.6,2.7-3.7.3-14.1.5-23,.5s-16.8-.5-18.4-1.9c-1.4-1.1-4.2-1.6-8.3-1.3l-6.2.5-4.6-7.8c-6.1-10.4-7.7-10.2-7.7.5s.8,8.3-10.1,10.6c-7.4,1.4-6.7,4,1.8,6.7,6.7,2.1,7.2,2.6,7.2,5.9s-.5,5.4-1.1,7.5c-1.8,6.1,2.1,5,7.5-2.1,5-6.6,5.9-6.6,12.6-.5,5.1,4.6,8.2,2.9,4.5-2.6-1-1.3-1.9-3.7-2.2-5.1-1-3.5,2.7-5.1,12-4.8,3.7,0,16-.3,27.4-.8,23.7-1.1,22.7-1.8,17.1,10.2-1.9,4.2-3.8,9.1-4.3,10.9-.6,2.9-.5,3.4,2.1,3.4s5.1-2.2,9.4-6.6c3.5-3.7,7.4-6.6,8.5-6.6,1.9,0,4.8,2.9,9.9,10.2,1.3,1.8,3.8,3.7,5.6,4.3,1.9.6,3.5,1.9,3.5,2.7,0,2.7-9.8,13.9-24.2,28l-14.1,13.6-4.8-10.4c-2.6-5.6-5.3-10.4-5.8-10.4-2.4,0-4.6,4.6-5.4,10.9-1.3,11-1.1,10.9-9.9,9.9l-7.5-.8v3.4c0,2.6,1.4,4.6,5.9,8.8l6.1,5.4-1.8,6.6c-1,3.7-2.1,8-2.2,9.9-.8,5.3-3.5,10.6-5.3,10.1-1-.2-2.4-2.2-3-4.5-2.2-6.7-4.5-5.8-7.8,3.2l-3,8.2-7.7.6c-9.8.8-10.1,2.7-1.1,7.8l6.6,3.7-.5,7.2c-.3,4.5,0,7.5,1,8.2.8.5,3.4-1.4,5.9-4.3l4.6-5.1,4.6,4.5c2.6,2.4,6.4,5.3,8.8,6.2,2.6,1.1,10.9,8.8,21.8,20.2,25.4,26.6,25.8,27.4,14.6,24.8-11.4-2.6-9.1,2.7,5.1,11.7,2.7,1.8,5.3,3.8,5.6,4.8.3.8-1.3,6.1-3.5,11.5-2.2,5.6-4.2,10.9-4.2,12h0c0,3.7,3.8,1.8,11.5-5.6l7.7-7.4,7.4,7.4h-.3ZM1236.3,516.7c1,.8,1.8,1.9,1.8,2.6s-.8,1.1-1.8,1.1-1.8-1.1-1.8-2.6c0-2.1.3-2.2,1.8-1.1ZM1238.1,442.3c4.8.5,4.6,1.8-.5,5.6-2.9,2.2-4,4-3.8,5.8.2,1.4.2,2.1,0,1.3-.3-.6-1.6-1.9-2.9-2.7-2.7-1.8-5.3-.5-6.6,3.5-.3,1.3-1.3,2.2-1.8,2.2-1.3,0-1.4-1.3-1.1-5.9,0-2.4-1-3.8-5.4-6.6l-5.6-3.5,7-1.3c6.4-1.1,7.2-1.6,9.4-5.8,2.7-5.1,3.7-4.6,6.1,2.2,1.3,3.8,2.2,4.6,5.3,5l-.2.2ZM1151,267.3c-2.1,1.1-4,1.9-4.3,1.9-1.1,0-2.1-4-1-4.6.6-.3,1.4-1.6,1.8-2.7,1-2.6,3.2-2.7,3.2-.3s1,2.2,1.9,2.9c1.8,1,1.4,1.4-1.8,3l.2-.2ZM1226.2,290.7c0,1-1,1.4-2.9,1-3.7-.6-4.3-.2-7.4,5.6-3.7,6.9-5,6.6-4.3-1.3.3-4.2,0-7.8-1-9.6-1.6-3.2-4.2-3.8-5.1-1.4-.5,1.1-.8,1.1-2.1,0-2.2-2.1-1.1-2.7,5.9-3.2,6.7-.5,8-1.1,8.6-5,.6-3.2,2.7-2.6,3.2.8.6,4.5,2.4,5.6,7.2,5l4.3-.6-3.4,3.5c-1.8,1.9-3.4,4.2-3.4,5.1l.2.2ZM1223.2,354.3c.5-.5,3.4-.8,6.4-.8q5.6,0,7.2-5.3l1.6-5.3,2.6,3c1.4,1.6,3.4,4.8,4.5,6.7,1.8,3.4,2.7,3.7,7.2,3.8h5.1l-4.5,4c-4,3.5-4.5,4.3-3.7,8,.6,3.7.6,3.8-1.3,2.4-1.1-1-1.9-2.4-1.9-3.2,0-1.8-2.2-2.9-4.5-2.1-.8.3-2.7,2.7-4.2,5.1-4,7.2-6.4,5.9-4.5-2.4,1.1-5.3.8-7.4-1.6-7.4s-9.6-6.1-8.6-7l.2.3ZM1123,428.3c1.3,2.2,3,3.5,4.8,3.5,3,0,3.4,1.1,1.3,3.4-1.9,1.9-2.9,1.8-3.8-.3-.3-1-1.9-1.8-3.5-1.8-2.4,0-2.9-.6-2.9-4.2,0-5.1,1.4-5.3,4-.6h.2ZM1065.9,443.1c2.7,1,6.6-3.4,5.8-6.4-.3-1.3,0-3.4,1-4.5,1.8-2.4,1.9-2.2,4.2,6.4,1,4,2.1,5.3,6.1,7,5,2.2,6.2,5,3,6.1-2.6,1-2.2,3.7,1.1,10.6,1.6,3.2,2.7,6.1,2.6,6.4-.2.2-3-2.1-6.4-5-7.4-6.6-10.1-6.9-12.8-1.3-2.1,4.5-5.4,7.7-3.7,3.5.5-1.3,1.6-5.1,2.6-8.6l1.6-6.2-4-3.2c-4.2-3.2-4.5-5.8-.6-4.5l-.3-.3ZM1030.2,504.4c1.4-1.1,9.9-3,11.2-2.4.8.3,1.4,2.1,1.4,3.8s.3,4.2,1,5.3c1.3,2.7-.5,2.6-3.4-.3s-3.2-2.4-4.2-2.4c-1.9,0-6.9-3.2-5.9-3.8l-.2-.2ZM955.5,808.4c-.3,0-.8-.5-1.3-1.3-.5-.6-.2-1.1.5-1.1s1.3.5,1.3,1.1-.2,1.3-.5,1.3ZM956,800.1c0,.6-.6,1.1-1.3,1.1s-1-.5-.5-1.1,1-1.3,1.3-1.3.5.5.5,1.3ZM944.6,668.3c.3-.3,2.6-.5,4.6,0,3.7.6,4,.3,5.4-3.7,1.9-5.4,2.9-5.4,4.6-.2.8,2.2,2.7,5.1,4.5,6.4,2.7,2.1,2.9,2.6,1.6,4.3-1.3,1.6-1.3,2.6-.3,5,.8,1.6,1.4,3.2,1.4,3.5,0,1.3-2.2.3-2.9-1.1-.6-1.9-9.3-6.6-11.8-6.6s-8.3-6.4-7.4-7.5l.2-.2ZM950.5,791.8c1,0,1.8,1.1,1.8,2.4,0,2.4-1.3,3-2.7,1.6s-.8-4,1-4h0ZM942.5,891.6c4.3.8,6.4-.6,7.4-5.4,1.1-5.8,3-5.6,6.1.5,2.6,5.4,4.3,6.7,8.5,6.7s2.9,1.8-.3,4.2c-2.6,1.9-2.7,1.9-.6,7.4,1.1,3,1.8,5.8,1.4,6.2-.3.3-2.4-1.4-4.8-3.8l-4.2-4.5-5.8,4.8h0c-3.2,2.7-6.1,4.8-6.6,4.8s.3-2.7,1.6-6.2l2.4-6.2-4.3-3.5c-5.1-4.2-5.4-5.8-1-5l.2.2ZM858.5,916.1c1.4,0,3,2.6,3,4.6s-4.3,3.8-5.1,3.2c-1.1-1.1.6-7.7,2.1-7.7v-.2ZM747.3,735.3c4-.8,6.1,1.4,3.4,3.4-2.6,1.9-3,1.9-4.8.2-2.1-2.1-1.8-3,1.4-3.7v.2ZM640.5,716.4c-1.3,0-2.9.8-3.7,1.8-1.8,2.1-2.6,2.2-4.2.5-.6-.6-2.2-1.9-3.5-2.9-2.2-1.6-2.2-1.8.8-1.8s5.9-2.4,5-5.8c-1-3.8,1.8-3.2,4.2,1,1.1,1.9,2.4,3.5,2.9,3.5s1,.8,1,1.8-1,1.8-2.2,1.8l-.2.2ZM687,791c3.4-1.3,3.5-1.8,3.5-7.4s.5-6.1,1.1-6.1,2.2,2.6,3.7,5.6c1.3,3,3.8,7.4,5.4,9.4,1.9,2.6,2.4,4.2,1.6,5s-.8,4,0,9.1c.6,4.3.8,8.2.3,8.3-.3.2-2.6-1.9-5-4.6-2.2-2.9-5.1-5.4-6.2-5.8-1.3-.3-1.8-1.4-1.4-3,.5-1.8-.5-3.2-3-5.1-2.1-1.4-3.7-3-3.7-3.5s1.6-1.3,3.7-2.1v.2ZM674.2,853.9c-2.1,0-5.1-2.6-5.1-4.2,0-3.2-3.7-3.5-6.2-.3l-2.2,2.9.8-3.8c.6-3.5.3-4-2.6-5.3l-3.4-1.4,3.5-.8c2.7-.5,3.7-1.6,4.6-5l1.1-4.2,1.6,3.8c1,2.1,2.4,3.8,3.4,3.8,1.4,0,1.4.5.3,3.2-1.1,2.6-1.1,3.4.5,4.5,1,.8,2.6,2.6,3.4,4s1,2.7.5,2.7h-.2ZM734.1,933.4c-4.2,5.4-5.9,5.3-3-.3,4.3-8.5,4.2-9.1-1.1-12.8-5.9-4-6.1-5.4-.8-5.4s5.4-1.4,5.6-6.4c0-2.7,4.2-9,5.1-8,.3.3,1.9,3.7,3.7,7.5,3,6.7,3.2,6.9,7.8,6.9s4.8.5,4.8,1.1-2.6,3.2-5.6,5.9c-5.4,4.6-5.6,4.8-4,8.5,2.1,5.1.8,5.9-3,2.1s-5.8-4-9.4,1h0Z"/>
</svg>