<?xml version="1.0" encoding="UTF-8"?>
<svg id="Layer_1" xmlns="http://www.w3.org/2000/svg" version="1.1" viewBox="0 0 1920 1080">
  <!-- Generator: Adobe Illustrator 30.3.0, SVG Export Plug-In . SVG Version: 2.1.3 Build 182)  -->
  <defs>
    <style>
      .st0 {
        fill: #564a3c;
      }

      .st1 {
        fill: #dbb57f;
      }
    </style>
  </defs>
  <g>
    <path class="st1" d="M838.4,442.6c-1.2.7-3,.3-3-.6s-.9-1.1-2.1-1.7c-2.5-1.3-2.4-2.7.3-4.3,1.8-1.1,2-1.1,2.8,0,.8,1.1,1.1,1.1,2.3.4,1-.6,1.6-.7,2.1-.2.9.9-.9,5.4-2.5,6.3Z"/>
    <path class="st1" d="M822.2,432c-.5-1.2,2.5-3.4,3.6-2.8,1,.6.9,2-.1,3-1.1,1.1-3.1,1-3.5-.2Z"/>
    <path class="st1" d="M815.8,425.1c-.5-1.3,1.4-3.4,2.5-2.7.8.5,1,2.6.3,3.4-.8.8-2.3.5-2.7-.6Z"/>
    <path class="st1" d="M1222.6,616.7c1.1-.8,1.1-.8.3.3-.9,1.1-1.5,1.5-1.5.9s.5-.7,1.2-1.2Z"/>
    <path class="st1" d="M960.4,481.3c4.7-1.3,6.6-1.2,7.1.1.6,1.7-1.1,2.8-5.6,3.6-2.3.4-4.2,1.1-4.3,1.5-.5,1.3-2.9.7-2.9-.7,0-2.1,1.7-3.4,5.7-4.5Z"/>
    <path class="st1" d="M933.8,464.1c4-.4,15.2,9,13.3,11.2-1.4,1.6-2.2,1.2-6.8-3.5-2.5-2.5-5.3-4.7-6.5-5-2.7-.7-2.7-2.4,0-2.7Z"/>
    <path class="st1" d="M949.9,466.7c3-1.6,4.4,2.3,1.9,5.3-1.4,1.6-2.9.6-3.1-2-.2-2,0-2.7,1.2-3.3Z"/>
    <path class="st1" d="M970.3,492.4c.5.6.7,1.4.5,1.8-.6,1-3.3.3-3.5-.9-.3-1.6,2-2.3,3.1-.9Z"/>
    <path class="st1" d="M969.3,436.4c-1.3-1.3-1-3.3.4-3.3s2.9,1.3,2.9,2.9-2,1.7-3.3.4Z"/>
    <path class="st1" d="M933.8,493.6c1,.4,1.4,2.6.6,3.4-.9.9-2.8.4-3.2-.9-.4-1.6,1.1-3.1,2.6-2.5Z"/>
    <path class="st1" d="M971.6,460.5c1.4,1.1,1.2,2.5-.3,3.5-1.1.7-1.1,1-.5,2.1,1.2,1.9-.2,3.5-3.4,3.8-3.1.3-5.8,1.8-5.8,3.3s.4.9,1.8.3c2.8-1.1,4.4-.8,4.4.7s-.5,1.9-5.5,4c-2.1.8-4.1,2-4.5,2.6-.8,1.2-.6,1.2-2,.6-1.6-.6-1.3-2.5.6-4.4.9-.9,1.7-2.2,1.7-2.9,0-1.7,1.9-5.4,3.4-6.7.6-.6,1.3-1.7,1.4-2.4.2-.8,1.7-2.2,3.9-3.3,2.9-1.6,3.8-1.8,4.6-1.1Z"/>
    <path class="st1" d="M967.8,485.9c0-1.5,1.9-2.8,3.3-2.3.9.3,1.2,2.4.4,3.2-.2.3-1.2.5-2.1.5s-1.6-.4-1.6-1.3Z"/>
    <path class="st1" d="M963.1,462.4c2.8-2.1,3.1-13.8.4-14.6-4.2-1.3-8.4,1.9-9.2,6.9-.2,1.3-.6,2.4-.8,2.4-.2,0-1-1.2-1.6-2.6-1.1-2.5-1.1-2.6.1-3.6,1.6-1.2,4.8-5.9,4.8-7s2.8-6.8,3.9-8.2c1-1.3.6-3.1-.9-3.6-.5-.2-2.1.6-3.4,1.7-1.7,1.5-2.4,1.8-2.4,1.1s.5-1.2,1-1.4c.6-.2,1-1.1,1-1.9s.8-2.2,1.8-3c1.9-1.6,1.7-3.1-.5-3.1s-2.3-1.4,0-2.1c2.8-1,2.6-2.6-.4-4.6-2.3-1.5-2.7-1.5-5.8-.7-4.2,1.1-5.4,2.3-3.6,3.7.7.5,2,1,2.8,1,2.5,0,2.5,1.3-.1,2.4-3,1.2-3.1,2.3-.4,3.3,4.5,1.7,1.4,2.3-3.9.8-1.3-.4-1.5-.2-1.5,1.2s.9,4.6,2,8.1c2.7,8.4,2.6,8.9-.2,8.9s-5.1,2.2-5.7,7.5l-.5,4.4-3.4-2.8c-1.9-1.6-4-2.8-4.6-2.8-2.1,0-1.3,2,1.4,3.7,1.4.9,4.2,3.6,6.3,5.8,3.9,4.3,4.7,4.8,5.3,3.1.2-.6.2-1.5,0-2.1-.3-.9-.1-1,1-.7,1.9.5,4.2-.4,6-2.3l1.4-1.5,1.2,1.4c1.5,1.8,6.9,2.6,8.6,1.4ZM946.7,458.3c-.7-.1-1.4-.8-1.5-1.5-.2-.9.1-1.2,1-1,.7.1,1.4.8,1.5,1.5.2.9-.1,1.2-1,1ZM950,435.8c-.8,0-1.4-.3-1.4-.7s.4-.7,1-.7,1.2.3,1.4.7c.2.4-.2.7-1,.7ZM959.4,458.4c-.3,0-.6-.6-.6-1.3,0-1.4,1.8-2.5,2.4-1.4.5.7-.9,2.7-1.8,2.7Z"/>
    <path class="st1" d="M971.2,477c.8,1.3.8,2.3-.1,3.2-1,1-2.7.3-2.7-1.2s.5-1.6,1.1-2.1c.9-.7,1.2-.7,1.7,0Z"/>
    <path class="st1" d="M976.3,456.4c.8.6.8,1.2.3,2.2-.9,1.7-3,1.3-3.2-.6-.3-1.8,1.5-2.8,3-1.5Z"/>
    <path class="st1" d="M950.9,720.9c1.2,0,1.2-.2-.4-.7-1.9-.7-2.3-1.6-1.4-3,.3-.4,2.4-.9,4.8-1.1l4.3-.4,1.7,2.8c1.1,1.8,1.5,3.1,1.1,3.5-1.1,1.1-.7,3.4.7,4.3,1.9,1.2,1.7,1.9-1.4,5.2l-2.8,2.9,1.9.3c1.4.3,2,.8,2.1,2.1.2,1.5-.2,1.9-2.4,2.5-4.9,1.4-10.5-.4-8.5-2.8.7-.8.6-1.4-.4-3.1-1-1.6-1.1-2.4-.5-3.3.6-1,.5-1.5-.9-2.8-1.2-1.1-1.5-2-1.2-3,.7-2.2,1.7-3.2,3.3-3.2Z"/>
    <path class="st1" d="M955.5,742.7c1.5-.3,2.6-.1,3.2.5,1.3,1.3.6,3-1.4,3.3-2.8.5-3.1.5-4-.5-1.2-1.5-.4-2.8,2.1-3.3Z"/>
    <path class="st1" d="M964.2,648c7,.5,8.1,1,6.2,3-.5.5-1.8.7-2.9.5-2.1-.3-10.7-1.3-18.7-2.1-2.8-.3-4.2-.7-4.1-1.2.3-.9,7.7-.9,19.5-.1Z"/>
    <path class="st1" d="M950.9,779.4c2.5.7,3.6.7,5.6,0,1.9-.7,2.7-.7,3.4,0,1.2,1,.6,2.7-1.3,3.4-3.4,1.4-9.2.2-11.2-2.2-1.3-1.6,0-2,3.6-1.1Z"/>
    <path class="st1" d="M946.4,690.1c1.1.9,1.5,1.8,1.2,2.7-.3,1.1,0,1.6,1.4,2.1,1.8.7,1.8.8.6,1.6-1.1.8-1.1,1.1-.4,2,.9,1.1,5.5,1.6,6.5.6.2-.2,2.2-.5,4.3-.6,4.3-.2,6.2-1.7,5-3.9-.5-1-.3-1.5,1.1-2.6,1-.8,1.6-1.8,1.4-2.4-.2-.6.3-1.6,1.2-2.3,2.4-2,1.4-3.7-1.9-3.1-1.4.3-3.3,1-4.3,1.6-2.3,1.5-7.7,2.8-8.9,2.1-2.4-1.2-5.9-1.4-7.2-.4-1.3,1-1.3,1.1.3,2.4ZM954.2,691.2c.7-.3,2,.1,3.2,1,1.1.8,2.6,1.5,3.3,1.5.7,0,.3.3-.9.7-1.2.3-2.5,1.1-3,1.7-1.4,1.6-2.3,1.2-1.8-.7.3-1.3.1-2-.8-2.7-1.1-.8-1.1-.9,0-1.4Z"/>
    <path class="st1" d="M958.5,654.5c2.6,0,3.7.3,3.7.9s-.2,1.2-.5,1.4c-.5.5-3.8.1-6.5-.7-2.3-.7-.4-1.6,3.3-1.6Z"/>
    <path class="st1" d="M953.4,785.4c4.4.9,5.8,1.9,4.7,3.2-1,1.2-1,1.2-5.8,0-4.7-1.2-5-1.4-3.6-2.8.9-.9,1.6-1,4.7-.3Z"/>
    <path class="st1" d="M954.2,701.1c1.6,0,3.6-.1,4.3-.4,1.9-.6,3.6,1.4,2.6,2.9-.4.6-1.5,1.3-2.4,1.6-2.9.8-7.5-1.2-7.5-3.2s.7-1,2.9-1Z"/>
    <path class="st1" d="M973.9,439.6c-.9-1.1-.5-3.1.6-3.1s2.8,2.1,2.4,3.1c-.5,1.3-1.9,1.3-3,0Z"/>
    <path class="st1" d="M936.3,529.6c7.8,0,44.4.9,45.7,1.2.8.2,1.5.6,1.5,1s-3.7.7-9.1.7c-5,0-10,.3-11.1.6-3.7.8-29.5-.8-30.7-1.9-.9-.9.5-1.5,3.7-1.6Z"/>
    <path class="st1" d="M887,828.2h0c-2.4,1.3-2.9,1.3-3.4,0-.6-1.5,2.6-4.6,4.1-4,1.8.7,1.4,2.9-.7,4Z"/>
    <path class="st1" d="M957.7,762.3c-2.9,1.2-7.5.8-9.1-.6-.9-.9-.9-1,0-1.6.6-.4,2.1-.7,3.3-.7,1.3,0,3.2-.5,4.4-1.1,2-1,2.2-1,3.1.1,1.4,2,1.1,2.8-1.7,3.9Z"/>
    <path class="st1" d="M949.9,815.3c-.8-1.3-1.7-2.4-1.9-2.4s-.9-.7-1.4-1.5c-.7-1.1-.7-1.9,0-3.4,1.1-2.6,3.1-2.6,6.1,0,2.1,1.7,2.2,2.1,1.4,3.1-.7.9-.8,1.5-.2,2.8.4.9.6,2.2.4,2.7h0c-.7,1.8-2.8,1.1-4.4-1.4Z"/>
    <path class="st1" d="M955.2,765.4c1.7-.6,2.5-.6,3,0,1,1,.2,3.5-1.3,3.9-2.7.7-6.9.4-7.7-.5-1.1-1.4-.3-2.4,1.9-2.4s2.8-.4,4.1-.8Z"/>
    <path class="st1" d="M945.5,822.2c1.1,1.4,2.1,2.2,2.2,1.7.1-.5-.6-2-1.7-3.4-3-3.9-3.7-5.5-2.7-5.9.5-.2,1.7.2,2.7.9,4.5,2.9,6.9,9.3,3.8,10.1-1.1.3-1.3.9-1.2,2.5,0,1.2,0,2.5-.4,3-.3.5-1.1.8-1.9.8s-1.3-.5-1.3-1.9-1.1-3.5-2.5-5.5c-1.4-2-2.3-3.9-2-4.3.9-1.4,3-.7,4.9,1.8Z"/>
    <path class="st1" d="M948.8,772.4c2.1.7,2.8.6,5.5-.7,2.6-1.3,3.3-1.4,4.2-.6,1.6,1.3,1.3,1.9-1.5,3.4-3.3,1.8-6.8,1.8-9.7,0-3-1.8-2-3.2,1.5-2.1Z"/>
    <path class="st1" d="M970.5,473c0-1.6,1.3-2.9,2.9-2.9s1.6,2.4,0,3.4c-1.8,1.1-2.9.9-2.9-.5Z"/>
    <path class="st1" d="M1018.1,415c0-1.9,2-3,3.3-1.9.8.7.9,1.1.2,2.2-1,1.7-3.6,1.4-3.6-.3Z"/>
    <path class="st1" d="M895.1,414.3c-.9.5-1.9,1.5-2.2,2.2-1.1,2.9-4.5.8-3.7-2.3.6-2.3,4.9-4.8,6.7-3.8,1.8.9,1.4,2.8-.7,3.8Z"/>
    <path class="st1" d="M886.1,424.5c-1-.3-1.3,0-1.3,1s-.6,1.7-1.3,2.1c-.7.4-1.2,1.1-1,1.6.2.5-.1,1.4-.8,2.1-.6.6-1.4,1.1-1.7,1.1-1.2,0-2.6-2.1-2.3-3.3.2-.7-.3-2.8-1.1-4.6-1.7-4.1-2.1-6.5-.9-6.9.5-.2,1.4,1,2.3,2.9,2,4.6,3.3,3.3,1.5-1.5-.7-1.8,2-.8,3.1,1.2.6,1.1,1.4,2.1,1.8,2.1.7,0-.1-4.8-1-5.9-.9-1.1,0-3.1,1.3-2.9,1.2.2,2.3,2.3,3.6,6.5,1,3.3,0,5.3-2.2,4.6Z"/>
    <path class="st1" d="M1023.3,420.7c0-2.2,1.3-4.1,2.8-4.1s1.8,2,.6,4.2c-1,1.8-3.4,1.8-3.4,0Z"/>
    <path class="st1" d="M1034.4,433.6c-.9-.2-1.1-.8-1-3.2.2-2.9.2-2.9-1.3-2.1-1.3.8-1.6.7-2.4-.3-.5-.7-1.4-1.2-2-1.2-1.6,0-1.4-2.6.3-5.4,1.6-2.6,3.5-2.7,4.1-.3.2.9.6,1.6.9,1.5,1.6-.1,1.9,0,1.9,1.3s.6,1.5,1.4,1.8c1.5.5,1.5,1.9,0,6-.5,1.3-1.1,1.9-1.9,1.7Z"/>
    <path class="st1" d="M686.8,610.8c-2,4-1.6,5.3,1.6,5.3s2.4-.2,2.4-2,.5-2.4,1.1-2.9c1.7-1.4,2.7.2,3.1,5,.3,3.9.5,4.2,2.2,4.7,1.7.5,2,.2,3.4-2.3,3.5-6.9,10-10.8,18.2-10.9,5.2,0,6.1.4,4.7,2.6-2.2,3.3-.4,4.1,3.6,1.7,2.9-1.8,4.2-1.1,2.1,1.1-2.4,2.6-.9,3.5,3.4,1.9,3.5-1.3,4.7-1.2,14.4.8l1.6.3-1.6,1.7c-1.5,1.6-1.5,1.7-.3,2.1.7.3,2.6,0,4.4-.7,3.7-1.4,4.7-1.5,9.3-.5,3.4.7,15.8,1.8,19.9,1.8,1.1,0,5-1.4,8.6-3.2,4-1.9,6.8-2.9,7.2-2.5,1.1,1.1,2,.7,9.5-3.8,5.2-3.1,8.5-4.6,11.3-5.1,11.3-2.1,14.7-3.6,22.3-10,6.4-5.4,10.3-7.6,13.4-7.6s2.8-.2,5.3-6.9c2.3-6.2,4.9-11.2,6.7-13.4,2.9-3.3,4.3-7.5,5.6-16.8,1.6-11.8,2.2-14.4,3.7-17.2,2.5-4.7,3.6-5.6,6.1-5.2l2.3.4-.4,4.9c-.4,4.8-.2,6,2.7,12.9.4.9,0,1.3-2.2,1.9-4,1.1-6,3-8.7,8.4-1.9,3.8-2.4,5.7-2.4,8.6s-.3,4.3-.6,4.9c-.4.7-.8,5.6-.9,11l-.3,9.8-2.3,1.9-2.3,1.9,2.4.8c3,1,5.5,5.6,3,5.6s-2.1,1.3-1.3,2.1c.3.3,1.7.7,3,.9,1.8.2,2.7.8,3.9,2.7l1.5,2.4-2.3,2.5c-2.9,3-4.6,3.9-13.2,6.9-3.8,1.3-8.1,3.1-9.6,3.9-2.6,1.5-2.9,1.5-7.1.6-2.4-.5-5-1.1-5.9-1.3-2.3-.5-1.8,1,.6,1.8,2.9,1,6.7,4,6.7,5.2s-1.2,1.5-2.7,2.1c-3.2,1.3-3.4,1.8-.9,2.8l1.9.7-2.5,1.2c-1.7.8-3,2.2-3.9,4.2l-1.5,3h-8.5c-7,0-9.2.3-12.5,1.5-2.9,1.1-5.5,1.5-10,1.5s-7.6.7-4,2c3.7,1.3,2.2,3-2.3,2.7l-2.8-.2,1.6,1.7,1.6,1.7-1.6,1.1c-2.1,1.5-8.8,1.4-13.6-.2-4.5-1.5-5.4-.6-2.2,1.9l2.2,1.7-1.4,1.2c-.8.7-2.7,1.4-4.3,1.7-4.1.7-7.1,2.1-10.5,4.8-3.2,2.6-7.1,7.8-7.1,9.4s-1.1,3.6-2.4,6.7c-2.1,4.8-2.4,6.5-2.4,10.5,0,7.7,3.4,13.3,7.6,12.4,1.1-.3,2.2-.7,2.4-.9.2-.3-.3-2.3-1.1-4.5-1.3-3.9-1.3-5.9,0-5.9s1,1,1.5,2.2c.5,1.2,1.4,2.8,1.9,3.4,1.8,2.1,7.7,1.1,7.7-1.3s-.9-1.9-2-2.9c-2.8-2.6-3.4-4.6-2.7-9,.9-5.6,3.8-10.8,8.3-14.6l3.9-3.3,8.8-.3c4.8-.2,11.6-.4,15-.5,6.3-.2,6.8-.3,19.5-6.1.9-.4,2-.8,2.4-.8.8,0,5.9-1.6,8.7-2.6,1-.4,1.9-1.2,1.9-1.7s.5-.9,1.6-.6c1.2.3,3.7-.7,9-3.7,4.1-2.2,7.6-4.1,7.9-4.1s2.1-.7,3.9-1.5c4.3-1.9,9.4-5.9,13.3-10.6,1.7-2,4.7-4.9,6.6-6.4,3.3-2.6,5.1-5.8,5.1-9.2s.6-1.1,1.6-1.1c2.7,0,4.4-1.8,5.2-5.5.4-1.9.6-3.7.4-4-.2-.3-.9-2.9-1.7-5.9-1.3-4.9-1.3-6-.6-10.4.8-5.1.2-15-1.6-26.7-.6-4.2-.6-5.4.3-7.5.6-1.4,1.3-3.5,1.5-4.8.3-1.4,1.2-2.8,2.5-3.7,1.1-.8,2.7-2.9,3.4-4.6,2.6-6.1,7.6-15.8,8.1-15.8s-.5,3.9-2.4,9.3c-1.1,3.1-2.1,10.1-1.8,12.8.1,1-.3,3.3-.9,5.1-1.2,3.5-1.3,7.4-.9,34.8l.2,15.1,1.7.4c1.7.4,1.7.4,1.9,9.1.1,5.4.5,10,1.2,12.3,1.2,4.2,1.6,4.9,3.4,5.8,1.3.7,3.1,5.1,7.2,17.3,2.9,8.6,5.2,13.3,7.2,14.4,1.3.7,1.8,1.5,1.8,2.9,0,2.5,4.9,17.1,7.3,21.9,1,2,3.1,5.7,4.6,8.3l2.7,4.7-1.9,4c-2,4.2-1.9,6.1.3,6.1s1.7.8.2,3.6c-1.8,3.4-1.4,18,.6,22.1.8,1.7,1.7,3,2,3,.8,0,3.4,4.4,3.4,5.8s-1.5,2.6-3.3,4.4c-6,5.9-7.8,14.3-6.4,30.2.6,6.9,1,9,2.5,11.6,1,1.7,1.7,3.5,1.7,3.9,0,1.4-6.9,10.1-12.7,15.8-3,3-6.3,6.8-7.2,8.4-1.5,2.5-2,2.9-4.1,2.9s-11.1-2.9-19.6-6.4c-7.7-3.2-14.9-3.7-20.2-1.5-.7.3-1.3,0-1.8-1.1-.7-1.5-4.2-6.1-10.4-13.5-1.4-1.7-3.1-4-3.8-5.1-.7-1.2-3.3-4.7-5.7-7.8-3.9-5-4.5-6.1-4.6-8.9-.2-3.7-3.7-12.8-6.7-17.1-1.1-1.6-4.3-4.8-7.1-7.2-2.8-2.3-5.1-4.4-5.1-4.6s2.2-1.1,4.8-2.1c3.4-1.2,6.2-2.8,9.2-5.4,4-3.3,4.5-4.2,5.9-8.3,1.3-4,1.4-5.2.8-9.1-.6-4.2-.5-5.6,1-10.8.3-.9,1.9-3.3,3.5-5.3,1.7-2,2.9-3.6,2.7-3.6s1-2.5,2.7-5.7c1.7-3.1,3.3-6.9,3.6-8.4.7-3.8-1.3-9.9-4.3-13.7-3.2-3.9-10-8-13.7-8.3-1.6-.1-4.4-.5-6.2-.9-3.7-.8-6.7-.4-8.9,1.1-.7.5-2.8,1-4.6,1s-3.3.3-3.3.9,1.9,1,7.7,1.4c7.7.4,14.8,2.3,18.8,4.9,4.7,3.1,4.9,12.5.3,17.7-1.3,1.5-10.1,5.7-16.5,7.9-7.5,2.6-11.3,5.2-15.2,10.7-5.7,7.8-7.3,19.8-4,30.1,1.7,5.2,3.5,8.1,5.5,8.8.8.3.8.7,0,2.5-.5,1.3-.7,3.5-.5,5.4,1.7,15,6.1,26.8,11.6,31.3,1.4,1.1,2.6,2.5,2.6,3s.6,1.2,1.3,1.6c.7.4,1.8,2.2,2.5,4,.7,1.8,2,4.4,3,5.7,2.5,3.4,12,13.7,12.6,13.7s1.6,1,3,2.2c3.2,2.9,5.9,4,10,4s3.3.2,3.3,1.3,2.7,5,6,8.5c3.4,3.7,21.9,10.1,33.9,11.8,4.6.7,9.8-.8,12.9-3.5l2.5-2.3,1.7,2.5c.9,1.4,2.4,2.9,3.4,3.4,2.9,1.5,8.8,1,13.8-1,5.4-2.2,6.3-2.9,10-7.3,2.1-2.5,3.8-6,6.4-12.7,2-5.1,4-10.3,4.6-11.6.6-1.3,1.2-4.9,1.4-8.1.4-4.9.2-5.9-.8-7.1-1.3-1.5-1.2-1.8,1.2-3,3-1.5,4.8-6.6,5.4-15,1.2-16.7.7-23.2-2.2-30l-1.4-3.1,1.7-2.5c.9-1.4,2.7-6,3.8-10.2,2.5-9.1,2.4-9.8-3.1-20.6-1.9-3.8-2-4.4-.6-3.2.8.7,1.4.7,2.8,0,1.7-.8,1.8-1,1.3-4.2-.4-3.3-.3-3.6,2.6-7.7,3.9-5.5,5-8.1,9.4-21.8,3.4-10.6,3.8-11.5,5.8-12.6,4-2.1,4.6-3.4,9.4-19.7,1.3-4.4,1.8-5.3,3-5.3,2.3,0,3.5-2,4.7-8.2.6-3.2,1.6-7.4,2.2-9.3.6-1.9.9-5.3.9-7.6,0-2.8.2-4.7,1-5.8,1.8-2.7,2.7-17.9,1.5-24.4-1.3-6.7-1.3-6.7.7-7.7,2.1-1,2.1-1.4,0-6.8-2.9-7.2-3.5-22-.9-20.3.3.2,1.3,2,2.2,3.9.9,2,2.1,4,2.7,4.5.8.7,1.1,2.1,1.2,5.5,0,2.5.5,6.1,1,8,.8,2.6,1,6.7,1,16.8,0,8.8.3,15,.9,18.2.5,2.6,1.2,6.3,1.4,8.1.4,2.6,1,3.9,3.2,6.1,1.9,1.9,3.2,2.6,4.1,2.4,1.4-.4,2.4,1.3,4.1,6.6.4,1.4,1.3,2.8,1.8,3,.5.2,2.7,3,4.9,6.3,4,6,9.8,12.2,13.1,13.9,1.8.9,3.3,1.9,14.4,9.2,3.1,2.1,6.4,5,8.5,7.7,1.9,2.4,4.2,4.5,5,4.7.8.2,2.9,2.4,4.7,5.1,5.3,7.7,15.6,16.1,22.3,18.2.9.3,2.6,1.5,3.8,2.7,1.2,1.2,3.7,3.5,5.7,5.2,3.2,2.8,3.5,3.2,3.4,5.8-.1,2.4,0,2.8,1.2,2.6.7-.1,1.7-.7,2.3-1.2,1.1-1.1,1.4-.9,4.8,1.7,1.7,1.3,2,2,1.5,2.9-1.1,2.1-.7,3.3,1,3.3s1.9-.3,2.1-.7c.7-1.2,2.4,0,4.1,3,1.4,2.5,1.6,3.5,1.4,9.3-.1,3.6-.7,7.7-1.3,9.1-1.4,3.5-1.3,5.7.3,7.4,1.7,1.7,2.2,1.7,3.8,0,.8-.9,1.4-3,1.7-5.9.5-4.6,1.3-5.9,3.7-5.5,2.1.3,3.9,4.1,4.7,10.2.8,5.3.9,5.6,2.6,5.8,1.6.2,1.9,0,2.3-2,.3-1.2.5-4.8.4-7.9,0-4.7-.5-6.8-2.5-11.7-3.3-8.5-7.9-16.5-15-26-3.5-4.6-3.8-5.3-2.6-5.5,3.1-.5-1.4-5.9-5.5-6.6-1.5-.2-2.7-.7-2.7-1.1s-1-1.8-2.3-3.2c-1.3-1.4-2.9-3.6-3.6-5-1.8-3.3-7.2-6.9-10.5-6.9s-3.3-.5-4.2-1.3c-2.1-1.6-9.7-6-13.1-7.4-2.2-.9-2.5-1.4-2.8-3.7-.2-2.6-.2-2.6,2.2-2.8,1.8-.2,2.4-.5,2.4-1.4s-1.2-1.7-4.1-2.9c-5.9-2.4-8.6-6-4.3-5.6,1.6.1,2.3-.1,2.4-1,.2-.8-.7-1.6-3-2.7-2-1-3.8-2.5-4.7-3.9-2.5-4.1-7.1-8.8-10.5-10.4-1.8-.9-4-2.1-5-2.7-.9-.6-4-1.9-6.7-2.9-3.4-1.2-5.6-2.5-6.8-4-1-1.2-4.1-3.2-6.8-4.5-2.8-1.3-5-2.6-5-2.8,0-.3.5-1.2,1.2-2,1.1-1.4,1.4-1.5,3.4-.7,1.8.7,2.4.7,3.1,0,.7-.7.5-1.2-1.1-2.6-1.3-1.1-2.2-2.7-2.5-4.6-.5-2.6-.4-3,1.2-4.2,1.9-1.5,2.2-.9-2.7-5.4-2.3-2.1-2.4-2.9-.5-3.4,1.4-.4,1.3-.5-1-4-1.4-2-2.4-4.1-2.4-4.8s-.9-3.9-2-7.2c-1.1-3.4-2.4-8.2-2.8-10.7-.5-2.6-1.5-5.7-2.4-7.1-1.3-1.9-1.6-3-1.2-5,.3-2.2,0-2.9-2-5.3-2.3-2.7-2.4-2.8-2.7-10.8-.3-7.2-.2-8,.8-7.6.6.3,1.9.4,2.8.4,1.7,0,1.8.2,3.3,7.1.9,4.5,2.1,8.1,3.2,9.7.9,1.4,1.7,3.2,1.7,4s.4,1.9,1,2.3c.5.4,1.1,1.5,1.4,2.4.7,3,5.7,13.1,7.7,15.6,1.1,1.4,3.1,4.1,4.4,6.1,4.1,6.1,7.4,9.3,11.9,11.5,2.6,1.3,5.3,3.3,6.8,5.1,2.8,3.3,10.6,9,17.7,13,2.5,1.4,7.1,4,10.3,5.9,3.2,1.9,6.1,3.4,6.4,3.4s2.4.8,4.5,1.8c2.1,1,4.4,2.1,5.2,2.4.7.3,2.6,1.1,4.1,1.7,7,2.9,22.2,5,28.3,3.8,2.2-.4,6.7-1.1,10.1-1.5,3.4-.4,7.9-1.4,10-2,6.3-2.1,25.8-1.9,29.9.3,1.2.6,2.9,1.2,3.8,1.2.9,0,5,.1,9.1.2,7.5.1,7.5.1,7.8,1.8.1.9.6,2.1,1,2.6.6.8.9.7,1.7-.3.5-.7.9-1.9.9-2.8,0-2.6,1.8-1.8,3.4,1.4.8,1.6,1.4,3.3,1.4,3.7,0,1.3,2,2.4,3.4,1.9,1.7-.5,1.5-1.2-1.2-7.4-1.9-4.2-7.2-9.8-10.2-10.5-.9-.2-1.6-.6-1.6-.9,0-1.1-4.1-1.7-13-1.7-9,0-17.5-1-19.3-2.1-.5-.3-4.7-.5-9.3-.4-8.1.2-8.5.1-9.7-1.4-1.2-1.5-1.4-1.5-3.2-.5-2.8,1.5-6.6,1-7.5-.9-.5-1.2-1.1-1.5-3.1-1.3-1.3.1-4.3.4-6.5.5-2.3.2-8.2-.1-13.3-.6-8.8-.9-9.2-1-11.5-3.2-1.3-1.2-2.3-2.6-2.3-2.9s1.8-.5,4.4-.2c3.4.3,4.6.2,5.3-.6,1.6-2-.8-3.2-6.5-3.4-5.8-.2-6.6-.5-6.6-2.5s-.3-1.5,5.9,0c1,.2,1.7-.1,2.3-1.2,1.1-2,.2-2.8-3.2-3.2-1.4-.2-3.7-.6-5.1-.9-1.4-.4-3.7-.6-5.2-.5-3.7.1-4.3-.4-3.8-3.2.3-2.1.2-2.4-1.2-2.4s-2.7.4-4.2.8c-2.1.6-3.4.6-6.6-.3-2.2-.6-6-1.1-8.5-1.1-8.2,0-11.9-2.5-8.1-5.4,2.1-1.5,2.1-1.9.8-5.5-.3-.7.1-.8,1.8-.5,1.2.3,2.4.3,2.8,0,1.4-.8-.2-2.3-4.3-4.2-5.6-2.4-7.4-4.6-4.6-5.3,2.4-.6,1.7-2.9-1.4-3.9-2.8-.9-4.3-2.3-6.4-5.6-1.1-1.8-1.1-1.9.2-2.3.7-.2,1.4-.7,1.4-.9,0-.8-3-3.3-4.5-3.8-.8-.2-2.2-1.5-3.1-2.8-.9-1.3-3.9-4.7-6.6-7.5-3.5-3.6-5-5.7-5-6.9s.2-1.7.4-1.7,1.9,1,3.6,2.3c4.5,3.2,8.4,4.9,9,3.9.6-1,6.4.1,10.6,2,5.4,2.5,17.3,4.3,26.1,3.9,5.2-.2,8.5-.7,17.4-2.7,4.4-1,13.2-1.1,18.3-.2,3.3.5,3.6.5,4-.9.3-.8.1-1.9-.3-2.4-1.4-1.7,4.8-9.3,14.9-18.1,5-4.4,9.1-8.1,9.1-8.4s2.1-2.8,4.7-5.7c3.6-3.9,5.3-6.5,6.9-10.5,1.2-2.9,3.4-7.2,4.9-9.5,2.6-4.1,2.8-4.2,6.3-4.7,9.8-1.3,9-1.4,13.4,1.6,2.3,1.5,4.3,3.1,4.6,3.5.6,1.1,3.1.8,3.5-.3.2-.6,0-1.9-.3-3-.5-1.4-.5-2.2,0-2.8.6-.6.5-.8,0-.8-1.2,0-6.4-5.1-5.8-5.7.3-.3,1.9-.5,3.7-.5,2.8,0,3.4.3,4.7,2.1.8,1.1,1.3,2.3,1.1,2.7-.5.8,1.8,4.9,2.8,4.9,1.5,0,2.5-2,2.1-4.2-.6-3.2-2.5-6.9-4.5-8.9l-1.8-1.8-5.8,1c-3.2.5-9.3.9-13.4.9-7,0-7.8,0-11.7,1.9-2.3,1.1-4.6,2.4-5.1,3-.5.5-2.5,2-4.3,3.3-1.8,1.3-3.2,2.6-3.2,2.9,0,1.2-1.6.5-3.9-1.8-3.2-3.2-5.1-3.2-2.6,0,.6.7,1,2.2,1,3.2,0,1,.5,2.1,1,2.3,1.1.4.7,2.6-.8,3.9-.8.7-1.1.7-1.4,0-.4-1.2-2.7-1.1-3.2.2-.2.6-.4,2-.4,3.2,0,2.3-2.2,6.3-3.8,7-.6.2-1.3-.3-1.9-1.5-1.1-2.2-2.2-2.2-2.4,0-.5,3.9-1.7,6-4.5,7.8-3.9,2.6-10.5,9.5-11.1,11.4-.7,2.3-4.5,7.3-5.8,7.7-.7.2-2,.2-3,0-1.3-.3-1.8-.9-1.8-2.3s-.6-2.8-1.4-4.1c-1.1-1.8-1.8-2.2-3.6-2.2-1.2,0-3-.1-3.9-.4-1.5-.4-1.9,0-3,2-1.5,2.9-3.5,3.6-6.8,2.5-2.3-.8-2.4-.8-1.4-2.6,1.2-2.4,1.2-3.2-.1-4.3-.9-.8-1.3-.7-2.4.8-3.4,4.3-3.9,4.6-8.2,4.9-3.4.2-4.3,0-4.8-1-1.1-2-2.7-1.4-6.1,2.4-3,3.3-3.5,3.5-6.5,3.6-2.9,0-3.4-.2-4.5-2-2.1-3.3-2.2-3.7-1.3-4.8.7-.8.6-1.3-.7-2.7-.9-.9-1.9-1.7-2.4-1.7-1.6,0-2.3-1.5-1.6-3.2.6-1.4.5-1.9-.9-3.4-.9-.9-2.4-1.9-3.4-2.2-1-.3-4.2-3.1-7.2-6.3-6.3-6.7-10.9-10.8-15.8-14.1-3-2-3.5-2.6-3.6-4.9-.2-3-3.4-6.7-9.7-11.3-2.1-1.5-4.8-3.8-6.2-5-3.5-3.2-8.3-4.8-13.7-4.6l-4.5.2,2.4-2.1c1.3-1.2,2.9-1.9,3.4-1.7.6.2,2.1.5,3.4.6,1.4.1,2.8.8,3.5,1.7.6.8,2.4,1.8,4.1,2.1,2.3.5,4.5,2.1,10.3,7.3,10.7,9.7,13.6,12.2,15.3,13.1.8.4,2.6,1.4,3.9,2.1,1.3.7,3.4,1.3,4.6,1.3s2.2.3,2.2,1.1c0,1.4,1.3,2.5,5.6,4.7,1.8.9,3.6,2.3,4,3.1.5,1,1.2,1.3,2.3,1,.9-.2,3,.2,4.9.9,8.1,3.3,13.2,4.5,17.6,4,2.3-.3,5.6-.6,7.3-.8,13-1.2,16-1.7,17.2-2.8.7-.6,1.3-1.6,1.3-2.1s4.1-5,9-10c10.7-10.8,13.5-14.3,21.8-26.8,4.7-7.1,6.5-9.3,7.3-9,.6.3,1.7-.2,2.5-1.1.8-.8,2.8-2.2,4.5-2.9,2.7-1.2,3.4-1.3,6.2-.5,1.8.5,4.2,1.9,5.8,3.4,2.4,2.3,2.9,2.5,4.4,1.8,2-.9,2-1,.3-3.8-1.7-2.8-1.7-2.9,0-2.9s1.7-.7,2.2-1.7c.7-1.5.6-2-.6-3.6-2.8-3.8-4.6-4.6-11.4-4.9-9.8-.4-10.7,0-20.4,9.5-4.6,4.5-8.7,8.2-9,8.2s-1.6-.7-2.7-1.5c-1.5-1.1-2.2-1.3-2.8-.7-.6.6-.5,1.2.3,2.5,1.2,1.9,1.4,4.3.5,5.8-.4.7-1.3.8-3.2.5-2.1-.4-2.5-.3-2.2.5.8,2.1-1,6.8-3.2,8.1-1.9,1.1-2.3,1.2-3.6.3-2.5-1.6-3.2-1.3-2.7,1.4.4,2.3,0,2.8-5.8,9.2-6.3,6.8-8.4,7.9-8.9,4.7-.1-.8-.7-1.7-1.4-2.2-1-.6-1.5-.4-2.8,1.2-1.2,1.5-1.9,1.9-3.1,1.5-2.1-.6-1.9-1.9.6-4.5,4.3-4.5.8-6.5-3.7-2.1-2.2,2.1-3.2,2.7-4.4,2.4-.9-.2-1.5-.9-1.5-1.7,0-1.7-1-1.6-3.5.2-3,2.1-10.1,2.8-15.7,1.6-4.1-.9-4.9-1.4-8.8-5.4-3-3-4.2-4.7-3.9-5.5.8-2.2,2.4-1.9,4.9.7,2.3,2.4,2.6,2.5,5.8,2.2,6.2-.7,13.9-5.4,21.4-13.1,3.5-3.6,5.4-6.3,8.1-11.7,1.9-3.9,3.7-8.2,4.1-9.7.4-1.5,1.5-5.6,2.4-9.2,1-3.6,2.2-9.4,2.8-13,1.4-8.8,2.1-10.3,5.2-10.3s3.4-.3,4.5-.6c1.1-.3,3.7-1,5.8-1.5,7.3-1.7,12-7,17.1-19.5,4.5-11.1,4.9-13.4,5-31.6.1-13.2-.1-18.6-1-23.9-.6-3.8-1.5-10.4-1.8-14.6-.4-4.3-1-9.5-1.4-11.7-2.4-12.9-2.7-15.6-2.6-28,0-11.4-.2-13.5-1.2-15.3-1.3-2.2-3-2.7-4.4-1-.6.7-.7,2.1-.2,5,.3,2.2.5,8.1.2,13.2-.4,8.9-.4,9.3-1.9,9.5-1.9.3-2,1.3-.2,3.2,1.1,1.2,1.2,1.9.7,4.8-.9,4.9-3,12.4-3.8,13.5-.8,1-.8,1.6,0,3.7.9,2.7-1.8,7.1-4.3,7.1s-.4-1.9-.2-4.3c.2-3.2.6-4.5,1.6-5.2,1.6-1.1,1.7-3,.3-4.2-.6-.5-1-2-1-3.7s.4-3.2,1.7-4.4c2.2-1.9,2.2-2.7,0-3.7-2-.9-2.3-3.2-.6-5.7,1-1.6,1-1.7-.7-2.8-2.2-1.4-2.4-4.7-.4-5.8,1.9-1,1.8-3.3-.2-4.1-2-.8-3-4.5-1.6-6.1,1-1.2.7-2.7-.7-3.8-.9-.7-1.9-4.1-5.4-17.1-2.4-8.9-4.4-12.1-5.6-8.7-.2.7-.7,1.4-1,1.6-.3.2-.1,1.8.4,3.4,4.1,13.2,5.5,30.5,3.5,43.1-1.5,9.2-1.9,11-4.4,18.1-.8,2.2-1.4,4.6-1.4,5.2s-.4,1.7-.9,2.5c-.5.7-1.9,3.8-3.2,6.8-1.3,3-2.8,6.3-3.5,7.2-.6.9-3.1,5-5.4,8.9-13,21.9-14.5,25.1-14.6,32.3,0,2.8.1,5.7.4,6.6.5,1.3.2,1.7-1.4,2.4-5.2,2.2-5.1,4.7.1,4.7s4.5,1.5.8,4.2c-4,2.9-3.8,3.8.9,3.5,3.5-.2,3.9,0,4.8,1.6.5,1,2.6,3.3,4.7,5.1,3.6,3.2,3.6,3.3,3,5.6-.4,1.3-1,4.8-1.5,7.8-.8,5.4-1.9,9.2-2.6,9.2s-1.3-.8-2.3-1.8c-1.5-1.5-2.1-1.7-2.8-1-.7.7-.4,1.6,1.1,4.2,1.8,3.2,1.8,3.5.9,5.3-.6,1-1.5,2.5-2.1,3.2-1,1.3-1.1,1.3-2.7-.2-2.1-2-3.4-1.3-2.9,1.6.2,1.2,0,2.7-.3,3.3-.9,1.8-8.5,6.1-10.3,5.9-1.4-.2-1.6.1-1.8,2.6-.4,7.5-1.2,11.1-3.1,13.2-1,1.2-2.1,2.2-2.4,2.2-.8,0-5-4.1-5-4.8s.4-.8,2.9.7c3.3,2,4.6,1.8,4.6-.7s-.5-2.4-2.2-3.4c-1.2-.7-4-3.1-6.2-5.2-3.7-3.6-3.9-3.9-2.9-5,1.5-1.7,1.3-2.7-.6-3.5-2.2-.8-3.9-4.1-3.6-7,.2-2,0-2.3-1.8-2.6-2.1-.4-2.8-1.3-3.5-4.3-.3-1.3-.8-1.9-1.8-1.9-2.2,0-5.4-2.6-5.4-4.5s-1.1-2.8-3-2.5c-.7.1-3.1-.6-5.4-1.6-3.3-1.5-4.7-1.7-7-1.4l-2.9.4-.8-3.1c-1.3-5.3-5.7-7-10.8-4.2-2.5,1.4-3.3,1.6-3.8.9-.3-.5-2-.9-4.3-.8-3.4,0-4.1.3-6.3,2.4-2.4,2.3-2.5,2.3-3.3,1-.4-.7-2.2-2.8-4-4.5-2.6-2.5-4.1-3.3-8-4.3-2.6-.7-5.1-1-5.5-.8-1.5.9-.7,3.7,1.4,4.9,2.5,1.5,2.6,2.5.3,4-1.2.8-1.7,1.6-1.4,2.5.8,3-1.3.6-2.7-3.2l-1.5-4.1h-3c-1.6,0-3.4-.3-3.8-.6-1.6-1-3.6.2-3.6,2.1,0,1-.6,3.2-1.3,4.8-1.1,2.3-1.7,2.9-3.1,2.9s-1.7,0-.8-1.4c.9-1.2.9-1.7,0-3.5-1-2.1-1-2.1,1.8-4.8,1.6-1.5,2.8-3,2.8-3.3,0-1.7-2.4-2.7-6-2.7s-4.6.5-7.7,2.2c-6,3.4-8.2,5.3-8.7,7.5-.6,2.6-1.2,2.5-3.5-.4-2.3-3-5.2-3.3-7.9-.6l-1.9,1.8-1.2-1.9c-1.1-1.7-1.5-1.8-4.6-1.5-3.4.3-6.4,2-7.7,4.3-.4.7-.7,1.4-.7,1.5,0,0-2.7.5-6,.9-5.8.8-6.1.8-7.7-.7-1.9-1.8-3.1-1.3-3.1,1.4s-.5,2.3-2.8,3.4l-2.8,1.4-1.6-1.5c-2.2-2-3.3-1.2-2.7,2.1.4,2.3.2,2.9-1.3,4.4-2,2-3.5,2.2-4.1.7-.5-1.3-2.2-1.3-2.7,0-.2.6,0,2,.4,3.2.6,1.7.5,2.6-.4,4.5-1.2,2.6-2.1,2.9-3.1,1.1-.5-.9-.9-1-1.4-.4-.5.5-.5,1.6.2,3.8.5,1.7,1,5.5,1,8.6v5.6s-5.5,2.9-5.5,2.9c-3,1.6-5.6,2.7-5.8,2.6-.2-.2,0-1.7.5-3.4,1.1-4.2.1-6.3-3.5-7.8-1.9-.8-2.8-1.5-2.8-2.5s-.3-1.3-2.8-.9c-3.3.5-5.3-.4-5.6-2.4-.3-2-1.5-2.3-3-.8-1.1,1.1-1.3,1.1-3,0-1.2-.7-1.9-1.9-2.2-3.3-.2-1.5-.8-2.4-1.7-2.6-1.4-.4-6.3-3.7-10.1-6.9-2-1.7-2-1.8-1.3-4.6.7-2.5,1-2.9,2.7-2.9s2.4-.5,2.9-1.1c.8-1,.7-1.3-.9-2.6-1.6-1.3-1.8-1.8-1.4-4,.4-2.6,1.1-3.1,3-1.9,1.3.8,2.8-.3,2.8-2s-1-1.8-2.3-2.6c-1.9-1.1-2.4-1.9-3.1-5.2-1.4-7.1-8.9-19.7-15.4-26.2-3.5-3.5-10.1-12.5-10.1-14s-.3-1.3-.7-2c-.4-.7-1.6-4-2.8-7.4-1.9-5.4-2.2-7.4-2.5-15.5-.3-9.1-.3-9.4,1.5-13.5,1.6-3.5,1.7-4.4,1-5.3-2.9-3.5-8.1,2.9-10,12.4-1,4.8-1,5.5,0,7.1,2,3.4,2.1,6.7.4,9-1.7,2.3-1.2,4.3,1.3,4.6,1.8.3,3.3,5,2.3,6.9-1.1,2.1-.8,4.2.7,5.4,1.3,1.1,1.4,1.5.7,5.6-.4,2.4-.9,5.5-1.1,6.8-.7,4.5-1,5.5-1.7,5.5s-.9-.5-1.2-1.2c-.3-.7-1.4-2.7-2.5-4.6-1.2-2.1-2-4.1-1.8-5.3.2-1.5-.1-2-1.4-2.3-2.1-.5-3.4-3.9-2.8-7.3.3-2.1.2-2.6-1-3.3-1.8-1-1.9-3,0-5.5,1.8-2.5,1.5-5.1-.6-5.4-1.3-.2-1.6-.6-1.6-3.1s.4-3.2,1.4-4.1c1.6-1.4,1.7-3.1.4-4.8-1-1.3-.7-3.3,1.3-9.1,1.5-4,1-5.8-1.3-5.8s-2.1.8-3.7,3.6c-3.3,5.8-4.3,11.3-4.1,22.2.1,9.2-1.1,25.7-2.1,27.6-.3.5-.2,3.5,0,6.5.3,3.1.4,6.4.2,7.5-.2,1.1,0,2.6.6,3.4.5.8,1.3,3.2,1.8,5.3,1,4.9,10.1,23.5,14,28.7,3.5,4.7,7.4,8,12.3,10.6,2.8,1.5,4.4,1.8,8.2,1.8h4.8s3.3,6.7,3.3,6.7c1.8,3.7,3.6,7.6,3.9,8.6.6,1.6,1,1.9,2.2,1.6,2.5-.6,3.3.4,3.7,4.8.5,5.2,1.2,6.2,3.5,4.7,2-1.3,2.8-.6,3,2.8.1,3.3.9,5.5,2.1,5.7.6.1,1.2-.4,1.5-1.3.3-1.3.6-1.4,1.5-.6.6.5,1.1,1.7,1.1,2.8,0,2.5,1.6,3.9,3.1,2.7.8-.7,1.4-.6,2.7.2,1.5.9,3,3.7,2.3,4.1-1.2.8-15.8,4.7-20.1,5.3-8.2,1.1-12.6.4-17.3-3-2.2-1.5-4.7-3.4-5.7-4.3-2.9-2.5-8.6-5.8-12.2-7.1-2.6-.9-4.6-2.4-7.7-5.6-2.3-2.4-5.8-6.1-7.7-8.1-2-2-4.9-4.3-6.6-5.1-1.7-.7-3.6-2-4.3-2.9-1.7-2.1-5.8-4-7.8-3.5-.9.2-2.8,0-4.1-.6-3.3-1.4-12-1.4-14.7,0-2,1-6.8,7.7-6.8,9.5s2.1,3.9,3.2,3.9,1.2-.6,1.4-1.4c.6-2.3,1.6-.8,1.6,2.4s.2,3.2,1.8,3.7c2.8,1.1,3,.8,3-2.4s1.7-5.8,5.3-5.8c1.4,0,5.3,0,8.7-.1h6.1c0-.1,1.2,3.6,1.2,3.6,1.6,5.1,4.1,8.6,9,12.7,2.3,1.9,4.8,4.4,5.5,5.6.7,1.2,2.5,3,3.9,4.1,1.4,1.1,3.4,2.8,4.5,3.8,3.4,3.4,11.4,8.6,19,12.3,2.3,1.2,4,2.4,4.2,3.3.5,2.1,2.4,2.5,5.8,1.2,4.1-1.5,6.5-.5,4,1.6-2.8,2.3.3,3.7,3.8,1.7,2.2-1.3,4.8-1.3,4.8,0s-.9,1.3-2.1,1.8c-1.8.7-3.4,2.5-3.4,3.7s10.1-2.4,13-4.8c.6-.5,3.5-1,6.5-1.2,5.3-.3,11.9-2.5,15.9-5.1,2.7-1.8,5.9-2.3,8.2-1.5,1.9.7,2.6.6,5.3-.7,1.7-.8,3.9-1.7,4.9-1.9l1.8-.5-1.1,2.7c-1.9,4.4-6,8.6-13,13-6,3.8-6.9,4.2-9.5,3.9l-2.9-.3,1.7,1.4c2.1,1.7,1.4,2.7-2.5,3.2-6,.8-7.1,1.1-7.1,1.6s.9.8,2,1c2.1.5,3.9,2.1,3,2.6-.3.2-2.2.5-4.2.8-3.7.5-4.1,1.3-1.1,2.5,1.5.6,1.7.9,1.3,3.2-.2,1.4-.7,2.7-1.2,3-1.5.9-12.7-2.1-15.5-4.3-.4-.3-3.7-.7-7.3-.9-3.6-.2-7.4-.6-8.4-1-2.7-1-5.8-.8-6.2.4-.6,1.5-2.1,1.3-9.4-1.4-7.4-2.7-9.8-2.8-5.6-.2,3.9,2.4,5,3.9,3.7,4.7-1.3.9-5.8,0-9-1.5-2.6-1.3-5.3-1.7-5.3-.7s1.2,1.2,2.7,2c2.8,1.6,4.6,3.4,4,4-.2.2-1.6.4-3.2.5-2.8.1-2.9,0-4.8-3.3-1.4-2.5-4.2-5.3-10.9-10.8-6.5-5.3-9.5-8.3-10.9-10.7-1.1-2-2.7-3.7-3.8-4.2-1.1-.5-2.3-1.6-2.7-2.4-1.3-2.8-15.1-14.1-19.4-15.8-.8-.3-3.1-.8-5.1-1-2.1-.3-6.7-.9-10.4-1.4l-6.6-.9-5.4,2c-4.7,1.8-5.5,2.3-6.6,4.5-.7,1.4-1.4,3.6-1.6,4.9-.3,2.2-.2,2.5,1.5,3.3,1.6.7,2,.7,2.7-.3.5-.6,1.5-1.2,2.3-1.2,1.2,0,1.5.4,1.5,2.4s1.9,5.1,3.8,5.1,1-.7,1-2.2c0-4.7,3.7-7.3,11.1-7.7,3.1-.2,5.2-.6,5.9-1.3,1.4-1.3,2.1-.9,4.1,2.5,1.6,2.7,1.5,3-1.9,3.4-3.1.4-2.2,1.6,2.5,3.3,5.6,2.1,6.4,3.4,2,3.4s-4.1,1-1.2,2.1c1,.4,2.4,1,3.1,1.4.7.4,2.1.7,3.2.7,1.7,0,2.3.6,4,3.3,1.1,1.8,2.1,3.6,2.3,4,.2.4,1.2,2.1,2.3,3.7,1.2,1.9,1.7,3.1,1.2,3.3-1.5.5-.8,1.9,1.8,3.2,1.4.7,5.7,4.5,9.5,8.4,7.6,7.6,12.6,11.2,15.8,11.2,2.4,0,6.7,1.1,9.6,2.4,1.2.5,4.7,1.1,7.9,1.4,3.2.2,7.9,1.1,10.6,1.9,3.9,1.2,6.7,1.5,15.1,1.5,11.3,0,18.3-1.1,24.7-4.2,1.9-.9,4.6-1.7,6-1.7,5.6,0,16.6-7.3,25.8-17,5.9-6.2,6.2-6.4,4.4-3.3-1,1.9-2.3,4.8-2.7,6.5-.6,2.2-1.2,3.2-2.1,3.3-.7.1-2.2,1.6-3.2,3.2-1.1,1.8-2.8,3.4-4.1,4-3,1.3-6.4,5.1-8.2,9-1.7,3.8-5.7,8.4-8.1,9.3-1.9.7-1.3,1.8,1.1,2.2.8.1,1.7.4,1.9.6.6.6-1,6.3-2,6.9-.4.3-2.9.5-5.4.5-2.5,0-4.6.3-4.6.6s2.2,1.3,5,2.2c6.4,2,6.8,2.4,4.4,4.5-1.4,1.2-2.4,1.5-3.9,1.2-1.2-.2-2.2,0-2.5.4-.6,1,.6,1.9,3.3,2.5,2.5.5,2.8,1.2,1.7,3.4-.9,1.8-1.1,1.8-7.8,1.9-6.2,0-7.3.3-11.3,2.2-2.4,1.2-5.4,3.1-6.7,4.3-2.4,2.3-3,2.4-7.7,1.5-4.6-.9-5.4,0-2.1,2.3,3.8,2.5,3.6,3.4-.6,2.9-3.5-.5-4.3,0-2.4,1.7.6.5,1,1.1,1,1.3,0,1-3.7,2.1-7.2,2.1s-4.4.2-2.6,2.2c1.1,1.2,1.1,1.5-.5,4.3-1.9,3.4-2.9,3.7-9.4,2.4-1.8-.4-6.5-1.1-10.5-1.8-6.5-1-7.7-1-12.2,0-2.8.6-5.3.9-5.5.8-.3-.2-3.9-.6-8-1.1-4.1-.4-9.2-1.2-11.3-1.8-8.2-2.4-19.4-.8-35.6,5.1-7.6,2.7-11,5.2-13,9.2ZM709.5,473.5c-2.5,0-5,.5-6.7,1.3-2.5,1.2-5.4,1.3-8.4.3-.6-.2-.7-.6-.2-1.5,1.1-2,8.1-3.2,13.9-2.5,6.2.8,7.2,2.3,1.5,2.3ZM737.7,492.3c-.7,1.7-1.2,1.3-4.5-3.2-1.7-2.4-3.8-5.5-4.6-7-.8-1.5-2-3.5-2.6-4.4l-1.2-1.6,2.1,1.1c1.2.6,4.2,3,6.6,5.4,4.6,4.4,5.4,6.3,4.1,9.7ZM765.7,518.7c-.7,1.1-1.7,2.1-2.3,2.1s-1.5.5-2,1c-1,1.2-1.5,1.3-2.5.3-.5-.5-.6-2.2-.4-4.5.3-3.4.3-3.7-1-3.7s-1.6.6-1.9,1.4c-.2.8-.7,1.4-1.1,1.4-.8,0-.8-1.2,0-1.7,1-.6.8-1.9-.3-3.5-1-1.3-1.1-1.3-2.3.4l-1.3,1.7-1.4-1.7c-1-1.2-1.2-2.2-.9-3.4.9-3.6.6-5.1-1.1-5.4-1.1-.2-1.7.2-2,1.2-.4,1.4-.4,1.3-1.8-.4-1.5-1.9-2.1-5.6-1.5-8.7.5-2.5,1.7-2.4,3.2.2,1.4,2.3,9.4,9.7,13.7,12.6,3.9,2.6,5.9,4.6,7.1,6.8.8,1.6.8,2.1-.2,3.9ZM832,523.3c0,.5-.5,1-1.1,1-.9,0-1,.5-.7,2.7.5,2.9.5,2.9-4.2,3.8-2.1.4-2.2.3-2.9-2.5-1.2-4.6-1.3-4.8-2.6-4.5-1.3.3-1.4,1.3-.7,5.5.3,1.9.2,2.6-.5,2.6s-1.1-1.3-1.4-4c-.6-5.5-1-6.4-2.3-6.2-.9.2-1.1,1.1-1.2,5,0,6.2,0,5.9-2.1,5.7-1.7-.2-2-.7-3.5-6.6-1.4-5.1-1.9-6.3-3-6.3-2,0-2.2,1.8-.6,6.8,1.5,4.8,1.4,7-.3,5.5-.5-.4-1.1-2.7-1.4-5.1-.5-4.4-1.6-6.4-3.2-5.5-.6.3-.7,2-.4,5.6.4,4.6.3,5.1-.7,4.9-.8-.1-1.3-1.2-1.7-3-.8-4.5-1.8-6.6-3.2-6.4-1.3.3-1.4,2.5-.5,6.3.4,1.8.3,1.9-1.1,1.7-1.5-.2-1.6-.5-1.4-3.5.2-3.1.1-3.3-1.4-3.1-1.1.2-1.8.9-2.3,2.8-.4,1.4-1,2.6-1.2,2.6-.3,0-.8,0-1.1,0s-.7-.8-.9-1.9c-.3-2.4-2.8-2.7-3.2-.3-.4,3.1-4.8,1.4-5.9-2.4-.5-1.7,1.1-3,3.7-3s7-2.8,9-4.5c1.6-1.4,8.5-2.5,12.9-2,2.1.2,5.8.4,8.3.3,4.3,0,11.5,1.7,16,3.9,1.1.5,2.5.9,3.2.9,1.5,0,3.4,1.8,3.4,3.1ZM738.6,432.9c-8.2.2-8.9,0-7.7-.9,1.6-1.3,11.2-1.3,14.6-.1,1.9.7,1,.8-6.8,1ZM773.3,452.4c-.2.3-1.8.5-3.6.5-2.7,0-3.6-.3-5-1.9-2.2-2.3-6-9.5-6-11.2s.5-1.3,1.1-1.3c1.3,0,14,13,13.5,13.9ZM797.4,471.3c-1.1.1-2.4.5-2.7.9-.9.8-1.6.8-2.1-.1-.2-.4-.1-1.1.3-1.5.4-.4.8-1.3.8-2,0-1.6-2.5-1.7-4.2-.1-1.7,1.5-3.5.1-2.9-2.2.6-2.5-.3-3.3-2.2-2.1-2.2,1.4-2.3,1.4-3.1-1-.5-1.4-1.2-2.1-2.1-2.1-1.5,0-5.4-2.5-5.4-3.4s1.1-.8,2.3-1c3.8-.7,11.5,2.8,16.9,7.7,1,.9,2.8,2.2,4.1,2.9,3,1.6,3.1,3.7.3,4.1ZM802.8,474.5c-.5,1.2-2.3,1.5-2.3.4s.1-.7.3-.7.8-.2,1.4-.4c.8-.3,1-.1.7.7ZM797.7,414c0-.3.8-1.4,1.8-2.6,1.7-2,1.7-2,1.3-.3-.3.9-.8,2.1-1.1,2.6-.8.9-1.9,1.1-1.9.3ZM769.6,351.6c0,1-2.1.7-2.5-.4-.2-.6-.2-1.3,0-1.5.5-.5,2.5,1.1,2.5,1.9ZM771,355.6c0,.4-.3.7-.7.7s-.7-.1-.7-.3.3-.5.7-.7c.4-.2.7,0,.7.3ZM790.9,383.8c0,2.2.3,2.8,1.7,3.3.9.3,2.6,2,3.7,3.6,2.8,4.1,7,12.3,7,13.7s.3,1.4.7,1.7c.5.3.5.7,0,1.2-.5.5-1,.3-1.8-.8-.6-.8-1.5-1.5-1.9-1.5-1.2,0-3.5,2.6-5.2,6-1.5,2.9-3.4,3.4-3.4.9s2.1-7.7,2.8-8.6c.8-.9.7-2.9,0-3.5-1.3-.8-3.6,1.2-5,4.3-.8,1.8-1.5,3.6-1.5,4.2,0,.5-.4,1.1-.9,1.3-1.1.4-1.1-2.5,0-10.1.6-4.7.6-5.8-.2-6.3-.5-.3-1.1-.6-1.4-.6-1.1,0-2.2,3.3-2.4,7.1-.1,2.2-.4,4.2-.6,4.4-.7.7-2.2-1.7-3-4.7-.7-2.8-.6-3.4,1-6.6,1.9-3.8,1.8-5.7-.4-5.7s-1.9.9-2.9,3.1c-2.4,5-3.4,3.8-2.5-3,.3-2.4,1.1-5.1,1.6-6,2.3-3.5-1.3-5.1-3.8-1.6-.8,1.1-1.8,1.9-2.1,1.7-.7-.5-.4-2.2,1.6-8.7,1.1-3.6,1.3-4.8.6-5.4-.6-.6-1.3-.5-2.8.7-1.8,1.3-2.1,1.4-2.4.4-1.9-5,5.5-11.5,7.9-6.9,2.2,4.3,7.2,11,11.2,15.2,3.9,4.2,4.5,5.1,4.5,7.4ZM802,389.6c-.2,1-.6,1.5-.9,1.1-.3-.3-.4-1.1-.2-1.8.7-1.8,1.5-1.3,1.1.6ZM814.3,391.4c-.1,4.5-.2,4.6-2,4.8-1.3.1-1.8.6-1.6,1.2.6,2.4.4,6.1-.4,7-.5.6-1.7,1-2.8.9-1.7,0-1.9-.3-1.6-1.8h0c.2-.9.9-2.2,1.7-2.8,1-.8,1.4-2,1.4-4.1,0-2.6-.1-3.1-1.4-3.2-1.1-.2-1.6.2-2,1.5-.6,2.3-2.4,2.3-2.4,0s.3-1.7.6-1.7c.8,0,3-6,2.5-6.8-.2-.4-1.3-.7-2.3-.7-1.7,0-1.9-.2-1.6-2.1.2-1.5,0-2.1-.8-2.1-1.1,0-2.9,1.5-3.4,2.9-.2.7-.5.7-1.2,0-.7-.7-.7-1.4,0-3.9.5-1.7.6-3.4.4-3.8-.7-1.1-2.4-.9-2.4.3s-.3,1-.6,1c-1.1,0-1.6-1.5-.8-2.3.4-.4.8-1.5.8-2.3,0-1.9-2.2-3.3-3.3-2.1-.6.6-1,.6-1.5-.2-1-1.7-.8-2.3,1.4-3.6,2.7-1.6,2.6-4.2-.2-4.5-2.2-.3-2.5-1.9-.6-2.5,1.7-.5,2.4-2.3,1.4-3.5-.6-.7-.4-1.1.9-1.7,1.6-.7,2.1-.4,7.7,5.4,6.2,6.4,9,10.5,12.2,17.6,2,4.5,2.2,5.8,2,12.8ZM846.4,435.8c0,.4-.6,2.2-1.3,4.1-1,2.8-1.2,3.9-.6,5.2.4.9,1,1.7,1.3,1.7.9,0,.7,1.3-.5,3.1-.9,1.5-1.6,1.6-5.1,1.6h-4c0,0,0-2.2,0-2.2,0-1.8-.3-2.3-2.6-3.4-2.4-1.1-2.8-1.2-3.8-.2-1.1,1-1.3.9-2.7-1-1.2-1.6-1.4-2.3-.8-3.4,1.4-2.7.9-3.7-1.7-3.3-2.2.4-2.4.2-3.1-2-.4-1.3-1.1-2.4-1.6-2.4-.9,0-5-5.4-5.9-7.8-.3-.9-1-1.9-1.4-2.1-.4-.2-.7-1.2-.7-2.2s-.5-2.6-1.1-3.6c-1.1-1.8-1-2,.6-3.6l1.8-1.8,2.3,2.8c1.3,1.5,3.1,3.8,4.2,5,1,1.2,1.9,2.7,1.9,3.3s.4,1.1.9,1.1c.5,0,2.4,1.4,4.3,3.1l3.4,3.1-2,1.6c-2.3,1.9-2,3.8.5,3.8s3.6-2.6,2.9-4.7c-.4-1.3-.3-1.4,1.5-1,2.7.7,3,.9,3,2.5s.3,1.4,2.6,1c2.8-.5,7.7.6,7.7,1.6ZM849.1,454c-.9,1.1-2,1.3-2,.4s.4-1.1.9-1.8c.7-.9,1.1-1,1.4-.4.3.4.1,1.3-.3,1.8ZM851.9,468.3c0,2.6-.6,3.6-2.3,4-.8.2-1.5,1.1-1.9,2.5-.7,2.9-2.7,3-3.8.2-.4-1.1-1.1-2.1-1.5-2.1-.9,0-1.7,3.1-1.2,4.5.4,1.1-.6,3-1.7,3s-.8-1.2-1-2.6c-.7-4.3-1-5-2.5-5s-1.4.4-1.3,3.9q.1,5.1-.9,4.8c-.5-.2-1.1-1.7-1.5-3.5-.5-2.8-.8-3.2-2.1-3-1.4.2-1.6.6-1.7,4.9,0,1.5-.4,1.9-1.3,1.7-.9-.2-1.2-.9-1.3-3.1,0-3.4-.6-4.2-2.2-3.1-.7.5-1.3,1.8-1.4,3.6-.3,4.1-3.1,3.6-3.7-.6-.3-2.3-3-2.8-3.7-.7-.3,1-.8,1.3-1.6,1-.6-.3-2.1-.6-3.4-.8-1.5-.2-2.2-.7-2.2-1.5,0-2.7,1.6-3.4,8.4-4.2,4.4-.5,9.2-1.6,13.6-3.2,4.1-1.4,7.5-2.3,8.4-2,.9.2,2.5,0,3.5-.5,1.3-.6,3.3-.8,5.9-.6,3.9.3,3.9.4,3.9,2.5ZM854.6,455.7c0,.9-.5,1.4-1.4,1.4s-1.4-.1-1.4-.3.2-.8.4-1.4c.6-1.6,2.3-1.3,2.3.3ZM1111.2,300.1c.7,0,1.2.3,1.2.6,0,1-3.6-.2-4-1.3-.2-.8-.1-.8.6-.1.5.5,1.5.9,2.1.9ZM1111.5,306.7c.6-.6,2.3,1,1.9,1.7-.6.9-1.5.7-1.9-.4-.2-.5-.2-1.1,0-1.4ZM1114.5,280.9c0,.7-.3,1.4-.7,1.4s-.7-.6-.7-1.4.3-1.4.7-1.4.7.6.7,1.4ZM1114.5,288.1c0,1.3-2.1,1.1-2.6-.2-.2-.5.3-.8,1.2-.8s1.4.4,1.4,1.1ZM1114.4,295.7c-.9.9-3,.4-4.1-.9-1.2-1.4,0-2.2,2.7-1.8,2.3.4,2.8,1.4,1.5,2.7ZM1118.6,313.5c0,1.8-.9,2.8-1.3,1.3-.1-.6.1-1.5.5-1.9.5-.5.7-.4.7.6ZM1125.1,315.8c-.6,0-1.1-.3-1.1-.7s.3-.7.6-.7.8.3,1.1.7c.2.4,0,.7-.6.7ZM1129.3,308.3c.2,0,.3.3.3.6,0,.5-1,1-2.9,1.3-.2,0-.3-.5,0-1.3.2-.9.7-1.3,1.4-1,.5.2,1.1.4,1.3.4ZM1130.9,295.7c0,.6-.3.9-.7.6-.4-.2-.7-.7-.7-1.1s.3-.6.7-.6.7.5.7,1.1ZM1132.6,303.5c-.5.8-3.7-.7-3.7-1.9s3.2-1.1,3.7.2c.2.6.2,1.4,0,1.7ZM1102.7,380.5c-.5-.5-1.4-.9-2.2-.9s-1.2-.4-1.1-1.5c.2-1.2.7-1.6,2.3-1.6,2.7,0,3.2-2.1.7-3.1-1-.4-1.8-.9-1.8-1.1s.8-2.2,1.8-4.2c1-2.1,2.2-6.1,2.7-9,2.2-12.9,4.4-20.3,6.4-21.6.3-.2,1.5,0,2.5.3,1.3.5,2.1.5,2.8,0,1.3-1.1.1-3.1-2.1-3.6-1.9-.5-2.1-.9-1.1-2.5.5-.8,1-.9,2.7-.2,1.6.6,2.3.6,3.3-.2,1.2-.9,1.2-1-.3-2.3-.8-.7-1.9-1.5-2.4-1.6-.6-.2-.5-.6.3-1.5.9-1,1.4-1,2.6-.4,1.7.9,3.9.4,4.4-.9.5-1.2-.3-2.3-2.1-3-1.1-.4-1.3-.8-.9-1.6.5-.8,1-.9,2.8-.2,1.9.7,2.5.7,3.9-.2,1-.6,2.1-.9,2.8-.5.6.3,1.8.5,2.5.6,1,0,1.5.7,2,3,.7,3.3.3,4.2-1.3,2.9-.9-.7-1.3-.7-2.1.1-.9.9-.9,1.2.3,2.7.7.9,1.9,2.9,2.6,4.4.7,1.5,1.4,3,1.5,3.3.2.3-.6-.1-1.8-.9-2.5-1.9-3.9-1.4-2.8,1,.4.9,1,1.7,1.3,1.7.6,0,2.9,4.1,2.5,4.5-.2.1-.8-.3-1.5-1.1-1.2-1.3-3.1-1.8-3.9-1-.4.4,2.9,5.8,5.2,8.3.9,1,1.2,1.9.9,2.7-.4,1.1-.8.9-2.7-1.4-1.6-1.9-2.6-2.5-3.4-2.2-1.1.4-1.1.6,0,2,.6.8,1.8,2.9,2.5,4.6.8,1.7,1.8,3.5,2.3,4.1,1,1.2,1.1,3.6,0,3.9-.4.1-1.4-.8-2.2-2.2-2.7-4.1-4.8-2.6-2.6,1.7.9,1.8.9,2-.3,2.4-.7.2-1.4.8-1.4,1.3,0,1.3,2.1,6.1,2.9,6.6.8.5,0,3.3-.8,3.3s-.8-.3-1-.7c-.2-.4-1-.7-1.8-.7-1.5,0-1.8,2.6-.6,4.9,1.1,2,.2,4.7-1.5,4.7s-1.5.6-1.8,2.1c-.6,2.9-2,3.2-4.3,1.1-2.2-2.1-3.2-2.3-4.2-.5-.5.9-1.2,1.2-2.1,1-1.1-.3-1.4,0-1.5,1.3,0,.9,0,1.9,0,2.1,0,.3-.2.5-.6.5s-.9-1.3-1.1-2.8c-.2-1.5-.9-3.2-1.4-3.8-.8-.9-.8-1.3.4-3,2.7-3.8-.9-6-3.8-2.3-1.2,1.5-1.7,1.7-2.4,1ZM1100.7,392.6c0-.4.3-.7.7-.7s.7.3.7.7-.3.7-.7.7-.7-.3-.7-.7ZM1099.7,383.7c2.4-.9,2.4-.9,2.4.6,0,2.3-1.9,3-3.4,1.2-.7-.8-.5-1.1,1-1.7ZM1097.3,365.9c-2.2-1.2-3.1,0-1.8,2.6.8,1.5.9,2.6.4,4.4-.3,1.3-.8,3.9-1,5.7-.6,5.6-.7,6.1-1.4,6.6-1.1.8-2.3-.1-2-1.5.2-.8-.2-1.6-1.1-2.2-1.9-1.2-1.8-1.7.6-3,4-2.1,1.8-4.7-2.5-3.1-2.7,1-3.8.5-2-.9,1.9-1.4,1.1-3.5-1.3-3.8-1.1-.1-2.5-.6-3-1-.7-.6-.5-.9.9-1.7,1.9-1,2.2-1.9,1.1-2.6-.4-.2-.7-1-.7-1.8s-.9-2.7-2.1-4.4c-1.3-1.9-1.8-3.2-1.3-3.4.9-.5,2.7.9,2.7,2.1s2.7,2,3.5,1.1-.8-4.9-2.8-6.6c-.8-.7-1.5-1.7-1.5-2.2,0-1.8,1.3-1.6,3.7.8,1.4,1.3,2.8,2.4,3.2,2.4,1.6,0,1.2-2.1-1.1-5.5-2.6-4-3-5.7-1.4-6.4.6-.2,2,.8,3.7,2.8,2.6,3.1,4.2,3.5,4.2,1s-1.1-2.8-2.5-4.8c-2.7-4.1-2.4-5.9.6-3.5,3.3,2.6,4.5-.4,1.7-4.2-1.8-2.4-1.1-4.4,1.6-4.5.9,0,2-.1,2.5-.2,1-.1,1.1-2.7.2-4.2-1-1.6.3-3.3,2.3-3,2.3.4,2.8-.8,1.8-4.1-.9-2.7-.9-2.8,1.1-4.4,1.3-1.1,2.5-1.5,3.4-1.2.7.2,2.2.5,3.2.5,1,0,2,.2,2.2.4.2.2-.2,3.4-.9,7.2-.9,4.9-2.3,9.3-5,15.5-2.1,4.8-4,10.2-4.3,12-.3,1.8-.9,4-1.5,4.9-.7,1.1-.9,2.5-.5,4.6.4,2.4.2,3-.5,3s-1.3-.3-1.7-.8c-.4-.4-1.1-.6-1.5-.3-.5.3-.1,1.6,1.1,3.8,2,3.6,1.9,4.7-.5,3.4ZM1059.6,453.5c0-1,.7-2.5,1.7-3.4,2.7-2.5,3.7-5,3.7-9.1s.3-4,.7-4.2c.4-.2.7.2.7.9,0,1.6,1.7,3.1,3,2.7.9-.4,1.9-3.4,1.9-6.5,0-.8.3-1.5.6-1.5s.7.7.8,1.5c.2,1.1.7,1.5,1.9,1.5s1.7-.3,2.1-3.8c.2-2.8.6-3.8,1.4-4,1.3-.2,2.2,2.5,1.6,4.3-.3.7,0,1.3.8,1.5,1.6.6,3.1-1.5,2.7-4-.2-1.1-.4-2.8-.6-3.9-.2-1.4.3-3,2.1-5.7,3-4.7,6.1-11.2,6.8-14.3.6-2.9,3.7-9.6,4.5-9.6s1.1,1,.5,6.5c-.4,3.8-.4,6,.2,7.3.6,1.6.5,2.2-.7,4.2-1,1.6-1.4,3.5-1.4,5.8s-.4,3.7-1,4.3c-.6.5-1,1.4-1,2.2s-.7,1.6-1.7,2c-1.5.6-1.7,1-1.6,3.1,0,1.3-.2,2.8-.6,3.2-.4.4-.6,1.7-.4,2.8.3,1.3,0,2.4-.8,3.3-1.2,1.3-1.2,1.3-2.5-.2-1.2-1.4-1.3-1.5-2.4-.3-1,1-1.1,1.6-.5,3.6.4,1.4.5,2.4.1,2.4s-.6-.4-.6-1-.3-1.2-.7-1.5c-1.3-.8-2.2.9-2.2,4.1,0,2-.3,3.2-.9,3.4-1.1.4-1.2.3-2.3-3.2-.5-1.4-1.2-2.6-1.7-2.6-1.8,0-2.3,1.6-1.7,5.5.6,3.7-.2,6.4-1,3.3-.6-2.3-5.4-6.8-6.5-6.1-.7.4-.6,1.2.5,3.6.8,1.7,1.4,3.8,1.4,4.7,0,1.7,0,1.7-1.5-.5-.8-1.2-2-2.2-2.6-2.2-.6,0-1.4.4-1.9.8-.6.6-.8.4-.8-1ZM1172.4,434c.6.2,1.3.4,1.5.4s.3.5.3,1c0,1.5-1.2,1.3-2.1-.4-.7-1.3-.6-1.4.4-1ZM1150.8,439.2c0-1.7,3.1-4.9,6-6.2,4.1-1.7,8.8-1.8,9.7,0,1,1.8.3,2.2-4,2.2s-4.4.4-7.3,2.4c-3.7,2.6-4.4,2.8-4.4,1.7ZM1117.4,474.9c-1.6,0-3.1-.3-3.3-.6-.2-.4.8-1.5,2.2-2.6,1.4-1.1,3.3-2.7,4.3-3.7.9-1,4-3,6.7-4.4,3.5-1.8,4.9-2.9,4.6-3.6-.2-.5,0-1.6.4-2.4,1.5-2.8,7.5-10,9.8-11.8l2.4-1.8-.6,1.7c-.4.9-2.6,4.6-5.1,8.2-2.4,3.6-4.3,6.7-4.1,6.9.2.2-.6.9-1.8,1.6-1.2.7-2.4,2-2.7,3-.3,1-1.7,2.7-3.1,3.8-1.4,1.1-3.5,2.9-4.7,3.9-1.6,1.4-3,1.9-5.1,1.9ZM1109.7,478.4c.8-.9,1.9-1.4,2.5-1.2.6.2,1.5.4,2,.4,1.2,0,1.3,2.2.2,3.3-1.1,1.1-3.4,1-4.9,0-1.1-.8-1.1-1,.3-2.5ZM1063.3,476.9c3,0,7.3,1.3,7.3,2.2s-.6.6-1.4.4c-.8-.2-1.5,0-1.8.3-.2.3.4.6,1.3.6s1.9-.3,2.1-.6c.2-.3,2-.8,4-1,2-.2,5.1-.7,6.8-1,3.4-.6,3.5-.6,11.5,3.7,1.3.7,3.4,1.2,4.6,1.1,1.7-.1,2.7.4,4.3,2.1,2.5,2.7,2.6,3.7.6,4.2-3.5.9-6.4.5-8.1-1.3-2.6-2.7-3.8-2.3-3.5,1.4.1,1.3,0,1.3-.9,0-.6-.7-1-1.6-1-1.9,0-1.4-2.6-.4-3,1.2-.3,1.2-.9,1.7-2.1,1.7s-1.8-.3-2.7-4.3c-.3-1.5-.8-1.9-2-1.7-1.2.2-1.6.7-1.7,2.5-.2,2.5-1.8,2.7-1.9.3-.2-3.1-2.2-3.9-3.9-1.5-1,1.4-1.1,1.4-3.1.3-1.3-.7-2.1-1.6-2.1-2.5,0-1.7-1.5-2.4-3.4-1.4-1.1.6-1.9.5-3.3-.1-4-1.9-1.9-4.7,3.5-4.6ZM1185.8,473.4c.5-.3,2.5-.6,4.4-.5h3.4c0,0-3.8.9-3.8.9-3.8.9-5.7.7-4-.4ZM1132.3,526.2c0-.4,1.2-2.1,2.7-3.9,1.5-1.8,3.5-4.6,4.5-6.3,1.8-3.2,5.3-6.4,9-8.4,3.2-1.6,10.3-3.9,12.3-3.9s4.4-3,3.1-4.5c-.5-.6-1.3-1-1.8-1-1.4,0-1.2-.9.9-3.6,1-1.3,3.1-4.2,4.6-6.4,4.2-6,6.1-8,9.2-9.8,2.4-1.4,2.9-1.4,3.2-.5.2.6-.5,2.5-1.5,4.3-1.1,1.8-2.5,4.4-3.1,5.7-.6,1.4-1.5,2.7-1.8,2.9-.4.2-.9,1.4-1.1,2.5-.3,1.4-1.2,2.4-2.8,3.2-1.5.7-2.5,1.8-2.8,2.9-.2,1-2,3.7-3.9,6.1-2.8,3.5-3.9,4.4-6.2,4.8-2.4.5-2.8.8-2.6,2.1.2,1.4,0,1.5-1.8,1.1-2.5-.5-4.2,1.1-2.8,2.7,1.2,1.4.4,2-1.4,1-1.1-.6-1.7-.6-2.5,0-.9.7-.8,1,.2,2.1,1.6,1.8.3,3.2-2.1,2.1-1.3-.6-2-.5-2.9.2-1.2.9-1.2,1,.3,2.4,1.8,1.6,1.6,3.8-.4,3.1-.7-.2-1.6-.1-2.1.2-1.1.7-6.3-.5-6.3-1.4ZM1115,520.9c-1-.4-.9-.8.8-2.8l1.9-2.3,1.2,1.8c2,3-.1,4.8-3.9,3.3ZM1070.9,529.4c.5-2.6,2.3-3.6,4.3-2.3,1.1.7,2.3.4,7.1-1.6,3.2-1.3,6.9-2.8,8.3-3.2,3.4-1.1,10.3-.3,17.7,1.8,9.3,2.8,12.9,3.6,15.3,3.6s2.6.5,3.7,2c.8,1.1,1.5,2.6,1.5,3.3,0,1.1-.6,1.4-4.3,1.7-3.1.3-4.5.1-5-.6-1.1-1.4-3.1-1.2-3.5.4-.4,1.4-2,2.4-3,1.7-.3-.2-.6-1.2-.6-2.1,0-1.9-1.7-2.9-2.9-1.8-.4.4-.8,1.8-.8,3,0,1.8-.4,2.3-1.5,2.5-1.1.1-1.6-.3-1.9-1.6-.2-1-.3-2.1,0-2.5.7-1.1-.3-4.1-1.4-4.1-1.6,0-2.3,2.2-1.9,5.4.3,2.6.2,2.9-1.1,2.9s-1.5-.4-1.5-4.1-.3-4.2-1.1-4.5c-1.8-.7-2.6.9-2.4,5.3.1,3.7,0,4.2-1.1,3.9-.7-.1-1.1-.7-1-1.3.6-2.5.3-8.9-.4-9.7-1.5-1.5-2.5.5-2.6,4.9,0,4-.9,6.1-2.4,5.2-.4-.3-.7-2.3-.7-4.6,0-4.1,0-4.1-1.9-3.9-1.8.2-1.9.3-1.7,3.9.2,3.2,0,3.6-.9,3.3-.6-.2-1.4-.4-1.8-.4s-1.3-1.4-2-3.1c-.7-1.7-1.5-3.1-1.7-3.1-1.2,0-3.1,1.6-3.1,2.7s-.4,1.2-1.7.9c-2.2-.4-2.6-1.1-2.1-3.9ZM1200.8,624.1c0-1.1,15.4-1.4,17.9-.4,2.5,1,2.2,2.2-.9,2.8-3.2.6-12.9,0-15.2-.9-1-.4-1.9-1.1-1.9-1.5ZM1171.4,620.7c.2-.2,3.7-.4,7.9-.4,7.1-.1,15.3,1,16.5,2.2,1.1,1.1-1.3,1.7-4.1,1-1.6-.4-6.5-.6-11-.4-7.1.2-8.3,0-8.9-.9-.4-.6-.6-1.3-.4-1.5ZM1130.2,617.7c1.2-1.5,1.5-1.5,6.7-.9,3,.4,8.2.8,11.5,1,8.3.5,16.5,2.3,17.9,3.9,1.1,1.2,1.1,1.3-.3,1.3s-1.5.5-1.7,1.5c-.3,2-3.3,2.4-5.5.9-2.1-1.4-3.3-1.3-3.3.2s-1.2,2.1-3.2,2.1-1.9-.9-3-2.1c-1.1-1.2-2.3-1.9-2.7-1.7-.9.6-.9,2.9,0,3.4.4.2.5.7.3,1.1-.8,1.3-2.1.5-3.9-2.5-1.4-2.2-2.2-2.9-3-2.6-.8.3-1,.9-.7,2.4.3,1.6.2,2-.9,2s-2.8-1.9-2.8-4.3-.4-1.9-1-2.1c-1.5-.6-3.3,1.5-2.8,3.4.6,2.3-1.5,2.2-2.4-.1-1-2.7-.8-5.3.7-7ZM1148,725.6c2.2,3.3,5.4,9.8,5.5,11,0,.7-.5.8-2.1.5-1.2-.2-2.9-.4-3.8-.4-1.5,0-1.6-.3-1.6-3.8s-.5-4.9-1-6.2c-1.8-4.3.4-5.1,3.1-1.1ZM1118.6,703.5c0-.2,1.8-.2,4,0,3,.3,4.5.2,6.1-.6l2.1-1.1,3.1,3.7c1.7,2,3.1,3.9,3.1,4.2s.9,1.6,2,3c1.1,1.4,2.2,3.7,2.4,5.1.4,2.2.3,2.6-.8,2.6-.7,0-2.1-.8-3.2-1.8-1.5-1.3-1.8-1.9-1.2-2.5.9-.9,1-3.2.1-3.2s-1.4.4-2.4.8c-1.9.9-3.8,0-3.8-1.9s-.8-1.7-1.7-2.7c-1.3-1.4-2.1-1.7-3.6-1.4-1.6.3-2.4,0-4.2-1.7-1.2-1.2-2.2-2.3-2.2-2.5ZM1094.6,680.1c1.7-2.8,2.3-2.7,9.2,1.4,2.6,1.6,6.2,3.6,7.9,4.5,1.7.9,3.6,2.1,4.2,2.6.6.5,1.4.9,1.7.9,2.1,0,9.2,7.1,9.2,9.2s-1.4.5-6,0c-2.9-.4-3.6-.7-3.8-1.9-.2-1.6-1.6-1.8-5.9-.7-2.2.5-2.3.5-1.5-1,1.2-2.2,0-3.3-2.4-2.2-2.6,1.2-3.5,1-2.2-.4,1.6-1.8,1.4-2.8-.6-3.5-.9-.4-1.7-1-1.7-1.4,0-1.1-2.2-.8-3.6.5-1.2,1.1-1.4,1.1-2.2,0-.5-.7-.7-2-.5-2.9.3-1.7-.2-2-2.4-1.8-1.2.2-1.1-.5.6-3.1ZM858.1,690.5c0-.2.3-.5.7-.7.4-.2.7,0,.7.3s-.3.7-.7.7-.7-.1-.7-.3ZM851.9,703.9c0-.4.3-.7.7-.7s.7.3.7.7-.3.7-.7.7-.7-.3-.7-.7ZM847.8,706.6c0-.4.3-.7.7-.7s.7.3.7.7-.3.7-.7.7-.7-.3-.7-.7ZM829.6,742.5c-1.2.2-3.1,0-4.1-.4-2.6-1.2-3.7,0-2.2,2.5.9,1.4,1,1.7.2,1.7s-1.2-.8-1.4-1.7c-.3-1.1-1.1-1.9-2.2-2.2l-1.8-.5,2.6-2.2c2.3-2,2.5-2.4,1.7-3.3-.7-.8-1.6-1-3.3-.7-1.9.4-2.3.2-2.1-.5.2-.6,1.5-1,3.6-1.2,2.2-.1,3.4-.6,3.6-1.3.5-1.4-1.5-2.9-3.9-2.9s-2-.2-2.3-.4c-.8-.8.9-3,2.3-3,2.1,0,4.7-1.5,5.2-2.8.6-2-.3-2.8-2.6-2.3l-2.1.5,1.2-2c3.3-5.3,7.2-7.8,9.9-6.4,1.6.9,3.4,0,3.4-1.8s1.7-1.2,2.7,0c.5.6,1.5,1,2.2,1,1.1,0,1.3-.3.9-2.1-.6-2.8,1.2-3.5,3.5-1.3,1.9,1.8,2.2,3.4.6,3.4s-1,.5-.6,2.5c.4,1.9.2,2.8-.7,3.8-1.1,1.2-1.1,1.5,0,3.7l1.1,2.4-2.2,1.7-2.2,1.7,1.5,2.1c2,2.7,2.9,5.3,2.4,6.5-.6,1.6-1.5,1.2-2.6-1-.9-1.8-4-3.5-4.9-2.6-.2.2.3,2.1,1.2,4.2.8,2.1,1.3,4.1,1,4.3-.3.3-1.5-.5-2.7-1.7-1.2-1.2-2.8-2.2-3.4-2.2-1.4,0-1.4.1-.2,3.1.9,2.2.4,3.4-.7,1.6-.3-.4-1.4-.6-2.7-.3ZM844.4,782c0,1.2-.2,1.3-1.3.7-.7-.4-1.5-1-1.8-1.4-.2-.4,0-1.2.4-1.8.7-.9.7-1.2-.4-2-.7-.5-1.1-1.4-.9-2,.2-.6-.3-1.9-1.2-2.9-.9-1.1-1.8-2.8-2-3.9l-.4-2,1.2,1.6c1.2,1.6,2.6,4.3,4.2,8,.5,1.1,1.1,2.6,1.5,3.2.3.7.6,1.8.6,2.6ZM845,785.4c0,.3-.7.8-1.7,1-.9.2-2.8,1.8-4.3,3.5-2.6,3-3.9,3.7-4.7,2.4-.2-.4,0-1.3.3-2,1-1.8-.8-3.4-2.4-2.1-.8.6-1.3.7-1.8.1-.8-.8-.5-1.7,1-3.7,1.3-1.8-.3-3.2-2.2-2.1-1.5,1-1.8.2-.6-2,.9-1.6-.2-4.1-1.8-4.1s-1-.5-.6-3c.3-1.9.2-3.2-.3-3.5-.4-.2-.7-1.2-.7-2.2s-.5-2.3-1-2.9c-1.6-1.7-.6-5.4,1.6-6.2,1.8-.7,4.4.7,8.6,4.6,2.2,2.1,2,3-.3,1.4-1.1-.8-1.8-.9-2.4-.3-1.2,1-1.1,1.8.4,3.7.7.9,1.2,2.2,1,3-.2.8.2,1.6,1.1,2.1.9.5,1.4,1.4,1.4,2.6s.5,2.4,1.2,3.2c.9,1,1,1.4.3,1.7-1.7.6-.8,2.2,2,4,2.4,1.5,3.1,1.7,4.5,1,.9-.4,1.6-.5,1.6-.1ZM846.6,797.1c-.3,1.4,5.3,9.8,9.3,13.9,2.6,2.7,3,3.4,2.2,3.9-.6.4-1.2.6-1.5.7-.3,0-.7.6-.9,1.4-.5,1.7-1.8,1.7-3.4,0h0c-.9-.9-1.1-2-.8-3.4.5-2.4-1.1-4.3-2.4-2.9-2.1,2.1-4-.4-2.2-2.8.6-.8,1-1.9,1-2.3,0-1.1-2.2-1.1-3.3,0-1.3,1.3-1.8,0-.8-2.2.7-1.8.7-2.2,0-2.8-.5-.3-1.3-.5-1.8-.3-1.3.5-2.5-1.5-2-3.4.5-2.1,3.8-5.7,5.2-5.9,2.5-.3,3.4.3,6.8,4.8,4.3,5.6,4.4,7.7.2,3.1-2.9-3.2-5-3.8-5.4-1.7ZM863.6,812.3c0,.3-.6.2-1.4-.2-.8-.4-1.4-1.1-1.4-1.6s-.8-1.6-1.7-2.5c-.9-.9-1.7-1.9-1.7-2.3,0-.8,6.1,5.8,6.1,6.6ZM870.4,821.1c0,1.4-1.5,3.2-3.1,3.5-2.4.6-2.5.5-2.1-1.2.6-2.5-1.4-3.1-3.1-1-1.2,1.5-1.3,1.5-3,.4-2-1.3-2.1-1.8-.7-4.5.9-1.8,1.3-1.9,3.8-1.6,1.8.2,2.8.1,2.8-.4s.4-.8,1-.8c1.2,0,4.5,4.1,4.5,5.5ZM777,669.9c-4.7,2-8,7.4-10.5,17.3-.3,1.3-4.4,2.8-4.4,1.6,0-2.2,5-14.3,6.6-16,2.5-2.6,7.7-6,9.3-6s1.4,2.1-1,3.1ZM795.9,664.2c-3.1.6-9,.5-9.5-.2-.3-.4-.3-.9-.1-1.1.9-.9,7.6-2.9,8.6-2.5,2.3.8,3,3.3,1,3.7ZM838.9,654.3c0,.2-1.2.1-2.7,0-1.7-.3-2.7-.2-2.7.3,0,1.1-1.8.8-2.8-.4-.5-.6-1.5-1-2.3-.9-1.1.2-1.4.6-1.2,2.1.1,1.3-.1,1.9-.8,1.9s-1.1-.4-1.1-.9-.5-1.3-1-1.8c-1.5-1.2-3.3.4-2.8,2.5.5,2.1-.1,2-2.5-.3-1.8-1.7-2-1.8-3-.8-.9.9-.9,1.3-.2,2.5,1.3,2.1.3,2.5-2.1.7-1.7-1.2-2.3-1.4-2.9-.7-.7.7-.7,1.1,0,2.2,1.8,2.9.4,3.9-1.5,1-1.3-2.1-2.8-2.2-4-.3-1,1.6-2.1,1.7-3.2.4-.6-.8-.6-1.3.1-2.4,1.1-1.6,6.4-5.3,12.8-8.8,4.3-2.4,5-2.6,11.8-2.8,4.7-.2,7.8,0,8.7.5,1.2.6,3.5,4.6,3.5,6ZM872.2,482.8c1.6-3.9,3.6-5.9,5.1-5.1.7.4,2.9.8,5.1,1.1,2.9.3,4.1.8,4.6,1.8.6,1.1.5,1.6-.6,2.5-.7.6-1.6,1.7-1.8,2.4-.3.9-.8,1.1-1.6.8-4-1.7-5.5-.8-3.1,1.9,1.1,1.2,1.1,1.4,0,2.4-1.1,1.1-1.3,1.1-3.1,0-2.9-1.7-3.7-1.5-3.3.9.4,2.2-.1,2.5-2.4,1.3-1.1-.6-1.6-.5-2.4.3-.9.9-.7,1.2,1.5,2.9,3.2,2.4,3.1,3.2-.2,2.7-2.9-.5-4.1.4-2.5,1.8,1.3,1.1,1.3,2.7,0,2.7s-1.3-.5-1.8-1c-.5-.6-1.6-1-2.5-1-2.2,0-2.1,1.8.2,4.2,2.3,2.5.8,2.5-2.4.1-3.3-2.5-4.5-1.2-2,2.1,2,2.6,2.3,4.2,1,4.9-.5.3-1.6-.5-2.8-2-1.1-1.4-2.4-2.5-3-2.5-1.4,0-1.2,2.6.5,5.3,1.1,1.7,1.3,2.6.7,3.1-.6.6-1.2.3-2.5-.9-2.4-2.2-3.7-1-2.4,2.1.8,1.9.7,2.3-.2,3.3-.9.9-1.3.9-2,.3-1.3-1.3-2.6-1-2.6.7s-1.8,4-2.7,4-.9-1.8-1.6-4.1c-1.7-5.9-1.6-7.8.9-10.1,1.1-1.1,2.1-2.4,2.1-3,0-1.2,6.6-7.7,7.4-7.3.3.1,1.3.7,2.4,1.2,1.5.8,2.1.8,2.9,0,1.3-1.1,1.3-1.7,0-3.1-.7-.7-.9-1.3-.5-1.6,7.1-4.9,9.3-6.6,11.7-9.1,1.6-1.6,3.4-4.2,4-5.7ZM903.4,499.4c.7,1.8.2,3.1-.8,2.5-.4-.2-1.6-2-2.7-4-3.1-5.3-2.4-8,1.6-6.9,1,.3,1.9,0,2.8-1,1.5-1.7,3.1-1.8,3.1-.3s.6,2.3,1.4,3.7c1.5,2.9,1.8,5.2.7,4.5-.4-.2-.7-1-.7-1.7s-.5-1.7-1.1-2.1c-.9-.7-1.4-.5-3,1.5-1.6,1.9-1.8,2.7-1.3,3.9ZM903.6,441.4c1.3-1.1,5.4-2.2,8.3-2.4,2,0,2,0,2.2,3.9.1,3.5,0,3.9-.8,2.7-1.4-1.8-3.5-.4-3.2,2.2.3,2.4-.4,4.2-1.2,3.4-.3-.3-.7-1.9-.8-3.4-.2-2.4-.4-2.7-1.9-2.7s-1.8.4-1.9,1.6c-.3,1.9-1.9,2-2.5.3-.5-1.6.5-4.3,1.9-5.5ZM906.6,454.8c3.8,1.7,3.2,2.2-2.6,2.2h-5.5l1.1-2.1c1.2-2.3,2.4-2.3,7-.2ZM911.8,466.1c-.2,1.2-1.1,3.8-2,5.7l-1.5,3.4-1.1-2.6c-1.6-3.7-4.4-3.2-3.9.7.3,2.1-1.1,2-2.1-.2-.5-1.2-1.2-1.7-2.2-1.6-1.2.2-1.4.6-1.3,2.8.1,2.5,0,2.5-1.8,2.2-1.6-.3-2.1-.1-2.4,1.1-.3.8-.3,1.8,0,2.1.9,1.4-.7.6-1.7-.9-1.8-2.7-2.8-4.8-2.8-5.7,0-1.6,7.1-8.7,9.9-10,3.3-1.5,7.8-1.6,11-.3,2.2.9,2.3,1.2,1.9,3.3ZM894.1,488.5c-.6.7-1.1,2.2-1.1,3.4,0,1.8-.3,2.2-1.6,2.2s-3.6.9-6,2c-5.1,2.4-4.7,2.2-4.7,1.5,0-1.1,6.9-7.3,8.2-7.3s3.8-2.2,6.9-5c5.4-4.8,7.1-5.6,9.9-4.6,1.3.5,1.5,3,.2,3.3-5.9,1.6-10.9,3.5-11.8,4.5ZM883.1,473.6c-.5.8-2.2.8-2.7,0-.5-.7,1.5-1.6,2.4-1.1.3.2.5.7.2,1ZM858.1,447.2c0,.5-.3,1-.7,1s-.7-.6-.7-1.4.3-1.2.7-1c.4.2.7.9.7,1.4ZM862.9,456.7c0,1.3-1.8,3.8-2.8,3.8s-.9-.5-1.4-1c-1-1.3-.4-5.5,1-6.1,1.2-.5,3.1,1.6,3.1,3.3ZM862.9,447.5c-1.5-2.7-1.7-5.5-.4-5.9.8-.3,2.3,2.9,2.9,6.2.5,3.2-.5,3.1-2.5-.3ZM867.4,461.1c.9-1.8,2.3-2.3,4.9-2,.5,0,1.9-1,3.3-2.3,1.3-1.3,3-2.4,3.6-2.4s3-1,5.3-2.2c3.7-2,10.8-3.7,12.1-2.9.9.6-3.2,8.5-4.4,8.5s-.4-.6-.1-1.4c.6-2.1-1.5-2.6-3.3-.8-1.4,1.4-1.4,1.5-.3,3.8,1,2.2,1,2.4,0,3.4-1.7,1.6-2,1.4-2.5-1.5-.7-3.9-.9-4.3-2.1-3.8-2.1.8-2.5,3.6-1.1,6.5,1.1,2.2,1.1,2.7.3,3-1.8.7-2.2.4-2.2-1.7s-.3-2.1-1.4-2.1-2.8,2.5-2.9,5.3c0,2.6-1.1,1.7-1.6-1.2-.4-2.3-.7-2.7-1.9-2.6-1.2.2-1.5.7-1.7,3.5-.3,3.9-2,4.6-2.3,1-.2-1.9-.5-2.2-1.9-2.2s-1.7.3-1.8,2.1c0,1.1-.1,2.4-.2,2.9,0,.5-.7.9-1.4.9s-1.4.3-1.4.7-.1.7-.2.7-.2-2.1,0-4.6c.2-4.3.3-4.6,2.3-5.6,1.2-.6,2.6-1.9,3.1-3ZM899.1,416.1c-.3.6-.6,2.7-.6,4.6,0,4-.9,5-2.2,2.3-.5-1.1-1.5-1.9-2.3-1.9s-1.4.6-1.7,2.7c-.3,2.4-.6,2.7-2.1,2.7s-1.7.2-1.7,4-.2,4.1-1.4,4.5c-.7.3-1.9.2-2.6-.1-1.6-.8-2.6-.2-2.6,1.9s-.9,4-4.5,8.1c-1.6,1.9-3.2,4.1-3.7,5-.9,1.7-2.8,2.1-2.8.6s-.2-1.9-.4-3.1c-.4-1.9-.3-2.1,1.3-2.1s2.5-1.1,2.6-3.7c0-.8.5-2.1,1-2.8,2.2-2.9.2-11.3-2.6-11.3s-1.3.3-.8,3.6c.4,3.2.4,3.5-.6,2.7-2.4-2-3,.8-1.4,6.6.6,2.3-.8,1.9-2.1-.7-1.3-2.5-1.5-11.3-.4-12.4.4-.4.7-1.3.7-2.1,0-3.8,6.5-13.4,9.1-13.4s2-.8,2.8-1.8c1.7-2.2,5.2-3.8,7.2-3.2,1,.3,2.2-.2,3.6-1.4,1.8-1.5,2.7-1.8,5.6-1.6,3.4.2,3.5.3,4,2.6.5,2.3-.3,7.3-1.6,9.8ZM893,427.6c.4,0,.7.5.7,1.1s-.3.9-.7.6c-.4-.2-.7-.7-.7-1.1s.3-.6.7-.6ZM909.1,414.6c.2,0,.5.3.7.7.2.4,0,.7-.3.7s-.7-.3-.7-.7.1-.7.3-.7ZM910.5,410.3c-.4.8-.7-.1-1.1-3.2-.4-2.7-.4-4.6,0-5,.8-.8,1.8,6.6,1.1,8.2ZM916.3,423.5c.6,3,.6,4.5,0,5-.4.4-.7,1.6-.7,2.7s-.4,2.1-.9,2.2c-.8.2-6.5,1.4-10.6,2.2-2.6.5-5.6,3.7-6.9,7.2-1,2.9-1.4,3.3-2.6,2.9-1.9-.6-7.8-.4-9.1.4-3,1.7-1.2-.6,5.5-7,7.8-7.5,11.5-12.3,12.9-16.8.8-2.7.9-2.7,2.8-2.1,1.9.7,4,.5,7.2-.5,1.3-.4,1.5,0,2.3,3.8ZM918.4,411.8c0,4.3-.3,4.3-1.5,0-.9-3.2-.8-6.8.1-6.8s1.4,2.6,1.4,6.8ZM925.2,413.7c0,2.3-2.1,4.5-3.8,3.9-.7-.3-.6-.7.4-2.2,1.1-1.5,1.2-2.3.7-4.6-.4-1.5-.7-3.8-.7-5.1,0-1.3-.5-3.6-1-5.1-.5-1.5-.8-2.8-.7-3,1.2-1.2,5.1,11.2,5.2,16.1ZM928.3,427.4c-.4,1-.5,1-.8.2-.2-.6-.6-1.6-1-2.2-.5-.9-.3-1.2.5-1.2,1.3,0,2,1.7,1.4,3.2ZM931.4,415.2c0,.8-.4,1.4-1.1,1.4s-1-.5-.9-1.2c.3-1.7,1.9-2,1.9-.3ZM936.9,403.1c0,1-.3,1.9-.7,1.9s-.7-.4-.7-.9c0-.5.3-1.3.7-1.9.5-.8.7-.6.7.9ZM937.8,398.3l-1.2,2.4-.2-2.1c-.1-1.2.1-2.2.5-2.4.4-.1.7-1,.7-1.9s.3-1.7.7-1.7c1.1,0,.8,3.1-.5,5.7ZM946.5,411.2c-1.7,0-3.9.3-4.8.6-2.2.7-4.1.8-4.1.2,0-1,2.3-3,3.5-3s1.6-.6,2-1.4c1.2-2.2,5.8-1.9,7.3.4,1.5,2.2.6,3-3.9,3.1ZM959.9,402.8c-.7,1.1-1.1.9-1.1-.8s.2-1.3.8-.7c.4.4.6,1.1.3,1.5ZM966.1,412.8c-2.8-1.7-5.2-3.4-5.2-3.7,0-1,2.9-2.7,4.6-2.7s4.8,2.9,6.1,6c2,4.6,1.3,4.6-5.5.5ZM974.9,399.1c-.4,2-.6,2.3-1.4,1.7-.5-.4-.9-1.1-.9-1.6,0-1.1,1.9-3.5,2.4-3,.2.2.2,1.5,0,2.9ZM980.7,427.4c.8,1.8-.3,2.2-2.1.7-1.2-1-3.3-4-3.3-4.8s4.7,2.5,5.4,4.1ZM985.7,422c-1.1,1.2-1.3,1.2-3.1-.1-1-.8-1.9-1.6-1.9-1.9,0-.8,1.2-.7,1.7.2.3.4,1.3.5,2.4.3,2.3-.5,2.5-.1.8,1.6ZM987.5,405.7c0,.9-.2,1.3-.3.8-.2-.5-.2-1.2,0-1.7.2-.5.3,0,.3.9ZM994.4,404.9c-.2,4.6-1.2,6.9-2.8,6.9s-1.3-.3-1-2.2c.2-1.2.6-3.9.9-5.9.4-3.3.3-3.7-1-4-2.2-.6-1.8-1.6.6-1.6s3.6,2.2,3.3,6.8ZM1001.1,408.9c-.4,6.6-1.4,8.6-3.8,7.1-.8-.5-.7-.9,0-2.6.6-1.1,1.3-4.4,1.5-7.4.5-5,.6-5.3,1.5-4.1.8,1,.9,2.7.7,7ZM1007.7,406.6c-.4,1.2-.7,3.2-.7,4.6,0,3.2-1.3,6.3-2.3,5.9-.5-.2-.8-1.2-.7-2.3,0-1.1.3-4.7.6-8,.3-4.3.2-6.6-.4-8.1-1-2.3-.7-3,.9-2.3,1.7.7,3.5,7.6,2.6,10.2ZM1044.4,446.6c-.7.9-.9.8-1.4-.4-.4-1.2-1.1-1.4-3.6-1.4s-3.3.3-3.5.7c-.6,1-1.4,0-2.4-3.1-1-3.2-1.8-3.9-3.9-3.3-1.3.3-1.6,0-2.3-2.8-.7-2.7-1.1-3.2-2.9-3.7-1.9-.5-2.2-.9-2.4-3.1-.2-2-.5-2.5-1.6-2.5s-1.8.5-2.3,1.2c-1.3,1.8-1.6.9-.9-2.9.8-4.2.4-5.4-1.6-4.9-1.1.3-2-.1-3.1-1.2-1.5-1.5-1.5-1.8-.7-6,.8-3.8,1.1-4.4,2.6-4.6.9-.1,2.2-.8,2.7-1.5,1-1.3,1.1-1.3,4.5.3,1.9.9,3.7,2.1,3.9,2.7.2.6.9,1.1,1.4,1.1s1.7,1,2.6,2.1c1.9,2.4,2.2,2.8,5,4.9,3,2.3,5.4,8.1,7.3,17.7.3,1.7,1.2,4.6,2,6.4,1.2,2.7,1.3,3.5.6,4.3ZM1047.4,451.8c-.4,3-1.6,3.5-1.5.7,0-1.9,1-4.2,1.6-3.6.2.2.1,1.5,0,2.9ZM1052.6,456.6c-1.6.6-1.9.5-1.9-1.1,0-.8.3-2,.7-2.6.6-.9.8-.9,1.3,0,.9,1.4.9,3.2-.2,3.7ZM1019.4,448.6c.8-1.1,1.2-1.1,4.3-.3,4.5,1.2,7.4,2.8,8.7,4.8,1.3,2,7.8,6.4,10.5,7.1,2.1.5,11.9,10.2,11.9,11.8,0,1.8-1.7,3.6-3.5,3.6s-3.1-.9-4.8-2c-2.5-1.7-3-2.4-3-4.3s-.2-2.2-1.8-2.1c-1.2,0-1.9-.3-2.1-1-.1-.7-.9-1.1-2.3-1.2-1.9,0-2-.2-2-2.4s-1.2-3.4-2.8-2.1c-1.6,1.3-3.4-.8-3.1-3.8.2-2.8-1.5-4-2.9-2.1-.8,1.1-1.1,1-4.4-.7-3.7-1.9-4.3-3.1-2.7-5.3ZM1013.4,439.9c-5.1-4.5-9.1-5.9-12.9-4.8-1.6.5-3.7,1.3-4.7,1.8-2.4,1.3-2.4,1.3-3.3-1.3-.6-1.8-.5-2.8.2-4.7.5-1.3,1.2-4.4,1.4-6.8.4-4.8,1.4-6.5,2.7-4.7,1.3,1.8,3.3,2.4,7.8,2.3,3.7,0,4.3.1,4.3,1.2,0,2.2,5.4,10.4,10.3,15.5,2.6,2.7,4.8,5.1,4.8,5.3,0,.4-1.3.3-4.3-.2-1.7-.3-3.8-1.5-6.3-3.7ZM1000.1,443.4c-.5,4.1-1.7,4.5-1.9.6-.1-1.7.2-2.3,2.1-3.2,3.4-1.6,6.9-.7,10.4,2.8,1.6,1.6,2.9,3.4,2.9,4.1,0,1.3,0,1.3-2.6.4-1.3-.5-2.3-1.4-2.6-2.4-.5-1.9-2.1-2.7-3.3-1.7-.6.5-1.1.2-1.6-1.1-1-2.2-3.1-2-3.4.4ZM1000,450.2c-.4,0-.7-.5-.7-1.1s.3-.9.7-.6c.4.2.7.7.7,1.1s-.3.6-.7.6ZM1000.7,480.6c0,1-.3,1.8-.6,1.8-.9,0-6.5-4.1-7.7-5.7-.6-.8-1.5-1.2-1.9-.9-1.6,1-.7,3.5,2.4,6.7,2.6,2.6,3.7,3.3,5.5,3.3s2.3.2,2.2,1.9c0,4-.8,4-7,0-9.1-6-11.5-5-4.8,2,4.2,4.3,4.1,5.4-.3,3.2-2.8-1.4-5.6-1.3-5.6.3s1.3,1.6,2.8,2.5c6.5,3.6,8.5,5.4,7.8,7.2-.4,1.1-.6,1-1.4-.6-.6-1-2.2-2.3-3.9-3-1.6-.6-3.1-1.5-3.3-1.8-.7-1.2-2.7.2-2.7,1.8s.8,1.9,3.3,3.1c4.1,1.9,4.1,2,2.9,2.7-1.7,1-2.2.8-5.3-2.4-3.4-3.5-4-3.7-4.9-1.5-.3.8-.6,1.1-.7.6,0-.5-.7-.8-1.6-.7-1.1.2-1.5.7-1.5,1.8,0,1.3-.3,1.5-1.7,1.4-1.4-.2-1.7-.5-1.5-1.9.1-.9.8-2.1,1.6-2.7,1.2-1,1.3-1.2.3-2.5-.9-1.2-1.1-1.3-1.9-.3-.5.6-1.4,1.3-2.1,1.5-.7.2-1.6,1.3-2,2.4l-.8,1.9-.9-3c-.5-1.7-.7-3.7-.5-4.6.3-1.3,0-1.8-1.8-2.5l-2.2-.9,2-.4c2-.4,3.3-2.1,2.5-3.3-.2-.3-1.7-.6-3.3-.6-3.4,0-8,2.4-9,4.6-.5,1.2-1.2,1.5-3.3,1.5s-2.6-.2-2.6-.3.9-1.3,1.9-2.5c2.5-2.8,2.4-3.7-.7-3.9-1.4-.1-2.6-.5-2.6-.9v-1.1c0-.3.5-.5,1.2-.5,1.9,0,1.7-2.6-.4-4.9-3.7-4.1-7.7-7.1-9.8-7.1s-3.4,1.4-1.7,2.4c2.1,1.2,9,8.1,7.5,7.5-.7-.3-2.6-.6-4.1-.6-2.3,0-2.7.2-2.7,1.3s.5,1.4,1.9,1.6c1.1.1,2.7,1.2,4,2.6,2.3,2.6,2.3,3.5,0,2.3-2.5-1.3-3.5-.9-3.5,1.4s-.5,2.5-1.1,3c-1,.8-1,1,.7,3.2,2.1,2.8,2.4,4.3.6,3.4-.7-.3-3-.5-5.2-.3-3.2.2-3.9.5-3.8,1.4.2,1.4-.3,1.6-2.5,1.1-2.1-.5-2.2-1.4-.3-1.9,1.9-.5,1.7-2.3-.3-3.6-2.1-1.4-2.2-2.1-.3-2.5,1-.3,1.4-.8,1.2-2-.3-1.9-2.6-2.5-3.7-1-1,1.4-3.3.7-2.7-.8.2-.5.4-1.3.4-1.6s.6-.6,1.4-.6c1.6,0,2.9-2.1,2.1-3.4-.5-.8-.9-.8-2.4-.1-1,.4-1.8,1.2-1.8,1.7,0,.9-6.7,5-7.3,4.4-.7-.7,1.8-4.3,3.6-5.1,1-.5,1.7-1.2,1.5-1.7-.4-1.2-3.8-1.5-5-.5-.5.5-1.2.6-1.4.4-.8-.8,1.2-3.9,3-4.6,1-.4,2.1-1.1,2.4-1.5.6-1-.6-2.5-1.9-2.5s-1-2.1.7-2.7c2.3-.9,2.9-2.1,1.5-3.1-1.6-1.2-1.4-1.6,1.1-2.2,2.8-.7,3.3-2.7.9-3.3-1-.2-1.8-.8-1.7-1.2,0-1.5,1.2-2.7,2.3-2.3,3.6,1.4,4.3-2.5.8-4-2.8-1.2-3.1-2.4-.6-2.4s2.4-.3,3.1-.7c1.9-1,.6-3.1-2.3-3.8l-2.3-.5,2.1-.3c3-.4,3.9-1.4,3-3.1-.6-1.1-1.2-1.3-2.7-1-2.8.6-2.6-1.1.3-2.4,1.9-.9,2.4-.9,2.9-.1.3.5,1.4,1,2.4,1.1,1,.1,2.3.5,2.7.9,2.2,1.8,7.4-1.6,7.4-4.8s-2.3-2-4.1.2c-1.9,2.3-3.7,2.7-4.4,1-.3-.8-1-1-2.4-.7-1.4.3-2.1.1-2.4-.6-.2-.5-1.2-1-2.1-1-2.5,0-2.2-1.9.5-3,1.2-.5,4.2-1.6,6.5-2.5,3.7-1.3,4.5-1.9,5.3-3.9.5-1.3,1-3.2,1-4.3,0-2.3,1.1-5.4,1.9-5.4s.9.9,1.3,2.1c1.5,3.9,4.3,1.7,3.2-2.5-.5-1.9-.4-1.9.9-.7,2,1.8,3.7,1.5,3.7-.5s.4-1.8,2.6-2.2c1.4-.3,4.6-.5,7-.5,4.1,0,4.5,0,4.7,1.6.3,1.8,1.9,2.7,3,1.6,1.4-1.4,1.9-.8,1.5,2-.3,2.2-.2,2.8.7,3.2.6.2,1.6,0,2.2-.4,1.4-1.1,2-.5,4.7,4.6,1.3,2.4,3,4.4,4.3,5.2,2.3,1.4,6.3,1.7,8.8.9,1.2-.4,1.6-.1,2.3,1.7,1.2,2.8,0,4.2-4,4.4-3.4.2-4.8,1.3-3.6,2.7,1.5,1.8,5,2,7,.5,1.6-1.2,2-1.2,2.7-.4.5.5.5,1,.2,1s-1.2.4-1.9.9c-1.2.9-1.2,1,.4,1.8.9.5,2.2.9,3,.9.7,0,1.6.8,1.9,1.6.5,1.3.3,1.7-1.1,2.2-.9.4-1.7.9-1.7,1.3,0,.9,2.3,2.1,4.1,2.1s1.4.4,1.4,1.7-.2,1.6-1.4,1c-1-.5-1.8-.5-2.7,0-2.1,1.1-1.7,2.3,1.3,3.7,1.5.7,2.9,1.9,3.1,2.7.7,2.6.4,4.6-.5,4.6s-1.1.6-1.3,1.4c-.3,1,.6,2.6,3,5.4,2.1,2.6,3.4,4.7,3.4,5.8ZM921.6,532c-3.2.2-6.6.7-7.6,1.1-1.8.7-2.8.1-1.9-1,1.2-1.7,3.9-2.5,7.9-2.3,4.2.2,4.2.2,4.2-1.6v-1.8s9.1-.5,9.1-.5c5.8-.3,11.4-.2,15.5.3,3.5.4,13.7,1.1,22.8,1.5,9,.4,18.5,1.1,21.1,1.6,4.9,1,7.1,2.1,3.6,1.8-4.3-.4-10.6,0-10.6.7s4.9,2.2,6.3,2c1.5-.2,5.3.9,5.3,1.5s-1.2.4-2.6.2c-5.4-.8-7.7-.6-7.7.4s2,1.6,8.1,3.2c2.5.6,4.9,1.5,5.3,1.8.4.4,0,.5-1,.2-15.7-4.1-16.5-4.2-16.5-2.9s.7,1.4,1.6,1.8c1.1.5-.7.6-5.7.3-7.5-.4-32-1.2-35-1.2-2.7,0-11.9,1.9-13.4,2.7-.7.4-3.1.9-5.1,1.2-2.1.3-5.9,1.2-8.6,2.1-4.8,1.6-6,1.7-4.7.4.4-.4,3.5-1.5,7-2.4,7.2-1.9,9-2.7,9-4.1s-1.4-1.6-6.9-.3c-2.8.7-6.5,1.6-8.1,2-3.3.8-3.7.7-3.2-.8.5-1.4,4-2.8,11-4.4,4.9-1.1,6.2-1.6,6.4-2.7.2-1.2,0-1.3-5.6-.9ZM912.4,554.5c1.1,0,.8.4-1.2,1.3-3.3,1.5-3.8,1.6-3.8.7s3-2.1,5-2ZM1003,537.5c-1.6-1-1.6-1.2-.5-2,1-.8,1.3-.7,2,.6,1.1,2.1.4,2.7-1.5,1.4ZM1004.8,541.4c.4,0,.7.3.7.7s-.3.7-.7.7-.7-.3-.7-.7.3-.7.7-.7ZM1006.6,511.3l1.6,1.5-1.5.8c-1.8.9-2.2.7-2.8-1.9-.5-2.3.6-2.5,2.8-.4ZM1006.5,548.3c-.3.5-5.9-1.3-8.5-2.8-1.8-1.1.2-.7,4.6.8,2.3.8,4.1,1.7,3.9,2ZM993.6,495.8c-.4-2-.4-2,2.9-.9,3.2.9,2.9,2.7-.4,2.7s-2.3-.3-2.6-1.7ZM996.2,508.1c1.7-1.3,2.4-1.3,2.4,0s-.6,1-1.9,1c-1.8,0-1.8,0-.6-1ZM1000,516.8c0,.4-.8.5-2.1.3-1.2-.2-3.3-.4-4.8-.4s-2.7-.2-2.7-.5,2.2-.4,4.8-.3c2.7.1,4.8.5,4.8.9ZM998.1,535.5c.2-.2.8-.2,1.3,0,.5.2.4.4-.4.4-.7,0-1.1-.1-.9-.4ZM986.4,524.9c-1.5,0-3-.3-3.2-.7-.3-.5.6-.5,2.5-.2,3.9.6,4.2.9.7.9ZM979.1,512c-2.6.2-5,.4-5.3.5-.3,0-.6-.1-.8-.4-.2-.3,0-1,.2-1.5.4-.7,1.6-.8,4.8-.5,6.1.6,6.5,1.4,1,1.9ZM978.7,505c-.4,0-.7-.5-.7-1.1s.3-.9.7-.6c.4.2.7.7.7,1.1s-.3.6-.7.6ZM961.6,513.6c0,.6,2.4,1,8.9,1.4,5.2.3,8.9.8,8.9,1.2s-1.5.5-3.9.2c-2.2-.2-13.9-.5-26.1-.6-19.5-.1-22.1-.3-22.1-1.2s-.4-1.4-.8-1.9c-.6-.6-.4-.8.9-.9.9,0,1.9,0,2.2,0,.3,0,4.8.2,10.1.4,8,.2,9.7,0,11.1-.9,1.6-1.2,8.2-1.5,13.8-.7,3.3.5,4.1,1.3,1.4,1.3s-4.3.6-4.3,1.7ZM952.5,496.8c.4,0,.8-.6.8-1.4s.3-1.4.7-1.4.7.6.7,1.4c0,1.7,1.8,2.5,2.9,1.4.4-.4,1.3-.8,1.8-.8.7,0,.6.4-.6,1.4-1.7,1.4-5,1.3-6.5,0-.4-.4-.3-.6.2-.6ZM953.1,505.3c2.3-1.6,2.5-1.6,4.1-.5,2.2,1.4,1.3,2-3.1,2.1h-3.4c0,0,2.4-1.6,2.4-1.6ZM948.2,508.5c-.2.4-1.7.6-3.3.6-2.7,0-2.8-.1-.8-.6,3-.8,4.6-.8,4.1,0ZM946.7,501.9c-.7.6-1.6.6-1.6-.2s.5-.8,1-1c1-.4,1.4.3.6,1.2ZM928.1,509.2c-.7,0-1.6-.3-1.8-.7-.2-.4.2-.7.9-.7s1.6.3,1.8.7c.2.4-.2.7-.9.7ZM953.4,521.2c.4.2,2.2.7,3.9,1l3.2.5h-2.9c-1.6.1-3.3,0-3.9-.2-.6-.2-1.1-.7-1.1-1.1s.3-.5.7-.2ZM963.6,522.2c.4,0,.7.3.7.7s-.3.7-.7.7-.7-.3-.7-.7.3-.7.7-.7ZM914.3,515c.5-.5,1.3-1,1.9-1s.7.3-.4,1.1c-.8.6-1.6,1.6-1.6,2.2,0,1-.1,1-.4,0-.2-.7,0-1.7.5-2.2ZM914.3,524.9c.4,0,.7.3.7.7s-.3.7-.7.7-.7-.3-.7-.7.3-.7.7-.7ZM916.1,494.2c.9-1.4,3-2,3-.8s-.5,1.4-1.1,2.1c-1.5,1.6-3,.5-1.8-1.4ZM920.5,498.2c1.5,0,2.3,1,1.7,2.1-.5.9-.8.9-2.5,0-1.6-.8-1.1-2,.7-2ZM923.7,506.2c1,.4.9.6-.8.9-3.6.8-4.4.7-4-.4.4-1.1,2.7-1.4,4.8-.5ZM923.5,512.7c-1.6.6-4.4.8-4.4.3,0-.7,3.5-1.7,4.6-1.2,1,.4,1,.5-.2,1ZM1002.9,531.7c.7.7.6.8-.4.4-.7-.3-1.1-.6-.8-.8.2-.2.8,0,1.2.5ZM1004.4,499.3c1.2-2.4,2.5-5.9,2.7-7.9.5-4,1.3-4.2,3.6-.8,1.7,2.5,2,6,.8,8.5-1.8,3.5-7.4,6.5-9,4.9-.2-.2.6-2.3,1.9-4.7ZM1028.8,476.4c0,.2-.8,2.1-1.7,4.2-1.8,4.1-2.8,4.7-4.8,2.5-.8-.9-1.1-1.9-.8-3.3.6-2.7-.4-3.9-2.6-3.4-2,.5-2.4-.6-1.1-3,.5-1,.4-1.5-.7-2.1-1.1-.6-1.7-.5-2.8.4-.7.7-1.3,1.6-1.3,2.1s-.5.9-1,.9c-.8,0-1-.9-1-3.7s-.3-3.9-.6-4.1c-1.3-.8-2.8.5-2.8,2.4s-.3,2.1-.7,2.4c-1.1.7-4.2-6.8-4-9.4.2-1.9.5-2.3,2.2-2.5,2.7-.3,7.6,1.7,11.7,4.7,3.3,2.5,12,11,12,11.8ZM1028.5,501c-.9-.4-3.7-1.6-6.2-2.7-4.2-2-4.5-2.3-4.5-4.3,0-2.7-3.9-8.3-7.2-10.2-1.5-.9-2.3-1.9-2.2-2.7.2-2.8,5.6-.6,8.8,3.6,1.2,1.6,4.1,4.5,6.3,6.4,4.1,3.4,5.4,5.3,6.2,8.7.4,1.8.3,1.8-1.2,1.2ZM1051.7,516.4c-1.5,1.9-2,2.2-2.8,1.6-1.3-1.1-1.3-1.3,1.8-6,3-4.7,3.4-6.2,1.4-6.2s-2.2,1.3-3.8,3.8c-1.4,2.1-2.8,3.6-3.1,3.4-.7-.4,0-2.2,2.2-5.2,3.1-4.4.6-5.4-2.8-1.2-1.2,1.5-2.4,2.7-2.5,2.5-.1-.1.5-1.9,1.4-3.8.9-1.9,1.7-4,1.7-4.6,0-1.9-2.6-1.1-4.8,1.5-2.1,2.5-2.1,2,.3-2.4,1.2-2.4,1-4.4-.4-4.1-.5,0-1-.5-1.1-1.4-.3-2.1-1.7-2.5-3.9-1.1-2.1,1.4-2,1.5-3.7-2.6-1.4-3.1-1.3-5.9.1-6.9,3.1-2.1,27.9,22.1,27.9,27.2s.5,2,1.7,2.4c1.1.4,2.4,2,3.5,4.4l1.8,3.8-1.6,1.3c-1.4,1.1-1.5,1.5-.7,2.4.8.9.7,1.4-.6,3.2-1.7,2.3-2.2,2.5-3.4,1.1-.6-.7-.5-1.5.4-3.4,1.8-3.7,0-6.2-2.7-3.5s-1,.8-.6-1.4c.3-2.1.2-2.4-1.1-2.4s-1.4-.2-.8-1.3c2.1-3.9-1-4.8-3.8-1.1ZM1093.2,606.2c2-2.1,2.9-2.2,1.9-.2-1.7,3.1-2,3.4-2.7,2.6-.5-.5-.3-1.2.9-2.5ZM1075.8,590.3c.9-1.3,1.5-1.7,2.6-1.3,3.4,1.1,7.9,1.8,12,2,4.7.2,10.7,2,16.7,5,5.6,2.8,7.7,4.7,9.6,8.7,1,2.1,3.1,5.2,4.7,6.9l2.8,3.2-1.7,1.8c-.9,1-2.3,2.7-2.9,3.7-1.4,2.2-1.1,2.1-3.4,1.2l-1.8-.7,1.7-2.5c2.8-4.1.4-5.3-3.2-1.7-2.3,2.3-3.7,2.6-4.3,1-.7-1.8-.5-3,1-5.1,1.8-2.4,1.3-4.3-.9-4-1,.1-2.1,1.3-3.1,3.1-.9,1.6-2,2.9-2.6,2.9-1.1,0-1.3-1.1-.3-1.7.9-.6,3.4-5.5,3.4-6.8,0-3-5.3,1-6,4.6-.4,2.1-.8,2.3-2.5,1-1.1-.8-1.1-1,.3-3.6,1.7-3,1.4-5.1-.7-5.1s-1.3-.4-1.2-1.2c.2-2.1-2.6-1.8-4.6.5-1,1.2-1.8,2.4-1.8,2.8,0,1.1-2.8.7-3.2-.5-.2-.6.1-2,.8-3.1.7-1.1,1-2.5.8-3-.6-1.7-2.5-1.1-3.7,1.1-.6,1.1-1.5,1.9-1.9,1.8-.8-.3-.5-3.9.5-5,.9-1.1.2-2.9-1.1-2.9s-1.6.8-2.2,1.7c-1.4,1.9-2.1,1.7-3.9-1.2-1.1-1.8-1.1-2,0-3.6ZM1042.1,536.2c.8-1.1,1.1-1.2,3.9-.2,1.6.5,4.2,1.9,5.7,3.1,5.2,4,15.4,18,15.4,21.2s.6,2.1,1.6,2.8c.9.6,2.6,3.1,3.9,5.7,1.3,2.6,2.9,5.5,3.6,6.5.7,1,1.2,2.1,1.2,2.5s-1.7,1.8-3.7,3.1c-3.3,2.2-5.9,5.7-5.9,7.9s-1,.9-2.7-.9l-1.6-1.7,1.8-1.4c1.1-.8,1.8-2.1,1.8-3.1,0-2-.6-2.1-2.9-.3-2.1,1.7-3,1.7-3.9.2-.5-1-.1-1.7,2.1-3.8,4-3.7,2.1-5.5-2.7-2.6-2.2,1.3-2.4,1.3-3.6.2-1.9-1.7-1.6-2.5,1.1-4,2.6-1.4,4.1-3.4,3.4-4.5-.7-1.1-2.2-.8-4.9,1.1-1.8,1.2-2.8,1.5-3.3,1-.5-.5,0-1.3,1.5-2.5,2.4-1.9,2.5-2.2,1.6-3.6-.5-.8-.9-.8-2.7,0-2.6,1.3-3.2.9-3.8-2.4-.3-2.1-.2-2.6.9-3,1.7-.5,2.8-2.5,2-3.8-.5-.8-1-.8-2.8-.2-3.3,1.3-4.5-.2-2.3-2.6,1.6-1.7.7-3.3-1.8-3.3s-2.8-1.6-.7-2.8c1.9-1,1.5-3.6-.7-4.1-2.1-.5-3-2.9-1.8-4.5ZM1040.8,525.6c-1.1-1.2-2.1-1.4-7.2-1.4s-6.1-.2-6.4-1c-.5-1.4.1-1.8,3.3-1.8,4.9,0,5.8-3.3,1.2-4.4-1.3-.3-1.6-.6-1-1.2.4-.4.8-1.2.8-1.7,0-1.2-4.1-2.2-6-1.5-2.4.9-3.3.8-2.3-.2.5-.5.8-1.4.8-2.1,0-1.5-2.7-1.7-5-.5-2,1.1-6.2-1.1-5.4-2.7,2.9-6.1,3.4-6.3,8.3-4.3,4.2,1.8,7.1,3.7,13.7,8.7,7.4,5.7,11.2,11,11.7,16.7.2,1.9,0,2.3-.8,2.1-3.3-.9-9.6-.8-11.4.1-2.3,1.2-4.4.5-4.4-1.6s1.8-2.2,6.2-1.4c4.4.8,5.7.1,3.8-2ZM1018.1,516.7c.2,0,.5.3.7.7.2.4,0,.7-.3.7s-.7-.3-.7-.7.1-.7.3-.7ZM1028.6,516.4c1,.4.9.6-.6,1-2,.6-2.8.5-2.9-.4,0-.9,2-1.3,3.5-.6ZM1040.7,629.2c.7-1.3,1.7-2.2,2.4-2.2,2.1,0,7.6,3.1,11.6,6.5,2,1.7,4.4,3.1,5.2,3.1,2.1,0,12.4,5.2,16,8.1,2,1.6,3.1,3.2,3.6,4.9.4,1.4,1.2,2.8,1.7,3,.6.2,1,.8,1,1.3,0,1.2,3.4,8,6.1,12.2,2.1,3.2,2.2,3.6,1.1,4.7-.6.7-1.1,1.5-1.1,1.9,0,.9-1.5,2.3-2.4,2.3s-2-1.5-3.5-3.3c-3.8-4.5-3.9-4.7-2.6-7,1-1.9,1-2.1,0-2.5-.6-.2-1.6,0-2.3.4-2,1.4-2.9,1.7-3.6.9-.5-.5-.2-1.4,1.1-3.1,1-1.3,1.8-2.7,1.8-3.1,0-1.4-2.4-.8-4.9,1.2-1.8,1.5-2.7,1.8-3.4,1.3-.8-.6-.8-.8.3-1.5,3-2,4.6-3.4,4.6-4.3,0-1.6-2.9-1.1-6.5,1.1-2.9,1.9-3.4,2-4.3,1.1-1.3-1.3-.6-3,1.5-3.8,3.1-1.2,5.3-6.2,2.7-6.2s-2.9,1.7-5,3.8c-3.5,3.5-3.9,3.7-4.8,2.7-.8-1-.7-1.3.7-2.4,3.8-2.8,4.2-3.4,3.3-4.5-.5-.6-1.5-.9-2.4-.6-1.2.3-1.7,0-2-1-.5-1.7-1.1-1.7-4.5,0-2.2,1.1-2.7,1.2-2.7.4s.3-1.2.7-1.4c.4-.2.7-1.1.7-1.8,0-1.2-.3-1.4-2.5-.9l-2.5.5.5-2.4c.5-2.4.4-2.4-2-2.4s-2.6-.3-3.5-2.3c-1-2.1-1-2.5,0-4.5ZM1024,567.4c0-2.3,1.7-6.2,2.7-6.2s2,1.3,3.7,2.9c2.5,2.4,3.1,3.6,3.8,7,.4,2.3,1.4,6.4,2.2,9.3,1.8,6.5,3.9,15.1,4.7,19.6.4,1.9,1.1,4.6,1.7,6,1.8,4.2,0,11.7-3.1,13.4-.7.4-2.3.7-3.6.8-1.3,0-2.9.3-3.6.6-1.9.8-3.1.8-3.2,0-.3-2.1,0-2.4,1.8-2.7,1.5-.3,2.1-.7,2.1-1.7s-.5-1.4-2.6-1.6c-2.5-.2-2.6-.3-2.6-3.4,0-.3,1.5-.4,3.3-.3,2.6.2,3.4,0,3.8-.9.7-1.8,0-2.4-3.1-2.4s-5.4-1-5.4-2.4,1.1-1,3.9-1.2c3.5-.2,4-.4,4.2-1.8.2-1.6,0-1.7-3.6-1.7-3.2,0-4.5-.5-4.5-2s.5-1.3,3.3-1.3,5.4-1.2,4.6-3.1c-.3-.9-1.2-1-4-.9-3.2.2-3.6,0-3.6-1.1s.6-1.5,2.3-1.7c2.8-.4,4.4-2.4,2.8-3.4-.6-.4-1.9-.5-2.9-.3-2.8.6-2.5-1.3.3-2.1,1.6-.5,2.3-1.1,2.5-2.3.2-1.5,0-1.6-2.6-1.1-2.8.5-2.8.5-2.8-1.7s.4-2.3,1-2.5c1.4-.5,1.3-2.3-.2-3.4-.9-.7-1-1.1-.4-1.7,1.3-1.3-.2-3.6-1.9-3-1.1.4-1.3,0-1.3-1.7ZM1011.1,526.2c1.1-1.6,1.3-2.2.6-2.8-.7-.7-1.1-.6-2.3,0-1.7,1.1-2.6.4-2.8-2.2-.1-1.6.2-2,2.5-2.8l2.7-.9,3.6,3.6c2.5,2.5,4.5,5.5,6.7,10.1,3.5,7.4,4.1,10,3.5,16.8-.4,4.3-.6,5-2.2,6-2.4,1.5-2.7,1.4-3.6-.5-.6-1.4-.5-2,.3-3.4.9-1.4,1-1.8.1-2.5-.5-.4-1.6-.6-2.4-.4-1.8.6-1.8,0,0-3,2.2-3.6.7-4.2-3-1.2-1.7,1.4-3.2,2.5-3.5,2.5s-.4-.9-.4-2.1.4-2.1,1-2.1c1.7,0,5.9-5.5,5.9-7.7s-1.9-2.2-4.3,1.4c-1.9,2.8-3.2,3.7-3.2,2.1s.9-2.5,2.1-4.5c2.2-4,2-5.7-.6-4.3-2,1.1-2.3.2-.7-2.1ZM1004.8,619.9c-.7-.8-.6-1.1.3-1.5,1.1-.4,2.4.6,2.4,2,0,.9-1.8.5-2.7-.5ZM1000.3,636c.8,0,1.8.3,2.4.7.8.5.8.7-.3.7s-1.8-.3-2.4-.7c-.8-.5-.8-.7.3-.7ZM923.5,836.2c.9,2.2.9,2.2-2.8,5.9-4.1,4.1-5.9,4.5-6.2,1.4-.2-1.5-.6-1.9-1.9-1.9s-1.8.5-2.1,1.9c-1,4-2,4-2.6-.2-.4-2.4-.7-3.1-1.8-3.1s-1.5.7-1.9,2.2c-.8,3.2-2.5,2.9-2.8-.5-.4-4.3-2.1-4.7-3.9-.8l-.9,2.2v-1.8c-.2-3.8-3.9-5-4.4-1.4-.1,1.1-.6,1.8-1.2,1.8s-1-.6-.8-1.7c.4-3.8-.2-4.5-4.1-4.6-2.5,0-3.8.3-4.4,1-.7,1-1,1-2.6,0-1-.6-2.3-2-3-3-.7-1-1.6-2.3-2.1-2.8-1.1-1.1-.6-4.4.7-6.1,2.3-2.7,7.2-3.5,13.3-2,3.9.9,4.3,1.4,2.5,3.4-1.4,1.6-.7,3.6,1,3,.7-.2,1.6,0,2.1.6.5.6,1.7,1,2.8,1s2.1.4,2.3.9c.8,2,10.1,1.7,10.1-.4s.6-.6,1.4-.6c1.9,0,1.7,1-.5,2.1-1,.5-2,1-2.2,1.1-.2.1.1.6.6,1.2,1.9,2.3,9,.6,8-1.9-.6-1.6,1.1-1.4,2.6.3.8.9,1.7,1.2,2.5,1,1-.3,1.5.1,2.2,1.8ZM939.5,810.2c-.2-.9.2-1.7,1.3-2.4.9-.6,1.6-1.5,1.5-1.9,0-.4.4-1.8,1-3,.8-1.5,1.8-2.3,3.4-2.5,5.9-1,8.9-1.3,11.1-.9l2.3.4.4,5.1c.5,5.6-.8,13.8-3,18.5-.7,1.5-2.2,5.2-3.4,8.2-2.7,6.8-4.4,9.1-9,12.1-5.6,3.7-12,5-14.4,3.1-.7-.6-1.2-2.4-1.5-5.7-.4-5.6-1.6-8.7-4.5-11.9-2.1-2.3-2.1-2.3-.8-4.1,2.4-3.4,3.9-4.4,5.4-3.6.8.4,2,.7,2.8.7,2.6,0,6.9,5.1,6.9,8.2s-2,.5-3.2-1.9c-1.2-2.6-3.2-3.6-4.4-2.4-.4.4,0,1.9,1.1,4,1.4,2.6,1.7,4,1.4,6.2-.3,2-.1,3,.6,3.2,1.4.6,3.8-1.5,3.8-3.3s.5-1.7,2-2c2.7-.5,3.9-3.8,2.5-6.9-1-2.3-5.6-6.6-7.1-6.6s-5-2.8-5-3.6,1.5-.5,3.2-.4c2.8.2,3.3,0,3.5-1.1.1-.7-.2-1.7-.9-2.2-1-.7-.9-.9,1-1.6,1.7-.6,2.1-1.1,1.8-2.1ZM945.2,757.3c1.2,0,3.2-.9,4.9-2.1,2.6-1.9,3.3-2.1,5.9-1.7,3.3.5,6.7,2.1,8.7,4.1,1.6,1.6,3.1,7.6,2.4,9.5-.3.8-.4,2.7-.2,4.1.2,1.9,0,2.7-.8,3-1.2.5-1.5,2.7-.4,3.4.4.2.7,1.2.7,2.1,0,1.4-.2,1.6-1.6,1.3-2.6-.6-2.8.9-.5,3.5,2.4,2.7,2.5,3.5,1,5.7-.6.8-.9,2-.7,2.5.2.6.2,1.5,0,2.1-.3.9-1.1,1-4.3.6-2.1-.3-4.6-.5-5.6-.5-.9,0-4,.2-6.9.5-5,.5-5.1.5-4-.7,1.7-1.9.5-3.9-2-3.3-2,.5-1.7-.2.7-1.4.8-.4,1.7-1.3,1.8-2,.2-.9-.3-1.2-2.1-1.2s-2.5-.4-2.8-1c-.4-1,.4-1.6,3.8-2.6.7-.2,1.2-.8,1.2-1.4s-.7-1-2.7-1-2.7-.3-2.7-1,.6-1,1.6-1c1.9,0,3.2-1.2,3.2-2.9s-.5-1.2-2.4-1.2-3.2-1-1.1-1.7c1.4-.4,2.4-2.2,1.8-3.1-.2-.3-.8-.4-1.3-.2-.5.2-1.1,0-1.4-.4-.2-.4.3-1,1.3-1.4,2-.8,2.3-2.4.6-3.4-1.1-.6-1-.7.7-1.4,1.9-.7,2.6-3.1,1.1-3.6-1.5-.5.2-1.9,2.2-1.9ZM943.8,733.2l-1.7-1.3,1.6-1.1,1.6-1.1-1.6-1.3c-1.4-1.2-1.5-1.5-.7-3,.6-1.2.7-1.9.2-2.4-1-1,.6-5.7,2.9-8.4l1.6-2,4.4.8c2.4.4,5.1.8,5.9.8,3.2,0,8.2,5.4,8.6,9.3,0,.9.8,2.1,1.5,2.7,1.1.8,1.2,1.1.3,2.8-.9,1.7-.9,1.9.2,2.7,1.8,1.3,1.4,2.4-.8,2.4s-2.1.4-2.4,1c-.4,1,1.5,3.1,2.9,3.1s1,.3-.2,2.7c-.7,1.5-1.4,1.9-2.4,1.6-2-.5-2.7,1.8-1,3,1.3.9,1.3,1-.3,2.3-1.3,1.1-2.6,1.3-8.4,1.2-6.5-.1-6.8-.2-6.8-1.6s-.8-2.4-1.7-3.5c-.9-1.1-1.7-2.7-1.7-3.5s-.5-1.6-1.4-1.9c-1.7-.4-1.7-.8-.2-2.4,1.1-1.3,1.1-1.4-.5-2.6ZM941.1,675.5c3.5.5,6.2,2.3,3.4,2.3s-2.7,2-1.4,2.8c.5.3.9,1.3.9,2.1,0,1.2.8,1.8,4,2.8,3.7,1.3,4.1,1.3,5.2.2.8-.7,2.3-1.1,4.2-1,3.8,0,8.5-1.1,11.4-2.8,1.8-1.1,2.2-1.7,1.9-3-.4-1.4,0-1.6,2.4-2,2.1-.3,3.3-.1,5.2,1,3.6,2.1,3.2,3.4-1,3.4s-4.4.9-1,2.8c2.9,1.7,3.1,2.7.4,2.7s-3.1.9-1.4,2.4c1.9,1.7,1.7,3.5-.4,4-1.8.5-2.3,2-.9,2.9.6.4.2.7-1.2.9-1.9.3-2,.6-1.9,2.7.2,1.8-.3,2.8-2,4.6-1.2,1.3-2.9,2.3-3.8,2.3s-1.7.3-2,.7c-1.6,2.5-10.7,2.5-15.2,0-2.2-1.2-3.1-2.4-4.1-5-.7-1.9-1.8-3.6-2.4-3.7-.6-.2-1.5-1.2-2-2.3-.7-1.7-.7-2.2.3-3.2.6-.7,1.1-1.8,1.1-2.5,0-1-.4-1.1-2.4-.8-1.9.4-2.4.2-2.4-.6s.7-1.1,1.5-1.2c1.6-.2,3.2-2.3,2.4-3.1-.3-.3-1.8-.7-3.4-.9-3.1-.4-3.6-1.5-1-2.1.9-.2,1.7-1,1.8-1.9.2-1.3-.2-1.6-2.5-1.9-6.9-1.1-1-3.6,6.2-2.6ZM958.2,681.1c-3.1-.1-3.8-.4-4.3-1.7-.6-1.5-.5-1.6,5.6-1.6s6.1.2,6.1.5c0,1.4-4,2.9-7.5,2.7ZM929.7,668.2c.6,0,1.1.3,1.1.7s-.3.7-.6.7-.8-.3-1.1-.7c-.2-.4,0-.7.6-.7ZM928.3,653.7l5.5-.2v-1.9c0-1.1.6-2.2,1.2-2.6,1.8-1,1.4-2.6-1-3.6-2.7-1.1-1.6-1.9,1.5-1.1,2.3.6,8.8,1.1,25.4,1.8,7.7.3,8.7.3,9.1-.7.2-.6.3-1.4,0-1.8-.2-.3,0-.6.3-.6s.9.3,1.1.7c.2.4,2,.7,4,.7h3.6c0,0-2.4,1.1-2.4,1.1-2.9,1.3-1.8,2.3,2.5,2.3,1.6,0,3.1.3,3.3.7.2.4-.3.7-1.2.7s-1.9.2-2.1.5c-.7.7,5.7,3.6,8.1,3.7,1.1,0,2.7.3,3.4.6,1.3.6-1,.8-8.2,1-4.7,0-4.5,3,.3,3.2h2.5c0,0-2.3.6-2.3.6-1.3.3-2.4.7-2.7.9-.8.8.4,2.5,1.8,2.5s1.8,1.2-.1,1.5c-1.1.2-1.5.6-1.4,1.8.1,1.2-.2,1.6-1.4,1.6-.8,0-5.5.3-10.4.6-4.9.3-10,.5-11.3.6-1.3,0-5-.3-8.2-.9-3.2-.5-8.3-1.5-11.3-2.1-3-.6-6.7-1.4-8.2-1.6-5.9-1-5.7-2.8.3-2.8s4.3-.3,4.8-1c1.3-1.5-1.2-2.4-6.7-2.4s-5-.3-5.6-1.1c-1.4-1.7,0-2.3,5.9-2.5ZM984.6,649c-.7,0-1.1-.1-.9-.4.2-.2.8-.3,1.3,0,.5.2.4.4-.4.4ZM924.6,649.7c-.9.3-1.8.6-1.8.6,0,0-.3-.2-.6-.6-.3-.4.5-.7,1.8-.6,2.1,0,2.2,0,.6.6ZM918.6,643.9c.5-1.4,5.9-1.4,9.4,0,2.6,1,2,1.2-3.4,1.1-1.7,0-3.5.2-4.1.6-1.3.8-2.4-.2-1.8-1.6ZM925.3,617.1c-3.4-.8-6.9-1-10.5-.8-2.9.2-5.3,0-5.3-.2,0-1.8,8.5-3.2,10.5-1.8.9.7,2.6.8,7.2.3,3.3-.3,7.5-.6,9.4-.7,1.9,0,4.1-.6,4.9-1.1,1.3-.8,2.6-.8,8.6-.1,3.9.5,8.8,1.3,10.8,1.9,2.3.6,6.5,1,10.6.9,11,0,10.8-.1,10.4,1.1-.3.7,0,1.2,1.1,1.5,1.3.4,1.1.5-1,.8-4.9.7-3,1.7,4,2.2,10.7.7,20.9,2.7,20.9,4s-.4.8-.9,1.2c-.7.6-1.9.4-4.6-.7-2.5-1-6-1.5-10.7-1.8-6.2-.3-7-.2-7,.8s.6,1.1,1.5,1.1c3.2,0,14.1,2.6,16.8,4,3.1,1.6,3.9,3.2,1.3,2.6-.8-.2-5.2-.7-9.7-1.2-7.2-.7-8.3-.7-9.2.3-1.3,1.3-1.2,1.4,5.9,2.5,5.4.8,6.5,1.2,5.9,2-.5.8-34.7.4-42.9-.5-3.9-.4-10.9-1-15.4-1.1-8.3-.3-25.2-3-26.4-4.2-.3-.4-.8-1.6-1.1-2.8-.4-2-.3-2.1,2.3-2.5,1.5-.2,5.1-.3,8,0,4.8.3,5.3.3,5.1-.8-.3-1.4-5.3-2.9-9.8-3-2.5,0-2.6-.1-.9-.6,1.8-.5,5.4-.5,12.3.3,2.7.3,4,.2,4.4-.4.7-1.2-.6-1.8-6.5-3.1ZM927.3,611.2c-.9,0-1.3-.2-.9-.3.5-.2,1.2-.2,1.7,0,.5.2,0,.3-.9.3ZM923.1,588.9c-1.6.2-5.8,1.4-9.1,2.6-9,3.1-8.6,3-8.6,1.8s3-3.6,6-5.2c.8-.4,3.9-1,6.9-1.2,5.9-.5,7.6-1.2,6.3-2.7-1.2-1.5-10.1-1.2-14.7.4-2.8,1-3.7,1.1-3.7.5,0-1.2,3.7-2.2,12.3-3.5,10.1-1.5,10.3-1.6,10.3-2.7s-1.1-1-5.3-1.1c-5.3,0-5.3,0-2.8-1,3-1.1,15.4-1.3,21.5-.4,2.3.4,7,1.3,10.6,2.1,8.3,1.8,23.4,2.7,29,1.8,9.9-1.6,19.3-.6,23.3,2.7,3.5,2.8,6.5,17.8,3.3,16.4-5.5-2.3-21.2-3.8-22.1-2.1-.2.4,1.9,1,4.8,1.5,6.1,1,14.2,3.4,14.8,4.3.2.4,1,.7,1.8.7s1.3.3,1.3.8c0,1.2-6.6.3-8.1-1-1-.9-2.8-1.1-8.7-1.1-4.1,0-8.7-.3-10.1-.6-1.5-.3-7.6-.4-14,0-8.6.4-12.4.3-15.2-.4-2.1-.5-6.1-1.5-8.9-2.1-3.8-.9-7.7-1.2-14.7-1.2-8.4,0-10.3.3-15.5,1.9-7,2.2-8.2,2.3-8.2.5s3.7-3.6,13-7c5-1.8,7.3-2.9,7.4-3.8.2-1-.1-1.1-2.7-.8ZM907.8,560.5c1.1-.2,3.2-.9,4.5-1.5,1.3-.6,4.1-1.3,6-1.5,3.3-.4,5.7-1.8,4.7-2.8-.2-.2-2.2-.4-4.4-.3-5.5.2-3.3-1,3.7-2,2.9-.4,5.8-1,6.4-1.3,3.2-1.7,29.8-2,36.9-.4,2.8.6,6.6,1.1,8.6,1.1s5.1.5,7,1.1c1.9.6,6.7,1.8,10.7,2.6,4,.8,7.6,1.8,7.8,2,.6.6-7.1.6-10-.1-1.3-.3-3.2-.3-4.1,0l-1.7.5,1.7.7c.9.4,4.6,1.2,8.2,1.9,10.4,1.9,13,2.5,13,3.3s-.6.5-1.5.2c-4.4-1.4-18.2-3.8-19.6-3.5-2.9.7-1.1,2.1,4.4,3.2,11.1,2.3,18,5.2,18.1,7.7,0,.7-2.2,0-5-1.4-2.4-1.2-17.6-2.2-34.1-2.2-7.6,0-13.3-.4-17.1-1.1-4.5-.9-8.5-1-18.8-.7-13.8.4-18.3,1.2-24.4,4.2-3.4,1.7-4.1,1.7-4.1-.5s.4-1.2,1.3-1c.8.2,1.8-.2,2.6-1,1.9-2.1,5-3.2,10.6-3.7,9-.8,10.7-2.5,3.2-3.2-5.7-.5-11.2.5-14.5,2.6l-2.7,1.8.2-1.9c.2-1.5.7-2,2.3-2.4ZM906.7,509.9c0-.4.6-.8,1.4-1.1.8-.2,1.4-.8,1.4-1.3s.6-1.2,1.4-1.7c1.7-1.1,1.7-.6,0,2.3-1.3,2.1-4.1,3.2-4.1,1.7ZM903.1,517.2c-1.6-1.2-3.5-2.5-4.2-2.9-1.1-.6-1.1-.8.6-1.9,3.5-2.3,7.3.7,7.3,5.7s-.2,1.8-3.7-.8ZM891.1,540.7c-1.7-1-2.5-1.2-3.2-.6-.7.6-1,.3-1.4-1.7-.6-3.2,0-6.1,2.4-12,2.1-5,4.9-9.3,6.5-9.9,1.2-.4,6.2,3.9,6.7,5.7.5,1.8,0,1.7-3.2-.4-3.9-2.7-4.6-1.2-1.2,2.8,3.9,4.5,3.7,7.4-.3,4.8-2.9-1.9-3,1.4,0,3.8,1.3,1.1,1.4,3.4.1,3.9-.5.2-1.8-.4-2.9-1.4-1.9-1.8-4.8-2.9-5.5-2.2-.5.5.4,2,3.4,5.2,1.4,1.5,2.6,2.9,2.6,3.1,0,.8-1.8.3-4-1ZM889.8,546.3c-1.2-.7-2.6-4.5-1.4-3.9,1.5.8,3.9,3.2,3.9,3.8s-1.4.7-2.5,0ZM881.1,620.5c1.5,2.9.7,4.3-2.6,4.7-1.8.2-2.2.5-2,1.7.1,1.3-.2,1.4-2.8,1.4-1.9,0-3.5-.6-4.4-1.4-.8-.7-1.9-1.1-2.5-.8-1,.4-1,.6,0,2.3,2.5,3.9,3.4,4.9,4.3,4.9.7,0,.7.3,0,1.3-.8,1.3-.9,1.3-3.6-.7-2.4-1.8-2.9-1.9-3.8-1-.9.9-.8,1.2.8,3,2.1,2.2,2.3,3,.7,4.3-.9.8-1.4.6-2.9-1.3-3-3.6-6.1-2.4-3.3,1.3,1.6,2.1,1.1,3.3-1.2,3.3s-1.8.3-2.1.7c-.2.4-1.6.7-3,.7s-3,.4-3.4,1c-.5.6-1.8.9-3.3.8-2-.1-2.6-.5-3.2-2-.8-2.2.2-3.6,2.9-4.2,1.1-.2,2.5-1.2,3.2-2.3.7-1.1,2.1-2.8,3.2-3.8,1.7-1.6,1.9-2.1,1.2-3.3-.7-1.2-.5-1.7.8-3.1.9-.9,2.1-1.6,2.6-1.4.6.1,2-.3,3.1-.9,1.1-.6,3.7-1.6,5.8-2,4-.9,5.6-1.8,9.8-5,2.9-2.3,3.6-2,5.7,1.9ZM884.2,559.2c-2.1,0-2.2.8-.7,3.2,1.7,2.8,1.4,3.4-1.5,2.4-1.8-.6-2.2-.6-2.5.4-.3.7.5,1.9,2.6,3.6,1.7,1.4,3.3,2.5,3.7,2.5s.8.4,1,.9c.2.7-.4.8-2.9.4-3.2-.5-4.1.2-2.3,1.7.5.4,1.9,1.5,3.1,2.5,1.2,1,2.6,2.4,3,3.2.7,1.3.5,1.3-2.5,1.1-4.5-.3-4.6,1-.2,3.3l3.6,1.9-3.6.2c-3.9.2-4.2.4-2.5,2.3,1.1,1.2,1,1.2-.7,1.2-2.8,0-2.2,1.6,1.3,3.3,2.1,1,3.1,1.9,3.1,2.9s-.4,1.4-1,1.4c-1.9,0-1.8,1.2.3,3.2,1.1,1.1,2.3,2.8,2.7,3.9.7,1.8.6,1.9-.6,1.5-2.8-.9-2.8.5,0,3.5,1.7,1.9,2.6,3.4,2.4,4.1-.7,1.8-2.1,1.2-3.8-1.5-.9-1.4-1.9-3.2-2.3-3.9-.4-.8-1.4-1.5-2.2-1.6-1-.1-2.5-1.9-4.6-5.5-3.4-5.7-3.4-6-3.3-19,.1-10.5,1.3-17.9,3.6-22.3,2.5-4.8,4.2-6,6.5-4.5,2,1.3,2.2,3.8.4,3.8ZM871,522.5c-1.1-.7-.7-2.2,1.5-6.6,3.2-6.4,8.4-12.6,11.9-14.2,3.9-1.8,4.8-1.8,7.4,0,3,2.1,3.6,2.8,4.2,4.5.6,1.9.6,1.9-3.8-.2-2-.9-3.9-1.5-4.3-1.3-.4.2.6,1.5,2.2,2.9,1.6,1.4,2.9,2.8,2.9,3.2,0,1.1-1.7,1.6-2.8.9-1.3-.8-6.1-.8-6.1,0s.6,1.1,1.4,1.5c2.6,1.6,1.7,2.8-1.7,2.3-4.1-.6-5,0-3,2.1,1.3,1.4,1.4,1.9.7,3.6-.8,2-.9,2-5.3,1.7-2.5-.1-4.8-.4-5.1-.6ZM845.8,571.6c0-1,.6-3.1,1.4-4.8.7-1.7,1.2-3.5,1-4.1-.7-2.3-.4-8.8.5-12.2,2.7-9.6,8.2-17.7,13.1-19.2,1.1-.4,2.4-1.3,2.8-2.2,1.1-2.2,1.4-2.3,2.8-1.6.7.4,1.8.8,2.5,1.1,1,.3,1.1.6.4,2.3-1.1,2.5-1.7,2.9-3.9,2.3-2.1-.6-4.9-.2-4.9.6s1.3,1.3,2.9,2.2c3.5,2,4.5,4.5,1.5,3.7-6.9-1.8-9.6.4-3.5,2.7,2,.8,3.5,1.7,3.4,2.1-.1.4-.7.6-1.4.4-2.7-.7-4.6-.4-4.8.8-.1.7.3,1.4,1,1.6,3.8,1.2,5,1.9,5,2.8,0,1.2-.7,1.2-4.1-.2-2.9-1.2-6.2-.8-6.2.6s1.4,1.2,3,1.7c3,.8,7.8,4.2,6,4.3-.5,0-2.4-.5-4.3-1.2-2.6-.9-3.5-1-4.1-.4-1.1,1.1.2,2.6,2.7,3.1,1,.2,2.6.9,3.5,1.6,1.5,1.2,1.5,1.3.3,2.8l-1.3,1.5-2.6-1.8c-1.4-1-2.9-1.6-3.3-1.3-1.3.8-.6,2.8,1.5,3.9,3,1.7,2.2,2.9-1.7,2.8-1.8,0-3.2,0-3.2.2s.8.9,1.7,1.7c2,1.5,2.1,3,.7,6.4l-1,2.4-3.8-2.5c-3-2-3.8-2.8-3.8-4.3ZM795.7,601c0-2.3,10.9-8.8,14.8-8.8s3.9-1.1,3-2.8c-.5-1,0-2,2.9-4.9,5.5-5.7,12.8-7.9,20.6-6,3.2.7,5.6,2.7,4.6,3.7-1,1-.9,3.7.2,4,1.1.4-1.3,3.2-2.7,3.2s-2.4-.9-4.2-2.1c-2.9-1.8-3.4-1.9-4.3-1-.9.9-.8,1.2.6,2.8,1.9,2,1.7,2.1-1.7.7-4.2-1.8-7.1,0-3.3,2,1,.5,2.6,1.8,3.6,2.8,1.4,1.5,1.5,1.9.7,2.5-1.5.9-1.8.8-3-1.1-.9-1.4-1.5-1.7-3-1.4-1.1.3-2.4,0-3.2-.6-1.9-1.5-4.3-1.3-5.1.3-.4.7-1.3,1.4-2.1,1.4-2,0-1.6,1.9.7,3.1,1.1.6,2.1,1.4,2.1,1.7,0,1.2-3.9.7-5.1-.7-.7-.7-1.9-1.4-2.6-1.4-1.2,0-1.3.3-1,2.3.4,2.6-.3,3.6-4,5.5-2.9,1.5-3.3,1.4-6.1-1.7-1.4-1.5-2.5-3.1-2.5-3.5ZM750.5,608.4c1.7-1.3,4.6-3.3,6.7-4.3,3.4-1.7,4.1-1.8,10.3-1.5,3.6.2,8.5.6,10.7,1,2.3.4,5.9.9,8,1.2,4.1.5,4.8,1,5.6,3.5.3,1.1.2,1.5-.6,1.5s-1.2-.6-1.4-1.3c-.5-1.6-2.2-2.3-2.9-1.2-.3.5-.5,2.1-.5,3.6,0,2.4-.3,2.9-2.4,3.9-1.3.7-2.6,1.2-2.8,1.2s-1-1.1-1.8-2.5c-1.7-3.2-3.4-4.4-4.3-3-.4.6-.5,1.7-.2,2.4.7,2.3.6,2.7-.4,2.7s-1.3-1.3-1.8-3.3c-1-3.8-1.9-4.9-3.4-4.4-.8.3-1,1.1-.6,3.9.3,2.8.2,3.5-.6,3.5s-1.2-1.1-1.6-2.9c-.5-2.2-1-2.9-2-2.9s-1.4.5-1.6,2.6c-.2,2.5-.3,2.6-2.4,2.4-1.7-.2-2.3-.6-2.6-1.9-.5-2-2.7-2.7-3.6-1.1-.7,1.3-3.9,1.4-5.6.2-1.2-.8-1-1.1,1.8-3.3ZM722.5,601.5c.6-1.7,5.9-2.1,11-.9,2.7.6,6.8,1.3,9.2,1.6,2.4.2,4.5.7,4.7,1.1.5.8-1.7,3.3-2.9,3.3s-1.3.8-1.7,1.7c-1.1,2.5-3.3,2.3-3.3-.4s-1.8-3.5-3.1-1.8c-1.2,1.6-2,1.4-3.4-.6-.9-1.3-1.4-1.6-1.9-1-.4.4-1.3.8-2,.8-2,0-6.8-2.7-6.5-3.6ZM697.8,607.1c1.8-1.1,16-5.4,18.1-5.4s1,.4,1,1-1.3,1.2-3.4,1.7c-3.1.7-10.4,4.1-12,5.6-1.1,1.1-2.7.7-3.7-.8-.8-1.2-.8-1.6,0-2.1Z"/>
    <path class="st1" d="M998.2,589.4c6.5,1.4,9.3,2.7,9.3,4.5s-1,1.1-8.9-1c-2.8-.8-6-1.4-7-1.4-1,0-3-.5-4.4-1-2.1-.9-2.3-1.2-1.6-2.1,1-1.2,2.7-1,12.6,1.1Z"/>
    <path class="st1" d="M988.7,582.3c5.9-.6,14,.4,14.8,1.8.3.4.5,1.4.5,2.1,0,1.4,0,1.4-6.8-.2-1.7-.4-4.9-.7-7.2-.7-8.8,0-9.7-2.1-1.3-2.9Z"/>
    <path class="st1" d="M954.2,617.7c3.1.6,8.5,1.3,12,1.6,4.7.3,6.3.7,6.3,1.4,0,1.1-3.2,1.2-11.7.3-6.1-.6-10.5-1.6-12.2-2.7-2.1-1.4.2-1.6,5.6-.5Z"/>
    <path class="st1" d="M940.8,580.8c1.8.3,4.5.6,6,.8,1.5.2,6.3.8,10.6,1.4,9,1.3,10.2,1.4,14.4,1.5,3.4,0,5.7,1.1,4.4,2-1.7,1.1-32.3-2-36.4-3.6-3.5-1.4-2.9-2.6,1-2Z"/>
    <path class="st1" d="M958.3,558.3c6.9.5,7.4.6,7.4,2.1s-.6,1.1-5.5.7c-6.3-.5-7.6-.9-7.6-2.2s1.2-.9,5.7-.6Z"/>
    <path class="st1" d="M963.3,553.8c1.5.4,5.5.9,8.9,1.2,4.4.3,6.2.7,6.4,1.4.3,1-3.9.9-21.8-.6-4.3-.4-12.1-.5-17.2-.2-9.2.4-13.7,0-12.5-1.1,1.7-1.6,30.8-2.1,36.3-.6Z"/>
    <path class="st1" d="M953.9,588.3c1.8.3,6.1.5,9.6.6,5.2,0,6.3.3,6.2,1.1-.1.6-1,1.2-1.9,1.5-2.7.7-3.8.7-9.5-.4-7-1.4-7.7-1.6-7.7-2.5s1.1-.6,3.3-.2Z"/>
    <path class="st1" d="M965.1,623.5c.4.4.6,1,.3,1.4-.2.3-2.5.4-5.2,0-5.6-.6-7.6-1.1-7.6-2s11.5-.4,12.5.6Z"/>
  </g>
  <path class="st0" d="M826.6,792.5c4.1,4.1,4.8,4.5,6,3.6,1.3-.9,1.3-1.2-.2-5.7-1-3.2-1.2-5-.7-5.5.8-.8,52.3-.8,56.2,0,1.9.4,2.1.7,2.1,4.1s1.8,5.8,3.7,2.9c.6-1,1.8-2.6,2.7-3.6l1.5-1.8,2,1.6c2.6,2.1,5,1.5,4.5-1.1-.2-1-.7-2.1-1-2.3-2.3-1.4,3.4-5.5,5.8-4.2,1.5.8,3.6.3,21.5-4.8,7.8-2.2,14.6-4.1,15.2-4.1s.9.5.6,1.3c-.2.7-.6,2.6-.8,4.1-.4,2.6-.3,2.8,1.3,2.8s3.1-1.4,6-4.5l4.2-4.5,2.8,2.1c1.6,1.1,3.7,3.1,4.8,4.3,1.7,1.9,2.1,2.1,3.2,1.2,1.6-1.4,1.5-2.2-.7-7-1-2.3-1.7-4.6-1.5-5.1.2-.6,1.6-1.8,3.1-2.7,2.5-1.6,2.6-1.8,1.6-3.4-.8-1.2-2-1.7-4.5-1.9-3.3-.2-3.6-.4-6.2-4.4l-2.7-4.1-.4-17.9c-.3-12.4-.1-17.9.4-17.9s1.8.9,3.1,2c3.4,2.9,4.3,1.6,2.7-4-1.7-5.9-1.6-6,1.8-6.9,1.6-.4,3-1,3-1.3,0-.9-4.8-3.9-6.2-3.9s-1.8-1.1-2.6-2.4c-1.2-2.2-1.3-4.7-1.2-26,.1-28.1.7-37.3,2.2-37.9.6-.2,2.3.8,4.1,2.7,2.6,2.6,3.2,3,4.5,2.3,1-.5,1.3-1.2,1-2.1-.3-.7-.8-2.9-1.2-4.9-.4-2-.8-3.9-1-4.1-.5-.8.4-1.8,3-3.7,2.6-1.8,2.7-4.6.2-4.6s-1.4-.5-1.4-1.5c0-1.6,3.8-11.9,7.5-20.2,2.1-4.7,6-14.4,13-32.1,10.5-26.5,17.1-39.6,20.1-39.6s2.2,1.2,3.4,2.6c1.9,2.4,2.1,2.5,3.4,1.4.7-.7,1.2-1.7,1-2.4-.2-.6-.5-2.4-.8-4-.4-2.6-.3-2.9,1.7-3.6,3-1,3.6-2.9,1.5-4.4-1.5-1.1-1.6-1.3-.5-3.5.6-1.2,2.5-3.9,4-5.9,1.6-2,3.6-4.9,4.5-6.3.9-1.5,2.3-3.3,3.1-4,1.5-1.3,1.6-1.3,4.3.8,1.6,1.2,3,2.3,3.2,2.6.2.3,1.8,1.4,3.5,2.5,2.2,1.4,3.7,1.8,5.1,1.5,2-.5,2.3-1,1.2-2.2-1.3-1.4-6.1-10.8-6.1-11.9,0-2.1,12.6-10,14.3-8.9.3.2.6,1.5.6,2.9,0,3.7,1.8,3.3,4-1,.7-1.3,1.5-2.4,1.9-2.4s1.7,1.2,2.8,2.6c1.4,1.7,2.6,2.5,3.3,2.2,1-.4,1-.8,0-4.1-1.4-4.4-1.3-4.7,6.2-9.7,2.9-2,7.3-5.2,9.9-7.2,2.5-2,7.8-5.7,11.6-8.3,17.2-11.6,28.4-18.8,29-18.8s.7,1.7.7,3.7c0,3.4.2,3.7,1.7,3.7s2.4-.9,3.3-2.1,1.8-1.8,2.1-1.6c.3.3-.3,3.1-1.1,6.4-.9,3.2-2.1,7.9-2.7,10.4-1.3,5.5-3.7,12.5-5.6,16.2-1.4,2.8-3.5,3.6-9.8,3.6-1.5,0-3.1.5-3.6,1.1-.7.9-.3,1.4,2.3,2.7,1.8.9,4.2,2.3,5.3,3.1,2.1,1.5,2.1,1.5,1.6,7.4-.5,5.7-.4,5.9,1.1,5.9s2.1-.8,2.8-1.9c.7-1,1.5-1.9,1.8-1.9,1.5,0,2.6,7.7,2.6,18.7v11.6s-3.3,0-3.3,0c-4.5,0-5,1.9-.9,3.6,1.6.7,3.1,1.5,3.3,1.8.2.3-.1,2.6-.8,4.9-.6,2.4-.9,4.5-.8,4.7.8.8,2.9-.8,4-2.8.9-1.8,1.3-2,2.5-1.4.8.4,2.1,1.8,3,3,1.3,1.8,1.9,2.1,3,1.5,1.2-.6,1.3-1.1.6-3.2-1.6-5.1-1.6-5.4.8-6.4,1.8-.8,2.3-1.5,2.3-3.2s-.2-2.2-3.3-2.2-3.6-.4-4.2-1.1c-2.1-2.6-5.3-25.7-3.8-28,.6-.9.9-.9,2.1.2,1.5,1.3,3.9,1,3.9-.5,0-.5-.5-2.5-1.1-4.5-1.1-3.5-1-3.8.5-5.4.9-.9,2.5-2.1,3.7-2.5,1.2-.5,2.2-1.6,2.4-2.6.3-1.7,0-1.8-4.1-2.3-4.3-.5-4.5-.6-5.8-3.6-.8-1.7-1.4-4.3-1.4-5.9,0-3,5.6-27.1,6.7-29,.5-.9,1.2-.5,3.5,1.7,2.6,2.5,5.2,3.5,6.3,2.4.2-.2-.4-2.4-1.4-4.9-2.1-5.1-2-7.4.2-8.5,2.2-1.1,3.8-2.8,4.4-4.7.5-1.5.3-1.6-2.4-1.6-5.9,0-7.3-.6-9.1-4.3-3.2-6.6-7.5-18.7-7.5-21.2,0-.7.5-1.4,1.1-1.5,1-.2.9-.7-.4-3.1-.8-1.6-1.7-4.3-2-6-.4-3.2-.4-3.2,3.5-5.6,2.8-1.7,3.8-2.7,3.4-3.6-.2-.6-.5-1.5-.5-2s-1.7-.6-5.2-.4c-5.9.5-6.2.3-7-5-.5-3-2.3-5.7-3.9-5.7s-1.2,2.1-1.7,5.4c-.4,2.9-1.2,5.6-1.8,6-.5.4-3.4.5-6.4.2-5.2-.4-22-3.7-23.4-4.5-1.2-.7-.7-2.5.8-2.9,1-.3,1.4-1,1.3-2.1-.1-1.4-.8-1.7-3.9-2l-3.7-.4-1.3-4.5c-1.3-4.3-2.5-5.9-3.7-5.2-.3.2-.6.9-.6,1.6,0,2.3-1.5,6.8-2.7,8-.9.9-2,1-4.8.7-3.3-.4-3.7-.4-3.7,1s.8,1.8,2.2,2.4c3.6,1.5,5.6,4.1,5,6.7-.3,1.3-.7,3.3-.9,4.5-.7,3.2.9,2.9,4.5-1.1,1.7-1.8,3.4-3.4,3.8-3.4s1.9,1.2,3.5,2.6c3.1,3,5.5,2.9,4.9-.1-.2-1-.1-1.9.1-2.1.3-.2,3.8.3,7.9,1,5.3.9,7.7,1.7,8.6,2.7.7.8,2.9,2.7,4.9,4.3l3.7,2.8.4,6.1c.3,5.6.5,6.1,2.1,6.2,1.2,0,1.7-.3,1.7-1.2s.3-1.4.8-1.4,1.8-1.5,3.2-3.4l2.4-3.4,1.7,2.1c2.6,3.3,5.5,12,5.9,17.8.3,4.6.1,5.7-1.5,8.6-1.7,3.2-2.1,3.4-5.8,3.9-9.7,1.3-10.6,1.8-6.8,3.5,2.6,1.2,7.7,5.2,7.7,6.1s-5.8,4.5-12.9,9.3c-7.1,4.7-15.2,10.2-18,12.2-15.4,10.9-24.3,16.6-26.4,17-2.1.4-2.5.1-4.8-3.1-1.4-2-2.9-3.8-3.3-4.1-1.3-.9-2.7,1.2-2.9,4.1-.2,3.4-.6,3.7-5.2,4.7-4.9.9-5.3,2.3-1.4,3.9,1.7.7,3.1,1.5,3.1,1.8,0,1.5-9.9,3.2-13.1,2.3-2.4-.7-6.6-6.7-7.7-11-.4-1.5-1.1-2.2-2-2.2s-1.6.9-2.2,5c-.5,2.7-1.1,5.2-1.3,5.5-.3.3-2.6.6-5.2.6-6.2.2-6.4,1.4-1,5.3,4.7,3.4,4.8,3.8,3,12.8-1.3,6.3-3.1,10-7.4,15-3,3.5-4.3,3.4-5.1-.4-.4-1.8-3.2-4.5-3.9-3.8-.1.1-.4,1.8-.6,3.8-.5,4.5-.9,5.1-3.3,5.1-1.1,0-3.3.2-4.8.5-3.5.6-3.5,2.3-.1,4,1.3.6,3.1,1.7,4,2.4l1.8,1.3-3,6.2c-1.7,3.4-3.9,8.9-5.1,12.2-1.1,3.3-2.3,6.3-2.6,6.7-.7.9-7.2,15.9-8.6,20-.5,1.5-1.5,3.9-2.1,5.2-.6,1.3-2.1,5.4-3.3,9.1-5.4,16.4-14.4,35.8-15.9,34.2-1.2-1.3-3.7-6.6-3.7-7.9s-.5-1.6-1.2-1.8c-2.2-.8-3.6.9-4.1,5-.3,2.2-.8,4.2-1.1,4.6-.4.4-2.8.7-5.3.8-2.6,0-4.9.5-5.2.9-.3.4,1.6,2.7,4,4.9l4.5,4.2-1.6,3.5c-.9,1.9-2.1,4-2.6,4.7-.5.6-.8,1.7-.5,2.3.3.9.9.9,2.6.3,1.2-.4,2.4-1.3,2.6-1.8.2-.6.8-1.1,1.3-1.1s.8,6.4.4,26.8c-.4,22.3-.7,27.7-1.9,32.1-.7,2.9-1.7,5.6-2,6-.4.4-2.4.8-4.4.9-4.8.3-5,2-.4,3.7,1.8.7,3.5,1.8,3.6,2.4.1.7-.6,3.1-1.7,5.4-1.1,2.3-1.9,4.3-1.9,4.5,0,.8,4.6-.5,5.7-1.6,1.3-1.3,1.4-1.2,1.9,3.1.9,7,.2,31.6-1,35.1l-1,3-5.4.2c-4.2.2-5.4.5-5.4,1.3,0,1.3,2.4,3.9,5.8,6.2,2.5,1.7,3.2,3.6,1.5,4.1-.5.1-5.1,1.4-10.3,2.9-5.1,1.5-13.5,3.7-18.5,5-8.2,2.1-9.3,2.2-10.3,1.2-.6-.6-1.9-1.1-2.9-1.1-3.1,0-4.1-.8-6.1-4.6-2.4-4.8-4-4.6-5.4.6l-1,3.8-4.4.5c-4.6.5-5.8,1.3-4.5,3,.4.5.6,1.2.3,1.5-.6.6-43,.6-46.8,0-1.5-.3-2.8-.7-2.8-1s1.1-1.8,2.5-3.3c1.7-1.9,2.4-3.2,2.2-4.3-.4-1.3-.9-1.5-4.7-1.3-2.9.1-4.7-.1-5.6-.9-2.3-1.9-5.6-7.6-5.6-9.8,0-3.7-4.1-4.7-4.8-1.2-.2.9-.6,3.1-.9,4.9-.3,1.8-1,3.4-1.4,3.6-1,.3-23.7-22.8-28.7-29.2-1.7-2.2-4.4-7.1-4.4-8s1.2-1.2,2.6-2.1c2.8-1.7,2.8-2.7-.1-3.9-1.6-.6-1.7-.9-1-2.4,1.9-3.8,7.1-11,8-11,.5,0,2.7,1.8,4.8,4.1,3.8,4,3.8,4.1,5.1,2.5,1.3-1.6,1.4-3.2.4-10-.6-4.3-.4-4.6,5.2-6.7,4.6-1.7,4.4-1.4,3.2-3.3-.8-1.2-1.7-1.6-4.6-1.6h-3.6l1.7-2.4c3.3-4.9,15.2-16.2,16.9-16.2s2.5-1.1,4.4-3.7c1.5-2.1,2.9-3.7,3.2-3.7s1.7,1.2,3.1,2.6c2.3,2.2,2.9,2.5,3.9,1.7,1.1-.9,1.1-1.2,0-4.3-1.1-3.1-1.1-3.4.2-4.1,2-1.1,4.8-4,4.8-4.8s-1.7-.8-4.1-.8h-4.1l-1.9-3.7c-1-2-1.9-4.2-1.9-4.9s-.4-1.1-.9-.9c-.8.3-2.1,3.4-3.3,7.9-.4,1.6-2.3-.3-3.3-3.3-1.1-3.3.2-5.4,5.1-8.2,2-1.1,3.7-2.1,3.8-2.2.1,0-.2-.8-.7-1.7-.7-1.1-2.1-1.6-5.1-2-3.8-.5-4.5-.9-7.8-4.4l-3.6-3.9.5,3c.6,3.5,1.8,5,5.5,7.2,1.5.9,2.8,1.7,3,1.8.6.5-1.8,2.7-3.5,3.3-1.6.6-1.7,1-1.3,3.7.3,1.6.2,3,0,3-.3,0-2-1.3-3.8-3-3.6-3.3-4.3-3.6-5-1.7-.6,1.7-3.3,5-3.8,4.5-.4-.4,1.7-4.9,2.7-5.5.8-.5-2.7-6-4.2-6.6-2.2-.8-1.1-2.1,1.4-1.7,3.3.6,5.8-1.1,5.8-4.1s1.2-5.1,2.9-6.4c1.1-.8,1.1-1.1,0-3-1.7-3.1-3.2-2.7-3.9,1.3-1.3,8-1.6,8.6-4.1,8.8-1.3.1-4.3-.1-6.6-.5-4-.8-7.1-.2-7.1,1.3,0,.3,1.7,1.4,3.7,2.6,2,1.1,4,2.7,4.4,3.4.7,1.3.4,1.4-3.5,1.7-2.3.2-8.8.3-14.4.3-7.8,0-10.5-.3-11.5-1.2-.9-.7-2.6-1-5.2-.8l-3.9.3-2.9-4.9c-3.8-6.5-4.8-6.4-4.8.3s.5,5.2-6.3,6.6c-4.6.9-4.2,2.5,1.1,4.2,4.2,1.3,4.5,1.6,4.5,3.7s-.3,3.4-.7,4.7c-1.1,3.8,1.3,3.1,4.7-1.3,3.1-4.1,3.7-4.1,7.9-.3,3.2,2.9,5.1,1.8,2.8-1.6-.6-.8-1.2-2.3-1.4-3.2-.6-2.2,1.7-3.2,7.5-3,2.3,0,10-.2,17.1-.5,14.8-.7,14.2-1.1,10.7,6.4-1.2,2.6-2.4,5.7-2.7,6.8-.4,1.8-.3,2.1,1.3,2.1s3.2-1.4,5.9-4.1c2.2-2.3,4.6-4.1,5.3-4.1,1.2,0,3,1.8,6.2,6.4.8,1.1,2.4,2.3,3.5,2.7,1.2.4,2.2,1.2,2.2,1.7,0,1.7-6.1,8.7-15.1,17.5l-8.8,8.5-3-6.5c-1.6-3.5-3.3-6.5-3.6-6.5-1.5,0-2.9,2.9-3.4,6.8-.8,6.9-.7,6.8-6.2,6.2l-4.7-.5v2.1c0,1.6.9,2.9,3.7,5.5l3.8,3.4-1.1,4.1c-.6,2.3-1.3,5-1.4,6.2-.5,3.3-2.2,6.6-3.3,6.3-.6-.1-1.5-1.4-1.9-2.8-1.4-4.2-2.8-3.6-4.9,2l-1.9,5.1-4.8.4c-6.1.5-6.3,1.7-.7,4.9l4.1,2.3-.3,4.5c-.2,2.8,0,4.7.6,5.1.5.3,2.1-.9,3.7-2.7l2.9-3.2,2.9,2.8c1.6,1.5,4,3.3,5.5,3.9,1.6.7,6.8,5.5,13.6,12.6,15.9,16.6,16.1,17.1,9.1,15.5-7.1-1.6-5.7,1.7,3.2,7.3,1.7,1.1,3.3,2.4,3.5,3,.2.5-.8,3.8-2.2,7.2-1.4,3.5-2.6,6.8-2.6,7.5h0c0,2.3,2.4,1.1,7.2-3.5l4.8-4.6,4.6,4.6ZM1133.1,525.9c.6.5,1.1,1.2,1.1,1.6s-.5.7-1.1.7-1.1-.7-1.1-1.6c0-1.3.2-1.4,1.1-.7ZM1134.2,479.4c3,.3,2.9,1.1-.3,3.5-1.8,1.4-2.5,2.5-2.4,3.6.1.9.1,1.3,0,.8-.2-.4-1-1.2-1.8-1.7-1.7-1.1-3.3-.3-4.1,2.2-.2.8-.8,1.4-1.1,1.4-.8,0-.9-.8-.7-3.7,0-1.5-.6-2.4-3.4-4.1l-3.5-2.2,4.4-.8c4-.7,4.5-1,5.9-3.6,1.7-3.2,2.3-2.9,3.8,1.4.8,2.4,1.4,2.9,3.3,3.1ZM1079.8,370c-1.3.7-2.5,1.2-2.7,1.2-.7,0-1.3-2.5-.6-2.9.4-.2.9-1,1.1-1.7.6-1.6,2-1.7,2-.2s.6,1.4,1.2,1.8c1.1.6.9.9-1.1,1.9ZM1126.8,384.6c0,.6-.6.9-1.8.6-2.3-.4-2.7-.1-4.6,3.5-2.3,4.3-3.1,4.1-2.7-.8.2-2.6,0-4.9-.6-6-1-2-2.6-2.4-3.2-.9-.3.7-.5.7-1.3,0-1.4-1.3-.7-1.7,3.7-2,4.2-.3,5-.7,5.4-3.1.4-2,1.7-1.6,2,.5.4,2.8,1.5,3.5,4.5,3.1l2.7-.4-2.1,2.2c-1.1,1.2-2.1,2.6-2.1,3.2ZM1124.9,424.4c.3-.3,2.1-.5,4-.5,3.5,0,3.5,0,4.5-3.3l1-3.3,1.6,1.9c.9,1,2.1,3,2.8,4.2,1.1,2.1,1.7,2.3,4.5,2.4h3.2s-2.8,2.5-2.8,2.5c-2.5,2.2-2.8,2.7-2.3,5,.4,2.3.4,2.4-.8,1.5-.7-.6-1.2-1.5-1.2-2,0-1.1-1.4-1.8-2.8-1.3-.5.2-1.7,1.7-2.6,3.2-2.5,4.5-4,3.7-2.8-1.5.7-3.3.5-4.6-1-4.6s-6-3.8-5.4-4.4ZM1062.3,470.6c.8,1.4,1.9,2.2,3,2.2,1.9,0,2.1.7.8,2.1-1.2,1.2-1.8,1.1-2.4-.2-.2-.6-1.2-1.1-2.2-1.1-1.5,0-1.8-.4-1.8-2.6,0-3.2.9-3.3,2.5-.4ZM1026.6,479.9c1.7.6,4.1-2.1,3.6-4-.2-.8,0-2.1.6-2.8,1.1-1.5,1.2-1.4,2.6,4,.6,2.5,1.3,3.3,3.8,4.4,3.1,1.4,3.9,3.1,1.9,3.8-1.6.6-1.4,2.3.7,6.6,1,2,1.7,3.8,1.6,4-.1.1-1.9-1.3-4-3.1-4.6-4.1-6.3-4.3-8-.8-1.3,2.8-3.4,4.8-2.3,2.2.3-.8,1-3.2,1.6-5.4l1-3.9-2.5-2c-2.6-2-2.8-3.6-.4-2.8ZM1004.3,518.2c.9-.7,6.2-1.9,7-1.5.5.2.9,1.3.9,2.4,0,1.1.2,2.6.6,3.3.8,1.7-.3,1.6-2.1-.2-.8-.8-2-1.5-2.6-1.5-1.2,0-4.3-2-3.7-2.4ZM957.6,708.2c-.2,0-.5-.3-.8-.8-.3-.4-.1-.7.3-.7s.8.3.8.7-.1.8-.3.8ZM957.9,703c0,.4-.4.7-.8.7s-.6-.3-.3-.7c.3-.4.6-.8.8-.8s.3.3.3.8ZM950.8,620.6c.2-.2,1.6-.3,2.9,0,2.3.4,2.5.2,3.4-2.3,1.2-3.4,1.8-3.4,2.9-.1.5,1.4,1.7,3.2,2.8,4,1.7,1.3,1.8,1.6,1,2.7-.8,1-.8,1.6-.2,3.1.5,1,.9,2,.9,2.2,0,.8-1.4.2-1.8-.7-.4-1.2-5.8-4.1-7.4-4.1s-5.2-4-4.6-4.7ZM954.5,697.8c.6,0,1.1.7,1.1,1.5,0,1.5-.8,1.9-1.7,1-.9-.9-.5-2.5.6-2.5ZM949.5,760.2c2.7.5,4-.4,4.6-3.4.7-3.6,1.9-3.5,3.8.3,1.6,3.4,2.7,4.2,5.3,4.2s1.8,1.1-.2,2.6c-1.6,1.2-1.7,1.2-.4,4.6.7,1.9,1.1,3.6.9,3.9-.2.2-1.5-.9-3-2.4l-2.6-2.8-3.6,3h0c-2,1.7-3.8,3-4.1,3s.2-1.7,1-3.9l1.5-3.9-2.7-2.2c-3.2-2.6-3.4-3.6-.6-3.1ZM897,775.5c.9,0,1.9,1.6,1.9,2.9s-2.7,2.4-3.2,2c-.7-.7.4-4.8,1.3-4.8ZM827.5,662.5c2.5-.5,3.8.9,2.1,2.1-1.6,1.2-1.9,1.2-3,.1-1.3-1.3-1.1-1.9.9-2.3ZM760.7,650.7c-.8,0-1.8.5-2.3,1.1-1.1,1.3-1.6,1.4-2.6.3-.4-.4-1.4-1.2-2.2-1.8-1.4-1-1.4-1.1.5-1.1,2.4,0,3.7-1.5,3.1-3.6-.6-2.4,1.1-2,2.6.6.7,1.2,1.5,2.2,1.8,2.2s.6.5.6,1.1-.6,1.1-1.4,1.1ZM789.8,697.3c2.1-.8,2.2-1.1,2.2-4.6s.3-3.8.7-3.8,1.4,1.6,2.3,3.5c.8,1.9,2.4,4.6,3.4,5.9,1.2,1.6,1.5,2.6,1,3.1-.5.5-.5,2.5,0,5.7.4,2.7.5,5.1.2,5.2-.2.1-1.6-1.2-3.1-2.9-1.4-1.8-3.2-3.4-3.9-3.6-.8-.2-1.1-.9-.9-1.9.3-1.1-.3-2-1.9-3.2-1.3-.9-2.3-1.9-2.3-2.2s1-.8,2.3-1.3ZM781.8,736.6c-1.3,0-3.2-1.6-3.2-2.6,0-2-2.3-2.2-3.9-.2l-1.4,1.8.5-2.4c.4-2.2.2-2.5-1.6-3.3l-2.1-.9,2.2-.5c1.7-.3,2.3-1,2.9-3.1l.7-2.6,1,2.4c.6,1.3,1.5,2.4,2.1,2.4.9,0,.9.3.2,2-.7,1.6-.7,2.1.3,2.8.6.5,1.6,1.6,2.1,2.5.5.9.6,1.7.3,1.7ZM819.2,786.3c-2.6,3.4-3.7,3.3-1.9-.2,2.7-5.3,2.6-5.7-.7-8-3.7-2.5-3.8-3.4-.5-3.4s3.4-.9,3.5-4c0-1.7,2.6-5.6,3.2-5,.2.2,1.2,2.3,2.3,4.7,1.9,4.2,2,4.3,4.9,4.3s3,.3,3,.7-1.6,2-3.5,3.7c-3.4,2.9-3.5,3-2.5,5.3,1.3,3.2.5,3.7-1.9,1.3-2.6-2.6-3.6-2.5-5.9.6Z"/>
</svg>