<?xml version="1.0" encoding="UTF-8"?>
<svg id="Layer_1" xmlns="http://www.w3.org/2000/svg" version="1.1" viewBox="0 0 1920 1080">
  <!-- Generator: Adobe Illustrator 30.3.0, SVG Export Plug-In . SVG Version: 2.1.3 Build 182)  -->
  <defs>
    <style>
      .st0 {
        fill: #564a3c;
      }

      .st1 {
        fill: #dbb57f;
      }
    </style>
  </defs>
  <g>
    <path class="st1" d="M974.6,547.3c.3-1.9,1.5-4.4,2.8-5.9,2-2.3,2.2-2.8,1.4-4.7-1.1-2.5-2.3-2.7-2.3-.4s-2.2,6.4-3.2,6.4-.8-.7-.8-1.5-.3-1.8-.8-2c-1.1-.7-1,4.4,0,8.8,1.1,4.2,2.1,4,2.8-.6Z"/>
    <path class="st1" d="M983.5,529.6c.2-.8-.2-1.3-1-1.3s-1.3.7-1.3,1.7c0,1.9,1.9,1.7,2.3-.3Z"/>
    <path class="st1" d="M968.9,558c.5,2.7,1.5,2.8,2.7.2,1.2-2.7,1.2-6,0-6s-1.6-1.1-2.4-2.4c-.8-1.3-1.8-2.4-2.3-2.4-1,0-.8,1.8.8,6,.5,1.3,1.1,3.4,1.3,4.6Z"/>
    <path class="st1" d="M996.1,405.1c-.7-1.1-3.6-1.2-3.6-.1s.6,1.1,1.4,1.5c1.6.9,3.1,0,2.2-1.4Z"/>
    <path class="st1" d="M940,255.5c3,0,4.4-1.1,2.4-1.9-2.4-.9-5.1-.5-5.1.7s.8,1.2,2.7,1.2Z"/>
    <path class="st1" d="M935.7,290.3c-1.7,1.1-3.7,2-4.3,2s-1.6.5-2.1,1.2c-.8,1-.8,1.4,0,2.4,1.3,1.6,2.6,1.5,5-.4,1.1-.9,2.6-1.6,3.3-1.6,1.6,0,3-2.7,2.4-4.3-.6-1.6-.6-1.6-4.3.7Z"/>
    <path class="st1" d="M923.3,287.2c-1.5.6-1.5,1.3-.2,2.5,1.5,1.5,3.8,1.2,3.8-.6s-1.8-2.7-3.6-2Z"/>
    <path class="st1" d="M928.7,260.5c-1.9.9-4.1,7.8-3.1,9.4.5.9,3.7.5,7.4-.9,2-.7,4.2-4.6,4.2-7.1s-3.9-3.7-8.5-1.5ZM931.3,265.9c-.7,0-1.2-.4-1.2-.8s.3-.8.8-.8,1,.4,1.2.8c.3.4,0,.8-.7.8Z"/>
    <path class="st1" d="M936.5,296.3c-2.5,0-3.6,1-2.9,2.8.6,1.5,4,1.5,5.3,0,1.4-1.6.4-2.8-2.4-2.8Z"/>
    <path class="st1" d="M931.2,285.5c1.1-1.6,1.1-2.3.4-3.2-1.4-1.6-3.1-1.4-3.1.4s-.3,1.8-.8,2c-.4.3-.6,1-.3,1.6.7,1.8,2.3,1.4,3.8-.9Z"/>
    <path class="st1" d="M923.2,261.9c1-3,6.2-7.1,8.9-7.2.9,0,2.3-.5,3.1-1.1,1.2-.9,1.3-1.2.4-1.8-3.1-1.9-11.3,0-14.4,3.3-2.1,2.2-2.9,7.1-1.5,8.8,1.4,1.7,2.5,1.1,3.5-2Z"/>
    <path class="st1" d="M946.3,275.1c2.3-.9,5.1-8.9,2.9-8.2-.6.2-1.2,1.3-1.3,2.4-.1,1.1-.8,2.5-1.4,3-.6.5-1.2,1.4-1.2,2s.5.9,1,.7Z"/>
    <path class="st1" d="M950.8,279.2c1.2-.7,3.6-5.3,3-5.8-.2-.2,0-1.4.3-2.7.4-1.4.4-2.3,0-2.3-.8,0-2.7,3.1-2.9,4.8,0,.6-.4,2.4-.7,3.9-.4,2-.3,2.6.3,2.1Z"/>
    <path class="st1" d="M932.1,326.7c1.3,1.5,4.3,2.1,5.4,1.1.3-.3,0-1.3-.4-2.4-.6-1.4-1.5-1.9-3.1-1.9-2.9,0-3.6,1.3-1.9,3.3Z"/>
    <path class="st1" d="M939.9,228.4c3.2,2,4.6,2,4.6,0s-1.4-2.2-4.1-3.6c-2.3-1.2-4.3-2-4.5-1.8-.7.7,1.6,3.8,4,5.3Z"/>
    <path class="st1" d="M1014.5,462.9h0s0,0,0,0h0Z"/>
    <path class="st1" d="M955.5,320.7c.5-1.1.6-2,.3-2-1,0-2.5,1.8-2.5,3,0,1.7,1.3,1.2,2.3-1Z"/>
    <path class="st1" d="M973.3,347.8c0,.8.2,1.3.4,1.1.3-.3.3-1,0-1.5-.3-.6-.5-.4-.5.5Z"/>
    <path class="st1" d="M957.3,509.8c1.3,0,1.5.4,1.1,1.6-.3.9-.2,1.6.2,1.6s1-1,1.2-2.2c.3-1.2.7-3,1-4,.7-2.3-1.4-2.4-3.7-.2-2.1,2.1-2,3.2,0,3.2Z"/>
    <path class="st1" d="M960.5,501.6c0-.5.7-1.9,1.6-3,2.1-2.7,2.1-4.3,0-3.2-.9.5-1.6,1.5-1.6,2.3s-.5,1.9-1.2,2.5c-.6.5-1.2,1.3-1.2,1.7,0,1.1,2.4.8,2.4-.3Z"/>
    <path class="st1" d="M949.3,451.9c.6,1.8,1.4,3.6,1.8,4.2,1.3,1.7,2.4,1.2,1.8-.8-.3-1-.6-4-.7-6.6-.1-3.7-.4-4.8-1.3-4.8s-1.5-1.3-1.9-3.6c-.4-2-1.1-3.8-1.4-4.1-.4-.3-.9-1.9-1.1-3.6-.5-3.6-2-7.5-2.8-7.5s-.7,1.4-.8,3c-.2,2.4-.6,3-2,3.3l-1.8.2,1.9,3c2.8,4.4,7.3,13.6,8.5,17.3Z"/>
    <path class="st1" d="M958.4,426.7c.6,0,1.4-.4,1.7-.8.3-.4-.2-.8-1.2-.8s-1.6.4-1.6.8.5.8,1.1.8Z"/>
    <path class="st1" d="M1061,490.1c.3.3,1.2.5,2.1.5,2.1,0,1.3-1.9-.9-2.2-1.7-.2-2.3.6-1.2,1.7Z"/>
    <path class="st1" d="M905.3,619c0-2.8-2.8-2.6-7.5.5-3.5,2.3-4.7,3.9-3,3.9s1.8,2.6.9,3.5c-.5.5-.8,1.4-.8,2.1,0,1.1.2,1.1,1.1-.1.6-.7,2.8-2,4.9-2.9,5.2-2,5.5-3.3.8-3.3s-3.5-.3-3.2-.8c.3-.4,1.9-.8,3.6-.8,2.8,0,3.1-.2,3.1-2Z"/>
    <path class="st1" d="M938.1,647.2c-1.7-.5-2.8.5-2,1.8.6.9.7.9,2.3.3,1.7-.7,1.6-1.7-.3-2.1Z"/>
    <path class="st1" d="M934.8,695.5c1.6-1,.5-4.4-2-6.1-2.6-1.7-3.9-.7-2.8,2.1.4,1.1,1,2.6,1.2,3.3.5,1.5,1.8,1.8,3.6.7Z"/>
    <path class="st1" d="M933.8,684.1c-1.1-1.8-4.3-2.8-5.5-1.7-.5.5,0,1.3,1.8,2.4,3.2,2,5.1,1.6,3.7-.7Z"/>
    <path class="st1" d="M961.8,740.9c.8,0,5.1-4.8,5.1-5.8s-.5-.5-1.1-.5-1.7-.7-2.5-1.6c-1-1.1-2.3-1.6-3.9-1.4-3,.3-2.8,1.6.4,2.7,2.9,1,2.3,2-1.3,2s-4.1,3.4.5,4.2c1.1.2,2.4.4,2.9.5Z"/>
    <path class="st1" d="M927.3,694c1.2-.7,1.2-.8,0-1.8-1.1-.9-1.4-.9-2.1.3-.4.8-1.5,1.4-2.3,1.4-2.4,0-1.8,2.3,1,4,1.4.9,2.9,1.6,3.1,1.6,1.3,0,1.5-1.8.3-3.2-1.2-1.4-1.2-1.5,0-2.2Z"/>
    <path class="st1" d="M963.3,711.2l-1.9-1.5c-1-.8-2.8-1.5-3.9-1.5s-3.2-.9-4.7-2c-1.6-1.2-3.1-1.8-3.7-1.4-.5.3-1.5.6-2.1.6-.6,0-1.3.5-1.4,1-.3,1,1.8,2.4,5.8,4h0c1.3.5,4.6.9,7.2.9h4.8Z"/>
    <path class="st1" d="M959.3,728.8c3.4,1.1,3.6,1.1,3.6-.2s-.5-1.2-1.2-1.2c-1.9,0-1.4-2,.8-3.7,2.4-1.8,2.6-3.2.4-3.9-1.9-.6-2-1.4-.4-2.8,2.6-2.2,1.4-3.1-3.6-2.6-3.3.3-4.8.2-4.8-.5s-.5-.9-1.2-.9-1.2.5-1.2,1.1c0,1.4,5.6,6.9,7,6.9s1,.4,1,.8-1.1.8-2.4.8-2.6.4-2.8.8c-.8,1.2,2.2,4.6,4.8,5.5Z"/>
    <path class="st1" d="M965.2,744.1c-.8,1.4-1.7,2.5-1.9,2.5-1,0-3.6-3.3-3.2-4,.3-.4.1-.8-.3-.8-1.2,0-1.9,3.2-1,4.3.6.8.6,1.3-.3,2.1-1.5,1.2-1.6,2.9-.2,3.5,3,1.3,5,0,7.2-4.2,2.4-4.7,2.2-7.4-.3-3.4Z"/>
    <path class="st1" d="M937.4,633.9c1.7,1.1,3.1.9,3.1-.4s-.7-1.5-1.6-2c-1.3-.7-1.7-.6-2.1.5-.3.7,0,1.6.6,2Z"/>
    <path class="st1" d="M930.9,677c2.5,0,3-.7,1.5-2.1-1.1-1.1-3.9-.4-3.9,1s.9,1.1,2.4,1.1Z"/>
    <path class="st1" d="M933.5,751.4c-1.8,0-2.5,1.5-1.3,2.7.9.9,2.4.6,3.4-.5,1.1-1.4.4-2.1-2-2.1Z"/>
    <path class="st1" d="M905.4,609.8c-.4,0-3,.9-5.8,2.1-5.3,2.1-7.1,3.7-7.1,6.1,0,1.9,1,1.7,3.1-.5,1.6-1.7,5.1-3.5,9.1-4.8,1.4-.4,2-2.9.7-2.9Z"/>
    <path class="st1" d="M931.2,669.1c.2-.4,0-1.1-.7-1.6-1.2-1-2.5.2-1.7,1.5.6,1,1.8,1,2.3,0Z"/>
    <path class="st1" d="M937.9,638.9c.4-1.1-2.7-2.9-3.8-2.2-.5.3-.5,1.1,0,2.1.9,1.7,3.2,1.8,3.7.2Z"/>
    <path class="st1" d="M935.7,655.8c0-1.4-1.3-2.3-2.4-1.6-.6.4-.5.9,0,1.6,1.2,1.5,2.3,1.4,2.3,0Z"/>
    <path class="st1" d="M932.8,697.8c-1.6,0-2.3,2.2-1.1,3.6,1.2,1.4,4.5,1.6,5.3.2.6-1-2.4-3.9-4.2-3.9Z"/>
    <path class="st1" d="M890.1,607.2c0,1.7,1.1,1.2,4.6-2.1,2.2-2.1,4.5-3.5,7.2-4.1,5.1-1.2,6.2-2.3,2.3-2.3s-14,6-14,8.6Z"/>
    <path class="st1" d="M899,630.9c-3.6,2.2-4.1,3.3-1.9,3.9.8.2,1.9.2,2.5,0,.6-.2,1.4-.3,1.8-.3s.5-.4.2-.9c-.3-.5,0-1.4.9-2,1.1-.8,1.2-1.3.6-2-.6-.6-1.8-.3-4.2,1.2Z"/>
    <path class="st1" d="M895.6,526.4c-.4.4-.6,1.4-.3,2.2.4.9.8,1.1,1.3.6.4-.4.6-1.4.3-2.2-.4-.9-.8-1.1-1.3-.6Z"/>
    <path class="st1" d="M895.2,594.7c.2-.4,2.5-1.5,5-2.5,5.4-2.1,6.3-2.8,4.8-3.4-1.3-.5-12.6,4.8-12.6,5.9s2.2.9,2.7,0Z"/>
    <path class="st1" d="M939.2,612.2c.2,0,.5-.5.8-1.2.3-.7.1-1.2-.3-1.2s-.8.5-.8,1.2.1,1.2.3,1.2Z"/>
    <path class="st1" d="M945.7,637.8c.7,0,1.2-.4,1-.9-.2-.5-.6-.9-1-.9s-.9.4-1,.9c-.2.5.3.9,1,.9Z"/>
    <path class="st1" d="M901.3,637.8c-1.7,0-2.7,1.1-1.9,1.9.9.9,2.5.5,2.9-.7.3-.8,0-1.2-1.1-1.2Z"/>
    <path class="st1" d="M897.6,609c1.8,0,5.3-2,5.3-3,0-1.2-1.3-1.3-2-.2-.3.4-1.4.8-2.5.8-1.7,0-7.5,4.6-7.5,6s1.1.3,3.3-1.6c1.3-1.1,2.8-2,3.4-2Z"/>
    <path class="st1" d="M903.4,593.8c-1.5,0-3.2.5-3.7,1.2-.5.7-1.6,1.2-2.4,1.2-1.4,0-4,2-4,3.1s5,0,6.8-1.2c.9-.6,2.2-1.1,3-1.1s1.8-.7,2.3-1.6c.8-1.5.6-1.6-1.9-1.6Z"/>
    <path class="st1" d="M1003.7,690.5c0-.4-.5-.8-1.2-.8-1.2,0-1.6.9-.7,1.8.6.6,1.9,0,1.9-1.1Z"/>
    <path class="st1" d="M1119.9,501.9c-1.5,1.5-3.9-2.2-3.9-6.1,0-2.6-.6-4.3-2.2-6.3-2-2.5-2.3-2.6-4.2-1.8-1.9.9-2.3.7-4.4-1.6-1.3-1.4-2.7-2.6-3.1-2.6s-4.4,3.5-8.7,7.8c-7.7,7.6-13.1,11.5-14.3,10.3s-.8-5-1.1-10.3c-.4-7.4-.3-10.2.6-11.8.7-1.4,1-4.7,1-10,0-6.3.2-8.7,1.5-11.9,1.6-4,3.7-11.9,6.3-24,.8-3.5,1.7-7.1,2.2-7.9.7-1.3,4.7-16.6,7-26,6.9-29.4,10.4-53.5,9.9-67.2-.8-19.6-1.5-24.4-4.7-34.5-2.2-6.8-7.3-18.1-8.5-18.8-.4-.2-.6-1.1-.6-1.9s-.4-1.8-1-2.1c-.5-.4-1.5-1.7-2.2-3-1.3-2.6-10.1-7.5-13.4-7.6-1,0-2.8-.6-3.9-1.4-2.9-1.9-10.5-1.6-16.3.5-3.5,1.3-5.4,2.8-9.2,7-4.7,5.4-6.6,8.1-8.8,12.8-.6,1.4-2.3,3.4-3.6,4.3-1.3,1-3.2,3.4-4.2,5.4-2,4.2-9.2,12.1-10.9,12.1s-2.3.9-3.8,2c-1.4,1.1-2.9,2-3.2,2s-1.7.6-3.1,1.2c-3.7,1.8-6.2.6-8.4-4-2.1-4.3-2.9-11.6-1.8-15.6.7-2.4.5-3.4-1.4-6.7-1.3-2.4-3.1-4.5-4.6-5.2-3.6-1.8-5.2-4.9-4.5-8.6.3-1.7.9-3.2,1.4-3.5,1-.7-.5-5.3-2.6-7.4-.8-.9-1.6-2.5-1.8-3.6-.2-1.4-.9-2.1-2.8-2.6-3.5-.9-4.2-2-4.7-7.5-.3-3.4-.9-5.1-2-5.8-.8-.6-1.5-1.6-1.5-2.3,0-1.5-4.9-7.3-7.8-9.2-1.2-.8-3.4-1.4-4.9-1.4-3.3,0-5.7-2-5.7-4.7s-6.9-9.4-9.7-9.9c-2.9-.4-7.1.7-9.7,2.6l-2.3,1.7-4.8-2.6c-4.2-2.2-5.3-2.5-8.5-2-2,.3-4.5,1.1-5.6,1.8-1.5,1-2.3,1.1-3.5.3-.8-.5-2.1-.9-2.8-.9-1.9,0-7.3,3-7.8,4.4-.3.7-1,1.2-1.6,1.2s-1.8.8-2.6,1.8c-.8,1-2,2.1-2.7,2.3-2,.7-5.6,6.6-6.5,10.4-1.4,5.9-1.4,15,0,16.3.7.7,1,1.9.7,3.1-.8,3.3.2,5.4,4.7,9.2,2.4,2,4.3,4.1,4.3,4.6,0,.6-1.2,1.5-2.7,2.2-3.2,1.3-7.7,5-7.7,6.2s-.6,1.5-1.4,2.4c-2,2.2-1.4,12.9,1.9,33.6.6,3.8,1.1,8.8,1.1,11s.4,4,.8,4,1,.5,1.3,1.2c.3.8-.8,2.3-3.2,4.4-5.7,5-7.6,9.8-8.5,21.2-1,12.8-3.1,30.8-3.7,31.7-.2.4-1.1,4.2-2,8.5-1.3,6.6-2.5,11-4.4,17-.5,1.5-4.3-2.7-6.8-7.6-.9-1.8-2.5-4.3-3.4-5.6-1-1.3-2.2-3.7-2.8-5.2-.6-1.5-1.4-3.2-1.8-3.8-1.4-1.8-3.8-11.1-4.3-16.4-.3-3.3-.1-6.9.5-9.2.5-2.1,1.3-5.1,1.7-6.6.4-1.5,1.1-4.4,1.6-6.4.8-3.1.7-4.2-.6-7.6-.8-2.2-2.5-5.4-3.7-7.1-1.2-1.7-2.1-3.7-2.1-4.5,0-2.4,6.9-10.9,9.4-11.4,3-.6,3.4-1,7.5-6.4,5.2-6.9,7.1-10.3,7.1-12.7,0-1.8-.4-2.2-1.8-2.2s-2.6.6-3.6,1.3c-2.5,1.7-2.9,1-.9-1.5.9-1.1,1.6-2.5,1.6-3.1,0-1.1,2.6-5.2,6.7-10.4,1.2-1.6,3.8-3.9,5.6-5.1,6.2-4,8.9-10.7,7-17.9-1-3.9-2.1-5.1-3.9-4.1-1.4.7-1.8.4-3.4-2.7-1-2-2.1-3.6-2.5-3.6s-.7-.5-.7-1.1c0-2.8-7.6-8.6-9.6-7.3-1.8,1.1-3.3,21.8-2,27.5.3,1.6.2,2.5-.3,2.5s-.9-.7-.9-1.5c0-1.9-2.5-6.5-3.6-6.4-.4,0-1.6,1.3-2.6,2.8-1.6,2.5-1.7,3.4-1.3,11.4.4,6.5.9,9.6,2.3,12.8,1.6,3.6,1.7,4.7,1.1,8.1-1.6,8.6-4.8,13.1-4.8,6.9s-.7-5.2-1.6-7c-.9-1.8-1.6-3.8-1.6-4.3,0-1.6-1.3-2-4.5-1.4-2.3.4-3.4,1.3-5.2,4.2-1.4,2.2-2.1,4.2-1.9,5.1.2.8.1,1.4-.3,1.4-1,0-1.8-4-1.8-9.3s.3-4.6,2.3-6.5c3.7-3.4,5.8-9.2,6.7-18.7.7-6.5.7-8.8,0-9.5-1.7-1.7-4.7,2.3-8.2,10.8l-1.3,3.1-1.8-5.3c-1-2.9-1.6-6-1.3-6.9.3-.9,2.8-3.6,5.7-6.2,2.9-2.5,6.2-6.3,7.5-8.3,2.3-3.7,4.5-10.1,3.7-10.8-.2-.2-2.2.1-4.4.8l-4,1.2-1.3-4.1c-.9-2.8-2.2-4.8-4-6.3-1.5-1.2-2.9-2.2-3.2-2.2s-1,1.3-1.6,2.8c-.6,1.5-1.6,2.8-2,2.8-1.2,0-5.7-2.3-7.4-3.8-1.2-1.1-1.6-1-3.7.2-2.3,1.4-4.1,4.1-4.1,6.3s.9,3.1,2,5.6c2.2,5,2,5.2-3.6,3.5-2.3-.7-3.4-1.6-4-3.3-.5-1.6-1.2-2.2-2.2-2-1.2.2-1.4,1.1-1.3,4.5,0,3.6.6,4.8,3.4,8.5,2.6,3.4,4.6,5,9.4,7.4,5.8,2.9,7.5,4.7,7.5,7.9s-.6.9-2.8.3c-3.6-1-4.4-.4-4.3,2.7.1,2.4.1,2.4.5.3.2-1.2.6-2.2,1-2.2,1.5,0,5.7,4.3,6.8,7,1.3,3.2,1.5,8.2.4,8.2s2.1,6.1,3.9,7.4c1.6,1.1,2.9,8.3,1.7,9.1-.4.2-1.6-.9-2.8-2.4-1.4-1.8-2.8-2.8-4.1-2.8-1.9,0-3.4,2-2.3,3,.3.3.8.1,1-.4.6-1.8,4.9,1.5,6.6,5.2.9,1.9,1.6,4.8,1.6,6.4v3s-2.6-2.9-2.6-2.9c-1.4-1.6-3-3.5-3.6-4.4-1-1.5-1-1.4-.5.3,1,3.9-1.4,1.5-4-4-2-4.2-2.9-7.4-3.3-11.8-.6-6.3-2.7-15.3-4.4-18.5-2.6-4.8-4.2-5.7-11.5-6.2-3.8-.3-7.2-.4-7.6-.1-1.2.8-1.8,9.2-.9,12.5.5,1.7,1.9,4.2,3.2,5.4l2.3,2.2-2.3-4.6c-2.6-5.1-3-9.9-1.1-11.9,1.7-1.7,2.5-1.6,5.9.9,4.3,3.2,6,5.5,7.5,9.7,1.8,5.3,1.9,5.4,1,5.5-.4,0-1,1-1.2,2-.5,2.1-2.7,2.1-6.6,0-1.8-.9-2.2-1-1.9-.1.2.6,2.7,2,5.7,3.1,6.2,2.4,8.3,4.1,8.9,7.2.2,1.3.7,3.4.9,4.7.4,2.2.3,2.4-1.5,2.4s-2.2.4-2.5.8c-.3.5.5.8,1.8.8,2.8,0,4.2,1.1,6.5,5.1,2.2,3.9,1.6,4.9-2,3.3-1.6-.7-3.5-1.2-4.4-1.2-2.5,0-6.1-2.2-6.7-4.1-.4-1.3,0-2.1,1.3-3.2,1.5-1.1,1.6-1.5.6-1.5-2.7,0-3.9,1-3.9,3.3s4.5,7.8,7.9,7.8,3.8.5,5.4,1.2c1.6.7,3.6,1.2,4.6,1.2,2.2,0,4.8,2.2,6.4,5.3,1.6,3.1,1.6,3.7.1,3.2-1.5-.6-6,3.4-6,5.4s-.7,2.3-1.5,3.2c-.8.9-2.1,3.4-2.9,5.5-.8,2.1-2,4.2-2.8,4.8-.8.6-1.7,2.5-1.9,4.4-.3,1.9-.7,4.9-1,6.6-.5,3.6.7,7.5,3,9.8,1.1,1,1.3,2,1,3.6-.8,3.4-3.2,7.6-5.8,10.4-1.8,1.9-3.3,5.4-6,14-5.9,18.9-6.4,20.6-6.5,24,0,3.2,0,3.3,2.4,3.4,3.7.1,4.6.9,4,4.1-.2,1.5-.2,3.8,0,5.1.4,1.9.9,2.3,2.6,2.3,3.8,0,4.8-2.2,4.4-9.7l-.3-6.7,1.3,3c.8,1.9,1.8,3,2.8,3s1.5.4,1.5,1,.5.5,1.3-.3c1.1-1.1,1.2-2,.3-7.2-.5-3.2-1-10.4-1.1-15.9v-10c0,0,3.3-6.9,3.3-6.9,1.9-3.8,3.8-7.2,4.2-7.5,1.4-.9,3,1.1,5.2,6.7,2.1,5.3,2.8,10.6,4,27.7.5,7.8,3,19.2,5.2,23.6,2.8,5.6,5.9,10.8,7.6,12.8,1,1.1,3.3,4.2,5.1,6.9,6.2,9,11.3,10.8,17.8,6.2,1.8-1.3,5-3.4,7-4.7,2-1.3,5.4-4.1,7.6-6.2,2.1-2.1,4.2-3.8,4.5-3.8.8,0,0,3.2-5.1,22.2-3.4,12.7-7.7,23.9-13.1,34.3-1.2,2.3-3.3,6.3-4.7,8.9-1.4,2.7-4.1,7.1-6,9.8-3.3,4.6-13,18.4-15.5,22-1.9,2.7-.5,6.2,3,7.1,2.3.6,3.5.4,6.7-1.2,4.1-2.1,17.4-13.9,17.9-15.9.4-1.5,3.3-4.8,4.3-4.8,1.5,0,.3,4.6-8.4,32.4-2.8,8.9-6,16.9-10.7,26.6-3.7,7.6-7.1,13.8-7.5,13.8s-.5.6-.3,1.2c.3.7-.5,2.5-1.8,4.2-1.3,1.6-3.9,6.1-5.8,10-1.9,3.9-5.8,10.5-8.6,14.8-4.8,7.3-5.2,8-4.8,11.4.9,8.5,9.6,8.4,16.9-.1,2.4-2.8,3.1-3.2,3.6-2.2.5.8,2,1.2,4.3,1.2s4-.4,6.5-2.8c1.6-1.5,4.5-5.6,6.5-9,2.4-4.2,4-6.1,4.8-5.8.6.2,1.9.1,2.9-.2,1-.4,2.7-.9,3.8-1.1l2-.5.2,9.9c0,5.4.6,13.8,1.1,18.6,1.1,10.1,1,44.1,0,51.1-.4,2.6-.7,6.6-.7,8.8,0,2.2-.4,7.2-.9,11.2-.5,4-1.1,8.5-1.2,10-.2,1.5-.7,3.5-1.1,4.4-1.5,3.4-3.1,9-4,14-2.2,12.4-4.1,16.9-10.3,24.4-4.1,5-8.5,12.2-9.7,16-.6,1.8-1.4,3.7-1.8,4.2-1.2,1.6-1.7,11.4-.7,15,.6,2.3,1.9,3.9,4.3,5.7,3.9,2.9,9.4,4.4,9.4,2.5s-.3-1.5-.8-1.9c-.5-.5.5-.8,2.8-.8,1.9,0,4-.5,4.7-1.1.8-.6,2.4-.8,4.8-.4l3.6.5-.3,4.3c-.4,5.2-1.8,8-6.4,13q-16,17.2-15.3,27.4c.5,6.4,1.4,9,3.8,10.7h0c2.3,1.7,6.5,1,10-1.6,1.4-1,2.8-1.9,3.1-1.9s2.9-1.9,5.8-4.2c6.3-5,9.8-10.1,9.8-14.4s.4-3.3,3.7-5.6c5.7-3.9,8.8-6.8,10.7-9.9,1.6-2.6,1.7-3.1.7-6.1-1.3-4.3-1.6-9.2-.6-9.8,1.3-.8,8,7,12.6,14.9,4.8,8,7.8,10.4,13.1,10.4s6.7-1.3,11.4-6.1c4.1-4.3,4.5-4.5,7.5-4.1,1.7.2,6.3,2.3,10.2,4.5,7.5,4.3,11.3,5.1,14.3,2.9.9-.6,2.5-1.2,3.7-1.2,1.3,0,3.8-1.3,6.4-3.4,3.4-2.7,5-4.9,7.8-10.7,2-4,4.6-8.5,5.9-10,2.3-2.8,10.6-8.7,12.1-8.7,4-.1,7.5,13.8,7.5,30,0,11.9,2.5,29.5,4.4,31.6.7.8,2.4,1.9,3.7,2.5,2,.8,2.7.8,4.4-.4,1.1-.7,2.4-2.4,2.9-3.7.6-1.7,1.5-2.5,3.1-2.8,1.5-.3,2.9-1.5,4.1-3.4,1-1.6,2.6-3.6,3.7-4.4,2.5-2,3.7-5.1,5-12.5,1.2-7.3.4-10.4-5.4-20.1-5.4-8.9-7.4-12.8-6.9-13.6.6-.9,4.1.6,7.4,3.2,1.6,1.2,4.3,3,6.1,3.9,2.1,1.1,3.7,2.7,4.6,4.6,4.3,9,11.8,13.5,22.1,13.4,2.9,0,11.4-2.6,12.6-3.8,1.8-1.8,2.6-7,2-14.1-.6-8-2.5-13.1-6.4-16.9-2.7-2.6-2.9-2.7-9.7-2.7-5.2,0-8.1-.5-11.5-1.8-5.1-2-11.3-7.1-13.2-10.8-.7-1.4-2.1-3.6-3.2-4.8-3.3-3.9-5-8.2-6.3-15.3-.6-3.8-1-7.1-.8-7.4.2-.3.6-3.1.9-6.1.3-3.1.7-5.8.9-6.2.2-.3.5-4.6.8-9.4.4-7.5.2-9.7-1.2-14.2-3.9-12.7-4.9-21.5-3.2-27.8,1.9-7.3,1.1-14.1-2.5-21.2-1.3-2.6-3.5-8.2-4.9-12.5l-2.5-7.8.6-14.8c.3-8.1.6-14.9.8-15,.1-.1,1.7.4,3.5,1.1,2,.8,3.6,2,3.9,3.1.3,1,1.9,2.7,3.4,3.7,2,1.3,2.9,2.7,3.4,4.9.9,4.6,3.4,8.8,6.7,11.6,1.6,1.4,3.2,2.5,3.5,2.5.6,0,4.8,8.2,4.8,9.3s.9,1.7,2,3c1.1,1.3,2,2.7,2,3.2,0,1.4,7.4,7.3,9.9,8,2.6.6,4.5-.5,4.5-2.7s-1.1-4.8-2.4-8.9c-2.3-7.1-6.4-25.5-6.8-30.7-.3-3.6-1.2-27-1.5-41.2-.2-6.9,0-13,.4-13.8,1.9-3.5,5.4-.8,9.3,7,2.6,5.3,6.5,9.4,10,10.7,1.8.7,2.5.6,3.9-.8,1.1-1.1,1.5-2.2,1.1-3.4-.3-.9-1.1-4.1-1.7-6.9-.7-2.8-1.5-5.9-1.9-6.8-.4-.9-1.1-3.6-1.5-6-.4-2.4-1.5-8.4-2.5-13.2-.9-4.8-1.9-11.5-2.1-14.8l-.4-6,3.2-1.4c1.8-.8,4.5-2.3,6.1-3.4,1.6-1.1,4.1-2.5,5.6-3.1,1.5-.6,2.9-1.5,3.2-2,.3-.5,1.2-.9,2.1-.9s2.5-.9,3.7-2c1.2-1.1,3.1-2.2,4.2-2.4,1.1-.2,3.2-.9,4.7-1.6,1.4-.6,4-1.4,5.8-1.7,5.1-.8,7.3-4.5,4.7-7.8-1.7-2.1-3.8-2.6-5.2-1.2ZM878.5,273.7c.3-1,1-3.7,1.6-6.1,1.2-4.9,1.8-5.7,2.8-4.1,1.3,2,.8,5.5-1,8.4-2.2,3.4-4.3,4.5-3.4,1.8ZM868.9,247.7c1.5-.2,1.6.2,1.7,5.2,0,3-.2,5.6-.5,5.8-.8.6-1.6,12.1-.8,11.6.8-.5,1.6-4.5,2.1-10.8.5-5.9,1.1-7.3,1.9-5.2,1,2.5.9,8.4-.4,13.1-1.5,5.6-2.8,7-4.6,4.9-.7-.8-1.2-1.7-1-1.8.2-.2-.2-3.2-.8-6.7-1.4-8.1-.3-15.7,2.4-16.1ZM856.3,277.9c-.8-7.1-.8-8,.5-10,.9-1.4,1.7-1.9,2.2-1.4,1.1,1.1,2.9,8.3,2.6,10.4-.2,1,0,1.8.5,1.8s.8-1.1.8-2.4.3-2.2.8-2c.4.3.8,1.9.8,3.7s-.4,3.3-1.5,3.6c-1.1.3-1.6,1.4-2,4.3-1,7.8-3.2,4-4.6-8.1ZM864.9,302.7c4.9-3,4.9-1.6-.1,3.9-3.9,4.3-6.7,6.4-6.7,4.9s4.3-7.3,6.8-8.8ZM842.8,264.5c1.9-.6.4,10.4-2.1,16-1.1,2.6-2.4,4.7-2.8,4.7-3.7,0,.9-19.3,4.8-20.6ZM830.9,251.5c0-2.9,2.6-8,4.1-8s.7.5.5,1c-.2.5-1,2.6-1.8,4.6-1.9,4.9-2.8,5.7-2.8,2.4ZM841.5,240.7c2.5-.6,2.7,0,1.1,3.9-2.7,6.3-9,8.9-7,2.9,1.3-3.8,3.3-6.1,5.9-6.7ZM818.5,254.2c-4.8-2-7.6-3.9-7.6-5.2s2-.7,4.5-.7c4.2,0,4.7.2,7.6,3.2,1.7,1.8,3.1,3.6,3.1,4,0,1.2-2.4.8-7.6-1.4ZM828,241.9c-.7,1.8-1.7,3.2-2.2,3.2-1.9,0-5.5-4.1-7.4-8.5-1.8-4.2-1.9-4.6-.7-6.4,1.6-2.5,3-2.4,7.1.4,3.5,2.4,4.9,2.4,7.2,0,2.1-2.2,3.8-1.9,3.8.7,0,1.2.2,2.9.4,3.8.3,1.1-.2,2.4-1.6,3.8-2.4,2.6-2.9,2.7-2.9.7s-.5-2-1.2-2.5c-1-.8-1.2-.8-1.2.3s-.6,2.7-1.3,4.5ZM831.9,285.3c-1.5,1.5-2.9-4.1-2.1-8.5.8-4.4,1.7-3.4,2.3,2.4.3,3.2.2,5.6-.2,6.1ZM808.7,269.9c-1,0-3.6-3.3-3.1-3.9.8-.7,3.2,1,3.5,2.5.1.7,0,1.3-.4,1.3ZM807.7,406.4c-.5,4.8-1.2,8.9-1.5,9.3-.3.3-1.2.1-2-.4-1.2-.9-1.3-1.4-.4-5,1.4-5.5,4.1-13.3,4.5-12.8.2.2,0,4.3-.6,9ZM1065.6,818c-.9,2.3-2.6,1.3-3.8-2-.7-2,.4-2.3,2.5-.7,1.2.9,1.6,1.8,1.3,2.7ZM1079.7,813.7c-1.1,0-1.8-1.4-1-1.9.8-.5,1.7.2,1.7,1.3s-.3.7-.8.7ZM1083.8,824.9c-2,1.1-2.3.6-3-4.4-.5-3.4-.3-4.1.9-4.6,2-.8,2.9.4,3.3,4.6.3,3,.2,3.7-1.2,4.5ZM1086.5,821.6c-.2-.6-.7-3-1.2-5.3-.5-2.4-1.6-5.3-2.5-6.6-1.6-2.3-1.7-2.3-4-.9-1.3.8-2.3,1.7-2.3,2.2s-.4.4-.9-.2c-.7-.7-.6-1.3.4-2.4.7-.8,1.1-1.7.8-2-.3-.3.5-.5,1.8-.5,4.7,0,9.9,7.2,9.9,13.7,0,2.3-1.4,3.8-2,2.1ZM1074.3,798.8c4.5-.4,5.6-.2,8.3,1.4,3,1.8,4.2,3,4.2,4.1,0,.9-1,.7-2.7-.6-.9-.6-2.2-1-3-.7-.8.2-2.7,0-4.3-.5-2.3-.8-3.3-.7-4.8,0-1.7.9-2.1.8-3.3-.3-2-2-.4-3.1,5.7-3.5ZM1060.4,800.2c.4,0,.8.4.8.8s.9.8,2,.8,2.2.5,2.5,1.2c.3.6,1.3,1.2,2.3,1.2s2.1.6,2.3,1.3c.4,1,.7,1.1,1.4.4,1.2-1.2,3.8-1.2,3.8,0s-.5,1.4-1.1,2c-1.3,1.3-2.5,1.5-3.2.5-.2-.4-1.5-.5-2.8-.3-2.1.3-2.4.1-2.4-1.5s-.2-1.6-1-.9c-1.4,1.4-2,1.2-2.5-.6-.3-1.1-.8-1.4-1.7-1.1-1,.4-1.3,0-1.3-1.6s.4-2.1.8-2.1ZM1077.2,447.5c-1,1.8-3.2,2.1-3.2.4s1-3.7,2.5-3.7,1.9,1,.7,3.3ZM1070.9,500.2c-1.5,0-1.5-.6-1.4-9.7.2-9.9.6-11.2,3.2-9.3,1.1.8,1.5,3.4,2.2,12.4.9,11.7.7,13-2,15.7-1.9,1.9-2.5,1.6-2.9-1.5-.2-2,0-3.2,1.1-4.1,1.9-1.7,1.8-3.4-.1-3.4ZM1062.8,480.9c-.8-.6-1.7-2.5-2.1-4.2q-.5-3.1,1.8-2.5c1.3.3,2.5.8,2.8,1.1.3.3.3,4.9,0,10.1l-.5,9.6-2.3.2c-2,.1-2.3-.2-2.8-2.6-.8-4.2.2-8.4,2-8.4s2.6-2.1.8-3.3ZM1063.3,498l1.4-2.2.6,2.8c.3,1.7.2,3.2-.3,3.8-2.3,2.7-3.8-1.2-1.7-4.4ZM1065.7,509.3c.3.3.3.9.2,1.5-.3.8-.5.8-1,0-.7-1.1,0-2.3.8-1.5ZM1065.2,467.1c0-1.1.4-2.1.8-2.1s.8.7.8,1.6-.4,1.8-.8,2c-.5.3-.8-.4-.8-1.5ZM1066.8,513.4c.4.3.6,1,.3,1.6-.6,1.7-1.1,1.5-1.1-.5s.3-1.4.8-1.2ZM1066.2,463.3c-.7.2-1-.2-.8-1.5.2-1,.8-2,1.3-2.2.7-.2,1,.2.8,1.5-.1,1-.7,2-1.3,2.2ZM1066.3,457.1c-1.3,0-1.5-2.8-.3-3.6,1.3-.8,2.3.3,1.8,2-.2.9-.9,1.6-1.5,1.6ZM1066.8,450.5c0-.1-.2-1.7-.5-3.6-.4-3.3-.3-3.4,1.7-3.4s2.3.2.3,5.4c-.6,1.5-1.4,2.4-1.5,1.6ZM1073,461c.3,0,1.4-.2,2.4-.5,1.6-.4,1.7-.3,1.1,1.8-.6,2.2-2.4,3.3-3.5,2.2-.7-.7-.7-3.5,0-3.5ZM1075.7,453.1c1.9,0,2,.7,0,3-1.7,2-2.1,2.2-2.8,1-.8-1.3,1.1-4,2.8-4ZM1074.6,474.2c-.9-.9-.7-5.9.2-5.9s1,.5,1.3,1.2c.6,1.5-.7,5.5-1.5,4.7ZM1070.9,431.4c-2.3,1.2-4,.9-4-.8s4.4-3.1,5.3-3.1,0,3.3-1.3,4ZM1070.3,438.5c-.9,1.5-2.7,2.3-2.7,1.2s.5-1.4,1.1-2.3c1.3-1.8,2.8-.9,1.6,1ZM1077.1,510.8c.4.2-.6,1.8-2.3,3.8-2.4,2.6-3.1,3.1-3.1,1.9,0-1.7,4.2-6.1,5.5-5.7ZM1043.3,280.8c1.4-1.4,5.9-1.7,5.9-.5s-1.1.8-2.4.8-2.4.4-2.4.8-.5.8-1.2.8c-1.5,0-1.5-.4,0-1.9ZM1006.1,316.3c.7-.5,3.3-.7,6-.5,3.6.3,5.1.8,6.1,2,1.8,2.2,2.3,2.1,2.3-.4s-.6-2.3-2-2.9c-2.6-1.2-2.5-1.9.4-3.4,3.2-1.7,4.8-1.5,9.1.8,4.5,2.4,5.1.9.7-1.9-1.7-1.1-3.2-2.1-3.3-2.2-.6-.4,3.4-4.2,4.4-4.2s6.7,2.5,8.5,3.9c.8.6,1.4.8,1.4.4,0-1-3.9-4.6-6.2-5.8-1.9-1-2.5-4-.8-4.1.5,0,3.3,0,6.1,0,4.4.1,5,0,4.2-1-.5-.6-2.6-1.3-4.6-1.6-4.2-.5-4.9-.9-3.6-2.5,1.3-1.6,4.9-2.1,9.6-1.4,4.3.7,4.6.5,2.9-1.7-.7-.9-2.3-1.5-4.8-1.6-6.7-.3-3.4-2.1,3.9-2.2,3.5,0,3.8-.2,2.6-1.1-1.3-1-1.3-1.1.2-1.5,1.4-.4,1.6-.9,1.2-3.4-.4-2.9-.3-2.9,2-2.4,2.5.5,3.4-.8,1.2-1.7-1.7-.7-1.5-1.5.6-2.5q1.8-.8-.4-1.4c-2.7-.7-2.9-2-.4-2,5.4-.1,8.2.1,9.2.9,2,1.7,1.9.1-.2-2.1-1.6-1.7-1.8-2.4-1-2.9,2.2-1.4,4.7-.8,5.5,1.4.4,1.1,1.4,2.8,2.1,3.8,1.2,1.6,1.2,1.6.8-1.7-.5-3.3-.4-3.4,1.3-2.9,2.6.8,3.9,2,4.8,4.3.6,1.5.9,1.7,1.4.9.4-.6,1.2-.9,1.9-.6,1,.4,1.1,1.1.4,4.2-1.3,6,1.1,8.4,2.9,3,1.1-3.2,2-3.4,3.9-.8,1.1,1.5,1.5,3.2,1.4,6.3,0,2.3-.1,4.8-.1,5.5,0,.6,0,2.9,0,5,0,4.5,1.6,5.2,1.7.8.2-5.1.5-6.7,1.3-7.5,1.2-1.2,3.7,6.8,3,9.6-.5,2-.4,2,.6.6,1.5-2,2.7-1.1,3.9,2.8.9,2.9.8,3.4-.4,4.3-.9.7-1.7,2.9-2.2,6.4-.4,2.9-1.3,6.4-2,7.7-.7,1.3-.9,2.4-.5,2.4,1.1,0,2.9-4,4.1-8.9,1.6-6.7,1.6-6.9,2.6-4.6.5,1.1.8,4.9.8,8.4,0,6.4-.1,6.9-4.9,16.6-.2.3,0,.6.6.6s1.6-1.4,2.5-3.2c.9-1.8,2-3.2,2.4-3.2,1.8,0,.8,8-1.6,12.8-1.3,2.6-2.8,4.9-3.2,5.2-1.1.7-1,2,.2,2s1.6-1.1,2.4-2.4c2.1-3.6,2.8-2.9,2.2,2.3-.5,4.6-3.4,10.8-6,13-.6.5-1.2,1.5-1.2,2.2s.7.6,2.8-.9l2.8-2.1v2.5c0,2.6-2.4,7.8-6.4,13.6-2.4,3.5-3.1,5.6-1.8,5.6.3,0,1.4-1.3,2.4-2.8,1.6-2.5,3.4-3.7,3.4-2.3s-2.7,9.6-3.4,10.5c-.4.6-1.5,1-2.3,1-2.1,0-2.8,1.6-.8,2.1,2,.5,2,.4,0,3.6-1.9,3.1-2,3.8-.5,3.8s1.3.6,1.6,1.2c.5,1.4-2.8,4.9-5.7,6-1,.4-1.8,1.1-1.8,1.5,0,1.6,2.4,1.8,4,.4,1.5-1.4,1.6-1.4,1.6.2s-.5,2.1-1,2.7c-1.8,1.8-4.6,6.1-4.6,6.9s.5.7,1.1.4c.6-.2,1.3,0,1.6.4.8,1.2-1.1,4.7-2.8,5.2-.9.2-1.5,1.1-1.5,2.1s-.4,1.7-.9,1.7-.6.7-.3,1.6c.5,1.6-1.5,5.5-3.4,6.7-1.6,1-.3,2.2,1.8,1.7,1.6-.4,1.9-.2,1.9,1.1s-.7,2.4-1.5,3.4c-1.1,1.4-1.9,1.7-3.6,1.3-1.7-.4-2.1-.9-1.7-2.2.3-.9.7-2.9.8-4.6.2-1.6.7-3.9,1.1-5,.4-1.1,1.1-6.3,1.7-11.6.5-5.3,1.5-12.4,2.1-15.9.7-3.9,1.1-11.9,1.1-20.9,0-14.6-.6-18.7-2.9-18.7s-1.2-1.5-1.6-3.8c-1.5-10.1-3.5-18.8-4.8-20.2-.8-.9-1.4-3-1.5-5.1-.1-3.5-.8-5.2-1.8-4.3-.6.6,1.4,11,4,21,2.2,8.6,4.3,28.7,3.1,30.2-.4.6-.8,6.8-.9,13.8,0,7.3-.7,16.9-1.5,22.4l-1.4,9.6-3,.2c-2.9.2-3,.2-3-2.4,0-1.5.6-3.3,1.2-4.2,1.5-2,1.5-2.8,0-2.8s-1.2-.8-1.2-2.3.5-2.5,2-3.2c2.5-1.2,2.5-2,0-3.3-1.9-1-2-1.1-.6-3.4.8-1.3,1.8-2.6,2.4-2.8,1.7-.7,1.1-1.7-1.2-2-3.2-.4-3.5-4.5-.7-8.2,2.1-2.7,2-3.9,0-3.1-1,.4-2.6-.9-2.6-2.2,0-.2.9-1.4,2-2.7,2.3-2.7,2-3.9-.8-3.2-1.3.3-2,.2-2-.6,0-.6-.2-1.9-.3-3-.1-1,.3-2.1.9-2.3.6-.2,1.5-1.1,2-2,.8-1.5.7-1.6-1.1-1.1-1.4.4-2.1.1-2.5-.8-.8-2.1-.5-4.6.7-6.3,1.6-2.2,1.5-3.1-.4-2.1-2.2,1.2-2.2,1.2-2.7-2.9-.4-2.7-.2-4.2.7-5.7,1.2-1.8,1.2-1.9-.3-1.1-.9.5-1.8.6-2,.4-.8-.8.4-5.4,1.8-7,1.2-1.4,1.1-1.6-.6-3-1-.8-2.1-1.5-2.5-1.5s-.8,3.7-1.1,8.2c-.3,6.3-.1,9.9,1.1,15.5,1.8,8.7,3.9,35.9,3.9,49.9,0,5.5-.4,14.2-.9,19.4-.6,6.7-1.2,9.4-1.9,9.4-1.6,0-2.1-1.4-1.1-3.2.5-1,.6-3.6.3-6.7-.4-3.4-.2-5.3.4-5.6,1.4-.9,1-2.1-.6-2.1-2.7,0-3.3-4.1-1.1-6.7,1.4-1.5,1.3-1.6-.8-1.1-2,.5-2.2.3-2.2-1.7,0-1.4,1-3.3,2.8-5.2,2.8-3,2.6-3.9-.4-2-.9.5-1.8.8-2,.5-1.2-1.2-1-6.2.4-9.4,1.8-4.1,1.9-5.1.4-3-.6.8-1.5,1.2-2,1-1.2-.8-1.1-6.2.2-8.1,1.6-2.3,2.4-5.2,1.4-5.2s-.8.5-.8,1.1-.5,1.5-1.2,2.1c-1,.8-1.2.6-1.7-1.3-.3-1.2-.6-2.7-.8-3.3-.2-.6.4-2,1.3-3.1,1.7-2.2,2.1-4.2.8-4.2s-1,.4-1.2.8c-.3.4-.8.8-1.2.8-1.4,0-1.6-2.7-.4-6.2.9-2.5,1-3.9.4-4.5-.6-.6-.8-.4-.8.5,0,1.8-1.3,1.7-2.3-.1-.5-1-.5-1.8,0-2.4.6-.6.6-1.2-.1-2.1-1.1-1.4-.6-3.9,1.3-5.7,1.7-1.7.8-2.3-2.6-1.6-2.6.5-2.9.8-2.4,2.3.3,1,.7,5.4.8,9.9.1,4.5.6,9.3,1.1,10.8.8,2.4,3.3,16,3.3,17.8,0,1.5-1.5-.9-5.6-9-3.9-7.7-6.8-17.2-6-19.6.5-1.4-.5-2.8-2.4-3.1-.9-.2-1.7-1.1-1.8-2.1-.1-1-.7-1.8-1.3-1.8-1.7,0-2-2-1.5-9.4.4-6,.3-7.3-1-9.5-1.7-2.7-4.9-5.6-9-8-1.5-.8-4.3-3.9-6.3-6.7-2-2.9-4.9-6.4-6.5-7.8-2.4-2.2-2.7-2.7-1.7-3.4ZM1036.3,546.8c.7.7.6,1.3-.4,2.4-.7.8-1.6,1.4-1.9,1.4-.9,0,0-10.6,1.2-13.2,2.3-5.4,3-7.8,3.2-10.6.1-1.6.6-6.6,1.1-11.1.6-5.6.6-9.6,0-12.8-1.3-7.4-2.3-21.6-3-40.2l-.6-17.2-2.6-5.2c-1.7-3.3-2.5-6-2.3-7.4.2-1.6,0-2.1-.8-1.8-.6.2-1.5-.4-2-1.5-.7-1.6-.6-2.3.8-4.1,1.6-2.1,2.3-5.1,1.1-5.1s-1.3,1-2.3,2.1l-1.7,2.1-1.4-2.2c-1.3-1.9-1.3-2.6-.4-5,1.2-3.2.6-4.5-1.1-2.3-.9,1.3-1.3,1.4-2.4.5-2-1.7-2.3-3.8-.9-6.5,1.7-3.3.8-4.6-1.6-2.4l-1.9,1.8-.9-2.1c-.9-2.1-.8-2.4,1.2-6.1,1.7-2.9.6-4.5-1.4-2-1.4,1.8-1.8,1.9-2.8.9-1.1-1.1-1-1.6.5-4.7,2.6-5.3,2.3-6.4-1.1-4.2-3.2,2.1-3.6-.5-1.1-6.6,1.2-3,1.4-7.4.3-7.4-.5,0-1.5,1.1-2.2,2.4-2.1,3.8-4.3,2.4-2.3-1.4.4-.8,1.7-3.4,2.8-5.8,1.2-2.6,2.9-4.9,4.1-5.5,1.1-.6,2-1.4,2-1.7,0-1-2.2-.8-2.8.2-.3.5-1.1.6-1.7.4-.7-.3-1.7,0-2.3.4-3,2.5.6-4.8,4-8l2.9-2.7,4.2,1.2c4.6,1.3,5.6,3.1,2.2,3.8-1.3.3-2.1,1.1-2.3,2.3-.2,1.7,0,1.8,2.6,1.3,2.5-.5,3-.3,3.8,1.5.7,1.6.7,2.3-.2,3.3-1.1,1.4-1,1.7,2.9,4,.9.5,1.4,1.8,1.3,3.4,0,1.4.3,2.5.7,2.5,1.3,0,3.8,6.7,2.9,7.8-1,1.2,0,2.9,1.4,2.3,1.6-.6,3.7,1.9,3.3,4-.2,1.1.2,2.4,1.1,3.2,1.1,1,1.3,1.6.6,2.4-.7.9-.4,1.6,1.6,3.6,1.9,1.9,2.3,2.7,1.7,3.5-.7.8-.4,1.7,1.3,3.9,1.7,2.2,2,3.1,1.3,3.9-1.3,1.6-.2,5.7,1.8,6.6,2.1.9,2.8,3.6,1,3.6s-1.5,2.3.9,4.4c2,1.8,2.1,2,.8,2.8-1.9,1.1-1.8,3.2.1,3.2s1.8.9,2.3,2.2c.5,1.2,1.6,4.2,2.5,6.6,2.1,5.6,2.1,7.2,0,7.2s-2,2,.1,3.5c1.8,1.2,1.6,3.9-.2,3.5-2.1-.4-1.5,2.5.7,3.7l2.3,1.2-2.2,1c-2.6,1.2-2.9,2.8-.6,3.4,2.5.6,2,2.9-.8,3.5-3.5.7-3.7,1.7-.7,3l2.7,1.1-2.2,1c-2.7,1.2-2.8,2.3-.2,2.3s2.2.3,2.4.7c.6.9-1.7,3.3-3.2,3.3s-1.1.7-1.1,1.6.4,1.6,1.5,1.4c.8-.1,1.5,0,1.6.4.4,1.9,0,2.8-1.9,3.6-2.4,1.1-2.6,2.3-.4,3,2.3.7,2.2,4.2-.2,4.5-2.2.3-2.4,2.7-.2,2.7s2.6,2.4,1.2,4c-.5.6-1.8,1.2-2.9,1.2s-1.9.4-1.9,1.6.5,1.6,2,1.6,2,.4,2,2.4-.4,2.4-1.5,2.4-2,.6-2.5,1.3c-.9,1.1-.8,1.5.6,2.6,2.6,2.1,2.6,5.1,0,6.7-1.2.8-2.2,2-2.2,2.7,0,1,.6,1.2,3.2.7,2.6-.4,3.2-.3,3.2.7s-1.3,1.8-2.9,2.5c-1.7.7-2.7,1.6-2.5,2.2.4,1,1.4,1.1,5.3.5,2.4-.4,3.3,1.7.9,2.3-2.3.6-1.7,2.2,1,2.5,2.3.3,2.9,1.5.9,2.3-1.9.7-1.4,2.7.6,2.7s1.8.4,1.9,3.6c0,2.2-.3,3.9-1,4.5-.6.5-1.1,1.4-1.1,2,0,1.4-3,3-4.4,2.4-.8-.3-1.4.9-2,4.1-.5,2.5-1.4,5.5-2,6.5l-1.1,2-.8-2c-.9-2.4-1.7-7.3-1.7-11,0-4.1-6.8-9.7-9.1-7.4-.6.6-.6,1.1,0,1.8ZM1021.6,607.8c-.6,1.8-1.3,4.5-1.6,6-.3,1.5-.8,3.2-1.2,3.6-.3.4-.8,1.7-.9,2.7-.3,2-2.6,4-3.6,3.1-.3-.3-.2-1.8.3-3.4.5-1.5.6-2.8.2-2.8s-.8.8-1,1.8c-.3,1.7-.3,1.7-1.2-.4-1.6-3.8-4.4-2.3-6.6,3.4-.6,1.5-2.2,4.8-3.5,7.2-1.3,2.4-3.2,5.9-4.2,7.8-3.9,7.5-6.6,7.1-3.1-.4,8.4-18,10.8-22.3,12.8-23.4,1.6-.9,2.2-.9,2.7-.1.7,1.1,3.3.5,4.3-1,.3-.5,1-2.4,1.5-4.3.5-1.9,1.5-3.8,2.3-4.2.8-.4,1.7-1.8,2-3,.3-1.2,1.2-3.7,2-5.4.8-1.8,2.5-5.7,3.6-8.8,2.3-6,5-10.1,3.7-5.6-.9,3.2-4.2,11-5,11.9-.4.4-.7,1.6-.7,2.6,0,2.1-1.3,8-2.8,12.6ZM1024.5,628c0,7.3-.3,12.3-.8,12.6-1.4.8-1.8-1.9-1.2-7.1.3-2.7.7-7.5.7-10.7,0-3.1.3-6,.7-6.3.3-.3.6,4.8.6,11.5ZM1018.4,629.3c-.3.7-.8,1.3-1.3,1.3s-.6-.6-.3-1.3c.3-.7.5-2,.5-2.8s.3-1.5.8-1.5c.9,0,1.1,2.4.3,4.3ZM1010.1,624.5c0,1.4-.4,2.1-1.3,2.1s-1.2-.6-1-1.7c.4-2.6,2.2-2.8,2.2-.3ZM1004,632.2c-.7,0-1-.4-.7-.8.5-.7,2-.4,2,.5s-.6.4-1.2.4ZM1004.5,639c0,.7-.4,1.2-.8,1.2s-.8-.3-.8-.8.4-1,.8-1.2c.4-.3.8,0,.8.8ZM992,629c.3,1.8.1,3.3-.3,3.6-.5.3-.8-.5-.8-1.8,0-2.2,0-2.2-1.2-.6-.6.9-1.7,2.2-2.4,2.9-1,1-1.1,1.7-.3,3.8.7,1.9.6,2.8-.1,3.7-.9,1.1-1.1,1.1-2.4,0-1.9-1.8-3.3-1.5-3.1.6,0,1,.1,2.6,0,3.6h0c-.1,2.1-.8,2.3-2.9.8-1.4-1-1.3-1.3,1.1-5.8,1.4-2.6,3.9-6.5,5.6-8.8,1.7-2.2,3.8-5.5,4.7-7.3.9-1.8,2.2-3.7,2.9-4.3.7-.6,1.3-1.8,1.3-2.6,0-1.7,4.2-5.8,6.6-6.7,1.2-.4,10.2-12.5,10.2-13.7s1.3-1.8,2.9-3.5c1.6-1.7,3.5-4.2,4.2-5.5.7-1.3,2.4-3.6,3.6-5.1,2.1-2.4,2.2-2.5,1.7-.7-.8,3-5,9.6-8,12.8-4.4,4.6-6,12.9-2.2,11.4,1.5-.6,1.4.6-.1,2.8-1.2,1.7-1.4,1.7-3.2.5-1.1-.7-2.3-1.1-2.7-1-.4.2-2.2,3.2-4,6.7-2.5,5-3.2,5.9-3.2,4.2,0-1.2-.4-2.2-.9-2.2s-.6.3-.4.7c.3.4-.2,1.2-1,1.8-.8.6-1.8,1.9-2.1,2.8-.3,1-1.3,2.2-2.2,2.7-1.4.7-1.6,1.4-1.1,3.9ZM971.7,691c-.8-1-.9-1.5-.2-2.2.7-.7,1-.6,1.4.4.8,2.1,0,3.3-1.2,1.8ZM973,717c-.1.7-.8,1.3-1.6,1.5-1.6.3-1.9-1.9-.6-3.8.7-1.1.9-1.1,1.6,0,.4.7.7,1.7.6,2.4ZM971.7,708.6c0,.6-.5,1.2-1.2,1.2s-1.2-.5-1.2-1.2.5-1.2,1.2-1.2,1.2.5,1.2,1.2ZM967.5,699.6c-1.8-.4-2.4-2.3-1.1-3.4,1.6-1.4,4-.6,4.2,1.3.3,1.8-1,2.6-3.2,2.1ZM965.9,690.5c-1.2-.7-2.1-4.7-1.1-4.7,1.9,0,4.3,1.8,4.6,3.5.4,2.2-1,2.7-3.6,1.2ZM965.5,682.4c-1.8-.9-2.6-3.8-1-3.8s3.9,1.7,3.9,3.2-.4,1.8-3,.6ZM949.3,617.3c0-.9,1.2-1.1,4.8-1.1s4.8.3,4.8,1.1-.6,1.3-1.3,1.6c-2.7,1-8.3,0-8.3-1.6ZM950.7,624.5c-2.6.7-3,.6-3-.7s.7-1.2,2-1.2c2.6,0,3.3,1.3,1,1.9ZM955.9,613.3c.8-.2,1.9-.2,2.4,0,.5.2-.1.4-1.4.4-1.3,0-1.8-.2-1-.4ZM954.9,609c-3.9,0-4.6-.2-4.3-1.2.3-.7,1.5-1.2,2.7-1.2s3.4-.9,5.2-2.5l2.9-2.5-.6,3.1c-.3,1.7-.7,3.4-.9,3.7-.2.3-2.5.6-5.1.6ZM959.6,597.9c-2.7,2.3-5.1,2.8-7,1.5-1.4-.9-.8-3.7.8-3.5.7.1,2.7-.3,4.5-1,4.5-1.6,5.3-.1,1.7,2.9ZM951.1,547.5c-2.8,3.1-2.9,4.7-.2,4.7s2,3.1-.5,4c-1.1.4-2.2.8-2.4.8-1,0-1-2.3,0-10.8.6-5.3.8-9.9.4-10.2-1-1.1-2.2,0-2.8,2.7-.3,1.3-.8,2.4-1.2,2.4-1.2,0-1.8-3.2-.8-4.4,1.2-1.5.7-12.6-.6-13-.6-.2-1,.5-1,1.5,0,1-.3,2.4-.7,3-.6.9-.9,1-2,.1-1.4-1.2-1.7-6.8-.5-9.9.8-2.1.3-5.3-.8-5.3s-.7.5-.7,1c0,1.4-1.9,5.3-2.5,5.4-1.5,0-1.2-4.3.6-10.3.5-1.7.4-1.8-1.1-1-.9.5-1.9,1.8-2.2,2.9-.3,1.1-.9,2-1.3,2-1.1,0-.1-5.9,1.5-8.9,2.1-4,.8-4.3-1.7-.4-1.3,2.1-2.6,3.7-2.9,3.7s-.8-.9-1.1-2.1c-.4-1.6-.1-2.4,1.3-3.5,2.8-2.1,5-10,2.4-8.4-1,.6-.9-1,0-2.9.5-.8,1.4-1.5,2-1.5,1.3,0,1.6-1.3.4-2-1.4-.9-.8-3.3,1.6-6.7,3-4.1,4.3-4.7,6.4-2.9,1.4,1.3,1.7,1.3,4.2.1,2.6-1.3,2.7-1.3,4.6.9,3.5,3.8,4.5,4.3,6.1,3.5,5.3-2.7,14.3-3.5,15.2-1.3.3.7.1,2.2-.3,3.4-1.8,4.8-2.8,9-2.4,9.5.7.7,3.8-1.2,3.8-2.3,0-2.1,4.3-11.8,5.3-11.8,1.5,0,2.2,1.6,1.2,2.6-.5.5-.9,1.7-.9,2.7,0,3.1-4,13.8-8.4,22.6-4.4,8.8-6.6,15.1-9.3,28-.9,4.2-1.8,7.8-2,8-1.7,1.9-1.9-9.5-.2-12.9.4-.8.3-1.6-.3-2.2-.7-.7-.6-1.2.4-2.2.9-.9,1.2-2.2.9-4.4-.3-2.4-.1-3.2.9-3.6,1.4-.6,1.7-2.4.5-3.1-.4-.3-1.5,0-2.4.4-1.4.7-1.5,1.4-1.1,4,.3,2.1.2,3.2-.4,3.2s-.9,2-.8,6.2c.2,10.7-.7,15.2-3.9,18.7ZM953.8,575c-.3.7-1,1.2-1.6,1.2-2,0-2.2-1-.5-2.2,1.9-1.3,2.8-.9,2.1,1ZM940,556.6c-1.5.4-1.9.2-1.9-1.1s.5-1.6,1.2-1.6c1.7,0,2.5-2.4,1.1-3.3-.6-.4-2.1-.5-3.2-.3-1.7.4-2.2.1-2.7-1.3-.4-1.3,0-2.2,1.5-3.4,1.5-1.3,1.9-2,1.3-2.9-.6-1-1.1-1-2.4-.2-3.5,2.2-4.7-.2-1.2-2.5,2.6-1.7,1.8-3.1-1.3-2.4-3.1.7-4.3-1.7-1.7-3.5.9-.6,1.7-1.7,1.7-2.3,0-1.3-2.5-1.5-3.8-.2-.7.7-1.2.7-2.2,0-1.7-1.4-1.5-2.8.6-4.3,1.4-.9,1.6-1.4.9-2.2-.7-.7-1.3-.7-2.7,0-2.3,1.2-4-.1-2.4-1.9,1.2-1.5.5-2.9-1.6-2.9s-2.5-1.5-1.6-5.5c.7-3.2.7-3.3-.6-2.1-1.9,1.7-2.5.9-2.5-3.9s.4-5.7,3.7-17.3c1.2-4.1,1.2-4.7,0-7.1-.7-1.4-1.2-2.8-1-3,.5-.5,7.7.5,7.7,1.1s-.6,1.4-1.3,2.8c-1.8,3.5-3.6,12.8-2.7,13.9.4.5,1,2.7,1.3,4.8.5,3.5,4.2,11.8,7.7,17.2.7,1.1,1.5,3,1.8,4.3.3,1.3,1.6,3.6,2.9,5,1.2,1.4,2.3,3.5,2.3,4.6s.3,2.1.7,2.4c1.1.7,3.8,9.4,5.3,17.1,1.3,6.5,1.3,6.7-.2,8.2-1.4,1.4-1.7,1.5-2.7.3-.8-1-.9-1.6-.1-2.8,1.4-2.2.4-4.2-1.9-3.6ZM933.7,553.8c-.5.9-1.5,1-2.2.4-.6-.6.2-4.4,1-4.4s1.8,3,1.2,4ZM924.7,535.1c-.6,1.7-1.9,1.4-1.9-.5s.3-1.6.7-1.6c1.1,0,1.6.9,1.2,2.1ZM914,447c-.5-.3-1.7.3-2.7,1.2l-1.9,1.7-.5-1.7c-.3-1-.1-2.2.6-3.1.6-.7,1.5-2.3,2.1-3.5,1.1-2.7,2.2-2.8,2.9-.4.8,3,.6,6.4-.4,5.8ZM914.5,459.5c-.7,2.2-1.7,1.9-2.6-.7-.9-2.7-.5-5,.9-5s2.3,3.5,1.6,5.7ZM906,480.9c-4.4,0-4.9-.2-5.6-2-.5-1.2-.5-2.5,0-3.5,1-1.9,1-5.6,0-5.6s-.8.3-.9.6c0,.3-.2,1.7-.5,3-.6,3.6-.4,6.9.6,9.4.8,1.9.7,2.4-.6,3.4-1.6,1.2-4.8,1.6-5.4.6-.2-.3,0-2.4.4-4.6,1.4-7.7,2.1-14.4,2-20.6,0-4.3.2-6.2.8-6.2,1.1,0,1.9,1.8,1.9,4s2.1,6.6,4.1,9.6c.7,1.1,1.9,3.9,2.7,6.2,1,3,1.8,4.2,2.8,4.2s1.7.3,1.9.7c.2.4-1.7.7-4.4.7ZM910.1,482.7c0,.5-1.1,2.3-2.5,4-2.6,3.3-3.9,3.9-3.9,1.9s-.9-1.6-2.1-.3c-1.3,1.3-2-.4-.8-1.9,1.3-1.7,9.4-4.8,9.4-3.7ZM894.9,455.9c0,1.2-.5,2-1.1,2-1.5,0-2.2-1.1-1.6-2.7.8-2,2.7-1.5,2.7.7ZM893.6,449.5c.3-.8.5-1.9.5-2.5s.4-1.1.9-1.1.7,1,.6,2.1c-.1,1.2-.8,2.3-1.4,2.5-.8.3-1,0-.6-1ZM904.8,426.7c.7-2.8,1.7-6.2,2.1-7.5.4-1.3.5-2.6.3-3-.2-.4-.6-2.7-.7-5.1-.2-3.1,0-4.3.7-4.1,1.6.5,3.1,6.3,2.5,9.4-.3,1.5-.6,3.9-.7,5.2-.2,3.7-2.3,12.4-3,12.4s-1.2,1.1-1.9,2.4c-2.4,4.7-3.4,2.4-1.2-2.8.4-.9,1.3-3.9,2-6.8ZM903.7,397.2c.9-.3,4,2.1,4,3.2s-.5.7-1.2.7c-1.5,0-4-3.5-2.8-3.9ZM906.9,461.5c0,2.2-1.2,2.6-1.9.7-.7-1.9-.6-5.1.2-5.1s1.7,2,1.7,4.5ZM903.3,451.8c1.2-1.5,1.2-1.5,1,.4-.1,1.1-.7,2.1-1.2,2.3-1.4.4-1.2-.8.2-2.7ZM902.9,441.9c.6-1,.8-.9.8.6,0,1-.3,1.8-.8,1.8-1,0-1-.8,0-2.4ZM914.7,431.1c-.7,3.8-1.7,6-3.6,8.2-3.1,3.6-3.3,3.2-2.3-5.6.3-2.9,1.1-5.2,2-6.1.8-.8,1.6-2.1,1.7-2.9.2-.8.9-1.6,1.7-1.7,1.7-.3,1.8,1.1.4,8.2ZM914.2,410.3c-.6-1.9-2.1-4.7-3.3-6.1-3.2-3.6-1.4-6.9,2-3.5,1.1,1.1,1.2,1.1,1.2,0s2.1-1.7,4-.5c1,.6,1,1.4.2,4.6-.5,2.1-1.1,5-1.4,6.4-.7,3.5-1.4,3.3-2.7-.9ZM917.3,428.3c.5,0,.7.3.4.7-.2.4-.1,1,.3,1.2.4.3.9-.4,1-1.6.1-1.1.6-1.9,1.1-1.8.5.1.7,2.6.6,5.8-.1,3.3.3,7.6,1,10.4.7,2.6,1.6,6.4,2.1,8.4.5,2,1.2,3.9,1.6,4.4.4.4.7,1.4.7,2.2s1.1,3.6,2.4,6.2c1.3,2.6,2.4,5.1,2.4,5.6,0,1.3-2.8.9-4.2-.6-.7-.8-1.7-3-2.2-5-.5-2-1.8-5.1-2.9-7-3-5.1-5-12.8-5.1-19.4-.2-8.4,0-9.6.9-9.6ZM919.7,415c0-.9.2-1.1.5-.5.2.6.2,1.3,0,1.5-.3.3-.5-.2-.4-1.1ZM933.7,409.9c1.1,0,2.4-6.6,1.6-7.9-.6-.9,1.2-8.1,2.2-9.3.5-.5.5.8.2,3.2-.3,2.2-.7,5.8-.8,8.1-.3,4.3-1.8,8.1-3.9,9.9-1.6,1.3-1.7,4.8,0,4.8s1.5,1.3,0,5.5c-1.1,3.1-1.1,3.3.2,3.1,1-.2,1.5-1.2,1.6-3.3.2-1.9.6-2.9,1.2-2.7.6.2.9,1.8.7,4.7-.3,4.8.6,5,1.1.2.1-1.7.5-9,.8-16.3.3-7.3.7-13.5.9-13.8.4-.7,3.4,1.7,3.4,2.8s3,5.3,7.1,10c2.7,3.2,4.1,4.2,6.5,4.5,2.6.4,3.6,1.2,6.7,5.6,2,2.8,3.7,5.5,3.7,5.9s.6,1.4,1.3,2.1c.7.7,1.7,3,2.2,5,.8,3.2,1.2,3.8,2.9,3.8,1.6,0,2,.4,2.2,2.4.1,1.3.6,3.1,1,4,.9,1.8,5.4,14.2,6,16.8.3,1.2,0,1.9-1,2.3-1.7.6-4-1.7-4.8-4.9-.3-1.1-1.2-2.7-2-3.5-.8-.8-1.5-2.2-1.5-3.1s-.6-2.5-1.3-3.6c-.9-1.4-1.1-2.8-.8-4.8.5-2.7.4-2.8-1.1-2.3-.9.3-2.2.1-2.9-.4-1.4-1.2-1.6-1-2.2,2-.7,3.6,8,20.2,14.2,27.1,5.9,6.5,6.1,6.9,5.2,8.7-.4.8-1.1,1.4-1.5,1.4-1.4,0-14.4-17.4-14.4-19.3s-.5-.7-1.2-.7c-1.7,0-1.4,2.3.8,5.9,1.3,2.1,1.8,3.8,1.5,5.3-.3,1.3,0,2.6.8,3.3,1.1,1.1.9,1.3-1.6,2.2-3.2,1.2-4.4.5-6-3.4-.6-1.4-1.7-3-2.5-3.6-1-.7-1.4-2.1-1.4-4.6s-.2-3.4-1.3-3c-1.1.4-1.2,1.5-.9,7.4.2,3.8.6,7.5,1,8.3.4,1.1.2,1.4-1,1.4-2.1,0-3.9-2.1-5.4-6.3-.7-1.9-2-4-2.9-4.8-1.3-1-1.7-2.3-1.7-4.8s-.2-3.1-.7-2.1c-1.1,1.9-1.9,1.6-3.1-1.2-.8-1.9-.8-2.8,0-4,1.5-2.4,1.1-3.5-.6-1.9-1.5,1.4-1.6,1.4-2.4-.7-.5-1.2-.8-3.1-.8-4.3,0-2.8-1.1-4.5-2.4-3.8-2.5,1.5,1.8,15.6,6.9,22.3l3.5,4.8-2.4,2.3c-2.4,2.3-5.6,2.5-5.6.3s-.7-1.6-1.6-2.3c-1-.9-1.6-2.4-1.6-4.2s-.4-2.8-.8-2.8-.8.5-.8,1.2-.4,1.2-.8,1.2c-1.5,0-2.5-3.2-1.9-6.5.5-3.1.4-3.3-1.1-2.9-1.7.4-2.1,0-3.4-4.4-.4-1.3-.3-2.4,0-2.7.4-.2.7-1.5.7-2.9,0-2.1-.2-2.3-1.2-1.5-1,.8-1.4.4-2.8-2.5-1.9-4.2-2-8.5-.4-13.8.7-2.1,1.2-6,1.2-8.6,0-5,2.3-12.7,4.5-15.2,2.5-2.8,5.5-1.4,3.6,1.6-.9,1.4-.2,3.3,1.1,3.3ZM937,414.1c-.3,1-.5,2.2-.5,2.8,0,.5-.5,1-1.2,1-1.2,0-1.6-2.1-.7-4.3.8-2.1,3-1.6,2.4.5ZM950.2,396.5c-.1-1,.1-1.8.6-1.8,1.3,0,4.6,3.9,6.1,7.3.8,1.7,1.7,3.1,2.1,3.1s.7.7.7,1.6-.5,1.6-1.1,1.6c-1.7,0-9.4-8.1-8.7-9.1.3-.5.5-1.7.3-2.7ZM979.1,402.7c-.2-.2-.6,0-.8.6-.7,1.9-1.8,1-1.8-1.4s1.3-3.2,3-1.5c1.6,1.6,2,0,.6-2.6-1.5-3.1-.7-4.4,1.8-2.6,1.4,1,1.7,1.8,1.3,3.4-.7,3.1-4.4,9.9-5.8,11.1-.7.5-1.7,1-2.3,1-1.6,0-1.2-1.4.5-2,1.6-.5,4.4-5.3,3.5-6ZM985.3,432.5c0-1.5.4-1.8,2-1.7,2,.2,2.4,1,1.5,3.4-1,2.5-3.5,1.3-3.5-1.7ZM987.7,440.7c0,.7-.4,1.2-.8,1.2s-.8-.5-.8-1.2.4-1.2.8-1.2.8.5.8,1.2ZM986.8,426.5c-.8-1.8-.7-2.5,0-3.3.8-.7,1.1-.7,1.4,0,.5,1.5,2.6,1.2,2.6-.3s-.6-2-1.4-2.8c-1.3-1.5-1.3-1.5,1-1.3,2,.2,2.4,0,2.7-1.7.2-1.1.8-2.4,1.5-2.9,1.1-.8,1.1-1.2-.5-3.4-1-1.4-2.1-2.3-2.5-2.1-2.1,1.3-7,15-8.1,22.5-.7,4.7-.6,6.8.4,11.2.7,3,1.5,7.7,1.8,10.4.3,2.8.4,5,.2,5s-1.6-2.9-3.3-6.4c-3-6.4-4.4-13.6-4.5-22,0-4.4,2.8-11,7.2-16.8,1.3-1.8,3.3-5.4,4.4-8,1.9-4.7,2-4.8,5-4.7h3c0,0,0,7.2,0,7.2,0,6.8-.2,7.4-3.7,14.4-3.9,7.7-5.5,8.8-7.1,5ZM981.6,411c-.3-1.3,0-1.8,1.3-2.1,1.4-.4,1.6-.8,1.2-2.2-.4-1.1-.3-1.6.2-1.3.4.3,1.2,0,1.8-.7.8-.9.8-1.4,0-2.4-1-1.2-.5-2.8.8-2.8s1.1.9,1.5,2c.9,2.3-.2,4.9-5.5,12.4-4.9,7-5.2,7.3-4.5,4,.3-1.5,1.2-3.3,2.1-4,1-.8,1.4-1.8,1.1-2.9ZM992.9,390.7c1.1,0,4.4,4.4,4.2,5.6-.2,1.3-3.1,2.1-4,1.1-.7-.7-.8-6.7-.1-6.7ZM1000.7,429.9c-1.4,0-5,8-5.1,11.3,0,2-1,5.5-2.3,8.3-2,4.3-2.3,4.6-2.7,2.8-.3-1.1-.1-4.5.3-7.5.7-4.3.6-5.6-.1-6.1-1.7-1.1-.3-6.7,4-15.4,2.2-4.6,4.1-9.1,4.1-10,0-2.9,1.4-2.6,1.9.5.7,4.2.6,16.2,0,16.2ZM1000.5,437.3c-.6,1-1.4,2.7-1.7,3.8-.6,1.8-.6,1.8-.7-.8,0-2.9,1.8-6.3,2.9-5.3.3.3,0,1.4-.5,2.3ZM996,470.6c-1.2-1.3-1.3-1.5-.2-1.1.7.3,1.5,1,1.7,1.6.6,1.5.2,1.4-1.5-.5ZM990.5,475.7c1.2-.4,3.6,1.7,3.9,3.4.2.8.5,2.4.8,3.6.4,1.7.2,2.3-1.1,3-2.2,1.2-2.1,1.2-3.7-2.2-1.4-3.2-1.5-7.4,0-7.8ZM995,488.9c.6-.2,1.5,1.2,2.3,3.3.7,2,2.4,4.9,3.8,6.4,1.4,1.5,2.5,3.2,2.5,3.8s0,1-.2,1c-.7,0-5.4-4.3-5.4-4.9s-.9-2.2-2-3.9c-2.2-3.5-2.5-5.3-1-5.8ZM1003.7,449.1c0,.4-.4.8-.8.8s-.8-.4-.8-.8.4-.8.8-.8.8.4.8.8ZM1003,383.5c0-1.1.2-1.5.4-1,.2.5.2,1.4,0,2-.2.5-.4.1-.4-1ZM1003.1,460.9c.3,1.4.3,2.6.2,2.6-.6,0-1-1.2-1.5-4.4-.6-3.8.6-2.2,1.4,1.8ZM1003,487.8c.3-1.2.6-.9,1.7,1.6,1.8,4.2,1.4,6.4-.6,2.7-.8-1.5-1.3-3.5-1.1-4.3ZM1003.7,389.5c0-.6.4-1.2.8-1.2s.8.5.8,1.2-.3,1.2-.8,1.2-.8-.5-.8-1.2ZM1005.2,369.1c-.5,0-.6-.4-.4-.8.3-.4.7-.8.9-.8s.3.4.3.8-.4.8-.8.8ZM1006.1,358.5c1.9-5.1,4.9-8.6,7.1-8.6s2.1.9,0,2.9c-.9.8-3.1,3.6-4.8,6.1-4.3,6.4-4.8,6.3-2.3-.4ZM1010.1,346.4c-2.2,2.5-4.2,5.3-4.5,6.2-.3.9-1.4,2.7-2.4,3.9-1,1.2-2.1,3.5-2.4,5-.7,3.8-1.6,4.1-2.7,1-.9-2.9-.4-5.9,2.3-11.3,2.1-4.3,10.4-13.3,10.4-11.3s.1,1.3,1.5.1c.8-.7,1.9-1.3,2.4-1.3,1.4,0,0,2.3-4.7,7.7ZM1006.1,334.3c-.4.4-.9,1.6-1,2.7-.1,1.1-.7,2.1-1.3,2.3-.6.2-.8-.1-.5-.9.3-.9,0-1.3-1.2-1.3s-1.7.5-1.7,2-.4,2.2-.8,2.5c-.5.3-.6,1.2-.4,2,.3,1-.6,3.3-2.4,6.4-2.4,4.1-2.8,5.6-2.8,9.7s.4,5.5.9,6.5c.5.9,1.2,2.7,1.5,3.9.4,1.2.3,2.5,0,2.7-.6.4-1.7-2.3-2.7-6.9-.3-1.2-1.2-2.3-2.1-2.5-1.4-.4-1.6-1.1-1.6-6.1,0-8.7,2.3-12.9,13.3-24.3,1.2-1.2,2.4-2.2,2.8-2.2.9,0,.8,2.7,0,3.6ZM993.7,389.1c-1,.8-1.2.8-1.2-.3s-.4-1.3-.9-1.3-.8,1-.5,2.6c.2,1.4.2,3.7,0,5-.4,2.1-.8,2.4-3.1,2.4s-2.6-.3-2.6-2.2.6-2.5,1.5-3c.8-.5,1.9-1.9,2.4-3.2.5-1.3,1.4-2.4,2-2.4s1.4-.6,1.6-1.2c.3-.7.8-1,1.3-.8,1.2.7,1,3.3-.4,4.4ZM984.9,386.7c-.7,0-1.2-.7-1.2-1.6,0-1.9,1.2-2.1,1.9-.3.3.7.5,1.4.5,1.6s-.5.3-1.2.3ZM985,392.6c-.7,1.7-1.5,1.6-2.8-.4-.8-1.2-.8-1.9-.2-2.6,1.2-1.2,3.6,1.3,3,3ZM972.7,404.6c-.3-.7-.3-1.4,0-1.7.6-.6,2.9.3,2.9,1.2,0,1.3-2.4,1.7-2.9.5ZM974.9,417.8h0c0,1.9-3.8,1.8-4.9,0-.5-1-.3-1.4,1.3-1.8,2.5-.6,3.5,0,3.5,1.9ZM974.4,432.3c-.9,0-3.8-9.6-3.1-10.3.8-.8,2.8,2.4,2.8,4.6,0,1.1.2,2.9.5,3.8.3,1,.2,1.8-.2,1.8ZM921.9,408.6c-.5-.9,1.9-6.2,2.8-6,.3,0,.6.3.6.5,0,1.2-3,6.1-3.4,5.5ZM922.7,476.9c-.8-.5-1.4-1.7-1.4-3.3,0-2.4,0-2.4,1.5-1.1.8.8,1.7,2.1,1.9,2.9.5,1.9-.3,2.4-2.1,1.4ZM947.4,565.8c.9,0,1.1.6,1,2.2-.3,2.2-2.5,3.4-3.4,1.9-.7-1.2,1-4.1,2.4-4.1ZM956.8,550.9c-.3,1.2-.9,2.1-1.3,2.1-1.3,0-1.6-2.2-.7-4,1.2-2.3,2.7-.9,2,1.9ZM954.9,558.6c.4,0,.8.6.8,1.4,0,.8-.4,1.9-.8,2.6-.6.9-.8.6-.8-1.4,0-1.4.3-2.6.8-2.6ZM956.9,587.4c.6-.5,1.4-.7,1.8-.4.4.2.5-1.3.3-3.5-.2-2.5,0-4,.5-4,1.4,0,1.9,1.5,2.2,5.6.2,3.7,0,3.9-2.4,5.1-3,1.4-3.3,1.4-5.9.4-2.3-.9-1.8-2.8.7-2.6,1,.1,2.3-.2,2.9-.7ZM960.5,577c-.8,0-1.6-.6-1.9-1.3-.7-1.9-.5-17.7.4-22.7.4-2.4,1.1-7.8,1.6-12,1.3-11.9,3.6-20.2,7.3-26.6,1.8-3.2,4-6.5,4.8-7.3.8-.9,1.6-2.6,1.9-3.8.3-1.2,1-2.5,1.5-3,.5-.5,1.8-3.3,2.9-6.4,1-3.1,2.1-5.6,2.3-5.6s2.1,3.5,4.3,7.8c2.1,4.3,4.5,9.1,5.4,10.6.9,1.5,1.6,3.5,1.6,4.5s.5,2.4,1.2,3.2c1.1,1.5,1.2,1.4,1.3-.9,0-1.3,0-3.5,0-4.8-.2-2.4-4.2-12.9-6.3-16.2-.6-1-.8-1.8-.3-1.8s1.8,1.7,3,3.8c9.2,16.1,10.9,21.2,12.8,38,.7,6.1,1.6,12,2.1,13.2.9,2.1.9,2.1,1.4-1.3.3-1.9.9-3.8,1.5-4.4,1.3-1.3,1.2-2.2-.2-2.2s-1.3-1.4-1.7-3.8c-.5-3.3-.3-4,1.1-5.1,1.9-1.6,2.2-2.7.5-2-.7.3-1.2,0-1.2-.6s-.2-1.7-.5-2.4c-.3-.9,0-1.5,1.2-1.8,2.2-.6,2.2-1.4-.2-2.5-1.1-.5-2.1-1.8-2.3-3.1-.5-2.8,0-3.8,1.5-2.6.9.7,1.2.6,1.6-.3.7-1.8-.3-2.9-2.5-2.9s-2.3-.6-2.9-2c-1.1-2.3-.8-2.7,1.7-3,1.6-.2,2.3.5,4.3,4.6l2.4,4.8v16.4c0,15.4-1.1,26.2-2.6,25.3-.4-.3-.6,9.5-.2,12.7.2,2.1,4.8-4.8,5.2-7.9,3.4-25.9,3.7-26.9,3.6-12.9,0,7.3-.4,9.9-1.3,10.9-1,1.1-1.1,2-.3,5.5,1,4.6.9,4.9-3.5,9.7-1.8,1.9-4.1,4.7-5.3,6.3-3.8,5.1-13.4,13.9-19.3,17.7-9.6,6.2-11.1,7.1-11.8,7.1-1.2,0-.9-5.5.4-7.4.6-1,2.1-4.6,3.3-8.1,1.9-5.6,2-6.4.8-7-2-1.1-2.5-.9-3,1.9-.3,1.4-1.3,5.5-2.2,9-.9,3.5-2,8.5-2.5,11.1-.7,4.2-1.2,5.2-4.7,8.6-2.2,2.1-4.2,3.9-4.5,3.9-1.2,0,.4-16.5,2.8-30.3.4-2.4.6-4.6.3-5-.2-.4,0-2.8.7-5.3,1.6-6.3,2.2-14.6,1.1-14.4-.5.1-1.2-1.1-1.7-2.8l-.9-2.9-1.8,2c-2.2,2.5-2.3,4-.2,4.7.9.3,1.9,1.7,2.4,3.4,1.5,5.6,1,6.2-2.5,2.8-1.6-1.5-2.5-1.9-3.1-1.3-.6.6-.5,1.2.3,2,1.5,1.6,3.7,5.9,3.7,7.4s-1.1,1.6-2.4,0c-.5-.7-1.6-1.2-2.4-1.2ZM1016.1,419.9c1.7-.4,2-.2,2,1.4s-.8,2.7-1.9,3.6l-1.9,1.7-.9-1.9c-1.6-3.6-1.9-7.2-.8-10.5,1.1-3.1,1.1-3.1,2.1-1.4.7,1.3.7,2.2.1,3.3-1.5,2.8-1.1,4.3,1.2,3.7ZM1029.4,479.4c.4-2.8,2-2.6,2.6.2.3,1.4.2,2.9-.2,3.3-1,1-2.7-1.4-2.4-3.5ZM1027.7,469.5c0-4.6.7-5.3,3.4-3.3,1.4,1.1,1.8,4,.9,6.4-.3.7-1.4,1.3-2.4,1.3-1.8,0-1.9-.3-1.9-4.4ZM1031.6,486.4c.5-.5.9-.7.9-.5,0,.2.2,1.5.4,3,.4,3.2-.2,3.4-1.3.5-.5-1.4-.5-2.4,0-3ZM1030,455.8c-.8-1-.8-1.6,0-3.2,1.5-2.9,2.4-2.4,2.4,1.2s-.7,4-2.4,2ZM1029,448.1c-2.6.3-2.8-.6-.7-3.2,1.7-2.1,2.2-2,2.6.9.2,1.7,0,2-1.9,2.3ZM1029.1,495.5c.9,2.6,1.7,4.7,1.5,4.7,0,0-1.2-.3-2.5-.6-1.5-.3-2.8-1.3-3.4-2.7-.6-1.2-1.4-2.2-1.8-2.2s-.8-.4-.8-.8.6-.8,1.3-.8,1.9-.5,2.6-1.2c1.2-1.1,1.5-.7,3,3.6ZM1029,543.4c-.3,1.1-.5,2.5-.5,3,0,.5-.4,1-.8,1-1.3,0-.9-3.7.5-4.9,1.2-1,1.3-.9.8.9ZM1029.1,556.6c-.5.5-2.3-3.8-2.3-5.3,0-2.7,1.5-1.4,2,1.8.3,1.8.4,3.4.3,3.5ZM1027.1,538.2c-.6-1.7.2-3.6,1.7-3.6s1.2.8,1.2,2.4c0,2.6-2.1,3.4-2.9,1.2ZM1026.8,516.2c-.4,0-.8-.5-.8-1.2s.4-1.2.8-1.2.8.5.8,1.2-.4,1.2-.8,1.2ZM1024.1,562.6c-.9.7-1.1.2-1.4-2.8-.2-2,0-4.1.3-4.6.3-.5.6,0,.6,1.3,0,1.2.4,2.9.8,3.7.6,1.1.5,1.7-.3,2.4ZM997.9,599.2c-3,2.7-4.6,3.3-4.6,1.8s.3-.8.7-.8,3.5-2.7,7-6c3.5-3.3,6.7-6,7.1-6,.4,0,3.4-2.6,6.7-5.8,6.4-6.3,6.5-6.2.9,2.2-2,3.1-4.7,7.3-5.8,9.3-2.3,4-11.8,14.3-13.1,14.3s-2.2,2-4,4.4c-1.7,2.4-3.6,5-4.1,5.8-.7,1-1,1.1-1,.2,0-1.3,6.9-14.5,8.3-15.7.5-.5,2.6-2.6,4.5-4.8,3.7-4,2.7-3.6-2.6,1ZM1019,513.5c-.8-2.1-.8-3.3-.2-3.9.6-.6,1-.2,1.4,1.2.3,1.1.4,2.8.2,3.9-.2,1.5-.4,1.4-1.3-1.2ZM1018.9,467.7c.6-.2,1.8-1,2.6-1.7,1.6-1.4,2.6-.9,1.9,1-.3.8-1.4,1.2-3.1,1.2-1.4,0-2.1-.3-1.4-.5ZM1019.2,485c-.9-4.4,1.4-4.1,2.4.3.4,1.7.2,2.2-.7,2.2s-1.4-1-1.8-2.5ZM1020.5,473.8c0-1.3,1.5-2.3,3.3-2.3s.7,1.1.7,2.4-.4,2.4-1.5,2.4c-1.8,0-2.5-.7-2.5-2.4ZM1024.4,482.6c-1.1,0-1.9-2.1-1.2-3.2.8-1.2,2-.2,2,1.6s-.4,1.5-.8,1.5ZM1022.5,461.7c-1.7.8-2.1.7-2.9-.7-1-1.8-1-1.7,1.3-3,1.8-.9,3.5,0,3.5,1.9s-.9,1.3-2,1.8ZM1021.4,450.9c-1.8,1.6-2.5,1.7-3.1,0-.5-1.2,2.5-5.2,3.9-5.2s.7,3.7-.8,5.1ZM1020.3,443.8c-3.2,2.2-5,1-4-2.8.5-2,4.3-5.6,5.2-5,.3.2.6,1.8.6,3.5s-.5,3.4-1.8,4.4ZM1017.8,536c-.2.8-.4,0-.4-1.8,0-1.8.2-2.4.4-1.4.2,1,.2,2.4,0,3.2ZM1015.7,503c.4.3.8.8.8,1.2s-.3.7-.8.7-.8-.6-.8-1.2.4-1,.8-.8ZM1014.5,476.4c-.7-1.1,0-2.3.8-1.5.3.3.3.9.1,1.5-.3.8-.5.8-1,0ZM1020.7,431.2c-.2.6-1.5,1.7-2.8,2.4-2.6,1.3-2.6,1.3-3.4-3.5-.4-2.1-.2-2.6.9-2.6.8,0,2.1-.2,3.1-.5,1.3-.3,1.8,0,2.1,1.3.2,1,.2,2.3,0,2.9ZM1014,459.9c.3,1.4.4,2.3.4,3h0s0,0,0,0c0,1-.3,1.4-.9,1.9-1.5,1.2-2.6,1.3-2.6.3s.8-1,1.8-1.5l1.7-.8s0,0,0,0l-1.7-.5c-2-.6-3.4-5.7-1.9-7.1,1.3-1.3,2.3.2,3.2,4.7ZM1013,499c-.3-.3-.6-1.5-.5-2.6v-2.1c0,0,.8,1.9.8,1.9.8,2.1.7,3.7-.3,2.8ZM1009.9,484.1c.2,1.9,0,2.5-1,2.5s-1.2-.8-1.2-2.9c0-3.6,1.9-3.3,2.2.3ZM1007.4,475.7c-.8-.8-.6-3.5.3-3.5s.8.9.8,2c0,2.1-.2,2.3-1.1,1.5ZM1010.4,489.8c.7,0,1.2.4,1.2.8s-.3.8-.8.8-1-.4-1.2-.8c-.3-.4,0-.8.8-.8ZM1010,443.5c-.5,0-.6-.3-.4-.8.3-.4.7-.8.8-.8s.4.3.4.8-.4.8-.8.8ZM1008.8,438.7c-1.8,2-2.7,2-2.7,0s2.8-3.7,3.6-2.4c.3.5-.1,1.5-.9,2.4ZM975.9,614.2c6.6-7,11.9-10.9,13.1-9.7.8.8-1.1,4.6-2.3,4.6s-14.3,13.2-16.3,16.5c-.8,1.3-2.6,3.4-4,4.6-3,2.5-3.5,2.6-3.5.6s4.1-7.1,13-16.5ZM985.8,622.1c.4.4-1.1,3.3-2.8,5.5-1.2,1.4-4.1,1.9-4.1.7s6.4-6.7,6.9-6.2ZM982,617.1c.8-1.4,2.5-.4,1.9,1.2-.2.7-.8,1.2-1.1,1.2-1.1,0-1.5-1.2-.8-2.3ZM976.8,625.3c-.3.7-.8,1.3-1.3,1.3-1.1,0-.4-1.8.8-2.2.6-.2.8.2.5.9ZM967.6,642.6c-1.3,0-.7-1.6,1.6-4.2,1.3-1.4,3.4-3.8,4.7-5.3,2.1-2.4,2.6-2.6,3.7-1.7,1.7,1.4,1.2,2.7-1.2,3.3-1.5.4-1.9,1-1.9,2.8s-.3,2.4-2.6,2.6c-1.5.1-2.9.8-3.1,1.4-.2.6-.8,1.1-1.2,1.1ZM1030.3,532.2c-2.4,0-2.6-2.8-.3-4,1.9-1,2-2.3.3-3.5-.9-.6-1.1-1.6-.7-3.1.7-2.7,1.4-2.7,3.1-.2,1.1,1.6,1.1,2.6.4,6.4-.8,3.9-1.1,4.5-2.8,4.5ZM1033,514.6c-1,0-2.1-3.7-1.6-5.5.3-1.3,0-1.9-1.7-2.5-2.5-.9-2.7-2.5-.6-4.4,1.8-1.6,1.8-1.6,4.4,5.6,1.5,4.1,1.8,5.6,1,6.1-.5.3-1.2.6-1.6.6ZM995.9,309.5l1.9-4,1.2,4c1.9,6.1,2.3,9.3,1.3,10.5-1.3,1.6-2.6,1.3-4.6-.8-2.2-2.4-2.2-4.8.1-9.8ZM994.1,285.7c.5.5.8,1.3.6,1.8-.4,1.2-1.5.1-1.5-1.5s.2-1,.9-.3ZM987,282.1c1,.3,1.1.5,3.7,6.3,4.6,10,4.7,12.4,1,19.9-3.6,7.3-2.6,14.4,1.9,14.4s2.1.4,2.4.8c.8,1.2-2,2-3.7.9-.8-.5-1.7-.9-1.9-.9-.8,0-.4,2.9.5,3.8.7.7.4,1.3-1.3,2.7-2.4,1.8-4.4,5.9-4.4,8.7s.3,1.5,1.5.8c.8-.4,1.7-1.7,2-2.8.3-1.1,1.9-3,3.6-4.3,1.7-1.2,4.1-3.4,5.3-4.8,1.2-1.4,2.8-2.5,3.6-2.5s1.3-.4,1-1.8c-.4-1.7-.3-1.7,1-.5,1.8,1.7,1.2,2.7-10,15.4-5.9,6.7-6.4,7.8-6.9,16-.5,8.5-.3,9.2,5.1,19.1,3.8,7,4.2,8.5,1.9,8.5s-5.9-6.6-6.9-10.8c-.3-1.3-1.3-3.6-2.1-5.2-1.4-2.5-1.4-2.9-.3-3.7,1.1-.8,1.1-1.4,0-6-.6-2.8-1-6.5-.8-8.2.5-4.5-1.1-2.6-2.3,2.8l-1,4.3-.6-4.9c-.5-4.4-.4-5.4,1.5-9.1,2.7-5.4,1.6-7.1-2.1-3.4-2.3,2.3-2.5,2.9-2.7,9.2-.3,10.6-.2,10.2-2.1,8-2.2-2.6-2-1.2.4,2.7,1.1,1.8,2,3.8,2,4.6,0,.8.4,1.4.8,1.4,1.4,0,7.2,12.4,7.2,15.4s-.6,1.4-1.6,1.4-1.6.5-1.6,1.4c0,.8-.7,3.4-1.6,5.8-.9,2.4-1.8,5.1-2,5.9-.2.9-.9,2.1-1.6,2.8-1.1,1.1-1.4,1.1-2.9-.8l-1.6-2,.5,2.1c.3,1.2.7,2.7.9,3.3.6,1.6-2.8,2.8-3.7,1.2-1.6-2.7-3.1-4.2-3.6-3.7-.3.3.2,2,1.1,3.7,1.9,3.4,2.2,5.7.9,7-.6.6-.5,1.4.5,3,1.1,1.7,1.2,2.3.4,3.3-1.5,1.8-2.9,1.4-5.2-1.6-1.9-2.4-2.1-3.2-1.6-6.7l.5-3.9-7.3-7.4c-7.4-7.5-9.5-10.5-10.4-14.8-.3-1.3-.9-2.5-1.5-2.7-1.4-.5-.4,5.9,1.4,9,.8,1.3,1.6,3.7,1.9,5.3.3,1.6,1,3.4,1.7,3.9,1.5,1.2,1.5,3.3,0,2.7-.6-.2-2.3-2.8-3.7-5.8-1.4-2.9-2.9-6-3.3-6.7-.4-.8-.7-1.9-.7-2.5s-.7-2-1.6-3c-1.6-1.9-1.6-1.9-1.6-.2,0,2-2.8,5.8-3.7,4.9-.3-.3.2-2.8,1.1-5.4.9-2.6,1.3-4.8.9-4.8-1.7,0-3.1,5.7-3.5,13.9-.3,5.6-3.6,11.3-8.1,13.8-4.1,2.3-4.9,2.3-3.3-.1.7-1.1,1-2.1.6-2.4-.4-.2-.9-2.2-1.1-4.5-.2-2.3-1-4.7-1.8-5.6-2.1-2.3-2.2-1.6-.4,2,1.8,3.5,2.1,6.8.6,6.7-3.5-.3-4.9-1.3-5.9-4.3-.6-1.7-1-2.5-1-1.6.1,4.5,0,4.7-1.6,3.3-.8-.8-1.7-2.4-2-3.7-.6-2.9-2.1-3.2-2.1-.4s-.3,1.9-2.1,1.7c-2.4-.3-5.9-3.8-5.9-6s-.5-1.4-1.4-1.4c-3.2.2-1.3-12.6,2.7-18,1.1-1.4,1.7-2.8,1.5-3-.2-.2-.8,0-1.2.7-1.5,2.4-.8-2.8.8-6,.9-1.7,1.6-4.6,1.6-6.5s.5-3.7,1.2-4.3c1-.8,1.2-.6,1.2,1.4s-.4,3.4-.8,4.6c-.5,1.2-1.1,3.6-1.5,5.3-.9,4.1.7,2.9,2.7-1.9.8-1.9,2-4.6,2.6-6,1.7-3.5.9-10.6-1.7-16.2-1.3-2.8-2.1-5.8-2.1-8.2,0-4.8,1.3-4.9,2-.1.3,2.1,1.7,5.4,3.2,7.7,1.5,2.2,2.7,4.2,2.7,4.5s1.2,2,2.8,3.7c1.5,1.8,3.6,4.7,4.6,6.6,1,1.9,2.1,3.4,2.4,3.4.9,0,.7-3.5-.2-6.1-1-2.7-.6-3.2,1.8-1.7,1,.6,3.2,1.4,4.8,1.7,4.2.8,6.1,2.3,4.8,3.8-.6.7-1.7,1-2.7.8-1.6-.4-1.6-.2.5,2.5,2.4,3.2,3.4,3.8,2.1,1.4-.5-.8-.8-1.7-.8-2,0-.8,5.2.6,6.6,1.8,2.1,1.8,1.2,3-2,2.7l-2.8-.2,1.1,4.2c.6,2.3,1.1,5.6,1.1,7.3v3l3.4-1.7c3-1.5,3.2-1.8,2-2.7-.9-.7-1.1-1.2-.6-1.5,1.6-1,.8-2-1.5-2s-3.8-1.7-2.8-3.3c.7-1.1,3.4-.9,3.8.3.2.6.4.2.5-.9,0-1.6.3-1.8,2.1-1.4,1.8.5,2.2.1,3.6-3.1.9-2,1.9-3.6,2.3-3.6s1.2-1.1,1.7-2.4c1.2-2.9,6.7-8,8.6-8,.8,0,2.8-.7,4.6-1.6,1.8-.9,3.7-1.6,4.3-1.6,1.5,0,8.8-4.9,11.2-7.5,1.6-1.7,2.4-2,4.5-1.6,2.2.4,2.8.1,4.1-1.8,2.5-3.6,2.7-4.8,1-6.8-.9-1-1.4-2.3-1.2-2.8.2-.6,0-2.1-.5-3.5-.7-2-.6-3.1.4-5.4,3-6.7,3-11.5,0-21.1-1.4-4.5-1.5-6.5-.2-6.1ZM896.5,343.9c0,1.5-1.1,1.5-2.3,0-.6-.8-.7-1.3-.1-1.7,1.1-.7,2.4.2,2.4,1.6ZM895.3,321.9c.3-.4.6-.8.8-.8s.3.4.3.8-.4.8-.8.8-.6-.4-.4-.8ZM894.4,337.2c-.2.4-.8.7-1.2.7-1,0-1-3,0-3.5.9-.5,1.9,1.8,1.2,2.8ZM897,348.6c1,.4,1.2,1.1.7,3.5-.7,3.8-1.3,4.3-3,3.1-2.8-2.1-.9-7.7,2.3-6.5ZM899.9,335c.4-1.9,4.6,6.4,4.6,9.1,0,2-1,2.4-2.2.8-1.2-1.5-2.8-8.2-2.4-9.9ZM917.8,303.4c1.2,1.7,1.4,1.7,3.2.5,1.1-.7,2.3-1.1,2.7-.8,1.2.8.9,3.2-.7,4.7-2.4,2.1-5.1,1.6-7.5-1.4-2.3-2.9-3-7.6-1.4-10.1.6-1,1-.9,2.6.7,1.3,1.3,1.5,2,.8,2.3-1.4.5-1.2,1.9.3,4.1ZM931.3,319.5c-.6,0-2.3-1.6-3.6-3.5-2.7-3.9-2.9-4.5-1.4-4.5.5,0,1.8,1.4,2.8,3.2,1,1.8,2.3,3.2,2.8,3.2s1.6.7,2.4,1.6c.7.9,2.3,1.6,3.4,1.6s2,.5,2,1.2c0,1.5,2.1,1.6,3,0,.8-1.5,4.7-2.4,5.4-1.3.8,1.3,2.8,1.1,2.8-.3s.8-1.4,1.8-1.7c2.4-.7,4.6-2.7,4.6-4.3,0-1.9,3.9-4.5,5-3.4.7.7.5,1.5-.5,3.3-1.1,1.8-1.2,2.7-.5,3.5.5.6.7,2,.4,3.2-.3,1.3-.2,2.1.4,2.1s.9-.3.9-.6c0-1,4.6-3.5,5.1-2.7.3.4-.6,1.7-1.9,2.8-1.3,1.1-2.4,2.2-2.4,2.5,0,.9,2.2.4,3.2-.7.5-.6,1.5-.9,2.1-.7,2.1.8,1.2,2.6-2.1,4.3-1.8.9-3.7,2.3-4.2,3.2-.5.9-1.8,1.6-2.8,1.6s-2.1.7-2.6,1.5c-.4.8-2.8,2.5-5.3,3.6-4.1,1.9-5.3,2-14.1,1.9-5.3-.1-9.8-.5-10-.8-.2-.4,0-1.2.6-1.8,1.4-1.7.3-2.3-1.8-1-1,.6-2.3,1-2.8.8-1.2-.4-1.3-3.1-.2-3.8.4-.3.8-1.1.8-1.7,0-1-.2-1.1-1.2-.3-1.9,1.5-3.7.4-3.5-2.2.1-1.2-.1-2.6-.6-3-.5-.4-1.1-1.9-1.4-3.2-.5-2.1-.4-2.2.5-1.1,1.3,1.7,6.6,3.9,7.6,3.2,1-.7,2.1-4.9,1.2-4.9-.3,0-1.1.4-1.8.8-.7.4-1.7.4-2.4,0-1.6-.8-4.5-6.1-3.8-6.8.9-.9,3.8,1.3,3.8,2.9s.5,1.6,1.2,1.7c.7,0,1.7.2,2.2.2.5,0,1.6.7,2.4,1.5,1.7,1.7,3.8,1.8,3.8.2s-.5-1.2-1.2-1.2ZM960.8,261.3c.3-.3,2.9,4.1,2.9,5s-.5.4-1.1.4c-1,0-2.5-4.6-1.8-5.4ZM941.6,349c-.6-.9.7-2.5,2.2-2.8.6-.1,1.8-.5,2.8-.7,2.1-.6,2.3.2.5,2.7-1.3,1.9-4.7,2.4-5.6.9ZM943.7,354.1c0,.5-.3,1.5-.7,2.1-.6.9-.9.8-1.6-.5-1.2-2.3-1.1-2.6.7-2.6s1.6.4,1.6,1ZM970.9,331c0-.8,4.2-5.1,5-5.1s0,.9-.7,2c-1.3,2-4.3,4.1-4.3,3ZM984,314.1c.5-.5,2.1,3.3,2.1,5s-.3,1.2-.7,1.2c-.8,0-2-5.5-1.4-6.2ZM983,264.7c.4-1.7,1.8-1.8,2.1-.2.2.9-.2,1.4-1.1,1.4s-1.2-.5-1.1-1.2ZM980,283.2c.7.3,1.3.9,1.3,1.5s1.3,2.4,2.8,4.2c1.5,1.8,2.8,3.4,2.8,3.7s-.6,1-1.4,1.8c-1,1-1.1,1.5-.4,1.7,1.3.4,1.3,2-.3,7.1-.7,2.3-1.6,4.3-2,4.3-.9,0-.8-.9.2-3.9.5-1.4.6-3.2.2-3.9-.4-.8-.7-2.5-.8-3.8-.4-4.2-.8-5.8-1.7-7-.5-.6-1.2-2.3-1.5-3.7-.4-2.1-.3-2.5.8-2ZM969.2,241.1c.8,0,1.7,1.9,1.7,3.7s-1,1.5-1.9.6c-.8-.8-.6-4.3.2-4.3ZM967.2,232.2c.8.9,1.2,1.7.8,1.7-1.3,0-6.9-3.8-6.2-4.2,1-.6,3.7.6,5.4,2.5ZM944.2,215.5c3.3,0,9.1,6.3,9.1,10s-2,1.2-4.4-2.5c-1.3-2-3.6-4.3-5-5.1-2.8-1.5-2.7-2.4.3-2.4ZM904.6,224.1c1-2.1,3.7-4,4.8-3.3,1.5.9.7,2.5-2.1,3.8-3.6,1.7-3.7,1.7-2.7-.5ZM906.5,229.6c.6-.2,1.1-.9,1.1-1.5s1-1.5,2.2-2.1c1.2-.5,3.2-1.5,4.5-2.1,2.8-1.4,11.1-1.5,12.4-.1.8.8,1.1.8,1.8-.2,1.3-2,.9-2.8-1.9-3.8-3.5-1.3-7.4-1.2-9.6.2-2.5,1.6-6.2,2.3-6.2,1.2,0-1.7,4.2-4.7,8.7-6.2,2.4-.8,3.1-.7,6.8,1.2,2.3,1.2,4.9,2.9,5.9,3.7,1.5,1.3,2.1,1.4,3.7.7,4.2-1.9,9,1.1,12.7,7.8l1.4,2.6,5.2-.5c4.3-.4,5.1-.3,4.4.6-.7.8,0,1.7,2.8,4.1,2.1,1.7,3.3,3.2,2.8,3.4-1.1.4-6.2-1.9-6.9-3.1-.8-1.2-2.8-.9-2.8.5s3.4,4.4,6.7,5.6c1.4.5,2.6,1.6,2.7,2.4.5,2.7,3.3,5.9,5.2,5.9s4.5,5.2,2.6,6.7c-1.2.9-1,1.6,1.1,7.7,1.5,4.3,2.2,5.6,1.9,3.6-.3-1.8-.6-4.8-.6-6.8,0-3.1.1-3.6,1.5-3.6s1.6.6,1.8,9.4c.2,7.9,0,9.5-1,9.9-1,.4-1.2,2.1-1.1,10.2,0,5.3-.1,10.5-.4,11.5-.4,1.1-.3,1.8.2,1.8s.9-1.4,1-3c.1-1.7.6-2.9,1.1-2.8.4.1.7,1.5.6,3.1-.1,1.6.2,3.3.6,3.8.4.5.6,2.1.4,3.6-.2,1.5,0,3.3.4,4,.4.7.9,3.9,1.3,7.1l.6,5.8h-2.1c-1.9,0-2.1-.3-2.1-2.7s-.4-3-.8-3.2c-.7-.4-1.2.8-1.8,4.7-.3,1.8-1.8,2.5-2.6,1.3-.3-.5-.4-3.1-.3-5.8.2-3.4,0-5-.7-5.2-.7-.2-1,.7-1,3.2,0,4-.5,5-2,3.5-1.2-1.2-.4-8.3,1.4-12.7.7-1.6,1.5-4.9,1.8-7.4.5-3.8.4-4.5-.7-4.5s-1.3.7-1.3,2-.4,2-1.6,2c-2,0-2-1.6-.4-6.9,3.3-10.4,3.6-12.4,2.6-15.6-1.1-3.7-3.6-4.5-2.7-.9.8,3.2.5,8.4-.5,9.6-1.6,2-2.3,1-2.3-3.4s-.4-5.1-.9-5.9c-.8-1.2-.7-1.9.5-3.7,2.2-3.4,1.9-6.8-.9-11.3-4.7-7.4-5-7.7-7.1-7.3-2.2.4-3.4-.8-1.5-1.5,1.8-.7,1.5-2.7-.7-4.5-1.3-1-2-2.4-2-3.9s-.3-2.3-2.2-2.4c-1.2,0-2.9-.3-3.7-.6-1.4-.5-1.3-.7.7-2.4,2.1-1.7,2.2-1.9.9-3.1-1.5-1.5-4.2-1.6-13-.6-5.4.6-5.7.5-7.8-1.5-1.2-1.2-2.5-2-3-1.7-.4.3-1.9,2.3-3.3,4.4-2.4,3.7-2.8,4-6.8,4.5-6.1.8-7,.2-5.3-2.8,1.8-3.2.8-4-2.3-1.8-1.4,1-2.6,1.7-2.8,1.5-.6-.7,1.4-5.3,2.5-5.7ZM958.1,256c0,2.6-1.4,2.4-2.4-.2-.9-2.4-.7-2.9,1.1-2.2.7.3,1.3,1.4,1.3,2.4ZM943.1,243c-1,1-2.5.6-7.4-2.1-5-2.7-6-4.4-2.4-4,1.1.1,3.1.3,4.4.4,1.7.1,2.4.6,2.3,1.6,0,.8.2,1.2.5,1,.8-.5,3.4,2.4,2.7,3ZM904.3,254.5c3.5-3.5,4.2-5.1,2.1-4.3-1,.4-1.1,0-.7-1.7,1.4-5.7,1.4-5.7,6.2-5.2,4.7.5,8.4-.5,11.3-3.1,1.6-1.5,1.8-1.4,7.4,1.7,5.1,2.8,13.8,5.7,17.1,5.7s1.5,1.4,2.1,4c.5,2.2,2.7,6.8,4.8,10.2,2.8,4.5,4,7.4,4.5,10.5.5,4,.5,4.2-1.1,3.7-1.3-.4-1.7,0-2.1,1.7-.3,1.2-.6,2.7-.8,3.2-.2.5.2,1.1.9,1.4.6.2,1.1.9,1.1,1.4s.6,1.4,1.4,1.9c1.2.8,1.2,1.2.3,2.3-.9,1.1-.9,1.5.4,2.9,1.2,1.3,1.3,1.9.5,3.2-.8,1.3-.7,1.8.6,2.9,1.4,1.2,1.5,1.5.4,2.7-.8.9-.9,1.5-.4,1.9,1.2.8.1,4.5-2,6.8-1,1.1-2.1,3-2.4,4.1-.3,1.3-1.3,2.4-2.7,2.9-1.2.4-2.8,1-3.7,1.4-1.2.5-1.4.4-1-.7.7-1.9-.5-1.7-3.2.5-4.4,3.6-3.9,3.8-13.2-4.6-3.6-3.2-2.5-3.7,2.4-1.4,2.6,1.3,5.6,2.1,7,2,1.3-.1,3-.2,3.8-.3.8,0,1.4-.4,1.4-.9s-.6-.7-1.4-.4c-1.8.6-6-.6-6.4-1.7-.2-.5,1.2-1.4,3.1-1.9,3.5-1.1,7-4.8,9.2-10.2,1.5-3.6,1.5-7.3,0-7.3s-1.2.6-1.2,1.3c0,2.6-2.7,6.8-5.5,8.5-1.6,1-3.5,2.5-4.2,3.4-1.2,1.5-1.5,1.5-4.8.5-1.9-.6-4.4-1.7-5.5-2.4-1.1-.7-3.8-2.4-6-3.8s-4.8-3.5-5.8-4.7c-3.3-4.1-7.5-10-7.2-10.2.6-.3,6-2.1,6.5-2.1s.7,1,1,2.3c.3,1.3,1.1,2.6,1.8,2.8,1.5.6,2.8-1.1,2.1-2.8-.3-.7-.7-1.9-.9-2.8-.2-.9-1.6-3.2-3.1-5.1-1.5-1.9-2.7-3.8-2.7-4.1s-1.6-2.3-3.6-4.3c-3.1-3.2-3.8-3.6-4.9-2.7-1,.8-1.3.8-1.9,0-.9-1.4.2-3.4,2.8-5.4,4.3-3.4.7-4-3.8-.7-3.6,2.6-3.6.8,0-2.9ZM908.9,273.9c-.6,1-1.8,1.1-2.4.1-.2-.4.2-.9.9-1.2,1.6-.6,2.3-.1,1.5,1.1ZM896.4,253.9c.1,3,0,5.7-.5,5.9-1.1.7-4.2-2.9-4.2-4.9s.6-2.7,1.3-4c1.6-2.7,1-5-1.3-5s-2.2-4.8.8-7.6c2.4-2.3,3.1-4.7,1.7-5.6-.4-.3-1,0-1.2.4-.8,1.3-2,.1-2-2s1.1-2.8,3.2-4.5c3.6-2.8,4.7-2.7,3.3.5-1.1,2.4-1.2,7.6-.2,7.6s2.1,7.5,1.8,9.6c-.1.7-.8,1.9-1.5,2.7-1,1.1-1.2,2.7-1.1,6.9ZM894.9,274l3.2-1.7v2c0,1.1-.5,2-1.1,2s-2.3.2-3.7.5c-3.4.7-2.7-.6,1.6-2.8ZM893.8,301.8c3.9-3.9,3.9-3.9,1.6-3.9s-2.2-.2-1.7-2.4c.5-2,.3-2.4-1.1-2.4-2.6,0-2.8-1.4-.6-3.6,2.5-2.5,2.6-3.7.4-5-.9-.5-1.6-1.5-1.6-2.1,0-1.2,4.6-3.7,6.6-3.7s2.3,1.9,1.7,3.5c-.2.6.1,1.3.8,1.6.7.2,1.4,1.8,1.7,3.5.7,3.7,3.2,6.6,5.7,6.6s2.4,1.8,0,3.5l-1.8,1.3,1.9.5c1.7.5,1.8.9,1.5,3.6-.4,2.7-.2,3.1,1.2,3.1s1.5.4,1.1,1.2c-.3.7.2,1.6,1.1,2.2,1.7,1,2.1,2.6.9,3.3-.4.2-2,.6-3.6.8-1.9.2-3.9,1.3-5.6,3-1.5,1.4-2.8,3-3,3.5-.3.9-3.1.6-3.1-.3s4.2-4.6,5.9-5.2c1.2-.4,1.3-.7.5-1.7-1.4-1.7-1.9-1.5-5.7,2-3.2,3-5.5,4.1-5.5,2.5s1.2-1.7,2.8-2.9c1.5-1.2,2.8-2.7,2.8-3.2s.7-1.6,1.6-2.4c1.9-1.8,2-2.8.3-2.8s-2.7,1.4-4.4,3.2c-1.7,1.8-3.4,3.2-3.9,3.2-1.7,0-.8-2,1.6-3.6,2.3-1.6,3.8-4.1,2.9-5-.2-.2-1.7.5-3.2,1.7-4.4,3.3-4.4.9,0-3.6ZM886,338.9c.4-.8,1.5-2.1,2.4-2.9,1.6-1.4,1.7-1.4,2.2,0,.4,1,0,1.9-1.3,2.9-2.4,2-4.4,2-3.3,0ZM886.1,344.4c1.5-1.3,3.4-2.4,4.1-2.5,1.5,0,2.7,2.3,1.7,3.3-.4.4-2.4.9-4.6,1.1l-4,.5,2.8-2.4ZM883.3,351.4c.9-1.4,7.6-4.1,8.4-3.4,1.2,1.2,0,4-2.2,5-3.8,1.7-7.7.7-6.2-1.6ZM850.1,302.3c1,.6,1,12.1,0,14-.5.9-1.1,1.5-1.5,1.5-1,0-1.5-5.6-.7-9.2,1.3-6.3,1.5-6.9,2.3-6.4ZM837.7,308.3c.7-3.3,3.8-8.6,6.9-11.9,2.4-2.6,2.6-2.7,3.6-1.2,1.4,1.9,1.4,2.8,0,2.8s-2.2,2.2-3.7,4.9c-1.4,2.7-3.4,5.6-4.3,6.4-2.5,2.1-3.1,1.8-2.5-.9ZM839.1,318.8c-.4-3.8-.2-4.2,2.3-6.7,1.5-1.4,3.1-3.4,3.6-4.2,1.5-2.6,1.2,9.7-.3,13.4-2.1,4.9-5,3.6-5.6-2.5ZM840.5,329.1c0,.4-.4.8-.8.8s-.6-.4-.4-.8c.3-.4.7-.8.8-.8s.4.4.4.8ZM831.2,312.3c.2,0,.5.5.8,1.2.2.7.1,1.2-.3,1.2s-.8-.5-.8-1.2.1-1.2.3-1.2ZM834.6,330.1c2,1.7,2.2,2.4,2.4,8.4.1,3.6-.1,6.8-.5,7-.7.4-3.1-4.3-3.1-6s-2.8-7.1-4.6-10.6c-.7-1.4,3.9-.4,5.9,1.2ZM826.5,335.5c.8-.9,1.7-1.4,2.1-1.2.4.2,1.4,2.9,2.4,5.9,1.3,4.2,1.6,6.2,1.1,8.9-.8,4.1-1.9,3.5-1.9-1.1,0-3.2-.6-4.7-3.5-8.8-1.4-2-1.4-2.2-.1-3.7ZM828.2,357.5c-.7,4.8-2,4.7-2.1-.2,0-4.5-2.4-9.2-4.4-8.5-1.1.4-1.1.7,0,2.3,1.1,1.7,1.1,2.2-.4,5.6-1.2,2.7-1.9,3.5-2.5,2.9-1.6-1.6-.5-10.3,2.1-15.9.9-2,3.8-2.4,5.2-.8,1.4,1.7,2.8,10.7,2.2,14.6ZM875.7,446.2c-1.6,1.9-3.2,1.5-3.2-.8,0-4-2-1.5-2.2,2.8-.2,3.7-.5,4.3-2.8,5.7-1.4.9-3.3,1.6-4.2,1.6-1.7,0-5-3.5-9.6-10.4-1.4-2-4.1-6-6.2-9-5.7-8.2-7.3-15.1-8.5-35.8-.5-7.7-1.3-15-2.1-17.6-1.4-4.7-4.5-10.4-6.4-12-1.5-1.2-1.5-3.2,0-6.5.6-1.4,1.6-3.9,2.2-5.4,1-2.7,1.1-2.7,1.5-.8.3,1.3,1,2,2,2s1.6-.6,1.6-3.3.6-4.1,2.6-6.6c3.4-4.2,3.9-6.9,2-10.6-1.7-3.2-1.5-4.7.6-4.7s7.8,9.5,5.7,10.8c-.5.3-.7,1.8-.4,3.7.4,2.5.2,3.2-.8,3.7-.8.3-1.2,1.2-1.1,2.2.1.9-.1,2.2-.5,2.9-.4.6-.6,2.2-.6,3.4.1,1.8-.3,2.4-1.9,3l-2.1.8,2,1.8c1.6,1.5,2.1,2.9,2.5,7.7.3,3.2.9,6.5,1.3,7.2.5.9.4,2.4-.1,4.3-1,3.1-.4,4.6,1.1,3.1.7-.7,1.3-.6,2.4.4,1.9,1.7,1.8,3.6-.1,4.9-.9.6-1.6,1.7-1.6,2.6,0,1.9.7,2,3.1.3,1-.7,1.9-1.1,2-1,.6.9,2.1,4.9,2.1,5.5s-.7.8-1.5.8-1.7.7-2,1.8c-1,3.8-.5,4.1,2.2,1.5,2.5-2.4,2.7-2.5,3.9-1.2,2.9,3.3,3.1,4.7,1,6.7-2,1.8-2.6,4-1.3,4s1.3-.9,2-2c2.9-4.5,5.5-.7,3.3,4.7-1.6,3.9-1,4.5,1.5,1.6,1.1-1.3,2.2-2,2.6-1.7.6.6-.5,7.8-1.6,11.4-.3.9.2.3,1.1-1.3.9-1.6,2-3.2,2.4-3.4,1.1-.7,2,7.5,1,8.6-1.4,1.4-1,2.3.8,1.7,2.4-.8,3.8.8,4.8,5.6.8,3.4.8,4.6,0,5.5ZM882.3,443.3c-.2.5-.8,1-1.3,1-1.1,0-3.9-9.5-3.2-10.6.9-1.5,5.2,7.6,4.5,9.6ZM890.1,434.3c-.5.3-.8-.7-.8-2.4s-.4-3.7-.9-4.6c-2-3.7-6.5-10.1-7.2-10.1-1.1,0-.9,3.8.4,5.8.6,1,1.7,4.3,2.5,7.4.7,3.1,1.7,6.1,2.2,6.6.6.7.6,1.3,0,1.9-.6.5-1.1,0-1.8-1.8-1.8-4.9-3.7-7.8-7.5-11.7-6.1-6.4-6.2-6.7-1.6-22.9,3.5-12.6,4-14.3,5.1-18.4.6-2.2,1.2-9,1.5-15.2l.4-11.2,3.1-1.5c2.9-1.4,3.3-1.4,5.8-.2,2.2,1,2.7,1.7,2.7,3.7s0,2.4-3.8,2.2c-2.9-.2-3.8,0-3.8,1s1.1,1.4,3,1.7c3.6.6,4.2,1,3.5,2.8-.4.9-1.1,1.2-2.4.8-2.6-.7-3.5,1-1.5,2.6,1.8,1.4,2.9,4.6,1.8,5.3-.4.2-1.4,0-2.2-.4-.9-.5-1.9-.5-2.6,0-1,.6-.9.9.4,1.9.8.6,2,1.2,2.5,1.2,1.2,0,1.9,1.8,1.9,4.6s-.2,2-3.2,1.5c-4.6-.7-4.4,1.5.2,2.7,3.7.9,5.4,2.6,5.4,5s-.4,1.5-4,1.1c-3.6-.4-4-.3-4,1.1s.7,1.7,2.2,2c4.2.8,6.1,2.4,7.2,5.6.6,1.8,2,5.4,3,8.2,3.5,9,2.1,10.8-2.1,2.7-1.3-2.5-3-5.3-3.8-6.1-2.7-3.1-7.5-6.8-8.6-6.8-2.2,0-1.2,2.2,2,4.3,3.9,2.6,4.8,4,8.4,12.8,2.2,5.5,2.7,7.4,2,8.6-1.3,2.4-2.2,1.9-2.8-1.5-.7-4.1-2-6.3-5.9-10.8-4.5-5.2-7.9-7.5-9.1-6.3-.7.7.5,2.2,4.5,5.9,4.7,4.3,5.6,5.7,7,10.1,1.7,5.5,2,10.1.8,10.9ZM891.3,459.7c2-.8,3.8,1.3,3.2,3.7-.8,3.1-1.7,3.6-3.1,1.5-1.6-2.3-1.7-4.6,0-5.2ZM888.2,468.8c1-2.6,5.1-1,5.1,2s-2.6,1.6-5.4-.6c-.1,0,0-.8.3-1.5ZM882.9,484.4c4-11.2,3.7-10.6,6.2-10,1.2.3,2.5.8,2.9,1.2,1.1,1-1,3-3.4,3.3-2.5.3-3.4,2.8-1.4,4.3,1.6,1.2.8,3.6-1.2,3.6s-1.5.4-1,3.1c.6,3.7-.4,4.6-2.6,2.4l-1.6-1.6,2.2-6.1ZM875.2,517.8c-1.7,0-1.8.3-1.4,2,.6,2.3-1.5,5.2-3.7,5.2s-1.3.5-1,1.5c.6,2.2-3.1,6.1-5,5.4-1.9-.7-2.4-.5-2,1.4.3,1.8-2.2,4.6-6.8,7.8-3.5,2.4-4.7,2.8-5.4,1.6-.5-.8,8.2-14.6,13-20.6,1.8-2.2,4.2-6,5.3-8.4,2.1-4.5,2.6-5.4,6.2-10.9,1.2-1.9,2.2-3.6,2.2-3.9s.8-1.7,1.7-3.2c1.6-2.6,1.7-2.7,3.6-1.3,2.1,1.5,2.7,5,.8,5s-1.5,1.1-.4,3.2c1.1,2.1-.5,2.9-2.3,1.3-1.8-1.7-2.5-1.6-2.5.2s.9,2.3,2,3.3c2.4,2.3,2.6,4,.3,4s-1.6.3-1.2,2.1c.6,2.6-.7,4.3-3.3,4.3ZM850.6,625.8c-.8,2.5-1.2,2.8-3.5,2.6-2.7-.2-3.7,1.6-1.4,2.5,1.1.4,1,.9-.6,3.8-1,1.8-2.9,4-4.2,4.8-3.5,2.2-6.6,2-7.3-.4-.4-1.5,1.1-4.5,6.8-13.6,4-6.4,7.3-11.9,7.3-12.2s1.5-2.9,3.4-5.8c1.9-2.9,3.8-6,4.4-6.8,1.9-3.2,7.4-14.6,7.4-15.4s.5-1.9,1.2-3.1c2.8-5.4,6.2-13.4,7.2-16.9.6-2.1,2.3-8.1,3.9-13.4,5.6-18.9,6.8-23.2,7.3-27.2.3-2.2,1.2-6.2,2-8.8.8-2.6,2.2-8,3.2-12,3.4-14.4,3-13.6,7.2-13.6,5.5,0,6.3,1.2,3.6,5.6-1.2,2-2.9,3.8-3.7,4-.9.3-1.4,1.3-1.4,2.6,0,1.2-.8,3.8-1.7,5.7-.9,2-2.1,5.9-2.7,8.8-.6,2.9-1.5,5.3-1.9,5.5-.5.2-.6,1.5-.3,3.3.4,2.7.2,3.2-1.5,4.4-1.8,1.2-1.9,1.5-1.1,3.7.7,1.9.7,2.5-.2,3.1-.6.4-1.2,2-1.3,3.7,0,2.1-.7,3.4-1.9,4.3-1.2.9-1.5,1.6-.9,2,1.7,1.1,1,5.1-1.1,6.5-1.7,1.1-1.8,1.5-1,2.8.8,1.3.6,2.2-1.2,5.7-1.2,2.3-2.2,5.2-2.2,6.3s-.3,2.3-.7,2.6c-.4.2-.9,1.7-1.2,3.2-.3,1.6-1.1,2.9-1.8,3-.9.2-1.3,1.3-1.4,3.6-.1,2.2-.8,4-1.9,5.2-.9,1-1.7,2.7-1.7,3.7,0,2.4-1.4,4.9-2.8,4.9s-1.6,1.7-.4,2.9c1.4,1.4,0,4.3-2.1,4.3s-1.9.4-1.9,1.5.3,1.8.7,2c.4.3.4,1.6-.1,3.3-.7,2.3-1.2,2.8-3.1,2.8s-3,1.3-.9,2.9c1.3,1,1.3,1.1-.3,3.3-.9,1.3-2.6,2.4-3.8,2.5-2.5.3-2.7,1.2-.6,2.2,1.4.7,1.4,1,.6,3.5ZM890.4,584.5c2.2-1.9,2.5-1.9,2.8-.7.2.8-.8,2.4-2.2,3.7-1.4,1.3-2.8,2.3-3.2,2.3-1.4,0,.3-3.3,2.7-5.3ZM888.5,574.6c0-.4.4-.8.8-.8s.8.4.8.8-.4.8-.8.8-.8-.4-.8-.8ZM891.7,572.1c0-1.8,3.6-6.2,5-6.2,2.3,0,1.6,2.6-1.4,5-3.1,2.4-3.6,2.6-3.6,1.2ZM892.9,578.7c-.3-.5-.1-1.5.4-2.1,1.7-2.1,5.4-4.4,5.9-3.7.2.4-1,2-2.7,3.7-2,2-3.3,2.7-3.6,2.1ZM892.5,566.1c-2.6,1.7-3.2,1.7-3.2-.2s.9-2.1,2.1-2.8c1.1-.7,2.7-2,3.6-2.9,1.8-1.8,3.9-2.1,3.9-.5s-3.1,4.2-6.4,6.4ZM896.3,554.3c-.5.7-2,2.3-3.2,3.7-2.1,2.4-2.2,2.4-1.9.5.2-1.1.4-2.4.4-2.9,0-.5.6-1,1.2-1s1.9-.8,2.8-1.8c1.7-1.9,2.3-.6.6,1.4ZM878.1,613.9c-.9,1.6-3.2,2.1-3.2.7s.4-1.6.9-2.5c.7-1.3,1.1-1.4,2-.7.8.7.9,1.3.3,2.5ZM880.7,608.4c-1.2,1.2-1.9-.5-1.1-2.7l.7-1.9.6,1.9c.3,1,.2,2.2-.2,2.7ZM881.6,578.6c-1.3,0-1.4.4-.2,2.2,1.1,1.8-1.1,7.4-2.9,7.4s-1.6,1.2-.4,2c1.1.7,1,4.8-.2,5.8-.5.5-1.7,1-2.6,1.2-1.5.4-1.5.4.3,1,1.5.5,1.8,1,1.3,2.7-.6,2.5-1.8,3.4-4.1,2.8-1.1-.3-1.9,0-2.2.9-.4.9,0,1.5,1.1,1.7,1.9.5,1.9.6.8,2.7-.5.9-1.7,1.5-2.8,1.5-2.1,0-2.7,1.4-.8,2.1.9.4.7,1.2-1.2,4.8-2.7,5.1-7.7,12.1-10,14.1-2.1,1.8-4.4,1.8-4.4,0s1-3.5,9.6-21.4c2.2-4.5,4.1-9.7,4.4-12,.3-2.2,1.3-5.6,2.3-7.6,1-2,2.3-5,2.8-6.8.5-1.8,1.3-3.6,1.6-4,.3-.4,1.2-3.1,2-6,.7-2.8,1.6-5.6,1.9-6,.3-.4,1.1-2.9,1.6-5.6.6-2.6,1.5-5.5,2.1-6.4,1-1.5,2-5.1,3.5-11.7.3-1.6.9-3.3,1.3-3.9.4-.6.9-2.2,1.2-3.5l.5-2.5,1.3,3.1c1.8,4.3,1.7,5.4-1.1,8-2.5,2.4-2.9,3.3-1.6,4.1.4.3.8.1.8-.4s.6-.8,1.3-.8c1.8,0,.8,4-1.3,5.5-1.2.9-1.4,1.4-.7,2.6.9,1.8-.3,4.7-2,4.7s-1.1,1-1,3c.1,6.2-1.2,14.6-2.3,14.6ZM885.8,731c.3.7,0,1.6-.6,2-1.7,1.1-2.5.9-2-.5.3-.7.5-1.6.5-2,0-1.2,1.6-.8,2.1.5ZM882.4,735.4c.3.2,0,1.7-.4,3.2-1.3,3.9-2.3,4.7-2.3,1.8s1.9-5.9,2.7-5ZM852.5,799.4c0-.9.4-1.7.8-1.7s.8.5.8,1.2-.4,1.4-.8,1.6c-.4.3-.8-.2-.8-1.1ZM857.4,808.9c-1.4,0-3.3-3-3.3-5.2s.6-2.3,2.5,2c.8,1.8,1.1,3.2.8,3.2ZM865.9,808.3c-.8-.2-1.4-.9-1.4-1.7,0-1.7,2.3-2.8,3.4-1.7.4.4,2.2.5,4.1.3,1.8-.2,3-.1,2.7.3-1.1,1.1-7.3,3.2-8.8,2.9ZM870.9,834.9c.4-.3.8-.1.8.3s-.4,1-.8,1.3c-.4.3-.8.1-.8-.3s.4-1,.8-1.3ZM886.7,848.6c-.5.5-.7.1-1.7-3.2-.3-1.1.9-2.9,2-2.9s.5,1.2.4,2.8c0,1.5-.3,3-.6,3.3ZM902,825.2c-.2.8-.6,1.3-1,1.2-.4-.1-1.2.7-1.8,2-1.5,2.9-3.2,2.8-3.8-.3-.6-3.2-2.6-2.7-2.2.5.7,5.2.6,5.5-1.7,5.4-1.2,0-2.1.1-2.1.4.3,2.1-.2,2.7-1.3,1.7-1-.8-1.2-.7-1.2.6s-.9,2.5-2,3.7c-1.8,2-1.9,2.6-1.5,7.6.3,4.3.2,5.7-.8,6.5-1.1.9-1.2.7-1.2-1.1,0-3-1.4-2.6-1.7.5-.2,2.1-.6,2.6-2,2.4-1.3-.1-1.8.4-2.2,2.2-.3,1.7-1.1,2.5-2.6,2.9-1.4.3-2.3.2-2.5-.4-.2-.5-.6-.9-1-.9s-.5.5-.3,1.1c.5,1.4-2.2,3-3.6,2.1-.8-.5-.8-1.1,0-2.7.8-1.8.7-2.4-.4-3.6-.7-.8-1.3-2.2-1.3-3.1s-.7-1.9-1.6-2.2c-1.4-.4-1.5-1-1.1-3.4.4-2.2,1.5-3.9,4.6-6.7,3.6-3.3,4.2-3.6,5-2.5.5.7,1.4,1,1.9.7,1.8-1.1,6.4-9.1,6-10.6-.2-.9.9-3.1,2.8-5.7,1.8-2.3,3.2-4.6,3.2-5,0-1,1.1-1,2.2.1.5.5,1.5.7,2.3.4,1.2-.5,1.2-.7-.5-2.5-1-1.1-1.7-2.1-1.5-2.2.2-.2,3.1-.1,6.5,0,6.1.3,7.9,1.1,4.5,2-2.3.6-1.5,2.5,1.1,2.8,2.2.3,3,1.7.9,1.7s-1.2.7-1.2,1.9c0,2.5.8,3.1,2.2,2,.9-.8,1.1-.7.9.5ZM886.7,808.1c1.5,0,3.4.9,3.4,1.7,0,1.1-2.1.8-3.2-.5-.6-.7-.7-1.2-.2-1.2ZM894.9,810.1c0-.8.8-1.2,2-1.2s2,.5,2,1.2-.8,1.2-2,1.2-2-.5-2-1.2ZM907.6,807.7c-1.4-1.7-.7-1.8,3.3-.3h0s3.6,1.4,3.6,1.4h-3c-1.6,0-3.4-.5-3.9-1.1ZM916.6,816.5c-1.8-2.4-3.3-4.5-3.3-4.8s.8-.4,1.8-.4,2.3-.4,2.8-.9,1.1-.4,1.7,1.2c.5,1.3,1.4,2.1,2.4,2.1s1.6.5,1.6,2.3-.6,2.7-1.9,3.6c-1.9,1.2-2,1.2-5.2-3.1ZM924.1,825.7c-1.3,0-2.5-1.5-1.8-2.2.7-.6,2.9.4,2.9,1.3s-.5.8-1.1.8ZM915.8,804.9c-.6-.5-2.1-.7-3.5-.4-1.5.3-2.9,0-3.7-.5-1-.8-1.3-.8-1.5,0-.5,1.4-1.7,1.3-3.3-.3-.9-.9-1.3-2.7-1.3-6s-.3-4.7-.6-4.7c-1.2,0-3,3.6-3.3,6.7-.2,1.7-.7,3.4-1.1,3.8-1,1-6.5,1.2-9.3.4-1.9-.5-2.2-.4-2.2,1.1,0,2.6-2,2-3.5-1.2-.9-1.9-1.8-2.7-2.5-2.4-.6.2-2.8-.6-4.7-1.9-1.9-1.3-3.9-2.4-4.4-2.4-1.1,0-1.1-2.8,0-4.9.5-1,.6-2,.1-2.5-.4-.5-.7-2.7-.7-4.8,0-4.3-.2-4.9-2.1-4.1-.9.3-1.1.8-.6,1.4.5.6.5,2.3,0,4.5-.4,2-1,5-1.3,6.8-.3,1.8-.8,2.8-1.1,2.4-1-1.6-.9-8.7.1-10.8l1-2-2.1,1.9c-2.4,2.2-4.1,7.2-2.9,8.4.4.4.8,1.6.8,2.6s.4,2,.8,2.3c1.5.9.8,2.1-1,1.8-1.4-.2-1.9-.9-2-2.8-.3-3.3-2.5-3.6-2.6-.4,0,3.6-1.4.5-2.1-4.4-.5-3.9-.3-4.5,1.6-6.4,1.1-1.2,2.1-2.5,2.1-3,0-.8,2.4-3.3,11.1-11.9,2.7-2.6,4.9-5.2,4.9-5.8s.4-1.2.8-1.4c.5-.3.8.9.8,3.2s-.3,3.6-1.2,3.6c-1.7,0-1.7,6.1,0,6.7.8.3,1.1,1.1.9,2-.3,1.2.2,1.8,2.1,2.5,1.4.5,2.8,1.2,3.2,1.4.9.5-.2-6.4-1.2-7.4-.4-.4-.8-1.6-.8-2.6s.5-1.8,1.7-1.8,1.5.4,1.2,1.5c-.3,1.1,0,1.6,1.5,2,1.6.4,2,1,2,2.9s.3,2.4,1.9,2.4,2.1.4,2.3,1c.3.7.6.6.9-.4.4-1-.8-3.2-3.9-7.6-6.2-8.6-7.4-11.4-8-19.6l-.5-7h3.5c3.3,0,3.5.1,3.2,2-.5,2.7.6,2.5,3.4-.4,1.3-1.3,2.6-2.4,2.9-2.4,1.1,0,.7,3-.5,4-.7.5-1.2,1.3-1.2,1.7,0,1.1,2.6.8,4-.5.7-.7,1.8-1,2.5-.8,1.6.6,8.4,11.4,9.3,14.8.4,1.5,1,3.5,1.3,4.4.3.9,0,.6-.7-.6-1.3-2.2-2.8-2.9-2.8-1.3s.9,2,1.9,3.4c1,1.4,2.1,3.4,2.4,4.5.5,1.8.4,1.9-.5.5-3.8-5.6-6.6-7.5-5.6-3.7.3,1.2.1,1.5-.9,1.1-1.9-.7-1.6,1.5.7,5.9,2.3,4.4,2.7,6.5.8,5-2.4-2-2-.2.8,4.1,1.5,2.4,2.8,5,2.8,5.9,0,2.8,7.8,9.5,10.2,8.6,1.1-.4,1.4-1.9.4-1.7-2.1.3-3.5-.4-4.6-2.4-1.7-3.3-1.5-3.6,1.2-1.6,1.8,1.3,3,1.6,4.8,1.2,3.1-.7,3-1.5-.2-2.4-2.3-.7-2.6-1.1-2.8-4.2-.3-4,.6-4.3,4-1.4,2.1,1.8,2.9,1.9,6.7,1.5,4-.5,4.3-.4,4.3,1.1,0,3-1.5,5.7-4,6.9-2.2,1.1-3.4,3.6-1.8,3.6,1.9,0,2.6,1.4,1.9,3.5h0c-1.2,3.2-5.5,2.4-10.3-1.9ZM887.7,736.2c-.4,0-.8-.4-.8-.9s.4-.6.8-.3c.4.3.8.6.8.8s-.4.4-.8.4ZM889.4,740.7c0,.3-.4.7-.9.9-.5.2-.8-.1-.6-.6.3-1,1.4-1.2,1.5-.3ZM902,775.4c-.6,0-.8-.2-.5-.5.9-.9,4.3,1.9,6.2,5.1,1,1.7,2.3,3.5,2.9,4.1.6.6,1,1.5,1,2.1s.5,1.5,1.2,2c.7.5,1.2,1.5,1.2,2.1,0,1.2-1.3,1.5-1.9.4-.2-.4-1.7-1.3-3.2-2-1.8-.9-3-2.1-3.3-3.5-.3-1.2-1.2-3.1-2-4.2-.8-1.2-1.2-2.8-1-3.8.3-1.1,0-1.7-.6-1.7ZM943.4,736.8c-.7-2.7-.6-3,.7-3s1.2.8,1.2,2.4c0,2.8-1.2,3.2-1.9.6ZM947.8,740.8c.7.7.5,1.8-.8,4.6-.9,2-1.9,3.7-2.1,3.7-1.1,0-1.2-2.7-.3-5,1.4-3.5,2.2-4.3,3.3-3.2ZM948.3,750.9c.4.5-2.4,4.6-4.2,6.2-1.9,1.6-2.8,1.8-2.8.5s6.5-7.2,7-6.7ZM943.7,766.4c0,.4-.8,1.4-1.8,2.4-3,2.8-4,2-1.7-1.3,1.2-1.7,3.6-2.5,3.6-1.1ZM944.2,765.5c-.3-1.8,0-3,1.1-4.3.8-1,1.7-1.8,2-1.8,1,0,.4,3.6-1.6,9.2-1.6,4.5-2.8,6.4-5.2,8.3-1.7,1.4-3.3,2.5-3.5,2.5-1,0-.3-1.4,1.6-3.3,3.8-3.5,6.1-7.9,5.6-10.6ZM938.4,788c-.7,1.2-2.2,2.8-3.2,3.6-1.9,1.4-1.9,1.4-1.9-.2s1.2-2.5,2.7-3.6c3.4-2.6,4.1-2.6,2.5.2ZM934.3,800.7c.4.2,0,1.3-1.1,2.4-1.9,2-3.1,2.5-3.1,1.1s3.4-4,4.2-3.5ZM926.5,816.9c-.8-1.3.4-2.5,2.1-2,1.2.4,1.5,0,1.5-1.1,0-1.7,2.1-3.9,2.9-3.1.5.5-2.6,5.3-4.1,6.3-1.2.8-1.9.8-2.4-.2ZM929.7,825.7c-.3.5-.9.9-1.2.9-.9,0-1.9-3.1-1.2-3.8.8-.8,3.1,2,2.5,2.9ZM930.9,822.7c0-1.4,2.3-4.1,3.5-4.1s.5,3-.9,4.3c-1.9,1.7-2.5,1.7-2.5-.2ZM936.1,830.5c-.9,1.4-3.5,2.5-4,1.8-.2-.4.2-1.6,1.1-2.6,1.2-1.4,1.8-1.7,2.5-.9.5.5.7,1.3.4,1.8ZM952.8,821.7c-2.7,0-9.7,2.5-11.3,4-2.2,2-3.4,2-3.4,0s.4-1.5,1-1.3c.5.2,1.9-.4,3-1.4,2.3-2,8.9-4.1,10.8-3.3,1.6.6,1.6,2.1,0,2.1ZM956.8,824.1c-.6,0-1.2-.5-1.2-1.2s.3-1.2.7-1.2.9.5,1.2,1.2c.3.7,0,1.2-.7,1.2ZM957.6,803.3c-.9,0-1.1-.2-.5-.5.6-.2,1.3-.2,1.5,0,.3.3-.2.5-1.1.4ZM966.8,828.2c-1.1,2.1-2.5,1.9-4.8-.5l-1.9-2h2.5c3.9,0,5.1.7,4.2,2.5ZM961.3,763.4c0-1.8.1-1.8,1.9-1.1.7.3,1.3,1,1.3,1.6s-.7,1.1-1.6,1.1-1.6-.5-1.6-1.6ZM974.9,829.6c-.6.2-.9,0-.7-.7.2-.6.8-1.2,1.4-1.4.6-.2.9.1.7.7-.2.6-.8,1.2-1.4,1.4ZM981.6,825.6c-1.9.9-2,.8-1.2-.7.8-1.6,3.2-2.3,3.2-.9s-.9,1.1-2,1.6ZM987.7,816c-.6,1.2-1.7,1.7-3.5,1.7-3.4,0-4.6.9-4.4,3.2.1,1.1-.1,1.9-.6,2-.4,0-1.5.4-2.4.9h0c-1.9,1-4.9,1.1-7.2.2-.9-.4-2.9-.9-4.6-1.1-2.8-.5-4.3-2-1.9-2s1-1,.7-4c-.2-2.4,0-4.4.5-5.1.7-.8.5-1.4-.7-2.5-2-1.8-2-2.8,0-2.8s3.1-3.1,1.7-4c-.7-.4-.3-1.3,1.3-2.8,2.2-2.3,1.5-3.9-.9-2-.6.5-1.5.7-2,.4-1.5-.9-.9-2.9,1.6-4.9,1.5-1.3,2.4-2.8,2.4-4s-.2-1.9-1.2-1.1c-.6.5-1.5.7-2,.4-1-.6-1.1-2.8,0-2.8s4.3-6.8,3.9-8.5c-.2-1.2-.6-.9-1.8,1.5-1.9,3.9-3.7,4-3.7.2s.4-2.8,1.2-2.8c1.2,0,3.6-4.4,3.6-6.8s-.5-.6-1.9.9c-2,2.3-3.7,2.1-3.7-.4s1-1.9,2.3-2.4c3.4-1.4,4.3-6.4,1.2-6.4s-1.4-.4-.2-2.3c1.1-1.8.3-4.5-1.1-3.6-.6.4-2.5.7-4.2.7-5.3.1-6.9,2-2.9,3.4,2.7.9,3.7,3.7,2,5.4-.7.7-1.5,1.2-1.9,1.2s-.8.5-.8,1.2.7,1.2,1.7,1.2,1.5.3.9,1c-.8,1-1.2,3.2-1.1,5.2,0,.5.7,1,1.3,1s1.2.7,1,2.6c-.2,2-.7,2.7-2,2.8-2.2.3-2.2.9-.4,3,.8.8,1.4,2.7,1.5,4.2,0,2.5,0,2.6-2.1,2.1-1.3-.3-2.4-.1-2.8.4-.8,1.3,1.1,3.2,3.3,3.2,3.7,0,3.3,3.3-.6,5-3,1.3-5.5,6-3.8,7.1.6.4,1.6.7,2.1.7.5,0,1,.7,1,1.6,0,1.4-.2,1.5-2,.6-2.7-1.2-4.1,0-2.7,2.6.8,1.5.8,2-.3,2.8-.7.5-1.3,1.5-1.3,2.3,0,1.3-1.5,1.7-5.2,1.4-.9,0-2.6.6-3.8,1.6-1.2,1-2.3,1.6-2.4,1.4-1.2-1.4-2-4.1-1.5-4.9.4-.5.7-3.1.8-5.8.5-12,2.1-18.1,5.8-22.4,2.1-2.4,2.7-4.9,1.2-5.5-1.1-.4-.9-1.1.9-4.7,1.2-2.3,2.4-4.3,2.8-4.5,1-.4.9-2.8-.1-3.8-1-1,2.1-9.9,3.8-10.9,1.5-.9,1.3-1.9-.6-2.4-1.5-.4-1.6-.8-1.1-6.5.5-6.3.3-7.3-3.4-15.4-1-2.3-1.9-4.5-1.9-4.9s-.5-1.8-1.2-3c-1-2-1-2.4,0-3.6,1.5-1.7,1.5-3.2,0-3.2s-1.6-.9-2-2.1c-1.1-2.9-1-3.5.7-3.5s1.7-.7,1.9-1.6c.3-1.1,0-1.6-.7-1.6s-2.1-.9-3.2-2c-1.5-1.5-2.3-1.8-3.1-1.2-.6.5-2,.6-3.1.4-1.5-.4-2.1-.2-2.1.7s.7,1.4,1.6,1.6c1.3.3,1.6,1.1,1.6,3.7s.4,3.5,1.1,3.7c.6.2,1.4,1.5,1.7,2.7.3,1.2,1,2.4,1.6,2.7,1.3.5,3.1,6.2,2.1,6.9-.3.2-.6,3.3-.6,6.8,0,10.4-.6,14.6-2.3,15.9-1.3.9-1.4,1.3-.5,2.3.9,1.1.8,2.5-.3,7-.2.7-1.2,1.7-2.3,2.2-2.3,1-2.6,2.9-.7,4,1.9,1.1.8,4.3-2.1,6-2.5,1.5-3.4,4.6-1.2,4.6s1.4.2.3,4c-.7,2.5-1.5,3.2-4.2,4.3-4.4,1.7-5.6,1.6-8-.5-2.2-2-5.8-10.2-4.4-10.2s2.2,1,3.8,2.3c3.5,2.7,6.2,3.5,8.3,2.4,2.3-1.2,1.7-2.3-1.3-2.3s-3.7-.8-6.7-3.4c-2.2-1.9-4-3.9-4-4.5,0-.8.2-.9.9-.3,1.5,1.2,7.3,3.1,8.4,2.7.5-.2,1-.8,1-1.4,0-.9-1.5-1.8-5.8-3.1-1.4-.5-4.4-5.7-3.7-6.5.2-.2,2.3,0,4.6.5,3.3.8,4.5.8,5.7,0,1.3-.8,1.5-.7,1.5.3s.7,1.2,1.7,1.2c3,0,1.1-2-3.2-3.4-4.1-1.3-6.8-3.6-7.7-6.5-.6-1.8,0-2.6,1.4-1.5.6.5,1.9,1,3,1.1,1.4.2,2.5,1.2,3.5,3.3,1.7,3.6,2.3,3.4,2.3-.8s.3-3.6.7-4.3c.5-.9,0-2-1.8-3.8-2.2-2.3-3.8-6.4-3.9-10,0-2.4,1.5-.7,2.4,2.7.7,2.7,1.1,3.1,2,2.2.9-.8,1.5-.7,2.7.4,2.1,2,7.4,2.1,7.8.2.2-1.1-.2-1.4-2.1-1.4-2.9,0-7.3-4.6-7.3-7.7s1.2-1.9,2.9,1.7c1.8,3.9,3,3.5,2.5-.7-.2-1.9-.1-4,.2-4.6.4-.7,0-2.4-.8-4.3-.8-1.7-1.7-4.6-2-6.3-.9-4.5-5.9-14.1-7.7-14.6-.8-.2-2.2-1.8-3-3.6-.8-1.8-1.8-2.9-2-2.4-.3.5.2,1.8,1.1,2.9.9,1.1,1.4,2.4,1.2,2.9s.2,2.1,1,3.8c.8,1.7,1.9,4.5,2.5,6.2.5,1.8,1.5,4.4,2.2,5.8.6,1.4,1,3.4.9,4.4-.2,1.3-.6.8-1.3-2-.8-2.8-1.9-4.5-4.5-6.6-5.1-4.2-8-3.4-4.4,1.2.9,1.1,1.6,2.6,1.6,3.3,0,2,2.5,9.8,2.9,9.3.2-.2-.2-2.3-.8-4.6-.7-2.3-1.1-4.4-.9-4.6,1-1,3.6,3.9,4.3,8.2.9,5.2.7,6.3-.7,3.7-.5-.9-1.4-1.7-2-1.7s-2-1.5-3.2-3.2c-1.2-1.8-2.5-3-2.9-2.8-1.2.7-.9,2.1.8,5.6,2.3,4.5,3.3,8.6,2.1,8.2-.5-.2-1.1-1-1.2-1.8-.1-.8-1-2.4-1.8-3.5l-1.6-2,.5,3.1c.4,2.1.2,2.9-.3,2.5-.5-.3-.8-1-.8-1.7s-.4-1.2-.9-1.2-.7.9-.3,2.6c1.3,5.8,2,15.7,1.1,16.3-.3.2-.7-1.5-.9-3.7-.7-6.9-2-6.4-1.6.6.8,12,1.1,25,.7,25s-1.5-3.1-2.9-6.9c-1.4-3.8-2.9-7.7-3.4-8.6-1.2-2.3-6.6-9.5-10.8-14.5-1.8-2.2-3.9-5.6-4.7-7.6-.7-2-1.8-4.5-2.4-5.6-2.7-5.2-3.5-16-1.2-16s2.5,3.5,4.3,9.6c1.3,4.3,4.3,9.6,5.4,9.6.3,0,1.1,1.1,1.8,2.5.7,1.4,1.5,2.3,1.7,2,.2-.2,0-1.3-.7-2.3-2.9-4.4-6.1-11-7.4-15-.8-2.4-2-5.7-2.6-7.3-.8-1.9-1-3.8-.6-5.5.5-2.2.4-2.5-.7-2.1-2,.8-1.6-1.3.7-3.4,2-1.9,2.7-6.1,1.5-9.1-.9-2.4-1.9-1.2-1.8,2.1.2,6,0,6.5-1.2,5.4-.7-.6-1-1.9-.8-3.5,1.5-12.3,2.3-17.2,2.8-16.9.3.2.4,1.8.2,3.4-.3,2.6,0,3.4,1.7,5.2,2.6,2.7,3.5,2.7,4.1,0,.6-2.5-1.5-7.7-4.6-11.4-2.6-3.1-2.5-2.6-1.1-5.4.7-1.4,1.1-4.2.9-7.1-.2-3.9-.4-4.8-1.5-4.7-1,0-1.2-.3-.9-1.8.3-1.1.1-1.9-.3-1.9s-.8-2.4-.9-5.4c0-3-.5-7.2-.9-9.4-1.1-5.8-2-22.6-1.7-33.1.2-6.8.6-10,1.7-12.6.8-2,1.2-3.4.8-3.1-.4.2-.9.1-1.2-.3-.5-.8,4-4,7.1-5.1,2.9-1.1,8.4-4.9,8.4-5.9,0-1.7-1.5-1.9-4-.6-3.7,1.9-3.8.8-.3-2.4l3.1-2.9-3,1.6c-4.1,2.2-4.5,2.1-1.8-.8,1.3-1.3,2.8-2.4,3.3-2.4s1.1-1,1.1-2.6.3-3,.7-3.4c1.1-1.2,1.2-10.8.1-14-1.9-5.3-2.2-7-1.6-8.1.4-.7-.9-4.2-3.3-9.1-4.7-9.6-4.7-11.5-.2-26.9.6-2.1.9-4.3.6-5-.6-1.5,3.6-8.1,7.1-11.3,1.4-1.3,4.2-3.7,6.1-5.5,2.8-2.6,3.6-3,4.2-2,1.2,1.9.9,5.6-.5,5.6s-1.2-.5-1.2-1.2-.3-1.2-.7-1.2c-1.1,0-1.7,2.3-1.2,4.4.6,2.4-1,3.3-2.9,1.6-1.4-1.3-1.5-1.2-1.8,2.1-.2,3.1-.4,3.4-2,3.2-1.4-.2-1.8.1-1.8,1.4s-.9,3.4-2,5.5c-2,3.7-2.6,7.7-1.3,8.5.4.2,1.4-1.3,2.4-3.4,2-4.2,10.8-14.5,11.8-13.6.3.3.2,2-.3,3.8-.8,2.6-1.3,3.2-2.7,3-1.4-.1-2.2.8-4.1,4.2-3.8,7.3-7.1,16.2-7.1,19.1,0,3.2.3,3.5,1.9,2.9.8-.3,1.2-1.5,1.1-3.4,0-1.6.5-4.2,1.2-5.8.7-1.5,1.4-3.5,1.6-4.4.2-.9.3,4.6.4,12.3,0,7.6.3,14.1.5,14.3.3.3.5,2,.5,3.9s.4,3.5.8,3.5.8-.4.8-.9.8-2,1.7-3.3c1.4-2,1.7-3.4,1.5-8.5,0-3.4-.3-7.4-.4-8.9-.3-3.1,1.6-19.1,2.3-19.8.2-.2.8.6,1.3,1.9.5,1.3,1.2,2.9,1.6,3.7.4.8.8,2.1.8,3s.5,1.8,1.1,2.1c.8.3,1,1.4.7,3.6-.4,3.1-.3,3.2,1.8,2.6l2.2-.6-.5,3.7c-.5,3.8,0,4.9,2.7,4.9.9,0,1.2,1.1,1.2,4.8s.3,4.8,1.1,5.1c.8.3,1,0,.6-.8-.6-1.5,2.2-4.3,3-3,.3.5,0,1.6-.9,2.5-1.2,1.3-1.3,1.9-.5,3.1.5.8,1,3,1,4.8,0,3.8,1.5,4.8,4.4,2.8,1.8-1.2,2.1-1.2,2.5-.1.2.7,0,2.3-.4,3.7-.5,1.6-.6,3.1-.1,4.4,1,2.5,2.4,2.5,2.4,0s1.2-2.6,2.4-.4c.6,1.2.5,2.3-.8,4.9l-1.7,3.3,2,1.9c1.1,1,2.6,1.9,3.2,1.9s2.3.6,3.6,1.4c2.3,1.3,2.5,1.3,3.5-.1,1.2-1.6,3-1.1,3,.8s-1,1.4-2.4,1.7c-1.3.3-2.4.8-2.4,1.2,0,1.2-4.2.8-5.6-.5-1.5-1.3-4-.8-4,.8s5.9,5.2,7.3,5.2.7.7.7,1.6c0,1.7-1.2,2.2-2,.8-.7-1.2-3.6-1-3.6.2s1.1,2.1,2.4,3.3c3.6,3.4,3.2,9.2-.5,6.4-4.2-3.1-4.7-.2-.6,3.6,2.5,2.3,2.7,2.8,1.5,3.4-1.2.7-1.2.9,0,2.2,1,1.1,1.2,2.2.8,4.3-.6,3-1.5,3.6-2.7,1.6-.4-.7-1.7-1.3-3-1.4-1.9-.1-2.4.2-2.6,1.7-.2,1.6,0,1.8,1.8,1.3,2.5-.6,5.2,1.4,5.2,3.9s-.4,1.5-1.8,1.1c-5.4-1.5-6.4-1.5-6.1,0,.2.8,1.6,1.9,3.4,2.5,3.8,1.3,4.6,2.4,4.1,5.3-.5,2.5.1,2.8,1.6.9.5-.7,2.9-1.8,5.2-2.4,2.3-.6,4.4-1.3,4.6-1.5.2-.2,0-1.3-.5-2.4-.8-1.8-.7-2,.9-2s2.3-.4,2.8-1c1.9-1.9,1,1.4-1.2,4.5-4.4,6.1-6.5,7.7-9.5,7.1-1.8-.3-2.7-.2-2.7.4,0,1.5,2.4,2,4.8,1.1,1.3-.5,2.6-.5,3.3-.1.8.5.4,1.3-1.9,3.3-1.6,1.4-3.1,3.3-3.2,4.2-.2.9-1,1.7-2,1.8-2.1.3-2.3,1.9-.6,3.3,2.2,1.8,1.4,3.8-1.7,4.5-3.8.9-3.8,2.1,0,3.3,3.2,1,8.5,5.9,8.5,7.7s-1.1.5-3.7-.9c-3.5-1.8-9.1-2.6-9.1-1.3s1.5,1.9,3.3,3.5c3.9,3.5,3.9,6-.1,5.1-2-.4-2.4-.3-2.4,1s1.2,1.9,4.6,3.1c3.1,1.1,4.7,2.1,4.9,3.1.2,1.2,0,1.4-1.6.9-3.5-1.1-5.1-.8-5.3,1.1-.2,1.4.1,1.8,1.5,1.8,2.4,0,4.7,1.4,7.8,4.5,2,2,3.3,2.7,5.4,2.7s2.8-.4,2.8-.8-.8-.8-1.8-.8-2.3-.4-2.8-1c-1.3-1.3-1.2-3.3.1-2.8.6.2,1.5.1,2.1-.2,1.3-.8.2-2.7-1.2-2.1-.6.2-1.5-.2-2.1-.9-.9-1.1-.8-1.2.7-.8,3.1.8,2.1-1.3-2-4.2-2.1-1.5-3.4-2.8-2.8-3,.5-.2,1.8.4,2.7,1.3,1,.9,2.2,1.7,2.8,1.7,1.9,0,1.8-1.4-.1-3.2-2.1-1.9-2.6-4-1.1-4s.7-.5.4-1.2c-.3-.7,0-1.2.7-1.2,1.5,0,1.5-2.1,0-3-1.4-.8-7.1-9-6.7-9.5.2-.2,1.3.4,2.4,1.3,2.7,2.1,3,2,3-.7s-.9-3.3-2.8-5.3c-3.4-3.6-3.6-5.2-.5-5.2s3.1-.8,4.2-1.9c1.7-1.7,7.4-5.3,8.3-5.3s0,2.6-2.2,5.6c-1.4,1.9-3,4.1-3.4,4.8-.5.8-1.3,2-1.9,2.7-.6.7-.8,1.5-.5,1.9.3.3.8.2,1.1-.2.9-1.3,6.4-5.2,7.3-5.2s1.1,1.8-.3,3.6c-1.5,1.9-.8,15,.9,17.7,1.3,2,1.5,9,.3,9s-.8-1.3-.8-2.8-.4-2.8-.8-2.8-.8.8-.8,1.8-.3,2.2-.7,2.6c-.4.5-.5,4.3,0,9.7.4,4.9.5,9.6.3,10.5-.2.8.2,2,.9,2.5,1.6,1.3,1.6,4,0,4s-1.2-.5-1.2-1.1-.8-1.7-1.8-2.3c-1-.7-3.6-3-5.7-5.1-3.4-3.4-9.6-6.6-10.7-5.5-.8.8.8,2.9,3.8,4.8,1.8,1.1,3.8,2.9,4.5,4,.7,1.1,1.9,2.1,2.7,2.3,1.5.4,4.6,4.3,3.9,5-.7.7-5-1.3-7.4-3.6-2.9-2.7-6-3.9-6-2.2s5.9,6.6,10.2,8.1l4.2,1.5,2-2.3c2-2.2,2.1-2.2,3.2-.8.6.8,1.4,3.2,1.7,5.2.3,2,1,4.8,1.6,6.3.6,1.4,1.1,3.6,1.1,4.8,0,3.2,1.2,4.9,2.5,3.6,1.4-1.4,2.3-1.2,2.3.6s-.5,1.6-1.6,1.6-1.8.5-2.1,1.2c-.6,1.5,1.1,3.6,2.5,3.1,1.8-.7,2.1,4.8,3.2,59.7.3,15,1,22.4,2.1,22.4s.7.7.7,1.5c0,1.2.8,1.6,4,2.1,2.2.3,4.4.3,4.9,0,.7-.4.7-.1,0,1.1ZM887.7,667.7c0-4.8,1.3-4.5,2,.5.3,2.4.2,4.4-.2,4.9-1.1,1.1-1.8-1.1-1.8-5.4ZM978.6,734.6c-2.4,0-2.8-4.8-.5-6.2,1.5-.9,1.6-.8,1.6,2.6s-.3,3.6-1.1,3.6ZM980.7,745.2c.5,3.9-.5,5.2-1.5,2-.3-1-.9-2-1.3-2.3-1.1-.7-1.2-6.5,0-6.9,1.2-.4,2.2,2.1,2.9,7.2ZM979.4,751c2.1,1,4.2,5.1,4.2,7.9s-2.1.3-4.6-1.8c-1.9-1.6-2.6-2.9-2.6-4.8,0-3-.1-2.9,3-1.3ZM979.3,760.4c.9.6,2.5,1.3,3.7,1.6,2.1.5,3.1,2.3,3.1,5.9,0,2.3-1,2.2-5.8-.3-3.6-1.8-3.8-2.2-3.8-5.2s.4-3.8,2.8-2.1ZM988.9,752c-.3,1.7-1,3.5-1.7,4.1-1.2,1.2-1.1,1.4-2.4-2.8-.6-1.9,1-4.3,2.9-4.3s1.6.3,1.1,3ZM988.9,743.6c.2.2.3,1.3.2,2.3l-.3,1.9-.6-1.8c-.6-1.8-.2-3.3.8-2.3ZM987.3,795.4c-.3.4-.7.8-.8.8s-.4-.3-.4-.8.4-.8.8-.8.6.4.4.8ZM978,779.3c-.5-.9-.7-1.8-.5-2,.5-.5,5.4,2.3,5.4,3.1,0,1.4-4,.5-4.8-1.1ZM982.1,792.2c0,.4-.5.8-1.2.8s-1.2-.1-1.2-.3.5-.5,1.2-.8c.7-.2,1.2-.1,1.2.3ZM981.3,786.2c.8,1,.7,1.2-.7,1.2s-1.7-.3-1.7-.8c0-1.4,1.4-1.6,2.4-.4ZM983.3,798.4c1.5.4,2,.8,1.3,1.2-.5.3-1.3.4-1.7.1-.4-.3-1-.1-1.2.3-.7,1.2-2,1-2-.3s1-2.1,3.6-1.4ZM981.1,808c.9-.9,4.2.5,4.2,1.8s-3.8,1-4.4-.1c-.3-.5-.2-1.2.3-1.7ZM985.2,775.4c-1.1,2-2.8,2-4.6,0-.8-.9-1.8-1.6-2.4-1.6s-1-.9-1-2.1.3-2,1.4-1.6c8,2.6,8,2.6,6.6,5.4ZM988.2,764c-.2-1-.1-2.1.3-2.6.5-.5.8.1.8,1.8,0,3-.4,3.3-1.1.8ZM999.2,793.4c-.3,1.3-1,2.7-1.6,3.2-1.5,1.2-1.4,4.3,0,4.3,2.4,0,2.1,1.8-.9,4.6-1.7,1.6-3.7,3.8-4.3,4.9-.8,1.3-1.4,1.7-1.8,1-.3-.6,0-1.2.7-1.4.7-.3,1.2-.9,1.2-1.4s.7-2.4,1.6-4.1c2-3.8,2-3.8,0-3.2-1.8.6-2.4-1.2-2.3-6.4.1-4.4-.6-12.8-1.2-13.7-.3-.4-.7-3.5-1-6.9-.5-5.8-.5-6.1,1.1-6.1s1.7.7,2.2,4.5c.3,2.5.4,4.7,0,4.9-.3.3,0,1.2.6,2.1.6.9,1.5,4,2.1,7,.9,4.7,1.2,5.3,2.6,4.9,1.4-.3,1.5-.1,1,1.9ZM999.4,781.3l-1.9,2.3-.5-1.9c-.3-1.3,0-2.4,1-3.5.8-.9,2.2-3.2,3.1-5.2l1.6-3.6v3.8c.1,2.1-.2,4.3-.6,4.8-.4.5-1.6,2-2.7,3.3ZM1001.3,790.1c1.1-1.3,2.1-1,1.2.4-.3.5-.9.9-1.4.9s-.5-.5.2-1.2ZM1003.2,797.8c-.2.4-.8.7-1.2.7-1.1,0-1.7-1.4-.8-2,1.1-.7,2.6.3,2,1.2ZM1038.4,814.5c1.8,1.5,1.5,2.8-.8,3.9-1.1.5-2,1.3-2,1.7,0,1.2,1.2,1,2.4-.4,1.3-1.5,2.7-1.5,4.1,0,.9,1.1.6,1.7-2,4.2-3.5,3.3-2.6,4.5,1.2,1.7,2.1-1.6,2.6-1.7,3.2-.7,1.2,1.9.9,2.7-1.6,5.2-3.1,3-3.1,4.2,0,1.8,2.1-1.5,2.6-1.6,3.2-.6,1.6,2.6-.1,6.4-3,6.4s-1.1.5-.9,1c.2.5.9,1,1.7,1s1.3.3,1.3.6c0,4.6,0,4.7-2.1,4.5-1.8-.2-2.2.2-3,2.5-.6,2-1.4,2.8-2.5,2.8s-1.6.5-1.6,1.8c0,2.5-1,3.1-2.6,1.6-1.7-1.5-2.5-1-2.5,1.4s-.6,2.5-1.2,3.5c-1.5,2.1-1.9,2.2-4.2.5-2.1-1.4-2.4-3.6-.5-3.6s1.1-.5.9-1c-.2-.5-.9-.9-1.6-.8-1.3.2-1.4-.1-3-10.1-1-6.3-.4-21.4.9-23,.5-.6.3-1.2-.5-1.9-1.5-1.2-1.6-4.9-.2-6.3.8-.8.6-1.3-1-2.5-1.5-1.1-1.7-1.6-.8-1.8,4.8-1.4,7.9-2.6,9.5-3.9,2.4-1.9,3.1-1.9,3.7.2.7,2.1-1.6,5.7-3.4,5.4-.7-.1-1.4.3-1.7.9-.4,1.1,1.8,1,6-.3,1.3-.4,1.8-.2,1.8.6s-.5,1.4-1.2,1.7c-1.5.6-1.6,2.9-.2,2.9s1.5-.4,2-.9c.7-.7,1.2-.7,2.2,0ZM1023.1,802.2c2.4.7,2.7,1.1,1.3,2-1.5,1-3,1-3.6,0-.8-1.4.5-2.5,2.3-1.9ZM1035,774.6c-3.4-5.4-8.9-17.2-9.4-20.5-1.1-7,2.2-4,5.5,5,.6,1.7,2.3,5.9,3.6,9.5,2.9,7.3,2.9,10.3.2,6ZM1036.9,761.3c.8,1.6,1.1,3.1.9,3.4-.3.3-1.1-.9-1.7-2.5-1.6-3.9-.9-4.6.9-.9ZM1046,797.7c0-.4.5-.8,1.2-.8s1.2.4,1.2.8-.5.8-1.2.8-1.2-.4-1.2-.8ZM1053,797c.5-2,2.8-2.2,4.6-.4,1.3,1.3,1.6,2.6.8,4.7-.5,1.4-.8,1.5-3.3.3-2.1-1-2.7-2.3-2.1-4.6ZM1056.1,808.9c-.7,1.2-1.4,1-3.3-1-.9-1-2.5-2.4-3.6-3.1l-2-1.4h2.1c2.4,0,7.5,4.2,6.7,5.5ZM1045.9,783.3c.7,1.1,2,2.7,2.8,3.5.8.8,1.3,1.6,1.2,1.8-.6.6-5.4-3-5.9-4.5-.8-2.5.5-2.9,1.9-.7ZM1041.7,791.8c1.2-1.6,1.2-1.6,2.4,0,.6.9,1,1.9.9,2.4-.2.5-1.2.9-2.4,1.1-2.4.3-2.8-1-.9-3.4ZM1040.7,788.2c.6.9.5,1.8-.4,2.9-1.5,2.1-2.8,1.3-3.2-1.8-.2-1.9,0-2.4,1.2-2.4s1.9.6,2.3,1.3ZM1037.6,713c2.8,8.4,3.2,13,1.7,18.8-.7,2.6-1.5,7.3-1.8,10.4-.3,3.1-.7,5.8-.9,6-1.2,1.2-1.9-3-1.7-10.2.2-6.2,0-8.2-.8-8.2s-1-1.7-1.1-5.4c-.1-7-.2-7.4-1.3-10.1-.5-1.2-.9-2.8-.9-3.6,0-1.8-4.5-16-5.5-17.2-.4-.5-1-2.1-1.3-3.5-.3-1.4-1.8-4.4-3.3-6.6-1.5-2.2-2.7-4.2-2.7-4.5,0-.8-4.3-6.3-5.8-7.4-.8-.6-1.8-2-2.2-3-.4-1.1-1.1-1.7-1.6-1.4-.5.3-1.3.2-1.8-.3-.9-.7-3.7-1.2-6-1-2.1.2-.9,1.5,1.8,2,4,.8,6.8,3.5,7.3,7.3.3,1.8,1,3.9,1.6,4.8,1,1.5,1.1,1.5,1.1-.6s.3-2.2.7-2.2c1.2,0,2.8,2.5,3,4.7,0,1.2.2,3.6.3,5.3.2,3.2.2,3.2,1.1,1,.5-1.2,1.2-2.2,1.5-2.2,1.2,0,2.3,4,2,7.5-.2,2.7,0,3.3,1.1,3.1,1.8-.3,3.1,3.6,2.1,6.2-.4,1.1-.6,3.1-.4,4.4.3,2.3.3,2.3.9.6.3-1,1-1.7,1.5-1.5,1,.4,1.2,8.8.3,11.5-.5,1.4-.3,1.8,1.1,2.2,1.4.4,1.6.8,1.2,2.7-.3,1.2-.8,3.8-1,5.8-.4,3-.3,3.5.8,3,1.6-.6,2.5,3.5,1.5,7-.4,1.6-.3,3,.4,4.4.6,1.1,1.1,2.8,1.1,3.7s.5,3.2,1.2,5.1c1.9,5.3.9,4.6-2-1.4-4.7-9.9-8.2-16.6-9.3-17.8-.6-.7-1.5-3-2-5.2-3.5-15.6-7.2-28.4-8.9-30.3-.4-.4-.7-1.4-.7-2.2,0-1.7-1.4-3.5-6.4-8.3-3.4-3.4-5.6-4.4-5.6-2.7s.4.8.8.8,2.4,1.6,4.4,3.6c2.8,2.8,3.6,4.2,3.6,6.3s.5,3,1.8,3.9c1.8,1.2,1.8,1.2.3,2.8-1.7,1.9-1.1,3.6,1.1,2.9,2.2-.7,3,3.1,1.3,6-1.8,3-1.7,3.4.7,2.8,2.5-.6,3.3,1,2.1,4.4-.5,1.4-.6,2.9-.3,3.4.3.5.6,2.6.7,4.7,0,2.7.6,4.3,1.8,5.6.9,1,3.3,4.7,5.3,8.2,3.7,6.5,4.7,10.6,2.4,9.7-.7-.3-1.4-.5-1.6-.5s-.3-.7-.3-1.5-.3-1.8-.8-2c-1.1-.7-1.1-.2,1.2,8.8,2.1,8.1,6.2,17.9,11.2,26.1,3,4.9,3.5,7.1,1.6,7.1s-5.2-4.8-5.2-6.3-4.8-8.1-5.7-7.6c-1.5.9.2,7.9,3.2,13.1,1.6,2.8,3,5.5,3.2,5.8.5,1.1-3.4.6-5.9-.7-2.3-1.2-9.6-1.8-10.5-.8-.2.2-.2,1,0,1.7.4.9,1.3,1.1,4.5.7,2.5-.3,4.4-.1,5.1.4,1,.8,3.5,1.5,5.9,1.7.6,0,1,.4,1,.9,0,1-2.2.9-4.8-.1-1.1-.5-4.6-.6-7.9-.4-5.4.4-6,.3-7.8-1.5-1.2-1.2-1.9-2.8-1.9-4.5,0-1.4-.5-4.4-1.2-6.6-.7-2.2-1.5-8-2-12.8-.4-4.9-1-10-1.3-11.3-.3-1.3-.1-3.8.4-5.5.5-1.8.6-3.6.1-4.3-1.4-2.5-2.6,3-2.1,9.3.3,3.7.2,5.8-.3,5.8s-1.8,2.2-2.9,4.8c-2.2,5.1-3.8,6.1-4.5,2.8-.3-1.4.1-2.3,1.2-3,2.3-1.5,5-10.2,3.2-10.2-.3,0-1.1,1.2-1.8,2.6-1.8,3.8-3.6,4-2.9.4.3-1.6.2-3-.2-3.3-.4-.2-.9-3.1-1.2-6.3-.5-5.8,1-19.3,2.8-25.2.5-1.5.6-2.8.4-3.1-.8-.8-2.1,2.7-3.3,9.4-.7,3.7-1.6,7.6-2,8.6-1.1,2.6-3.2,2.3-3.2-.4,0-2.2,0-2.2-1.2.5-.7,1.5-1.4,2.5-1.8,2.1-.3-.3-.8-6.6-1.1-13.9-.4-10.1-.3-14.7.6-18.8,1.4-6.9,1.5-11.2.1-10.7-.6.2-1.4,3.1-1.9,7-.5,3.6-1.2,7.6-1.5,8.7-.3,1.2-.5,2.9-.4,4,.2,2-2,4.9-3.7,4.9s-1.1-.8-1-2.2c0-1.2-.3-4.7-.8-7.8-1.7-10.6-2.6-19.7-2.1-20.2.8-.8,2.3,1.1,2.5,3.1.3,2.9.4,3.1,1.1,3.1,1.7,0,1.6-4.1-.4-9.3-5.1-13.4-6.1-17.8-6.4-27.9-.1-4-.5-8.6-.8-10.2-.3-1.7-.3-4.6,0-6.5.4-3,.8-3.4,2.1-3.1.9.2,1.6,1.1,1.6,2s.4,1.5,1.9,1.1c2.1-.5,2.9.9,2.9,5.6,0,1.7.5,2.7,1.4,3,.8.3,1.8.7,2.4,1,.7.3.9-.2.5-2-.7-3.6,0-5,2.2-4.2,2.7,1,5,.2,9.1-3.2,3.4-2.8,6.8-4.1,6.8-2.5,0,.3-.5,2.6-1.2,5-.6,2.4-1.2,5.4-1.2,6.7,0,1.9.3,2.2,1.8,2,1.4-.2,2.3-1.5,3.9-5.5,1.2-2.9,2.2-5.9,2.2-6.8,0-.9,1-2.4,2.1-3.3,1.7-1.5,1.9-2,1.2-3.4-1-1.8.3-4.9,2-4.9s1.1-1.8,1.3-4c.4-3.9,1.6-6.4,2.7-5.4.3.3.7,2,.9,3.7.4,2.7.2,3.3-.9,3.3s-1.6.8-1.4,3c0,.5-.6,1.4-1.4,2-1.2.7-1.5,1.5-1.1,3.3.3,1.6,0,3-1.2,4.6-1.8,2.4-2.1,4.1-1.1,5.1.3.3.6,1.9.6,3.5,0,2.5.2,2.9,1.7,2.8,2.8-.3,6.5,4.5,12.4,16.2,3.1,6.1,6.2,11.8,6.9,12.6.7.8,1.4,2.5,1.5,3.6.5,5.1,1.9,11.4,3,13.7.7,1.3,1.2,3.1,1.2,3.9s.9,4.2,2,7.4ZM1034.7,677.8c.4,0,.9.7,1.1,1.5.5,2.1-.6,3.9-1.3,2.1-.7-1.9-.6-3.6.2-3.6ZM1031.4,664.9c1.6,3.4,2.8,7.1,2.8,8.5-.2,3.4-1.4,4.3-2.6,1.7-1.1-2.3-2.3-2.8-2.3-.9s-.3,1.2-.8,1.2c-.9,0-2.4-5.1-2.4-8.4,0-1.8-.2-2.1-.8-1.2-.6,1-.9,1-2-.4-.7-.9-1.6-2.9-2-4.4-.9-3.2-3.8-6.1-5.8-5.7-2,.3-2.4-1-1.2-3.6,2-4.1,3.7-8.3,3.7-9.4s.5-1.5,1.1-2c.9-.7,1.2-.4,1.6,1.7.7,3.6,4.1,14.9,4.7,15.5.3.3.3-1.1.1-3l-.4-3.5,1.6,2.8c.9,1.5,1.6,3.3,1.6,3.9,0,.6,1.4,3.8,3,7.2ZM1031.2,608.4c-.9-.6-2.4-3.7-3.1-6.2-.5-1.8,2.1-9.4,3.3-9.8.4-.1,1,1.3,1.2,3.2.4,2.7.1,3.8-1.1,5.1-2.1,2.2-2,3.4.4,4.3,1.1.4,2,1.1,2,1.5,0,1.2-2,2.5-2.8,1.9ZM1035.3,580.7c2.4-4.2,3.5-4.2,3.5.2s-.3,3.1-2.8,4.3c-3.5,1.6-3.6.7-.7-4.4ZM1036.4,591.8c0-1.7.3-2.6.8-2.4.4.3.8.1.8-.4s.4-.8.8-.8c1.1,0,1,4.3-.2,5.4-1.6,1.6-2.2,1.1-2.2-1.9ZM1041.9,617c-.5,1.6-2.3-2.5-3.4-8.2-1.6-7.6-1.6-11,0-11s1.2.7,1.2,1.9.6,5.2,1.3,9.2c.7,4,1.1,7.7,1,8.1ZM1042,564.6c0-.7.4-1,.8-.7.4.3.6.8.4,1.2-.7,1.1-1.2.9-1.2-.5ZM1053.3,636.4c-1,1-2.6-1.4-3.4-4.8-.4-1.6-1-4.6-1.5-6.6-.5-2-.8-5.5-.6-7.8.2-3.1,0-4.1-.7-3.9-2,.8-2.6-5.9-.8-7.5.7-.5,1.2-1.5,1.2-2.2s-.2-1-1.1-.3c-.6.5-1.3.7-1.6.4-1-1-.5-2.9,1.6-5.6,2.2-2.9,2.1-4.5-.2-2.3s-1.6,1.1-2.2.5c-.6-.7-.4-1.8,1-4.1,1.9-3.4,1.8-4.8-.2-3.1-1.1.9-1.2.7-1.2-1.5s.7-3.2,2-4.4c1.1-1,2-2.3,2-2.8,0-1.2-1.8-1.2-3,0-.7.7-1.2.7-1.8.1-.6-.6-.5-1.2.5-2.2,1.2-1.2,1.2-1.5,0-4.1-1.2-2.6-1.1-6,.3-6s.9,1.4,1.3,3c.6,2.4,1.2,3.1,2.8,3.3l2.1.2.6,17.8c.3,9.8.7,18.8.8,20.2.1,1.3.5,5.8.8,10,.3,4.2.8,8.9,1.2,10.4h0c.4,1.5.4,3.1,0,3.4ZM1072.4,658.7c3.3,6.3-2.7,1.9-6.4-4.8-5.2-9.3-5.9-10.9-4.9-11.2,1.5-.5,1.1-2.4-.6-2.8-2.1-.5-2.1-3,0-5.7,1.8-2.3,1.5-2.6-.9-1.3-1.3.7-1.7.5-2.5-1.2-.8-1.7-.7-2.5.4-4.3,1.3-2.2,1.3-2.3-.3-2.7-2.1-.5-2.2-5.6,0-9l1.5-2.5-1.9.4c-1.7.3-1.9,0-1.9-2.2s.8-3.5,1.7-4.7l1.7-2.1-2.1-.3c-1.9-.2-2.1-.5-1.9-3.6.1-2.3.9-4.2,2.4-6.1,2.8-3.4,2.9-4.5.2-2.7-1.1.7-2.3,1.1-2.6.8-.5-.5,0-1.5,2.9-6,1.2-1.9,1.2-1.9-.5-1.5-1.3.4-1.8,0-2.1-1.5-.3-1.4.2-2.4,1.9-3.9,3-2.5,2.9-2.8-.5-2.3l-2.8.4v-3.2c0-1.8.4-3.4.9-3.5.5-.2,1.1-1.5,1.4-3.1.4-2,1-2.8,2.3-3,1.4-.2,1.9-1,2.3-3.4.5-3.3,1.1-3.8,2.6-2.1.6.8.6,2.8,0,7.5-.7,5-.7,9.8,0,21.1.5,8.1,1.2,17.4,1.4,20.7,1.5,23.2,4.8,43,8.3,49.7ZM1067.1,560c-.9-1.8-1.5-5.2-1.7-11.2-.3-7.6-.2-8.6.9-8.6s1.3.4,1.3,1,.5,4.6,1.2,8.9c.7,4.4,1.2,9,1.2,10.2,0,3-1.2,2.9-2.9-.3ZM1080.8,564.5c-.4,1.6-.2,2.1.7,2.1,2,0,3.1,3.1,2.7,7.3-.3,3.2-.1,3.9,1.1,4.2.8.2,1.5,1,1.5,1.7,0,5.8-8.8-8.9-11.9-19.9-.9-3.1-1.8-7-2.1-8.8-.3-1.8-1-4-1.7-4.9-.6-.9-1.4-3.1-1.6-4.9-.4-2.8-.2-3.3,1.7-4.9,2.5-2,3.6-2.2,3.6-.6s.7,1.3,1.6,1.5c1.9.5,2.1,3.2.4,6.2-1.5,2.6-1.5,3.5,0,2.9,2.1-.8,3.1,1.6,2.6,6.2-.5,3.9-.3,4.3,1.2,4.7,1.8.5,1.8,1.1.2,7.2ZM1112.4,497.8c0,1.1-1.8,2.5-6,4.8-3.3,1.8-6.2,3.3-6.4,3.3-1.1,0-.2-1.7,1.6-3,1.1-.8,3.5-2.6,5.3-4,3.7-2.9,5.5-3.3,5.5-1.1ZM1087.4,501.8c2.3-3.4,8.5-9.9,11.3-11.8,2.4-1.6,2.8-1.7,4.3-.7q1.6,1.1,0,2.6c-.9.8-4.7,4-8.5,7-3.8,3-6.9,5.8-6.9,6.2s-.4.7-.8.7c-1.2,0-1-1.8.5-4ZM1087.6,523c-1.4,1.2-1.6,1.3-1.6.2s2.2-2.6,2.9-1.9c.2.2-.4.9-1.3,1.7ZM1082,514.6c0-.9.3-1.6.8-1.6s2.1-1.3,3.7-2.8c1.6-1.5,3.3-2.8,3.6-2.8s.7-.3.7-.6c0-.9,6.1-7.4,7-7.4s2.6-1.5,4.9-3.3c2.9-2.3,4.1-2.9,4.1-2s-.4,1.3-.8,1.3-1.8,1.1-3,2.5c-1.2,1.4-3.1,3.3-4.2,4.2-1.1.9-4.8,4.5-8.2,7.9-6.3,6.3-8.6,7.5-8.6,4.6ZM1097.9,514.1c-5.3,2.9-7.1,3.5-7.1,2.3,0-1.1,8.3-6.7,14.1-9.4,3.2-1.5,6-3.1,6.3-3.6.6-1,4.4-1.1,4.4,0s-.8,1-1.8,1.3c-1,.3-3.8,1.9-6.2,3.5-2.4,1.6-6.8,4.3-9.7,5.9ZM1120.6,507.9c-2.4.5-8.9,3.1-12.3,4.9-2.5,1.3-4.2,1.4-3.5.3.3-.4.9-.8,1.5-.8s2-1.1,3.3-2.4c1.3-1.3,2.8-2.4,3.4-2.4s2.7-.8,4.6-1.7c2-.9,3.9-1.4,4.4-1.1,1.6,1,.8,2.8-1.4,3.3Z"/>
    <path class="st1" d="M809.3,280.8c0-.2-.3-.6-.8-.8-.4-.3-.8-.1-.8.3s.3.8.8.8.8-.2.8-.4Z"/>
  </g>
  <path class="st0" d="M909.4,789.2l2.8-4h4.4c4.2.2,4.4.2,3.9-1.4-.3-.9-1.5-2.6-2.8-3.6-1.3-1.1-2.4-2.2-2.4-2.5s1.6-1.7,3.6-3.2c2.8-2.1,3.5-3,3.2-4.2-.2-.9-.8-1.4-1.3-1.2-3,1.1-6.4,1.3-7,.4-.6-.9-.4-6.5.5-13,.2-1.4.8-6.3,1.4-10.9.6-4.6,1.7-13.5,2.5-19.7.8-6.2,1.8-13.9,2.2-17.1.4-3.2,1.2-9.4,1.8-13.9,1.2-8.5,3-21.5,4-29.9.3-2.8,1-6.7,1.4-8.7.7-3.1,2.2-15.9,2.5-21.4.2-2.9,1.9-3.5,8.2-2.9,3.1.3,5.8.4,5.9.3.1-.1,0-1.1-.3-2.2-.3-1.2-1.9-3-4-4.5-2-1.4-3.5-3-3.5-3.5s1.8-2.5,4.1-4.5c2.3-1.9,3.7-3.6,3.3-3.8-.4-.1-.6-.7-.4-1.3.6-1.5-.4-1.3-4,.8-1.8,1-3.5,1.8-3.8,1.8-1.3,0-.6-4.9,2.2-15.3,1.5-5.8,3.5-13.5,4.4-17.1,2.8-11.4,7.5-28.4,8.5-30.8.5-1.3,1.3-2.4,1.7-2.4s1.5,1.6,2.5,3.5c1,1.9,4.2,7.7,7.1,12.9,3,5.2,6.5,11.9,7.8,14.9,3,6.8,9.5,19.7,10.6,21.1.5.6,1.3,2.2,2,3.6.6,1.4,6.1,12.5,12.2,24.6,6.1,12.1,11.1,22.7,11.1,23.5s-.4,1.4-1,1.4-1,1-1.1,2.7c-.4,6.5-.3,6.3-4.3,8.2-5.9,2.8-5.9,4.5,0,5.8,2.1.4,4.1,1.2,4.4,1.7.3.5.6,2.4.6,4.4,0,3.9.7,4.3,3.2,1.6,1-1,1.9-1.6,2.1-1.3.2.3,0,3.7-.6,7.5-.5,3.8-1.5,12.3-2.1,19-1.4,13.8-3,28-4.1,35.4-1.4,9.5-1.4,9.5-4.4,6.7-1-.9-2.8-1.9-3.9-2.2l-2.1-.5.5,3.7c.5,3.6.5,3.7-1.9,4.7-1.3.6-3.4,1.3-4.6,1.7-3.9,1.2-3.2,2.9,1.9,4.5,4.5,1.4,4.6,1.5,5.8,5,.7,2,1.2,4.6,1.3,5.9,0,3.4,1.6,3,4.4-1.3,1.3-2,2.9-3.9,3.4-4.1.6-.2,2.7,0,4.6.3,3.3.7,3.6.6,3.6-.6s-.9-2-2-2.8c-1.1-.8-2.4-2.2-3-3-.9-1.4-.8-1.7,1.4-3.6,1.4-1.2,3-2.3,3.8-2.6,1-.3,1.2-.9.8-2-.7-2.2-.6-2.2-3.6-1.2-1.9.6-2.9.6-3.4.1-.7-.7-.2-7.4,1.7-22.6.4-2.9,1.2-11.8,1.8-19.7,1.2-15.1,3-29.1,4-30.8.5-.8,1.2-.8,4-.1,4.9,1.3,5.7,1.2,4.8-.6-.4-.8-1.2-1.5-1.8-1.5-1.4,0-4.8-4.2-4.8-5.8s1.5-2.7,3.3-4.4c2.5-2.3,3.2-3.4,2.9-4.5-.3-.8-.9-1.3-1.3-1.2-3.6,1.3-8.6,2.8-8.8,2.6-.1-.1-4.2-8.3-9-18.1-14.5-29.5-28.6-57.8-30.6-61.3-4.9-8.6-14.7-28.9-14.2-29.4.3-.3,1.8,0,3.3.6,1.5.6,3.2,1,3.8.8,1.6-.6-.2-3.7-3.3-5.4-1.5-.9-3.5-2.2-4.5-3l-1.8-1.5,2.7-2.5c1.5-1.4,3.3-2.8,4-3.2,1.1-.6,1.1-.8,0-1.9-1-1-1.8-1.1-4.2-.5-1.6.4-3.1.4-3.3.1-.4-.7.6-12.9,2.5-29.2.8-7,1.8-16.4,2.3-20.8.4-4.4,1.1-11.1,1.5-15,1.6-16.1,3.7-40.5,4.3-50.3.9-15.2,1.5-20.7,2.1-21.8.4-.7,1.2-.7,3.5-.1,3.2.9,3.9,1.5,12.3,12.8,8.3,11.1,13.1,17.4,19.9,26.5,13,17.3,13.3,17.9,9.7,21.8-1.3,1.4-3,2.3-5.1,2.6-4.8.8-4.1,2.5,1.3,3.1,6,.7,7,1.5,5.9,4.9-1.7,5.3,1,5.6,4.6.5,2.4-3.3,2.8-3.6,4.4-2.9,3.5,1.3,7.4,3.7,15.3,9.5,4.4,3.2,10.5,7.5,13.5,9.6,9,6.3,16,12.3,16.4,14,.6,2.8,0,5.9-1.5,6.7-5.6,2.9-8.3,4.9-8.3,6.2s.5,1.4,2.3,1.4,4.3.4,6.8.8l4.5.8v8.1c0,4.5.2,8.5.5,9,.8,1.2,2.6,1.1,2.6-.2s.8-1.5,1.9-2c1.7-.8,5.4-7.1,5.4-9.3s.4-.7.9-.5c.5.2,3.2,1.1,5.9,1.9,2.7.9,6,2.2,7.2,2.9,1.2.8,2.5,1.2,2.8,1h0c2.2-1.4-.7-7.1-5.9-11.6-2.3-2-2.5-2.5-2-4.8.3-1.4,1.8-4.3,3.4-6.5,2-2.7,2.9-4.6,2.9-6.3s-.3-2.4-.7-2.4-.7-.5-.7-1.1c0-1.6-.9-1.4-3.9,1-1.5,1.2-3.9,2.3-5.4,2.6-1.5.3-3.5,1-4.4,1.6-1.7,1.1-1.8,1-4.9-2.4-1.7-1.9-3.5-4.4-4-5.5-.8-2-3.6-2.9-3.6-1.2s-.5.6-1.2.4c-.8-.3-1.3,0-1.5,1-.2.8-.5,1.5-.7,1.5-.4,0-10.6-7.3-18.1-12.8-2.4-1.8-6.9-5.1-10-7.3-3.1-2.2-6.2-4.9-6.9-5.9-.7-1.1-2.3-2.4-3.7-2.9-3-1.2-3-2.1-.2-5,1.5-1.6,2.1-2.7,1.7-3.6-.5-1.3-2.7-1.3-8.1,0-1.2.3-1.8,0-2.1-.9-.3-.7-1.7-2.5-3.1-3.9-3.4-3.4-9.3-10.9-12.9-16.4-1.6-2.4-3.4-5-4-5.8-6.1-7.5-11.4-14.4-16.1-21l-5.6-7.9,2.2-.4c1.2-.2,2.2-.6,2.2-.8,0-1.1-2.3-4-6.3-8l-4.7-4.6,2.7-4.2c1.5-2.3,3.1-4.5,3.7-4.8,1.4-.8,1.3-1.5-.4-2.5-1.1-.7-2.1-.5-5.1.9-2.4,1.1-3.9,1.5-4.2,1-.7-1.1-2.4-16.2-2.9-25.4-.2-4.2-.7-9.6-1.1-12-.4-2.4-.7-5.6-.7-7.1,0-2.4.2-2.7,1.6-2.7.9,0,3,.5,4.6,1.1,1.6.6,3.3,1.1,3.8,1.1,1.5,0,1.1-3.5-.4-4-.7-.2-2.1-1.3-3.1-2.3l-1.7-1.9,3.1-2.6c1.8-1.5,3.1-3.2,3.1-4,0-1.4-.3-1.4-4-1l-4,.5-1.4-5c-1.8-6.4-7-28.5-9.6-41.1-2.3-10.9-2.8-12.6-3.7-12-.4.2-.7,0-.7-.7,0-1.8,2.8-2.8,6.3-2.4,1.9.2,3.2.1,3.3-.3,0-.4.1-1.1.2-1.5,0-.4-1.1-1.4-2.4-2-1.4-.7-2.6-1.6-2.8-2.1-.1-.5,1.4-1.9,3.4-3.3,6.1-4,4.7-5.8-2.9-3.5l-4.7,1.5-1.5-1.7c-.8-.9-1.9-2.4-2.6-3.2-.6-.9-1.9-1.8-2.8-2.1-1.8-.5-1.9-.2-.4,4.6.6,1.9-.7,2.2-2.5.6-.6-.6-3.8-2-7-3.2-10.4-3.9-24.7-10.2-25-10.9-.1-.4.1-.9.5-1.2.9-.5,1-3.8.2-4.3-.3-.2-2.5.3-4.8,1.1l-4.3,1.4-2.6-2.4c-1.4-1.3-2.8-2.7-3.1-3.1-.9-1.2-2.1.4-2.1,2.9s-.4,2.7-2,3.3c-9,3.6-9.8,6.3-2.3,7.5,1.6.3,3.1,1,3.4,1.6.2.6-.6,3.7-1.9,6.9-1.3,3.2-2.3,6.2-2.3,6.7,0,1.6-7.6,16.2-8.5,16.4-.5.2-1.7-1-2.8-2.6-1.4-2.2-2.3-2.8-3.4-2.5-1.2.3-1.4.9-1.3,3.4.2,3.8-.2,4.5-2.9,5-1.2.2-3.3,1.4-4.6,2.6-2.8,2.6-2.3,3.4,3.1,4.1,4.5.6,4.9.9,5.9,4.7.5,1.7,1.3,3.3,1.7,3.4.4.2,2-1,3.4-2.5l2.6-2.7,4.1.9c2.7.6,7.3,2.7,13,6,4.9,2.8,9.1,5.1,9.4,5.1.6,0,11.8,6.9,14.8,9.1,1.2.9,3.8,2.4,5.8,3.3,2,.9,4.6,2.4,5.8,3.3,3.4,2.5,17.9,11.3,18.7,11.3,1.7,0,.3,1.5-2.6,2.8-4.8,2.1-4.3,4.5,1.2,5.5,1.4.3,3.2.9,4,1.5,1.2.9,1.3,1.4.6,4.2-1.1,4.9,0,6.3,2.8,3.8,1.1-1,1.4-1,1.6-.2.2.6,1,8.2,1.9,17.1,2.4,24.7,2.4,24.4,1.4,24.4-1.5,0-4.7-2.9-6.3-5.7-.9-1.6-2.1-2.7-2.9-2.7-1.2,0-1.4.7-1.4,6.6,0,3.6-.3,7-.6,7.4-.3.5-2,1.1-3.8,1.3-3.7.6-7.6,3.4-7.6,5.5s.5,1.4,1.7,1.4c1.9,0,8.5,2.1,9.5,3,.4.3-.5,1.8-1.9,3.4-1.4,1.5-6.2,6.8-10.8,11.7-8.2,8.9-11.3,11.3-16.2,12.2-2.4.4-2.8.3-5.3-2.8-1.5-1.8-3.5-3.4-4.5-3.6-1.7-.3-1.8-.2-1.6,4.1l.2,4.4-3.9,1.5c-4.8,1.9-6.2,3.8-3.4,4.8,1.1.4,2.4.7,3,.7,1.1,0,1.4,1.2.4,1.8-1.4.9-37.1,8.5-44.8,9.5-2.1.3-3.5.2-3.5-.2s.3-.8.6-1c.3-.1,1.3-1.3,2.2-2.6,1.2-1.6,1.5-2.9,1.2-4.2-.5-2.2-.9-2.2-4.5-.7-1.5.6-4,1.6-5.6,2.1-1.6.5-3.5,1.2-4.1,1.4-.9.4-1.9-.5-3.9-3.7-3.2-5-2.5-4.3-4.9-4.9l-2-.5v6.5c0,7.3,0,7.4-5.3,8.9-3.8,1.1-6,2.9-5.4,4.5.2.5,2.3,1.6,4.7,2.4,2.4.8,4.6,1.7,5.1,2,.5.3,1.2,2.6,1.8,5,.9,4.3,3.7,8.7,5.5,8.7s1-1.1,1.2-2.5c.2-1.4,1.3-3.9,2.4-5.5l2-3.1,5.1.4c2.8.2,5.9.6,6.8.9,1.5.5,1.6.4,1.2-1.9-.3-1.3-1.3-3.4-2.2-4.6-2.5-3-4.1-2.4,21.7-7.8,5.8-1.2,13.2-2.8,16.4-3.6,3.2-.8,7.3-1.5,9.1-1.6l3.3-.2.2,3.1c.1,1.7.6,3.1,1,3.1s2.1-1.5,3.8-3.4l3.1-3.4,4,.9c6.1,1.4,6.1,1.4,6.4-.6.2-1.4-.3-2.1-2-3.1-3.6-2-3.5-3.1.9-8.1,5.8-6.6,23.2-24.9,23.9-25.2.7-.3,1.4,1.8,1.8,5.4.1,1.5.6,2.9,1.1,3,1.2.4,5-2.5,5.6-4.2.2-.8.8-1.4,1.2-1.4s.6,2,.3,5.7c-.2,3.1-.7,11.4-1.1,18.5-.4,7.1-1,15.8-1.4,19.3-.4,3.6-1.4,13.7-2.2,22.5-2.6,28.1-5.9,58.2-6.6,61.4-.4,1.7-.7,3.9-.7,4.9,0,2.9-1.4,2.9-4,0-2.4-2.7-2.5-2.8-4-1.4-1.1,1-1.5,2.3-1.5,4.4s-.3,3.3-2.7,4.9c-1.5,1-3.6,2.1-4.7,2.3-3.2.7-2.4,1.8,2.4,3.1l4.4,1.2v5.4c0,4.3.2,5.5,1.2,5.8.8.3,1.7-.2,2.5-1.3.8-1,1.4-1.3,1.4-.8,0,1.4-3.4,14.5-6,23.1-1.2,4-2.5,8.8-2.8,10.6-.3,1.8-1.3,5.7-2.2,8.7-.9,3-1.9,6.6-2.2,7.9-.8,3.3-2.3,6.7-2.9,6.7s-1.4-.9-2.5-2.1c-1.1-1.2-2.8-2.3-3.8-2.5-1.7-.3-1.8-.2-1.8,4.3v4.6l-3.1.8c-6,1.5-6.7,1.9-7,3.5-.2,1.3.2,1.6,2.6,2,7.6,1.3,9.7,3.3,9.7,9.4s.5,2.9,1,3.3c1.3,1.1,1.9,5,1.1,7.4-.3,1-.8,3.8-1,6.2-.2,2.4-.9,8.1-1.6,12.8-.7,4.6-1.5,10.8-1.8,13.8-.3,3-1.3,9.8-2.1,15-.8,5.2-1.8,12.8-2.2,16.8-.4,4-1,9.5-1.4,12.3-.4,2.8-1.2,9.5-1.8,15-.6,5.4-1.6,12.6-2.2,16-.6,3.4-1.2,8-1.5,10.3-.6,5.3-1.2,6.1-3.1,5.1-.8-.4-2.2-.8-3-.8-1.2,0-1.5.6-1.7,3.1-.2,3-.4,3.2-4.6,5.4-3.4,1.8-4.4,2.7-4.4,4s.6,1.8,1.8,2.2c1,.3,3.3,1,5.1,1.5l3.3.9v4.7c0,6,1,6.1,4.7.7ZM1001.1,756.1c-.2.9.1,1.8.7,2,1.3.5,1.3,1.9,0,1.9s-1.6,1.1-2.3,2.4c-1.1,2.1-1.3,2.2-1.7.9-.3-.8-.2-2.1.2-2.8.8-1.5-1-4.1-2.8-4.1s-1-.3-1-.7.9-.7,1.9-.7c1.7,0,1.9-.2,1.5-2.2-.2-1.2-.1-2.2.2-2.2,1.3,0,3.8,4,3.5,5.6ZM1011.5,667c0,1.6.4,2.7,1.1,3,1.5.6,1.4,1.7-.2,1.7s-1.9.7-2.7,1.5c-1.9,2.1-2.4,1.8-2.7-1.2-.2-2.2-.6-2.8-2.1-3.1l-1.8-.4,1.6-.9c.9-.5,2.1-.9,2.8-.9s1.4-.5,1.6-1.1c.8-2.2,2.5-1.2,2.5,1.5ZM1074.7,497.9c1.5,1.6,3.3,3.7,4,4.5l1.2,1.5,5-1.7c8-2.7,8.3-2.8,8.3-1.6s-.5,1.5-1.1,2c-1.5,1.2-4,6.1-4,7.7s.8,2.3,1.8,3.6c1,1.3,1.8,2.7,1.8,3.1s.5,1.1,1.1,1.6c3.2,2.7-.3,2.6-6-.1-3.8-1.8-4.7-1.5-7.1,2.3-2.6,4.2-3.6,3.8-3.1-1.2.3-3.7.2-4.3-1.2-5.4-1.5-1.2-2.6-1.6-6.6-2.4-2-.5-2-.5-.8-1.9.7-.8,2.2-1.6,3.4-1.9,2.8-.6,3.1-1.6,2.1-6-1.8-7.6-1.9-7.5,1.2-4.2ZM1019.7,461.5c-.6,1-3.8.4-3.8-.6s1-.6,2.2-.6c2.4,0,2.4,0,1.6,1.2ZM948.9,253.2l-1.4,2.5-1.6-3.2c-1.7-3.5-1.4-4.4,1.8-4.6,2.7-.2,3.1,1.7,1.1,5.3ZM895.7,234.3c-1.1-3.8-1.1-5.6.3-6.7.9-.8,1.4-.7,2.5.3,1.9,1.7,1.7,5.4-.3,7.5l-1.6,1.6-.8-2.8ZM877.2,276.5c-.1-.2-.8-1.6-1.5-3.1-1.1-2.3-1.1-2.9-.2-3.7.6-.6,1.8-.9,2.8-.7,1.4.3,1.8.8,1.8,2.4,0,1.9-2.3,5.9-2.9,5.1ZM955.7,311.9c-.2,1-.8,1.8-1.3,1.8-.5,0-3.5-1.6-6.7-3.6-3.2-2-8.6-5.1-12-6.8-3.4-1.8-7.5-4.2-9-5.5-1.6-1.2-3.1-2.3-3.5-2.3s-5.2-2.7-10.7-6.1c-5.5-3.3-11.9-7.2-14.3-8.5-5-2.8-13.2-8.7-13.8-10.1-.2-.5.9-2.4,2.5-4.2,3.1-3.5,3.2-5.5.3-5.5s-1.7-.2-1.7-.4,1.7-4.5,3.8-9.4c3.7-8.9,3.8-9,5.8-8.6,1.2.2,2.1.1,2.1-.3s.9-1.8,1.9-3c1.9-2.2,2-2.2,6.7-1.8,2.7.3,4.6.2,4.3-.1-.3-.3-.2-1,.3-1.5.6-.7.4-1.1-1-1.6-1.9-.7-3.9-2.8-3.3-3.4.6-.6,8.5,2.4,20.6,7.7,5.6,2.5,11.3,5,12.6,5.5,1.3.6,2.4,1.3,2.4,1.6s-1.3,1.4-2.9,2.4c-4.2,2.6-3.8,4.4,1.5,5.4,4,.8,4,.8,4.8,4,1,4,2.8,5.4,4.4,3.4.6-.8,1.2-1.2,1.4-1,.2.2,1.4,4.8,2.6,10.1,1.2,5.4,3.2,13.4,4.4,17.8,1.2,4.4,2.5,10.2,2.9,12.8.4,2.6,1,5.4,1.4,6.2,1.1,2.6,2.1,7.7,1.5,8-.3.2-1.4-.8-2.5-2.2-2.3-3-4.6-3.3-5.2-.7ZM959,323.5c0-.7-.8-1-2.2-1-2.7,0-2.9-1.2-.4-2.3,1-.5,1.8-1.4,1.8-2.2,0-2,1.9-1.6,3.6.8.8,1.2,1.5,2.2,1.4,2.4,0,.1-.2,1-.4,1.8-.5,2.6-3.9,3.1-3.9.6ZM855.2,445.8c1,.9,1.8,1.9,1.8,2.3,0,.6-2.6.2-5.8-1-2.2-.8-3.7.8-3.7,3.8s-1.9,4.2-2.9,3.1c-.4-.4-.8-2-.9-3.6-.1-2.1-.8-3.4-2.3-4.9l-2.1-2,1.9-.5c1.1-.3,2.4-.3,3,0,1.4.5,1.4-.5,0-5-.6-1.9-1-3.7-.8-3.8.1-.1,1.2,1.2,2.4,2.9,2.4,3.6,4.7,4,8,1.4,1.1-.8,2.2-1.5,2.5-1.5,1.2,0-.2,2-1.9,2.8-2.1,1-1.8,3.7.7,6.1ZM919.6,423.4c1.7,1.8,1.8,2.1,1.1,2.9-.3.3-.5,1.1-.6,1.8-.1,1.7-3.4,6.1-4.2,5.6-.3-.2-.6-1.6-.6-3.1s-.4-3.1-.8-3.5c-.6-.6-.3-1.4,1.4-3l2.2-2.2,1.6,1.6ZM958.2,400c-.4-.4-.8-2.6-.9-5-.1-2.4-.3-4.8-.3-5.3,0-.6-.6-.9-1.6-.6-1.8.5-6.8-1.4-6.2-2.4.2-.4,1.6-.9,3.1-1.1,4.6-.8,4.9-1.2,4.7-6.6-.1-2.6,0-4.8.4-4.8.8,0,5.6,5.9,5.6,6.9,0,.9,4,.5,5.3-.5,1.6-1.3,1.8-.1.5,2.3-1.5,2.8-1.2,4.8.7,4.8s1.4.6,1.6,2.7l.2,2.7-4.5-.5c-3.9-.4-4.4-.3-4,.7.6,1.5-3.7,7.5-4.7,6.6ZM944.6,547.6c.2-1.9-.1-2.5-1.5-3.2l-1.7-.9,1.9-1.2c1.3-.9,1.9-1.9,1.9-3.4,0-2.6,1.2-2.7,2.3-.3.5,1,1.3,1.8,1.9,1.8s.9.4.6,1.1c-.2.6,0,1.4.5,1.9.5.4,1.5,1.2,2.4,1.8,1.2.9,1.3,1,.2,1.1-.7,0-2.1-.3-3.1-.7-1.7-.6-2-.5-3.1,1.8-1.5,3.2-2.7,3.3-2.3.2ZM927.2,628c-.3-2.3-.8-3.6-1.5-3.6-1.4,0-1.3-3.6,0-4.1.6-.2,1.1-1.3,1.1-2.5,0-2.8,1-2.7,3.2.3,1.2,1.5,1.7,2.9,1.4,3.9-.2.8,0,1.7.4,2,1,.6,1,2.4,0,3-.4.3-1.3,1.6-1.9,3-1.3,3.2-2.3,2.6-2.9-2ZM907.4,781.9c-.5-1.5-1.3-2.2-2.8-2.4-3-.4-2.9-1.9,0-3.1,1.5-.6,2.6-1.6,2.6-2.3s.4-1.1,1.3-.7c.7.3,2.2.5,3.3.4,2.3-.1,2.5.2.7,1.5-2.3,1.7-2.5,2.7-.7,4.2.9.8,1.5,1.5,1.3,1.6-.2.1-1.4.8-2.7,1.5l-2.3,1.3-.7-2.1Z"/>
</svg>