<?xml version="1.0" encoding="UTF-8"?>
<svg id="Layer_1" xmlns="http://www.w3.org/2000/svg" version="1.1" viewBox="0 0 1920 1080">
  <!-- Generator: Adobe Illustrator 30.3.0, SVG Export Plug-In . SVG Version: 2.1.3 Build 182)  -->
  <defs>
    <style>
      .st0 {
        fill: #dbb57f;
      }

      .st1 {
        fill: #ff7f00;
      }
    </style>
  </defs>
  <g>
    <path class="st0" d="M983,551.8c.5-3,2.4-7,4.5-9.4,3.2-3.7,3.5-4.5,2.2-7.5-1.8-4-3.7-4.3-3.7-.6s-3.5,10.2-5.1,10.2-1.3-1.1-1.3-2.4-.5-2.9-1.3-3.2c-1.8-1.1-1.6,7,0,14.1,1.8,6.7,3.4,6.4,4.5-1l.2-.2Z"/>
    <path class="st0" d="M997.3,523.4c.3-1.3-.3-2.1-1.6-2.1s-2.1,1.1-2.1,2.7c0,3,3,2.7,3.7-.5v-.2Z"/>
    <path class="st0" d="M973.9,568.9c.8,4.3,2.4,4.5,4.3.3,1.9-4.3,1.9-9.6,0-9.6s-2.6-1.8-3.8-3.8c-1.3-2.1-2.9-3.8-3.7-3.8-1.6,0-1.3,2.9,1.3,9.6.8,2.1,1.8,5.4,2.1,7.4h-.2Z"/>
    <path class="st0" d="M1017.4,324.2c-1.1-1.8-5.8-1.9-5.8-.2s1,1.8,2.2,2.4c2.6,1.4,5,0,3.5-2.2h0Z"/>
    <path class="st0" d="M927.7,84.9c4.8,0,7-1.8,3.8-3-3.8-1.4-8.2-.8-8.2,1.1s1.3,1.9,4.3,1.9h0Z"/>
    <path class="st0" d="M920.8,140.6c-2.7,1.8-5.9,3.2-6.9,3.2s-2.6.8-3.4,1.9c-1.3,1.6-1.3,2.2,0,3.8,2.1,2.6,4.2,2.4,8-.6,1.8-1.4,4.2-2.6,5.3-2.6,2.6,0,4.8-4.3,3.8-6.9q-1-2.6-6.9,1.1h0Z"/>
    <path class="st0" d="M900.9,135.6c-2.4,1-2.4,2.1-.3,4,2.4,2.4,6.1,1.9,6.1-1s-2.9-4.3-5.8-3.2v.2Z"/>
    <path class="st0" d="M909.6,92.9c-3,1.4-6.6,12.5-5,15,.8,1.4,5.9.8,11.8-1.4,3.2-1.1,6.7-7.4,6.7-11.4s-6.2-5.9-13.6-2.4v.2ZM913.7,101.5c-1.1,0-1.9-.6-1.9-1.3s.5-1.3,1.3-1.3,1.6.6,1.9,1.3c.5.6,0,1.3-1.1,1.3h-.2Z"/>
    <path class="st0" d="M922.1,150.2c-4,0-5.8,1.6-4.6,4.5,1,2.4,6.4,2.4,8.5,0,2.2-2.6.6-4.5-3.8-4.5h0Z"/>
    <path class="st0" d="M913.6,132.9c1.8-2.6,1.8-3.7.6-5.1-2.2-2.6-5-2.2-5,.6s-.5,2.9-1.3,3.2c-.6.5-1,1.6-.5,2.6,1.1,2.9,3.7,2.2,6.1-1.4v.2Z"/>
    <path class="st0" d="M900.8,95.1c1.6-4.8,9.9-11.4,14.2-11.5,1.4,0,3.7-.8,5-1.8,1.9-1.4,2.1-1.9.6-2.9-5-3-18.1,0-23,5.3-3.4,3.5-4.6,11.4-2.4,14.1s4,1.8,5.6-3.2Z"/>
    <path class="st0" d="M937.7,116.2c3.7-1.4,8.2-14.2,4.6-13.1-1,.3-1.9,2.1-2.1,3.8s-1.3,4-2.2,4.8c-1,.8-1.9,2.2-1.9,3.2s.8,1.4,1.6,1.1v.2Z"/>
    <path class="st0" d="M944.9,122.8c1.9-1.1,5.8-8.5,4.8-9.3-.3-.3,0-2.2.5-4.3.6-2.2.6-3.7,0-3.7-1.3,0-4.3,5-4.6,7.7,0,1-.6,3.8-1.1,6.2-.6,3.2-.5,4.2.5,3.4h0Z"/>
    <path class="st0" d="M915,198.8c2.1,2.4,6.9,3.4,8.6,1.8.5-.5,0-2.1-.6-3.8-1-2.2-2.4-3-5-3-4.6,0-5.8,2.1-3,5.3v-.2Z"/>
    <path class="st0" d="M927.5,41.5c5.1,3.2,7.4,3.2,7.4,0s-2.2-3.5-6.6-5.8c-3.7-1.9-6.9-3.2-7.2-2.9-1.1,1.1,2.6,6.1,6.4,8.5v.2Z"/>
    <path class="st0" d="M1046.9,416.7h0Z"/>
    <path class="st0" d="M952.5,189.2c.8-1.8,1-3.2.5-3.2-1.6,0-4,2.9-4,4.8,0,2.7,2.1,1.9,3.7-1.6h-.2Z"/>
    <path class="st0" d="M980.9,232.6c0,1.3.3,2.1.6,1.8.5-.5.5-1.6,0-2.4-.5-1-.8-.6-.8.8l.2-.2Z"/>
    <path class="st0" d="M955.3,491.8c2.1,0,2.4.6,1.8,2.6-.5,1.4-.3,2.6.3,2.6s1.6-1.6,1.9-3.5c.5-1.9,1.1-4.8,1.6-6.4,1.1-3.7-2.2-3.8-5.9-.3-3.4,3.4-3.2,5.1,0,5.1h.3Z"/>
    <path class="st0" d="M960.5,478.6c0-.8,1.1-3,2.6-4.8,3.4-4.3,3.4-6.9,0-5.1-1.4.8-2.6,2.4-2.6,3.7s-.8,3-1.9,4c-1,.8-1.9,2.1-1.9,2.7,0,1.8,3.8,1.3,3.8-.5Z"/>
    <path class="st0" d="M942.5,399.1c1,2.9,2.2,5.8,2.9,6.7,2.1,2.7,3.8,1.9,2.9-1.3-.5-1.6-1-6.4-1.1-10.6-.2-5.9-.6-7.7-2.1-7.7s-2.4-2.1-3-5.8c-.6-3.2-1.8-6.1-2.2-6.6-.6-.5-1.4-3-1.8-5.8-.8-5.8-3.2-12-4.5-12s-1.1,2.2-1.3,4.8c-.3,3.8-1,4.8-3.2,5.3l-2.9.3,3,4.8c4.5,7,11.7,21.8,13.6,27.7h-.3Z"/>
    <path class="st0" d="M957.1,358.8c1,0,2.2-.6,2.7-1.3s-.3-1.3-1.9-1.3-2.6.6-2.6,1.3.8,1.3,1.8,1.3Z"/>
    <path class="st0" d="M1121.3,460.2c.5.5,1.9.8,3.4.8,3.4,0,2.1-3-1.4-3.5-2.7-.3-3.7,1-1.9,2.7Z"/>
    <path class="st0" d="M872.1,666.5c0-4.5-4.5-4.2-12,.8-5.6,3.7-7.5,6.2-4.8,6.2s2.9,4.2,1.4,5.6c-.8.8-1.3,2.2-1.3,3.4,0,1.8.3,1.8,1.8-.2,1-1.1,4.5-3.2,7.8-4.6,8.3-3.2,8.8-5.3,1.3-5.3s-5.6-.5-5.1-1.3c.5-.6,3-1.3,5.8-1.3,4.5,0,5-.3,5-3.2l.2-.2Z"/>
    <path class="st0" d="M924.6,711.6c-2.7-.8-4.5.8-3.2,2.9,1,1.4,1.1,1.4,3.7.5,2.7-1.1,2.6-2.7-.5-3.4Z"/>
    <path class="st0" d="M919.3,788.9c2.6-1.6.8-7-3.2-9.8-4.2-2.7-6.2-1.1-4.5,3.4.6,1.8,1.6,4.2,1.9,5.3.8,2.4,2.9,2.9,5.8,1.1Z"/>
    <path class="st0" d="M917.7,770.6c-1.8-2.9-6.9-4.5-8.8-2.7-.8.8,0,2.1,2.9,3.8,5.1,3.2,8.2,2.6,5.9-1.1Z"/>
    <path class="st0" d="M962.5,861.5c1.3,0,8.2-7.7,8.2-9.3s-.8-.8-1.8-.8-2.7-1.1-4-2.6c-1.6-1.8-3.7-2.6-6.2-2.2-4.8.5-4.5,2.6.6,4.3,4.6,1.6,3.7,3.2-2.1,3.2s-6.6,5.4.8,6.7c1.8.3,3.8.6,4.6.8l-.2-.2Z"/>
    <path class="st0" d="M907.3,786.5c1.9-1.1,1.9-1.3,0-2.9-1.8-1.4-2.2-1.4-3.4.5-.6,1.3-2.4,2.2-3.7,2.2-3.8,0-2.9,3.7,1.6,6.4,2.2,1.4,4.6,2.6,5,2.6,2.1,0,2.4-2.9.5-5.1s-1.9-2.4,0-3.5v-.2Z"/>
    <path class="st0" d="M964.9,814l-3-2.4c-1.6-1.3-4.5-2.4-6.2-2.4s-5.1-1.4-7.5-3.2c-2.6-1.9-5-2.9-5.9-2.2-.8.5-2.4,1-3.4,1s-2.1.8-2.2,1.6c-.5,1.6,2.9,3.8,9.3,6.4h0c2.1.8,7.4,1.4,11.5,1.4h7.7l-.2-.2Z"/>
    <path class="st0" d="M958.5,842.2c5.4,1.8,5.8,1.8,5.8-.3s-.8-1.9-1.9-1.9c-3,0-2.2-3.2,1.3-5.9,3.8-2.9,4.2-5.1.6-6.2-3-1-3.2-2.2-.6-4.5,4.2-3.5,2.2-5-5.8-4.2-5.3.5-7.7.3-7.7-.8s-.8-1.4-1.9-1.4-1.9.8-1.9,1.8c0,2.2,9,11,11.2,11s1.6.6,1.6,1.3-1.8,1.3-3.8,1.3-4.2.6-4.5,1.3c-1.3,1.9,3.5,7.4,7.7,8.8v-.2Z"/>
    <path class="st0" d="M968,866.6c-1.3,2.2-2.7,4-3,4-1.6,0-5.8-5.3-5.1-6.4.5-.6.2-1.3-.5-1.3-1.9,0-3,5.1-1.6,6.9,1,1.3,1,2.1-.5,3.4-2.4,1.9-2.6,4.6-.3,5.6,4.8,2.1,8,0,11.5-6.7,3.8-7.5,3.5-11.8-.5-5.4h0Z"/>
    <path class="st0" d="M923.5,690.3c2.7,1.8,5,1.4,5-.6s-1.1-2.4-2.6-3.2c-2.1-1.1-2.7-1-3.4.8-.5,1.1,0,2.6,1,3.2v-.2Z"/>
    <path class="st0" d="M913.1,759.3c4,0,4.8-1.1,2.4-3.4-1.8-1.8-6.2-.6-6.2,1.6s1.4,1.8,3.8,1.8Z"/>
    <path class="st0" d="M917.3,878.3c-2.9,0-4,2.4-2.1,4.3s3.8,1,5.4-.8c1.8-2.2.6-3.4-3.2-3.4l-.2-.2Z"/>
    <path class="st0" d="M872.3,651.8c-.6,0-4.8,1.4-9.3,3.4-8.5,3.4-11.4,5.9-11.4,9.8s1.6,2.7,5-.8c2.6-2.7,8.2-5.6,14.6-7.7,2.2-.6,3.2-4.6,1.1-4.6h0Z"/>
    <path class="st0" d="M913.6,746.6c.3-.6,0-1.8-1.1-2.6-1.9-1.6-4,.3-2.7,2.4,1,1.6,2.9,1.6,3.7,0l.2.2Z"/>
    <path class="st0" d="M924.3,698.3c.6-1.8-4.3-4.6-6.1-3.5-.8.5-.8,1.8,0,3.4,1.4,2.7,5.1,2.9,5.9.3l.2-.2Z"/>
    <path class="st0" d="M920.8,725.4c0-2.2-2.1-3.7-3.8-2.6-1,.6-.8,1.4,0,2.6,1.9,2.4,3.7,2.2,3.7,0h.2Z"/>
    <path class="st0" d="M916.1,792.6c-2.6,0-3.7,3.5-1.8,5.8,1.9,2.2,7.2,2.6,8.5.3,1-1.6-3.8-6.2-6.7-6.2v.2Z"/>
    <path class="st0" d="M847.8,647.6c0,2.7,1.8,1.9,7.4-3.4,3.5-3.4,7.2-5.6,11.5-6.6,8.2-1.9,9.9-3.7,3.7-3.7s-22.4,9.6-22.4,13.8l-.2-.2Z"/>
    <path class="st0" d="M862.1,685.5c-5.8,3.5-6.6,5.3-3,6.2,1.3.3,3,.3,4,0s2.2-.5,2.9-.5.8-.6.3-1.4,0-2.2,1.4-3.2c1.8-1.3,1.9-2.1,1-3.2-1-1-2.9-.5-6.7,1.9l.2.2Z"/>
    <path class="st0" d="M856.6,518.3c-.6.6-1,2.2-.5,3.5.6,1.4,1.3,1.8,2.1,1s1-2.2.5-3.5c-.6-1.4-1.3-1.8-2.1-1Z"/>
    <path class="st0" d="M856,627.6c.3-.6,4-2.4,8-4,8.6-3.4,10.1-4.5,7.7-5.4-2.1-.8-20.2,7.7-20.2,9.4s3.5,1.4,4.3,0h.2Z"/>
    <path class="st0" d="M926.4,655.6c.3,0,.8-.8,1.3-1.9s.2-1.9-.5-1.9-1.3.8-1.3,1.9.2,1.9.5,1.9Z"/>
    <path class="st0" d="M936.8,696.6c1.1,0,1.9-.6,1.6-1.4s-1-1.4-1.6-1.4-1.4.6-1.6,1.4c-.3.8.5,1.4,1.6,1.4Z"/>
    <path class="st0" d="M865.7,696.6c-2.7,0-4.3,1.8-3,3,1.4,1.4,4,.8,4.6-1.1.5-1.3,0-1.9-1.8-1.9h.2Z"/>
    <path class="st0" d="M859.8,650.5c2.9,0,8.5-3.2,8.5-4.8s-2.1-2.1-3.2-.3c-.5.6-2.2,1.3-4,1.3-2.7,0-12,7.4-12,9.6s1.8.5,5.3-2.6c2.1-1.8,4.5-3.2,5.4-3.2Z"/>
    <path class="st0" d="M869.1,626.2c-2.4,0-5.1.8-5.9,1.9s-2.6,1.9-3.8,1.9c-2.2,0-6.4,3.2-6.4,5s8,0,10.9-1.9c1.4-1,3.5-1.8,4.8-1.8s2.9-1.1,3.7-2.6c1.3-2.4,1-2.6-3-2.6h-.2Z"/>
    <path class="st0" d="M1029.6,780.9c0-.6-.8-1.3-1.9-1.3-1.9,0-2.6,1.4-1.1,2.9s3,0,3-1.8v.2Z"/>
    <path class="st0" d="M1215.5,479.1c-2.4,2.4-6.2-3.5-6.2-9.8s-1-6.9-3.5-10.1c-3.2-4-3.7-4.2-6.7-2.9-3,1.4-3.7,1.1-7-2.6-2.1-2.2-4.3-4.2-5-4.2s-7,5.6-13.9,12.5c-12.3,12.2-21,18.4-22.9,16.5s-1.3-8-1.8-16.5c-.6-11.8-.5-16.3,1-18.9,1.1-2.2,1.6-7.5,1.6-16s.3-13.9,2.4-19c2.6-6.4,5.9-19,10.1-38.4,1.3-5.6,2.7-11.4,3.5-12.6,1.1-2.1,7.5-26.6,11.2-41.6,11-47,16.6-85.6,15.8-107.5-1.3-31.4-2.4-39-7.5-55.2-3.5-10.9-11.7-29-13.6-30.1-.6-.3-1-1.8-1-3s-.6-2.9-1.6-3.4c-.8-.6-2.4-2.7-3.5-4.8-2.1-4.2-16.2-12-21.4-12.2-1.6,0-4.5-1-6.2-2.2-4.6-3-16.8-2.6-26.1.8-5.6,2.1-8.6,4.5-14.7,11.2-7.5,8.6-10.6,13-14.1,20.5-1,2.2-3.7,5.4-5.8,6.9-2.1,1.6-5.1,5.4-6.7,8.6-3.2,6.7-14.7,19.4-17.4,19.4s-3.7,1.4-6.1,3.2c-2.2,1.8-4.6,3.2-5.1,3.2s-2.7,1-5,1.9c-5.9,2.9-9.9,1-13.4-6.4-3.4-6.9-4.6-18.6-2.9-25,1.1-3.8.8-5.4-2.2-10.7-2.1-3.8-5-7.2-7.4-8.3-5.8-2.9-8.3-7.8-7.2-13.8.5-2.7,1.4-5.1,2.2-5.6,1.6-1.1-.8-8.5-4.2-11.8-1.3-1.4-2.6-4-2.9-5.8-.3-2.2-1.4-3.4-4.5-4.2-5.6-1.4-6.7-3.2-7.5-12-.5-5.4-1.4-8.2-3.2-9.3-1.3-1-2.4-2.6-2.4-3.7,0-2.4-7.8-11.7-12.5-14.7-1.9-1.3-5.4-2.2-7.8-2.2-5.3,0-9.1-3.2-9.1-7.5s-11-15-15.5-15.8c-4.6-.6-11.4,1.1-15.5,4.2l-3.7,2.7-7.7-4.2c-6.7-3.5-8.5-4-13.6-3.2-3.2.5-7.2,1.8-9,2.9-2.4,1.6-3.7,1.8-5.6.5-1.3-.8-3.4-1.4-4.5-1.4-3,0-11.7,4.8-12.5,7-.5,1.1-1.6,1.9-2.6,1.9s-2.9,1.3-4.2,2.9-3.2,3.4-4.3,3.7c-3.2,1.1-9,10.6-10.4,16.6-2.2,9.4-2.2,24,0,26.1,1.1,1.1,1.6,3,1.1,5-1.3,5.3.3,8.6,7.5,14.7,3.8,3.2,6.9,6.6,6.9,7.4s-1.9,2.4-4.3,3.5c-5.1,2.1-12.3,8-12.3,9.9s-1,2.4-2.2,3.8c-3.2,3.5-2.2,20.6,3,53.8,1,6.1,1.8,14.1,1.8,17.6s.6,6.4,1.3,6.4,1.6.8,2.1,1.9c.5,1.3-1.3,3.7-5.1,7-9.1,8-12.2,15.7-13.6,33.9-1.6,20.5-5,49.3-5.9,50.7-.3.6-1.8,6.7-3.2,13.6-2.1,10.6-4,17.6-7,27.2-.8,2.4-6.9-4.3-10.9-12.2-1.4-2.9-4-6.9-5.4-9-1.6-2.1-3.5-5.9-4.5-8.3s-2.2-5.1-2.9-6.1c-2.2-2.9-6.1-17.8-6.9-26.2-.5-5.3-.2-11,.8-14.7.8-3.4,2.1-8.2,2.7-10.6s1.8-7,2.6-10.2c1.3-5,1.1-6.7-1-12.2-1.3-3.5-4-8.6-5.9-11.4s-3.4-5.9-3.4-7.2c0-3.8,11-17.4,15-18.2,4.8-1,5.4-1.6,12-10.2,8.3-11,11.4-16.5,11.4-20.3s-.6-3.5-2.9-3.5-4.2,1-5.8,2.1c-4,2.7-4.6,1.6-1.4-2.4,1.4-1.8,2.6-4,2.6-5,0-1.8,4.2-8.3,10.7-16.6,1.9-2.6,6.1-6.2,9-8.2,9.9-6.4,14.2-17.1,11.2-28.6-1.6-6.2-3.4-8.2-6.2-6.6-2.2,1.1-2.9.6-5.4-4.3-1.6-3.2-3.4-5.8-4-5.8s-1.1-.8-1.1-1.8c0-4.5-12.2-13.8-15.4-11.7-2.9,1.8-5.3,34.9-3.2,44,.5,2.6.3,4-.5,4s-1.4-1.1-1.4-2.4c0-3-4-10.4-5.8-10.2-.6,0-2.6,2.1-4.2,4.5-2.6,4-2.7,5.4-2.1,18.2.6,10.4,1.4,15.4,3.7,20.5,2.6,5.8,2.7,7.5,1.8,13-2.6,13.8-7.7,21-7.7,11s-1.1-8.3-2.6-11.2c-1.4-2.9-2.6-6.1-2.6-6.9,0-2.6-2.1-3.2-7.2-2.2-3.7.6-5.4,2.1-8.3,6.7-2.2,3.5-3.4,6.7-3,8.2.3,1.3.2,2.2-.5,2.2-1.6,0-2.9-6.4-2.9-14.9s.5-7.4,3.7-10.4c5.9-5.4,9.3-14.7,10.7-29.9,1.1-10.4,1.1-14.1,0-15.2-2.7-2.7-7.5,3.7-13.1,17.3l-2.1,5-2.9-8.5c-1.6-4.6-2.6-9.6-2.1-11s4.5-5.8,9.1-9.9c4.6-4,9.9-10.1,12-13.3,3.7-5.9,7.2-16.2,5.9-17.3-.3-.3-3.5.2-7,1.3l-6.4,1.9-2.1-6.6c-1.4-4.5-3.5-7.7-6.4-10.1-2.4-1.9-4.6-3.5-5.1-3.5s-1.6,2.1-2.6,4.5-2.6,4.5-3.2,4.5c-1.9,0-9.1-3.7-11.8-6.1-1.9-1.8-2.6-1.6-5.9.3-3.7,2.2-6.6,6.6-6.6,10.1s1.4,5,3.2,9c3.5,8,3.2,8.3-5.8,5.6-3.7-1.1-5.4-2.6-6.4-5.3-.8-2.6-1.9-3.5-3.5-3.2-1.9.3-2.2,1.8-2.1,7.2,0,5.8,1,7.7,5.4,13.6,4.2,5.4,7.4,8,15,11.8,9.3,4.6,12,7.5,12,12.6s-1,1.4-4.5.5c-5.8-1.6-7-.6-6.9,4.3q.2,3.8.8.5c.3-1.9,1-3.5,1.6-3.5,2.4,0,9.1,6.9,10.9,11.2,2.1,5.1,2.4,13.1.6,13.1s3.4,9.8,6.2,11.8c2.6,1.8,4.6,13.3,2.7,14.6-.6.3-2.6-1.4-4.5-3.8-2.2-2.9-4.5-4.5-6.6-4.5-3,0-5.4,3.2-3.7,4.8.5.5,1.3.2,1.6-.6,1-2.9,7.8,2.4,10.6,8.3,1.4,3,2.6,7.7,2.6,10.2v4.8l-4.2-4.6c-2.2-2.6-4.8-5.6-5.8-7-1.6-2.4-1.6-2.2-.8.5,1.6,6.2-2.2,2.4-6.4-6.4-3.2-6.7-4.6-11.8-5.3-18.9-1-10.1-4.3-24.5-7-29.6-4.2-7.7-6.7-9.1-18.4-9.9-6.1-.5-11.5-.6-12.2-.2-1.9,1.3-2.9,14.7-1.4,20,.8,2.7,3,6.7,5.1,8.6l3.7,3.5-3.7-7.4c-4.2-8.2-4.8-15.8-1.8-19,2.7-2.7,4-2.6,9.4,1.4,6.9,5.1,9.6,8.8,12,15.5,2.9,8.5,3,8.6,1.6,8.8-.6,0-1.6,1.6-1.9,3.2-.8,3.4-4.3,3.4-10.6,0-2.9-1.4-3.5-1.6-3-.2.3,1,4.3,3.2,9.1,5,9.9,3.8,13.3,6.6,14.2,11.5.3,2.1,1.1,5.4,1.4,7.5.6,3.5.5,3.8-2.4,3.8s-3.5.6-4,1.3c-.5.8.8,1.3,2.9,1.3,4.5,0,6.7,1.8,10.4,8.2,3.5,6.2,2.6,7.8-3.2,5.3-2.6-1.1-5.6-1.9-7-1.9-4,0-9.8-3.5-10.7-6.6-.6-2.1,0-3.4,2.1-5.1,2.4-1.8,2.6-2.4,1-2.4-4.3,0-6.2,1.6-6.2,5.3s7.2,12.5,12.6,12.5,6.1.8,8.6,1.9c2.6,1.1,5.8,1.9,7.4,1.9,3.5,0,7.7,3.5,10.2,8.5,2.6,5,2.6,5.9.2,5.1-2.4-1-9.6,5.4-9.6,8.6s-1.1,3.7-2.4,5.1c-1.3,1.4-3.4,5.4-4.6,8.8-1.3,3.4-3.2,6.7-4.5,7.7-1.3,1-2.7,4-3,7-.5,3-1.1,7.8-1.6,10.6-.8,5.8,1.1,12,4.8,15.7,1.8,1.6,2.1,3.2,1.6,5.8-1.3,5.4-5.1,12.2-9.3,16.6-2.9,3-5.3,8.6-9.6,22.4-9.4,30.2-10.2,33-10.4,38.4,0,5.1,0,5.3,3.8,5.4,5.9.2,7.4,1.4,6.4,6.6-.3,2.4-.3,6.1,0,8.2.6,3,1.4,3.7,4.2,3.7,6.1,0,7.7-3.5,7-15.5l-.5-10.7,2.1,4.8c1.3,3,2.9,4.8,4.5,4.8s2.4.6,2.4,1.6.8.8,2.1-.5c1.8-1.8,1.9-3.2.5-11.5-.8-5.1-1.6-16.6-1.8-25.4v-16l5.3-11c3-6.1,6.1-11.5,6.7-12,2.2-1.4,4.8,1.8,8.3,10.7,3.4,8.5,4.5,17,6.4,44.3.8,12.5,4.8,30.7,8.3,37.8,4.5,9,9.4,17.3,12.2,20.5,1.6,1.8,5.3,6.7,8.2,11,9.9,14.4,18.1,17.3,28.5,9.9,2.9-2.1,8-5.4,11.2-7.5,3.2-2.1,8.6-6.6,12.2-9.9,3.4-3.4,6.7-6.1,7.2-6.1,1.3,0,0,5.1-8.2,35.5-5.4,20.3-12.3,38.2-21,54.9-1.9,3.7-5.3,10.1-7.5,14.2-2.2,4.3-6.6,11.4-9.6,15.7-5.3,7.4-20.8,29.4-24.8,35.2-3,4.3-.8,9.9,4.8,11.4,3.7,1,5.6.6,10.7-1.9,6.6-3.4,27.8-22.2,28.6-25.4.6-2.4,5.3-7.7,6.9-7.7,2.4,0,.5,7.4-13.4,51.8-4.5,14.2-9.6,27-17.1,42.6-5.9,12.2-11.4,22.1-12,22.1s-.8,1-.5,1.9c.5,1.1-.8,4-2.9,6.7-2.1,2.6-6.2,9.8-9.3,16-3,6.2-9.3,16.8-13.8,23.7-7.7,11.7-8.3,12.8-7.7,18.2,1.4,13.6,15.4,13.4,27-.2,3.8-4.5,5-5.1,5.8-3.5.8,1.3,3.2,1.9,6.9,1.9s6.4-.6,10.4-4.5c2.6-2.4,7.2-9,10.4-14.4,3.8-6.7,6.4-9.8,7.7-9.3,1,.3,3,.2,4.6-.3,1.6-.6,4.3-1.4,6.1-1.8l3.2-.8.3,15.8c0,8.6,1,22.1,1.8,29.8,1.8,16.2,1.6,70.6,0,81.8-.6,4.2-1.1,10.6-1.1,14.1s-.6,11.5-1.4,17.9c-.8,6.4-1.8,13.6-1.9,16-.3,2.4-1.1,5.6-1.8,7-2.4,5.4-5,14.4-6.4,22.4-3.5,19.8-6.6,27-16.5,39-6.6,8-13.6,19.5-15.5,25.6-1,2.9-2.2,5.9-2.9,6.7-1.9,2.6-2.7,18.2-1.1,24,1,3.7,3,6.2,6.9,9.1,6.2,4.6,15,7,15,4s-.5-2.4-1.3-3c-.8-.8.8-1.3,4.5-1.3s6.4-.8,7.5-1.8c1.3-1,3.8-1.3,7.7-.6l5.8.8-.5,6.9c-.6,8.3-2.9,12.8-10.2,20.8-17.1,18.3-25.2,33-24.5,43.8.8,10.2,2.2,14.4,6.1,17.1h0c3.7,2.7,10.4,1.6,16-2.6,2.2-1.6,4.5-3,5-3s4.6-3,9.3-6.7c10.1-8,15.7-16.2,15.7-23s.6-5.3,5.9-9c9.1-6.2,14.1-10.9,17.1-15.8,2.6-4.2,2.7-5,1.1-9.8-2.1-6.9-2.6-14.7-1-15.7,2.1-1.3,12.8,11.2,20.2,23.8,7.7,12.8,12.5,16.6,21,16.6s10.7-2.1,18.2-9.8c6.6-6.9,7.2-7.2,12-6.6,2.7.3,10.1,3.7,16.3,7.2,12,6.9,18.1,8.2,22.9,4.6,1.4-1,4-1.9,5.9-1.9s6.1-2.1,10.2-5.4c5.4-4.3,8-7.8,12.5-17.1,3.2-6.4,7.4-13.6,9.4-16,3.7-4.5,17-13.9,19.4-13.9,6.4-.2,12,22.1,12,48s4,47.2,7,50.6c1.1,1.3,3.8,3,5.9,4,3.2,1.3,4.3,1.3,7-.6,1.8-1.1,3.8-3.8,4.6-5.9,1-2.7,2.4-4,5-4.5,2.4-.5,4.6-2.4,6.6-5.4,1.6-2.6,4.2-5.8,5.9-7,4-3.2,5.9-8.2,8-20,1.9-11.7.6-16.6-8.6-32.2-8.6-14.2-11.8-20.5-11-21.8,1-1.4,6.6,1,11.8,5.1,2.6,1.9,6.9,4.8,9.8,6.2,3.4,1.8,5.9,4.3,7.4,7.4,6.9,14.4,18.9,21.6,35.4,21.4,4.6,0,18.2-4.2,20.2-6.1,2.9-2.9,4.2-11.2,3.2-22.6-1-12.8-4-21-10.2-27-4.3-4.2-4.6-4.3-15.5-4.3s-13-.8-18.4-2.9c-8.2-3.2-18.1-11.4-21.1-17.3-1.1-2.2-3.4-5.8-5.1-7.7-5.3-6.2-8-13.1-10.1-24.5-1-6.1-1.6-11.4-1.3-11.8.3-.5,1-5,1.4-9.8.5-5,1.1-9.3,1.4-9.9.3-.5.8-7.4,1.3-15,.6-12,.3-15.5-1.9-22.7-6.2-20.3-7.8-34.4-5.1-44.5,3-11.7,1.8-22.6-4-33.9-2.1-4.2-5.6-13.1-7.8-20l-4-12.5,1-23.7c.5-13,1-23.8,1.3-24,.2-.2,2.7.6,5.6,1.8,3.2,1.3,5.8,3.2,6.2,5,.5,1.6,3,4.3,5.4,5.9,3.2,2.1,4.6,4.3,5.4,7.8,1.4,7.4,5.4,14.1,10.7,18.6,2.6,2.2,5.1,4,5.6,4,1,0,7.7,13.1,7.7,14.9s1.4,2.7,3.2,4.8,3.2,4.3,3.2,5.1c0,2.2,11.8,11.7,15.8,12.8,4.2,1,7.2-.8,7.2-4.3s-1.8-7.7-3.8-14.2c-3.7-11.4-10.2-40.8-10.9-49.1-.5-5.8-1.9-43.2-2.4-65.9-.3-11,0-20.8.6-22.1,3-5.6,8.6-1.3,14.9,11.2,4.2,8.5,10.4,15,16,17.1,2.9,1.1,4,1,6.2-1.3,1.8-1.8,2.4-3.5,1.8-5.4-.5-1.4-1.8-6.6-2.7-11-1.1-4.5-2.4-9.4-3-10.9-.6-1.4-1.8-5.8-2.4-9.6s-2.4-13.4-4-21.1c-1.4-7.7-3-18.4-3.4-23.7l-.6-9.6,5.1-2.2c2.9-1.3,7.2-3.7,9.8-5.4,2.6-1.8,6.6-4,9-5s4.6-2.4,5.1-3.2c.5-.8,1.9-1.4,3.4-1.4s4-1.4,5.9-3.2,5-3.5,6.7-3.8,5.1-1.4,7.5-2.6c2.2-1,6.4-2.2,9.3-2.7,8.2-1.3,11.7-7.2,7.5-12.5-2.7-3.4-6.1-4.2-8.3-1.9l-1.4-1.6ZM829.3,114c.5-1.6,1.6-5.9,2.6-9.8,1.9-7.8,2.9-9.1,4.5-6.6,2.1,3.2,1.3,8.8-1.6,13.4-3.5,5.4-6.9,7.2-5.4,2.9h0ZM813.9,72.4c2.4-.3,2.6.3,2.7,8.3,0,4.8-.3,9-.8,9.3-1.3,1-2.6,19.4-1.3,18.6s2.6-7.2,3.4-17.3c.8-9.4,1.8-11.7,3-8.3,1.6,4,1.4,13.4-.6,21-2.4,9-4.5,11.2-7.4,7.8-1.1-1.3-1.9-2.7-1.6-2.9.3-.3-.3-5.1-1.3-10.7-2.2-13-.5-25.1,3.8-25.8h0ZM793.7,120.7c-1.3-11.4-1.3-12.8.8-16,1.4-2.2,2.7-3,3.5-2.2,1.8,1.8,4.6,13.3,4.2,16.6-.3,1.6,0,2.9.8,2.9s1.3-1.8,1.3-3.8.5-3.5,1.3-3.2c.6.5,1.3,3,1.3,5.9s-.6,5.3-2.4,5.8c-1.8.5-2.6,2.2-3.2,6.9-1.6,12.5-5.1,6.4-7.4-13l-.2.2ZM807.5,160.4c7.8-4.8,7.8-2.6-.2,6.2-6.2,6.9-10.7,10.2-10.7,7.8s6.9-11.7,10.9-14.1ZM772.1,99.3c3-1,.6,16.6-3.4,25.6-1.8,4.2-3.8,7.5-4.5,7.5-5.9,0,1.4-30.9,7.7-33l.2-.2ZM753.1,78.5c0-4.6,4.2-12.8,6.6-12.8s1.1.8.8,1.6-1.6,4.2-2.9,7.4c-3,7.8-4.5,9.1-4.5,3.8ZM770.1,61.2c4-1,4.3,0,1.8,6.2-4.3,10.1-14.4,14.2-11.2,4.6,2.1-6.1,5.3-9.8,9.4-10.7v-.2ZM733.3,82.8c-7.7-3.2-12.2-6.2-12.2-8.3s3.2-1.1,7.2-1.1c6.7,0,7.5.3,12.2,5.1,2.7,2.9,5,5.8,5,6.4,0,1.9-3.8,1.3-12.2-2.2v.2ZM748.5,63.1c-1.1,2.9-2.7,5.1-3.5,5.1-3,0-8.8-6.6-11.8-13.6-2.9-6.7-3-7.4-1.1-10.2,2.6-4,4.8-3.8,11.4.6,5.6,3.8,7.8,3.8,11.5,0,3.4-3.5,6.1-3,6.1,1.1s.3,4.6.6,6.1c.5,1.8-.3,3.8-2.6,6.1-3.8,4.2-4.6,4.3-4.6,1.1s-.8-3.2-1.9-4c-1.6-1.3-1.9-1.3-1.9.5s-1,4.3-2.1,7.2h0ZM754.7,132.6c-2.4,2.4-4.6-6.6-3.4-13.6,1.3-7,2.7-5.4,3.7,3.8.5,5.1.3,9-.3,9.8ZM717.6,107.9c-1.6,0-5.8-5.3-5-6.2,1.3-1.1,5.1,1.6,5.6,4,.2,1.1,0,2.1-.6,2.1v.2ZM716,326.3c-.8,7.7-1.9,14.2-2.4,14.9-.5.5-1.9.2-3.2-.6-1.9-1.4-2.1-2.2-.6-8,2.2-8.8,6.6-21.3,7.2-20.5.3.3,0,6.9-1,14.4v-.2ZM1128.6,984.9c-1.4,3.7-4.2,2.1-6.1-3.2-1.1-3.2.6-3.7,4-1.1,1.9,1.4,2.6,2.9,2.1,4.3ZM1151.2,978c-1.8,0-2.9-2.2-1.6-3s2.7.3,2.7,2.1-.5,1.1-1.3,1.1l.2-.2ZM1157.7,995.9c-3.2,1.8-3.7,1-4.8-7-.8-5.4-.5-6.6,1.4-7.4,3.2-1.3,4.6.6,5.3,7.4.5,4.8.3,5.9-1.9,7.2v-.2ZM1162.1,990.6c-.3-1-1.1-4.8-1.9-8.5-.8-3.8-2.6-8.5-4-10.6-2.6-3.7-2.7-3.7-6.4-1.4-2.1,1.3-3.7,2.7-3.7,3.5s-.6.6-1.4-.3c-1.1-1.1-1-2.1.6-3.8,1.1-1.3,1.8-2.7,1.3-3.2-.5-.5.8-.8,2.9-.8,7.5,0,15.8,11.5,15.8,21.9s-2.2,6.1-3.2,3.4v-.2ZM1142.5,954.2c7.2-.6,9-.3,13.3,2.2,4.8,2.9,6.7,4.8,6.7,6.6s-1.6,1.1-4.3-1c-1.4-1-3.5-1.6-4.8-1.1-1.3.3-4.3,0-6.9-.8-3.7-1.3-5.3-1.1-7.7,0-2.7,1.4-3.4,1.3-5.3-.5-3.2-3.2-.6-5,9.1-5.6l-.2.2ZM1120.3,956.4c.6,0,1.3.6,1.3,1.3s1.4,1.3,3.2,1.3,3.5.8,4,1.9c.5,1,2.1,1.9,3.7,1.9s3.4,1,3.7,2.1c.6,1.6,1.1,1.8,2.2.6,1.9-1.9,6.1-1.9,6.1,0s-.8,2.2-1.8,3.2c-2.1,2.1-4,2.4-5.1.8-.3-.6-2.4-.8-4.5-.5-3.4.5-3.8.2-3.8-2.4s-.3-2.6-1.6-1.4c-2.2,2.2-3.2,1.9-4-1-.5-1.8-1.3-2.2-2.7-1.8-1.6.6-2.1,0-2.1-2.6s.6-3.4,1.3-3.4l.2-.2ZM1147.2,392.1c-1.6,2.9-5.1,3.4-5.1.6s1.6-5.9,4-5.9,3,1.6,1.1,5.3h0ZM1137.1,476.4c-2.4,0-2.4-1-2.2-15.5.3-15.8,1-17.9,5.1-14.9,1.8,1.3,2.4,5.4,3.5,19.8,1.4,18.7,1.1,20.8-3.2,25.1-3,3-4,2.6-4.6-2.4-.3-3.2,0-5.1,1.8-6.6,3-2.7,2.9-5.4-.2-5.4l-.2-.2ZM1124.1,445.5c-1.3-1-2.7-4-3.4-6.7-.5-3.3.4-4.6,2.9-4,2.1.5,4,1.3,4.5,1.8.5.5.5,7.8,0,16.2l-.8,15.4-3.7.3c-3.2.2-3.7-.3-4.5-4.2-1.3-6.7.3-13.4,3.2-13.4s4.2-3.4,1.3-5.3h.5ZM1124.9,472.9l2.2-3.5,1,4.5c.5,2.7.3,5.1-.5,6.1-3.7,4.3-6.1-1.9-2.7-7h0ZM1128.8,491c.5.5.5,1.4.3,2.4-.5,1.3-.8,1.3-1.6,0-1.1-1.8,0-3.7,1.3-2.4ZM1128,423.4c0-1.8.6-3.4,1.3-3.4s1.3,1.1,1.3,2.6-.6,2.9-1.3,3.2c-.8.5-1.3-.6-1.3-2.4ZM1130.5,497.5c.6.5,1,1.6.5,2.6-1,2.7-1.8,2.4-1.8-.8s.5-2.2,1.3-1.9v.2ZM1129.6,417.4c-1.1.3-1.6-.3-1.3-2.4.3-1.6,1.3-3.2,2.1-3.5,1.1-.3,1.6.3,1.3,2.4-.2,1.6-1.1,3.2-2.1,3.5ZM1129.7,407.4c-2.1,0-2.4-4.5-.5-5.8,2.1-1.3,3.7.5,2.9,3.2-.3,1.4-1.4,2.6-2.4,2.6ZM1130.5,396.9c0-.2-.3-2.7-.8-5.8-.6-5.3-.5-5.4,2.7-5.4s3.7.3.5,8.6c-1,2.4-2.2,3.8-2.4,2.6ZM1140.5,413.7c.5,0,2.2-.3,3.8-.8,2.6-.6,2.7-.5,1.8,2.9-1,3.5-3.8,5.3-5.6,3.5-1.1-1.1-1.1-5.6,0-5.6ZM1144.8,401c3,0,3.2,1.1,0,4.8-2.7,3.2-3.4,3.5-4.5,1.6-1.3-2.1,1.8-6.4,4.5-6.4ZM1143,434.8c-1.4-1.4-1.1-9.4.3-9.4s1.6.8,2.1,1.9c1,2.4-1.1,8.8-2.4,7.5h0ZM1137.1,366.3c-3.7,1.9-6.4,1.4-6.4-1.3s7-5,8.5-5,0,5.3-2.1,6.4v-.2ZM1136.1,377.7c-1.4,2.4-4.3,3.7-4.3,1.9s.8-2.2,1.8-3.7c2.1-2.9,4.5-1.4,2.6,1.6v.2ZM1147,493.4c.6.3-1,2.9-3.7,6.1-3.8,4.2-5,5-5,3,0-2.7,6.7-9.8,8.8-9.1h-.2ZM1092.9,125.4c2.2-2.2,9.4-2.7,9.4-.8s-1.8,1.3-3.8,1.3-3.8.6-3.8,1.3-.8,1.3-1.9,1.3c-2.4,0-2.4-.6,0-3h.2ZM1033.4,182.2c1.1-.8,5.3-1.1,9.6-.8,5.8.5,8.2,1.3,9.8,3.2,2.9,3.5,3.7,3.4,3.7-.6s-1-3.7-3.2-4.6c-4.2-1.9-4-3,.6-5.4,5.1-2.7,7.7-2.4,14.6,1.3,7.2,3.8,8.2,1.4,1.1-3-2.7-1.8-5.1-3.4-5.3-3.5-1-.6,5.4-6.7,7-6.7s10.7,4,13.6,6.2c1.3,1,2.2,1.3,2.2.6,0-1.6-6.2-7.4-9.9-9.3-3-1.6-4-6.4-1.3-6.6h9.8c7,.2,8,0,6.7-1.6-.8-1-4.2-2.1-7.4-2.6-6.7-.8-7.8-1.4-5.8-4s7.8-3.4,15.4-2.2c6.9,1.1,7.4.8,4.6-2.7-1.1-1.4-3.7-2.4-7.7-2.6-10.7-.5-5.4-3.4,6.2-3.5,5.6,0,6.1-.3,4.2-1.8-2.1-1.6-2.1-1.8.3-2.4,2.2-.6,2.6-1.4,1.9-5.4-.6-4.6-.5-4.6,3.2-3.8,4,.8,5.4-1.3,1.9-2.7-2.7-1.1-2.4-2.4,1-4,1.9-.9,1.7-1.6-.6-2.2-4.3-1.1-4.6-3.2-.6-3.2,8.6-.2,13.1.2,14.7,1.4,3.2,2.7,3,.2-.3-3.4-2.6-2.7-2.9-3.8-1.6-4.6,3.5-2.2,7.5-1.3,8.8,2.2.6,1.8,2.2,4.5,3.4,6.1q1.9,2.6,1.3-2.7c-.8-5.3-.6-5.4,2.1-4.6,4.2,1.3,6.2,3.2,7.7,6.9,1,2.4,1.4,2.7,2.2,1.4.6-1,1.9-1.4,3-1,1.6.6,1.8,1.8.6,6.7-2.1,9.6,1.8,13.4,4.6,4.8,1.8-5.1,3.2-5.4,6.2-1.3,1.8,2.4,2.4,5.1,2.2,10.1,0,3.7-.2,7.7-.2,8.8v8c0,7.2,2.6,8.3,2.7,1.3.3-8.2.8-10.7,2.1-12,1.9-1.9,5.9,10.9,4.8,15.4-.8,3.2-.6,3.2,1,1,2.4-3.2,4.3-1.8,6.2,4.5,1.4,4.6,1.3,5.4-.6,6.9-1.4,1.1-2.7,4.6-3.5,10.2-.6,4.6-2.1,10.2-3.2,12.3-1.1,2.1-1.4,3.8-.8,3.8,1.8,0,4.6-6.4,6.6-14.2,2.6-10.7,2.6-11,4.2-7.4.8,1.8,1.3,7.8,1.3,13.4,0,10.2-.2,11-7.8,26.6-.3.5,0,1,1,1s2.6-2.2,4-5.1c1.4-2.9,3.2-5.1,3.8-5.1,2.9,0,1.3,12.8-2.6,20.5-2.1,4.2-4.5,7.8-5.1,8.3-1.8,1.1-1.6,3.2.3,3.2s2.6-1.8,3.8-3.8c3.4-5.8,4.5-4.6,3.5,3.7-.8,7.4-5.4,17.3-9.6,20.8-1,.8-1.9,2.4-1.9,3.5s1.1,1,4.5-1.4l4.5-3.4v4c0,4.2-3.8,12.5-10.2,21.8-3.8,5.6-5,9-2.9,9s2.2-2.1,3.8-4.5c2.6-4,5.4-5.9,5.4-3.7s-4.3,15.4-5.4,16.8c-.6,1-2.4,1.6-3.7,1.6-3.4,0-4.5,2.6-1.3,3.4s3.2.6,0,5.8c-3,5-3.2,6.1-.8,6.1s2.1,1,2.6,1.9c.8,2.2-4.5,7.8-9.1,9.6-1.6.6-2.9,1.8-2.9,2.4,0,2.6,3.8,2.9,6.4.6,2.4-2.2,2.6-2.2,2.6.3s-.8,3.4-1.6,4.3c-2.9,2.9-7.4,9.8-7.4,11s.8,1.1,1.8.6c1-.3,2.1,0,2.6.6,1.3,1.9-1.8,7.5-4.5,8.3-1.4.3-2.4,1.8-2.4,3.4s-.6,2.7-1.4,2.7-1,1.1-.5,2.6c.8,2.6-2.4,8.8-5.4,10.7-2.6,1.6-.5,3.5,2.9,2.7,2.6-.6,3-.3,3,1.8s-1.1,3.8-2.4,5.4c-1.8,2.2-3,2.7-5.8,2.1-2.7-.6-3.4-1.4-2.7-3.5.5-1.4,1.1-4.6,1.3-7.4.3-2.6,1.1-6.2,1.8-8s1.8-10.1,2.7-18.6c.8-8.5,2.4-19.8,3.4-25.4,1.1-6.2,1.8-19,1.8-33.4,0-23.4-1-29.9-4.6-29.9s-1.9-2.4-2.6-6.1c-2.4-16.2-5.6-30.1-7.7-32.3-1.3-1.4-2.2-4.8-2.4-8.2-.2-5.6-1.3-8.3-2.9-6.9-1,1,2.2,17.6,6.4,33.6,3.5,13.8,6.9,45.9,5,48.3-.6,1-1.3,10.9-1.4,22.1,0,11.7-1.1,27-2.4,35.8l-2.2,15.4-4.8.3c-4.6.3-4.8.3-4.8-3.8s1-5.3,1.9-6.7c2.4-3.2,2.4-4.5,0-4.5s-1.9-1.3-1.9-3.7.8-4,3.2-5.1c4-1.9,4-3.2,0-5.3-3-1.6-3.2-1.8-1-5.4,1.3-2.1,2.9-4.2,3.8-4.5,2.7-1.1,1.8-2.7-1.9-3.2-5.1-.6-5.6-7.2-1.1-13.1,3.4-4.3,3.2-6.2,0-5s-4.2-1.4-4.2-3.5,1.4-2.2,3.2-4.3c3.7-4.3,3.2-6.2-1.3-5.1-2.1.5-3.2.3-3.2-1s-.3-3-.5-4.8c-.2-1.6.5-3.4,1.4-3.7,1-.3,2.4-1.8,3.2-3.2,1.3-2.4,1.1-2.6-1.8-1.8-2.2.6-3.4.2-4-1.3-1.3-3.4-.8-7.4,1.1-10.1,2.6-3.5,2.4-5-.6-3.4q-3.5,1.9-4.3-4.6c-.6-4.3-.3-6.7,1.1-9.1,1.9-2.9,1.9-3-.5-1.8-1.4.8-2.9,1-3.2.6-1.3-1.3.6-8.6,2.9-11.2,1.9-2.2,1.8-2.6-1-4.8-1.6-1.3-3.4-2.4-4-2.4s-1.3,5.9-1.8,13.1c-.5,10.1-.2,15.8,1.8,24.8,2.9,13.9,6.2,57.4,6.2,79.8s-.6,22.7-1.4,31c-1,10.7-1.9,15-3,15-2.6,0-3.4-2.2-1.8-5.1.8-1.6,1-5.8.5-10.7-.6-5.4-.3-8.5.6-9,2.2-1.4,1.6-3.4-1-3.4-4.3,0-5.3-6.6-1.8-10.7,2.2-2.4,2.1-2.6-1.3-1.8-3.2.8-3.5.5-3.5-2.7s1.6-5.3,4.5-8.3c4.5-4.8,4.2-6.2-.6-3.2-1.4.8-2.9,1.3-3.2.8-1.9-1.9-1.6-9.9.6-15,2.9-6.6,3-8.2.6-4.8-1,1.3-2.4,1.9-3.2,1.6-1.9-1.3-1.8-9.9.3-13,2.6-3.7,3.8-8.3,2.2-8.3s-1.3.8-1.3,1.8-.8,2.4-1.9,3.4c-1.6,1.3-1.9,1-2.7-2.1-.5-1.9-1-4.3-1.3-5.3-.3-1,.6-3.2,2.1-5,2.7-3.5,3.4-6.7,1.3-6.7s-1.6.6-1.9,1.3c-.5.6-1.3,1.3-1.9,1.3-2.2,0-2.6-4.3-.6-9.9,1.4-4,1.6-6.2.6-7.2s-1.3-.6-1.3.8c0,2.9-2.1,2.7-3.7-.2-.8-1.6-.8-2.9,0-3.8,1-1,1-1.9-.2-3.4-1.8-2.2-1-6.2,2.1-9.1,2.7-2.7,1.3-3.7-4.2-2.6-4.2.8-4.6,1.3-3.8,3.7.5,1.6,1.1,8.6,1.3,15.8.2,7.2,1,14.9,1.8,17.3,1.3,3.8,5.3,25.6,5.3,28.5s-2.4-1.4-9-14.4c-6.2-12.3-10.9-27.5-9.6-31.4.8-2.2-.8-4.5-3.8-5-1.4-.3-2.7-1.8-2.9-3.4-.2-1.6-1.1-2.9-2.1-2.9-2.7,0-3.2-3.2-2.4-15,.6-9.6.5-11.7-1.6-15.2-2.7-4.3-7.8-9-14.4-12.8-2.4-1.3-6.9-6.2-10.1-10.7-3.2-4.6-7.8-10.2-10.4-12.5-3.8-3.5-4.3-4.3-2.7-5.4l.3-.3ZM1081.7,551c1.1,1.1,1,2.1-.6,3.8-1.1,1.3-2.6,2.2-3,2.2-1.4,0,0-17,1.9-21.1,3.7-8.6,4.8-12.5,5.1-17,.2-2.6,1-10.6,1.8-17.8,1-9,1-15.4,0-20.5-2.1-11.8-3.7-34.6-4.8-64.3l-1-27.5-4.2-8.3c-2.7-5.3-4-9.6-3.7-11.8.3-2.6,0-3.4-1.3-2.9-1,.3-2.4-.6-3.2-2.4-1.1-2.6-1-3.7,1.3-6.6,2.6-3.4,3.7-8.2,1.8-8.2s-2.1,1.6-3.7,3.4l-2.7,3.4-2.2-3.5c-2.1-3-2.1-4.2-.6-8,1.9-5.1,1-7.2-1.8-3.7-1.4,2.1-2.1,2.2-3.8.8-3.2-2.7-3.7-6.1-1.4-10.4,2.7-5.3,1.3-7.4-2.6-3.8l-3,2.9-1.4-3.4c-1.4-3.4-1.3-3.8,1.9-9.8,2.7-4.6,1-7.2-2.2-3.2-2.2,2.9-2.9,3-4.5,1.4-1.8-1.8-1.6-2.6.8-7.5,4.2-8.5,3.7-10.2-1.8-6.7-5.1,3.4-5.8-.8-1.8-10.6,1.9-4.8,2.2-11.8.5-11.8s-2.4,1.8-3.5,3.8c-3.4,6.1-6.9,3.8-3.7-2.2.6-1.3,2.7-5.4,4.5-9.3,1.9-4.2,4.6-7.8,6.6-8.8,1.8-1,3.2-2.2,3.2-2.7,0-1.6-3.5-1.3-4.5.3s-1.8,1-2.7.6c-1.1-.5-2.7,0-3.7.6-4.8,4,1-7.7,6.4-12.8l4.6-4.3,6.7,1.9c7.4,2.1,9,5,3.5,6.1-2.1.5-3.4,1.8-3.7,3.7-.3,2.7,0,2.9,4.2,2.1,4-.8,4.8-.5,6.1,2.4,1.1,2.6,1.1,3.7-.3,5.3-1.8,2.2-1.6,2.7,4.6,6.4,1.4.8,2.2,2.9,2.1,5.4,0,2.2.5,4,1.1,4,2.1,0,6.1,10.7,4.6,12.5-1.6,1.9,0,4.6,2.2,3.7,2.6-1,5.9,3,5.3,6.4-.3,1.8.3,3.8,1.8,5.1,1.8,1.6,2.1,2.6,1,3.8-1.1,1.4-.6,2.6,2.6,5.8,3,3,3.7,4.3,2.7,5.6-1.1,1.3-.6,2.7,2.1,6.2,2.7,3.5,3.2,5,2.1,6.2-2.1,2.6-.3,9.1,2.9,10.6,3.4,1.4,4.5,5.8,1.6,5.8s-2.4,3.7,1.4,7c3.2,2.9,3.4,3.2,1.3,4.5-3,1.8-2.9,5.1.2,5.1s2.9,1.4,3.7,3.5c.8,1.9,2.6,6.7,4,10.6,3.4,9,3.4,11.5,0,11.5s-3.2,3.2.2,5.6c2.9,1.9,2.6,6.2-.3,5.6-3.4-.6-2.4,4,1.1,5.9l3.7,1.9-3.5,1.6c-4.2,1.9-4.6,4.5-1,5.4,4,1,3.2,4.6-1.3,5.6-5.6,1.1-5.9,2.7-1.1,4.8l4.3,1.8-3.5,1.6c-4.3,1.9-4.5,3.7-.3,3.7s3.5.5,3.8,1.1c1,1.4-2.7,5.3-5.1,5.3s-1.8,1.1-1.8,2.6.6,2.6,2.4,2.2c1.3-.2,2.4,0,2.6.6.6,3,0,4.5-3,5.8-3.8,1.8-4.2,3.7-.6,4.8,3.7,1.1,3.5,6.7-.3,7.2-3.5.5-3.8,4.3-.3,4.3s4.2,3.8,1.9,6.4c-.8,1-2.9,1.9-4.6,1.9s-3,.6-3,2.6.8,2.6,3.2,2.6,3.2.6,3.2,3.8-.6,3.8-2.4,3.8-3.2,1-4,2.1c-1.4,1.8-1.3,2.4,1,4.2,4.2,3.4,4.2,8.2,0,10.7-1.9,1.3-3.5,3.2-3.5,4.3,0,1.6,1,1.9,5.1,1.1,4.2-.6,5.1-.5,5.1,1.1s-2.1,2.9-4.6,4c-2.7,1.1-4.3,2.6-4,3.5.6,1.6,2.2,1.8,8.5.8,3.8-.6,5.3,2.7,1.4,3.7-3.7,1-2.7,3.5,1.6,4,3.7.5,4.6,2.4,1.4,3.7-3,1.1-2.2,4.3,1,4.3s2.9.6,3,5.8c0,3.5-.5,6.2-1.6,7.2-1,.8-1.8,2.2-1.8,3.2,0,2.2-4.8,4.8-7,3.8-1.3-.5-2.2,1.4-3.2,6.6-.8,4-2.2,8.8-3.2,10.4l-1.8,3.2-1.3-3.2c-1.4-3.8-2.7-11.7-2.7-17.6s-10.9-15.5-14.6-11.8c-1,1-1,1.8,0,2.9l.5-.2ZM1058.2,648.6c-1,2.9-2.1,7.2-2.6,9.6s-1.3,5.1-1.9,5.8c-.5.6-1.3,2.7-1.4,4.3-.5,3.2-4.2,6.4-5.8,5-.5-.5-.3-2.9.5-5.4.8-2.4,1-4.5.3-4.5s-1.3,1.3-1.6,2.9q-.5,2.7-1.9-.6c-2.6-6.1-7-3.7-10.6,5.4-1,2.4-3.5,7.7-5.6,11.5s-5.1,9.4-6.7,12.5c-6.2,12-10.6,11.4-5-.6,13.4-28.8,17.3-35.7,20.5-37.4,2.6-1.4,3.5-1.4,4.3-.2,1.1,1.8,5.3.8,6.9-1.6.5-.8,1.6-3.8,2.4-6.9.8-3,2.4-6.1,3.7-6.7s2.7-2.9,3.2-4.8,1.9-5.9,3.2-8.6c1.3-2.9,4-9.1,5.8-14.1,3.7-9.6,8-16.2,5.9-9-1.4,5.1-6.7,17.6-8,19-.6.6-1.1,2.6-1.1,4.2,0,3.4-2.1,12.8-4.5,20.2v.2ZM1062.9,680.9c0,11.7-.5,19.7-1.3,20.2-2.2,1.3-2.9-3-1.9-11.4.5-4.3,1.1-12,1.1-17.1s.5-9.6,1.1-10.1c.5-.5,1,7.7,1,18.4ZM1053.1,683c-.5,1.1-1.3,2.1-2.1,2.1s-1-1-.5-2.1.8-3.2.8-4.5.5-2.4,1.3-2.4c1.4,0,1.8,3.8.5,6.9ZM1039.8,675.3c0,2.2-.6,3.4-2.1,3.4s-1.9-1-1.6-2.7c.6-4.2,3.5-4.5,3.5-.5l.2-.2ZM1030.1,687.6c-1.1,0-1.6-.6-1.1-1.3.8-1.1,3.2-.6,3.2.8s-1,.6-1.9.6l-.2-.2ZM1030.9,698.5c0,1.1-.6,1.9-1.3,1.9s-1.3-.5-1.3-1.3.6-1.6,1.3-1.9c.6-.5,1.3,0,1.3,1.3ZM1010.9,682.5c.5,2.9.2,5.3-.5,5.8-.8.5-1.3-.8-1.3-2.9q0-3.5-1.9-1c-1,1.4-2.7,3.5-3.8,4.6-1.6,1.6-1.8,2.7-.5,6.1,1.1,3,1,4.5-.2,5.9-1.4,1.8-1.8,1.8-3.8,0-3-2.9-5.3-2.4-5,1,0,1.6.2,4.2,0,5.8h0c-.2,3.4-1.3,3.7-4.6,1.3s-2.1-2.1,1.8-9.3c2.2-4.2,6.2-10.4,9-14.1,2.7-3.5,6.1-8.8,7.5-11.7s3.5-5.9,4.6-6.9,2.1-2.9,2.1-4.2c0-2.7,6.7-9.3,10.6-10.7,1.9-.6,16.3-20,16.3-21.9s2.1-2.9,4.6-5.6c2.6-2.7,5.6-6.7,6.7-8.8s3.8-5.8,5.8-8.2c3.4-3.8,3.5-4,2.7-1.1-1.3,4.8-8,15.4-12.8,20.5-7,7.4-9.6,20.6-3.5,18.2,2.4-1,2.2,1-.2,4.5-1.9,2.7-2.2,2.7-5.1.8-1.8-1.1-3.7-1.8-4.3-1.6-.6.3-3.5,5.1-6.4,10.7-4,8-5.1,9.4-5.1,6.7s-.6-3.5-1.4-3.5-1,.5-.6,1.1c.5.6-.3,1.9-1.6,2.9s-2.9,3-3.4,4.5c-.5,1.6-2.1,3.5-3.5,4.3-2.2,1.1-2.6,2.2-1.8,6.2l-.3.5ZM978.4,781.7c-1.3-1.6-1.4-2.4-.3-3.5s1.6-1,2.2.6c1.3,3.4,0,5.3-1.9,2.9ZM980.5,823.3c-.2,1.1-1.3,2.1-2.6,2.4-2.6.5-3-3-1-6.1,1.1-1.8,1.4-1.8,2.6,0,.6,1.1,1.1,2.7,1,3.8v-.2ZM978.4,809.8c0,1-.8,1.9-1.9,1.9s-1.9-.8-1.9-1.9.8-1.9,1.9-1.9,1.9.8,1.9,1.9ZM971.7,795.4c-2.9-.6-3.8-3.7-1.8-5.4,2.6-2.2,6.4-1,6.7,2.1.5,2.9-1.6,4.2-5.1,3.4h.2ZM969.1,780.9c-1.9-1.1-3.4-7.5-1.8-7.5,3,0,6.9,2.9,7.4,5.6.6,3.5-1.6,4.3-5.8,1.9h.2ZM968.5,767.9c-2.9-1.4-4.2-6.1-1.6-6.1s6.2,2.7,6.2,5.1-.6,2.9-4.8,1h.2ZM942.5,663.8c0-1.4,1.9-1.8,7.7-1.8s7.7.5,7.7,1.8-1,2.1-2.1,2.6c-4.3,1.6-13.3,0-13.3-2.6ZM944.8,675.3c-4.2,1.1-4.8,1-4.8-1.1s1.1-1.9,3.2-1.9c4.2,0,5.3,2.1,1.6,3ZM953.1,657.4c1.3-.3,3-.3,3.8,0s-.2.6-2.2.6-2.9-.3-1.6-.6ZM951.5,650.5c-6.2,0-7.4-.3-6.9-1.9.5-1.1,2.4-1.9,4.3-1.9s5.4-1.4,8.3-4l4.6-4-1,5c-.5,2.7-1.1,5.4-1.4,5.9s-4,1-8.2,1h.2ZM959,632.7c-4.3,3.7-8.2,4.5-11.2,2.4-2.2-1.4-1.3-5.9,1.3-5.6,1.1.2,4.3-.5,7.2-1.6,7.2-2.6,8.5-.2,2.7,4.6v.2ZM945.4,552.1c-4.5,5-4.6,7.5-.3,7.5s3.2,5-.8,6.4c-1.8.6-3.5,1.3-3.8,1.3-1.6,0-1.6-3.7,0-17.3,1-8.5,1.3-15.8.6-16.3-1.6-1.8-3.5,0-4.5,4.3-.5,2.1-1.3,3.8-1.9,3.8-1.9,0-2.9-5.1-1.3-7,1.9-2.4,1.1-20.2-1-20.8-1-.3-1.6.8-1.6,2.4s-.5,3.8-1.1,4.8c-1,1.4-1.4,1.6-3.2.2-2.2-1.9-2.7-10.9-.8-15.8,1.3-3.4.5-8.5-1.3-8.5s-1.1.8-1.1,1.6c0,2.2-3,8.5-4,8.6-2.4,0-1.9-6.9,1-16.5.8-2.7.6-2.9-1.8-1.6-1.4.8-3,2.9-3.5,4.6s-1.4,3.2-2.1,3.2c-1.8,0-.2-9.4,2.4-14.2,3.4-6.4,1.3-6.9-2.7-.6-2.1,3.4-4.2,5.9-4.6,5.9s-1.3-1.4-1.8-3.4c-.6-2.6-.2-3.8,2.1-5.6,4.5-3.4,8-16,3.8-13.4-1.6,1-1.4-1.6,0-4.6.8-1.3,2.2-2.4,3.2-2.4,2.1,0,2.6-2.1.6-3.2-2.2-1.4-1.3-5.3,2.6-10.7,4.8-6.6,6.9-7.5,10.2-4.6,2.2,2.1,2.7,2.1,6.7.2,4.2-2.1,4.3-2.1,7.4,1.4,5.6,6.1,7.2,6.9,9.8,5.6,8.5-4.3,22.9-5.6,24.3-2.1.5,1.1.2,3.5-.5,5.4-2.9,7.7-4.5,14.4-3.8,15.2,1.1,1.1,6.1-1.9,6.1-3.7,0-3.4,6.9-18.9,8.5-18.9,2.4,0,3.5,2.6,1.9,4.2s-1.4,2.7-1.4,4.3c0,5-6.4,22.1-13.4,36.2s-10.6,24.2-14.9,44.8c-1.4,6.7-2.9,12.5-3.2,12.8-2.7,3-3-15.2-.3-20.6.6-1.3.5-2.6-.5-3.5-1.1-1.1-1-1.9.6-3.5s1.9-3.5,1.4-7c-.5-3.8-.2-5.1,1.4-5.8,2.2-1,2.7-3.8.8-5-.6-.5-2.4,0-3.8.6-2.2,1.1-2.4,2.2-1.8,6.4.5,3.4.3,5.1-.6,5.1s-1.4,3.2-1.3,9.9c.3,17.1-1.1,24.3-6.2,29.9h-.5ZM949.7,596.1c-.5,1.1-1.6,1.9-2.6,1.9-3.2,0-3.5-1.6-.8-3.5,3-2.1,4.5-1.4,3.4,1.6ZM927.7,566.6c-2.4.6-3,.3-3-1.8s.8-2.6,1.9-2.6c2.7,0,4-3.8,1.8-5.3-1-.6-3.4-.8-5.1-.5-2.7.6-3.5.2-4.3-2.1-.6-2.1,0-3.5,2.4-5.4,2.4-2.1,3-3.2,2.1-4.6-1-1.6-1.8-1.6-3.8-.3-5.6,3.5-7.5-.3-1.9-4,4.2-2.7,2.9-5-2.1-3.8-5,1.1-6.9-2.7-2.7-5.6,1.4-1,2.7-2.7,2.7-3.7,0-2.1-4-2.4-6.1-.3s-1.9,1.1-3.5,0c-2.7-2.2-2.4-4.5,1-6.9,2.2-1.4,2.6-2.2,1.4-3.5-1.1-1.1-2.1-1.1-4.3,0-3.7,1.9-6.4-.2-3.8-3,1.9-2.4.8-4.6-2.6-4.6s-4-2.4-2.6-8.8c1.1-5.1,1.1-5.3-1-3.4-3,2.7-4,1.4-4-6.2s.6-9.1,5.9-27.7c1.9-6.6,1.9-7.5,0-11.4-1.1-2.2-1.9-4.5-1.6-4.8.8-.8,12.3.8,12.3,1.8s-1,2.2-2.1,4.5c-2.9,5.6-5.8,20.5-4.3,22.2.6.8,1.6,4.3,2.1,7.7.8,5.6,6.7,18.9,12.3,27.5,1.1,1.8,2.4,4.8,2.9,6.9s2.6,5.8,4.6,8c1.9,2.2,3.7,5.6,3.7,7.4s.5,3.4,1.1,3.8c1.8,1.1,6.1,15,8.5,27.4,2.1,10.4,2.1,10.7-.3,13.1s-2.7,2.4-4.3.5c-1.3-1.6-1.4-2.6-.2-4.5,2.2-3.5.6-6.7-3-5.8v-.2ZM917.6,562.2c-.8,1.4-2.4,1.6-3.5.6-1-1,.3-7,1.6-7s2.9,4.8,1.9,6.4ZM903.2,532.2c-1,2.7-3,2.2-3-.8s.5-2.6,1.1-2.6c1.8,0,2.6,1.4,1.9,3.4ZM886.1,391.3c-.8-.5-2.7.5-4.3,1.9l-3,2.7-.8-2.7c-.5-1.6-.2-3.5,1-5,1-1.1,2.4-3.7,3.4-5.6,1.8-4.3,3.5-4.5,4.6-.6,1.3,4.8,1,10.2-.6,9.3h-.2ZM886.9,411.3c-1.1,3.5-2.7,3-4.2-1.1-1.4-4.3-.8-8,1.4-8s3.7,5.6,2.6,9.1h.2ZM873.3,445.5c-7,0-7.8-.3-9-3.2-.8-1.9-.8-4,0-5.6,1.6-3,1.6-9,0-9s-1.3.5-1.4,1c0,.5-.3,2.7-.8,4.8-1,5.8-.6,11,1,15,1.3,3,1.1,3.8-1,5.4-2.6,1.9-7.7,2.6-8.6,1-.3-.5,0-3.8.6-7.4,2.2-12.3,3.4-23,3.2-33,0-6.9.3-9.9,1.3-9.9,1.8,0,3,2.9,3,6.4s3.4,10.6,6.6,15.4c1.1,1.8,3,6.2,4.3,9.9,1.6,4.8,2.9,6.7,4.5,6.7s2.7.5,3,1.1c.3.6-2.7,1.1-7,1.1l.3.2ZM879.8,448.4c0,.8-1.8,3.7-4,6.4-4.2,5.3-6.2,6.2-6.2,3s-1.4-2.6-3.4-.5c-2.1,2.1-3.2-.6-1.3-3,2.1-2.7,15-7.7,15-5.9h-.2ZM855.5,405.5c0,1.9-.8,3.2-1.8,3.2-2.4,0-3.5-1.8-2.6-4.3,1.3-3.2,4.3-2.4,4.3,1.1h0ZM853.4,395.3c.5-1.3.8-3,.8-4s.6-1.8,1.4-1.8,1.1,1.6,1,3.4c-.2,1.9-1.3,3.7-2.2,4-1.3.5-1.6,0-1-1.6ZM871.3,358.8c1.1-4.5,2.7-9.9,3.4-12,.6-2.1.8-4.2.5-4.8s-1-4.3-1.1-8.2c-.3-5,0-6.9,1.1-6.6,2.6.8,5,10.1,4,15-.5,2.4-1,6.2-1.1,8.3-.3,5.9-3.7,19.8-4.8,19.8s-1.9,1.8-3,3.8c-3.8,7.5-5.4,3.8-1.9-4.5.6-1.4,2.1-6.2,3.2-10.9l-.2-.2ZM869.6,311.6c1.4-.5,6.4,3.4,6.4,5.1s-.8,1.1-1.9,1.1c-2.4,0-6.4-5.6-4.5-6.2h0ZM874.7,414.5c0,3.5-1.9,4.2-3,1.1s-1-8.2.3-8.2,2.7,3.2,2.7,7.2v-.2ZM868.9,399q1.9-2.4,1.6.6c-.2,1.8-1.1,3.4-1.9,3.7-2.2.6-1.9-1.3.3-4.3h0ZM868.3,383.1c1-1.6,1.3-1.4,1.3,1s-.5,2.9-1.3,2.9c-1.6,0-1.6-1.3,0-3.8ZM887.2,365.8c-1.1,6.1-2.7,9.6-5.8,13.1-5,5.8-5.3,5.1-3.7-9,.5-4.6,1.8-8.3,3.2-9.8,1.3-1.3,2.6-3.4,2.7-4.6.3-1.3,1.4-2.6,2.7-2.7,2.7-.5,2.9,1.8.6,13.1l.2-.2ZM886.4,332.6c-1-3-3.4-7.5-5.3-9.8-5.1-5.8-2.2-11,3.2-5.6,1.8,1.8,1.9,1.8,1.9,0s3.4-2.7,6.4-.8c1.6,1,1.6,2.2.3,7.4-.8,3.4-1.8,8-2.2,10.2-1.1,5.6-2.2,5.3-4.3-1.4ZM891.3,361.4c.8,0,1.1.5.6,1.1-.3.6-.2,1.6.5,1.9.6.5,1.4-.6,1.6-2.6.2-1.8,1-3,1.8-2.9s1.1,4.2,1,9.3c-.2,5.3.5,12.2,1.6,16.6,1.1,4.2,2.6,10.2,3.4,13.4s1.9,6.2,2.6,7c.6.6,1.1,2.2,1.1,3.5s1.8,5.8,3.8,9.9c2.1,4.2,3.8,8.2,3.8,9,0,2.1-4.5,1.4-6.7-1-1.1-1.3-2.7-4.8-3.5-8s-2.9-8.2-4.6-11.2c-4.8-8.2-8-20.5-8.2-31-.3-13.4,0-15.4,1.4-15.4l-.2.2ZM895.2,340.1c0-1.4.3-1.8.8-.8.3,1,.3,2.1,0,2.4-.5.5-.8-.3-.6-1.8l-.2.2ZM917.6,331.9c1.8,0,3.8-10.6,2.6-12.6-1-1.4,1.9-13,3.5-14.9.8-.8.8,1.3.3,5.1-.5,3.5-1.1,9.3-1.3,13-.5,6.9-2.9,13-6.2,15.8-2.6,2.1-2.7,7.7,0,7.7s2.4,2.1,0,8.8c-1.8,5-1.8,5.3.3,5,1.6-.3,2.4-1.9,2.6-5.3.3-3,1-4.6,1.9-4.3,1,.3,1.4,2.9,1.1,7.5-.5,7.7,1,8,1.8.3.2-2.7.8-14.4,1.3-26.1s1.1-21.6,1.4-22.1c.6-1.1,5.4,2.7,5.4,4.5s4.8,8.5,11.4,16c4.3,5.1,6.6,6.7,10.4,7.2,4.2.6,5.8,1.9,10.7,9,3.2,4.5,5.9,8.8,5.9,9.4s1,2.2,2.1,3.4,2.7,4.8,3.5,8c1.3,5.1,1.9,6.1,4.6,6.1s3.2.6,3.5,3.8c.2,2.1,1,5,1.6,6.4,1.4,2.9,8.6,22.7,9.6,26.9.5,1.9,0,3-1.6,3.7-2.7,1-6.4-2.7-7.7-7.8-.5-1.8-1.9-4.3-3.2-5.6s-2.4-3.5-2.4-5-1-4-2.1-5.8c-1.4-2.2-1.8-4.5-1.3-7.7.8-4.3.6-4.5-1.8-3.7-1.4.5-3.5.2-4.6-.6-2.2-1.9-2.6-1.6-3.5,3.2-1.1,5.8,12.8,32.3,22.7,43.4,9.4,10.4,9.8,11,8.3,13.9-.6,1.3-1.8,2.2-2.4,2.2-2.2,0-23-27.8-23-30.9s-.8-1.1-1.9-1.1c-2.7,0-2.2,3.7,1.3,9.4,2.1,3.4,2.9,6.1,2.4,8.5-.5,2.1,0,4.2,1.3,5.3,1.8,1.8,1.4,2.1-2.6,3.5-5.1,1.9-7,.8-9.6-5.4-1-2.2-2.7-4.8-4-5.8-1.6-1.1-2.2-3.4-2.2-7.4s-.3-5.4-2.1-4.8-1.9,2.4-1.4,11.8c.3,6.1,1,12,1.6,13.3.6,1.8.3,2.2-1.6,2.2-3.4,0-6.2-3.4-8.6-10.1-1.1-3-3.2-6.4-4.6-7.7-2.1-1.6-2.7-3.7-2.7-7.7s-.3-5-1.1-3.4c-1.8,3-3,2.6-5-1.9-1.3-3-1.3-4.5,0-6.4,2.4-3.8,1.8-5.6-1-3-2.4,2.2-2.6,2.2-3.8-1.1-.8-1.9-1.3-5-1.3-6.9,0-4.5-1.8-7.2-3.8-6.1-4,2.4,2.9,25,11,35.7l5.6,7.7-3.8,3.7c-3.8,3.7-9,4-9,.5s-1.1-2.6-2.6-3.7c-1.6-1.4-2.6-3.8-2.6-6.7s-.6-4.5-1.3-4.5-1.3.8-1.3,1.9-.6,1.9-1.3,1.9c-2.4,0-4-5.1-3-10.4.8-5,.6-5.3-1.8-4.6-2.7.6-3.4,0-5.4-7-.6-2.1-.5-3.8,0-4.3.6-.3,1.1-2.4,1.1-4.6,0-3.4-.3-3.7-1.9-2.4s-2.2.6-4.5-4c-3-6.7-3.2-13.6-.6-22.1,1.1-3.4,1.9-9.6,1.9-13.8,0-8,3.7-20.3,7.2-24.3,4-4.5,8.8-2.2,5.8,2.6-1.4,2.2-.3,5.3,1.8,5.3h0ZM922.9,338.6c-.5,1.6-.8,3.5-.8,4.5s-.8,1.6-1.9,1.6c-1.9,0-2.6-3.4-1.1-6.9,1.3-3.4,4.8-2.6,3.8.8ZM944,310.5c-.2-1.6.2-2.9,1-2.9,2.1,0,7.4,6.2,9.8,11.7,1.3,2.7,2.7,5,3.4,5s1.1,1.1,1.1,2.6-.8,2.6-1.8,2.6c-2.7,0-15-13-13.9-14.6.5-.8.8-2.7.5-4.3h0ZM990.2,320.4c-.3-.3-1,0-1.3,1-1.1,3-2.9,1.6-2.9-2.2s2.1-5.1,4.8-2.4c2.6,2.6,3.2,0,1-4.2-2.4-5-1.1-7,2.9-4.2,2.2,1.6,2.7,2.9,2.1,5.4-1.1,5-7,15.8-9.3,17.8-1.1.8-2.7,1.6-3.7,1.6-2.6,0-1.9-2.2.8-3.2,2.6-.8,7-8.5,5.6-9.6ZM1000.1,368.1c0-2.4.6-2.9,3.2-2.7,3.2.3,3.8,1.6,2.4,5.4-1.6,4-5.6,2.1-5.6-2.7h0ZM1004,381.2c0,1.1-.6,1.9-1.3,1.9s-1.3-.8-1.3-1.9.6-1.9,1.3-1.9,1.3.8,1.3,1.9ZM1002.5,358.5c-1.3-2.9-1.1-4,0-5.3,1.3-1.1,1.8-1.1,2.2,0,.8,2.4,4.2,1.9,4.2-.5s-1-3.2-2.2-4.5q-2.1-2.4,1.6-2.1c3.2.3,3.8,0,4.3-2.7.3-1.8,1.3-3.8,2.4-4.6,1.8-1.3,1.8-1.9-.8-5.4-1.6-2.2-3.4-3.7-4-3.4-3.4,2.1-11.2,24-13,36-1.1,7.5-1,10.9.6,17.9,1.1,4.8,2.4,12.3,2.9,16.6.5,4.5.6,8,.3,8s-2.6-4.6-5.3-10.2c-4.8-10.2-7-21.8-7.2-35.2,0-7,4.5-17.6,11.5-26.9,2.1-2.9,5.3-8.6,7-12.8,3-7.5,3.2-7.7,8-7.5h4.8v11.5c0,10.9-.3,11.8-5.9,23-6.2,12.3-8.8,14.1-11.4,8h-.2ZM994.2,333.7c-.5-2.1,0-2.9,2.1-3.4,2.2-.6,2.6-1.3,1.9-3.5-.6-1.8-.5-2.6.3-2.1.6.5,1.9,0,2.9-1.1,1.3-1.4,1.3-2.2,0-3.8-1.6-1.9-.8-4.5,1.3-4.5s1.8,1.4,2.4,3.2c1.4,3.7-.3,7.8-8.8,19.8-7.8,11.2-8.3,11.7-7.2,6.4.5-2.4,1.9-5.3,3.4-6.4,1.6-1.3,2.2-2.9,1.8-4.6h0ZM1012.3,301.2c1.8,0,7,7,6.7,9-.3,2.1-5,3.4-6.4,1.8-1.1-1.1-1.3-10.7-.2-10.7h-.2ZM1024.8,363.9c-2.2,0-8,12.8-8.2,18.1,0,3.2-1.6,8.8-3.7,13.3-3.2,6.9-3.7,7.4-4.3,4.5-.5-1.8-.2-7.2.5-12,1.1-6.9,1-9-.2-9.8-2.7-1.8-.5-10.7,6.4-24.6,3.5-7.4,6.6-14.6,6.6-16,0-4.6,2.2-4.2,3,.8,1.1,6.7,1,25.9,0,25.9l-.2-.2ZM1024.5,375.8c-1,1.6-2.2,4.3-2.7,6.1q-1,2.9-1.1-1.3c0-4.6,2.9-10.1,4.6-8.5.5.5,0,2.2-.8,3.7ZM1017.3,429c-1.9-2.1-2.1-2.4-.3-1.8,1.1.5,2.4,1.6,2.7,2.6,1,2.4.3,2.2-2.4-.8ZM1008.5,437.2c1.9-.6,5.8,2.7,6.2,5.4.3,1.3.8,3.8,1.3,5.8.6,2.7.3,3.7-1.8,4.8-3.5,1.9-3.4,1.9-5.9-3.5-2.2-5.1-2.4-11.8,0-12.5h.2ZM1015.7,458.3c1-.3,2.4,1.9,3.7,5.3,1.1,3.2,3.8,7.8,6.1,10.2,2.2,2.4,4,5.1,4,6.1s0,1.6-.3,1.6c-1.1,0-8.6-6.9-8.6-7.8s-1.4-3.5-3.2-6.2c-3.5-5.6-4-8.5-1.6-9.3v.2ZM1029.6,394.6c0,.6-.6,1.3-1.3,1.3s-1.3-.6-1.3-1.3.6-1.3,1.3-1.3,1.3.6,1.3,1.3ZM1028.5,289.7c0-1.8.3-2.4.6-1.6s.3,2.2,0,3.2c-.3.8-.6.2-.6-1.6ZM1028.6,413.5c.5,2.2.5,4.2.3,4.2-1,0-1.6-1.9-2.4-7-1-6.1,1-3.5,2.2,2.9h-.2ZM1028.5,456.6c.5-1.9,1-1.4,2.7,2.6,2.9,6.7,2.2,10.2-1,4.3-1.3-2.4-2.1-5.6-1.8-6.9h0ZM1029.6,299.3c0-1,.6-1.9,1.3-1.9s1.3.8,1.3,1.9-.5,1.9-1.3,1.9-1.3-.8-1.3-1.9ZM1032,266.6c-.8,0-1-.6-.6-1.3.5-.6,1.1-1.3,1.4-1.3s.5.6.5,1.3-.6,1.3-1.3,1.3ZM1033.4,249.7c3-8.2,7.8-13.8,11.4-13.8s3.4,1.4,0,4.6c-1.4,1.3-5,5.8-7.7,9.8-6.9,10.2-7.7,10.1-3.7-.6ZM1039.8,230.3c-3.5,4-6.7,8.5-7.2,9.9-.5,1.4-2.2,4.3-3.8,6.2-1.6,1.9-3.4,5.6-3.8,8-1.1,6.1-2.6,6.6-4.3,1.6-1.4-4.6-.6-9.4,3.7-18.1,3.4-6.9,16.6-21.3,16.6-18.1s.2,2.1,2.4.2c1.3-1.1,3-2.1,3.8-2.1,2.2,0,0,3.7-7.5,12.3h.2ZM1033.4,211c-.6.6-1.4,2.6-1.6,4.3s-1.1,3.4-2.1,3.7c-1,.3-1.3-.2-.8-1.4.5-1.4,0-2.1-1.9-2.1s-2.7.8-2.7,3.2-.6,3.5-1.3,4c-.8.5-1,1.9-.6,3.2.5,1.6-1,5.3-3.8,10.2-3.8,6.6-4.5,9-4.5,15.5s.6,8.8,1.4,10.4c.8,1.4,1.9,4.3,2.4,6.2.6,1.9.5,4,0,4.3-1,.6-2.7-3.7-4.3-11-.5-1.9-1.9-3.7-3.4-4-2.2-.6-2.6-1.8-2.6-9.8,0-13.9,3.7-20.6,21.3-38.9,1.9-1.9,3.8-3.5,4.5-3.5,1.4,0,1.3,4.3,0,5.8v-.2ZM1013.6,298.6c-1.6,1.3-1.9,1.3-1.9-.5s-.6-2.1-1.4-2.1-1.3,1.6-.8,4.2c.3,2.2.3,5.9,0,8-.6,3.4-1.3,3.8-5,3.8s-4.2-.5-4.2-3.5,1-4,2.4-4.8c1.3-.8,3-3,3.8-5.1.8-2.1,2.2-3.8,3.2-3.8s2.2-1,2.6-1.9c.5-1.1,1.3-1.6,2.1-1.3,1.9,1.1,1.6,5.3-.6,7h-.2ZM999.5,294.8c-1.1,0-1.9-1.1-1.9-2.6,0-3,1.9-3.4,3-.5.5,1.1.8,2.2.8,2.6s-.8.5-1.9.5ZM999.7,304.2c-1.1,2.7-2.4,2.6-4.5-.6-1.3-1.9-1.3-3-.3-4.2,1.9-1.9,5.8,2.1,4.8,4.8ZM980,323.4c-.5-1.1-.5-2.2,0-2.7,1-1,4.6.5,4.6,1.9,0,2.1-3.8,2.7-4.6.8ZM983.5,344.6h0c0,3-6.1,2.9-7.8,0-.8-1.6-.5-2.2,2.1-2.9,4-1,5.6,0,5.6,3l.2-.2ZM982.7,367.8c-1.4,0-6.1-15.4-5-16.5,1.3-1.3,4.5,3.8,4.5,7.4s.3,4.6.8,6.1c.5,1.6.3,2.9-.3,2.9v.2ZM898.7,329.8c-.8-1.4,3-9.9,4.5-9.6.5,0,1,.5,1,.8,0,1.9-4.8,9.8-5.4,8.8h0ZM900,439.1c-1.3-.8-2.2-2.7-2.2-5.3q0-3.8,2.4-1.8c1.3,1.3,2.7,3.4,3,4.6.8,3-.5,3.8-3.4,2.2l.2.2ZM939.5,581.4c1.4,0,1.8,1,1.6,3.5-.5,3.5-4,5.4-5.4,3-1.1-1.9,1.6-6.6,3.8-6.6h0ZM954.5,557.5c-.5,1.9-1.4,3.4-2.1,3.4-2.1,0-2.6-3.5-1.1-6.4,1.9-3.7,4.3-1.4,3.2,3ZM951.5,569.8c.6,0,1.3,1,1.3,2.2s-.6,3-1.3,4.2c-1,1.4-1.3,1-1.3-2.2s.5-4.2,1.3-4.2ZM954.7,615.9c1-.8,2.2-1.1,2.9-.6.6.3.8-2.1.5-5.6-.3-4,0-6.4.8-6.4,2.2,0,3,2.4,3.5,9,.3,5.9,0,6.2-3.8,8.2-4.8,2.2-5.3,2.2-9.4.6-3.7-1.4-2.9-4.5,1.1-4.2,1.6.2,3.7-.3,4.6-1.1l-.2.2ZM960.5,599.3c-1.3,0-2.6-1-3-2.1-1.1-3-.8-28.3.6-36.3.6-3.8,1.8-12.5,2.6-19.2,2.1-19,5.8-32.3,11.7-42.6,2.9-5.1,6.4-10.4,7.7-11.7,1.3-1.4,2.6-4.2,3-6.1.5-1.9,1.6-4,2.4-4.8s2.9-5.3,4.6-10.2c1.6-5,3.4-9,3.7-9s3.4,5.6,6.9,12.5c3.4,6.9,7.2,14.6,8.6,17s2.6,5.6,2.6,7.2.8,3.8,1.9,5.1c1.8,2.4,1.9,2.2,2.1-1.4v-7.7c-.3-3.8-6.7-20.6-10.1-25.9-1-1.6-1.3-2.9-.5-2.9s2.9,2.7,4.8,6.1c14.7,25.8,17.4,33.9,20.5,60.8,1.1,9.8,2.6,19.2,3.4,21.1q1.4,3.4,2.2-2.1c.5-3,1.4-6.1,2.4-7,2.1-2.1,1.9-3.5-.3-3.5s-2.1-2.2-2.7-6.1c-.8-5.3-.5-6.4,1.8-8.2,3-2.6,3.5-4.3.8-3.2-1.1.5-1.9,0-1.9-1s-.3-2.7-.8-3.8c-.5-1.4,0-2.4,1.9-2.9,3.5-1,3.5-2.2-.3-4-1.8-.8-3.4-2.9-3.7-5-.8-4.5,0-6.1,2.4-4.2,1.4,1.1,1.9,1,2.6-.5,1.1-2.9-.5-4.6-4-4.6s-3.7-1-4.6-3.2c-1.8-3.7-1.3-4.3,2.7-4.8,2.6-.3,3.7.8,6.9,7.4l3.8,7.7v26.2c0,24.6-1.8,41.9-4.2,40.5-.6-.5-1,15.2-.3,20.3.3,3.4,7.7-7.7,8.3-12.6,5.4-41.4,5.9-43,5.8-20.6,0,11.7-.6,15.8-2.1,17.4-1.6,1.8-1.8,3.2-.5,8.8,1.6,7.4,1.4,7.8-5.6,15.5-2.9,3-6.6,7.5-8.5,10.1-6.1,8.2-21.4,22.2-30.9,28.3-15.4,9.9-17.8,11.4-18.9,11.4-1.9,0-1.4-8.8.6-11.8,1-1.6,3.4-7.4,5.3-13,3-9,3.2-10.2,1.3-11.2-3.2-1.8-4-1.4-4.8,3-.5,2.2-2.1,8.8-3.5,14.4s-3.2,13.6-4,17.8c-1.1,6.7-1.9,8.3-7.5,13.8-3.5,3.4-6.7,6.2-7.2,6.2-1.9,0,.6-26.4,4.5-48.5.6-3.8,1-7.4.5-8-.3-.6,0-4.5,1.1-8.5,2.6-10.1,3.5-23.4,1.8-23-.8.2-1.9-1.8-2.7-4.5l-1.4-4.6-2.9,3.2c-3.5,4-3.7,6.4-.3,7.5,1.4.5,3,2.7,3.8,5.4,2.4,9,1.6,9.9-4,4.5-2.6-2.4-4-3-5-2.1-1,1-.8,1.9.5,3.2,2.4,2.6,5.9,9.4,5.9,11.8s-1.8,2.6-3.8,0c-.8-1.1-2.6-1.9-3.8-1.9h0ZM1049.4,347.9c2.7-.6,3.2-.3,3.2,2.2s-1.3,4.3-3,5.8l-3,2.7-1.4-3c-2.6-5.8-3-11.5-1.3-16.8q1.8-5,3.4-2.2c1.1,2.1,1.1,3.5.2,5.3-2.4,4.5-1.8,6.9,1.9,5.9l.2.2ZM1070.7,443.1c.6-4.5,3.2-4.2,4.2.3.5,2.2.3,4.6-.3,5.3-1.6,1.6-4.3-2.2-3.8-5.6ZM1068,427.3c0-7.4,1.1-8.5,5.4-5.3,2.2,1.8,2.9,6.4,1.4,10.2-.5,1.1-2.2,2.1-3.8,2.1-2.9,0-3-.5-3-7ZM1074.2,454.3c.8-.8,1.4-1.1,1.4-.8s.3,2.4.6,4.8c.6,5.1-.3,5.4-2.1.8-.8-2.2-.8-3.8,0-4.8ZM1071.7,405.4c-1.3-1.6-1.3-2.6,0-5.1,2.4-4.6,3.8-3.8,3.8,1.9s-1.1,6.4-3.8,3.2ZM1070.1,393c-4.2.5-4.5-1-1.1-5.1,2.7-3.4,3.5-3.2,4.2,1.4.3,2.7,0,3.2-3,3.7h0ZM1070.2,468.9c1.4,4.2,2.7,7.5,2.4,7.5,0,0-1.9-.5-4-1-2.4-.5-4.5-2.1-5.4-4.3-1-1.9-2.2-3.5-2.9-3.5s-1.3-.6-1.3-1.3,1-1.3,2.1-1.3,3-.8,4.2-1.9c1.9-1.8,2.4-1.1,4.8,5.8h.2ZM1070.1,545.5c-.5,1.8-.8,4-.8,4.8s-.6,1.6-1.3,1.6c-2.1,0-1.4-5.9.8-7.8,1.9-1.6,2.1-1.4,1.3,1.4ZM1070.2,566.6c-.8.8-3.7-6.1-3.7-8.5,0-4.3,2.4-2.2,3.2,2.9.5,2.9.6,5.4.5,5.6ZM1067,537.2c-1-2.7.3-5.8,2.7-5.8s1.9,1.3,1.9,3.8c0,4.2-3.4,5.4-4.6,1.9h0ZM1066.5,502c-.6,0-1.3-.8-1.3-1.9s.6-1.9,1.3-1.9,1.3.8,1.3,1.9-.6,1.9-1.3,1.9ZM1062.2,576.2c-1.4,1.1-1.8.3-2.2-4.5-.3-3.2,0-6.6.5-7.4s1,0,1,2.1.6,4.6,1.3,5.9c1,1.8.8,2.7-.5,3.8h0ZM1020.3,634.8c-4.8,4.3-7.4,5.3-7.4,2.9s.5-1.3,1.1-1.3,5.6-4.3,11.2-9.6c5.6-5.3,10.7-9.6,11.4-9.6s5.4-4.2,10.7-9.3c10.2-10.1,10.4-9.9,1.4,3.5-3.2,5-7.5,11.7-9.3,14.9-3.7,6.4-18.9,22.9-21,22.9s-3.5,3.2-6.4,7c-2.7,3.8-5.8,8-6.6,9.3-1.1,1.6-1.6,1.8-1.6.3,0-2.1,11-23.2,13.3-25.1.8-.8,4.2-4.2,7.2-7.7,5.9-6.4,4.3-5.8-4.2,1.6v.2ZM1054.1,497.7c-1.3-3.4-1.3-5.3-.3-6.2s1.6-.3,2.2,1.9c.5,1.8.6,4.5.3,6.2-.3,2.4-.6,2.2-2.1-1.9h-.2ZM1053.9,424.4c1-.3,2.9-1.6,4.2-2.7,2.6-2.2,4.2-1.4,3,1.6-.5,1.3-2.2,1.9-5,1.9s-3.4-.5-2.2-.8ZM1054.4,452.1c-1.4-7,2.2-6.6,3.8.5.6,2.7.3,3.5-1.1,3.5s-2.2-1.6-2.9-4h.2ZM1056.5,434.2c0-2.1,2.4-3.7,5.3-3.7s1.1,1.8,1.1,3.8-.6,3.8-2.4,3.8c-2.9,0-4-1.1-4-3.8v-.2ZM1062.7,448.2c-1.8,0-3-3.4-1.9-5.1,1.3-1.9,3.2-.3,3.2,2.6s-.6,2.4-1.3,2.4v.2ZM1059.7,414.8c-2.7,1.3-3.4,1.1-4.6-1.1-1.6-2.9-1.6-2.7,2.1-4.8,2.9-1.4,5.6,0,5.6,3s-1.4,2.1-3.2,2.9h.2ZM1057.9,397.5c-2.9,2.6-4,2.7-5,0-.8-1.9,4-8.3,6.2-8.3s1.1,5.9-1.3,8.2v.2ZM1056.1,386.2c-5.1,3.5-8,1.6-6.4-4.5.8-3.2,6.9-9,8.3-8,.5.3,1,2.9,1,5.6s-.8,5.4-2.9,7v-.2ZM1052.1,533.7c-.3,1.3-.6,0-.6-2.9s.3-3.8.6-2.2.3,3.8,0,5.1ZM1048.8,480.9c.6.5,1.3,1.3,1.3,1.9s-.5,1.1-1.3,1.1-1.3-1-1.3-1.9.6-1.6,1.3-1.3v.2ZM1046.9,438.3c-1.1-1.8,0-3.7,1.3-2.4s.5,1.4.2,2.4c-.5,1.3-.8,1.3-1.6,0h.2ZM1056.8,366c-.3,1-2.4,2.7-4.5,3.8q-4.2,2.1-5.4-5.6c-.6-3.4-.3-4.2,1.4-4.2s3.4-.3,5-.8c2.1-.5,2.9,0,3.4,2.1.3,1.6.3,3.7,0,4.6h.2ZM1046.1,411.9c.5,2.2.6,3.7.6,4.8h0c0,1.6-.5,2.2-1.4,3-2.4,1.9-4.2,2.1-4.2.5s1.3-1.6,2.9-2.4l2.7-1.3h0l-2.7-.8c-3.2-1-5.4-9.1-3-11.4,2.1-2.1,3.7.3,5.1,7.5ZM1044.5,474.5c-.5-.5-1-2.4-.8-4.2v-3.4l1.3,3c1.3,3.4,1.1,5.9-.5,4.5h0ZM1039.5,450.6c.3,3,0,4-1.6,4s-1.9-1.3-1.9-4.6c0-5.8,3-5.3,3.5.5v.2ZM1035.5,437.2c-1.3-1.3-1-5.6.5-5.6s1.3,1.4,1.3,3.2c0,3.4-.3,3.7-1.8,2.4ZM1040.3,459.8c1.1,0,1.9.6,1.9,1.3s-.5,1.3-1.3,1.3-1.6-.6-1.9-1.3c-.5-.6,0-1.3,1.3-1.3ZM1039.7,385.7c-.8,0-1-.5-.6-1.3.5-.6,1.1-1.3,1.3-1.3s.6.5.6,1.3-.6,1.3-1.3,1.3ZM1037.7,378c-2.9,3.2-4.3,3.2-4.3,0s4.5-5.9,5.8-3.8c.5.8-.2,2.4-1.4,3.8h0ZM985.1,658.8c10.6-11.2,19-17.4,21-15.5,1.3,1.3-1.8,7.4-3.7,7.4s-22.9,21.1-26.1,26.4c-1.3,2.1-4.2,5.4-6.4,7.4-4.8,4-5.6,4.2-5.6,1s6.6-11.4,20.8-26.4v-.2ZM1000.9,671.4c.6.6-1.8,5.3-4.5,8.8-1.9,2.2-6.6,3-6.6,1.1s10.2-10.7,11-9.9h0ZM994.9,663.4c1.3-2.2,4-.6,3,1.9-.3,1.1-1.3,1.9-1.8,1.9-1.8,0-2.4-1.9-1.3-3.7v-.2ZM986.5,676.6c-.5,1.1-1.3,2.1-2.1,2.1-1.8,0-.6-2.9,1.3-3.5,1-.3,1.3.3.8,1.4ZM971.8,704.2c-2.1,0-1.1-2.6,2.6-6.7,2.1-2.2,5.4-6.1,7.5-8.5,3.4-3.8,4.2-4.2,5.9-2.7,2.7,2.2,1.9,4.3-1.9,5.3-2.4.6-3,1.6-3,4.5s-.5,3.8-4.2,4.2c-2.4.2-4.6,1.3-5,2.2-.3,1-1.3,1.8-1.9,1.8h0ZM1072.1,527.6c-3.8,0-4.2-4.5-.5-6.4,3-1.6,3.2-3.7.5-5.6-1.4-1-1.8-2.6-1.1-5,1.1-4.3,2.2-4.3,5-.3,1.8,2.6,1.8,4.2.6,10.2-1.3,6.2-1.8,7.2-4.5,7.2v-.2ZM1076.5,499.4c-1.6,0-3.4-5.9-2.6-8.8.5-2.1,0-3-2.7-4-4-1.4-4.3-4-1-7q2.9-2.6,7,9c2.4,6.6,2.9,9,1.6,9.8-.8.5-1.9,1-2.6,1l.2.2ZM1017.1,171.3l3-6.4,1.9,6.4c3,9.8,3.7,14.9,2.1,16.8-2.1,2.6-4.2,2.1-7.4-1.3-3.5-3.8-3.5-7.7.2-15.7l.2.2ZM1014.2,133.2c.8.8,1.3,2.1,1,2.9-.6,1.9-2.4.2-2.4-2.4s.3-1.6,1.4-.5ZM1002.9,127.4c1.6.5,1.8.8,5.9,10.1,7.4,16,7.5,19.8,1.6,31.8-5.8,11.7-4.2,23,3,23s3.4.6,3.8,1.3c1.3,1.9-3.2,3.2-5.9,1.4-1.3-.8-2.7-1.4-3-1.4-1.3,0-.6,4.6.8,6.1,1.1,1.1.6,2.1-2.1,4.3-3.8,2.9-7,9.4-7,13.9s.5,2.4,2.4,1.3c1.3-.6,2.7-2.7,3.2-4.5.5-1.8,3-4.8,5.8-6.9,2.7-1.9,6.6-5.4,8.5-7.7s4.5-4,5.8-4,2.1-.6,1.6-2.9c-.6-2.7-.5-2.7,1.6-.8,2.9,2.7,1.9,4.3-16,24.6-9.4,10.7-10.2,12.5-11,25.6-.8,13.6-.5,14.7,8.2,30.6,6.1,11.2,6.7,13.6,3,13.6s-9.4-10.6-11-17.3c-.5-2.1-2.1-5.8-3.4-8.3-2.2-4-2.2-4.6-.5-5.9,1.8-1.3,1.8-2.2,0-9.6-1-4.5-1.6-10.4-1.3-13.1.8-7.2-1.8-4.2-3.7,4.5l-1.6,6.9-1-7.8c-.8-7-.6-8.6,2.4-14.6,4.3-8.6,2.6-11.4-3.4-5.4-3.7,3.7-4,4.6-4.3,14.7-.5,17-.3,16.3-3.4,12.8-3.5-4.2-3.2-1.9.6,4.3,1.8,2.9,3.2,6.1,3.2,7.4s.6,2.2,1.3,2.2c2.2,0,11.5,19.8,11.5,24.6s-1,2.2-2.6,2.2-2.6.8-2.6,2.2-1.1,5.4-2.6,9.3c-1.4,3.8-2.9,8.2-3.2,9.4-.3,1.4-1.4,3.4-2.6,4.5-1.8,1.8-2.2,1.8-4.6-1.3l-2.6-3.2.8,3.4c.5,1.9,1.1,4.3,1.4,5.3,1,2.6-4.5,4.5-5.9,1.9-2.6-4.3-5-6.7-5.8-5.9s.3,3.2,1.8,5.9c3,5.4,3.5,9.1,1.4,11.2-1,1-.8,2.2.8,4.8,1.8,2.7,1.9,3.7.6,5.3-2.4,2.9-4.6,2.2-8.3-2.6-3-3.8-3.4-5.1-2.6-10.7l.8-6.2-11.7-11.8c-11.8-12-15.2-16.8-16.6-23.7-.5-2.1-1.4-4-2.4-4.3-2.2-.8-.6,9.4,2.2,14.4,1.3,2.1,2.6,5.9,3,8.5.5,2.6,1.6,5.4,2.7,6.2,2.4,1.9,2.4,5.3,0,4.3-1-.3-3.7-4.5-5.9-9.3-2.2-4.6-4.6-9.6-5.3-10.7-.6-1.3-1.1-3-1.1-4s-1.1-3.2-2.6-4.8q-2.6-3-2.6-.3c0,3.2-4.5,9.3-5.9,7.8-.5-.5.3-4.5,1.8-8.6,1.4-4.2,2.1-7.7,1.4-7.7-2.7,0-5,9.1-5.6,22.2-.5,9-5.8,18.1-13,22.1-6.6,3.7-7.8,3.7-5.3-.2,1.1-1.8,1.6-3.4,1-3.8-.6-.3-1.4-3.5-1.8-7.2-.3-3.7-1.6-7.5-2.9-9-3.4-3.7-3.5-2.6-.6,3.2,2.9,5.6,3.4,10.9,1,10.7-5.6-.5-7.8-2.1-9.4-6.9-1-2.7-1.6-4-1.6-2.6.2,7.2,0,7.5-2.6,5.3-1.3-1.3-2.7-3.8-3.2-5.9-1-4.6-3.4-5.1-3.4-.6s-.5,3-3.4,2.7c-3.8-.5-9.4-6.1-9.4-9.6s-.8-2.2-2.2-2.2c-5.1.3-2.1-20.2,4.3-28.8,1.8-2.2,2.7-4.5,2.4-4.8s-1.3,0-1.9,1.1c-2.4,3.8-1.3-4.5,1.3-9.6,1.4-2.7,2.6-7.4,2.6-10.4s.8-5.9,1.9-6.9c1.6-1.3,1.9-1,1.9,2.2s-.6,5.4-1.3,7.4c-.8,1.9-1.8,5.8-2.4,8.5-1.4,6.6,1.1,4.6,4.3-3,1.3-3,3.2-7.4,4.2-9.6,2.7-5.6,1.4-17-2.7-25.9-2.1-4.5-3.4-9.3-3.4-13.1,0-7.7,2.1-7.8,3.2-.2.5,3.4,2.7,8.6,5.1,12.3,2.4,3.5,4.3,6.7,4.3,7.2s1.9,3.2,4.5,5.9c2.4,2.9,5.8,7.5,7.4,10.6s3.4,5.4,3.8,5.4c1.4,0,1.1-5.6-.3-9.8-1.6-4.3-1-5.1,2.9-2.7,1.6,1,5.1,2.2,7.7,2.7,6.7,1.3,9.8,3.7,7.7,6.1-1,1.1-2.7,1.6-4.3,1.3-2.6-.6-2.6-.3.8,4,3.8,5.1,5.4,6.1,3.4,2.2-.8-1.3-1.3-2.7-1.3-3.2,0-1.3,8.3,1,10.6,2.9,3.4,2.9,1.9,4.8-3.2,4.3l-4.5-.3,1.8,6.7c1,3.7,1.8,9,1.8,11.7v4.8l5.4-2.7c4.8-2.4,5.1-2.9,3.2-4.3-1.4-1.1-1.8-1.9-1-2.4,2.6-1.6,1.3-3.2-2.4-3.2s-6.1-2.7-4.5-5.3c1.1-1.8,5.4-1.4,6.1.5.3,1,.6.3.8-1.4,0-2.6.5-2.9,3.4-2.2,2.9.8,3.5.2,5.8-5,1.4-3.2,3-5.8,3.7-5.8s1.9-1.8,2.7-3.8c1.9-4.6,10.7-12.8,13.8-12.8s4.5-1.1,7.4-2.6,5.9-2.6,6.9-2.6c2.4,0,14.1-7.8,17.9-12,2.6-2.7,3.8-3.2,7.2-2.6,3.5.6,4.5.2,6.6-2.9,4-5.8,4.3-7.7,1.6-10.9-1.4-1.6-2.2-3.7-1.9-4.5.3-1,0-3.4-.8-5.6-1.1-3.2-1-5,.6-8.6,4.8-10.7,4.8-18.4,0-33.8-2.2-7.2-2.4-10.4-.3-9.8l.6.5ZM858.1,226.3c0,2.4-1.8,2.4-3.7,0-1-1.3-1.1-2.1-.2-2.7,1.8-1.1,3.8.3,3.8,2.6v.2ZM856.1,191.1c.5-.6,1-1.3,1.3-1.3s.5.6.5,1.3-.6,1.3-1.3,1.3-1-.6-.6-1.3h.2ZM854.7,215.6c-.3.6-1.3,1.1-1.9,1.1-1.6,0-1.6-4.8,0-5.6,1.4-.8,3,2.9,1.9,4.5ZM858.9,233.8c1.6.6,1.9,1.8,1.1,5.6-1.1,6.1-2.1,6.9-4.8,5-4.5-3.4-1.4-12.3,3.7-10.4v-.2ZM863.5,212.1c.6-3,7.4,10.2,7.4,14.6s-1.6,3.8-3.5,1.3c-1.9-2.4-4.5-13.1-3.8-15.8h0ZM892.1,161.5c1.9,2.7,2.2,2.7,5.1.8,1.8-1.1,3.7-1.8,4.3-1.3,1.9,1.3,1.4,5.1-1.1,7.5-3.8,3.4-8.2,2.6-12-2.2-3.7-4.6-4.8-12.2-2.2-16.2,1-1.6,1.6-1.4,4.2,1.1,2.1,2.1,2.4,3.2,1.3,3.7-2.2.8-1.9,3,.5,6.6h0ZM913.7,187.3c-1,0-3.7-2.6-5.8-5.6-4.3-6.2-4.6-7.2-2.2-7.2s2.9,2.2,4.5,5.1c1.6,2.9,3.7,5.1,4.5,5.1s2.6,1.1,3.8,2.6c1.1,1.4,3.7,2.6,5.4,2.6s3.2.8,3.2,1.9c0,2.4,3.4,2.6,4.8,0,1.3-2.4,7.5-3.8,8.6-2.1,1.3,2.1,4.5,1.8,4.5-.5s1.3-2.2,2.9-2.7c3.8-1.1,7.4-4.3,7.4-6.9s6.2-7.2,8-5.4c1.1,1.1.8,2.4-.8,5.3-1.8,2.9-1.9,4.3-.8,5.6.8,1,1.1,3.2.6,5.1-.5,2.1-.3,3.4.6,3.4s1.4-.5,1.4-1c0-1.6,7.4-5.6,8.2-4.3.5.6-1,2.7-3,4.5-2.1,1.8-3.8,3.5-3.8,4,0,1.4,3.5.6,5.1-1.1.8-1,2.4-1.4,3.4-1.1,3.4,1.3,1.9,4.2-3.4,6.9-2.9,1.4-5.9,3.7-6.7,5.1-.8,1.4-2.9,2.6-4.5,2.6s-3.4,1.1-4.2,2.4c-.6,1.3-4.5,4-8.5,5.8-6.6,3-8.5,3.2-22.6,3-8.5-.2-15.7-.8-16-1.3-.3-.6,0-1.9,1-2.9,2.2-2.7.5-3.7-2.9-1.6-1.6,1-3.7,1.6-4.5,1.3-1.9-.6-2.1-5-.3-6.1.6-.5,1.3-1.8,1.3-2.7,0-1.6-.3-1.8-1.9-.5-3,2.4-5.9.6-5.6-3.5.2-1.9-.2-4.2-1-4.8s-1.8-3-2.2-5.1c-.8-3.4-.6-3.5.8-1.8,2.1,2.7,10.6,6.2,12.2,5.1,1.6-1.1,3.4-7.8,1.9-7.8s-1.8.6-2.9,1.3-2.7.6-3.8,0c-2.6-1.3-7.2-9.8-6.1-10.9,1.4-1.4,6.1,2.1,6.1,4.6s.8,2.6,1.9,2.7c1.1,0,2.7.3,3.5.3s2.6,1.1,3.8,2.4c2.7,2.7,6.1,2.9,6.1.3s-.8-1.9-1.9-1.9l-.2-.2ZM960.9,94.2c.5-.5,4.6,6.6,4.6,8s-.8.6-1.8.6c-1.6,0-4-7.4-2.9-8.6h0ZM930.2,234.5c-1-1.4,1.1-4,3.5-4.5,1-.2,2.9-.8,4.5-1.1,3.4-1,3.7.3.8,4.3-2.1,3-7.5,3.8-9,1.4l.2-.2ZM933.6,242.6c0,.8-.5,2.4-1.1,3.4-1,1.4-1.4,1.3-2.6-.8-1.9-3.7-1.8-4.2,1.1-4.2s2.6.6,2.6,1.6ZM977.1,205.7c0-1.3,6.7-8.2,8-8.2s0,1.4-1.1,3.2c-2.1,3.2-6.9,6.6-6.9,4.8v.2ZM998.1,178.6c.8-.8,3.4,5.3,3.4,8s-.5,1.9-1.1,1.9c-1.3,0-3.2-8.8-2.2-9.9h0ZM996.5,99.6c.6-2.7,2.9-2.9,3.4-.3.3,1.4-.3,2.2-1.8,2.2s-1.9-.8-1.8-1.9h.2ZM991.7,129.2c1.1.5,2.1,1.4,2.1,2.4s2.1,3.8,4.5,6.7c2.4,2.9,4.5,5.4,4.5,5.9s-1,1.6-2.2,2.9c-1.6,1.6-1.8,2.4-.6,2.7,2.1.6,2.1,3.2-.5,11.4-1.1,3.7-2.6,6.9-3.2,6.9-1.4,0-1.3-1.4.3-6.2.8-2.2,1-5.1.3-6.2-.6-1.3-1.1-4-1.3-6.1-.6-6.7-1.3-9.3-2.7-11.2-.8-1-1.9-3.7-2.4-5.9-.6-3.4-.5-4,1.3-3.2h0ZM974.4,61.8c1.3,0,2.7,3,2.7,5.9s-1.6,2.4-3,1c-1.3-1.3-1-6.9.3-6.9ZM971.2,47.6c1.3,1.4,1.9,2.7,1.3,2.7-2.1,0-11-6.1-9.9-6.7,1.6-1,5.9,1,8.6,4ZM934.4,20.9c5.3,0,14.6,10.1,14.6,16s-3.2,1.9-7-4c-2.1-3.2-5.8-6.9-8-8.2-4.5-2.4-4.3-3.8.5-3.8h0ZM871,34.6c1.6-3.4,5.9-6.4,7.7-5.3,2.4,1.4,1.1,4-3.4,6.1-5.8,2.7-5.9,2.7-4.3-.8ZM874.1,43.4c1-.3,1.8-1.4,1.8-2.4s1.6-2.4,3.5-3.4c1.9-.8,5.1-2.4,7.2-3.4,4.5-2.2,17.8-2.4,19.8-.2,1.3,1.3,1.8,1.3,2.9-.3,2.1-3.2,1.4-4.5-3-6.1-5.6-2.1-11.8-1.9-15.4.3-4,2.6-9.9,3.7-9.9,1.9,0-2.7,6.7-7.5,13.9-9.9,3.8-1.3,5-1.1,10.9,1.9,3.7,1.9,7.8,4.6,9.4,5.9,2.4,2.1,3.4,2.2,5.9,1.1,6.7-3,14.4,1.8,20.3,12.5l2.2,4.2,8.3-.8c6.9-.6,8.2-.5,7,1-1.1,1.3,0,2.7,4.5,6.6,3.4,2.7,5.3,5.1,4.5,5.4-1.8.6-9.9-3-11-5-1.3-1.9-4.5-1.4-4.5.8s5.4,7,10.7,9c2.2.8,4.2,2.6,4.3,3.8.8,4.3,5.3,9.4,8.3,9.4s7.2,8.3,4.2,10.7c-1.9,1.4-1.6,2.6,1.8,12.3,2.4,6.9,3.5,9,3,5.8-.5-2.9-1-7.7-1-10.9,0-5,.2-5.8,2.4-5.8s2.6,1,2.9,15c.3,12.6,0,15.2-1.6,15.8s-1.9,3.4-1.8,16.3c0,8.5-.2,16.8-.6,18.4-.6,1.8-.5,2.9.3,2.9s1.4-2.2,1.6-4.8c.2-2.7,1-4.6,1.8-4.5.6.2,1.1,2.4,1,5-.2,2.6.3,5.3,1,6.1.6.8,1,3.4.6,5.8-.3,2.4,0,5.3.6,6.4s1.4,6.2,2.1,11.4l1,9.3h-3.4c-3,0-3.4-.5-3.4-4.3s-.6-4.8-1.3-5.1c-1.1-.6-1.9,1.3-2.9,7.5-.5,2.9-2.9,4-4.2,2.1-.5-.8-.6-5-.5-9.3.3-5.4,0-8-1.1-8.3s-1.6,1.1-1.6,5.1c0,6.4-.8,8-3.2,5.6s-.6-13.3,2.2-20.3c1.1-2.6,2.4-7.8,2.9-11.8.8-6.1.6-7.2-1.1-7.2s-2.1,1.1-2.1,3.2-.6,3.2-2.6,3.2c-3.2,0-3.2-2.6-.6-11,5.3-16.6,5.8-19.8,4.2-25-1.8-5.9-5.8-7.2-4.3-1.4,1.3,5.1.8,13.4-.8,15.4-2.6,3.2-3.7,1.6-3.7-5.4s-.6-8.2-1.4-9.4c-1.3-1.9-1.1-3,.8-5.9,3.5-5.4,3-10.9-1.4-18.1-7.5-11.8-8-12.3-11.4-11.7-3.5.6-5.4-1.3-2.4-2.4,2.9-1.1,2.4-4.3-1.1-7.2-2.1-1.6-3.2-3.8-3.2-6.2s-.5-3.7-3.5-3.8c-1.9,0-4.6-.5-5.9-1-2.2-.8-2.1-1.1,1.1-3.8,3.4-2.7,3.5-3,1.4-5-2.4-2.4-6.7-2.6-20.8-1-8.6,1-9.1.8-12.5-2.4-1.9-1.9-4-3.2-4.8-2.7-.6.5-3,3.7-5.3,7-3.8,5.9-4.5,6.4-10.9,7.2-9.8,1.3-11.2.3-8.5-4.5,2.9-5.1,1.3-6.4-3.7-2.9-2.2,1.6-4.2,2.7-4.5,2.4-1-1.1,2.2-8.5,4-9.1h.3ZM956.6,85.7c0,4.2-2.2,3.8-3.8-.3-1.4-3.8-1.1-4.6,1.8-3.5,1.1.5,2.1,2.2,2.1,3.8h0ZM932.6,64.9c-1.6,1.6-4,1-11.8-3.4-8-4.3-9.6-7-3.8-6.4,1.8.2,5,.5,7,.6,2.7.2,3.8,1,3.7,2.6,0,1.3.3,1.9.8,1.6,1.3-.8,5.4,3.8,4.3,4.8l-.2.2ZM870.5,83.3c5.6-5.6,6.7-8.2,3.4-6.9-1.6.6-1.8,0-1.1-2.7q2.2-9.1,9.9-8.3c7.5.8,13.4-.8,18.1-5,2.6-2.4,2.9-2.2,11.8,2.7,8.2,4.5,22.1,9.1,27.4,9.1s2.4,2.2,3.4,6.4c.8,3.5,4.3,10.9,7.7,16.3,4.5,7.2,6.4,11.8,7.2,16.8.8,6.4.8,6.7-1.8,5.9-2.1-.6-2.7,0-3.4,2.7-.5,1.9-1,4.3-1.3,5.1s.3,1.8,1.4,2.2c1,.3,1.8,1.4,1.8,2.2s1,2.2,2.2,3c1.9,1.3,1.9,1.9.5,3.7-1.4,1.8-1.4,2.4.6,4.6,1.9,2.1,2.1,3,.8,5.1-1.3,2.1-1.1,2.9,1,4.6,2.2,1.9,2.4,2.4.6,4.3-1.3,1.4-1.4,2.4-.6,3,1.9,1.3.2,7.2-3.2,10.9-1.6,1.8-3.4,4.8-3.8,6.6-.5,2.1-2.1,3.8-4.3,4.6-1.9.6-4.5,1.6-5.9,2.2-1.9.8-2.2.6-1.6-1.1,1.1-3-.8-2.7-5.1.8-7,5.8-6.2,6.1-21.1-7.4-5.8-5.1-4-5.9,3.8-2.2,4.2,2.1,9,3.4,11.2,3.2,2.1-.2,4.8-.3,6.1-.5,1.3,0,2.2-.6,2.2-1.4s-1-1.1-2.2-.6c-2.9,1-9.6-1-10.2-2.7-.3-.8,1.9-2.2,5-3,5.6-1.8,11.2-7.7,14.7-16.3,2.4-5.8,2.4-11.7,0-11.7s-1.9,1-1.9,2.1c0,4.2-4.3,10.9-8.8,13.6-2.6,1.6-5.6,4-6.7,5.4-1.9,2.4-2.4,2.4-7.7.8-3-1-7-2.7-8.8-3.8-1.8-1.1-6.1-3.8-9.6-6.1s-7.7-5.6-9.3-7.5c-5.3-6.6-12-16-11.5-16.3,1-.5,9.6-3.4,10.4-3.4s1.1,1.6,1.6,3.7,1.8,4.2,2.9,4.5c2.4,1,4.5-1.8,3.4-4.5-.5-1.1-1.1-3-1.4-4.5s-2.6-5.1-5-8.2-4.3-6.1-4.3-6.6-2.6-3.7-5.8-6.9c-5-5.1-6.1-5.8-7.8-4.3-1.6,1.3-2.1,1.3-3,0-1.4-2.2.3-5.4,4.5-8.6,6.9-5.4,1.1-6.4-6.1-1.1-5.8,4.2-5.8,1.3,0-4.6v-.2ZM877.9,114.3c-1,1.6-2.9,1.8-3.8.2-.3-.6.3-1.4,1.4-1.9,2.6-1,3.7-.2,2.4,1.8ZM857.9,82.3c.2,4.8,0,9.1-.8,9.4-1.8,1.1-6.7-4.6-6.7-7.8s1-4.3,2.1-6.4c2.6-4.3,1.6-8-2.1-8s-3.5-7.7,1.3-12.2c3.8-3.7,5-7.5,2.7-9-.6-.5-1.6,0-1.9.6-1.3,2.1-3.2.2-3.2-3.2s1.8-4.5,5.1-7.2c5.8-4.5,7.5-4.3,5.3.8-1.8,3.8-1.9,12.2-.3,12.2s3.4,12,2.9,15.4c-.2,1.1-1.3,3-2.4,4.3-1.6,1.8-1.9,4.3-1.8,11h-.2ZM855.5,114.5l5.1-2.7v3.2c0,1.8-.8,3.2-1.8,3.2s-3.7.3-5.9.8c-5.4,1.1-4.3-1,2.6-4.5ZM853.7,159q6.2-6.2,2.6-6.2c-3.7,0-3.5-.3-2.7-3.8.8-3.2.5-3.8-1.8-3.8-4.2,0-4.5-2.2-1-5.8s4.2-5.9.6-8c-1.4-.8-2.6-2.4-2.6-3.4,0-1.9,7.4-5.9,10.6-5.9s3.7,3,2.7,5.6c-.3,1,.2,2.1,1.3,2.6,1.1.3,2.2,2.9,2.7,5.6,1.1,5.9,5.1,10.6,9.1,10.6s3.8,2.9,0,5.6l-2.9,2.1,3,.8c2.7.8,2.9,1.4,2.4,5.8-.6,4.3-.3,5,1.9,5s2.4.6,1.8,1.9c-.5,1.1.3,2.6,1.8,3.5,2.7,1.6,3.4,4.2,1.4,5.3-.6.3-3.2,1-5.8,1.3-3,.3-6.2,2.1-9,4.8-2.4,2.2-4.5,4.8-4.8,5.6-.5,1.4-5,1-5-.5s6.7-7.4,9.4-8.3c1.9-.6,2.1-1.1.8-2.7-2.2-2.7-3-2.4-9.1,3.2-5.1,4.8-8.8,6.6-8.8,4s1.9-2.7,4.5-4.6c2.4-1.9,4.5-4.3,4.5-5.1s1.1-2.6,2.6-3.8c3-2.9,3.2-4.5.5-4.5s-4.3,2.2-7,5.1c-2.7,2.9-5.4,5.1-6.2,5.1-2.7,0-1.3-3.2,2.6-5.8,3.7-2.6,6.1-6.6,4.6-8-.3-.3-2.7.8-5.1,2.7-7,5.3-7,1.4,0-5.8h.3ZM841.3,218.3c.6-1.3,2.4-3.4,3.8-4.6,2.6-2.2,2.7-2.2,3.5,0,.6,1.6,0,3-2.1,4.6-3.8,3.2-7,3.2-5.3,0h0ZM841.4,227.1c2.4-2.1,5.4-3.8,6.6-4,2.4,0,4.3,3.7,2.7,5.3-.6.6-3.8,1.4-7.4,1.8l-6.4.8,4.5-3.8ZM836.9,238.3c1.4-2.2,12.2-6.6,13.4-5.4,1.9,1.9,0,6.4-3.5,8-6.1,2.7-12.3,1.1-9.9-2.6ZM783.8,159.8c1.6,1,1.6,19.4,0,22.4-.8,1.4-1.8,2.4-2.4,2.4-1.6,0-2.4-9-1.1-14.7,2.1-10.1,2.4-11,3.7-10.2l-.2.2ZM764,169.4c1.1-5.3,6.1-13.8,11-19,3.8-4.2,4.2-4.3,5.8-1.9,2.2,3,2.2,4.5,0,4.5s-3.5,3.5-5.9,7.8c-2.2,4.3-5.4,9-6.9,10.2-4,3.4-5,2.9-4-1.4v-.2ZM766.2,186.2c-.6-6.1-.3-6.7,3.7-10.7,2.4-2.2,5-5.4,5.8-6.7,2.4-4.2,1.9,15.5-.5,21.4-3.4,7.8-8,5.8-9-4h0ZM768.5,202.6c0,.6-.6,1.3-1.3,1.3s-1-.6-.6-1.3c.5-.6,1.1-1.3,1.3-1.3s.6.6.6,1.3ZM753.6,175.8c.3,0,.8.8,1.3,1.9.3,1.1.2,1.9-.5,1.9s-1.3-.8-1.3-1.9.2-1.9.5-1.9ZM759,204.2c3.2,2.7,3.5,3.8,3.8,13.4.2,5.8-.2,10.9-.8,11.2-1.1.6-5-6.9-5-9.6s-4.5-11.4-7.4-17c-1.1-2.2,6.2-.6,9.4,1.9h-.2ZM746.1,212.9c1.3-1.4,2.7-2.2,3.4-1.9s2.2,4.6,3.8,9.4c2.1,6.7,2.6,9.9,1.8,14.2-1.3,6.6-3,5.6-3-1.8s-1-7.5-5.6-14.1c-2.2-3.2-2.2-3.5-.2-5.9h-.2ZM748.8,248.1c-1.1,7.7-3.2,7.5-3.4-.3,0-7.2-3.8-14.7-7-13.6-1.8.6-1.8,1.1,0,3.7,1.8,2.7,1.8,3.5-.6,9-1.9,4.3-3,5.6-4,4.6-2.6-2.6-.8-16.5,3.4-25.4,1.4-3.2,6.1-3.8,8.3-1.3,2.2,2.7,4.5,17.1,3.5,23.4h-.2ZM824.8,390c-2.6,3-5.1,2.4-5.1-1.3,0-6.4-3.2-2.4-3.5,4.5-.3,5.9-.8,6.9-4.5,9.1-2.2,1.4-5.3,2.6-6.7,2.6-2.7,0-8-5.6-15.4-16.6-2.2-3.2-6.6-9.6-9.9-14.4-9.1-13.1-11.7-24.2-13.6-57.3-.8-12.3-2.1-24-3.4-28.2-2.2-7.5-7.2-16.6-10.2-19.2-2.4-1.9-2.4-5.1,0-10.4,1-2.2,2.6-6.2,3.5-8.6,1.6-4.3,1.8-4.3,2.4-1.3.5,2.1,1.6,3.2,3.2,3.2s2.6-1,2.6-5.3,1-6.6,4.2-10.6c5.4-6.7,6.2-11,3.2-17-2.7-5.1-2.4-7.5,1-7.5s12.5,15.2,9.1,17.3c-.8.5-1.1,2.9-.6,5.9.6,4,.3,5.1-1.3,5.9-1.3.5-1.9,1.9-1.8,3.5.2,1.4-.2,3.5-.8,4.6-.6,1-1,3.5-1,5.4.2,2.9-.5,3.8-3,4.8l-3.4,1.3,3.2,2.9c2.6,2.4,3.4,4.6,4,12.3.5,5.1,1.4,10.4,2.1,11.5.8,1.4.6,3.8-.2,6.9-1.6,5-.6,7.4,1.8,5s2.1-1,3.8.6c3,2.7,2.9,5.8-.2,7.8-1.4,1-2.6,2.7-2.6,4.2,0,3,1.1,3.2,5,.5,1.6-1.1,3-1.8,3.2-1.6,1,1.4,3.4,7.8,3.4,8.8s-1.1,1.3-2.4,1.3-2.7,1.1-3.2,2.9c-1.6,6.1-.8,6.6,3.5,2.4,4-3.8,4.3-4,6.2-1.9,4.6,5.3,5,7.5,1.6,10.7-3.2,2.9-4.2,6.4-2.1,6.4s2.1-1.4,3.2-3.2c4.6-7.2,8.8-1.1,5.3,7.5-2.6,6.2-1.6,7.2,2.4,2.6,1.8-2.1,3.5-3.2,4.2-2.7,1,1-.8,12.5-2.6,18.2-.5,1.4.3.5,1.8-2.1,1.4-2.6,3.2-5.1,3.8-5.4,1.8-1.1,3.2,12,1.6,13.8-2.2,2.2-1.6,3.7,1.3,2.7,3.8-1.3,6.1,1.3,7.7,9,1.3,5.4,1.3,7.4,0,8.8l-.8-.3ZM835.3,385.4c-.3.8-1.3,1.6-2.1,1.6-1.8,0-6.2-15.2-5.1-17,1.4-2.4,8.3,12.2,7.2,15.4ZM847.8,371c-.8.5-1.3-1.1-1.3-3.8s-.6-5.9-1.4-7.4c-3.2-5.9-10.4-16.2-11.5-16.2-1.8,0-1.4,6.1.6,9.3,1,1.6,2.7,6.9,4,11.8,1.1,5,2.7,9.8,3.5,10.6,1,1.1,1,2.1,0,3-1,.8-1.8,0-2.9-2.9-2.9-7.8-5.9-12.5-12-18.7-9.8-10.2-9.9-10.7-2.6-36.6,5.6-20.2,6.4-22.9,8.2-29.4,1-3.5,1.9-14.4,2.4-24.3l.6-17.9,5-2.4c4.6-2.2,5.3-2.2,9.3-.3,3.5,1.6,4.3,2.7,4.3,5.9s0,3.8-6.1,3.5c-4.6-.3-6.1,0-6.1,1.6s1.8,2.2,4.8,2.7c5.8,1,6.7,1.6,5.6,4.5-.6,1.4-1.8,1.9-3.8,1.3-4.2-1.1-5.6,1.6-2.4,4.2,2.9,2.2,4.6,7.4,2.9,8.5-.6.3-2.2,0-3.5-.6-1.4-.8-3-.8-4.2,0-1.6,1-1.4,1.4.6,3,1.3,1,3.2,1.9,4,1.9,1.9,0,3,2.9,3,7.4s-.3,3.2-5.1,2.4c-7.4-1.1-7,2.4.3,4.3,5.9,1.4,8.6,4.2,8.6,8s-.6,2.4-6.4,1.8-6.4-.5-6.4,1.8,1.1,2.7,3.5,3.2c6.7,1.3,9.8,3.8,11.5,9,1,2.9,3.2,8.6,4.8,13.1,5.6,14.4,3.4,17.3-3.4,4.3-2.1-4-4.8-8.5-6.1-9.8-4.3-5-12-10.9-13.8-10.9-3.5,0-1.9,3.5,3.2,6.9,6.2,4.2,7.7,6.4,13.4,20.5,3.5,8.8,4.3,11.8,3.2,13.8-2.1,3.8-3.5,3-4.5-2.4-1.1-6.6-3.2-10.1-9.4-17.3-7.2-8.3-12.6-12-14.6-10.1-1.1,1.1.8,3.5,7.2,9.4,7.5,6.9,9,9.1,11.2,16.2,2.7,8.8,3.2,16.2,1.3,17.4l.2-.2ZM849.7,411.6c3.2-1.3,6.1,2.1,5.1,5.9-1.3,5-2.7,5.8-5,2.4-2.6-3.7-2.7-7.4,0-8.3h-.2ZM844.8,426.2c1.6-4.2,8.2-1.6,8.2,3.2s-4.2,2.6-8.6-1c-.2,0,0-1.3.5-2.4v.2ZM836.3,451.1c6.4-17.9,5.9-17,9.9-16,1.9.5,4,1.3,4.6,1.9,1.8,1.6-1.6,4.8-5.4,5.3-4,.5-5.4,4.5-2.2,6.9,2.6,1.9,1.3,5.8-1.9,5.8s-2.4.6-1.6,5c1,5.9-.6,7.4-4.2,3.8l-2.6-2.6,3.5-9.8-.2-.3ZM824,504.6c-2.7,0-2.9.5-2.2,3.2,1,3.7-2.4,8.3-5.9,8.3s-2.1.8-1.6,2.4c1,3.5-5,9.8-8,8.6-3-1.1-3.8-.8-3.2,2.2.5,2.9-3.5,7.4-10.9,12.5-5.6,3.8-7.5,4.5-8.6,2.6-.8-1.3,13.1-23.4,20.8-33,2.9-3.5,6.7-9.6,8.5-13.4,3.4-7.2,4.2-8.6,9.9-17.4,1.9-3,3.5-5.8,3.5-6.2s1.3-2.7,2.7-5.1c2.6-4.2,2.7-4.3,5.8-2.1,3.4,2.4,4.3,8,1.3,8s-2.4,1.8-.6,5.1-.8,4.6-3.7,2.1c-2.9-2.7-4-2.6-4,.3s1.4,3.7,3.2,5.3c3.8,3.7,4.2,6.4.5,6.4s-2.6.5-1.9,3.4c1,4.2-1.1,6.9-5.3,6.9h-.2ZM784.6,677.4c-1.3,4-1.9,4.5-5.6,4.2-4.3-.3-5.9,2.6-2.2,4,1.8.6,1.6,1.4-1,6.1-1.6,2.9-4.6,6.4-6.7,7.7-5.6,3.5-10.6,3.2-11.7-.6-.6-2.4,1.8-7.2,10.9-21.8,6.4-10.2,11.7-19,11.7-19.5s2.4-4.6,5.4-9.3c3-4.6,6.1-9.6,7-10.9,3-5.1,11.8-23.4,11.8-24.6s.8-3,1.9-5c4.5-8.6,9.9-21.4,11.5-27,1-3.4,3.7-13,6.2-21.4,9-30.2,10.9-37.1,11.7-43.5.5-3.5,1.9-9.9,3.2-14.1s3.5-12.8,5.1-19.2c5.4-23,4.8-21.8,11.5-21.8s10.1,1.9,5.8,9c-1.9,3.2-4.6,6.1-5.9,6.4-1.4.5-2.2,2.1-2.2,4.2s-1.3,6.1-2.7,9.1c-1.4,3.2-3.4,9.4-4.3,14.1-1,4.6-2.4,8.5-3,8.8-.8.3-1,2.4-.5,5.3.6,4.3.3,5.1-2.4,7-2.9,1.9-3,2.4-1.8,5.9,1.1,3,1.1,4-.3,5-1,.6-1.9,3.2-2.1,5.9,0,3.4-1.1,5.4-3,6.9-1.9,1.4-2.4,2.6-1.4,3.2,2.7,1.8,1.6,8.2-1.8,10.4-2.7,1.8-2.9,2.4-1.6,4.5s1,3.5-1.9,9.1c-1.9,3.7-3.5,8.3-3.5,10.1s-.5,3.7-1.1,4.2c-.6.3-1.4,2.7-1.9,5.1-.5,2.6-1.8,4.6-2.9,4.8-1.4.3-2.1,2.1-2.2,5.8-.2,3.5-1.3,6.4-3,8.3-1.4,1.6-2.7,4.3-2.7,5.9,0,3.8-2.2,7.8-4.5,7.8s-2.6,2.7-.6,4.6c2.2,2.2,0,6.9-3.4,6.9s-3,.6-3,2.4.5,2.9,1.1,3.2c.6.5.6,2.6-.2,5.3-1.1,3.7-1.9,4.5-5,4.5s-4.8,2.1-1.4,4.6c2.1,1.6,2.1,1.8-.5,5.3-1.4,2.1-4.2,3.8-6.1,4-4,.5-4.3,1.9-1,3.5,2.2,1.1,2.2,1.6,1,5.6l-.6.2ZM848.3,611.3c3.5-3,4-3,4.5-1.1.3,1.3-1.3,3.8-3.5,5.9s-4.5,3.7-5.1,3.7c-2.2,0,.5-5.3,4.3-8.5h-.2ZM845.3,595.4c0-.6.6-1.3,1.3-1.3s1.3.6,1.3,1.3-.6,1.3-1.3,1.3-1.3-.6-1.3-1.3ZM850.4,591.4c0-2.9,5.8-9.9,8-9.9,3.7,0,2.6,4.2-2.2,8-5,3.8-5.8,4.2-5.8,1.9ZM852.3,602c-.5-.8-.2-2.4.6-3.4,2.7-3.4,8.6-7,9.4-5.9.3.6-1.6,3.2-4.3,5.9s-5.3,4.3-5.8,3.4h0ZM851.7,581.8c-4.2,2.7-5.1,2.7-5.1-.3s1.4-3.4,3.4-4.5c1.8-1.1,4.3-3.2,5.8-4.6,2.9-2.9,6.2-3.4,6.2-.8s-5,6.7-10.2,10.2h0ZM857.7,563c-.8,1.1-3.2,3.7-5.1,5.9-3.4,3.8-3.5,3.8-3,.8.3-1.8.6-3.8.6-4.6s1-1.6,1.9-1.6,3-1.3,4.5-2.9c2.7-3,3.7-1,1,2.2l.2.2ZM828.6,658.3c-1.4,2.6-5.1,3.4-5.1,1.1s.6-2.6,1.4-4c1.1-2.1,1.8-2.2,3.2-1.1,1.3,1.1,1.4,2.1.5,4ZM832.8,649.5c-1.9,1.9-3-.8-1.8-4.3l1.1-3,1,3c.5,1.6.3,3.5-.3,4.3ZM834.2,601.8c-2.1,0-2.2.6-.3,3.5,1.8,2.9-1.8,11.8-4.6,11.8s-2.6,1.9-.6,3.2c1.8,1.1,1.6,7.7-.3,9.3-.8.8-2.7,1.6-4.2,1.9q-2.4.6.5,1.6c2.4.8,2.9,1.6,2.1,4.3-1,4-2.9,5.4-6.6,4.5-1.8-.5-3,0-3.5,1.4-.6,1.4,0,2.4,1.8,2.7,3,.8,3,1,1.3,4.3-.8,1.4-2.7,2.4-4.5,2.4-3.4,0-4.3,2.2-1.3,3.4,1.4.6,1.1,1.9-1.9,7.7-4.3,8.2-12.3,19.4-16,22.6-3.4,2.9-7,2.9-7,0s1.6-5.6,15.4-34.2c3.5-7.2,6.6-15.5,7-19.2.5-3.5,2.1-9,3.7-12.2s3.7-8,4.5-10.9,2.1-5.8,2.6-6.4,1.9-5,3.2-9.6c1.1-4.5,2.6-9,3-9.6.5-.6,1.8-4.6,2.6-9,1-4.2,2.4-8.8,3.4-10.2,1.6-2.4,3.2-8.2,5.6-18.7.5-2.6,1.4-5.3,2.1-6.2.6-1,1.4-3.5,1.9-5.6l.8-4,2.1,5c2.9,6.9,2.7,8.6-1.8,12.8-4,3.8-4.6,5.3-2.6,6.6.6.5,1.3.2,1.3-.6s1-1.3,2.1-1.3c2.9,0,1.3,6.4-2.1,8.8-1.9,1.4-2.2,2.2-1.1,4.2,1.4,2.9-.5,7.5-3.2,7.5s-1.8,1.6-1.6,4.8c.2,9.9-1.9,23.4-3.7,23.4l.2.2ZM840.9,845.7c.5,1.1,0,2.6-1,3.2-2.7,1.8-4,1.4-3.2-.8.5-1.1.8-2.6.8-3.2,0-1.9,2.6-1.3,3.4.8ZM835.5,852.7c.5.3,0,2.7-.6,5.1-2.1,6.2-3.7,7.5-3.7,2.9s3-9.4,4.3-8ZM787.7,955.1c0-1.4.6-2.7,1.3-2.7s1.3.8,1.3,1.9-.6,2.2-1.3,2.6c-.6.5-1.3-.3-1.3-1.8ZM795.5,970.3c-2.2,0-5.3-4.8-5.3-8.3s1-3.7,4,3.2c1.3,2.9,1.8,5.1,1.3,5.1ZM809.1,969.4c-1.3-.3-2.2-1.4-2.2-2.7,0-2.7,3.7-4.5,5.4-2.7.6.6,3.5.8,6.6.5,2.9-.3,4.8-.2,4.3.5-1.8,1.8-11.7,5.1-14.1,4.6v-.2ZM817.1,1011.9c.6-.5,1.3-.2,1.3.5s-.6,1.6-1.3,2.1c-.6.5-1.3.2-1.3-.5s.6-1.6,1.3-2.1ZM842.4,1033.8c-.8.8-1.1.2-2.7-5.1-.5-1.8,1.4-4.6,3.2-4.6s.8,1.9.6,4.5c0,2.4-.5,4.8-1,5.3h-.2ZM866.9,996.4c-.3,1.3-1,2.1-1.6,1.9s-1.9,1.1-2.9,3.2c-2.4,4.6-5.1,4.5-6.1-.5-1-5.1-4.2-4.3-3.5.8,1.1,8.3,1,8.8-2.7,8.6-1.9,0-3.4.2-3.4.6.5,3.4-.3,4.3-2.1,2.7-1.6-1.3-1.9-1.1-1.9,1s-1.4,4-3.2,5.9c-2.9,3.2-3,4.2-2.4,12.2.5,6.9.3,9.1-1.3,10.4-1.8,1.4-1.9,1.1-1.9-1.8,0-4.8-2.2-4.2-2.7.8-.3,3.4-1,4.2-3.2,3.8-2.1-.2-2.9.6-3.5,3.5-.5,2.7-1.8,4-4.2,4.6-2.2.5-3.7.3-4-.6-.3-.8-1-1.4-1.6-1.4s-.8.8-.5,1.8c.8,2.2-3.5,4.8-5.8,3.4-1.3-.8-1.3-1.8,0-4.3,1.3-2.9,1.1-3.8-.6-5.8-1.1-1.3-2.1-3.5-2.1-5s-1.1-3-2.6-3.5c-2.2-.6-2.4-1.6-1.8-5.4.6-3.5,2.4-6.2,7.4-10.7,5.8-5.3,6.7-5.8,8-4,.8,1.1,2.2,1.6,3,1.1,2.9-1.8,10.2-14.6,9.6-17-.3-1.4,1.4-5,4.5-9.1,2.9-3.7,5.1-7.4,5.1-8,0-1.6,1.8-1.6,3.5.2.8.8,2.4,1.1,3.7.6,1.9-.8,1.9-1.1-.8-4-1.6-1.8-2.7-3.4-2.4-3.5.3-.3,5-.2,10.4,0,9.8.5,12.6,1.8,7.2,3.2-3.7,1-2.4,4,1.8,4.5,3.5.5,4.8,2.7,1.4,2.7s-1.9,1.1-1.9,3c0,4,1.3,5,3.5,3.2,1.4-1.3,1.8-1.1,1.4.8h0ZM842.4,969c2.4,0,5.4,1.4,5.4,2.7s-3.4,1.3-5.1-.8c-1-1.1-1.1-1.9-.3-1.9ZM855.5,972.2c0-1.3,1.3-1.9,3.2-1.9s3.2.8,3.2,1.9-1.3,1.9-3.2,1.9-3.2-.8-3.2-1.9ZM875.8,968.4c-2.2-2.7-1.1-2.9,5.3-.5h0l5.8,2.2h-4.8c-2.6,0-5.4-.8-6.2-1.8h0ZM890.2,982.5c-2.9-3.8-5.3-7.2-5.3-7.7s1.3-.6,2.9-.6,3.7-.6,4.5-1.4,1.8-.6,2.7,1.9c.8,2.1,2.2,3.4,3.8,3.4s2.6.8,2.6,3.7-1,4.3-3,5.8c-3,1.9-3.2,1.9-8.3-5h.2ZM902.2,997.2c-2.1,0-4-2.4-2.9-3.5,1.1-1,4.6.6,4.6,2.1s-.8,1.3-1.8,1.3v.2ZM888.9,963.9c-1-.8-3.4-1.1-5.6-.6-2.4.5-4.6,0-5.9-.8-1.6-1.3-2.1-1.3-2.4,0-.8,2.2-2.7,2.1-5.3-.5s-2.1-4.3-2.1-9.6-.5-7.5-1-7.5c-1.9,0-4.8,5.8-5.3,10.7-.3,2.7-1.1,5.4-1.8,6.1-1.6,1.6-10.4,1.9-14.9.6-3-.8-3.5-.6-3.5,1.8,0,4.2-3.2,3.2-5.6-1.9-1.4-3-2.9-4.3-4-3.8-1,.3-4.5-1-7.5-3-3-2.1-6.2-3.8-7-3.8-1.8,0-1.8-4.5,0-7.8.8-1.6,1-3.2.2-4-.6-.8-1.1-4.3-1.1-7.7,0-6.9-.3-7.8-3.4-6.6-1.4.5-1.8,1.3-1,2.2.8,1,.8,3.7,0,7.2-.6,3.2-1.6,8-2.1,10.9s-1.3,4.5-1.8,3.8c-1.6-2.6-1.4-13.9.2-17.3l1.6-3.2-3.4,3c-3.8,3.5-6.6,11.5-4.6,13.4.6.6,1.3,2.6,1.3,4.2s.6,3.2,1.3,3.7c2.4,1.4,1.3,3.4-1.6,2.9-2.2-.3-3-1.4-3.2-4.5-.5-5.3-4-5.8-4.2-.6,0,5.8-2.2.8-3.4-7-.8-6.2-.5-7.2,2.6-10.2,1.8-1.9,3.4-4,3.4-4.8,0-1.3,3.8-5.3,17.8-19,4.3-4.2,7.8-8.3,7.8-9.3s.6-1.9,1.3-2.2c.8-.5,1.3,1.4,1.3,5.1s-.5,5.8-1.9,5.8c-2.7,0-2.7,9.8,0,10.7,1.3.5,1.8,1.8,1.4,3.2-.5,1.9.3,2.9,3.4,4,2.2.8,4.5,1.9,5.1,2.2,1.4.8-.3-10.2-1.9-11.8s-1.3-2.6-1.3-4.2.8-2.9,2.7-2.9,2.4.6,1.9,2.4,0,2.6,2.4,3.2c2.6.6,3.2,1.6,3.2,4.6s.5,3.8,3,3.8,3.4.6,3.7,1.6c.5,1.1,1,1,1.4-.6.6-1.6-1.3-5.1-6.2-12.2-9.9-13.8-11.8-18.2-12.8-31.4l-.8-11.2h5.6c5.3,0,5.6.2,5.1,3.2-.8,4.3,1,4,5.4-.6,2.1-2.1,4.2-3.8,4.6-3.8,1.8,0,1.1,4.8-.8,6.4-1.1.8-1.9,2.1-1.9,2.7,0,1.8,4.2,1.3,6.4-.8,1.1-1.1,2.9-1.6,4-1.3,2.6,1,13.4,18.2,14.9,23.7.6,2.4,1.6,5.6,2.1,7s0,1-1.1-1c-2.1-3.5-4.5-4.6-4.5-2.1s1.4,3.2,3,5.4,3.4,5.4,3.8,7.2c.8,2.9.6,3-.8.8-6.1-9-10.6-12-9-5.9.5,1.9.2,2.4-1.4,1.8-3-1.1-2.6,2.4,1.1,9.4,3.7,7,4.3,10.4,1.3,8-3.8-3.2-3.2-.3,1.3,6.6,2.4,3.8,4.5,8,4.5,9.4,0,4.5,12.5,15.2,16.3,13.8,1.8-.6,2.2-3,.6-2.7-3.4.5-5.6-.6-7.4-3.8-2.7-5.3-2.4-5.8,1.9-2.6,2.9,2.1,4.8,2.6,7.7,1.9,5-1.1,4.8-2.4-.3-3.8-3.7-1.1-4.2-1.8-4.5-6.7-.5-6.4,1-6.9,6.4-2.2,3.4,2.9,4.6,3,10.7,2.4,6.4-.8,6.9-.6,6.9,1.8,0,4.8-2.4,9.1-6.4,11-3.5,1.8-5.4,5.8-2.9,5.8s4.2,2.2,3,5.6h0c-1.9,5.1-8.8,3.8-16.5-3l.2-.5ZM844,854c-.6,0-1.3-.6-1.3-1.4s.6-1,1.3-.5c.6.5,1.3,1,1.3,1.3s-.6.6-1.3.6ZM846.7,861.2c0,.5-.6,1.1-1.4,1.4s-1.3-.2-1-1c.5-1.6,2.2-1.9,2.4-.5h0ZM866.9,916.7c-1,0-1.3-.3-.8-.8,1.4-1.4,6.9,3,9.9,8.2,1.6,2.7,3.7,5.6,4.6,6.6,1,1,1.6,2.4,1.6,3.4s.8,2.4,1.9,3.2,1.9,2.4,1.9,3.4c0,1.9-2.1,2.4-3,.6-.3-.6-2.7-2.1-5.1-3.2-2.9-1.4-4.8-3.4-5.3-5.6-.5-1.9-1.9-5-3.2-6.7-1.3-1.9-1.9-4.5-1.6-6.1.5-1.8,0-2.7-1-2.7v-.2ZM933.1,855c-1.1-4.3-1-4.8,1.1-4.8s1.9,1.3,1.9,3.8c0,4.5-1.9,5.1-3,1ZM940.1,861.4c1.1,1.1.8,2.9-1.3,7.4-1.4,3.2-3,5.9-3.4,5.9-1.8,0-1.9-4.3-.5-8,2.2-5.6,3.5-6.9,5.3-5.1l-.2-.2ZM940.9,877.5c.6.8-3.8,7.4-6.7,9.9-3,2.6-4.5,2.9-4.5.8s10.4-11.5,11.2-10.7ZM933.6,902.3c0,.6-1.3,2.2-2.9,3.8-4.8,4.5-6.4,3.2-2.7-2.1,1.9-2.7,5.8-4,5.8-1.8h-.2ZM934.4,900.9c-.5-2.9,0-4.8,1.8-6.9,1.3-1.6,2.7-2.9,3.2-2.9,1.6,0,.6,5.8-2.6,14.7-2.6,7.2-4.5,10.2-8.3,13.3-2.7,2.2-5.3,4-5.6,4-1.6,0-.5-2.2,2.6-5.3,6.1-5.6,9.8-12.6,9-17h0ZM925.1,936.9c-1.1,1.9-3.5,4.5-5.1,5.8q-3,2.2-3-.3c0-2.6,1.9-4,4.3-5.8,5.4-4.2,6.6-4.2,4,.3h-.2ZM918.5,957.2c.6.3,0,2.1-1.8,3.8-3,3.2-5,4-5,1.8s5.4-6.4,6.7-5.6h0ZM906.1,983.1c-1.3-2.1.6-4,3.4-3.2,1.9.6,2.4,0,2.4-1.8,0-2.7,3.4-6.2,4.6-5s-4.2,8.5-6.6,10.1c-1.9,1.3-3,1.3-3.8-.3v.2ZM911.2,997.2c-.5.8-1.4,1.4-1.9,1.4-1.4,0-3-5-1.9-6.1s5,3.2,4,4.6h-.2ZM913.1,992.4c0-2.2,3.7-6.6,5.6-6.6s.8,4.8-1.4,6.9c-3,2.7-4,2.7-4-.3h-.2ZM921.4,1004.9c-1.4,2.2-5.6,4-6.4,2.9-.3-.6.3-2.6,1.8-4.2,1.9-2.2,2.9-2.7,4-1.4.8.8,1.1,2.1.6,2.9v-.2ZM948.1,990.8c-4.3,0-15.5,4-18.1,6.4-3.5,3.2-5.4,3.2-5.4,0s.6-2.4,1.6-2.1c.8.3,3-.6,4.8-2.2,3.7-3.2,14.2-6.6,17.3-5.3,2.6,1,2.6,3.4,0,3.4l-.2-.2ZM954.5,994.6c-1,0-1.9-.8-1.9-1.9s.5-1.9,1.1-1.9,1.4.8,1.9,1.9,0,1.9-1.1,1.9ZM955.8,961.4c-1.4,0-1.8-.3-.8-.8,1-.3,2.1-.3,2.4,0,.5.5-.3.8-1.8.6l.2.2ZM970.5,1001.2c-1.8,3.4-4,3-7.7-.8l-3-3.2h4c6.2,0,8.2,1.1,6.7,4ZM961.7,897.5c0-2.9.2-2.9,3-1.8,1.1.5,2.1,1.6,2.1,2.6s-1.1,1.8-2.6,1.8-2.6-.8-2.6-2.6h0ZM983.5,1003.4c-1,.3-1.4,0-1.1-1.1.3-1,1.3-1.9,2.2-2.2,1-.3,1.4.2,1.1,1.1-.3,1-1.3,1.9-2.2,2.2ZM994.2,997c-3,1.4-3.2,1.3-1.9-1.1,1.3-2.6,5.1-3.7,5.1-1.4s-1.4,1.8-3.2,2.6h0ZM1004,981.7c-1,1.9-2.7,2.7-5.6,2.7-5.4,0-7.4,1.4-7,5.1.2,1.8-.2,3-1,3.2-.6,0-2.4.6-3.8,1.4h0c-3,1.6-7.8,1.8-11.5.3-1.4-.6-4.6-1.4-7.4-1.8-4.5-.8-6.9-3.2-3-3.2s1.6-1.6,1.1-6.4c-.3-3.8,0-7,.8-8.2,1.1-1.3.8-2.2-1.1-4-3.2-2.9-3.2-4.5,0-4.5s5-5,2.7-6.4c-1.1-.6-.5-2.1,2.1-4.5,3.5-3.7,2.4-6.2-1.4-3.2-1,.8-2.4,1.1-3.2.6-2.4-1.4-1.4-4.6,2.6-7.8,2.4-2.1,3.8-4.5,3.8-6.4s-.3-3-1.9-1.8c-1,.8-2.4,1.1-3.2.6-1.6-1-1.8-4.5,0-4.5s6.9-10.9,6.2-13.6c-.3-1.9-1-1.4-2.9,2.4-3,6.2-5.9,6.4-5.9.3s.6-4.5,1.9-4.5c1.9,0,5.8-7,5.8-10.9s-.8-1-3,1.4c-3.2,3.7-5.9,3.4-5.9-.6s1.6-3,3.7-3.8c5.4-2.2,6.9-10.2,1.9-10.2s-2.2-.6-.3-3.7c1.8-2.9.5-7.2-1.8-5.8-1,.6-4,1.1-6.7,1.1-8.5.2-11,3.2-4.6,5.4,4.3,1.4,5.9,5.9,3.2,8.6s-2.4,1.9-3,1.9-1.3.8-1.3,1.9,1.1,1.9,2.7,1.9,2.4.5,1.4,1.6c-1.3,1.6-1.9,5.1-1.8,8.3,0,.8,1.1,1.6,2.1,1.6s1.9,1.1,1.6,4.2c-.3,3.2-1.1,4.3-3.2,4.5-3.5.5-3.5,1.4-.6,4.8,1.3,1.3,2.2,4.3,2.4,6.7,0,4,0,4.2-3.4,3.4-2.1-.5-3.8-.2-4.5.6-1.3,2.1,1.8,5.1,5.3,5.1,5.9,0,5.3,5.3-1,8-4.8,2.1-8.8,9.6-6.1,11.4,1,.6,2.6,1.1,3.4,1.1s1.6,1.1,1.6,2.6c0,2.2-.3,2.4-3.2,1-4.3-1.9-6.6,0-4.3,4.2,1.3,2.4,1.3,3.2-.5,4.5-1.1.8-2.1,2.4-2.1,3.7,0,2.1-2.4,2.7-8.3,2.2-1.4,0-4.2,1-6.1,2.6s-3.7,2.6-3.8,2.2c-1.9-2.2-3.2-6.6-2.4-7.8.6-.8,1.1-5,1.3-9.3.8-19.2,3.4-29,9.3-35.8,3.4-3.8,4.3-7.8,1.9-8.8-1.8-.6-1.4-1.8,1.4-7.5,1.9-3.7,3.8-6.9,4.5-7.2,1.6-.6,1.4-4.5-.2-6.1s3.4-15.8,6.1-17.4c2.4-1.4,2.1-3-1-3.8-2.4-.6-2.6-1.3-1.8-10.4.8-10.1.5-11.7-5.4-24.6-1.6-3.7-3-7.2-3-7.8s-.8-2.9-1.9-4.8c-1.6-3.2-1.6-3.8,0-5.8,2.4-2.7,2.4-5.1,0-5.1s-2.6-1.4-3.2-3.4c-1.8-4.6-1.6-5.6,1.1-5.6s2.7-1.1,3-2.6c.5-1.8,0-2.6-1.1-2.6s-3.4-1.4-5.1-3.2c-2.4-2.4-3.7-2.9-5-1.9-1,.8-3.2,1-5,.6-2.4-.6-3.4-.3-3.4,1.1s1.1,2.2,2.6,2.6c2.1.5,2.6,1.8,2.6,5.9s.6,5.6,1.8,5.9c1,.3,2.2,2.4,2.7,4.3s1.6,3.8,2.6,4.3c2.1.8,5,9.9,3.4,11-.5.3-1,5.3-1,10.9,0,16.6-1,23.4-3.7,25.4-2.1,1.4-2.2,2.1-.8,3.7,1.4,1.8,1.3,4-.5,11.2-.3,1.1-1.9,2.7-3.7,3.5-3.7,1.6-4.2,4.6-1.1,6.4,3,1.8,1.3,6.9-3.4,9.6-4,2.4-5.4,7.4-1.9,7.4s2.2.3.5,6.4c-1.1,4-2.4,5.1-6.7,6.9-7,2.7-9,2.6-12.8-.8-3.5-3.2-9.3-16.3-7-16.3s3.5,1.6,6.1,3.7c5.6,4.3,9.9,5.6,13.3,3.8,3.7-1.9,2.7-3.7-2.1-3.7s-5.9-1.3-10.7-5.4c-3.5-3-6.4-6.2-6.4-7.2s.3-1.4,1.4-.5c2.4,1.9,11.7,5,13.4,4.3.8-.3,1.6-1.3,1.6-2.2,0-1.4-2.4-2.9-9.3-5-2.2-.8-7-9.1-5.9-10.4.3-.3,3.7,0,7.4.8,5.3,1.3,7.2,1.3,9.1,0,2.1-1.3,2.4-1.1,2.4.5s1.1,1.9,2.7,1.9c4.8,0,1.8-3.2-5.1-5.4-6.6-2.1-10.9-5.8-12.3-10.4-1-2.9,0-4.2,2.2-2.4,1,.8,3,1.6,4.8,1.8,2.2.3,4,1.9,5.6,5.3,2.7,5.8,3.7,5.4,3.7-1.3s.5-5.8,1.1-6.9c.8-1.4,0-3.2-2.9-6.1-3.5-3.7-6.1-10.2-6.2-16,0-3.8,2.4-1.1,3.8,4.3,1.1,4.3,1.8,5,3.2,3.5,1.4-1.3,2.4-1.1,4.3.6,3.4,3.2,11.8,3.4,12.5.3.3-1.8-.3-2.2-3.4-2.2-4.6,0-11.7-7.4-11.7-12.3s1.9-3,4.6,2.7c2.9,6.2,4.8,5.6,4-1.1-.3-3-.2-6.4.3-7.4.6-1.1,0-3.8-1.3-6.9-1.3-2.7-2.7-7.4-3.2-10.1-1.4-7.2-9.4-22.6-12.3-23.4-1.3-.3-3.5-2.9-4.8-5.8s-2.9-4.6-3.2-3.8c-.5.8.3,2.9,1.8,4.6,1.4,1.8,2.2,3.8,1.9,4.6s.3,3.4,1.6,6.1,3,7.2,4,9.9c.8,2.9,2.4,7,3.5,9.3,1,2.2,1.6,5.4,1.4,7-.3,2.1-1,1.3-2.1-3.2-1.3-4.5-3-7.2-7.2-10.6-8.2-6.7-12.8-5.4-7,1.9,1.4,1.8,2.6,4.2,2.6,5.3,0,3.2,4,15.7,4.6,14.9.3-.3-.3-3.7-1.3-7.4-1.1-3.7-1.8-7-1.4-7.4,1.6-1.6,5.8,6.2,6.9,13.1,1.4,8.3,1.1,10.1-1.1,5.9-.8-1.4-2.2-2.7-3.2-2.7s-3.2-2.4-5.1-5.1c-1.9-2.9-4-4.8-4.6-4.5-1.9,1.1-1.4,3.4,1.3,9,3.7,7.2,5.3,13.8,3.4,13.1-.8-.3-1.8-1.6-1.9-2.9-.2-1.3-1.6-3.8-2.9-5.6l-2.6-3.2.8,5c.6,3.4.3,4.6-.5,4-.8-.5-1.3-1.6-1.3-2.7s-.6-1.9-1.4-1.9-1.1,1.4-.5,4.2c2.1,9.3,3.2,25.1,1.8,26.1-.5.3-1.1-2.4-1.4-5.9-1.1-11-3.2-10.2-2.6,1,1.3,19.2,1.8,40,1.1,40s-2.4-5-4.6-11c-2.2-6.1-4.6-12.3-5.4-13.8-1.9-3.7-10.6-15.2-17.3-23.2-2.9-3.5-6.2-9-7.5-12.2-1.1-3.2-2.9-7.2-3.8-9-4.3-8.3-5.6-25.6-1.9-25.6s4,5.6,6.9,15.4c2.1,6.9,6.9,15.4,8.6,15.4s1.8,1.8,2.9,4,2.4,3.7,2.7,3.2c.3-.3,0-2.1-1.1-3.7-4.6-7-9.8-17.6-11.8-24-1.3-3.8-3.2-9.1-4.2-11.7-1.3-3-1.6-6.1-1-8.8.8-3.5.6-4-1.1-3.4-3.2,1.3-2.6-2.1,1.1-5.4,3.2-3,4.3-9.8,2.4-14.6-1.4-3.8-3-1.9-2.9,3.4.3,9.6,0,10.4-1.9,8.6-1.1-1-1.6-3-1.3-5.6,2.4-19.7,3.7-27.5,4.5-27,.5.3.6,2.9.3,5.4-.5,4.2,0,5.4,2.7,8.3,4.2,4.3,5.6,4.3,6.6,0,1-4-2.4-12.3-7.4-18.2-4.2-5-4-4.2-1.8-8.6s1.8-6.7,1.4-11.4c-.3-6.2-.6-7.7-2.4-7.5-1.6,0-1.9-.5-1.4-2.9.5-1.8.2-3-.5-3s-1.3-3.8-1.4-8.6c0-4.8-.8-11.5-1.4-15-1.8-9.3-3.2-36.2-2.7-53,.3-10.9,1-16,2.7-20.2,1.3-3.2,1.9-5.4,1.3-5-.6.3-1.4.2-1.9-.5-.8-1.3,6.4-6.4,11.4-8.2,4.6-1.8,13.4-7.8,13.4-9.4,0-2.7-2.4-3-6.4-1-5.9,3-6.1,1.3-.5-3.8l5-4.6-4.8,2.6c-6.6,3.5-7.2,3.4-2.9-1.3,2.1-2.1,4.5-3.8,5.3-3.8s1.8-1.6,1.8-4.2.5-4.8,1.1-5.4c1.8-1.9,1.9-17.3.2-22.4-3-8.5-3.5-11.2-2.6-13,.6-1.1-1.4-6.7-5.3-14.6-7.5-15.4-7.5-18.4-.3-43,1-3.4,1.4-6.9,1-8-1-2.4,5.8-13,11.4-18.1,2.2-2.1,6.7-5.9,9.8-8.8,4.5-4.2,5.8-4.8,6.7-3.2,1.9,3,1.4,9-.8,9s-1.9-.8-1.9-1.9-.5-1.9-1.1-1.9c-1.8,0-2.7,3.7-1.9,7,1,3.8-1.6,5.3-4.6,2.6-2.2-2.1-2.4-1.9-2.9,3.4-.3,5-.6,5.4-3.2,5.1-2.2-.3-2.9.2-2.9,2.2s-1.4,5.4-3.2,8.8c-3.2,5.9-4.2,12.3-2.1,13.6.6.3,2.2-2.1,3.8-5.4,3.2-6.7,17.3-23.2,18.9-21.8.5.5.3,3.2-.5,6.1-1.3,4.2-2.1,5.1-4.3,4.8-2.2-.2-3.5,1.3-6.6,6.7-6.1,11.7-11.4,25.9-11.4,30.6s.5,5.6,3,4.6c1.3-.5,1.9-2.4,1.8-5.4,0-2.6.8-6.7,1.9-9.3,1.1-2.4,2.2-5.6,2.6-7,.3-1.4.5,7.4.6,19.7,0,12.2.5,22.6.8,22.9.5.5.8,3.2.8,6.2s.6,5.6,1.3,5.6,1.3-.6,1.3-1.4,1.3-3.2,2.7-5.3c2.2-3.2,2.7-5.4,2.4-13.6,0-5.4-.5-11.8-.6-14.2-.5-5,2.6-30.6,3.7-31.7s1.3,1,2.1,3c.8,2.1,1.9,4.6,2.6,5.9.6,1.3,1.3,3.4,1.3,4.8s.8,2.9,1.8,3.4c1.3.5,1.6,2.2,1.1,5.8-.6,5-.5,5.1,2.9,4.2l3.5-1-.8,5.9c-.8,6.1,0,7.8,4.3,7.8s1.9,1.8,1.9,7.7.5,7.7,1.8,8.2,1.6,0,1-1.3c-1-2.4,3.5-6.9,4.8-4.8.5.8,0,2.6-1.4,4-1.9,2.1-2.1,3-.8,5,.8,1.3,1.6,4.8,1.6,7.7,0,6.1,2.4,7.7,7,4.5,2.9-1.9,3.4-1.9,4-.2.3,1.1,0,3.7-.6,5.9-.8,2.6-1,5-.2,7,1.6,4,3.8,4,3.8,0s1.9-4.2,3.8-.6c1,1.9.8,3.7-1.3,7.8l-2.7,5.3,3.2,3c1.8,1.6,4.2,3,5.1,3s3.7,1,5.8,2.2c3.7,2.1,4,2.1,5.6-.2,1.9-2.6,4.8-1.8,4.8,1.3s-1.6,2.2-3.8,2.7c-2.1.5-3.8,1.3-3.8,1.9,0,1.9-6.7,1.3-9-.8-2.4-2.1-6.4-1.3-6.4,1.3s9.4,8.3,11.7,8.3,1.1,1.1,1.1,2.6c0,2.7-1.9,3.5-3.2,1.3-1.1-1.9-5.8-1.6-5.8.3s1.8,3.4,3.8,5.3c5.8,5.4,5.1,14.7-.8,10.2-6.7-5-7.5-.3-1,5.8,4,3.7,4.3,4.5,2.4,5.4-1.9,1.1-1.9,1.4,0,3.5,1.6,1.8,1.9,3.5,1.3,6.9-1,4.8-2.4,5.8-4.3,2.6-.6-1.1-2.7-2.1-4.8-2.2-3-.2-3.8.3-4.2,2.7-.3,2.6,0,2.9,2.9,2.1,4-1,8.3,2.2,8.3,6.2s-.6,2.4-2.9,1.8c-8.6-2.4-10.2-2.4-9.8,0,.3,1.3,2.6,3,5.4,4,6.1,2.1,7.4,3.8,6.6,8.5-.8,4,.2,4.5,2.6,1.4.8-1.1,4.6-2.9,8.3-3.8,3.7-1,7-2.1,7.4-2.4.3-.3,0-2.1-.8-3.8-1.3-2.9-1.1-3.2,1.4-3.2s3.7-.6,4.5-1.6c3-3,1.6,2.2-1.9,7.2-7,9.8-10.4,12.3-15.2,11.4-2.9-.5-4.3-.3-4.3.6,0,2.4,3.8,3.2,7.7,1.8,2.1-.8,4.2-.8,5.3-.2,1.3.8.6,2.1-3,5.3-2.6,2.2-5,5.3-5.1,6.7-.3,1.4-1.6,2.7-3.2,2.9-3.4.5-3.7,3-1,5.3,3.5,2.9,2.2,6.1-2.7,7.2-6.1,1.4-6.1,3.4,0,5.3,5.1,1.6,13.6,9.4,13.6,12.3s-1.8.8-5.9-1.4c-5.6-2.9-14.6-4.2-14.6-2.1s2.4,3,5.3,5.6c6.2,5.6,6.2,9.6-.2,8.2-3.2-.6-3.8-.5-3.8,1.6s1.9,3,7.4,5c5,1.8,7.5,3.4,7.8,5,.3,1.9,0,2.2-2.6,1.4-5.6-1.8-8.2-1.3-8.5,1.8-.3,2.2.2,2.9,2.4,2.9,3.8,0,7.5,2.2,12.5,7.2s5.3,4.3,8.6,4.3,4.5-.6,4.5-1.3-1.3-1.3-2.9-1.3-3.7-.6-4.5-1.6c-2.1-2.1-1.9-5.3.2-4.5,1,.3,2.4.2,3.4-.3,2.1-1.3.3-4.3-1.9-3.4-1,.3-2.4-.3-3.4-1.4-1.4-1.8-1.3-1.9,1.1-1.3,5,1.3,3.4-2.1-3.2-6.7-3.4-2.4-5.4-4.5-4.5-4.8.8-.3,2.9.6,4.3,2.1,1.6,1.4,3.5,2.7,4.5,2.7,3,0,2.9-2.2-.2-5.1-3.4-3-4.2-6.4-1.8-6.4s1.1-.8.6-1.9,0-1.9,1.1-1.9c2.4,0,2.4-3.4,0-4.8-2.2-1.3-11.4-14.4-10.7-15.2.3-.3,2.1.6,3.8,2.1,4.3,3.4,4.8,3.2,4.8-1.1s-1.4-5.3-4.5-8.5c-5.4-5.8-5.8-8.3-.8-8.3s5-1.3,6.7-3c2.7-2.7,11.8-8.5,13.3-8.5s0,4.2-3.5,9c-2.2,3-4.8,6.6-5.4,7.7-.8,1.3-2.1,3.2-3,4.3-1,1.1-1.3,2.4-.8,3,.5.5,1.3.3,1.8-.3,1.4-2.1,10.2-8.3,11.7-8.3s1.8,2.9-.5,5.8c-2.4,3-1.3,24,1.4,28.3,2.1,3.2,2.4,14.4.5,14.4s-1.3-2.1-1.3-4.5-.6-4.5-1.3-4.5-1.3,1.3-1.3,2.9-.5,3.5-1.1,4.2c-.6.8-.8,6.9,0,15.5.6,7.8.8,15.4.5,16.8-.3,1.3.3,3.2,1.4,4,2.6,2.1,2.6,6.4,0,6.4s-1.9-.8-1.9-1.8-1.3-2.7-2.9-3.7c-1.6-1.1-5.8-4.8-9.1-8.2-5.4-5.4-15.4-10.6-17.1-8.8-1.3,1.3,1.3,4.6,6.1,7.7,2.9,1.8,6.1,4.6,7.2,6.4s3,3.4,4.3,3.7c2.4.6,7.4,6.9,6.2,8-1.1,1.1-8-2.1-11.8-5.8-4.6-4.3-9.6-6.2-9.6-3.5s9.4,10.6,16.3,13l6.7,2.4,3.2-3.7c3.2-3.5,3.4-3.5,5.1-1.3,1,1.3,2.2,5.1,2.7,8.3s1.6,7.7,2.6,10.1c1,2.2,1.8,5.8,1.8,7.7,0,5.1,1.9,7.8,4,5.8,2.2-2.2,3.7-1.9,3.7,1s-.8,2.6-2.6,2.6-2.9.8-3.4,1.9c-1,2.4,1.8,5.8,4,5,2.9-1.1,3.4,7.7,5.1,95.5.5,24,1.6,35.8,3.4,35.8s1.1,1.1,1.1,2.4c0,1.9,1.3,2.6,6.4,3.4,3.5.5,7,.5,7.8,0,1.1-.6,1.1-.2,0,1.8v.5ZM844,744.4c0-7.7,2.1-7.2,3.2.8.5,3.8.3,7-.3,7.8-1.8,1.8-2.9-1.8-2.9-8.6ZM989.4,851.4c-3.8,0-4.5-7.7-.8-9.9,2.4-1.4,2.6-1.3,2.6,4.2s-.5,5.8-1.8,5.8h0ZM992.8,868.4c.8,6.2-.8,8.3-2.4,3.2-.5-1.6-1.4-3.2-2.1-3.7-1.8-1.1-1.9-10.4,0-11s3.5,3.4,4.6,11.5h-.2ZM990.7,877.7c3.4,1.6,6.7,8.2,6.7,12.6s-3.4.5-7.4-2.9c-3-2.6-4.2-4.6-4.2-7.7,0-4.8-.2-4.6,4.8-2.1h0ZM990.5,892.7c1.4,1,4,2.1,5.9,2.6,3.4.8,5,3.7,5,9.4s-1.6,3.5-9.3-.5c-5.8-2.9-6.1-3.5-6.1-8.3s.6-6.1,4.5-3.4v.2ZM1005.9,879.3c-.5,2.7-1.6,5.6-2.7,6.6-1.9,1.9-1.8,2.2-3.8-4.5-1-3,1.6-6.9,4.6-6.9s2.6.5,1.8,4.8h.2ZM1005.9,865.8c.3.3.5,2.1.3,3.7l-.5,3-1-2.9c-1-2.9-.3-5.3,1.3-3.7l-.2-.2ZM1003.3,948.7c-.5.6-1.1,1.3-1.3,1.3s-.6-.5-.6-1.3.6-1.3,1.3-1.3,1,.6.6,1.3ZM988.5,923c-.8-1.4-1.1-2.9-.8-3.2.8-.8,8.6,3.7,8.6,5,0,2.2-6.4.8-7.7-1.8h-.2ZM995,943.6c0,.6-.8,1.3-1.9,1.3s-1.9-.2-1.9-.5.8-.8,1.9-1.3c1.1-.3,1.9-.2,1.9.5ZM993.7,934c1.3,1.6,1.1,1.9-1.1,1.9s-2.7-.5-2.7-1.3c0-2.2,2.2-2.6,3.8-.6ZM996.9,953.5c2.4.6,3.2,1.3,2.1,1.9-.8.5-2.1.6-2.7.2-.6-.5-1.6-.2-1.9.5-1.1,1.9-3.2,1.6-3.2-.5s1.6-3.4,5.8-2.2v.2ZM993.4,968.9c1.4-1.4,6.7.8,6.7,2.9s-6.1,1.6-7-.2c-.5-.8-.3-1.9.5-2.7h-.2ZM1000,916.7c-1.8,3.2-4.5,3.2-7.4,0-1.3-1.4-2.9-2.6-3.8-2.6s-1.6-1.4-1.6-3.4.5-3.2,2.2-2.6q12.8,4.2,10.6,8.6v-.2ZM1004.8,898.5c-.3-1.6-.2-3.4.5-4.2.8-.8,1.3.2,1.3,2.9,0,4.8-.6,5.3-1.8,1.3ZM1022.4,945.5c-.5,2.1-1.6,4.3-2.6,5.1-2.4,1.9-2.2,6.9,0,6.9,3.8,0,3.4,2.9-1.4,7.4-2.7,2.6-5.9,6.1-6.9,7.8-1.3,2.1-2.2,2.7-2.9,1.6-.5-1,0-1.9,1.1-2.2,1.1-.5,1.9-1.4,1.9-2.2s1.1-3.8,2.6-6.6q3.2-6.1,0-5.1c-2.9,1-3.8-1.9-3.7-10.2.2-7-1-20.5-1.9-21.9-.5-.6-1.1-5.6-1.6-11-.8-9.3-.8-9.8,1.8-9.8s2.7,1.1,3.5,7.2c.5,4,.6,7.5,0,7.8-.5.5,0,1.9,1,3.4,1,1.4,2.4,6.4,3.4,11.2,1.4,7.5,1.9,8.5,4.2,7.8,2.2-.5,2.4-.2,1.6,3v-.2ZM1022.7,926.2l-3,3.7-.8-3c-.5-2.1,0-3.8,1.6-5.6,1.3-1.4,3.5-5.1,5-8.3l2.6-5.8v6.1c.2,3.4-.3,6.9-1,7.7-.6.8-2.6,3.2-4.3,5.3h0ZM1025.7,940.2c1.8-2.1,3.4-1.6,1.9.6-.5.8-1.4,1.4-2.2,1.4s-.8-.8.3-1.9v-.2ZM1028.8,952.6c-.3.6-1.3,1.1-1.9,1.1-1.8,0-2.7-2.2-1.3-3.2,1.8-1.1,4.2.5,3.2,1.9v.2ZM1085.1,979.3c2.9,2.4,2.4,4.5-1.3,6.2-1.8.8-3.2,2.1-3.2,2.7,0,1.9,1.9,1.6,3.8-.6,2.1-2.4,4.3-2.4,6.6,0,1.4,1.8,1,2.7-3.2,6.7-5.6,5.3-4.2,7.2,1.9,2.7,3.4-2.6,4.2-2.7,5.1-1.1,1.9,3,1.4,4.3-2.6,8.3-5,4.8-5,6.7,0,2.9,3.4-2.4,4.2-2.6,5.1-1,2.6,4.2-.2,10.2-4.8,10.2s-1.8.8-1.4,1.6,1.4,1.6,2.7,1.6,2.1.5,2.1,1c0,7.4,0,7.5-3.4,7.2-2.9-.3-3.5.3-4.8,4-1,3.2-2.2,4.5-4,4.5s-2.6.8-2.6,2.9c0,4-1.6,5-4.2,2.6-2.7-2.4-4-1.6-4,2.2s-1,4-1.9,5.6c-2.4,3.4-3,3.5-6.7.8-3.4-2.2-3.8-5.8-.8-5.8s1.8-.8,1.4-1.6-1.4-1.4-2.6-1.3c-2.1.3-2.2-.2-4.8-16.2-1.6-10.1-.6-34.2,1.4-36.8.8-1,.5-1.9-.8-3-2.4-1.9-2.6-7.8-.3-10.1s1-2.1-1.6-4c-2.4-1.8-2.7-2.6-1.3-2.9,7.7-2.2,12.6-4.2,15.2-6.2,3.8-3,5-3,5.9.3,1.1,3.4-2.6,9.1-5.4,8.6-1.1-.2-2.2.5-2.7,1.4-.6,1.8,2.9,1.6,9.6-.5,2.1-.6,2.9-.3,2.9,1s-.8,2.2-1.9,2.7c-2.4,1-2.6,4.6-.3,4.6s2.4-.6,3.2-1.4c1.1-1.1,1.9-1.1,3.5,0h0ZM1060.6,959.6c3.8,1.1,4.3,1.8,2.1,3.2-2.4,1.6-4.8,1.6-5.8,0-1.3-2.2.8-4,3.7-3v-.2ZM1079.7,915.4c-5.4-8.6-14.2-27.5-15-32.8-1.8-11.2,3.5-6.4,8.8,8,1,2.7,3.7,9.4,5.8,15.2,4.6,11.7,4.6,16.5.3,9.6h.2ZM1082.7,894.2c1.3,2.6,1.8,5,1.4,5.4-.5.5-1.8-1.4-2.7-4-2.6-6.2-1.4-7.4,1.4-1.4h-.2ZM1097.3,952.4c0-.6.8-1.3,1.9-1.3s1.9.6,1.9,1.3-.8,1.3-1.9,1.3-1.9-.6-1.9-1.3ZM1108.5,951.3c.8-3.2,4.5-3.5,7.4-.6,2.1,2.1,2.6,4.2,1.3,7.5-.8,2.2-1.3,2.4-5.3.5-3.4-1.6-4.3-3.7-3.4-7.4ZM1113.4,970.3c-1.1,1.9-2.2,1.6-5.3-1.6-1.4-1.6-4-3.8-5.8-5l-3.2-2.2h3.4c3.8,0,12,6.7,10.7,8.8h.2ZM1097.1,929.4c1.1,1.8,3.2,4.3,4.5,5.6s2.1,2.6,1.9,2.9c-1,1-8.6-4.8-9.4-7.2-1.3-4,.8-4.6,3-1.1v-.2ZM1090.4,943q1.9-2.6,3.8,0c1,1.4,1.6,3,1.4,3.8-.3.8-1.9,1.4-3.8,1.8-3.8.5-4.5-1.6-1.4-5.4v-.2ZM1088.8,937.2c1,1.4.8,2.9-.6,4.6-2.4,3.4-4.5,2.1-5.1-2.9-.3-3,0-3.8,1.9-3.8s3,1,3.7,2.1h.2ZM1083.8,816.9c4.5,13.4,5.1,20.8,2.7,30.1-1.1,4.2-2.4,11.7-2.9,16.6-.5,5-1.1,9.3-1.4,9.6-1.9,1.9-3-4.8-2.7-16.3.3-9.9,0-13.1-1.3-13.1s-1.6-2.7-1.8-8.6c-.2-11.2-.3-11.8-2.1-16.2-.8-1.9-1.4-4.5-1.4-5.8,0-2.9-7.2-25.6-8.8-27.5-.6-.8-1.6-3.4-2.1-5.6s-2.9-7-5.3-10.6c-2.4-3.5-4.3-6.7-4.3-7.2,0-1.3-6.9-10.1-9.3-11.8-1.3-1-2.9-3.2-3.5-4.8-.6-1.8-1.8-2.7-2.6-2.2s-2.1.3-2.9-.5c-1.4-1.1-5.9-1.9-9.6-1.6-3.4.3-1.4,2.4,2.9,3.2,6.4,1.3,10.9,5.6,11.7,11.7.5,2.9,1.6,6.2,2.6,7.7,1.6,2.4,1.8,2.4,1.8-1s.5-3.5,1.1-3.5c1.9,0,4.5,4,4.8,7.5,0,1.9.3,5.8.5,8.5q.3,5.1,1.8,1.6c.8-1.9,1.9-3.5,2.4-3.5,1.9,0,3.7,6.4,3.2,12-.3,4.3,0,5.3,1.8,5,2.9-.5,5,5.8,3.4,9.9-.6,1.8-1,5-.6,7q.5,3.7,1.4,1c.5-1.6,1.6-2.7,2.4-2.4,1.6.6,1.9,14.1.5,18.4-.8,2.2-.5,2.9,1.8,3.5s2.6,1.3,1.9,4.3c-.5,1.9-1.3,6.1-1.6,9.3-.6,4.8-.5,5.6,1.3,4.8,2.6-1,4,5.6,2.4,11.2-.6,2.6-.5,4.8.6,7,1,1.8,1.8,4.5,1.8,5.9s.8,5.1,1.9,8.2c3,8.5,1.4,7.4-3.2-2.2-7.5-15.8-13.1-26.6-14.9-28.5-1-1.1-2.4-4.8-3.2-8.3-5.6-25-11.5-45.4-14.2-48.5-.6-.6-1.1-2.2-1.1-3.5,0-2.7-2.2-5.6-10.2-13.3-5.4-5.4-9-7-9-4.3s.6,1.3,1.3,1.3,3.8,2.6,7,5.8,5.8,6.7,5.8,10.1.8,4.8,2.9,6.2q2.9,1.9.5,4.5c-2.7,3-1.8,5.8,1.8,4.6,3.5-1.1,4.8,5,2.1,9.6-2.9,4.8-2.7,5.4,1.1,4.5,4-1,5.3,1.6,3.4,7-.8,2.2-1,4.6-.5,5.4s1,4.2,1.1,7.5c0,4.3,1,6.9,2.9,9,1.4,1.6,5.3,7.5,8.5,13.1,5.9,10.4,7.5,17,3.8,15.5-1.1-.5-2.2-.8-2.6-.8s-.5-1.1-.5-2.4-.5-2.9-1.3-3.2c-1.8-1.1-1.8-.3,1.9,14.1,3.4,13,9.9,28.6,17.9,41.8,4.8,7.8,5.6,11.4,2.6,11.4s-8.3-7.7-8.3-10.1-7.7-13-9.1-12.2c-2.4,1.4.3,12.6,5.1,21,2.6,4.5,4.8,8.8,5.1,9.3.8,1.8-5.4,1-9.4-1.1-3.7-1.9-15.4-2.9-16.8-1.3-.3.3-.3,1.6,0,2.7.6,1.4,2.1,1.8,7.2,1.1,4-.5,7-.2,8.2.6,1.6,1.3,5.6,2.4,9.4,2.7,1,0,1.6.6,1.6,1.4,0,1.6-3.5,1.4-7.7-.2-1.8-.8-7.4-1-12.6-.6-8.6.6-9.6.5-12.5-2.4s-3-4.5-3-7.2-.8-7-1.9-10.6c-1.1-3.5-2.4-12.8-3.2-20.5-.6-7.8-1.6-16-2.1-18.1s-.2-6.1.6-8.8c.8-2.9,1-5.8.2-6.9-2.2-4-4.2,4.8-3.4,14.9.5,5.9.3,9.3-.5,9.3s-2.9,3.5-4.6,7.7c-3.5,8.2-6.1,9.8-7.2,4.5-.5-2.2.2-3.7,1.9-4.8,3.7-2.4,8-16.3,5.1-16.3s-1.8,1.9-2.9,4.2c-2.9,6.1-5.8,6.4-4.6.6.5-2.6.3-4.8-.3-5.3-.6-.3-1.4-5-1.9-10.1-.8-9.3,1.6-30.9,4.5-40.3.8-2.4,1-4.5.6-5-1.3-1.3-3.4,4.3-5.3,15-1.1,5.9-2.6,12.2-3.2,13.8-1.8,4.2-5.1,3.7-5.1-.6s0-3.5-1.9.8c-1.1,2.4-2.2,4-2.9,3.4-.5-.5-1.3-10.6-1.8-22.2-.6-16.2-.5-23.5,1-30.1,2.2-11,2.4-17.9.2-17.1-1,.3-2.2,5-3,11.2-.8,5.8-1.9,12.2-2.4,13.9-.5,1.9-.8,4.6-.6,6.4.3,3.2-3.2,7.8-5.9,7.8s-1.8-1.3-1.6-3.5c0-1.9-.5-7.5-1.3-12.5-2.7-17-4.2-31.5-3.4-32.3,1.3-1.3,3.7,1.8,4,5,.5,4.6.6,5,1.8,5,2.7,0,2.6-6.6-.6-14.9-8.2-21.4-9.8-28.5-10.2-44.6-.2-6.4-.8-13.8-1.3-16.3-.5-2.7-.5-7.4,0-10.4.6-4.8,1.3-5.4,3.4-5,1.4.3,2.6,1.8,2.6,3.2s.6,2.4,3,1.8c3.4-.8,4.6,1.4,4.6,9s.8,4.3,2.2,4.8c1.3.5,2.9,1.1,3.8,1.6,1.1.5,1.4-.3.8-3.2-1.1-5.8,0-8,3.5-6.7,4.3,1.6,8,.3,14.6-5.1,5.4-4.5,10.9-6.6,10.9-4s-.8,4.2-1.9,8c-1,3.8-1.9,8.6-1.9,10.7,0,3,.5,3.5,2.9,3.2,2.2-.3,3.7-2.4,6.2-8.8,1.9-4.6,3.5-9.4,3.5-10.9s1.6-3.8,3.4-5.3c2.7-2.4,3-3.2,1.9-5.4-1.6-2.9.5-7.8,3.2-7.8s1.8-2.9,2.1-6.4c.6-6.2,2.6-10.2,4.3-8.6.5.5,1.1,3.2,1.4,5.9.6,4.3.3,5.3-1.4,5.3s-2.6,1.3-2.2,4.8c0,.8-1,2.2-2.2,3.2-1.9,1.1-2.4,2.4-1.8,5.3.5,2.6,0,4.8-1.9,7.4-2.9,3.8-3.4,6.6-1.8,8.2s1,3,1,5.6c0,4,.3,4.6,2.7,4.5,4.5-.5,10.4,7.2,19.8,25.9,5,9.8,9.9,18.9,11,20.2,1.1,1.3,2.2,4,2.4,5.8.8,8.2,3,18.2,4.8,21.9,1.1,2.1,1.9,5,1.9,6.2s1.4,6.7,3.2,11.8v-1ZM1079.2,760.6c.6,0,1.4,1.1,1.8,2.4.8,3.4-1,6.2-2.1,3.4-1.1-3-1-5.8.3-5.8h0ZM1073.9,739.9c2.6,5.4,4.5,11.4,4.5,13.6-.3,5.4-2.2,6.9-4.2,2.7-1.8-3.7-3.7-4.5-3.7-1.4s-.5,1.9-1.3,1.9c-1.4,0-3.8-8.2-3.8-13.4s-.3-3.4-1.3-1.9c-1,1.6-1.4,1.6-3.2-.6-1.1-1.4-2.6-4.6-3.2-7-1.4-5.1-6.1-9.8-9.3-9.1-3.2.5-3.8-1.6-1.9-5.8,3.2-6.6,5.9-13.3,5.9-15s.8-2.4,1.8-3.2c1.4-1.1,1.9-.6,2.6,2.7,1.1,5.8,6.6,23.8,7.5,24.8.5.5.5-1.8.2-4.8l-.6-5.6,2.6,4.5c1.4,2.4,2.6,5.3,2.6,6.2s2.2,6.1,4.8,11.5h.2ZM1073.6,649.5c-1.4-1-3.8-5.9-5-9.9-.8-2.9,3.4-15,5.3-15.7.6-.2,1.6,2.1,1.9,5.1.6,4.3.2,6.1-1.8,8.2-3.4,3.5-3.2,5.4.6,6.9,1.8.6,3.2,1.8,3.2,2.4,0,1.9-3.2,4-4.5,3h.2ZM1080.1,605.2c3.8-6.7,5.6-6.7,5.6.3s-.5,5-4.5,6.9c-5.6,2.6-5.8,1.1-1.1-7v-.2ZM1081.9,623c0-2.7.5-4.2,1.3-3.8.6.5,1.3.2,1.3-.6s.6-1.3,1.3-1.3c1.8,0,1.6,6.9-.3,8.6-2.6,2.6-3.5,1.8-3.5-3v.2ZM1090.7,663.3c-.8,2.6-3.7-4-5.4-13.1-2.6-12.2-2.6-17.6,0-17.6s1.9,1.1,1.9,3,1,8.3,2.1,14.7c1.1,6.4,1.8,12.3,1.6,13h-.2ZM1090.9,579.4c0-1.1.6-1.6,1.3-1.1s1,1.3.6,1.9c-1.1,1.8-1.9,1.4-1.9-.8h0ZM1108.9,694.3c-1.6,1.6-4.2-2.2-5.4-7.7-.6-2.6-1.6-7.4-2.4-10.6s-1.3-8.8-1-12.5c.3-5,0-6.6-1.1-6.2-3.2,1.3-4.2-9.4-1.3-12,1.1-.8,1.9-2.4,1.9-3.5s-.3-1.6-1.8-.5c-1,.8-2.1,1.1-2.6.6-1.6-1.6-.8-4.6,2.6-9,3.5-4.6,3.4-7.2-.3-3.7s-2.6,1.8-3.5.8c-1-1.1-.6-2.9,1.6-6.6,3-5.4,2.9-7.7-.3-5-1.8,1.4-1.9,1.1-1.9-2.4s1.1-5.1,3.2-7c1.8-1.6,3.2-3.7,3.2-4.5,0-1.9-2.9-1.9-4.8,0-1.1,1.1-1.9,1.1-2.9.2-1-1-.8-1.9.8-3.5,1.9-1.9,1.9-2.4,0-6.6s-1.8-9.6.5-9.6,1.4,2.2,2.1,4.8c1,3.8,1.9,5,4.5,5.3l3.4.3,1,28.5c.5,15.7,1.1,30.1,1.3,32.3.2,2.1.8,9.3,1.3,16s1.3,14.2,1.9,16.6h0c.6,2.4.6,5,0,5.4l.2-.2ZM1139.5,730c5.3,10.1-4.3,3-10.2-7.7-8.3-14.9-9.4-17.4-7.8-17.9,2.4-.8,1.8-3.8-1-4.5-3.4-.8-3.4-4.8,0-9.1,2.9-3.7,2.4-4.2-1.4-2.1-2.1,1.1-2.7.8-4-1.9s-1.1-4,.6-6.9c2.1-3.5,2.1-3.7-.5-4.3-3.4-.8-3.5-9,0-14.4l2.4-4-3,.6c-2.7.5-3,0-3-3.5s1.3-5.6,2.7-7.5l2.7-3.4-3.4-.5c-3-.3-3.4-.8-3-5.8.2-3.7,1.4-6.7,3.8-9.8,4.5-5.4,4.6-7.2.3-4.3-1.8,1.1-3.7,1.8-4.2,1.3-.8-.8,0-2.4,4.6-9.6q1.9-3-.8-2.4c-2.1.6-2.9,0-3.4-2.4-.5-2.2.3-3.8,3-6.2,4.8-4,4.6-4.5-.8-3.7l-4.5.6v-5.1c0-2.9.6-5.4,1.4-5.6.8-.3,1.8-2.4,2.2-5,.6-3.2,1.6-4.5,3.7-4.8,2.2-.3,3-1.6,3.7-5.4.8-5.3,1.8-6.1,4.2-3.4,1,1.3,1,4.5,0,12-1.1,8-1.1,15.7,0,33.8.8,13,1.9,27.8,2.2,33.1,2.4,37.1,7.7,68.8,13.3,79.5v.2ZM1131,572.1c-1.4-2.9-2.4-8.3-2.7-17.9-.5-12.2-.3-13.8,1.4-13.8s2.1.6,2.1,1.6.8,7.4,1.9,14.2c1.1,7,1.9,14.4,1.9,16.3,0,4.8-1.9,4.6-4.6-.5h0ZM1152.9,579.3c-.6,2.6-.3,3.4,1.1,3.4,3.2,0,5,5,4.3,11.7-.5,5.1-.2,6.2,1.8,6.7s2.4,1.6,2.4,2.7c0,9.3-14.1-14.2-19-31.8-1.4-5-2.9-11.2-3.4-14.1-.5-2.9-1.6-6.4-2.7-7.8-1-1.4-2.2-5-2.6-7.8-.6-4.5-.3-5.3,2.7-7.8,4-3.2,5.8-3.5,5.8-1s1.1,2.1,2.6,2.4c3,.8,3.4,5.1.6,9.9-2.4,4.2-2.4,5.6,0,4.6,3.4-1.3,5,2.6,4.2,9.9-.8,6.2-.5,6.9,1.9,7.5,2.9.8,2.9,1.8.3,11.5h0ZM1203.5,472.6c0,1.8-2.9,4-9.6,7.7-5.3,2.9-9.9,5.3-10.2,5.3-1.8,0-.3-2.7,2.6-4.8,1.8-1.3,5.6-4.2,8.5-6.4,5.9-4.6,8.8-5.3,8.8-1.8h0ZM1163.5,479c3.7-5.4,13.6-15.8,18.1-18.9,3.8-2.6,4.5-2.7,6.9-1.1,1.7,1.2,1.7,2.6,0,4.2-1.4,1.3-7.5,6.4-13.6,11.2s-11,9.3-11,9.9-.6,1.1-1.3,1.1c-1.9,0-1.6-2.9.8-6.4h.2ZM1163.8,512.9c-2.2,1.9-2.6,2.1-2.6.3s3.5-4.2,4.6-3c.3.3-.6,1.4-2.1,2.7ZM1154.9,499.4c0-1.4.5-2.6,1.3-2.6s3.4-2.1,5.9-4.5,5.3-4.5,5.8-4.5,1.1-.5,1.1-1c0-1.4,9.8-11.8,11.2-11.8s4.2-2.4,7.8-5.3c4.6-3.7,6.6-4.6,6.6-3.2s-.6,2.1-1.3,2.1-2.9,1.8-4.8,4-5,5.3-6.7,6.7c-1.8,1.4-7.7,7.2-13.1,12.6-10.1,10.1-13.8,12-13.8,7.4h0ZM1180.3,498.6c-8.5,4.6-11.4,5.6-11.4,3.7s13.3-10.7,22.6-15c5.1-2.4,9.6-5,10.1-5.8,1-1.6,7-1.8,7,0s-1.3,1.6-2.9,2.1-6.1,3-9.9,5.6c-3.8,2.6-10.9,6.9-15.5,9.4h0ZM1216.6,488.7c-3.8.8-14.2,5-19.7,7.8-4,2.1-6.7,2.2-5.6.5.5-.6,1.4-1.3,2.4-1.3s3.2-1.8,5.3-3.8,4.5-3.8,5.4-3.8,4.3-1.3,7.4-2.7c3.2-1.4,6.2-2.2,7-1.8,2.6,1.6,1.3,4.5-2.2,5.3v-.2Z"/>
    <path class="st0" d="M718.5,125.4c0-.3-.5-1-1.3-1.3-.6-.5-1.3-.2-1.3.5s.5,1.3,1.3,1.3,1.3-.3,1.3-.6v.2Z"/>
  </g>
  <path class="st1" d="M878.7,938.8l4.5-6.4h7c6.7.3,7,.3,6.2-2.2-.5-1.4-2.4-4.2-4.5-5.8-2.1-1.8-3.8-3.5-3.8-4s2.6-2.7,5.8-5.1c4.5-3.4,5.6-4.8,5.1-6.7-.3-1.4-1.3-2.2-2.1-1.9-4.8,1.8-10.2,2.1-11.2.6-1-1.4-.6-10.4.8-20.8.3-2.2,1.3-10.1,2.2-17.4,1-7.4,2.7-21.6,4-31.5s2.9-22.2,3.5-27.4c.6-5.1,1.9-15,2.9-22.2,1.9-13.6,4.8-34.4,6.4-47.8.5-4.5,1.6-10.7,2.2-13.9,1.1-5,3.5-25.4,4-34.2.3-4.6,3-5.6,13.1-4.6,5,.5,9.3.6,9.4.5s0-1.8-.5-3.5c-.5-1.9-3-4.8-6.4-7.2-3.2-2.2-5.6-4.8-5.6-5.6s2.9-4,6.6-7.2c3.7-3,5.9-5.8,5.3-6.1-.6-.2-1-1.1-.6-2.1,1-2.4-.6-2.1-6.4,1.3-2.9,1.6-5.6,2.9-6.1,2.9-2.1,0-1-7.8,3.5-24.5,2.4-9.3,5.6-21.6,7-27.4,4.5-18.2,12-45.4,13.6-49.3.8-2.1,2.1-3.8,2.7-3.8s2.4,2.6,4,5.6,6.7,12.3,11.4,20.6c4.8,8.3,10.4,19,12.5,23.8,4.8,10.9,15.2,31.5,17,33.8.8,1,2.1,3.5,3.2,5.8,1,2.2,9.8,20,19.5,39.4,9.8,19.4,17.8,36.3,17.8,37.6s-.6,2.2-1.6,2.2-1.6,1.6-1.8,4.3c-.6,10.4-.5,10.1-6.9,13.1-9.4,4.5-9.4,7.2,0,9.3,3.4.6,6.6,1.9,7,2.7.5.8,1,3.8,1,7,0,6.2,1.1,6.9,5.1,2.6,1.6-1.6,3-2.6,3.4-2.1.3.5,0,5.9-1,12-.8,6.1-2.4,19.7-3.4,30.4-2.2,22.1-4.8,44.8-6.6,56.6q-2.2,15.2-7,10.7c-1.6-1.4-4.5-3-6.2-3.5l-3.4-.8.8,5.9c.8,5.8.8,5.9-3,7.5-2.1,1-5.4,2.1-7.4,2.7-6.2,1.9-5.1,4.6,3,7.2,7.2,2.2,7.4,2.4,9.3,8,1.1,3.2,1.9,7.4,2.1,9.4,0,5.4,2.6,4.8,7-2.1,2.1-3.2,4.6-6.2,5.4-6.6,1-.3,4.3,0,7.4.5,5.3,1.1,5.8,1,5.8-1s-1.4-3.2-3.2-4.5-3.8-3.5-4.8-4.8c-1.4-2.2-1.3-2.7,2.2-5.8,2.2-1.9,4.8-3.7,6.1-4.2,1.6-.5,1.9-1.4,1.3-3.2-1.1-3.5-1-3.5-5.8-1.9-3,1-4.6,1-5.4.2s-.3-11.8,2.7-36.2c.6-4.6,1.9-18.9,2.9-31.5,1.9-24.2,4.8-46.6,6.4-49.3.8-1.3,1.9-1.3,6.4-.2,7.8,2.1,9.1,1.9,7.7-1-.6-1.3-1.9-2.4-2.9-2.4-2.2,0-7.7-6.7-7.7-9.3s2.4-4.3,5.3-7c4-3.7,5.1-5.4,4.6-7.2-.5-1.3-1.4-2.1-2.1-1.9-5.8,2.1-13.8,4.5-14.1,4.2s-6.7-13.3-14.4-29c-23.2-47.2-45.8-92.5-49-98.1-7.8-13.8-23.5-46.2-22.7-47s2.9,0,5.3,1,5.1,1.6,6.1,1.3c2.6-1-.3-5.9-5.3-8.6-2.4-1.4-5.6-3.5-7.2-4.8l-2.9-2.4,4.3-4c2.4-2.2,5.3-4.5,6.4-5.1,1.8-1,1.8-1.3,0-3-1.6-1.6-2.9-1.8-6.7-.8-2.6.6-5,.6-5.3.2-.6-1.1,1-20.6,4-46.7,1.3-11.2,2.9-26.2,3.7-33.3.6-7,1.8-17.8,2.4-24,2.6-25.8,5.9-64.8,6.9-80.5,1.4-24.3,2.4-33.1,3.4-34.9.6-1.1,1.9-1.1,5.6-.2,5.1,1.4,6.2,2.4,19.7,20.5,13.3,17.8,21,27.8,31.8,42.4,20.8,27.7,21.3,28.6,15.5,34.9-2.1,2.2-4.8,3.7-8.2,4.2-7.7,1.3-6.6,4,2.1,5,9.6,1.1,11.2,2.4,9.4,7.8-2.7,8.5,1.6,9,7.4.8,3.8-5.3,4.5-5.8,7-4.6,5.6,2.1,11.8,5.9,24.5,15.2,7,5.1,16.8,12,21.6,15.4,14.4,10.1,25.6,19.7,26.2,22.4,1,4.5,0,9.4-2.4,10.7-9,4.6-13.3,7.8-13.3,9.9s.8,2.2,3.7,2.2,6.9.6,10.9,1.3l7.2,1.3v13c0,7.2.3,13.6.8,14.4,1.3,1.9,4.2,1.8,4.2-.3s1.3-2.4,3-3.2c2.7-1.3,8.6-11.4,8.6-14.9s.6-1.1,1.4-.8,5.1,1.8,9.4,3c4.3,1.4,9.6,3.5,11.5,4.6,1.9,1.3,4,1.9,4.5,1.6h0c3.5-2.2-1.1-11.4-9.4-18.6-3.7-3.2-4-4-3.2-7.7.5-2.2,2.9-6.9,5.4-10.4,3.2-4.3,4.6-7.4,4.6-10.1s-.5-3.8-1.1-3.8-1.1-.8-1.1-1.8c0-2.6-1.4-2.2-6.2,1.6-2.4,1.9-6.2,3.7-8.6,4.2-2.4.5-5.6,1.6-7,2.6-2.7,1.8-2.9,1.6-7.8-3.8-2.7-3-5.6-7-6.4-8.8-1.3-3.2-5.8-4.6-5.8-1.9s-.8,1-1.9.6c-1.3-.5-2.1,0-2.4,1.6-.3,1.3-.8,2.4-1.1,2.4-.6,0-17-11.7-29-20.5-3.8-2.9-11-8.2-16-11.7-5-3.5-9.9-7.8-11-9.4-1.1-1.8-3.7-3.8-5.9-4.6-4.8-1.9-4.8-3.4-.3-8,2.4-2.6,3.4-4.3,2.7-5.8-.8-2.1-4.3-2.1-13,0-1.9.5-2.9,0-3.4-1.4-.5-1.1-2.7-4-5-6.2-5.4-5.4-14.9-17.4-20.6-26.2-2.6-3.8-5.4-8-6.4-9.3-9.8-12-18.2-23-25.8-33.6l-9-12.6,3.5-.6c1.9-.3,3.5-1,3.5-1.3,0-1.8-3.7-6.4-10.1-12.8l-7.5-7.4,4.3-6.7c2.4-3.7,5-7.2,5.9-7.7,2.2-1.3,2.1-2.4-.6-4-1.8-1.1-3.4-.8-8.2,1.4-3.8,1.8-6.2,2.4-6.7,1.6-1.1-1.8-3.8-25.9-4.6-40.6-.3-6.7-1.1-15.4-1.8-19.2-.6-3.8-1.1-9-1.1-11.4,0-3.8.3-4.3,2.6-4.3s4.8.8,7.4,1.8,5.3,1.8,6.1,1.8c2.4,0,1.8-5.6-.6-6.4-1.1-.3-3.4-2.1-5-3.7l-2.7-3,5-4.2c2.9-2.4,5-5.1,5-6.4,0-2.2-.5-2.2-6.4-1.6l-6.4.8-2.2-8c-2.9-10.2-11.2-45.6-15.4-65.8-3.7-17.4-4.5-20.2-5.9-19.2-.6.3-1.1,0-1.1-1.1,0-2.9,4.5-4.5,10.1-3.8,3,.3,5.1.2,5.3-.5,0-.6.2-1.8.3-2.4,0-.6-1.8-2.2-3.8-3.2-2.2-1.1-4.2-2.6-4.5-3.4-.2-.8,2.2-3,5.4-5.3,9.8-6.4,7.5-9.3-4.6-5.6l-7.5,2.4-2.4-2.7c-1.3-1.4-3-3.8-4.2-5.1-1-1.4-3-2.9-4.5-3.4-2.9-.8-3-.3-.6,7.4,1,3-1.1,3.5-4,1-1-1-6.1-3.2-11.2-5.1-16.6-6.2-39.5-16.3-40-17.4-.2-.6.2-1.4.8-1.9,1.4-.8,1.6-6.1.3-6.9-.5-.3-4,.5-7.7,1.8l-6.9,2.2-4.2-3.8c-2.2-2.1-4.5-4.3-5-5-1.4-1.9-3.4.6-3.4,4.6s-.6,4.3-3.2,5.3c-14.4,5.8-15.7,10.1-3.7,12,2.6.5,5,1.6,5.4,2.6.3,1-1,5.9-3,11-2.1,5.1-3.7,9.9-3.7,10.7,0,2.6-12.2,25.9-13.6,26.2-.8.3-2.7-1.6-4.5-4.2-2.2-3.5-3.7-4.5-5.4-4-1.9.5-2.2,1.4-2.1,5.4.3,6.1-.3,7.2-4.6,8-1.9.3-5.3,2.2-7.4,4.2-4.5,4.2-3.7,5.4,5,6.6,7.2,1,7.8,1.4,9.4,7.5.8,2.7,2.1,5.3,2.7,5.4.6.3,3.2-1.6,5.4-4l4.2-4.3,6.6,1.4c4.3,1,11.7,4.3,20.8,9.6,7.8,4.5,14.6,8.2,15,8.2,1,0,18.9,11,23.7,14.6,1.9,1.4,6.1,3.8,9.3,5.3s7.4,3.8,9.3,5.3c5.4,4,28.6,18.1,29.9,18.1,2.7,0,.5,2.4-4.2,4.5-7.7,3.4-6.9,7.2,1.9,8.8,2.2.5,5.1,1.4,6.4,2.4,1.9,1.4,2.1,2.2,1,6.7-1.8,7.8,0,10.1,4.5,6.1,1.8-1.6,2.2-1.6,2.6-.3.3,1,1.6,13.1,3,27.4,3.8,39.5,3.8,39,2.2,39-2.4,0-7.5-4.6-10.1-9.1-1.4-2.6-3.4-4.3-4.6-4.3-1.9,0-2.2,1.1-2.2,10.6s-.5,11.2-1,11.8c-.5.8-3.2,1.8-6.1,2.1-5.9,1-12.2,5.4-12.2,8.8s.8,2.2,2.7,2.2c3,0,13.6,3.4,15.2,4.8.6.5-.8,2.9-3,5.4-2.2,2.4-9.9,10.9-17.3,18.7-13.1,14.2-18.1,18.1-25.9,19.5-3.8.6-4.5.5-8.5-4.5-2.4-2.9-5.6-5.4-7.2-5.8-2.7-.5-2.9-.3-2.6,6.6l.3,7-6.2,2.4c-7.7,3-9.9,6.1-5.4,7.7,1.8.6,3.8,1.1,4.8,1.1,1.8,0,2.2,1.9.6,2.9-2.2,1.4-59.4,13.6-71.7,15.2-3.4.5-5.6.3-5.6-.3s.5-1.3,1-1.6c.5-.2,2.1-2.1,3.5-4.2,1.9-2.6,2.4-4.6,1.9-6.7-.8-3.5-1.4-3.5-7.2-1.1-2.4,1-6.4,2.6-9,3.4s-5.6,1.9-6.6,2.2c-1.4.6-3-.8-6.2-5.9-5.1-8-4-6.9-7.8-7.8l-3.2-.8v10.4c0,11.7,0,11.8-8.5,14.2-6.1,1.8-9.6,4.6-8.6,7.2.3.8,3.7,2.6,7.5,3.8s7.4,2.7,8.2,3.2,1.9,4.2,2.9,8c1.4,6.9,5.9,13.9,8.8,13.9s1.6-1.8,1.9-4,2.1-6.2,3.8-8.8l3.2-5,8.2.6c4.5.3,9.4,1,10.9,1.4,2.4.8,2.6.6,1.9-3-.5-2.1-2.1-5.4-3.5-7.4-4-4.8-6.6-3.8,34.7-12.5,9.3-1.9,21.1-4.5,26.2-5.8,5.1-1.3,11.7-2.4,14.6-2.6l5.3-.3.3,5c.2,2.7,1,5,1.6,5s3.4-2.4,6.1-5.4l5-5.4,6.4,1.4q9.8,2.2,10.2-1c.3-2.2-.5-3.4-3.2-5-5.8-3.2-5.6-5,1.4-13,9.3-10.6,37.1-39.8,38.2-40.3,1.1-.5,2.2,2.9,2.9,8.6.2,2.4,1,4.6,1.8,4.8,1.9.6,8-4,9-6.7.3-1.3,1.3-2.2,1.9-2.2s1,3.2.5,9.1c-.3,5-1.1,18.2-1.8,29.6-.6,11.4-1.6,25.3-2.2,30.9-.6,5.8-2.2,21.9-3.5,36-4.2,45-9.4,93.1-10.6,98.2-.6,2.7-1.1,6.2-1.1,7.8,0,4.6-2.2,4.6-6.4,0-3.8-4.3-4-4.5-6.4-2.2-1.8,1.6-2.4,3.7-2.4,7s-.5,5.3-4.3,7.8c-2.4,1.6-5.8,3.4-7.5,3.7-5.1,1.1-3.8,2.9,3.8,5l7,1.9v8.6c0,6.9.3,8.8,1.9,9.3,1.3.5,2.7-.3,4-2.1,1.3-1.6,2.2-2.1,2.2-1.3,0,2.2-5.4,23.2-9.6,37-1.9,6.4-4,14.1-4.5,17s-2.1,9.1-3.5,13.9-3,10.6-3.5,12.6c-1.3,5.3-3.7,10.7-4.6,10.7s-2.2-1.4-4-3.4c-1.8-1.9-4.5-3.7-6.1-4-2.7-.5-2.9-.3-2.9,6.9v7.4l-5,1.3c-9.6,2.4-10.7,3-11.2,5.6-.3,2.1.3,2.6,4.2,3.2,12.2,2.1,15.5,5.3,15.5,15s.8,4.6,1.6,5.3c2.1,1.8,3,8,1.8,11.8-.5,1.6-1.3,6.1-1.6,9.9s-1.4,13-2.6,20.5c-1.1,7.4-2.4,17.3-2.9,22.1s-2.1,15.7-3.4,24c-1.3,8.3-2.9,20.5-3.5,26.9s-1.6,15.2-2.2,19.7-1.9,15.2-2.9,24c-1,8.6-2.6,20.2-3.5,25.6-1,5.4-1.9,12.8-2.4,16.5-1,8.5-1.9,9.8-5,8.2-1.3-.6-3.5-1.3-4.8-1.3-1.9,0-2.4,1-2.7,5-.3,4.8-.6,5.1-7.4,8.6-5.4,2.9-7,4.3-7,6.4s1,2.9,2.9,3.5c1.6.5,5.3,1.6,8.2,2.4l5.3,1.4v7.5c0,9.6,1.6,9.8,7.5,1.1v.5ZM1025.4,885.8c-.3,1.4.2,2.9,1.1,3.2,2.1.8,2.1,3,0,3s-2.6,1.8-3.7,3.8c-1.8,3.4-2.1,3.5-2.7,1.4-.5-1.3-.3-3.4.3-4.5,1.3-2.4-1.6-6.6-4.5-6.6s-1.6-.5-1.6-1.1,1.4-1.1,3-1.1c2.7,0,3-.3,2.4-3.5-.3-1.9-.2-3.5.3-3.5,2.1,0,6.1,6.4,5.6,9l-.3-.2ZM1042.1,743.3c0,2.6.6,4.3,1.8,4.8,2.4,1,2.2,2.7-.3,2.7s-3,1.1-4.3,2.4c-3,3.4-3.8,2.9-4.3-1.9-.3-3.5-1-4.5-3.4-5l-2.9-.6,2.6-1.4c1.4-.8,3.4-1.4,4.5-1.4s2.2-.8,2.6-1.8c1.3-3.5,4-1.9,4,2.4l-.2-.2ZM1143.2,472.7c2.4,2.6,5.3,5.9,6.4,7.2l1.9,2.4,8-2.7c12.8-4.3,13.3-4.5,13.3-2.6s-.8,2.4-1.8,3.2c-2.4,1.9-6.4,9.8-6.4,12.3s1.3,3.7,2.9,5.8,2.9,4.3,2.9,5,.8,1.8,1.8,2.6c5.1,4.3-.5,4.2-9.6-.2-6.1-2.9-7.5-2.4-11.4,3.7-4.2,6.7-5.8,6.1-5-1.9.5-5.9.3-6.9-1.9-8.6-2.4-1.9-4.2-2.6-10.6-3.8q-3.2-.8-1.3-3c1.1-1.3,3.5-2.6,5.4-3,4.5-1,5-2.6,3.4-9.6-2.9-12.2-3-12,1.9-6.7v.2ZM1055.2,414.5c-1,1.6-6.1.6-6.1-1s1.6-1,3.5-1q3.8,0,2.6,1.9ZM941.9,81.2l-2.2,4-2.6-5.1c-2.7-5.6-2.2-7,2.9-7.4,4.3-.3,5,2.7,1.8,8.5h.2ZM856.8,51c-1.8-6.1-1.8-9,.5-10.7,1.4-1.3,2.2-1.1,4,.5,3,2.7,2.7,8.6-.5,12l-2.6,2.6-1.3-4.5-.2.2ZM827.2,118.5c-.2-.3-1.3-2.6-2.4-5-1.8-3.7-1.8-4.6-.3-5.9,1-1,2.9-1.4,4.5-1.1,2.2.5,2.9,1.3,2.9,3.8s-3.7,9.4-4.6,8.2h0ZM952.8,175.1c-.3,1.6-1.3,2.9-2.1,2.9s-5.6-2.6-10.7-5.8c-5.1-3.2-13.8-8.2-19.2-10.9-5.4-2.9-12-6.7-14.4-8.8-2.6-1.9-5-3.7-5.6-3.7s-8.3-4.3-17.1-9.8c-8.8-5.3-19-11.5-22.9-13.6-8-4.5-21.1-13.9-22.1-16.2-.3-.8,1.4-3.8,4-6.7,5-5.6,5.1-8.8.5-8.8s-2.7-.3-2.7-.6,2.7-7.2,6.1-15c5.9-14.2,6.1-14.4,9.3-13.8,1.9.3,3.4.2,3.4-.5s1.4-2.9,3-4.8c3-3.5,3.2-3.5,10.7-2.9,4.3.5,7.4.3,6.9-.2s-.3-1.6.5-2.4c1-1.1.6-1.8-1.6-2.6-3-1.1-6.2-4.5-5.3-5.4,1-1,13.6,3.8,33,12.3,9,4,18.1,8,20.2,8.8,2.1,1,3.8,2.1,3.8,2.6s-2.1,2.2-4.6,3.8c-6.7,4.2-6.1,7,2.4,8.6q6.4,1.3,7.7,6.4c1.6,6.4,4.5,8.6,7,5.4,1-1.3,1.9-1.9,2.2-1.6s2.2,7.7,4.2,16.2c1.9,8.6,5.1,21.4,7,28.5s4,16.3,4.6,20.5c.6,4.2,1.6,8.6,2.2,9.9,1.8,4.2,3.4,12.3,2.4,12.8-.5.3-2.2-1.3-4-3.5-3.7-4.8-7.4-5.3-8.3-1.1l-.5-.2ZM958.1,193.7c0-1.1-1.3-1.6-3.5-1.6-4.3,0-4.6-1.9-.6-3.7,1.6-.8,2.9-2.2,2.9-3.5,0-3.2,3-2.6,5.8,1.3,1.3,1.9,2.4,3.5,2.2,3.8,0,.2-.3,1.6-.6,2.9-.8,4.2-6.2,5-6.2,1l.2-.2ZM792,389.4c1.6,1.4,2.9,3,2.9,3.7,0,1-4.2.3-9.3-1.6-3.5-1.3-5.9,1.3-5.9,6.1s-3,6.7-4.6,5c-.6-.6-1.3-3.2-1.4-5.8-.2-3.4-1.3-5.4-3.7-7.8l-3.4-3.2,3-.8c1.8-.5,3.8-.5,4.8,0,2.2.8,2.2-.8,0-8-1-3-1.6-5.9-1.3-6.1.2-.2,1.9,1.9,3.8,4.6,3.8,5.8,7.5,6.4,12.8,2.2,1.8-1.3,3.5-2.4,4-2.4,1.9,0-.3,3.2-3,4.5-3.4,1.6-2.9,5.9,1.1,9.8l.2-.2ZM895,353.5c2.7,2.9,2.9,3.4,1.8,4.6-.5.5-.8,1.8-1,2.9-.2,2.7-5.4,9.8-6.7,9-.5-.3-1-2.6-1-5s-.6-5-1.3-5.6c-1-1-.5-2.2,2.2-4.8l3.5-3.5,2.6,2.6-.2-.2ZM956.8,316.1c-.6-.6-1.3-4.2-1.4-8-.2-3.8-.5-7.7-.5-8.5s-1-1.4-2.6-1c-2.9.8-10.9-2.2-9.9-3.8.3-.6,2.6-1.4,5-1.8,7.4-1.3,7.8-1.9,7.5-10.6-.2-4.2,0-7.7.6-7.7,1.3,0,9,9.4,9,11s6.4.8,8.5-.8c2.6-2.1,2.9-.2.8,3.7-2.4,4.5-1.9,7.7,1.1,7.7s2.2,1,2.6,4.3l.3,4.3-7.2-.8c-6.2-.6-7-.5-6.4,1.1,1,2.4-5.9,12-7.5,10.6l.2.2ZM935,552.2c.3-3-.2-4-2.4-5.1l-2.7-1.4,3-1.9c2.1-1.4,3-3,3-5.4,0-4.2,1.9-4.3,3.7-.5.8,1.6,2.1,2.9,3,2.9s1.4.6,1,1.8c-.3,1,0,2.2.8,3,.8.6,2.4,1.9,3.8,2.9,1.9,1.4,2.1,1.6.3,1.8-1.1,0-3.4-.5-5-1.1-2.7-1-3.2-.8-5,2.9-2.4,5.1-4.3,5.3-3.7.3h0ZM907.2,680.9c-.5-3.7-1.3-5.8-2.4-5.8-2.2,0-2.1-5.8,0-6.6,1-.3,1.8-2.1,1.8-4,0-4.5,1.6-4.3,5.1.5,1.9,2.4,2.7,4.6,2.2,6.2-.3,1.3,0,2.7.6,3.2,1.6,1,1.6,3.8,0,4.8-.6.5-2.1,2.6-3,4.8-2.1,5.1-3.7,4.2-4.6-3.2h.3ZM875.5,927.1c-.8-2.4-2.1-3.5-4.5-3.8-4.8-.6-4.6-3,0-5,2.4-1,4.2-2.6,4.2-3.7s.6-1.8,2.1-1.1c1.1.5,3.5.8,5.3.6,3.7-.2,4,.3,1.1,2.4-3.7,2.7-4,4.3-1.1,6.7,1.4,1.3,2.4,2.4,2.1,2.6s-2.2,1.3-4.3,2.4l-3.7,2.1-1.1-3.4v.2Z"/>
</svg>